<?xml version="1.0" encoding="utf-8"?>
<!-- Generator: Adobe Illustrator 19.2.1, SVG Export Plug-In . SVG Version: 6.00 Build 0)  -->
<svg version="1.1" id="Calque_1" xmlns="http://www.w3.org/2000/svg" xmlns:xlink="http://www.w3.org/1999/xlink" x="0px" y="0px"
	 viewBox="0 0 120 120" style="enable-background:new 0 0 120 120;" xml:space="preserve">
<style type="text/css">
	.st0{fill:#999999;}
	.st1{fill:#999999;stroke:#231F20;stroke-width:0.1417;stroke-miterlimit:10;}
</style>
<g>
	<path class="st0" d="M0,96.9C0,109.6,10.4,120,23.2,120s23.2-10.4,23.2-23.1S36,73.7,23.2,73.7S0,84.1,0,96.9z M41.4,96.9
		c0,10-8.2,18.2-18.2,18.2S5,106.9,5,96.9s8.2-18.2,18.2-18.2S41.4,86.8,41.4,96.9z"/>
	<path class="st0" d="M73.5,23.2c0,12.8,10.4,23.2,23.2,23.2c12.8,0,23.2-10.4,23.2-23.2S109.6,0,96.8,0C83.9,0,73.5,10.4,73.5,23.2
		z M115,23.2c0,10-8.2,18.2-18.3,18.2s-18.3-8.2-18.3-18.2S86.7,5,96.8,5S115,13.1,115,23.2z"/>
	<path class="st0" d="M51.6,49.9C51.6,49.9,51.6,49.9,51.6,49.9c0,1.4,1.1,2.5,2.5,2.5l9,0.1L47.4,67.9c-1,1-1,2.5,0,3.5
		c1,1,2.5,1,3.5,0L66.6,56l0.1,9.4c0,1.4,1.1,2.5,2.5,2.5c1.4,0,2.5-1.1,2.5-2.5c0,0,0,0,0,0l-0.1-15.2c0-0.1,0-0.1,0-0.2
		c0-0.2,0-0.5-0.1-0.7c0,0,0,0,0,0c0,0-0.1-0.1-0.1-0.1c-0.1-0.2-0.2-0.4-0.4-0.6c-0.1-0.1-0.1-0.1-0.2-0.2
		c-0.2-0.1-0.3-0.3-0.5-0.3c-0.1,0-0.1-0.1-0.2-0.1c-0.3-0.1-0.5-0.2-0.8-0.2l-15-0.2C52.7,47.4,51.6,48.5,51.6,49.9z"/>
</g>
</svg>
