<svg viewBox="0 0 350 350" xmlns="http://www.w3.org/2000/svg"><path d="m179.55 270.43a8.19 8.19 0 0 1 -7.26-11.94l11.42-22a8.19 8.19 0 0 1 14.54 7.51l-11.42 22a8.19 8.19 0 0 1 -7.28 4.43z" fill="#6d6e71"/><g fill="#8ddc59"><path d="m192.58 290.14a8.2 8.2 0 0 1 -7.68-11l9.89-26.55a8.19 8.19 0 0 1 15.36 5.7l-9.89 26.55a8.21 8.21 0 0 1 -7.68 5.3z"/><path d="m209.1 307.48a8.2 8.2 0 0 1 -7.68-11l9.07-24.33a8.19 8.19 0 0 1 15.36 5.7l-9.07 24.33a8.21 8.21 0 0 1 -7.68 5.3z"/><path d="m170.44 270.43a8.21 8.21 0 0 1 -7.68-5.33l-9.89-26.54a8.19 8.19 0 0 1 15.36-5.7l9.89 26.54a8.2 8.2 0 0 1 -7.68 11.03z"/><path d="m156.84 291.25a8.21 8.21 0 0 1 -7.68-5.33l-9.89-26.55a8.19 8.19 0 0 1 15.36-5.7l9.89 26.55a8.2 8.2 0 0 1 -7.68 11.03z"/><path d="m140.89 307.48a8.19 8.19 0 0 1 -7.68-5.33l-9.06-24.33a8.19 8.19 0 0 1 15.36-5.7l9.06 24.33a8.2 8.2 0 0 1 -7.68 11.03z"/></g><path d="m324.62 48.44c-33.69-26.74-88.36-14.34-121.84 27.63-16 20-24.91 43.87-25.11 67.05a86.27 86.27 0 0 0 1.27 15.52 105.3 105.3 0 0 1 -4 41.27 105.33 105.33 0 0 1 -3.91-41.58c0-.27 0-.53 0-.8 4.17-26-3.78-56.23-23.91-81.47-33.48-42-88.15-54.37-121.84-27.63s-33.76 82.68-.28 124.67c19.71 24.7 46.76 39.16 72.55 41.41l.37.08c.32.06 30.64 5.69 51.65 24.37l-34.47 43.22a20.63 20.63 0 0 0 16.13 33.49 21.53 21.53 0 0 0 2.41-.14 20.55 20.55 0 0 0 13.85-7.64l27.51-34.5 27.53 34.49a20.51 20.51 0 0 0 13.85 7.65 21.48 21.48 0 0 0 2.39.14 20.64 20.64 0 0 0 16.14-33.49l-34.47-43.18c19.47-17.29 47.15-23.46 51.15-24.28a88 88 0 0 0 13.55-2.14c22.61-5.4 43.87-19.41 59.86-39.46 33.48-42.01 33.31-97.93-.38-124.68zm-223.94 150a8 8 0 0 0 -1.34-.11c-21.47-1.72-44.55-14.19-61.51-35.47-27.83-34.86-28.83-80.48-2.24-101.62 9.11-7.24 20.29-10.68 32.19-10.68 22.85 0 48.29 12.72 66.61 35.7 17.35 21.75 24.28 47.65 20.61 69.2a7.94 7.94 0 0 0 -.22 1.17c-2.38 12.55-8.41 23.56-18.14 31.28-10.08 8.01-22.64 11.37-35.96 10.58zm32.23 10.61a62.37 62.37 0 0 0 23.23-17.51 120.35 120.35 0 0 0 9.07 28.64 8.23 8.23 0 0 0 -2.25 1.94l-3.19 4a114 114 0 0 0 -26.86-17.02zm1.74 88.61a4.37 4.37 0 0 1 -6 .69 4.33 4.33 0 0 1 -.68-6l42.5-53.29 6.46 5.68zm87.43-5.34a4.22 4.22 0 0 1 .89 3.15 4.28 4.28 0 0 1 -1.58 2.87 4.14 4.14 0 0 1 -3.16.89 4.3 4.3 0 0 1 -2.87-1.58l-29.88-37.45 5.49-6.89zm-36.56-61.81-4.13-3.64a116.33 116.33 0 0 0 12.5-35.27 63.59 63.59 0 0 0 23.11 17.52c-10.53 4.88-22 11.88-31.49 21.44zm126.65-67.64c-13.72 17.21-31.78 29.18-50.85 33.74-18.36 4.37-35.36 1.27-48-8.72-9.55-7.58-15.79-18.53-18.18-31.58 0-.19-.05-.38-.09-.57a69.42 69.42 0 0 1 -1-12.52c.16-19.56 7.8-39.8 21.54-57 18.32-23 43.76-35.7 66.61-35.7 11.89 0 23.07 3.45 32.19 10.68 26.61 21.18 25.61 66.8-2.22 101.71z" fill="#6d6e71"/></svg>