<svg enable-background="new 0 0 120 120" viewBox="0 0 120 120" xmlns="http://www.w3.org/2000/svg"><g fill="#999"><path d="m60 88.5c-1 0-1.8.8-1.8 1.8v9.4c0 1 .8 1.8 1.8 1.8s1.8-.8 1.8-1.8v-9.4c-.1-1-.8-1.8-1.8-1.8z"/><path d="m31.6 59.8c0-1-.8-1.8-1.8-1.8h-9.3c-1 0-1.8.8-1.8 1.8s.8 1.8 1.8 1.8h9.3c1-.1 1.8-.8 1.8-1.8z"/><path d="m99.8 58h-9.2c-1 0-1.8.8-1.8 1.8s.8 1.8 1.8 1.8h9.2c1 0 1.8-.8 1.8-1.8-.1-1-.9-1.8-1.8-1.8z"/><path d="m60 31.3c1 0 1.8-.8 1.8-1.8v-9.1c0-1-.8-1.8-1.8-1.8s-1.8.8-1.8 1.8v9.1c0 1.1.8 1.8 1.8 1.8z"/><path d="m93.5 26.4c-1-.9-2.2-1.4-3.5-1.4-.8 0-1.5.2-2.2.5l-39.8 20c-.9.5-1.7 1.2-2.2 2.2l-20.1 39.9c-1 1.9-.6 4.2.9 5.7 1 1 2.2 1.5 3.5 1.5.7 0 1.5-.2 2.2-.5l40-19.9c1-.5 1.8-1.3 2.2-2.2l19.9-40c1-2 .6-4.3-.9-5.8zm-23.4 43.5-40 19.9 20.2-39.9 39.7-20z"/><path d="m60.1 52.1c-4.3 0-7.8 3.5-7.8 7.8s3.5 7.8 7.8 7.8 7.8-3.5 7.8-7.8-3.5-7.8-7.8-7.8zm0 12c-2.3 0-4.2-1.9-4.2-4.2s1.9-4.2 4.2-4.2 4.2 1.9 4.2 4.2c.1 2.3-1.8 4.2-4.2 4.2z"/><path d="m60 0c-33.1 0-60 26.9-60 60s26.9 60 60 60 60-26.9 60-60-26.9-60-60-60zm0 115c-30.3 0-55-24.7-55-55s24.7-55 55-55 55 24.7 55 55-24.7 55-55 55z"/></g></svg>