<svg enable-background="new 0 0 1008 612" height="612" viewBox="0 0 1008 612" width="1008" xmlns="http://www.w3.org/2000/svg"><g fill="#fff"><path d="m504 440.425c-4.716 0-8.49 3.773-8.49 8.49v44.336c0 4.718 3.773 8.491 8.49 8.491s8.489-3.773 8.489-8.491v-44.336c-.47-4.717-3.772-8.49-8.489-8.49z"/><path d="m370.047 305.057c0-4.717-3.773-8.49-8.49-8.49h-43.865c-4.716 0-8.49 3.773-8.49 8.49s3.773 8.49 8.49 8.49h43.865c4.716-.472 8.49-3.774 8.49-8.49z"/><path d="m691.724 296.566h-43.394c-4.717 0-8.49 3.773-8.49 8.49s3.773 8.49 8.49 8.49h43.394c4.717 0 8.49-3.773 8.49-8.49-.472-4.716-4.245-8.49-8.49-8.49z"/><path d="m504 170.632c4.717 0 8.489-3.773 8.489-8.49v-42.922c0-4.717-3.772-8.49-8.489-8.49-4.716 0-8.49 3.773-8.49 8.49v42.922c0 5.188 3.774 8.49 8.49 8.49z"/><path d="m662.008 147.52c-4.716-4.245-10.376-6.604-16.508-6.604-3.773 0-7.075.943-10.377 2.358l-187.723 94.334c-4.245 2.358-8.019 5.66-10.376 10.376l-94.806 188.196c-4.716 8.962-2.83 19.811 4.245 26.886 4.716 4.716 10.376 7.075 16.508 7.075 3.302 0 7.075-.944 10.376-2.359l188.667-93.86c4.716-2.359 8.489-6.133 10.376-10.378l93.862-188.667c4.718-9.434 2.831-20.282-4.244-27.357zm-110.37 205.175-188.666 93.862 95.277-188.196 187.251-94.333z"/><path d="m504.472 268.738c-20.282 0-36.79 16.508-36.79 36.791 0 20.281 16.508 36.79 36.79 36.79s36.79-16.509 36.79-36.79c0-20.282-16.508-36.791-36.79-36.791zm0 56.601c-10.848 0-19.81-8.963-19.81-19.81 0-10.849 8.962-19.811 19.81-19.811 10.849 0 19.81 8.961 19.81 19.811.472 10.847-8.49 19.81-19.81 19.81z"/><path d="m504 23c-156.122 0-283 126.878-283 283 0 156.121 126.878 283 283 283 156.121 0 283-126.879 283-283 0-156.122-126.879-283-283-283zm0 542.417c-142.915 0-259.417-116.502-259.417-259.417s116.502-259.417 259.417-259.417 259.417 116.502 259.417 259.417-116.502 259.417-259.417 259.417z"/></g></svg>