<?xml version="1.0" encoding="utf-8"?>
<!-- Generator: Adobe Illustrator 19.2.1, SVG Export Plug-In . SVG Version: 6.00 Build 0)  -->
<svg version="1.1" id="Calque_1" xmlns="http://www.w3.org/2000/svg" xmlns:xlink="http://www.w3.org/1999/xlink" x="0px" y="0px"
	 viewBox="0 0 120 120" style="enable-background:new 0 0 120 120;" xml:space="preserve">
<style type="text/css">
	.st0{fill:#65C456;}
	.st1{fill:#65C456;stroke:#231F20;stroke-width:0.1417;stroke-miterlimit:10;}
</style>
<g>
	<path class="st0" d="M60,0C26.9,0,0,26.9,0,60s26.9,60,60,60c33.1,0,60-26.9,60-60S93.1,0,60,0z M60,115C29.6,115,5,90.4,5,60
		S29.6,5,60,5s55,24.7,55,55S90.4,115,60,115z"/>
	<path class="st0" d="M80.2,57.4H62.8V39.9c0-1.4-1.1-2.5-2.5-2.5c-1.4,0-2.5,1.1-2.5,2.5v17.5H40.4c-1.4,0-2.5,1.1-2.5,2.5
		c0,1.4,1.1,2.5,2.5,2.5h17.5v17.5c0,1.4,1.1,2.5,2.5,2.5c1.4,0,2.5-1.1,2.5-2.5V62.4h17.5c1.4,0,2.5-1.1,2.5-2.5
		C82.7,58.5,81.6,57.4,80.2,57.4z"/>
</g>
</svg>
