<?xml version="1.0" encoding="utf-8"?>
<!-- Generator: Adobe Illustrator 19.2.1, SVG Export Plug-In . SVG Version: 6.00 Build 0)  -->
<svg version="1.1" id="Calque_1" xmlns="http://www.w3.org/2000/svg" xmlns:xlink="http://www.w3.org/1999/xlink" x="0px" y="0px"
	 viewBox="0 0 120 120" style="enable-background:new 0 0 120 120;" xml:space="preserve">
<style type="text/css">
	.st0{fill:#65C456;}
	.st1{fill:#65C456;stroke:#231F20;stroke-width:0.1417;stroke-miterlimit:10;}
</style>
<g>
	<path class="st0" d="M116.8,75.5C116.8,75.5,116.8,75.5,116.8,75.5c-1.8,0-3.2,1.4-3.2,3.2l-0.2,30.3L71.8,67.3
		c-1.3-1.2-3.3-1.2-4.5,0c-1.2,1.2-1.3,3.3,0,4.5l41.6,41.7l-29.8,0.1c-1.8,0-3.2,1.4-3.2,3.2c0,1.8,1.4,3.2,3.2,3.2c0,0,0,0,0,0
		l37.5-0.1c0.1,0,0.1,0,0.1,0c0.4,0,0.7-0.1,1.1-0.2c0.3-0.1,0.6-0.3,0.9-0.6c0.1,0,0.1-0.1,0.2-0.1c0.1-0.1,0.1-0.1,0.1-0.2
		c0.2-0.3,0.4-0.5,0.6-0.8c0.1-0.3,0.2-0.7,0.2-1c0-0.1,0-0.1,0-0.2v0c0,0,0,0,0,0l0.2-37.9C120,77,118.6,75.6,116.8,75.5z"/>
	<path class="st0" d="M69.5,53.7c0.8,0,1.6-0.3,2.3-0.9L113.5,11l0.2,30.3c0,1.8,1.4,3.2,3.2,3.2c0,0,0,0,0,0c1.8,0,3.2-1.4,3.2-3.2
		l-0.2-38c0-0.1,0-0.2-0.1-0.2c0-0.3-0.1-0.7-0.2-1c-0.2-0.4-0.4-0.7-0.6-1c0,0,0,0,0-0.1c0,0,0,0,0,0c-0.3-0.3-0.6-0.5-1-0.7
		c-0.3-0.1-0.7-0.2-1.1-0.2c-0.1,0-0.1,0-0.2,0L79.1,0c0,0,0,0,0,0c-1.8,0-3.2,1.4-3.2,3.2c0,1.8,1.4,3.2,3.2,3.2l29.8,0.1
		L67.3,48.2c-1.2,1.3-1.2,3.3,0,4.5C67.9,53.3,68.7,53.7,69.5,53.7z"/>
	<path class="st0" d="M11.1,6.5l29.8-0.1c1.8,0,3.2-1.4,3.2-3.2c0-1.8-1.4-3.2-3.2-3.2c0,0,0,0,0,0L3.4,0.1c-0.1,0-0.2,0-0.2,0
		c-0.3,0-0.7,0.1-1,0.2C1.8,0.5,1.6,0.7,1.3,0.9C1.3,1,1.2,1,1.1,1C1.1,1.1,1.1,1.2,1,1.2C0.8,1.5,0.6,1.7,0.4,2.1
		c-0.1,0.3-0.2,0.7-0.2,1c0,0.1,0,0.1,0,0.2v0c0,0,0,0,0,0L0,41.2c0,1.8,1.4,3.2,3.2,3.2c0,0,0,0,0,0c1.8,0,3.2-1.4,3.2-3.2L6.5,11
		l41.7,41.7c0.6,0.6,1.4,0.9,2.3,0.9c0.8,0,1.6-0.3,2.3-0.9c1.2-1.2,1.3-3.3,0-4.5L11.1,6.5z"/>
	<path class="st0" d="M48.2,67.3L6.5,109L6.4,78.7c0-1.8-1.4-3.2-3.2-3.2c0,0,0,0,0,0C1.4,75.6,0,77,0,78.8l0.2,37.9c0,0,0,0,0,0v0
		c0,0.1,0,0.1,0,0.2c0,0.3,0.1,0.7,0.2,1c0.1,0.3,0.3,0.6,0.6,0.8c0.1,0.1,0.1,0.1,0.1,0.2c0.1,0.1,0.1,0.1,0.2,0.1
		c0.3,0.2,0.5,0.4,0.9,0.6c0.3,0.1,0.7,0.2,1.1,0.2c0.1,0,0.1,0,0.1,0l37.5,0.1c0,0,0,0,0,0c1.8,0,3.2-1.4,3.2-3.2
		c0-1.8-1.4-3.2-3.2-3.2l-29.8-0.1l41.6-41.7c1.2-1.3,1.2-3.3,0-4.5C51.5,66,49.4,66,48.2,67.3z"/>
</g>
</svg>
