<?xml version="1.0" encoding="utf-8"?>
<!-- Generator: Adobe Illustrator 19.2.1, SVG Export Plug-In . SVG Version: 6.00 Build 0)  -->
<svg version="1.1" id="Calque_1" xmlns="http://www.w3.org/2000/svg" xmlns:xlink="http://www.w3.org/1999/xlink" x="0px" y="0px"
	 viewBox="0 0 120 120" style="enable-background:new 0 0 120 120;" xml:space="preserve">
<style type="text/css">
	.st0{fill:#65C456;}
	.st1{fill:#65C456;stroke:#231F20;stroke-width:0.1417;stroke-miterlimit:10;}
</style>
<g>
	<g>
		<path class="st0" d="M60.9,19.2c-12.4,0-22.7,9.3-24,21.6c-0.1,1.4,0.9,2.6,2.2,2.8c1.4,0.1,2.6-0.9,2.8-2.2
			c1-9.7,9.2-17.1,19-17.1c10.5,0,19.1,8.6,19.1,19.1c0,10.4-8.7,18.9-19.5,18.9c-1.4,0-2.5,1.1-2.5,2.5l0,20.4
			c0,1.4,1.1,2.5,2.5,2.5h0c1.4,0,2.5-1.1,2.5-2.5l0-18c12.3-1.2,22-11.4,22-23.8C85,30.1,74.2,19.2,60.9,19.2z"/>
		<path class="st0" d="M60,0C26.9,0,0,26.9,0,60c0,33.1,26.9,60,60,60s60-26.9,60-60C120,26.9,93.1,0,60,0z M60,115
			C29.7,115,5,90.3,5,60S29.7,5,60,5s55,24.7,55,55S90.3,115,60,115z"/>
	</g>
	<circle class="st0" cx="60.4" cy="98" r="2.8"/>
</g>
</svg>
