<?xml version="1.0" encoding="utf-8"?>
<!-- Generator: Adobe Illustrator 19.2.1, SVG Export Plug-In . SVG Version: 6.00 Build 0)  -->
<svg version="1.1" id="Calque_1" xmlns="http://www.w3.org/2000/svg" xmlns:xlink="http://www.w3.org/1999/xlink" x="0px" y="0px"
	 viewBox="0 0 120 120" style="enable-background:new 0 0 120 120;" xml:space="preserve">
<style type="text/css">
	.st0{fill:#65C456;}
	.st1{fill:#65C456;stroke:#231F20;stroke-width:0.1417;stroke-miterlimit:10;}
</style>
<g>
	<path class="st0" d="M60,0C26.9,0,0,26.9,0,60s26.9,60,60,60c33.2,0,60-26.9,60-60S93.2,0,60,0z M60,115.1C29.7,115.1,5,90.4,5,60
		S29.7,5,60,5s55.1,24.7,55.1,55.1S90.4,115.1,60,115.1z"/>
	<path class="st0" d="M60,31.8c-15.6,0-28.2,12.6-28.2,28.2S44.4,88.3,60,88.3c15.6,0,28.2-12.6,28.2-28.2S75.6,31.8,60,31.8z
		 M60,83.3c-12.8,0-23.3-10.4-23.3-23.3S47.2,36.8,60,36.8S83.3,47.2,83.3,60S72.9,83.3,60,83.3z"/>
	<path class="st0" d="M73.7,57.6H62.5V46.3c0-1.4-1.1-2.5-2.5-2.5c-1.4,0-2.5,1.1-2.5,2.5v11.3H46.2c-1.4,0-2.5,1.1-2.5,2.5
		s1.1,2.5,2.5,2.5h11.4v11.3c0,1.4,1.1,2.5,2.5,2.5c1.4,0,2.5-1.1,2.5-2.5V62.5h11.2c1.4,0,2.5-1.1,2.5-2.5S75.1,57.6,73.7,57.6z"/>
</g>
</svg>
