<?xml version="1.0" encoding="utf-8"?>
<!-- Generator: Adobe Illustrator 19.2.1, SVG Export Plug-In . SVG Version: 6.00 Build 0)  -->
<svg version="1.1" id="Calque_1" xmlns="http://www.w3.org/2000/svg" xmlns:xlink="http://www.w3.org/1999/xlink" x="0px" y="0px"
	 viewBox="0 0 120 120" style="enable-background:new 0 0 120 120;" xml:space="preserve">
<style type="text/css">
	.st0{fill:#65C456;}
	.st1{fill:#65C456;stroke:#231F20;stroke-width:0.1417;stroke-miterlimit:10;}
</style>
<g>
	<path class="st0" d="M60,88.5c-1,0-1.8,0.8-1.8,1.8v9.4c0,1,0.8,1.8,1.8,1.8s1.8-0.8,1.8-1.8v-9.4C61.7,89.3,61,88.5,60,88.5z"/>
	<path class="st0" d="M31.6,59.8c0-1-0.8-1.8-1.8-1.8h-9.3c-1,0-1.8,0.8-1.8,1.8c0,1,0.8,1.8,1.8,1.8h9.3
		C30.8,61.5,31.6,60.8,31.6,59.8z"/>
	<path class="st0" d="M99.8,58h-9.2c-1,0-1.8,0.8-1.8,1.8c0,1,0.8,1.8,1.8,1.8h9.2c1,0,1.8-0.8,1.8-1.8C101.5,58.8,100.7,58,99.8,58
		z"/>
	<path class="st0" d="M60,31.3c1,0,1.8-0.8,1.8-1.8v-9.1c0-1-0.8-1.8-1.8-1.8s-1.8,0.8-1.8,1.8v9.1C58.2,30.6,59,31.3,60,31.3z"/>
	<path class="st0" d="M93.5,26.4c-1-0.9-2.2-1.4-3.5-1.4c-0.8,0-1.5,0.2-2.2,0.5L48,45.5c-0.9,0.5-1.7,1.2-2.2,2.2L25.7,87.6
		c-1,1.9-0.6,4.2,0.9,5.7c1,1,2.2,1.5,3.5,1.5c0.7,0,1.5-0.2,2.2-0.5l40-19.9c1-0.5,1.8-1.3,2.2-2.2l19.9-40
		C95.4,30.2,95,27.9,93.5,26.4z M70.1,69.9l-40,19.9l20.2-39.9l39.7-20L70.1,69.9z"/>
	<path class="st0" d="M60.1,52.1c-4.3,0-7.8,3.5-7.8,7.8s3.5,7.8,7.8,7.8c4.3,0,7.8-3.5,7.8-7.8S64.4,52.1,60.1,52.1z M60.1,64.1
		c-2.3,0-4.2-1.9-4.2-4.2c0-2.3,1.9-4.2,4.2-4.2s4.2,1.9,4.2,4.2C64.4,62.2,62.5,64.1,60.1,64.1z"/>
	<path class="st0" d="M60,0C26.9,0,0,26.9,0,60c0,33.1,26.9,60,60,60s60-26.9,60-60C120,26.9,93.1,0,60,0z M60,115
		C29.7,115,5,90.3,5,60S29.7,5,60,5s55,24.7,55,55S90.3,115,60,115z"/>
</g>
</svg>
