<?xml version="1.0" encoding="utf-8"?>
<!-- Generator: Adobe Illustrator 19.2.1, SVG Export Plug-In . SVG Version: 6.00 Build 0)  -->
<svg version="1.1" id="Calque_1" xmlns="http://www.w3.org/2000/svg" xmlns:xlink="http://www.w3.org/1999/xlink" x="0px" y="0px"
	 viewBox="0 0 120 120" style="enable-background:new 0 0 120 120;" xml:space="preserve">
<style type="text/css">
	.st0{fill:#65C456;}
	.st1{fill:#65C456;stroke:#231F20;stroke-width:0.1417;stroke-miterlimit:10;}
</style>
<g>
	<path class="st0" d="M27.3,81.8c-4.1,0-7.4,3.3-7.4,7.4c0,4.1,3.3,7.4,7.4,7.4s7.4-3.3,7.4-7.4C34.7,85.1,31.4,81.8,27.3,81.8z
		 M27.3,93c-2.1,0-3.8-1.7-3.8-3.8c0-2.1,1.7-3.8,3.8-3.8s3.8,1.7,3.8,3.8C31.2,91.3,29.4,93,27.3,93z"/>
	<path class="st0" d="M92.4,81c-4.3,0-7.8,3.5-7.8,7.8c0,4.3,3.5,7.8,7.8,7.8s7.8-3.5,7.8-7.8C100.1,84.5,96.7,81,92.4,81z M92.4,93
		c-2.3,0-4.2-1.9-4.2-4.2c0-2.3,1.9-4.2,4.2-4.2s4.2,1.9,4.2,4.2C96.6,91.1,94.7,93,92.4,93z"/>
	<path class="st0" d="M74.4,88.3H44.6c-1,0-1.8,0.8-1.8,1.8c0,1,0.8,1.8,1.8,1.8h29.7c1,0,1.8-0.8,1.8-1.8
		C76.1,89.1,75.3,88.3,74.4,88.3z"/>
	<path class="st0" d="M120,60.2c0-6.3-4.3-11.5-9.7-12.2V17.5c0-9.6-7.9-17.5-17.5-17.5H27.8c-9.6,0-17.5,7.9-17.5,17.5v30.6
		C4.6,48.6,0,53.8,0,60.3C0,66.7,4.6,72,10.3,72.5v17.8c0,5.7,2.7,10.7,6.9,13.9c0,0,0,0,0,0v1.4c0,0.2,0,0.3,0,0.4l0.1,5.3
		c0,4.7,3.9,8.6,8.6,8.6h8.1c4.7,0,8.6-3.9,8.6-8.6c0,0,0-0.1,0-0.1c0,0-0.1-2.2-0.2-3.2l0.1-0.3h34.6c0,0,0,0.1,0,0.1l0.2,3.4
		c0,4.8,3.9,8.6,8.6,8.6h7.9c4.8,0,8.6-3.9,8.6-8.6v-5c0,0,0-0.3-0.1-0.7c0-0.2,0-0.3-0.1-0.5c0-0.1,0-0.1,0-0.2
		c4.7-3.1,7.9-8.5,7.9-14.6V72.4C115.7,71.7,120,66.6,120,60.2z M27.8,5h64.9c6.9,0,12.6,5.6,12.6,12.6V23c-0.5-0.1-1-0.2-1.5-0.2
		H16.6c-0.5,0-0.9,0.1-1.4,0.2v-5.4C15.3,10.6,20.9,5,27.8,5z M104.4,28.4v44.1c0,0.4-0.3,0.7-0.7,0.7H16.6c-0.4,0-0.7-0.3-0.7-0.7
		V28.4c0-0.4,0.3-0.7,0.7-0.7h87.1C104.1,27.7,104.4,28,104.4,28.4z M5,60.3c0-3.7,2.3-6.7,5.3-7.2v14.4C7.3,67,5,64,5,60.3z
		 M34.1,115H26c-2,0-3.6-1.6-3.6-3.7l-0.1-4.4c0.1,0,0.2,0.1,0.3,0.1c0.1,0,0.3,0.1,0.4,0.1c0.3,0.1,0.5,0.1,0.8,0.2
		c0.3,0.1,0.6,0.1,0.8,0.2c1.1,0.2,2.3,0.4,3.5,0.4l3.4,0c2.5,0,4.5,0,6,0c0,0.1,0,0.2,0,0.2l0.2,3.3C37.7,113.4,36.1,115,34.1,115z
		 M96.9,107.6c0.2,0,0.4,0,0.6-0.1v3.8c0,2-1.7,3.7-3.7,3.7H86c-2,0-3.7-1.6-3.7-3.8l-0.1-3.3l0-0.2l1,0h9.5c0.8,0,1.5-0.1,2.3-0.2
		C95.7,107.6,96.4,107.6,96.9,107.6z M94.2,102.7c-1.1,0-2.3,0-3.5,0c-2.7,0-4.2,0-4.7,0.1l-2.7,0.1H27.8c-0.8,0-1.6-0.1-2.4-0.2
		c-0.1,0-0.2-0.1-0.3-0.1c-5.6-1.3-9.8-6.3-9.8-12.2V78c0.4,0.1,0.9,0.2,1.4,0.2h87.1c0.5,0,1-0.1,1.5-0.2v12.4
		C105.3,96.7,100.4,102,94.2,102.7z M110.3,67.4V53.1c2.7,0.7,4.8,3.7,4.8,7.2C115,63.8,113,66.7,110.3,67.4z"/>
	<path class="st0" d="M45,15.6h29c0.9,0,1.6-0.7,1.6-1.6c0-0.9-0.7-1.6-1.6-1.6H45c-0.9,0-1.6,0.7-1.6,1.6
		C43.4,14.9,44.1,15.6,45,15.6z"/>
</g>
</svg>
