<?xml version="1.0" encoding="utf-8"?>
<!-- Generator: Adobe Illustrator 19.2.1, SVG Export Plug-In . SVG Version: 6.00 Build 0)  -->
<svg version="1.1" id="Calque_1" xmlns="http://www.w3.org/2000/svg" xmlns:xlink="http://www.w3.org/1999/xlink" x="0px" y="0px"
	 viewBox="0 0 120 120" style="enable-background:new 0 0 120 120;" xml:space="preserve">
<style type="text/css">
	.st0{fill:#65C456;}
	.st1{fill:#65C456;stroke:#231F20;stroke-width:0.1417;stroke-miterlimit:10;}
</style>
<g>
	<path class="st0" d="M99.7,43.5H35c0-0.1,0.1-0.2,0.1-0.3V29.5C35,16,46.3,5,60.1,5c12.4,0,22.7,8.8,24.5,21
		c0.2,1.4,1.5,2.3,2.8,2.1c1.4-0.2,2.3-1.4,2.1-2.8C87.4,10.6,75,0,60.1,0C43.5,0,30.1,13.3,30.1,29.5v13.6c0,0.1,0,0.2,0.1,0.3
		h-9.9c-0.4,0-0.7,0.3-0.7,0.7v75.1c0,0.4,0.3,0.7,0.7,0.7h79.5c0.4,0,0.7-0.3,0.7-0.7V44.2C100.5,43.8,100.1,43.5,99.7,43.5z
		 M95.5,115h-71V48.4h71V115z"/>
	<path class="st0" d="M60.2,90.9c1.4,0,2.5-1.1,2.5-2.5V71.4c0-1.4-1.1-2.5-2.5-2.5s-2.5,1.1-2.5,2.5v17.1
		C57.7,89.8,58.8,90.9,60.2,90.9z"/>
</g>
</svg>
