<?xml version="1.0" encoding="utf-8"?>
<!-- Generator: Adobe Illustrator 19.2.1, SVG Export Plug-In . SVG Version: 6.00 Build 0)  -->
<svg version="1.1" id="Calque_1" xmlns="http://www.w3.org/2000/svg" xmlns:xlink="http://www.w3.org/1999/xlink" x="0px" y="0px"
	 viewBox="0 0 120 120" style="enable-background:new 0 0 120 120;" xml:space="preserve">
<style type="text/css">
	.st0{fill:#65C456;}
	.st1{fill:#65C456;stroke:#231F20;stroke-width:0.1417;stroke-miterlimit:10;}
</style>
<g>
	<path class="st0" d="M99.7,43.2h-10V29.6C89.8,13,76.8,0,60.1,0C43.5,0,30.1,13.3,30.1,29.6v13.3c0,0.1,0,0.2,0.1,0.3h-9.9
		c-0.4,0-0.7,0.3-0.7,0.7v75.3c0,0.4,0.3,0.7,0.7,0.7h79.5c0.4,0,0.7-0.3,0.7-0.7V43.9C100.5,43.6,100.1,43.2,99.7,43.2z M35,42.9
		V29.6C35,16,46.3,5,60.1,5C74,5,84.8,15.8,84.8,29.6v13.6H35C35,43.1,35,43,35,42.9z M95.5,115h-71V48.2h71V115z"/>
	<path class="st0" d="M60.2,90.4c1.4,0,2.5-1.1,2.5-2.5V70.8c0-1.4-1.1-2.5-2.5-2.5s-2.5,1.1-2.5,2.5v17.1
		C57.7,89.3,58.8,90.4,60.2,90.4z"/>
</g>
</svg>
