<?xml version="1.0" encoding="utf-8"?>
<!-- Generator: Adobe Illustrator 19.2.1, SVG Export Plug-In . SVG Version: 6.00 Build 0)  -->
<svg version="1.1" id="Calque_1" xmlns="http://www.w3.org/2000/svg" xmlns:xlink="http://www.w3.org/1999/xlink" x="0px" y="0px"
	 viewBox="0 0 120 120" style="enable-background:new 0 0 120 120;" xml:space="preserve">
<style type="text/css">
	.st0{fill:#65C456;}
	.st1{fill:#65C456;stroke:#231F20;stroke-width:0.1417;stroke-miterlimit:10;}
</style>
<path class="st0" d="M116,20.1H98V2.5C98,1.1,96.9,0,95.5,0s-2.5,1.1-2.5,2.5v17.6H27.5V2.5C27.5,1.1,26.4,0,25,0
	c-1.4,0-2.5,1.1-2.5,2.5v17.6H3.2c-1.8,0-3.2,1.4-3.2,3.2V116c0,2.2,1.8,4,4,4h112c2.2,0,4-1.8,4-4V24.1
	C120,21.9,118.2,20.1,116,20.1z M115,25.1v20.1H5V25.1H115z M5,115V48.7H115V115H5z"/>
</svg>
