<?xml version="1.0" encoding="utf-8"?>
<!-- Generator: Adobe Illustrator 19.2.1, SVG Export Plug-In . SVG Version: 6.00 Build 0)  -->
<svg version="1.1" id="Calque_1" xmlns="http://www.w3.org/2000/svg" xmlns:xlink="http://www.w3.org/1999/xlink" x="0px" y="0px"
	 viewBox="0 0 120 120" style="enable-background:new 0 0 120 120;" xml:space="preserve">
<style type="text/css">
	.st0{fill:#65C456;}
	.st1{fill:#65C456;stroke:#231F20;stroke-width:0.1417;stroke-miterlimit:10;}
</style>
<g>
	<path class="st0" d="M9.9,25c5.5,0,9.9-4.4,9.9-9.8c0-5.4-4.4-9.8-9.9-9.8S0,9.7,0,15.1C0,20.6,4.4,25,9.9,25z M9.9,10.3
		c2.7,0,4.9,2.2,4.9,4.9S12.6,20,9.9,20S5,17.8,5,15.1S7.2,10.3,9.9,10.3z"/>
	<path class="st0" d="M117.5,109.7h-6.6L94.4,83.5h23.2c1.4,0,2.5-1.1,2.5-2.5s-1.1-2.5-2.5-2.5H91.6c-0.1,0-0.2,0.1-0.3,0.1
		L81.1,62.3C81,62.2,81,62,80.9,61.8l-18-28.4l5.5-8.9c0.7-1.2,0.4-2.7-0.8-3.4c-1.2-0.7-2.7-0.4-3.4,0.8l-4.2,6.8L55.6,22
		c-0.7-1.2-2.3-1.5-3.4-0.8c-1.2,0.7-1.5,2.3-0.8,3.4l5.6,8.8L28.9,78.5c0,0,0,0-0.1,0H2.5C1.1,78.5,0,79.6,0,81s1.1,2.5,2.5,2.5
		h23.3L9.6,109.5c0,0.1,0,0.2-0.1,0.2h-7c-1.4,0-2.5,1.1-2.5,2.5s1.1,2.5,2.5,2.5h115c1.4,0,2.5-1.1,2.5-2.5
		S118.9,109.7,117.5,109.7z M43.8,64c0.2-0.2,0.4-0.4,0.6-0.6L60,38.2l45.1,71.6H78.2L61.5,83.7c-0.3-0.5-0.9-0.8-1.5-0.8h0
		c-0.6,0-1.2,0.3-1.5,0.8l-16.9,26.1H15.3L43.8,64z M74,109.7H45.8L60,87.9L74,109.7z"/>
</g>
</svg>
