<?xml version="1.0" encoding="utf-8"?>
<!-- Generator: Adobe Illustrator 19.2.1, SVG Export Plug-In . SVG Version: 6.00 Build 0)  -->
<svg version="1.1" id="Calque_1" xmlns="http://www.w3.org/2000/svg" xmlns:xlink="http://www.w3.org/1999/xlink" x="0px" y="0px"
	 viewBox="0 0 120 120" style="enable-background:new 0 0 120 120;" xml:space="preserve">
<style type="text/css">
	.st0{fill:#65C456;}
</style>
<path class="st0" d="M120,22.4c0-0.8-0.4-1.6-1.1-2.1c-0.7-0.5-1.6-0.5-2.3-0.2L88.7,32L61,20c0,0-0.1,0-0.1,0
	c-0.1,0-0.2-0.1-0.3-0.1c-0.1,0-0.2-0.1-0.3-0.1c-0.1,0-0.2,0-0.3,0c-0.1,0-0.2,0-0.3,0c-0.1,0-0.2,0-0.3,0.1
	c-0.1,0-0.2,0.1-0.3,0.1c0,0-0.1,0-0.1,0L31.2,32L3.4,20.2c-0.8-0.3-1.6-0.2-2.3,0.2C0.4,20.8,0,21.6,0,22.4v63c0,1,0.6,1.9,1.5,2.3
	L30.2,100c0,0,0.1,0,0.1,0c0.3,0.1,0.6,0.2,0.9,0.2c0.3,0,0.6-0.1,0.9-0.2c0,0,0.1,0,0.1,0L60,88l27.8,11.6c0,0,0.1,0,0.1,0
	c0.3,0.1,0.6,0.2,0.9,0.2c0.3,0,0.6-0.1,0.8-0.2c0,0,0.1,0,0.1,0l28.8-12c0.9-0.4,1.5-1.3,1.5-2.3L120,22.4z M5,26.2l23.8,10.2V94
	L5,83.8V26.2z M33.7,36.3L57.5,26v57.7L33.7,94V36.3z M62.5,26l23.8,10.3v57.2l-23.8-9.9V26z M91.2,93.6V36.3L115,26.1l0,57.5
	L91.2,93.6z"/>
</svg>
