<?xml version="1.0" encoding="utf-8"?>
<!-- Generator: Adobe Illustrator 19.2.1, SVG Export Plug-In . SVG Version: 6.00 Build 0)  -->
<svg version="1.1" id="Calque_1" xmlns="http://www.w3.org/2000/svg" xmlns:xlink="http://www.w3.org/1999/xlink" x="0px" y="0px"
	 viewBox="0 0 120 120" style="enable-background:new 0 0 120 120;" xml:space="preserve">
<style type="text/css">
	.st0{fill:#65C456;}
	.st1{fill:#65C456;stroke:#231F20;stroke-width:0.1417;stroke-miterlimit:10;}
</style>
<g>
	<path class="st0" d="M117.5,105.4h-13.6V57.6l1.4,0.8c1.5,0.9,3.3,1.4,5,1.4c0.8,0,1.5-0.1,2.3-0.3c2.5-0.6,4.7-2.1,6-4.3
		c2.8-4.5,1.4-10.5-3.2-13.3h0L64.8,11c-0.2-0.1-0.4-0.2-0.7-0.3c-0.2-0.1-0.4-0.2-0.7-0.3c-0.4-0.2-0.7-0.3-1.1-0.4
		c-0.2-0.1-0.5-0.1-0.8-0.2c-0.4-0.1-0.7-0.1-1-0.1c-0.6-0.1-1.2-0.1-1.7,0c-0.4,0-0.7,0.1-1.1,0.2c-0.2,0.1-0.5,0.1-0.6,0.2
		c-0.4,0.1-0.8,0.2-1.1,0.4c-0.2,0.1-0.4,0.2-0.7,0.3c-0.2,0.1-0.4,0.2-0.6,0.3L4.7,41.5c-4.6,2.8-6,8.7-3.2,13.3
		c1.4,2.2,3.5,3.7,6,4.3c2.5,0.6,5.1,0.2,7.3-1.2l0.9-0.6v47.9H2.5c-1.4,0-2.5,1.1-2.5,2.5s1.1,2.5,2.5,2.5h115
		c1.4,0,2.5-1.1,2.5-2.5S118.8,105.4,117.5,105.4z M12.2,53.8c-1.1,0.6-2.3,0.8-3.6,0.6c-1.2-0.3-2.3-1-2.9-2.1
		c-1.4-2.2-0.7-5.1,1.6-6.5l49.9-30.5c0,0,0.3-0.1,0.3-0.2c0.1-0.1,0.2-0.1,0.3-0.2c0.2-0.1,0.3-0.1,0.6-0.2c0.1,0,0.2-0.1,0.3-0.1
		c0.2,0,0.3-0.1,0.5-0.1c0.3,0,0.6,0,0.9,0c0.2,0,0.3,0,0.5,0.1c0.1,0,0.2,0.1,0.4,0.1c0.2,0,0.3,0.1,0.5,0.2c0.1,0,0.2,0.1,0.3,0.2
		c0.1,0,0.3,0.1,0.3,0.1l50.6,30.9h0c2.2,1.4,2.9,4.3,1.6,6.5c-0.7,1.1-1.7,1.8-2.9,2.1c-1.2,0.3-2.5,0.1-3.6-0.6L61,25.6
		c-0.4-0.2-0.9-0.4-1.3-0.4c-0.5,0-0.9,0.1-1.3,0.4L12.2,53.8z M20.7,54.4l39-23.8l39.2,23.9v50.9H50V91c0-5.5-4.4-10-9.7-10
		s-9.7,4.5-9.7,10v14.4h-9.9V54.4z M46.5,105.4H34.2V91c0-3.5,2.8-6.4,6.2-6.4s6.2,2.9,6.2,6.4V105.4z"/>
	<path class="st0" d="M40.1,69.3c5.2,0,9.5-4.3,9.5-9.5s-4.3-9.5-9.5-9.5s-9.5,4.3-9.5,9.5S34.9,69.3,40.1,69.3z M40.1,53.9
		c3.3,0,6,2.7,6,5.9s-2.7,5.9-6,5.9c-3.3,0-6-2.7-6-5.9S36.8,53.9,40.1,53.9z"/>
	<path class="st0" d="M80.2,69.3c5.2,0,9.5-4.3,9.5-9.5s-4.3-9.5-9.5-9.5c-5.2,0-9.5,4.3-9.5,9.5S74.9,69.3,80.2,69.3z M80.2,53.9
		c3.3,0,6,2.7,6,5.9s-2.7,5.9-6,5.9s-6-2.7-6-5.9S76.9,53.9,80.2,53.9z"/>
	<path class="st0" d="M80.3,80.6c-5.2,0-9.5,4.3-9.5,9.5s4.3,9.5,9.5,9.5c5.2,0,9.5-4.3,9.5-9.5S85.5,80.6,80.3,80.6z M80.3,96
		c-3.3,0-6-2.7-6-5.9c0-3.3,2.7-5.9,6-5.9s6,2.7,6,5.9C86.2,93.4,83.6,96,80.3,96z"/>
</g>
</svg>
