<?xml version="1.0" encoding="utf-8"?>
<!-- Generator: Adobe Illustrator 19.2.1, SVG Export Plug-In . SVG Version: 6.00 Build 0)  -->
<svg version="1.1" id="Calque_1" xmlns="http://www.w3.org/2000/svg" xmlns:xlink="http://www.w3.org/1999/xlink" x="0px" y="0px"
	 viewBox="0 0 120 120" style="enable-background:new 0 0 120 120;" xml:space="preserve">
<style type="text/css">
	.st0{fill:#65C456;}
	.st1{fill:#65C456;stroke:#231F20;stroke-width:0.1417;stroke-miterlimit:10;}
</style>
<g>
	<path class="st0" d="M117.5,105.5h-12.1V58c1.5,0.9,3.2,1.3,4.9,1.3c3.3,0,6.5-1.6,8.3-4.6c1.4-2.2,1.8-4.8,1.2-7.3
		c-0.6-2.5-2.2-4.6-4.4-5.9L64.8,10.9c-0.2-0.1-0.4-0.2-0.6-0.3c-0.2-0.1-0.5-0.2-0.7-0.3c-0.4-0.2-0.7-0.3-1.1-0.4
		c-0.2-0.1-0.4-0.1-0.7-0.2c-0.3-0.1-0.7-0.1-1-0.1c-0.6-0.1-1.2-0.1-1.8,0c-0.3,0-0.7,0.1-1.1,0.2c-0.2,0.1-0.4,0.1-0.7,0.2
		c-0.4,0.1-0.7,0.2-1.1,0.4c-0.2,0.1-0.5,0.2-0.7,0.3c-0.2,0.1-0.4,0.2-0.6,0.3L4.7,41.1c-2.2,1.3-3.8,3.4-4.4,5.9
		c-0.6,2.5-0.2,5.1,1.2,7.3c1.4,2.2,3.5,3.7,6,4.3c2.5,0.6,5,0.2,7.2-1.1v47.9H2.5c-1.4,0-2.5,1.1-2.5,2.5s1.1,2.5,2.5,2.5h115
		c1.4,0,2.5-1.1,2.5-2.5S118.9,105.5,117.5,105.5z M8.7,53.8c-1.2-0.3-2.3-1-2.9-2.1c-0.7-1-0.8-2.3-0.6-3.5c0.3-1.2,1-2.2,2.1-2.9
		l49.9-30.2c0.1,0,0.3-0.1,0.3-0.2c0.1-0.1,0.2-0.1,0.3-0.2c0.2-0.1,0.4-0.1,0.5-0.2l0.3-0.1c0.2,0,0.4-0.1,0.5-0.1
		c0.3,0,0.6,0,0.8,0c0.2,0,0.4,0,0.5,0.1l0.4,0.1c0.2,0.1,0.4,0.1,0.5,0.2c0.1,0,0.2,0.1,0.3,0.2c0,0,0.3,0.1,0.3,0.1l50.6,30.6
		c0,0,0,0,0,0c1.1,0.6,1.8,1.7,2.1,2.9c0.3,1.2,0.1,2.5-0.6,3.5c-0.7,1-1.7,1.8-2.9,2.1c-1.2,0.3-2.5,0.1-3.5-0.5L61,25.4
		c-0.4-0.2-0.9-0.4-1.3-0.4s-0.9,0.1-1.3,0.4L12.3,53.3C11.2,53.9,10,54.1,8.7,53.8z M68.3,105.5H51.8V91.3c0-4.7,3.7-8.6,8.2-8.6
		s8.2,3.8,8.2,8.6V105.5z M100.4,105.5H71.8V91.3c0-6.7-5.3-12.1-11.8-12.1s-11.8,5.4-11.8,12.1v14.2H19.7V55.2
		c0-0.2-0.1-0.3-0.1-0.5l40.1-24.3L100.4,55V105.5z"/>
	<path class="st0" d="M49,59.5c0,6,4.9,10.9,11,10.9s11-4.9,11-10.9c0-6-4.9-10.9-11-10.9S49,53.5,49,59.5z M60,52.1
		c4.1,0,7.4,3.3,7.4,7.4s-3.3,7.4-7.4,7.4s-7.4-3.3-7.4-7.4S55.9,52.1,60,52.1z"/>
</g>
</svg>
