<?xml version="1.0" encoding="utf-8"?>
<!-- Generator: Adobe Illustrator 19.2.1, SVG Export Plug-In . SVG Version: 6.00 Build 0)  -->
<svg version="1.1" id="Calque_1" xmlns="http://www.w3.org/2000/svg" xmlns:xlink="http://www.w3.org/1999/xlink" x="0px" y="0px"
	 viewBox="0 0 120 120" style="enable-background:new 0 0 120 120;" xml:space="preserve">
<style type="text/css">
	.st0{fill:#65C456;}
	.st1{fill:#65C456;stroke:#231F20;stroke-width:0.1417;stroke-miterlimit:10;}
</style>
<g>
	<path class="st0" d="M60,51.8c4.5,0,8.2,3.7,8.2,8.2c0,4.5-3.7,8.2-8.2,8.2s-8.2-3.7-8.2-8.2C51.8,55.5,55.5,51.8,60,51.8 M60,45.5
		c-8.1,0-14.6,6.5-14.6,14.5c0,8,6.5,14.5,14.6,14.5S74.6,68,74.6,60C74.6,52,68.1,45.5,60,45.5L60,45.5z"/>
	<path class="st0" d="M14.6,51.8c4.5,0,8.2,3.7,8.2,8.2c0,4.5-3.7,8.2-8.2,8.2c-4.5,0-8.2-3.7-8.2-8.2C6.4,55.5,10.1,51.8,14.6,51.8
		 M14.6,45.5C6.5,45.5,0,52,0,60c0,8,6.5,14.5,14.6,14.5c8.1,0,14.6-6.5,14.6-14.5C29.2,52,22.6,45.5,14.6,45.5L14.6,45.5z"/>
	<path class="st0" d="M105.4,51.8c4.5,0,8.2,3.7,8.2,8.2c0,4.5-3.7,8.2-8.2,8.2c-4.5,0-8.2-3.7-8.2-8.2
		C97.2,55.5,100.9,51.8,105.4,51.8 M105.4,45.5c-8.1,0-14.6,6.5-14.6,14.5c0,8,6.5,14.5,14.6,14.5c8.1,0,14.6-6.5,14.6-14.5
		C120,52,113.5,45.5,105.4,45.5L105.4,45.5z"/>
</g>
</svg>
