<?xml version="1.0" encoding="utf-8"?>
<!-- Generator: Adobe Illustrator 19.2.1, SVG Export Plug-In . SVG Version: 6.00 Build 0)  -->
<svg version="1.1" id="Calque_1" xmlns="http://www.w3.org/2000/svg" xmlns:xlink="http://www.w3.org/1999/xlink" x="0px" y="0px"
	 viewBox="0 0 120 120" style="enable-background:new 0 0 120 120;" xml:space="preserve">
<style type="text/css">
	.st0{fill:#65C456;}
	.st1{fill:#65C456;stroke:#231F20;stroke-width:0.1417;stroke-miterlimit:10;}
</style>
<g>
	<path class="st0" d="M23.1,0C10.4,0,0,10.4,0,23.2s10.4,23.2,23.1,23.2S46.3,36,46.3,23.2S35.9,0,23.1,0z M23.1,41.4
		C13.1,41.4,5,33.2,5,23.2S13.1,5,23.1,5s18.2,8.2,18.2,18.2S33.2,41.4,23.1,41.4z"/>
	<path class="st0" d="M96.8,73.5c-12.8,0-23.2,10.4-23.2,23.2c0,12.8,10.4,23.2,23.2,23.2S120,109.6,120,96.8
		C120,83.9,109.6,73.5,96.8,73.5z M96.8,115c-10,0-18.2-8.2-18.2-18.3s8.2-18.3,18.2-18.3S115,86.7,115,96.8S106.9,115,96.8,115z"/>
	<path class="st0" d="M70.1,51.6C70.1,51.6,70.1,51.6,70.1,51.6c-1.4,0-2.5,1.1-2.5,2.5l-0.1,9L52.1,47.4c-1-1-2.5-1-3.5,0
		c-1,1-1,2.5,0,3.5L64,66.6l-9.4,0.1c-1.4,0-2.5,1.1-2.5,2.5c0,1.4,1.1,2.5,2.5,2.5c0,0,0,0,0,0l15.2-0.1c0.1,0,0.1,0,0.2,0
		c0.2,0,0.5,0,0.7-0.1c0,0,0,0,0,0c0,0,0.1-0.1,0.1-0.1c0.2-0.1,0.4-0.2,0.6-0.4c0.1-0.1,0.1-0.1,0.2-0.2c0.1-0.2,0.3-0.3,0.3-0.5
		c0-0.1,0.1-0.1,0.1-0.2c0.1-0.3,0.2-0.5,0.2-0.8l0.2-15C72.6,52.7,71.5,51.6,70.1,51.6z"/>
</g>
</svg>
