<?xml version="1.0" encoding="utf-8"?>
<!-- Generator: Adobe Illustrator 19.2.1, SVG Export Plug-In . SVG Version: 6.00 Build 0)  -->
<svg version="1.1" id="Calque_1" xmlns="http://www.w3.org/2000/svg" xmlns:xlink="http://www.w3.org/1999/xlink" x="0px" y="0px"
	 viewBox="0 0 120 120" style="enable-background:new 0 0 120 120;" xml:space="preserve">
<style type="text/css">
	.st0{fill:#65C456;}
	.st1{fill:#65C456;stroke:#231F20;stroke-width:0.1417;stroke-miterlimit:10;}
</style>
<g>
	<g>
		<path class="st0" d="M60,6.4c29.6,0,53.6,24.1,53.6,53.6S89.6,113.6,60,113.6S6.4,89.6,6.4,60S30.4,6.4,60,6.4 M60,0
			C26.9,0,0,26.9,0,60c0,33.1,26.9,60,60,60s60-26.9,60-60C120,26.9,93.1,0,60,0L60,0z"/>
	</g>
	<g>
		<path class="st0" d="M90.2,63.5H59.8c-1.8,0-3.2-1.4-3.2-3.2V22.7c0-1.8,1.4-3.2,3.2-3.2c1.8,0,3.2,1.4,3.2,3.2v34.4h27.2
			c1.8,0,3.2,1.4,3.2,3.2C93.4,62.1,91.9,63.5,90.2,63.5z"/>
	</g>
</g>
</svg>
