<?xml version="1.0" encoding="utf-8"?>
<!-- Generator: Adobe Illustrator 19.2.1, SVG Export Plug-In . SVG Version: 6.00 Build 0)  -->
<svg version="1.1" id="Calque_1" xmlns="http://www.w3.org/2000/svg" xmlns:xlink="http://www.w3.org/1999/xlink" x="0px" y="0px"
	 viewBox="0 0 120 120" style="enable-background:new 0 0 120 120;" xml:space="preserve">
<style type="text/css">
	.st0{fill:#65C456;}
	.st1{fill:#65C456;stroke:#231F20;stroke-width:0.1417;stroke-miterlimit:10;}
</style>
<circle class="st1" cx="60" cy="60" r="1.8"/>
<g>
	<path class="st0" d="M60,0C26.9,0,0,26.9,0,60s26.9,60,60,60s60-26.9,60-60S93.1,0,60,0z M60,113.6c-29.5,0-53.6-24-53.6-53.6
		S30.5,6.4,60,6.4s53.6,24,53.6,53.6S89.5,113.6,60,113.6z"/>
	<path class="st0" d="M64.5,60l23.8-24c1.2-1.3,1.2-3.3,0-4.5c-1.3-1.2-3.3-1.2-4.5,0L60,55.4l-24-24c-1.3-1.3-3.3-1.3-4.5,0
		c-1.3,1.3-1.3,3.3,0,4.5l24,24L31.7,83.9c-1.2,1.3-1.2,3.3,0,4.5c0.6,0.6,1.4,0.9,2.3,0.9c0.8,0,1.6-0.3,2.3-0.9L60,64.5l24,24
		c0.6,0.6,1.4,0.9,2.3,0.9c0.8,0,1.6-0.3,2.3-0.9c1.3-1.3,1.3-3.3,0-4.5L64.5,60z"/>
</g>
</svg>
