<?xml version="1.0" encoding="utf-8"?>
<!-- Generator: Adobe Illustrator 19.2.1, SVG Export Plug-In . SVG Version: 6.00 Build 0)  -->
<svg version="1.1" id="Calque_1" xmlns="http://www.w3.org/2000/svg" xmlns:xlink="http://www.w3.org/1999/xlink" x="0px" y="0px"
	 viewBox="0 0 120 120" style="enable-background:new 0 0 120 120;" xml:space="preserve">
<style type="text/css">
	.st0{fill:#65C456;}
	.st1{fill:#65C456;stroke:#231F20;stroke-width:0.1417;stroke-miterlimit:10;}
</style>
<g>
	<g>
		<path class="st0" d="M59.5,70.2c-12,0-21.8-9.8-21.8-21.9c0-12.1,9.8-21.9,21.8-21.9c12,0,21.8,9.8,21.8,21.9
			C81.3,60.4,71.5,70.2,59.5,70.2z M59.5,31.4c-9.3,0-16.8,7.6-16.8,16.9s7.5,16.9,16.8,16.9s16.8-7.6,16.8-16.9
			S68.8,31.4,59.5,31.4z"/>
	</g>
	<g>
		<path class="st0" d="M60.6,5c23.7,0,42.9,19.4,42.9,43.3l0,0.2c-0.1,9.7-4.2,19.8-11.6,28.2L60,112.5L28.1,76.8
			c-7.5-8.5-11.6-18.5-11.6-28.2l0-0.2C16.5,24.4,35.7,5,59.4,5l0.7,0L60.6,5 M60.6,0c-0.2,0-0.4,0-0.6,0c-0.2,0-0.4,0-0.6,0
			C32.9,0,11.5,21.6,11.5,48.3c0,0.1,0,0.2,0,0.3c0.1,11.7,5.2,22.8,12.9,31.5L60,120l35.6-39.9c7.7-8.7,12.8-19.8,12.9-31.5
			c0-0.1,0-0.2,0-0.3C108.5,21.6,87.1,0,60.6,0L60.6,0z"/>
	</g>
</g>
</svg>
