<?xml version="1.0" encoding="utf-8"?>
<!-- Generator: Adobe Illustrator 19.2.1, SVG Export Plug-In . SVG Version: 6.00 Build 0)  -->
<svg version="1.1" id="Calque_1" xmlns="http://www.w3.org/2000/svg" xmlns:xlink="http://www.w3.org/1999/xlink" x="0px" y="0px"
	 viewBox="0 0 120 120" style="enable-background:new 0 0 120 120;" xml:space="preserve">
<style type="text/css">
	.st0{fill:#65C456;}
	.st1{fill:#65C456;stroke:#231F20;stroke-width:0.1417;stroke-miterlimit:10;}
</style>
<g>
	<path class="st0" d="M60,26.4c-12,0-21.8,9.8-21.8,21.9c0,12.1,9.8,21.9,21.8,21.9c12,0,21.8-9.8,21.8-21.9
		C81.8,36.2,72,26.4,60,26.4z M60,65.2c-9.3,0-16.8-7.6-16.8-16.9S50.7,31.4,60,31.4S76.8,39,76.8,48.3S69.2,65.2,60,65.2z"/>
	<path class="st0" d="M60.6,0c-0.2,0-0.4,0-0.6,0c-0.2,0-0.4,0-0.6,0c-26.6,0-48,21.6-48,48.3c0,0.1,0,0.2,0,0.3
		c0.1,11.7,5.2,22.8,12.9,31.5L60,120l35.7-39.9c7.7-8.7,12.9-19.8,12.9-31.5c0-0.1,0-0.2,0-0.3C108.6,21.6,87.2,0,60.6,0z
		 M103.6,48.6c-0.1,9.7-4.2,19.8-11.6,28.2l-32,35.8L28.1,76.8c-7.5-8.5-11.6-18.5-11.7-28.2l0-0.2C16.4,24.4,35.7,5,59.4,5l0.7,0
		l0.5,0c23.7,0,43,19.4,43,43.3L103.6,48.6z"/>
	<path class="st0" d="M70,46.6h-8.2v-8.8c0-1-0.8-1.8-1.8-1.8c-1,0-1.8,0.8-1.8,1.8v8.8h-8.2c-1,0-1.8,0.8-1.8,1.8s0.8,1.8,1.8,1.8
		h8.2v8.8c0,1,0.8,1.8,1.8,1.8c1,0,1.8-0.8,1.8-1.8v-8.8H70c1,0,1.8-0.8,1.8-1.8S71,46.6,70,46.6z"/>
</g>
</svg>
