<?xml version="1.0" encoding="utf-8"?>
<!-- Generator: Adobe Illustrator 19.2.1, SVG Export Plug-In . SVG Version: 6.00 Build 0)  -->
<svg version="1.1" id="Calque_1" xmlns="http://www.w3.org/2000/svg" xmlns:xlink="http://www.w3.org/1999/xlink" x="0px" y="0px"
	 viewBox="0 0 120 120" style="enable-background:new 0 0 120 120;" xml:space="preserve">
<style type="text/css">
	.st0{fill:#65C456;}
	.st1{fill:#65C456;stroke:#231F20;stroke-width:0.1417;stroke-miterlimit:10;}
</style>
<g>
	<path class="st0" d="M117.5,108.4h-20c0-0.1,0-0.2,0-0.3V15.3c0-4.8-4-8.7-8.8-8.7H30.3c-4.9,0-8.8,3.9-8.8,8.7v92.7
		c0,0.1,0,0.2,0,0.3h-19c-1.4,0-2.5,1.1-2.5,2.5s1.1,2.5,2.5,2.5h115c1.4,0,2.5-1.1,2.5-2.5S118.9,108.4,117.5,108.4z M92.6,83.7
		H26.4l0-59h66.2L92.6,83.7z M26.4,88.7h66.2v19.4H67.9v-6.9c0-4.6-3.8-8.4-8.4-8.4s-8.4,3.8-8.4,8.4v6.9H26.4L26.4,88.7z
		 M54.6,101.2c0-2.7,2.2-4.9,4.9-4.9c2.7,0,4.9,2.2,4.9,4.9v6.9h-9.7V101.2z M30.3,11.6h58.5c2.1,0,3.8,1.7,3.8,3.7l0,4.5H26.4
		l0-4.5C26.4,13.3,28.2,11.6,30.3,11.6z"/>
	<path class="st0" d="M59.4,47.4c-3.9,0-7.1,3.2-7.1,7.1s3.2,7.1,7.1,7.1s7.1-3.2,7.1-7.1S63.4,47.4,59.4,47.4z M59.4,58.1
		c-2,0-3.6-1.6-3.6-3.6c0-2,1.6-3.6,3.6-3.6c2,0,3.6,1.6,3.6,3.6C63,56.5,61.4,58.1,59.4,58.1z"/>
	<path class="st0" d="M40.1,47.4c-3.9,0-7.1,3.2-7.1,7.1s3.2,7.1,7.1,7.1s7.1-3.2,7.1-7.1S44,47.4,40.1,47.4z M40.1,58.1
		c-2,0-3.6-1.6-3.6-3.6c0-2,1.6-3.6,3.6-3.6c2,0,3.6,1.6,3.6,3.6C43.7,56.5,42.1,58.1,40.1,58.1z"/>
	<path class="st0" d="M78.7,47.4c-3.9,0-7.1,3.2-7.1,7.1s3.2,7.1,7.1,7.1c3.9,0,7.1-3.2,7.1-7.1S82.7,47.4,78.7,47.4z M78.7,58.1
		c-2,0-3.6-1.6-3.6-3.6c0-2,1.6-3.6,3.6-3.6c2,0,3.6,1.6,3.6,3.6C82.3,56.5,80.7,58.1,78.7,58.1z"/>
	<path class="st0" d="M59.4,64.9c-3.9,0-7.1,3.2-7.1,7.1s3.2,7.1,7.1,7.1s7.1-3.2,7.1-7.1S63.4,64.9,59.4,64.9z M59.4,75.6
		c-2,0-3.6-1.6-3.6-3.6c0-2,1.6-3.6,3.6-3.6c2,0,3.6,1.6,3.6,3.6C63,74,61.4,75.6,59.4,75.6z"/>
	<path class="st0" d="M40.1,64.9c-3.9,0-7.1,3.2-7.1,7.1s3.2,7.1,7.1,7.1s7.1-3.2,7.1-7.1S44,64.9,40.1,64.9z M40.1,75.6
		c-2,0-3.6-1.6-3.6-3.6c0-2,1.6-3.6,3.6-3.6c2,0,3.6,1.6,3.6,3.6C43.7,74,42.1,75.6,40.1,75.6z"/>
	<path class="st0" d="M78.7,64.9c-3.9,0-7.1,3.2-7.1,7.1s3.2,7.1,7.1,7.1c3.9,0,7.1-3.2,7.1-7.1S82.7,64.9,78.7,64.9z M78.7,75.6
		c-2,0-3.6-1.6-3.6-3.6c0-2,1.6-3.6,3.6-3.6c2,0,3.6,1.6,3.6,3.6C82.3,74,80.7,75.6,78.7,75.6z"/>
	<path class="st0" d="M59.4,29.9c-3.9,0-7.1,3.2-7.1,7.1s3.2,7.1,7.1,7.1s7.1-3.2,7.1-7.1S63.4,29.9,59.4,29.9z M59.4,40.6
		c-2,0-3.6-1.6-3.6-3.6c0-2,1.6-3.6,3.6-3.6c2,0,3.6,1.6,3.6,3.6C63,39,61.4,40.6,59.4,40.6z"/>
	<path class="st0" d="M40.1,29.9c-3.9,0-7.1,3.2-7.1,7.1s3.2,7.1,7.1,7.1s7.1-3.2,7.1-7.1S44,29.9,40.1,29.9z M40.1,40.6
		c-2,0-3.6-1.6-3.6-3.6c0-2,1.6-3.6,3.6-3.6c2,0,3.6,1.6,3.6,3.6C43.7,39,42.1,40.6,40.1,40.6z"/>
	<path class="st0" d="M78.7,29.9c-3.9,0-7.1,3.2-7.1,7.1s3.2,7.1,7.1,7.1c3.9,0,7.1-3.2,7.1-7.1S82.7,29.9,78.7,29.9z M78.7,40.6
		c-2,0-3.6-1.6-3.6-3.6c0-2,1.6-3.6,3.6-3.6c2,0,3.6,1.6,3.6,3.6C82.3,39,80.7,40.6,78.7,40.6z"/>
</g>
</svg>
