<?xml version="1.0" encoding="utf-8"?>
<!-- Generator: Adobe Illustrator 19.2.1, SVG Export Plug-In . SVG Version: 6.00 Build 0)  -->
<svg version="1.1" id="Calque_1" xmlns="http://www.w3.org/2000/svg" xmlns:xlink="http://www.w3.org/1999/xlink" x="0px" y="0px"
	 viewBox="0 0 120 120" style="enable-background:new 0 0 120 120;" xml:space="preserve">
<style type="text/css">
	.st0{fill:#65C456;}
	.st1{fill:#65C456;stroke:#231F20;stroke-width:0.1417;stroke-miterlimit:10;}
</style>
<path class="st0" d="M60,5c30.3,0,55,24.7,55,55s-24.7,55-55,55S5,90.3,5,60S29.7,5,60,5 M60,0C26.9,0,0,26.9,0,60s26.9,60,60,60
	s60-26.9,60-60S93.1,0,60,0L60,0z"/>
<g>
	<path class="st0" d="M59.7,26.5c3.7,0,6.6,3,6.6,6.6s-3,6.6-6.6,6.6c-3.7,0-6.6-3-6.6-6.6S56.1,26.5,59.7,26.5 M59.7,21.5
		c-6.4,0-11.6,5.2-11.6,11.6s5.2,11.6,11.6,11.6s11.6-5.2,11.6-11.6S66.1,21.5,59.7,21.5L59.7,21.5z"/>
	<path class="st0" d="M59.8,52.2C59.8,52.2,59.8,52.2,59.8,52.2l3.3,0c1.3,0,2.1,1,2.1,2.4c0,0.5,0,2.5,0,3.1v30.4
		c0,0.2,0,0.4-0.1,0.6h5.1c1.3,0,2.4,1.1,2.4,2.4c0,1.3-1.1,2.4-2.4,2.4H49.8c-1.3,0-2.4-1.1-2.4-2.4c0-1.3,1.1-2.4,2.4-2.4h4.6
		c0-0.2-0.1-0.4-0.1-0.6V57.6c0-0.2,0-0.4,0.1-0.6h-4.6c-1.3,0-2.4-1.1-2.4-2.4s1.1-2.4,2.4-2.4L59.8,52.2
		C59.7,52.2,59.8,52.2,59.8,52.2 M59.8,47.2c-0.1,0-0.2,0-0.3,0h-9.7c-4.1,0-7.4,3.3-7.4,7.4c0,3.9,3.1,7.2,7,7.4v21.7
		c-3.9,0.2-7,3.4-7,7.4c0,4.1,3.3,7.4,7.4,7.4h20.4c4.1,0,7.4-3.3,7.4-7.4c0-4.1-3.3-7.4-7.4-7.4h0v-26c0-0.3,0-0.9,0-1.6
		c0-0.6,0-1.2,0-1.5c0-4.2-3.1-7.3-7.1-7.3h-3C60,47.3,59.9,47.2,59.8,47.2L59.8,47.2z"/>
</g>
</svg>
