<?xml version="1.0" encoding="utf-8"?>
<!-- Generator: Adobe Illustrator 19.2.1, SVG Export Plug-In . SVG Version: 6.00 Build 0)  -->
<svg version="1.1" id="Calque_1" xmlns="http://www.w3.org/2000/svg" xmlns:xlink="http://www.w3.org/1999/xlink" x="0px" y="0px"
	 viewBox="0 0 120 120" style="enable-background:new 0 0 120 120;" xml:space="preserve">
<style type="text/css">
	.st0{fill:#65C456;}
	.st1{fill:#65C456;stroke:#231F20;stroke-width:0.1417;stroke-miterlimit:10;}
</style>
<g>
	<path class="st0" d="M90.2,60.4c-16.4,0-29.8,13.3-29.8,29.8S73.8,120,90.2,120c16.4,0,29.8-13.3,29.8-29.8S106.7,60.4,90.2,60.4z
		 M90.2,115c-13.7,0-24.8-11.1-24.8-24.8s11.1-24.8,24.8-24.8S115,76.5,115,90.2S103.9,115,90.2,115z"/>
	<path class="st0" d="M101.8,79.5L83.2,97.9l-6-6.3c-1-1-2.5-1-3.5-0.1c-1,1-1,2.5-0.1,3.5l7.8,8.1c0.5,0.5,1.1,0.8,1.8,0.8
		c0,0,0,0,0,0c0.7,0,1.3-0.3,1.7-0.7L105.3,83c1-1,1-2.5,0-3.5C104.3,78.5,102.7,78.5,101.8,79.5z"/>
	<path class="st0" d="M64.6,67.4c0.6,0,1.2-0.2,1.7-0.7c1-1,1-2.5,0.1-3.5l-8.6-8.9c-1-1-2.5-1-3.5-0.1c-1,1-1,2.5-0.1,3.5l8.6,8.9
		C63.3,67.1,64,67.4,64.6,67.4z"/>
	<path class="st0" d="M30.2,0C13.5,0,0,13.5,0,30.2s13.5,30.2,30.2,30.2c16.7,0,30.2-13.5,30.2-30.2S46.8,0,30.2,0z M30.2,55.4
		C16.3,55.4,5,44.1,5,30.2C5,16.3,16.3,5,30.2,5c13.9,0,25.2,11.3,25.2,25.2C55.4,44.1,44.1,55.4,30.2,55.4z"/>
	<path class="st0" d="M42.3,18.8c-1-1-2.5-1-3.5,0l-8.6,8.6l-8.6-8.1c-1-0.9-2.6-0.9-3.5,0.1c-0.9,1-0.9,2.6,0.1,3.5l8.5,7.9
		l-8.2,8.2c-1,1-1,2.5,0,3.5c0.5,0.5,1.1,0.7,1.8,0.7c0.6,0,1.3-0.2,1.8-0.7l8.3-8.3l7.9,7.4c0.5,0.5,1.1,0.7,1.7,0.7
		c0.7,0,1.3-0.3,1.8-0.8c0.9-1,0.9-2.6-0.1-3.5l-7.8-7.3l8.5-8.5C43.3,21.3,43.3,19.7,42.3,18.8z"/>
</g>
</svg>
