<?xml version="1.0" encoding="utf-8"?>
<!-- Generator: Adobe Illustrator 19.2.1, SVG Export Plug-In . SVG Version: 6.00 Build 0)  -->
<svg version="1.1" id="Calque_1" xmlns="http://www.w3.org/2000/svg" xmlns:xlink="http://www.w3.org/1999/xlink" x="0px" y="0px"
	 viewBox="0 0 120 120" style="enable-background:new 0 0 120 120;" xml:space="preserve">
<style type="text/css">
	.st0{fill:#65C456;}
	.st1{fill:#65C456;stroke:#231F20;stroke-width:0.1417;stroke-miterlimit:10;}
</style>
<path class="st0" d="M117.4,105.1h-13.7c0-0.1,0.1-0.2,0.1-0.4V59.9l1.4,0.9c1.5,1,3.3,1.5,5.1,1.5c0.7,0,1.5-0.1,2.2-0.3
	c2.6-0.6,4.7-2.2,6.1-4.6c2.7-4.7,1.3-10.8-3.2-13.7L64.8,11.4c-0.2-0.1-0.4-0.2-0.6-0.3c-0.2-0.1-0.5-0.2-0.7-0.3
	c-0.4-0.2-0.7-0.3-1.1-0.4c-0.2-0.1-0.5-0.1-0.7-0.2c-0.4-0.1-0.7-0.1-1.1-0.2C60,10,59.4,10,58.8,10c-0.4,0-0.7,0.1-1.1,0.2
	c-0.2,0.1-0.5,0.1-0.7,0.2c-0.4,0.1-0.7,0.2-1.1,0.4c-0.2,0.1-0.4,0.2-0.7,0.4c-0.2,0.1-0.4,0.2-0.6,0.3l-50,31.9
	c-4.5,2.9-5.9,9-3.2,13.7C2.8,59.3,5,61,7.5,61.6c2.5,0.6,5.1,0.2,7.3-1.2l0.9-0.6v45.3H2.5c-1.4,0-2.5,1.1-2.5,2.5s1.1,2.5,2.5,2.5
	h114.9c1.4,0,2.5-1.1,2.5-2.5S118.8,105.1,117.4,105.1z M12.2,56.2c-1,0.7-2.3,0.9-3.5,0.6c-1.2-0.3-2.3-1.1-3-2.2
	c-1.4-2.4-0.7-5.6,1.6-7l49.9-31.9c0.1,0,0.3-0.1,0.4-0.2c0.1-0.1,0.2-0.1,0.3-0.2c0.2-0.1,0.4-0.1,0.5-0.2c0.1,0,0.2-0.1,0.3-0.1
	c0.2,0,0.3-0.1,0.5-0.1c0.3,0,0.5,0,0.8,0c0.2,0,0.3,0,0.5,0.1c0.1,0,0.2,0.1,0.3,0.1c0.2,0.1,0.4,0.1,0.5,0.2
	c0.1,0,0.2,0.1,0.3,0.2c0.1,0,0.3,0.1,0.3,0.1l50.6,32.3v0c2.2,1.4,3,4.6,1.6,7c-0.7,1.1-1.7,1.9-3,2.2c-1.2,0.3-2.4,0.1-3.5-0.6
	L61,26.7c-0.4-0.3-0.9-0.4-1.3-0.4c-0.5,0-0.9,0.1-1.3,0.4L12.2,56.2z M20.7,56.6l39-24.9l39.2,25c0,0.1-0.1,0.2-0.1,0.3v47.7
	c0,0.1,0.1,0.2,0.1,0.4H88.5c3.3-1.5,5.6-4.8,5.6-8.6c0-4.3-3-8-7-9.1c4-1.1,7-4.8,7-9.1c0-5.2-4.3-9.5-9.5-9.5
	c-5.2,0-9.5,4.3-9.5,9.5c0,4.3,3,8,7,9.1c-4,1.1-7,4.8-7,9.1c0,3.8,2.3,7.1,5.6,8.6H38.9c3.3-1.5,5.6-4.8,5.6-8.6
	c0-4.6-3.3-8.4-7.6-9.3c4.3-0.9,7.6-4.7,7.6-9.3c0-5.2-4.3-9.5-9.5-9.5s-9.5,4.3-9.5,9.5c0,4.6,3.3,8.4,7.6,9.3
	c-4.3,0.9-7.6,4.7-7.6,9.3c0,3.8,2.3,7.1,5.6,8.6H20.7V56.8C20.7,56.7,20.7,56.7,20.7,56.6z M78.6,78.2c0-3.3,2.7-5.9,6-5.9
	c3.3,0,6,2.7,6,5.9c0,3.3-2.7,5.9-6,5.9C81.3,84.2,78.6,81.5,78.6,78.2z M90.5,96.4c0,3.3-2.7,5.9-6,5.9c-3.3,0-6-2.7-6-5.9
	c0-3.3,2.7-5.9,6-5.9C87.9,90.5,90.5,93.2,90.5,96.4z M29,77.9c0-3.3,2.7-5.9,6-5.9c3.3,0,6,2.7,6,5.9c0,3.3-2.7,5.9-6,5.9
	C31.6,83.8,29,81.1,29,77.9z M40.9,96.4c0,3.3-2.7,5.9-6,5.9c-3.3,0-6-2.7-6-5.9c0-3.3,2.7-5.9,6-5.9C38.2,90.5,40.9,93.2,40.9,96.4
	z"/>
</svg>
