<?xml version="1.0" encoding="utf-8"?>
<!-- Generator: Adobe Illustrator 19.2.1, SVG Export Plug-In . SVG Version: 6.00 Build 0)  -->
<svg version="1.1" id="Calque_1" xmlns="http://www.w3.org/2000/svg" xmlns:xlink="http://www.w3.org/1999/xlink" x="0px" y="0px"
	 viewBox="0 0 120 120" style="enable-background:new 0 0 120 120;" xml:space="preserve">
<style type="text/css">
	.st0{fill:#65C456;}
	.st1{fill:#65C456;stroke:#231F20;stroke-width:0.1417;stroke-miterlimit:10;}
</style>
<path class="st0" d="M90.1,6.4c7.2,0,12.7,3.3,14.9,5.2c4.2,3.8,15.3,13.9,2.8,46.2c-11,28.3-38.4,48.4-47.8,54.6
	c-9.4-6.2-36.8-26.2-47.8-54.6C-0.4,25.5,10.8,15.4,15,11.6c2.1-1.9,7.6-5.1,14.8-5.1c9.4,0,17.9,5.7,24.8,16.5c1.2,1.8,3.2,3,5.4,3
	c0,0,0,0,0,0c2.2,0,4.2-1.1,5.4-3C72.4,12,80.7,6.4,90.1,6.4 M90.1,0C80.6,0,69.5,4.6,60,19.6C50.5,4.7,39.3,0.1,29.8,0.1
	c-8.4,0-15.5,3.5-19.1,6.8C4.2,12.8-7.1,25.7,6.2,60.1C20.5,97,60,120,60,120s39.5-23,53.8-59.9c13.3-34.4,2-47.4-4.5-53.2
	C105.7,3.6,98.5,0,90.1,0L90.1,0z"/>
</svg>
