<?xml version="1.0" encoding="utf-8"?>
<!-- Generator: Adobe Illustrator 19.2.1, SVG Export Plug-In . SVG Version: 6.00 Build 0)  -->
<svg version="1.1" id="Calque_1" xmlns="http://www.w3.org/2000/svg" xmlns:xlink="http://www.w3.org/1999/xlink" x="0px" y="0px"
	 viewBox="0 0 120 120" style="enable-background:new 0 0 120 120;" xml:space="preserve">
<style type="text/css">
	.st0{fill:#65C456;}
	.st1{fill:#65C456;stroke:#231F20;stroke-width:0.1417;stroke-miterlimit:10;}
</style>
<g>
	<path class="st0" d="M39.1,12.8c-14.5,0-26.3,11.8-26.3,26.4c0,14.6,11.8,26.4,26.3,26.4s26.3-11.8,26.3-26.4
		C65.5,24.6,53.7,12.8,39.1,12.8z M39.1,60.6c-11.8,0-21.4-9.6-21.4-21.4c0-11.8,9.6-21.4,21.4-21.4c11.8,0,21.4,9.6,21.4,21.4
		C60.5,51,50.9,60.6,39.1,60.6z"/>
	<path class="st0" d="M116.8,101.5L80.3,64.9c-2-2-4.8-3.2-7.6-3.2c-0.6,0-1.1,0.1-1.7,0.2c4.6-6.4,7.3-14.2,7.3-22.7
		C78.3,17.6,60.8,0,39.1,0S0,17.6,0,39.2c0,21.6,17.5,39.2,39.1,39.2c8.5,0,16.4-2.8,22.9-7.4c-0.5,3.3,0.5,6.7,3,9.3l36.5,36.6
		c2,2,4.7,3.2,7.6,3.2c2.7,0,5.3-1,7.3-2.9c0.1-0.1,0.2-0.2,0.4-0.3C121.1,112.6,121.1,105.8,116.8,101.5z M5,39.2
		C5,20.3,20.3,5,39.1,5s34.2,15.4,34.2,34.2c0,18.9-15.3,34.2-34.2,34.2S5,58.1,5,39.2z M113.5,113.1c-0.1,0.1-0.2,0.1-0.3,0.2
		c-2.2,2.2-6,2.2-8.2,0L68.5,76.7c-2.3-2.3-2.3-6,0-8.3c2.2-2.2,6.1-2.2,8.3,0l36.5,36.6C115.5,107.3,115.6,110.8,113.5,113.1z"/>
</g>
</svg>
