<?xml version="1.0" encoding="utf-8"?>
<!-- Generator: Adobe Illustrator 19.2.1, SVG Export Plug-In . SVG Version: 6.00 Build 0)  -->
<svg version="1.1" id="Calque_1" xmlns="http://www.w3.org/2000/svg" xmlns:xlink="http://www.w3.org/1999/xlink" x="0px" y="0px"
	 viewBox="0 0 120 120" style="enable-background:new 0 0 120 120;" xml:space="preserve">
<style type="text/css">
	.st0{fill:#65C456;}
	.st1{fill:#65C456;stroke:#231F20;stroke-width:0.1417;stroke-miterlimit:10;}
</style>
<g>
	<path class="st0" d="M116.7,27.7H3.3c-1.8,0-3.2-1.4-3.2-3.2c0-1.8,1.4-3.2,3.2-3.2h113.4c1.8,0,3.2,1.4,3.2,3.2
		C119.8,26.3,118.4,27.7,116.7,27.7z"/>
</g>
<g>
	<path class="st0" d="M116.8,63.2H3.3c-1.8,0-3.2-1.4-3.2-3.2s1.4-3.2,3.2-3.2h113.5c1.8,0,3.2,1.4,3.2,3.2S118.6,63.2,116.8,63.2z"
		/>
</g>
<g>
	<path class="st0" d="M116.8,98.6H3.2c-1.8,0-3.2-1.4-3.2-3.2c0-1.8,1.4-3.2,3.2-3.2h113.7c1.8,0,3.2,1.4,3.2,3.2
		C120,97.2,118.6,98.6,116.8,98.6z"/>
</g>
</svg>
