<?xml version="1.0" encoding="utf-8"?>
<!-- Generator: Adobe Illustrator 19.2.1, SVG Export Plug-In . SVG Version: 6.00 Build 0)  -->
<svg version="1.1" id="Calque_1" xmlns="http://www.w3.org/2000/svg" xmlns:xlink="http://www.w3.org/1999/xlink" x="0px" y="0px"
	 viewBox="0 0 120 120" style="enable-background:new 0 0 120 120;" xml:space="preserve">
<style type="text/css">
	.st0{fill:#65C456;}
	.st1{fill:#65C456;stroke:#231F20;stroke-width:0.1417;stroke-miterlimit:10;}
</style>
<path class="st0" d="M116.2,19.7H4.2c-2.3,0-4.2,1.9-4.2,4.2v72.1c0,2.3,1.9,4.2,4.2,4.2h111.5c2.3,0,4.2-1.9,4.2-4.2V23.5
	C120,21.4,118.3,19.7,116.2,19.7z M111.8,24.7l-51.2,32c-0.4,0.2-0.8,0.2-1.2,0L9.1,24.7H111.8z M5,95.3V27.9l51.7,32.8
	c1,0.7,2.2,1,3.4,1c1.1,0,2.3-0.3,3.3-1L115,28.5v66.8H5z"/>
</svg>
