<?xml version="1.0" encoding="utf-8"?>
<!-- Generator: Adobe Illustrator 19.2.1, SVG Export Plug-In . SVG Version: 6.00 Build 0)  -->
<svg version="1.1" id="Calque_1" xmlns="http://www.w3.org/2000/svg" xmlns:xlink="http://www.w3.org/1999/xlink" x="0px" y="0px"
	 viewBox="0 0 120 120" style="enable-background:new 0 0 120 120;" xml:space="preserve">
<style type="text/css">
	.st0{fill:#65C456;}
	.st1{fill:#65C456;stroke:#231F20;stroke-width:0.1417;stroke-miterlimit:10;}
</style>
<g>
	<g>
		<path class="st0" d="M104.5,14.9c5.8,0,10.6,4.9,10.6,10.9v52.8c0,3.7-2.6,6.9-6.1,7.6c-3.8,0.8-6.4,4-6.4,7.8l0,9L83.9,88
			c0,0-0.1-0.1-0.1-0.1c-1.4-1-3.1-1.6-4.8-1.6H15.5C9.7,86.3,5,81.5,5,75.5V25.7c0-6,4.7-10.9,10.6-10.9H104.5 M104.5,10h-89
			C7,10,0,17.1,0,25.7v49.7c0,8.7,7,15.7,15.5,15.7H79c0.6,0,1.3,0.2,1.8,0.6l21.9,17.6c0.6,0.4,1.2,0.6,1.8,0.6c1.6,0,3-1.3,3-3.1
			l0-13c0-1.5,1.1-2.7,2.5-3c5.7-1.2,10-6.3,10-12.4V25.7C120,17.1,113,10,104.5,10L104.5,10z"/>
	</g>
	<g>
		<g>
			<path class="st0" d="M33.2,61.3c-5.8,0-10.5-4.6-10.5-10.3s4.7-10.3,10.5-10.3c5.8,0,10.5,4.6,10.5,10.3S39,61.3,33.2,61.3z
				 M33.2,44.1c-3.8,0-7,3.1-7,6.8c0,3.8,3.1,6.8,7,6.8s7-3.1,7-6.8C40.2,47.2,37,44.1,33.2,44.1z"/>
		</g>
		<g>
			<path class="st0" d="M60,61.3c-5.8,0-10.5-4.6-10.5-10.3S54.2,40.6,60,40.6s10.5,4.6,10.5,10.3S65.8,61.3,60,61.3z M60,44.1
				c-3.8,0-7,3.1-7,6.8c0,3.8,3.1,6.8,7,6.8s7-3.1,7-6.8C66.9,47.2,63.8,44.1,60,44.1z"/>
		</g>
		<g>
			<path class="st0" d="M86.8,61.3c-5.8,0-10.5-4.6-10.5-10.3S81,40.6,86.8,40.6s10.5,4.6,10.5,10.3S92.6,61.3,86.8,61.3z
				 M86.8,44.1c-3.8,0-7,3.1-7,6.8c0,3.8,3.1,6.8,7,6.8s7-3.1,7-6.8C93.8,47.2,90.7,44.1,86.8,44.1z"/>
		</g>
	</g>
</g>
</svg>
