<?xml version="1.0" encoding="utf-8"?>
<!-- Generator: Adobe Illustrator 19.2.1, SVG Export Plug-In . SVG Version: 6.00 Build 0)  -->
<svg version="1.1" id="Calque_1" xmlns="http://www.w3.org/2000/svg" xmlns:xlink="http://www.w3.org/1999/xlink" x="0px" y="0px"
	 viewBox="0 0 120 120" style="enable-background:new 0 0 120 120;" xml:space="preserve">
<style type="text/css">
	.st0{fill:#65C456;}
	.st1{fill:#65C456;stroke:#231F20;stroke-width:0.1417;stroke-miterlimit:10;}
</style>
<path class="st0" d="M108.2,88.1h-61L42,72.4h58.1c1,0,1.9-0.6,2.3-1.6l17.2-42.8c0.3-0.8,0.2-1.6-0.3-2.3c-0.5-0.7-1.2-1.1-2.1-1.1
	h-91L21.5,9.8c-0.3-1-1.3-1.7-2.4-1.7H2.5C1.1,8.1,0,9.2,0,10.6s1.1,2.5,2.5,2.5h14.8l24.7,75H29.4c-0.1,0-0.2,0-0.3,0.1
	c-0.2,0-0.4-0.1-0.6-0.1c-6.5,0-11.8,5.3-11.8,11.9s5.3,11.9,11.8,11.9c6.5,0,11.8-5.3,11.8-11.9c0-2.6-0.9-5-2.3-6.9h7.3
	c0,0,0.1,0,0.1,0c0,0,0.1,0,0.1,0h53.2c-1.4,2-2.3,4.3-2.3,6.9c0,6.6,5.3,11.9,11.8,11.9S120,106.5,120,100S114.7,88.1,108.2,88.1z
	 M113.7,29.6L98.5,67.4H40.4L28,29.6H113.7z M28.5,106.9c-3.7,0-6.8-3.1-6.8-6.9c0-3.8,3-6.9,6.8-6.9s6.8,3.1,6.8,6.9
	C35.3,103.8,32.3,106.9,28.5,106.9z M108.2,106.9c-3.7,0-6.8-3.1-6.8-6.9c0-3.8,3-6.9,6.8-6.9s6.8,3.1,6.8,6.9
	C115,103.8,112,106.9,108.2,106.9z"/>
</svg>
