<?xml version="1.0" encoding="utf-8"?>
<!-- Generator: Adobe Illustrator 19.2.1, SVG Export Plug-In . SVG Version: 6.00 Build 0)  -->
<svg version="1.1" id="Calque_1" xmlns="http://www.w3.org/2000/svg" xmlns:xlink="http://www.w3.org/1999/xlink" x="0px" y="0px"
	 viewBox="0 0 120 120" style="enable-background:new 0 0 120 120;" xml:space="preserve">
<style type="text/css">
	.st0{fill:#65C456;}
	.st1{fill:#65C456;stroke:#231F20;stroke-width:0.1417;stroke-miterlimit:10;}
</style>
<g>
	<g>
		<path class="st0" d="M103.4,5c6.4,0,11.7,5.2,11.7,11.7v86.8c0,6.4-5.2,11.7-11.7,11.7H16.6C10.2,115,5,109.8,5,103.4V16.6
			C5,10.2,10.2,5,16.6,5H103.4 M103.4,0H16.6C7.5,0,0,7.5,0,16.6v86.8c0,9.1,7.5,16.6,16.6,16.6h86.8c9.1,0,16.6-7.5,16.6-16.6V16.6
			C120,7.5,112.5,0,103.4,0L103.4,0z"/>
	</g>
	<g>
		<path class="st0" d="M46.9,91c-4.3,0-7.8-3.5-7.8-7.8V36.8c0-3.7,2.5-6.8,6-7.6c0.3-0.1,0.6-0.2,1-0.2h0.5c0.4,0,0.6,0,0.8,0
			l14.8,0c11.8,0,21.4,9.1,21.4,20.4c0,11.2-9.6,20.4-21.4,20.4h-7.4v13.4C54.7,87.5,51.2,91,46.9,91z M46.6,34c-0.1,0-0.1,0-0.2,0
			C45,34.2,44,35.4,44,36.8v46.3c0,1.6,1.3,2.9,2.9,2.9s2.9-1.3,2.9-2.9V67.2c0-1.4,1.1-2.5,2.5-2.5h9.9c9.1,0,16.4-6.9,16.4-15.4
			S71.2,34,62.1,34h-15c-0.1,0-0.1,0-0.2,0c0,0-0.1,0-0.1,0L46.6,34z M62.1,59.1h-9.9c-1.4,0-2.5-1.1-2.5-2.5V42.1
			c0-1.4,1.1-2.5,2.5-2.5h9.9c5.9,0,10.8,4.4,10.8,9.7C72.9,54.7,68,59.1,62.1,59.1z M54.7,54.1h7.4c3.2,0,5.8-2.1,5.8-4.8
			s-2.6-4.8-5.8-4.8h-7.4V54.1z"/>
	</g>
</g>
</svg>
