<?xml version="1.0" encoding="utf-8"?>
<!-- Generator: Adobe Illustrator 19.2.1, SVG Export Plug-In . SVG Version: 6.00 Build 0)  -->
<svg version="1.1" id="Calque_1" xmlns="http://www.w3.org/2000/svg" xmlns:xlink="http://www.w3.org/1999/xlink" x="0px" y="0px"
	 viewBox="0 0 120 120" style="enable-background:new 0 0 120 120;" xml:space="preserve">
<style type="text/css">
	.st0{fill:#65C456;}
	.st1{fill:#65C456;stroke:#231F20;stroke-width:0.1417;stroke-miterlimit:10;}
</style>
<g>
	<path class="st0" d="M61.9,0.5c0,0-0.1,0-0.1-0.1c-0.1-0.1-0.2-0.1-0.3-0.2c-0.1,0-0.1-0.1-0.2-0.1c0,0,0,0,0,0
		c-0.1,0-0.2-0.1-0.3-0.1C60.7,0,60.5,0,60.2,0c0,0,0,0,0,0c0,0,0,0,0,0c0,0,0,0,0,0s0,0,0,0c0,0,0,0,0,0c0,0,0,0,0,0
		c-0.3,0-0.5,0-0.8,0.1c-0.1,0-0.2,0.1-0.3,0.1c0,0,0,0,0,0c-0.1,0-0.1,0-0.2,0.1c-0.1,0.1-0.2,0.1-0.3,0.2c0,0-0.1,0-0.1,0.1
		l-40,26.6c-1.5,1-1.9,3-0.9,4.4c1,1.5,3,1.9,4.4,0.9L57,9.2v73.1c0,1.8,1.4,3.2,3.2,3.2s3.2-1.4,3.2-3.2V9.2l34.7,23.3
		c1.5,1,3.4,0.6,4.4-0.9c1-1.5,0.6-3.5-0.9-4.4L61.9,0.5z"/>
	<path class="st0" d="M99.9,113.6H21.2c-1.8,0-3.2,1.4-3.2,3.2c0,1.8,1.4,3.2,3.2,3.2h78.7c1.8,0,3.2-1.4,3.2-3.2
		C103.1,115,101.6,113.6,99.9,113.6z"/>
</g>
</svg>
