<?xml version="1.0" encoding="utf-8"?>
<!-- Generator: Adobe Illustrator 19.2.1, SVG Export Plug-In . SVG Version: 6.00 Build 0)  -->
<svg version="1.1" id="Calque_1" xmlns="http://www.w3.org/2000/svg" xmlns:xlink="http://www.w3.org/1999/xlink" x="0px" y="0px"
	 viewBox="0 0 120 120" style="enable-background:new 0 0 120 120;" xml:space="preserve">
<style type="text/css">
	.st0{fill:#65C456;}
	.st1{fill:#65C456;stroke:#231F20;stroke-width:0.1417;stroke-miterlimit:10;}
</style>
<g>
	<path class="st0" d="M106.7,29.1H90.4c0-0.3-0.1-0.6-0.2-0.9l-5.5-11.7c-0.7-2.4-3.6-6.4-10.1-6.5C67.9,10,53.7,10,47,10.1
		c-6.5,0.1-9.4,4.2-10.1,6.5l-5.4,11.5l-0.6,1H13.3C6,29.1,0,35,0,42.3v54.6c0,7.2,6,13.1,13.3,13.1h93.4c7.3,0,13.3-5.9,13.3-13.1
		V42.3C120,35,114,29.1,106.7,29.1z M41.5,18.5c0.1-0.1,0.1-0.3,0.2-0.5c0,0,0.8-3,5.5-3c6.7-0.1,20.7-0.1,27.4,0
		c4.5,0.1,5.4,2.8,5.5,3c0,0.2,0.1,0.3,0.2,0.5l5,10.7H36.5L41.5,18.5z M115.1,96.9c0,4.5-3.7,8.2-8.3,8.2H13.3
		c-4.6,0-8.3-3.7-8.3-8.2V42.3c0-4.5,3.7-8.2,8.3-8.2h93.4c4.6,0,8.3,3.7,8.3,8.2V96.9z"/>
	<path class="st0" d="M60,56.2c-7.9,0-14.3,6.3-14.3,14.1c0,7.8,6.4,14.1,14.3,14.1s14.3-6.3,14.3-14.1C74.3,62.5,67.9,56.2,60,56.2
		z M60,80.9c-5.9,0-10.7-4.8-10.7-10.6c0-5.8,4.8-10.6,10.7-10.6s10.7,4.8,10.7,10.6C70.7,76.2,65.9,80.9,60,80.9z"/>
	<path class="st0" d="M60,42.8c-15.4,0-27.8,12.3-27.8,27.5c0,15.2,12.5,27.5,27.8,27.5s27.8-12.3,27.8-27.5
		C87.8,55.1,75.4,42.8,60,42.8z M60,94.3c-13.4,0-24.3-10.8-24.3-24c0-13.2,10.9-24,24.3-24s24.3,10.8,24.3,24
		C84.3,83.6,73.4,94.3,60,94.3z"/>
</g>
</svg>
