<?xml version="1.0" encoding="utf-8"?>
<!-- Generator: Adobe Illustrator 19.2.1, SVG Export Plug-In . SVG Version: 6.00 Build 0)  -->
<svg version="1.1" id="Calque_1" xmlns="http://www.w3.org/2000/svg" xmlns:xlink="http://www.w3.org/1999/xlink" x="0px" y="0px"
	 viewBox="0 0 120 120" style="enable-background:new 0 0 120 120;" xml:space="preserve">
<style type="text/css">
	.st0{fill:#65C456;}
	.st1{fill:#65C456;stroke:#231F20;stroke-width:0.1417;stroke-miterlimit:10;}
</style>
<g>
	<path class="st0" d="M60.1,25.3c7.4,0,14.2,2.9,22.6,9.8l29.6,24.7c-7.8,6.7-23.9,20.6-30.7,25.8c-5.8,4.5-13,9.1-21.9,9.1
		c-6.7,0-11.3-2.5-17.4-6.2C38.2,86,20.7,71.2,7.6,59.9l28.7-24.1C44.9,28.5,52.3,25.3,60.1,25.3 M60.1,20.4
		c-10.4,0-18.9,4.9-27,11.7L0,59.8c0,0,33.1,28.8,39.7,32.9c6,3.7,11.7,6.9,20,6.9c10.1,0,18.1-4.8,25-10.2
		C94,82.3,120,59.7,120,59.7L85.9,31.3C78.3,25.1,70.1,20.4,60.1,20.4L60.1,20.4z"/>
	<path class="st0" d="M60,35.6c13.5,0,24.5,10.9,24.5,24.3S73.5,84.1,60,84.1S35.5,73.2,35.5,59.8S46.5,35.6,60,35.6 M60,32.3
		c-15.3,0-27.7,12.3-27.7,27.5C32.3,75,44.7,87.4,60,87.4S87.7,75,87.7,59.8C87.7,44.6,75.3,32.3,60,32.3L60,32.3z"/>
	<path class="st0" d="M59.9,51.1c4.8,0,8.8,3.9,8.8,8.7s-3.9,8.7-8.8,8.7s-8.8-3.9-8.8-8.7S55.1,51.1,59.9,51.1 M59.9,47.9
		c-6.6,0-12,5.3-12,11.9s5.4,11.9,12,11.9s12-5.3,12-11.9S66.6,47.9,59.9,47.9L59.9,47.9z"/>
</g>
</svg>
