<?xml version="1.0" encoding="utf-8"?>
<!-- Generator: Adobe Illustrator 19.2.1, SVG Export Plug-In . SVG Version: 6.00 Build 0)  -->
<svg version="1.1" id="Calque_1" xmlns="http://www.w3.org/2000/svg" xmlns:xlink="http://www.w3.org/1999/xlink" x="0px" y="0px"
	 viewBox="0 0 120 120" style="enable-background:new 0 0 120 120;" xml:space="preserve">
<style type="text/css">
	.st0{fill:#65C456;}
	.st1{fill:#65C456;stroke:#231F20;stroke-width:0.1417;stroke-miterlimit:10;}
</style>
<path class="st0" d="M115.3,77c-6.5-10.8-27.1-22.4-29.9-24c4.2-5.6,6.8-12.5,6.8-20.1C92.2,14.7,77.8,0,60.1,0S28,14.7,28,32.9
	c0,7.6,2.6,14.6,6.8,20.2C31.3,55,11.1,66.3,4.7,77c-3.2,5.3-6.4,13.9-3.6,24.7C1.5,103.4,6,119,21.4,120c0,0,22.6,0,39.1,0
	c16.6,0,38.2,0,38.2,0c15.4-1,19.7-16.6,20.2-18.5C121.7,90.8,118.5,82.3,115.3,77z M60.1,5c15,0,27.1,12.5,27.1,27.9
	S75,60.8,60.1,60.8S33,48.3,33,32.9S45.1,5,60.1,5z M114.1,100.4c-0.4,1.4-3.8,13.4-15.7,14.2c-10.3,0.5-64.9,0.5-76.8,0
	c-11.9-0.8-15.3-12.8-15.7-14.4c-2.4-9,0.4-16.2,3.1-20.7c6.2-10.2,28.5-22.2,28.8-22.3c0.2-0.1,0.3-0.3,0.5-0.4
	c5.7,5.5,13.4,8.9,21.9,8.9c8.6,0,16.3-3.5,22-9c0.2,0.2,0.4,0.4,0.6,0.5c0.2,0.1,22.2,12.1,28.4,22.3
	C113.8,84,116.5,91.2,114.1,100.4z"/>
</svg>
