<?xml version="1.0" encoding="utf-8"?>
<!-- Generator: Adobe Illustrator 19.2.1, SVG Export Plug-In . SVG Version: 6.00 Build 0)  -->
<svg version="1.1" id="Calque_1" xmlns="http://www.w3.org/2000/svg" xmlns:xlink="http://www.w3.org/1999/xlink" x="0px" y="0px"
	 viewBox="0 0 120 120" style="enable-background:new 0 0 120 120;" xml:space="preserve">
<style type="text/css">
	.st0{fill:#65C456;}
	.st1{fill:#65C456;stroke:#231F20;stroke-width:0.1417;stroke-miterlimit:10;}
</style>
<g>
	<g>
		<path class="st0" d="M63.2,27.6c-7.8,0-14.2-6.2-14.2-13.8S55.4,0,63.2,0s14.2,6.2,14.2,13.8S71.1,27.6,63.2,27.6z M63.2,4.9
			c-5,0-9.2,4-9.2,8.9s4.1,8.9,9.2,8.9s9.2-4,9.2-8.9S68.3,4.9,63.2,4.9z"/>
	</g>
	<g>
		<path class="st0" d="M35.8,120c-1.3,0-2.6-0.2-3.9-0.6c-3.3-1-6-3.2-7.6-6.1c-1.5-2.9-1.8-6.1-0.7-9.1l22.7-65.7
			c2.1-6.1,9.2-9.6,15.8-7.8c0,0,2.1,0.5,5.1,2.5L98.1,55c2.4,1.7,3.9,4.1,4.3,6.9c0.4,2.8-0.4,5.5-2.2,7.7
			c-3.7,4.5-10.5,5.4-15.3,2l-8.4-5.9l13.3,38.5c1,3,0.8,6.2-0.7,9.1c-1.6,3-4.2,5.1-7.6,6.1c-6.7,2-13.9-1.4-16.1-7.8l-8.7-25.2
			L48,111.7C46.3,116.7,41.2,120,35.8,120z M56.8,76.3c1.1,0,2.1,0.7,2.4,1.7l11.1,32.1c1.3,3.8,5.7,5.9,9.8,4.6
			c2-0.6,3.6-1.9,4.5-3.7c0.9-1.7,1-3.5,0.4-5.3L69.2,59.9c-0.4-1,0-2.1,0.9-2.8c0.9-0.6,2.1-0.6,3,0l14.8,10.5
			c2.6,1.9,6.4,1.4,8.4-1.1c0.9-1.1,1.3-2.5,1.1-4c-0.2-1.4-1-2.7-2.3-3.6c0,0,0,0,0,0L64.3,37.2c-2.1-1.4-3.5-1.8-3.5-1.8
			c-4.1-1.1-8.4,1-9.6,4.6l-22.7,65.7c-0.6,1.7-0.5,3.6,0.4,5.3c0.9,1.8,2.5,3.1,4.5,3.7c4.1,1.2,8.5-0.8,9.8-4.6L54.4,78
			C54.7,77,55.7,76.3,56.8,76.3z"/>
	</g>
	<g>
		<path class="st0" d="M29.1,54.5c-1.1,0-2.3-0.2-3.4-0.5c-2.9-0.9-5.4-2.8-6.8-5.5c-1.4-2.7-1.7-5.7-0.8-8.6l4.2-13.3
			c1.9-5.9,8.4-9.3,14.5-7.4c6.1,1.8,9.5,8.1,7.6,14.1l-4.3,13.3C38.6,51.4,34,54.5,29.1,54.5z M33.4,23.6c-1,0-2.1,0.2-3.1,0.7
			c-1.5,0.8-2.7,2.1-3.2,3.7l-4.2,13.3c-0.5,1.6-0.3,3.3,0.5,4.8c0.8,1.5,2.2,2.6,3.8,3.1c0,0,0,0,0,0c1.7,0.5,3.4,0.3,5-0.5
			c1.5-0.8,2.7-2.1,3.2-3.7l4.3-13.3c1.1-3.3-0.9-6.9-4.3-7.9C34.7,23.7,34,23.6,33.4,23.6z"/>
	</g>
</g>
</svg>
