<?xml version="1.0" encoding="utf-8"?>
<!-- Generator: Adobe Illustrator 19.2.1, SVG Export Plug-In . SVG Version: 6.00 Build 0)  -->
<svg version="1.1" id="Calque_1" xmlns="http://www.w3.org/2000/svg" xmlns:xlink="http://www.w3.org/1999/xlink" x="0px" y="0px"
	 viewBox="0 0 120 120" style="enable-background:new 0 0 120 120;" xml:space="preserve">
<style type="text/css">
	.st0{fill:#65C456;}
	.st1{fill:#65C456;stroke:#231F20;stroke-width:0.1417;stroke-miterlimit:10;}
</style>
<g>
	<path class="st0" d="M78,73.4l32-0.1c1.8,0,3.2-1.4,3.2-3.2c0-1.8-1.4-3.2-3.2-3.2c0,0,0,0,0,0L70.3,67c-0.1,0-0.2,0-0.2,0.1
		c-0.3,0-0.7,0.1-1,0.2c-0.4,0.2-0.7,0.4-1,0.7c0,0,0,0,0,0c0,0,0,0,0,0c-0.3,0.3-0.5,0.6-0.7,1c-0.1,0.3-0.2,0.6-0.2,1
		c0,0.1-0.1,0.2-0.1,0.3l-0.2,40c0,1.8,1.4,3.2,3.2,3.2c0,0,0,0,0,0c1.8,0,3.2-1.4,3.2-3.2l0.2-32.4l41,41c0.6,0.6,1.4,0.9,2.3,0.9
		c0.8,0,1.6-0.3,2.3-0.9c1.3-1.2,1.3-3.3,0-4.5L78,73.4z"/>
	<path class="st0" d="M67.2,50c0,0.4,0.1,0.7,0.2,1.1c0.2,0.4,0.4,0.7,0.7,1c0,0,0,0,0,0c0,0,0.1,0.1,0.2,0.1
		c0.3,0.2,0.5,0.4,0.9,0.6c0.3,0.1,0.7,0.2,1.1,0.2c0,0,0.1,0,0.1,0l39.6,0.1c0,0,0,0,0,0c1.8,0,3.2-1.4,3.2-3.2
		c0-1.8-1.4-3.2-3.2-3.2l-32-0.1l41.1-41.3c1.2-1.2,1.2-3.3,0-4.5c-1.3-1.2-3.3-1.2-4.5,0l-41,41.2L73.3,9.8c0-1.8-1.4-3.2-3.2-3.2
		c0,0,0,0,0,0c-1.8,0-3.2,1.4-3.2,3.2l0.2,40C67.2,49.9,67.2,50,67.2,50z"/>
	<path class="st0" d="M50,6.7C50,6.7,50,6.7,50,6.7c-1.8,0-3.2,1.4-3.2,3.2l-0.2,32.4L5.5,1C4.2-0.3,2.2-0.3,0.9,1
		c-1.3,1.2-1.3,3.3,0,4.5l41.2,41.2l-32,0.1c-1.8,0-3.2,1.4-3.2,3.2s1.4,3.2,3.2,3.2c0,0,0,0,0,0l39.6-0.1c0.1,0,0.1,0,0.2,0
		c0.4,0,0.7-0.1,1.1-0.2c0.4-0.2,0.7-0.4,1-0.7c0,0,0,0,0,0c0,0,0,0,0,0c0.3-0.3,0.5-0.6,0.7-1c0.1-0.3,0.2-0.7,0.2-1.1
		c0,0,0-0.1,0-0.1v0c0,0,0,0,0,0l0.2-40C53.2,8.1,51.8,6.7,50,6.7z"/>
	<path class="st0" d="M52.9,70c0-0.4-0.1-0.7-0.2-1c-0.2-0.4-0.4-0.7-0.7-1c0,0,0,0,0,0c0,0-0.1-0.1-0.2-0.1
		c-0.3-0.2-0.5-0.4-0.9-0.6c-0.4-0.1-0.7-0.2-1.1-0.2c0,0-0.1,0-0.1,0h0c0,0,0,0,0,0l-39.6-0.1c0,0,0,0,0,0c-1.8,0-3.2,1.4-3.2,3.2
		c0,1.8,1.4,3.2,3.2,3.2l32,0.1l-41,41.2c-1.2,1.2-1.2,3.3,0,4.5c0.6,0.6,1.4,0.9,2.3,0.9c0.8,0,1.6-0.3,2.3-0.9l41-41.2l0.2,32.4
		c0,1.8,1.4,3.2,3.2,3.2c0,0,0,0,0,0c1.8,0,3.2-1.4,3.2-3.2l-0.2-40C53,70.1,52.9,70.1,52.9,70z"/>
</g>
</svg>
