<?xml version="1.0" encoding="utf-8"?>
<!-- Generator: Adobe Illustrator 19.2.1, SVG Export Plug-In . SVG Version: 6.00 Build 0)  -->
<svg version="1.1" id="Calque_1" xmlns="http://www.w3.org/2000/svg" xmlns:xlink="http://www.w3.org/1999/xlink" x="0px" y="0px"
	 viewBox="0 0 120 120" style="enable-background:new 0 0 120 120;" xml:space="preserve">
<style type="text/css">
	.st0{fill:#65C456;}
	.st1{fill:#65C456;stroke:#231F20;stroke-width:0.1417;stroke-miterlimit:10;}
</style>
<g>
	<path class="st0" d="M45.3,0c-1.5,0-2.7,1.2-2.7,2.7v31.2h-3.4V2.7c0-1.5-1.2-2.7-2.7-2.7s-2.7,1.2-2.7,2.7v31.2h-3.4V2.7
		c0-1.5-1.2-2.7-2.7-2.7s-2.7,1.2-2.7,2.7v31.2h-3.3V2.7c0-1.5-1.2-2.7-2.7-2.7s-2.7,1.2-2.7,2.7v33.9c0,0,0,0,0,0
		c0,6.2,3.7,11.5,9,14c-2.5,2-4.2,5.1-4.2,8.5v49.9c0,6,4.9,10.9,10.9,10.9s10.9-4.9,10.9-10.9V59.2c0-3.5-1.7-6.5-4.2-8.5
		c5.3-2.5,8.9-7.8,9-14c0,0,0,0,0,0V2.7C47.9,1.2,46.7,0,45.3,0z M37.8,109.1c0,3.1-2.5,5.6-5.6,5.6c-3.1,0-5.6-2.5-5.6-5.6V59.2
		c0-3.1,2.5-5.6,5.6-5.6c3.1,0,5.6,2.5,5.6,5.6V109.1z M32.3,46.9c-4.8,0-8.8-3.2-10-7.6h19.9C41.1,43.6,37,46.9,32.3,46.9z"/>
	<path class="st0" d="M98,68.3h-0.4c4.5-14.5,6.1-25.6,5.7-38.7c-0.5-17.3-8-26-8.2-26.3c-1.6-2.1-4-3.2-6.6-3.2
		c-4.6,0-8.3,3.7-8.3,8.3v60.3c-0.8,0.5-1.4,1.3-1.4,2.3v38.4c0,5.9,4.9,10.6,10.9,10.6s10.9-4.8,10.9-10.6V70.9
		C100.7,69.4,99.5,68.3,98,68.3z M88.6,5.3c0.9,0,1.8,0.4,2.4,1.3c0.1,0.1,6.5,7.9,7,23.1c0.4,12.9-1.3,23.9-5.9,38.6h-6.5v-60
		C85.6,6.7,86.9,5.3,88.6,5.3z M95.3,109.3c0,2.9-2.5,5.3-5.6,5.3c-3.1,0-5.6-2.4-5.6-5.3V73.6h11.1V109.3z"/>
	<path class="st0" d="M32.3,65.4c-0.9,0-1.6,0.7-1.6,1.6v42c0,0.9,0.7,1.6,1.6,1.6c0.9,0,1.6-0.7,1.6-1.6v-42
		C34,66.2,33.2,65.4,32.3,65.4z"/>
	<path class="st0" d="M89.8,110.8c0.9,0,1.6-0.7,1.6-1.6V90.8c0-0.9-0.7-1.6-1.6-1.6s-1.6,0.7-1.6,1.6v18.3
		C88.1,110.1,88.9,110.8,89.8,110.8z"/>
</g>
</svg>
