<?xml version="1.0" encoding="utf-8"?>
<!-- Generator: Adobe Illustrator 19.2.1, SVG Export Plug-In . SVG Version: 6.00 Build 0)  -->
<svg version="1.1" id="Calque_1" xmlns="http://www.w3.org/2000/svg" xmlns:xlink="http://www.w3.org/1999/xlink" x="0px" y="0px"
	 viewBox="0 0 120 120" style="enable-background:new 0 0 120 120;" xml:space="preserve">
<style type="text/css">
	.st0{fill:#65C456;}
	.st1{fill:#65C456;stroke:#231F20;stroke-width:0.1417;stroke-miterlimit:10;}
</style>
<path class="st0" d="M109.3,97H102V51.9c0-22.4-17.6-40.7-39.6-42l0-7.4c0-1.4-1.1-2.5-2.5-2.5c0,0,0,0,0,0c-1.4,0-2.5,1.1-2.5,2.5
	l0,7.4c-22,1.3-39.6,19.6-39.6,42V97h-7.1c-1.4,0-2.5,1.1-2.5,2.5s1.1,2.5,2.5,2.5h9.5c0,0,0,0,0,0s0,0,0,0h24.9
	c-0.1,0.8-0.2,1.5-0.2,2.3c0,8.6,7,15.7,15.7,15.7c8.6,0,15.7-7,15.7-15.7c0-0.8-0.1-1.6-0.2-2.3h23.3c0,0,0,0,0,0s0,0,0,0h9.7
	c1.4,0,2.5-1.1,2.5-2.5S110.6,97,109.3,97z M22.8,51.9c0-20.5,16.7-37.2,37.1-37.2S97,31.4,97,51.9V97H22.8V51.9z M71.4,104.3
	c0,5.9-4.8,10.7-10.7,10.7c-5.9,0-10.7-4.8-10.7-10.7c0-0.8,0.1-1.6,0.3-2.3h20.8C71.3,102.8,71.4,103.5,71.4,104.3z"/>
</svg>
