<?xml version="1.0" encoding="utf-8"?>
<!-- Generator: Adobe Illustrator 19.2.1, SVG Export Plug-In . SVG Version: 6.00 Build 0)  -->
<svg version="1.1" id="Calque_1" xmlns="http://www.w3.org/2000/svg" xmlns:xlink="http://www.w3.org/1999/xlink" x="0px" y="0px"
	 viewBox="0 0 120 120" style="enable-background:new 0 0 120 120;" xml:space="preserve">
<style type="text/css">
	.st0{fill:#65C456;}
	.st1{fill:#65C456;stroke:#231F20;stroke-width:0.1417;stroke-miterlimit:10;}
</style>
<path class="st0" d="M117.5,106h-4.6l-9.5-67.3c-0.1-0.7-0.5-1.3-1.1-1.7L61.4,9.5c-0.8-0.6-1.9-0.6-2.8,0l-40.8,27
	c-0.6,0.4-1,1-1.1,1.8L8.1,106H2.5c-1.4,0-2.5,1.1-2.5,2.5s1.1,2.5,2.5,2.5h115c1.4,0,2.5-1.1,2.5-2.5S118.9,106,117.5,106z
	 M21.5,40L60,14.5l38.6,26l9.2,65.5H82.1L62.9,50.6h24.3c1,0,1.8-0.8,1.8-1.8S88.2,47,87.2,47H33.3c-1,0-1.8,0.8-1.8,1.8
	s0.8,1.8,1.8,1.8h23.8C44.4,87.2,39.8,100.7,38.3,106H13.1L21.5,40z M76.8,106H43.4C46,98,53.7,75.6,60,57.4L76.8,106z"/>
</svg>
