<?xml version="1.0" encoding="utf-8"?>
<!-- Generator: Adobe Illustrator 19.2.1, SVG Export Plug-In . SVG Version: 6.00 Build 0)  -->
<svg version="1.1" id="Calque_1" xmlns="http://www.w3.org/2000/svg" xmlns:xlink="http://www.w3.org/1999/xlink" x="0px" y="0px"
	 viewBox="0 0 120 120" style="enable-background:new 0 0 120 120;" xml:space="preserve">
<style type="text/css">
	.st0{fill:#65C456;}
	.st1{fill:#65C456;stroke:#231F20;stroke-width:0.1417;stroke-miterlimit:10;}
</style>
<g>
	<path class="st0" d="M76.8,75c0,6.7,5.5,12.2,12.2,12.2s12.2-5.4,12.2-12.2S95.8,62.8,89,62.8S76.8,68.3,76.8,75z M89,66.4
		c4.8,0,8.6,3.9,8.6,8.6s-3.9,8.6-8.6,8.6s-8.6-3.9-8.6-8.6S84.3,66.4,89,66.4z"/>
	<path class="st0" d="M89.7,44.7c-0.1,0-0.3,0-0.4,0c-0.1,0-0.2,0-0.4,0v5l0.4,0l0.3,0c14,0,25.3,11.4,25.3,25.4l0,0.1
		c0,5.7-2.5,11.5-6.9,16.5l-18.8,20.9L70.5,91.7c-4.4-5-6.9-10.8-6.9-16.5l0-0.1c0-14,11.4-25.4,25.3-25.4l0-5c0,0,0,0,0,0
		c-16.8,0-30.3,13.6-30.3,30.3c0,0.1,0,0.1,0,0.2c0,7.3,3.3,14.3,8.2,19.8L89.3,120l22.5-25.1c4.9-5.5,8.1-12.4,8.2-19.8
		c0-0.1,0-0.1,0-0.2C120,58.3,106.5,44.7,89.7,44.7z"/>
	<path class="st0" d="M55.9,90.4l-18.2,9.7l-0.4-81.7l28.4-12v37.7c0,1.4,1.1,2.5,2.5,2.5s2.5-1.1,2.5-2.5V6l28.2,11.7l-0.3,22.8
		c0,1.4,1.1,2.5,2.5,2.5c0,0,0,0,0,0c1.4,0,2.5-1.1,2.5-2.4l0.4-24.4c0-1-0.6-1.9-1.5-2.3L69.5,0.2c-0.6-0.3-1.3-0.3-1.9,0l-32,13.6
		L3.4,0.4C2.7,0.1,1.8,0.1,1.1,0.6C0.4,1.1,0,1.8,0,2.7v84c0,0.9,0.5,1.8,1.4,2.2L34.9,106c0.4,0.2,0.7,0.3,1.1,0.3
		c0.4,0,0.8-0.1,1.2-0.3l21-11.2c1.2-0.6,1.7-2.2,1-3.4C58.6,90.2,57.1,89.8,55.9,90.4z M5,6.4l27.3,11.4l0.4,81.5L5,85.1V6.4z"/>
</g>
</svg>
