<?xml version="1.0" encoding="utf-8"?>
<!-- Generator: Adobe Illustrator 19.2.1, SVG Export Plug-In . SVG Version: 6.00 Build 0)  -->
<svg version="1.1" id="Calque_1" xmlns="http://www.w3.org/2000/svg" xmlns:xlink="http://www.w3.org/1999/xlink" x="0px" y="0px"
	 viewBox="0 0 120 120" style="enable-background:new 0 0 120 120;" xml:space="preserve">
<style type="text/css">
	.st0{fill:#65C456;}
	.st1{fill:#65C456;stroke:#231F20;stroke-width:0.1417;stroke-miterlimit:10;}
</style>
<g>
	<g>
		<g>
			<path class="st0" d="M60,6.4c29.6,0,53.6,24,53.6,53.6c0,29.6-24,53.6-53.6,53.6c-29.6,0-53.6-24-53.6-53.6
				C6.4,30.4,30.4,6.4,60,6.4 M60,0C26.9,0,0,26.9,0,60s26.9,60,60,60c33.1,0,60-26.9,60-60S93.1,0,60,0L60,0z"/>
		</g>
	</g>
	<g>
		<path class="st0" d="M42.5,91C42.5,91,42.5,91,42.5,91c-0.9,0-1.7-0.4-2.3-1L20.6,69.6c-1.2-1.3-1.2-3.3,0.1-4.5
			c1.3-1.2,3.3-1.2,4.5,0.1l17.4,18.1l46.9-46.7c1.3-1.2,3.3-1.2,4.5,0c1.2,1.3,1.2,3.3,0,4.5l-49.2,49C44.2,90.7,43.4,91,42.5,91z"
			/>
	</g>
</g>
</svg>
