<?xml version="1.0" encoding="utf-8"?>
<!-- Generator: Adobe Illustrator 19.2.1, SVG Export Plug-In . SVG Version: 6.00 Build 0)  -->
<svg version="1.1" id="Calque_1" xmlns="http://www.w3.org/2000/svg" xmlns:xlink="http://www.w3.org/1999/xlink" x="0px" y="0px"
	 viewBox="0 0 120 120" style="enable-background:new 0 0 120 120;" xml:space="preserve">
<style type="text/css">
	.st0{fill:#65C456;}
	.st1{fill:#65C456;stroke:#231F20;stroke-width:0.1417;stroke-miterlimit:10;}
</style>
<g>
	<g>
		<path class="st0" d="M60,5c30.3,0,55,24.7,55,55s-24.7,55-55,55S5,90.3,5,60S29.7,5,60,5 M60,0C26.9,0,0,26.9,0,60
			c0,33.1,26.9,60,60,60s60-26.9,60-60C120,26.9,93.1,0,60,0L60,0z"/>
	</g>
	<g>
		<path class="st0" d="M49.5,79.3c-0.4,0-0.9-0.1-1.3-0.3c-0.8-0.4-1.3-1.3-1.3-2.2V43.2c0-0.9,0.5-1.7,1.3-2.2
			c0.8-0.4,1.7-0.4,2.5,0l29.2,16.8c0.8,0.4,1.3,1.3,1.3,2.2s-0.5,1.7-1.3,2.2L50.8,79C50.4,79.2,49.9,79.3,49.5,79.3z M52,47.5v25
			L73.6,60L52,47.5z"/>
	</g>
</g>
</svg>
