<?xml version="1.0" encoding="utf-8"?>
<!-- Generator: Adobe Illustrator 19.2.1, SVG Export Plug-In . SVG Version: 6.00 Build 0)  -->
<svg version="1.1" id="Calque_1" xmlns="http://www.w3.org/2000/svg" xmlns:xlink="http://www.w3.org/1999/xlink" x="0px" y="0px"
	 viewBox="0 0 120 120" style="enable-background:new 0 0 120 120;" xml:space="preserve">
<style type="text/css">
	.st0{fill:#65C456;}
	.st1{fill:#65C456;stroke:#231F20;stroke-width:0.1417;stroke-miterlimit:10;}
</style>
<g>
	<path class="st0" d="M20.5,79.5c5.1,0,9.3-4.2,9.3-9.3c0-5.1-4.2-9.3-9.3-9.3c-5.1,0-9.3,4.2-9.3,9.3
		C11.2,75.4,15.4,79.5,20.5,79.5z M20.5,64.5c3.2,0,5.7,2.6,5.7,5.7c0,3.2-2.6,5.7-5.7,5.7c-3.2,0-5.7-2.6-5.7-5.7
		C14.8,67.1,17.3,64.5,20.5,64.5z"/>
	<path class="st0" d="M100.1,79.5c5.1,0,9.3-4.2,9.3-9.3c0-5.1-4.2-9.3-9.3-9.3c-5.1,0-9.3,4.2-9.3,9.3
		C90.9,75.4,95,79.5,100.1,79.5z M100.1,64.5c3.2,0,5.7,2.6,5.7,5.7c0,3.2-2.6,5.7-5.7,5.7c-3.2,0-5.7-2.6-5.7-5.7
		C94.4,67.1,97,64.5,100.1,64.5z"/>
	<path class="st0" d="M120,70.9c0-7-2.8-13.4-7.4-18.1c0.1,0,0.2,0,0.3,0c4.1-1.1,7-4.8,7-9.1c0-5.2-4.2-9.4-9.3-9.4c0,0,0,0,0,0
		c-0.4,0-0.8,0.1-1.1,0.1l-0.9-5.6c-1.3-11.6-9.1-19-20-19H31.5c-10.8,0.3-18.8,7.9-19.9,19l-0.7,5.8c-0.5-0.2-1-0.3-1.5-0.3
		c-5.1,0-9.3,4.2-9.3,9.4c0,4.3,2.9,8,7,9.1c0.1,0,0.2,0,0.3,0C2.8,57.5,0,63.8,0,70.9c0,7.5,3.3,14.3,8.4,19.1c0,0.2,0,0.4,0,0.5
		v9.7c0,5.5,4.5,10,10,10h6.6c5.5,0,10-4.5,10-10v-3.4h51v3.4c0,5.5,4.5,10,10,10h6.6c5.5,0,10-4.5,10-10l0-10.9
		C117.1,84.6,120,78.1,120,70.9z M110.6,39.3c2.4,0,4.4,2,4.4,4.4c0,2-1.4,3.7-3.3,4.2l-0.1-0.7L110.6,39.3z M31.5,14.8h57.1
		c8.3,0,14,5.6,15,14.8l3,18.4l0,0.4c-2.2-1.3-4.7-2.2-7.3-2.7l-2.1-14.2C96.7,25.1,91.9,21,85.1,21H35c-7.1,0-11.8,4-12.2,10.3
		L21,45.4c-2.4,0.5-4.7,1.3-6.9,2.3l2.4-18.4C17.4,20.9,23.5,15,31.5,14.8z M94.4,45c-0.1,0-0.1,0-0.2,0H26.1l1.6-13.2
		C28,27.9,30.5,26,35,26h50.1c4.2,0,6.9,2.2,7.3,6L94.4,45z M5,43.7c0-2.4,2-4.4,4.4-4.4l-1.1,8.6C6.4,47.5,5,45.7,5,43.7z M5,70.9
		C5,59.3,14.3,50,25.8,50h68.4c11.5,0,20.8,9.4,20.8,20.9s-9.3,20.9-20.8,20.9H25.8C14.3,91.8,5,82.4,5,70.9z M29.9,100.2
		c0,2.8-2.2,5-5,5h-6.6c-2.8,0-5-2.3-5-5v-6.7c3.7,2.1,8,3.2,12.5,3.2h4.1V100.2z M107.4,100.2c0,2.8-2.2,5-5,5h-6.6
		c-2.8,0-5-2.3-5-5v-3.4h3.4c4.8,0,9.3-1.4,13.2-3.7L107.4,100.2z"/>
	<path class="st0" d="M40.3,72.6h39.7c1,0,1.8-0.8,1.8-1.8S81,69,80.1,69H40.3c-1,0-1.8,0.8-1.8,1.8S39.4,72.6,40.3,72.6z"/>
</g>
</svg>
