<svg id="Calque_1" data-name="Calque 1" xmlns="http://www.w3.org/2000/svg" viewBox="0 0 350 350"><defs><style>.cls-1{fill:#6d6e71;}</style></defs><title>Icons_Hikster_2_colors</title><path class="cls-1" d="M77,124.42c-0.76,0-1.51,0-2.28-.08h0A31.19,31.19,0,1,1,77,124.42Zm0-48.95a17.73,17.73,0,0,0-1.27,35.41h0c9.57,0.87,18.25-6.65,19-16.39a17.74,17.74,0,0,0-16.39-19C77.83,75.48,77.4,75.47,77,75.47Z"/><path class="cls-1" d="M311.43,255.78A6.75,6.75,0,0,0,298.34,259c5,20.25-14.78,27.5-16.48,28.09L215.6,302.61l-4.38-86.38c0-15.57-12.6-27.77-28.69-27.77l-0.6,0a28.19,28.19,0,0,0-6.64.4l-43,8.23,37.94-189A6.74,6.74,0,0,0,157,5.42L123.26,173.54l-1.82-16a30.9,30.9,0,0,0-61.4,7l7.91,69.59a30.94,30.94,0,0,0,34.19,27.21c0.13,0,.29,0,3.65-0.66l-1.77,8.8c-37,1.89-40.4-19-45.11-47.93l-8.15-62a6.66,6.66,0,0,0-7.56-5.8,6.74,6.74,0,0,0-5.81,7.56L45.6,223.7c4.54,27.84,9.66,59.21,54.52,59.21l1.51,0a6.74,6.74,0,0,0,5.38,5.9,6.61,6.61,0,0,0,1.34.14,6.74,6.74,0,0,0,6.6-5.42l0.5-2.49,29.85-6.16a6.75,6.75,0,0,0-2.73-13.21l-24.24,5.05,1.77-8.81,34.78-6.66,2,65.12-87,20.33a6.75,6.75,0,0,0,3.07,13.14l212.58-49.72C297.31,296.28,318,282.08,311.43,255.78Zm-210.81-7.91a17.42,17.42,0,0,1-19.27-15.33l-7.91-69.59A17.41,17.41,0,0,1,108,159l5.46,48.05a6.76,6.76,0,0,0,2.18,4.24l-7,35Zm67.49-5a6.76,6.76,0,0,0-2.52-5.06,6.87,6.87,0,0,0-5.49-1.37L123,243.61l6.46-32.2,48.4-9.26a19.66,19.66,0,0,1,4.72-.2c8.67,0,15.2,6.13,15.21,14.62l4.51,89.16-32,7.49Z"/></svg>