<svg id="Calque_1" data-name="Calque 1" xmlns="http://www.w3.org/2000/svg" viewBox="0 0 350 350"><defs><style>.cls-1{fill:#6d6e71;}</style></defs><title>Icons_Hikster_2_colors_V2</title><path class="cls-1" d="M332.13,133.22A161.73,161.73,0,0,0,216.95,18.11,26.89,26.89,0,0,0,191.58,0H158.42a26.89,26.89,0,0,0-25.37,18.1C77.4,33,32.85,77.49,17.91,133A26.53,26.53,0,0,0,0,158.07v33.85a26.53,26.53,0,0,0,17.78,25A162,162,0,0,0,134,332.64,28.86,28.86,0,0,0,160.4,350H189.6A28.86,28.86,0,0,0,216,332.64a162.57,162.57,0,0,0,116.05-115.1c0.07-.27.13-0.54,0.17-0.8A27.19,27.19,0,0,0,350,191.27V158.71A27.18,27.18,0,0,0,332.13,133.22Zm-18.07-1.63H218.42V36.12A147.26,147.26,0,0,1,314.07,131.58ZM175,217.5a42.25,42.25,0,1,1,42.25-42.25A42.3,42.3,0,0,1,175,217.5Zm-148.51-16a9.59,9.59,0,0,1-9.58-9.58V158.07a9.59,9.59,0,0,1,9.58-9.58h95.75a59.14,59.14,0,0,0-.25,53H26.49ZM158.42,16.91h33.15a9.93,9.93,0,0,1,9.92,9.92v95.52a59.13,59.13,0,0,0-53,0V26.84A9.93,9.93,0,0,1,158.42,16.91Zm-26.84,19.2v95.47H35.95A147.21,147.21,0,0,1,131.58,36.12Zm-95.8,182.3H131.6c0,0.13,0,.26,0,0.4v95.58A145.11,145.11,0,0,1,35.78,218.42ZM189.6,333.09H160.4a11.91,11.91,0,0,1-11.91-11.91v-93a59.14,59.14,0,0,0,53,0v93A11.91,11.91,0,0,1,189.6,333.09Zm28.82-18.7V218.81c0-.13,0-0.26,0-0.4h95.83A145.66,145.66,0,0,1,218.42,314.39ZM333.09,191.27a10.23,10.23,0,0,1-10.22,10.23H228a59.14,59.14,0,0,0-.25-53h95.11a10.22,10.22,0,0,1,10.22,10.22v32.56Z"/></svg>