<svg id="Calque_1" data-name="Calque 1" xmlns="http://www.w3.org/2000/svg" viewBox="0 0 350 350"><defs><style>.cls-1{fill:#6d6e71;}</style></defs><title>Icons_Hikster_2_colors</title><path class="cls-1" d="M349.87,276.55c-5.23-45.24-28.7-73.84-72.21-87.56-16.73-4.25-18.07-10.82-18-17.76l0.21-28.12a20.26,20.26,0,0,0-11.66-18.44A41.2,41.2,0,0,0,227.35,98.1V78.93a12.2,12.2,0,0,0-8.56-11.62V49.75L253,55.42a8.58,8.58,0,0,0,1.32.11c15.27,0,24.76-8.71,24.76-22.73A21.05,21.05,0,0,0,272.25,17c-4.82-4.39-11.69-6.47-19-5.84l-29.36,3.8a26.35,26.35,0,0,0-44.42-.06l-29.17-3.77A24.29,24.29,0,0,0,131.67,17a21.08,21.08,0,0,0-6.84,15.81c0,14,9.49,22.73,24.77,22.73a8.85,8.85,0,0,0,1.33-.11L183.69,50V67.65a12.19,12.19,0,0,0-7.63,11.28V97.34a40.89,40.89,0,0,0-22.24,27.53,20.27,20.27,0,0,0-10.19,17.39l-0.19,26.28c0,6.49-7.3,13.55-13.89,13.55h-0.08l-56-.42A37.09,37.09,0,0,0,0,188.76v71.7a37.09,37.09,0,0,0,72.62,10.65A8,8,0,0,0,73.77,267v-1c0-.3.08-0.61,0.12-0.92L220,266.28c11,0.08,21.34,7.9,24.12,18.18A18.25,18.25,0,0,0,261.51,298l28.65,0.21a169.72,169.72,0,0,0-9.75,18.55,27.81,27.81,0,0,0-3.08,11.39,19.12,19.12,0,1,0,38.24,0,20.55,20.55,0,0,0-1.7-7.85c-1.65-4.5-4.81-11.47-11-22l27.07,0.2h0.16A19.94,19.94,0,0,0,345,291.85,19.57,19.57,0,0,0,349.87,276.55ZM228,30.74l27-3.5A8.19,8.19,0,0,1,261.35,29a4.87,4.87,0,0,1,1.55,3.84c0,2.84,0,6.36-7.94,6.54l-27.48-4.55A26.3,26.3,0,0,0,228,30.74ZM149,39.33c-8-.18-8-3.69-8-6.54A4.87,4.87,0,0,1,142.58,29a8.17,8.17,0,0,1,6-1.75l26.8,3.47a26.28,26.28,0,0,0,.59,4.19ZM58,208.66l-0.37,48.21c0,0.19,0,.37,0,0.56l-0.06,7.11a20.9,20.9,0,0,1-41.39-4.07v-71.7a20.9,20.9,0,0,1,41.8,0v19.9Zm135.73-99.07h14.63a24.92,24.92,0,0,1,21.84,13.09l-58.08-.44A25.1,25.1,0,0,1,193.72,109.58Zm8-90.64a10.2,10.2,0,1,1-7.37,17.22,8,8,0,0,0-.67-0.77A10.18,10.18,0,0,1,201.71,18.94ZM202.6,55.5V66.76h-2.71V55.46c0.6,0,1.21.07,1.82,0.07ZM192.26,83h18.9V93.49c-0.93-.06-1.86-0.11-2.8-0.11H193.72c-0.49,0-1,0-1.46,0V83ZM296.45,331.07a2.9,2.9,0,0,1-2.94-2.57,13.55,13.55,0,0,1,1.43-4.63q0.17-.36.33-0.72c0.32-.75.71-1.6,1.17-2.58,1,2.25,1.79,4.08,2.33,5.56a10.75,10.75,0,0,1,.6,2A2.93,2.93,0,0,1,296.45,331.07Zm36.48-50c-0.74.79-1.57,1.56-2.86,1.25l-68.46-.5a2,2,0,0,1-1.86-1.55c-4.7-17.33-21.36-30-39.62-30.15L74.19,248.91V208.71l0.08-10.83,55.08,0.41h0.2c15.37,0,30-14.33,30.08-29.63l0.19-26.28c0-2.2,1.92-3.54,4.07-4l75.77,0.57a4.06,4.06,0,0,1,4,4.06l-0.21,28.12c-0.12,17.39,9.76,28.37,29.78,33.43,37.35,11.79,56,34.57,60.56,73.85A3.41,3.41,0,0,1,332.93,281Z"/></svg>