<svg id="Calque_1" data-name="Calque 1" xmlns="http://www.w3.org/2000/svg" viewBox="0 0 350 350"><defs><style>.cls-1{fill:#6d6e71;}</style></defs><title>Icons_Hikster_2_colors</title><path class="cls-1" d="M173.35,155.41A49.36,49.36,0,1,1,222.71,106,49.42,49.42,0,0,1,173.35,155.41Zm0-80A30.62,30.62,0,1,0,204,106,30.65,30.65,0,0,0,173.35,75.43Z"/><path class="cls-1" d="M69.9,114.73a45.86,45.86,0,1,1,45.86-45.86A45.9,45.9,0,0,1,69.9,114.73Zm0-73A27.11,27.11,0,1,0,97,68.87,27.14,27.14,0,0,0,69.9,41.75Z"/><path class="cls-1" d="M275.85,114.73a45.86,45.86,0,1,1,45.86-45.86A45.9,45.9,0,0,1,275.85,114.73Zm0-73A27.11,27.11,0,1,0,303,68.87,27.14,27.14,0,0,0,275.85,41.75Z"/><path class="cls-1" d="M245.44,327a9.37,9.37,0,0,1-9.37-9.37v-66a65.08,65.08,0,0,0-130.17,0v65.17a9.37,9.37,0,0,1-18.75,0V251.66a83.83,83.83,0,0,1,167.66,0v66A9.37,9.37,0,0,1,245.44,327Z"/><path class="cls-1" d="M9.37,235.46A9.37,9.37,0,0,1,0,226.09V198.51C0,161,28.4,129.53,64.67,127c1.71-.12,3.46-0.18,5.22-0.18,30.08,0,60.95,22.84,71.79,53.13A9.37,9.37,0,0,1,124,186.23c-7.16-20-29.37-40.7-54.14-40.7q-2,0-3.88.14c-26.51,1.87-47.27,25.09-47.27,52.85v27.58A9.37,9.37,0,0,1,9.37,235.46Z"/><path class="cls-1" d="M340.63,235.46a9.37,9.37,0,0,1-9.37-9.37V200.25c0-28.75-21.54-52.73-49-54.59-1.24-.08-2.49-0.13-3.75-0.13-25.41,0-47.69,22-54.55,43.24A9.37,9.37,0,0,1,206.07,183c8.8-27.25,37.17-56.22,72.4-56.22q2.52,0,5,.17c37.31,2.53,66.52,34.72,66.52,73.3v25.84A9.37,9.37,0,0,1,340.63,235.46Z"/></svg>