<svg id="Calque_1" data-name="Calque 1" xmlns="http://www.w3.org/2000/svg" viewBox="0 0 350 350"><defs><style>.cls-1{fill:#6d6e71;}</style></defs><title>Icons_Hikster_2_colors</title><path class="cls-1" d="M174.92,296.86a6.12,6.12,0,0,1-6.12-6.12V263.3a6.12,6.12,0,0,1,12.25,0v27.44A6.12,6.12,0,0,1,174.92,296.86Z"/><path class="cls-1" d="M86.87,180.47H59.69a6.12,6.12,0,0,1,0-12.25H86.87A6.12,6.12,0,0,1,86.87,180.47Z"/><path class="cls-1" d="M291,180.47H264.21a6.12,6.12,0,0,1,0-12.25H291A6.12,6.12,0,0,1,291,180.47Z"/><path class="cls-1" d="M174.92,92.38a6.12,6.12,0,0,1-6.12-6.12V59.7a6.12,6.12,0,0,1,12.25,0V86.26A6.12,6.12,0,0,1,174.92,92.38Z"/><path class="cls-1" d="M87.78,268.05a6.12,6.12,0,0,1-5.47-8.89l58.86-116.35a6.11,6.11,0,0,1,2.71-2.71L259.78,81.7A6.13,6.13,0,0,1,268,89.89L210.07,206.7a6.13,6.13,0,0,1-2.76,2.76L90.5,267.42A6.1,6.1,0,0,1,87.78,268.05ZM151.2,150.14l-49.64,98.12L200,199.41l48.87-98.49Z"/><path class="cls-1" d="M175.4,174.56h0m0-12.25a12.32,12.32,0,1,0,12.32,12.32,12.32,12.32,0,0,0-12.32-12.32h0Z"/><path class="cls-1" d="M175,12.25c89.74,0,162.75,73,162.75,162.75S264.74,337.75,175,337.75,12.25,264.74,12.25,175,85.26,12.25,175,12.25M175,0A175,175,0,1,0,350,175,175,175,0,0,0,175,0h0Z"/></svg>