<svg id="Calque_1" data-name="Calque 1" xmlns="http://www.w3.org/2000/svg" viewBox="0 0 350 350"><defs><style>.cls-1{fill:#6d6e71;}</style></defs><title>Icons_Hikster_2_colors</title><path class="cls-1" d="M274.34,299.18c-25.43,0-40.77-9.65-54.3-18.14-13.08-8.22-25.43-16-47.32-16-21.51,0-32.59,7.23-45.41,15.62C114,289.34,99,299.18,72.17,299.18c-21.55,0-34.72-6.5-43.79-12.15a8.9,8.9,0,1,1,9.41-15.1c7.88,4.91,17.49,9.45,34.38,9.45,21.51,0,32.59-7.23,45.41-15.62,13.28-8.67,28.33-18.51,55.14-18.51,27,0,42.83,9.94,56.78,18.72,13.16,8.27,24.53,15.41,44.84,15.41,19,0,29.32-5.91,38.24-12a8.89,8.89,0,1,1,10,14.71C311.85,291.42,298.4,299.18,274.34,299.18Z"/><path class="cls-1" d="M269.43,346.58c-27,0-41.07-9.93-53.48-18.69-11.74-8.29-21.87-15.43-43.23-15.43-19,0-29.26,6.94-41.09,15-13.19,9-28.15,19.13-55.55,19.13-33,0-53.51-10.63-71.74-21.51a8.89,8.89,0,1,1,9.12-15.27c16.77,10,34.17,19,62.62,19,21.93,0,33.41-7.8,45.55-16.06,12.47-8.47,26.59-18.07,51.09-18.07,27,0,41.07,9.93,53.49,18.69,11.74,8.29,21.87,15.43,43.22,15.43,33.51,0,43.06-6.07,62.09-18.16l4.85-3.06a8.89,8.89,0,1,1,9.46,15.05l-4.77,3C321.22,338.24,308.12,346.58,269.43,346.58Z"/><path class="cls-1" d="M172.78,160.11a47.29,47.29,0,1,1,47.28-47.29A47.34,47.34,0,0,1,172.78,160.11Zm0-76.78a29.49,29.49,0,1,0,29.5,29.49A29.53,29.53,0,0,0,172.78,83.34Z"/><path class="cls-1" d="M175.78,55.34a8.89,8.89,0,0,1-8.89-8.9V12.32a8.89,8.89,0,1,1,17.78,0V46.44A8.89,8.89,0,0,1,175.78,55.34Z"/><path class="cls-1" d="M175.78,217.44a8.89,8.89,0,0,1-8.89-8.9V174.41a8.89,8.89,0,1,1,17.78,0v34.14A8.89,8.89,0,0,1,175.78,217.44Z"/><path class="cls-1" d="M270.88,119.32H236.76a8.9,8.9,0,0,1,0-17.8h34.12A8.9,8.9,0,0,1,270.88,119.32Z"/><path class="cls-1" d="M108.79,119.32H74.67a8.9,8.9,0,0,1,0-17.8h34.12A8.9,8.9,0,0,1,108.79,119.32Z"/><path class="cls-1" d="M242.14,188.7a8.84,8.84,0,0,1-6.29-2.61L211.73,162a8.89,8.89,0,0,1,12.58-12.58l24.13,24.13A8.9,8.9,0,0,1,242.14,188.7Z"/><path class="cls-1" d="M127.53,74.08a8.84,8.84,0,0,1-6.29-2.61L97.11,47.34a8.89,8.89,0,0,1,12.58-12.58L133.82,58.9A8.9,8.9,0,0,1,127.53,74.08Z"/><path class="cls-1" d="M103.4,188.7a8.9,8.9,0,0,1-6.29-15.19l24.13-24.13A8.89,8.89,0,0,1,133.82,162l-24.13,24.13A8.85,8.85,0,0,1,103.4,188.7Z"/><path class="cls-1" d="M218,74.08a8.9,8.9,0,0,1-6.29-15.19l24.13-24.13a8.89,8.89,0,0,1,12.58,12.58L224.3,71.47A8.85,8.85,0,0,1,218,74.08Z"/></svg>