<svg id="Calque_1" data-name="Calque 1" xmlns="http://www.w3.org/2000/svg" viewBox="0 0 350 350"><defs><style>.cls-1{fill:#6d6e71;}</style></defs><title>Icons_Hikster_2_colors</title><path class="cls-1" d="M185.9,298.63a30.22,30.22,0,0,1-3-.15c-6.29-.64-15.51-3.73-23.7-14.83l-2.41-3.27c-14.92-20.29-20-27.14-42.49-27.6l-82.92.54A31.51,31.51,0,0,1,4.82,205.07c1-1.92,4.17-7.61,134.66-141.77L141,61.72c14.28-14.45,39.7-13.63,53,1.54l25.91,26.31C258.76,129,320.55,191.81,344.61,216.09a23.32,23.32,0,0,1,5.39,14.7,22.74,22.74,0,0,1-38,16.82c-9.16-8.28-20-17.87-20-17.87-2.71-2.34-12.53-9.09-24,2.69-17.55,18-57.42,56.13-57.82,56.52C208.8,290.16,199,298.63,185.9,298.63Zm-71.51-63.41h0.12c31.29,0.59,40.75,13.45,56.42,34.75l2.39,3.25c3.57,4.82,7.27,7.37,11.34,7.78,6.87,0.73,13.48-4.86,13.54-4.92S238,237.9,255.4,220.15c17.94-18.36,38.74-12.15,48.32-3.51h0s10.84,9.61,20.06,17.94c3.12,2.83,8.65.33,8.65-3.8a5.21,5.21,0,0,0-1-3.17c-23.33-23.46-85.15-86.27-124-125.73L181.15,75.22A19,19,0,0,0,153.57,74l-1.5,1.54C38.35,192.47,21.62,211.6,19.71,214.4A14,14,0,0,0,17.57,222a13.75,13.75,0,0,0,13.72,13.73Z"/></svg>