<svg id="Calque_1" data-name="Calque 1" xmlns="http://www.w3.org/2000/svg" viewBox="0 0 350 350"><defs><style>.cls-1{fill:#6d6e71;}</style></defs><title>Icons_Hikster_2_colors</title><path class="cls-1" d="M283.62,140.05a65.49,65.49,0,0,0-19.1,3.13l-22.2-52.47h17.93c2.46,0,3.74,1.42,3.81,4.21a6.92,6.92,0,0,0,6.94,6.59,6.76,6.76,0,0,0,6.59-6.94C277.27,81.6,268,77.19,260,77.19H232.11a6.77,6.77,0,0,0-6.24,9.41l8.87,21H137.6l-8-16.74h15.11a6.77,6.77,0,1,0,0-13.53h-51a6.77,6.77,0,1,0,0,13.53h20.94l11.22,23.62L100,149.52a65.68,65.68,0,0,0-33.62-9.46,66.38,66.38,0,1,0,0,132.75c34.29,0,62.25-26.22,65.69-59.61h12.17a30.66,30.66,0,1,0,55-24.26l43.95-61.31,8.8,20.79A65.85,65.85,0,1,0,283.62,140.05ZM66.38,259.27a52.84,52.84,0,1,1,0-105.69,52.17,52.17,0,0,1,25.54,6.87L72.47,186.78c-0.47-.14-0.9-0.36-1.38-0.47a20.66,20.66,0,1,0-9.45,40.23,20.09,20.09,0,0,0,4.73.56,20.55,20.55,0,0,0,19.25-13.9h32.91A52.75,52.75,0,0,1,66.38,259.27Zm6.8-52.84A7.14,7.14,0,1,1,66,199.29,7.14,7.14,0,0,1,73.18,206.43Zm12.69-6.77a20.77,20.77,0,0,0-1.92-4.12c-0.17-.27-0.39-0.48-0.57-0.74l19.51-26.42a52.57,52.57,0,0,1,15.66,31.28H85.86Zm58.38,0H132.07a65.89,65.89,0,0,0-21.18-42.13l21.59-29.23,24.92,52.45A30.69,30.69,0,0,0,144.24,199.66Zm29.89,23.11a16.34,16.34,0,1,1,16.34-16.34A16.34,16.34,0,0,1,174.13,222.77Zm15-42.94a30.31,30.31,0,0,0-15-4.1,30.74,30.74,0,0,0-3.95.4L144,121.1h87.24Zm94.46,79.44a52.67,52.67,0,0,1-26.32-98.4l12.62,29.82a20.61,20.61,0,0,0,8.59,35.85,20.18,20.18,0,0,0,4.77.57,20.67,20.67,0,0,0,4.68-40.8,20,20,0,0,0-5.38-.48L269.8,155.65a52.07,52.07,0,0,1,13.82-2.07A52.84,52.84,0,0,1,283.62,259.27Zm-7.54-52.84a7.14,7.14,0,1,1,7.14,7.14A7.14,7.14,0,0,1,276.09,206.43Z"/></svg>