<svg id="Calque_1" data-name="Calque 1" xmlns="http://www.w3.org/2000/svg" viewBox="0 0 350 350"><defs><style>.cls-1{fill:#6d6e71;}</style></defs><title>Icons_Hikster_2_colors_V2</title><path class="cls-1" d="M175,19.07C261,19.07,330.93,89,330.93,175S261,330.93,175,330.93,19.07,261,19.07,175,89,19.07,175,19.07M175,0A175,175,0,1,0,350,175,175,175,0,0,0,175,0h0Z"/><path class="cls-1" d="M175,266.85A91.86,91.86,0,1,1,266.85,175,92,92,0,0,1,175,266.85Zm0-164.63A72.78,72.78,0,1,0,247.79,175,72.86,72.86,0,0,0,175,102.22Z"/><path class="cls-1" d="M214.88,165.5H184.46V134.9a9.53,9.53,0,1,0-19.07,0v30.6H134.62a9.54,9.54,0,0,0,0,19.08H165.4v30.6a9.53,9.53,0,1,0,19.07,0v-30.6h30.42A9.54,9.54,0,0,0,214.88,165.5Z"/></svg>