<svg id="Calque_1" data-name="Calque 1" xmlns="http://www.w3.org/2000/svg" viewBox="0 0 350 350"><defs><style>.cls-1{fill:#6d6e71;}</style></defs><title>Icons_Hikster_2_colors</title><path class="cls-1" d="M284,120H66A16.94,16.94,0,0,0,49.09,137V259.74A16.94,16.94,0,0,0,66,276.65H167.22v57.81H110.57a7.77,7.77,0,1,0,0,15.54H239.43a7.77,7.77,0,1,0,0-15.54H182.78V276.65H284a16.94,16.94,0,0,0,16.94-16.91V137A16.94,16.94,0,0,0,284,120Zm1.38,139.69a1.39,1.39,0,0,1-1.38,1.37H66a1.39,1.39,0,0,1-1.38-1.37V137A1.39,1.39,0,0,1,66,135.59H284a1.39,1.39,0,0,1,1.38,1.37V259.74Z"/><ellipse class="cls-1" cx="175" cy="87.53" rx="10.05" ry="10.03"/><path class="cls-1" d="M254.89,95.29a7.77,7.77,0,0,1-7.78-7.77,72.12,72.12,0,0,0-144.23,0,7.78,7.78,0,0,1-15.56,0,87.67,87.67,0,0,1,175.34,0A7.77,7.77,0,0,1,254.89,95.29Z"/><path class="cls-1" d="M215.36,95.29a7.77,7.77,0,0,1-7.78-7.77,32.58,32.58,0,0,0-65.16,0,7.78,7.78,0,0,1-15.56,0,48.13,48.13,0,0,1,96.27,0A7.77,7.77,0,0,1,215.36,95.29Z"/></svg>