<svg id="Calque_1" data-name="Calque 1" xmlns="http://www.w3.org/2000/svg" viewBox="0 0 350 350"><defs><style>.cls-1{fill:#6d6e71;}</style></defs><title>Icons_Hikster_2_colors</title><path class="cls-1" d="M254.66,330.54l-55-22.51,54.81-23a9,9,0,1,0-7-16.56l-71.36,29.92-75.25-30.8a9,9,0,1,0-6.81,16.64l58.61,24L94.26,332.73A9,9,0,0,0,97.74,350a8.87,8.87,0,0,0,3.48-.71l75-31.44,71.64,29.32a9.16,9.16,0,0,0,3.4.67A9,9,0,0,0,254.66,330.54Z"/><path class="cls-1" d="M199.9,249.91a9,9,0,0,1-8.83-10.68c1.88-9.77-.5-18.5-7.5-27.45l-1.62-2.08c-6.07-7.69-12.83-16.27-14.86-26.91a56.26,56.26,0,0,0-8.84,13.46c-6,13-6.46,27.79-1.16,38.56a9,9,0,0,1-1.3,9.88,9.08,9.08,0,0,1-9.63,2.6c-26.68-9-46.08-37-48.27-69.63-0.17-.78-6.21-40.1,34-80.72C166.55,62,142.72,13.52,142.47,13A9,9,0,0,1,154.42.91c1.5,0.73,149,74.22,95.36,200-8.37,21.36-26.6,44.93-48.26,48.89A9.09,9.09,0,0,1,199.9,249.91Zm-17-99.66a9,9,0,0,1,6.13,15.56,14.82,14.82,0,0,0-4.61,11c0.22,7.32,5.76,14.34,11.61,21.76l1.67,2.13c6.61,8.46,10.45,17.13,11.6,26.23,10-7.29,19.05-20.74,23.81-32.88,19.65-46.08,11.4-89.48-24.39-129.25C194.61,49.1,178.71,37,166.52,28.9c4.8,23.78,3,55.62-21.83,80.69-33.43,33.74-29.17,64.74-29,66,1.23,17.93,8.73,34.06,19.72,44.47a69.22,69.22,0,0,1,6.49-31.4c7.09-15.36,20.17-28.66,36.81-37.43A8.88,8.88,0,0,1,182.93,150.25Z"/></svg>