<svg id="Calque_1" data-name="Calque 1" xmlns="http://www.w3.org/2000/svg" viewBox="0 0 350 350"><defs><style>.cls-1{fill:#6d6e71;}</style></defs><title>Icons_Hikster_2_colors</title><path class="cls-1" d="M326,57.16H26.6A26.6,26.6,0,0,0,0,83.76V266.24a26.6,26.6,0,0,0,26.6,26.6H323.4a26.6,26.6,0,0,0,26.6-26.6V81.2A24,24,0,0,0,326,57.16ZM306.25,79.47l-131,82.28L46,79.47H306.25ZM323.4,270.53H26.6a4.29,4.29,0,0,1-4.29-4.29V90.86l140.76,89.58a21.65,21.65,0,0,0,12,3.67,20.62,20.62,0,0,0,11.55-3.49L327.69,92.33v173.9A4.29,4.29,0,0,1,323.4,270.53Z"/></svg>