<svg id="Calque_1" data-name="Calque 1" xmlns="http://www.w3.org/2000/svg" viewBox="0 0 350 350"><defs><style>.cls-1{fill:#6d6e71;}</style></defs><title>Icons_Hikster_2_colors</title><path class="cls-1" d="M323.74,3.17a10.5,10.5,0,0,0-8-3.67H34.24a10.51,10.51,0,0,0-10.4,12l46.35,329a10.52,10.52,0,0,0,10.4,9H264.52a10.5,10.5,0,0,0,10.37-8.88l51.24-329A10.48,10.48,0,0,0,323.74,3.17ZM295.34,72.95H270.44a19.49,19.49,0,0,0-.65-5.25,19.17,19.17,0,0,0-9-11.7L199.34,20.51H303.51ZM283,152.19a19.07,19.07,0,0,0-6.9-3l-41.65-9L261.16,94h30.91Zm-176.11,60L75.69,148.56l63.61-31.21L170.5,181Zm-44.83-80L56.67,94h74.69a19,19,0,0,0-.86,4.32L64.91,130.46A19.45,19.45,0,0,0,62.06,132.2Zm151.77,2.73L152,99.25,187.47,37.9l61.37,35.43Zm-42.74-.43,12.36,7.14a19,19,0,0,0-2.88,6.73l-0.82,3.79Zm29.64,19.94L270,169.37l-14.93,69.27L185.82,223.7ZM174.8,20.51a19.2,19.2,0,0,0-4.66,5.41L143,72.95H53.71L46.32,20.51H174.8Zm80.74,308H89.72L69.23,183.07,88.79,223a19.27,19.27,0,0,0,25.82,8.82l53.67-26.34-3.34,15.5a19.28,19.28,0,0,0,14.79,22.93l72.6,15.64h0a19.3,19.3,0,0,0,14.34-2.58Z"/></svg>