<svg id="Calque_1" data-name="Calque 1" xmlns="http://www.w3.org/2000/svg" viewBox="0 0 350 350"><defs><style>.cls-1{fill:#6d6e71;}</style></defs><title>Icons_Hikster_2_colors</title><path class="cls-1" d="M256.74,350a64.79,64.79,0,0,1-54.55-29.64l-84.4.09a2.12,2.12,0,0,1-.18.17,49.8,49.8,0,0,1-35.45,14.73H82.12a50.18,50.18,0,1,1,35.45-85.7,2.12,2.12,0,0,0,.18.17l84.37-.08A64.34,64.34,0,0,1,210.7,239a65.12,65.12,0,0,1,92-.09c4.31,4.31,13.5,16.47,15.19,25.05a7.88,7.88,0,0,1-7.73,9.39h0l-37.84-.09-10.87,12.75,8,15.4,40.88,0.75a7.87,7.87,0,0,1,6.39,12.26c-2.48,3.7-11.22,13.74-13.93,16.45A64.86,64.86,0,0,1,256.74,350Zm-50.09-45.39a7.88,7.88,0,0,1,6.91,4.08,49.21,49.21,0,0,0,78.07,11.12c0.5-.5,1.19-1.24,2-2.14l-29.17-.54a7.88,7.88,0,0,1-6.84-4.24L245,288.63a7.89,7.89,0,0,1,1-8.74l16.66-19.56a7.87,7.87,0,0,1,6-2.77h0l28.84,0.07a55.22,55.22,0,0,0-6-7.52,49.17,49.17,0,0,0-78,11.27,7.88,7.88,0,0,1-6.91,4.11l-92.58.09h0a7.86,7.86,0,0,1-6-2.77l-1-1.32c-14-14.09-35.82-14.05-49.23-.64A34.43,34.43,0,0,0,82.12,319.6h0a34.16,34.16,0,0,0,24.32-10.11c0.08-.12,1.51-1.91,1.6-2a7.85,7.85,0,0,1,6-2.77l92.58-.09h0ZM82.12,301.25a16.09,16.09,0,0,1,0-32.17h0a16.09,16.09,0,0,1,11.4,27.45h0A16.07,16.07,0,0,1,82.12,301.25Zm0-20.49h0A4.42,4.42,0,1,0,85.24,282,4.39,4.39,0,0,0,82.12,280.76Z"/><path class="cls-1" d="M282.17,62a64.62,64.62,0,0,0-18.84,3.09l-21.9-51.76h17.69c2.43,0,3.69,1.4,3.76,4.15a6.83,6.83,0,0,0,6.85,6.5,6.67,6.67,0,0,0,6.5-6.84C275.9,4.35,266.74,0,258.91,0H231.35a6.68,6.68,0,0,0-6.15,9.28L233.95,30H138.1l-7.85-16.51h14.91a6.68,6.68,0,1,0,0-13.35H94.82a6.68,6.68,0,1,0,0,13.35h20.66l11.07,23.3L101,71.35A64.8,64.8,0,0,0,67.83,62a65.49,65.49,0,1,0,0,131c33.83,0,61.41-25.87,64.81-58.81h12A30.25,30.25,0,1,0,199,110.24l43.36-60.49L251,70.27A65,65,0,1,0,282.17,62ZM67.83,179.64a52.14,52.14,0,1,1,0-104.27A51.48,51.48,0,0,1,93,82.15l-19.19,26c-0.46-.14-0.89-0.35-1.36-0.46a20.38,20.38,0,1,0-9.32,39.69,19.82,19.82,0,0,0,4.67.55,20.27,20.27,0,0,0,19-13.72h32.47A52,52,0,0,1,67.83,179.64Zm6.71-52.14a7,7,0,1,1-7-7A7,7,0,0,1,74.54,127.51Zm12.52-6.68a20.49,20.49,0,0,0-1.9-4.07c-0.16-.26-0.38-0.48-0.56-0.73L103.85,90a51.87,51.87,0,0,1,15.45,30.86H87.06Zm57.59,0h-12a65,65,0,0,0-20.89-41.56l21.3-28.84,24.59,51.74A30.28,30.28,0,0,0,144.65,120.83Zm29.49,22.8a16.12,16.12,0,1,1,16.12-16.12A16.12,16.12,0,0,1,174.14,143.63ZM189,101.27a29.9,29.9,0,0,0-14.84-4,30.33,30.33,0,0,0-3.89.39l-25.8-54.29h86.07Zm93.19,78.37a52,52,0,0,1-26-97.08L268.65,112a20.34,20.34,0,0,0,8.47,35.37,19.91,19.91,0,0,0,4.71.56,20.4,20.4,0,0,0,4.62-40.25,19.68,19.68,0,0,0-5.31-.47l-12.6-29.78a51.38,51.38,0,0,1,13.64-2A52.14,52.14,0,1,1,282.17,179.64Zm-7.44-52.14a7,7,0,1,1,7,7A7,7,0,0,1,274.73,127.51Z"/></svg>