<svg id="Calque_1" data-name="Calque 1" xmlns="http://www.w3.org/2000/svg" viewBox="0 0 350 350"><defs><style>.cls-1{fill:#6d6e71;}</style></defs><title>Icons_Hikster_2_colors_V2</title><path class="cls-1" d="M174.9,206.66a65.76,65.76,0,1,1,65.76-65.76A65.83,65.83,0,0,1,174.9,206.66Zm0-113.08a47.32,47.32,0,1,0,47.32,47.32A47.37,47.37,0,0,0,174.9,93.58Z"/><path class="cls-1" d="M176.76,18.44c67.28,0,122,54.93,122,122.46v0.7c-0.15,27.43-11.93,55.76-33.1,79.66L175,322.38l-90.61-101c-21.24-24-33-52.32-33.18-79.77V140.9c0-67.52,54.74-122.45,122-122.46h3.52m0-18.44h-3.52C95.44,0,32.77,63.09,32.77,140.9c0,0.27,0,.53,0,0.8C33,175.76,48,208.07,70.59,233.57L175,350,279.41,233.57C302,208.07,317,175.76,317.22,141.7c0-.27,0-0.53,0-0.8C317.23,63.08,254.57,0,176.76,0h0Z"/><path class="cls-1" d="M198.65,131.89H184.11V116.24a9.22,9.22,0,1,0-18.44,0v15.65H151.14a9.22,9.22,0,0,0,0,18.45h14.54V166a9.22,9.22,0,1,0,18.44,0V150.34h14.54A9.22,9.22,0,0,0,198.65,131.89Z"/></svg>