<svg id="Calque_1" data-name="Calque 1" xmlns="http://www.w3.org/2000/svg" viewBox="0 0 350 350"><defs><style>.cls-1{fill:#6d6e71;}</style></defs><title>Icons_Hikster_2_colors</title><path class="cls-1" d="M304.35,190.53H45.65a7.09,7.09,0,1,1,0-14.18h258.7A7.09,7.09,0,1,1,304.35,190.53Z"/><path class="cls-1" d="M317.93,72.09H32.07A32.09,32.09,0,0,0,0,104.13v85a32.08,32.08,0,0,0,32.07,32H317.93a32.08,32.08,0,0,0,32.07-32v-85A32.09,32.09,0,0,0,317.93,72.09ZM45.46,86.27H304.54V112a20.05,20.05,0,0,1-20,20H65.5a20.05,20.05,0,0,1-20-20V86.27Zm290.35,102.9A17.88,17.88,0,0,1,317.93,207H32.07a17.88,17.88,0,0,1-17.88-17.85v-85A17.87,17.87,0,0,1,31.27,86.31V112A34.26,34.26,0,0,0,65.5,146.25h219A34.26,34.26,0,0,0,318.73,112V86.31a17.87,17.87,0,0,1,17.08,17.81v85Z"/><path class="cls-1" d="M106.9,277.9A7.09,7.09,0,0,1,101.7,266c2.5-2.7,9-11.25,9-18.41,0-2.87-.91-4-3.53-6.78-3.1-3.32-7.35-7.86-7.35-16.47,0-10.57,3.74-15.67,8.48-22.12,1.1-1.49,2.32-3.15,3.64-5.09a7.09,7.09,0,1,1,11.71,8c-1.42,2.07-2.72,3.85-3.9,5.46-4.29,5.84-5.74,7.81-5.74,13.74,0,2.87.91,4,3.53,6.78,3.1,3.32,7.35,7.86,7.35,16.47,0,14-11.48,26.68-12.79,28.08A7.07,7.07,0,0,1,106.9,277.9Z"/><path class="cls-1" d="M170.19,277.91a7.09,7.09,0,0,1-5.75-11.24c0.87-1.2,1.81-2.38,2.76-3.57,3.78-4.74,6.77-8.48,6.77-15.51,0-2.87-.91-4-3.53-6.78-3.1-3.32-7.35-7.86-7.35-16.47,0-11.78,4.07-16.93,8.79-22.89,1.06-1.34,2.21-2.79,3.45-4.49a7.09,7.09,0,0,1,11.47,8.34c-1.36,1.87-2.63,3.47-3.78,4.93-4.17,5.27-5.74,7.25-5.74,14.1,0,2.87.91,4,3.53,6.78,3.1,3.32,7.35,7.86,7.35,16.47,0,12-5.7,19.13-9.87,24.35-0.81,1-1.62,2-2.36,3A7.07,7.07,0,0,1,170.19,277.91Z"/><path class="cls-1" d="M232.22,277.91a7.1,7.1,0,0,1-5.63-11.41c0.89-1.15,1.78-2.25,2.65-3.32,4.22-5.19,6.77-8.31,6.77-15.6,0-2.87-.91-4-3.53-6.78-3.1-3.32-7.35-7.86-7.35-16.47,0-11.63,4.29-17.09,8.83-22.88,1.06-1.34,2.19-2.78,3.36-4.43a7.1,7.1,0,0,1,11.58,8.2c-1.32,1.86-2.59,3.47-3.77,5-4,5.07-5.8,7.38-5.8,14.12,0,2.87.91,4,3.53,6.78,3.1,3.32,7.35,7.86,7.35,16.47,0,12.32-5.28,18.81-9.94,24.54-0.79,1-1.59,2-2.4,3A7.1,7.1,0,0,1,232.22,277.91Z"/></svg>