<svg id="Calque_1" data-name="Calque 1" xmlns="http://www.w3.org/2000/svg" viewBox="0 0 350 350"><defs><style>.cls-1{fill:#6d6e71;}</style></defs><title>Icons_Hikster_2_colors</title><path class="cls-1" d="M174.86,208.84a35.23,35.23,0,1,1,35.23-35.23A35.27,35.27,0,0,1,174.86,208.84Zm0-53.83a18.6,18.6,0,1,0,18.6,18.6A18.62,18.62,0,0,0,174.86,155Z"/><path class="cls-1" d="M336,119.94L189.3,30a16.87,16.87,0,0,0-2-1c-0.65-.33-1.31-0.66-2-0.93a28.71,28.71,0,0,0-3.24-1.12c-0.72-.21-1.42-0.39-2.26-0.57a29.47,29.47,0,0,0-3.14-.44,30,30,0,0,0-5.27,0,31.82,31.82,0,0,0-3.27.47c-0.73.15-1.44,0.34-2,.52a27.68,27.68,0,0,0-3.32,1.14c-0.65.27-1.27,0.57-2.2,1L14,118.75a29.24,29.24,0,0,0,27.33,51.57V310.52a8.3,8.3,0,0,0,.45,2.68,8.3,8.3,0,0,0,7.87,11h95.92a8.31,8.31,0,0,0,8.32-8.32c0-.11,0-0.23,0-0.34s0-.15,0-0.23V267c0-12.17,9.43-22.08,21-22.08s21,9.91,21,22.08V315.3c0,0.08,0,.15,0,0.23s0,0.23,0,.34a8.31,8.31,0,0,0,8.32,8.32h96.22a8.3,8.3,0,0,0,7.76-11.3,8.29,8.29,0,0,0,.56-3V171.51A29.24,29.24,0,0,0,336,119.94ZM174.86,228.26c-20.77,0-37.66,17.37-37.66,38.72v40.58H57.92V160.79c0-.13,0-0.26,0-0.38L174,89.24,292.11,161.6V307.55H212.52V267C212.52,245.63,195.63,228.26,174.86,228.26Zm156.65-76.81a12.63,12.63,0,0,1-17.34,4.16L174,69.73,35.82,154.44a12.61,12.61,0,0,1-13.17-21.5L167.26,44.32l1.91-.91a17.62,17.62,0,0,1,2.28-.72,13.66,13.66,0,0,1,1.43-.19h2.3a13.82,13.82,0,0,1,2.33.44,13.33,13.33,0,0,1,2.23.88l147.61,90.3h0A12.62,12.62,0,0,1,331.51,151.46Z"/></svg>