<svg id="Calque_1" data-name="Calque 1" xmlns="http://www.w3.org/2000/svg" viewBox="0 0 350 350"><defs><style>.cls-1{fill:#6d6e71;}</style></defs><title>Icons_Hikster_2_colors</title><path class="cls-1" d="M303.82,346.28H46.62A46.41,46.41,0,0,1,.23,299.95V127.3A46.41,46.41,0,0,1,46.62,81h257.2a46.42,46.42,0,0,1,46.41,46.33V299.95A46.42,46.42,0,0,1,303.82,346.28ZM46.62,101A26.3,26.3,0,0,0,20.33,127.3V299.95a26.3,26.3,0,0,0,26.28,26.26h257.2a26.31,26.31,0,0,0,26.3-26.26V127.3A26.31,26.31,0,0,0,303.82,101H46.62Z"/><path class="cls-1" d="M86.43,97.27a10,10,0,0,1-10.05-10V35.72a32.05,32.05,0,0,1,32-32H242a32.05,32.05,0,0,1,32,32V86.65a10.05,10.05,0,0,1-20.11,0V35.72A12,12,0,0,0,242,23.79H108.42A12,12,0,0,0,96.49,35.72V87.24A10,10,0,0,1,86.43,97.27Z"/><path class="cls-1" d="M175.23,294.46a80.83,80.83,0,1,1,80.94-80.84A81,81,0,0,1,175.23,294.46Zm0-141.6a60.77,60.77,0,1,0,60.84,60.76A60.87,60.87,0,0,0,175.23,152.85Z"/><path class="cls-1" d="M175.23,249.45a10,10,0,0,1-10.05-10V185.36a10.05,10.05,0,0,1,20.11,0v54.06A10,10,0,0,1,175.23,249.45Z"/><path class="cls-1" d="M202.29,222.42H148.17a10,10,0,1,1,0-20.07h54.12A10,10,0,1,1,202.29,222.42Z"/></svg>