<svg id="Calque_1" data-name="Calque 1" xmlns="http://www.w3.org/2000/svg" viewBox="0 0 350 350"><defs><style>.cls-1{fill:#6d6e71;}</style></defs><title>Icons_Hikster_2_colors_V2</title><path class="cls-1" d="M338.84,349.71a10.57,10.57,0,0,1-7.5-3.11L195.11,210.11a10.6,10.6,0,1,1,15-15l136.23,136.5A10.59,10.59,0,0,1,338.84,349.71Z"/><path class="cls-1" d="M230.35,350a10.59,10.59,0,0,1,0-21.19l98-.26,0.51-99.38a10.6,10.6,0,0,1,10.59-10.53h0.06A10.59,10.59,0,0,1,350,229.29l-0.57,109.88a10.6,10.6,0,0,1-10.56,10.53L230.38,350h0Z"/><path class="cls-1" d="M202.61,158a10.59,10.59,0,0,1-7.5-18.08L331.34,3.4a10.6,10.6,0,1,1,15,15L210.11,154.86A10.57,10.57,0,0,1,202.61,158Z"/><path class="cls-1" d="M339.41,131.34a10.6,10.6,0,0,1-10.59-10.53L328.3,21.45l-98-.26a10.59,10.59,0,0,1,0-21.19h0L338.87,0.29a10.6,10.6,0,0,1,10.56,10.53L350,120.69a10.59,10.59,0,0,1-10.53,10.65h-0.06Z"/><path class="cls-1" d="M147.4,158a10.57,10.57,0,0,1-7.5-3.11L3.68,18.37a10.6,10.6,0,1,1,15-15L154.9,139.89A10.59,10.59,0,0,1,147.4,158Z"/><path class="cls-1" d="M10.59,131.34H10.53A10.59,10.59,0,0,1,0,120.69L0.58,10.83A10.6,10.6,0,0,1,11.15.29L119.64,0h0a10.59,10.59,0,0,1,0,21.19l-98,.26-0.53,99.36A10.6,10.6,0,0,1,10.59,131.34Z"/><path class="cls-1" d="M11.18,349.71a10.59,10.59,0,0,1-7.5-18.08L139.9,195.14a10.6,10.6,0,1,1,15,15L18.68,346.6A10.57,10.57,0,0,1,11.18,349.71Z"/><path class="cls-1" d="M119.67,350h0l-108.49-.29A10.6,10.6,0,0,1,.58,339.17L0,229.29a10.59,10.59,0,0,1,10.53-10.65h0.06a10.6,10.6,0,0,1,10.59,10.53l0.53,99.38,98,0.26A10.59,10.59,0,0,1,119.67,350Z"/></svg>