<svg id="Calque_1" data-name="Calque 1" xmlns="http://www.w3.org/2000/svg" viewBox="0 0 350 350"><defs><style>.cls-1{fill:#6d6e71;}</style></defs><title>Icons_Hikster_2_colors</title><path class="cls-1" d="M304.72,46.33c14.35,0,26,12.27,26,27.35V229.79c0,8.7-5.85,16.26-13.91,18a28.11,28.11,0,0,0-22.59,27.62l0,16.65-47-38.19a28.07,28.07,0,0,0-16.93-5.73h-185c-14.35,0-26-12.27-26-27.35V73.67c0-15.08,11.67-27.35,26-27.35H304.72m0-19.22H45.28C20.38,27.11,0,48.06,0,73.67V220.76c0,25.61,20.38,46.56,45.28,46.56h185a8.63,8.63,0,0,1,5.24,1.78l64,52a8.5,8.5,0,0,0,5.2,1.8,8.91,8.91,0,0,0,8.82-9l-0.07-38.49a9,9,0,0,1,7.33-8.79C337.43,263,350,247.86,350,229.79V73.67c0-25.61-20.38-46.56-45.28-46.56h0Z"/><path class="cls-1" d="M97.93,183.24a35,35,0,1,1,35.09-35A35.09,35.09,0,0,1,97.93,183.24Zm0-50.82a15.8,15.8,0,1,0,15.84,15.8A15.83,15.83,0,0,0,97.93,132.42Z"/><path class="cls-1" d="M176,183.24a35,35,0,1,1,35.08-35A35.1,35.1,0,0,1,176,183.24Zm0-50.82a15.8,15.8,0,1,0,15.83,15.8A15.83,15.83,0,0,0,176,132.42Z"/><path class="cls-1" d="M254.3,183.24a35,35,0,1,1,35.08-35A35.1,35.1,0,0,1,254.3,183.24Zm0-50.82a15.8,15.8,0,1,0,15.83,15.8A15.83,15.83,0,0,0,254.3,132.42Z"/></svg>