<svg id="Calque_1" data-name="Calque 1" xmlns="http://www.w3.org/2000/svg" viewBox="0 0 350 350"><defs><style>.cls-1{fill:#6d6e71;}</style></defs><title>Icons_Hikster_2_colors</title><path class="cls-1" d="M157.47,175.65A27,27,0,0,1,137,131a9.94,9.94,0,0,1,15,13,7,7,0,0,0-1.71,4.62c0,5.92,8.18,9.23,12.33,5a9.95,9.95,0,0,1,14.2,13.95A27,27,0,0,1,157.47,175.65Z"/><path class="cls-1" d="M146.82,74a9.95,9.95,0,1,1,0-19.89,4,4,0,0,0,4-4,9.95,9.95,0,0,1,19.9,0A23.94,23.94,0,0,1,146.82,74Z"/><path class="cls-1" d="M144.49,147.4a9.95,9.95,0,0,1-7.26-16.74l22.61-24.17a9.52,9.52,0,0,1,1.16-1.05c-13.54,2.15-24.35,3.74-24.35,3.74a10.37,10.37,0,0,1-1.45.11,27,27,0,1,1,0-54.1l10.66-1.07a9.94,9.94,0,1,1,1.92,19.78L136.16,75c-4.92.05-8.13,3.26-8.13,7.21a7.19,7.19,0,0,0,6.59,7.15c2.95-.44,13-1.95,24.84-3.84a10,10,0,0,1,1.56-.12c10.13,0,21,7.81,21,19.41A19.72,19.72,0,0,1,173.5,121l-21.75,23.25A10,10,0,0,1,144.49,147.4Z"/><path class="cls-1" d="M323,269.13a49.77,49.77,0,0,0,13.54-34c0-25.44-19-46.69-43.18-49.28-0.22,0-21.07-4.59-39.94-14.47-14.1-9.43-22.43-1.21-23.32-.25A9.62,9.62,0,0,0,228.2,174l-6.65,15.43a9.79,9.79,0,0,0-.52,1.51,7.17,7.17,0,1,1-12.48-6.34,10,10,0,0,0,1.14-1.71c10.24-19.64,10.24-22,10.24-24.3,0-9.9-17-20.7-20.87-23-6.25-4.89-11.62-5-15.06-4.12a14.75,14.75,0,0,0-9.11,6.84L162,154.35a9.94,9.94,0,0,0,15.51,12.44l11.37-14.17a73.93,73.93,0,0,1,9.88,7.53c-1.56,3.41-4,8.37-6.28,12.73a27.06,27.06,0,1,0,47.63,23.75l3.47-8.05a195,195,0,0,0,46.63,16.85,29.71,29.71,0,0,1,26.45,29.67c0,9.56-4.65,18.6-11.35,23.52-0.4.21-38.67,20.36-82.71,14.86h-0.1l-0.15,0c-18.3-2.3-33.21-6-46.36-9.35-20.81-5.23-38.79-9.75-59.76-5.75-12.74,2.44-21.65,4.89-28.8,6.88-10.21,2.81-15.35,4.25-22.68,3.27-15.42-2-26.56-7.67-33.11-16.81-5.89-8.25-8.26-19.38-6.47-30.56,18.38-115.77,22-139.68,22.5-145.72h0.07c3.41-32.69,25.86-55.52,54.56-55.52,18.48,0,34,8.08,43.08,21.8l6.54,12.86a9.95,9.95,0,0,0,17.73-9l-7.1-13.82C149.29,11.56,127.32,0,102.3,0,63,0,32.47,30.17,28,73.36c0,0.22,0,.45,0,0.69-0.3,2.81-3.18,23-22.39,144-2.63,16.53.89,32.6,9.95,45.26,8.35,11.65,21.4,19.63,38,23.41v43.43H14.63a9.95,9.95,0,1,0,0,19.89H301.82a43.54,43.54,0,0,0,43.51-43.48C345.33,290.93,336.48,276.83,323,269.13ZM192.22,148l0.16-.38ZM73.4,288.49c6.27-.53,12.16-2.13,19.32-4.11,6.81-1.88,15.28-4.22,27.23-6.49,16.65-3.15,31.15.47,51.18,5.51,11.66,2.92,24.66,6.18,40.27,8.6v38.12H73.4V288.49Zm228.42,41.61H231.3v-36c2.31,0.11,4.61.18,6.88,0.18a175.52,175.52,0,0,0,58.16-10.45,9.43,9.43,0,0,0,1.65-.16,19.42,19.42,0,0,1,7.17-.3c11.56,2.32,20.28,12.25,20.28,23.1A23.62,23.62,0,0,1,301.82,330.11Z"/></svg>