<svg id="Calque_1" data-name="Calque 1" xmlns="http://www.w3.org/2000/svg" viewBox="0 0 350 350"><defs><style>.cls-1{fill:#6d6e71;}</style></defs><title>Icons_Hikster_2_colors</title><path class="cls-1" d="M175,19.76c-57.8,0-104.83,47.16-104.83,105.12V341.46A8.53,8.53,0,0,0,78.69,350H271.31a8.53,8.53,0,0,0,8.52-8.54V124.88C279.83,66.92,232.8,19.76,175,19.76Zm0,17.09c45.54,0,83.08,34.94,87.38,79.49H87.62C91.92,71.78,129.46,36.85,175,36.85Zm87.79,296.06H87.21V133.42H262.79V332.91Z"/><path class="cls-1" d="M225.93,246.88H124.09A26.78,26.78,0,0,1,97.37,220.1V179.52a26.78,26.78,0,0,1,26.71-26.77H225.93a26.78,26.78,0,0,1,26.7,26.77V220.1A26.78,26.78,0,0,1,225.93,246.88Zm-101.84-77a9.68,9.68,0,0,0-9.67,9.69V220.1a9.68,9.68,0,0,0,9.67,9.69H225.93a9.68,9.68,0,0,0,9.66-9.69V179.52a9.68,9.68,0,0,0-9.66-9.69H124.09Z"/><path class="cls-1" d="M128.05,222.5a8.53,8.53,0,0,1-8.52-8.54V189a8.52,8.52,0,1,1,17,0v25A8.53,8.53,0,0,1,128.05,222.5Z"/><path class="cls-1" d="M241.4,297.5H108.6a8.54,8.54,0,0,1,0-17.09H241.4A8.54,8.54,0,0,1,241.4,297.5Z"/><path class="cls-1" d="M134.35,92.76a8.46,8.46,0,0,1-2.72-.45,8.56,8.56,0,0,1-5.35-10.83,74.81,74.81,0,0,1,4.64-10.77c2-3.94,2.91-5.74,2.91-11.75,0-3.82-.94-5.32-2.66-8-2.24-3.54-5.33-8.4-5.33-17.19,0-12,2.88-17.42,6.21-23.73,0.81-1.53,1.69-3.19,2.62-5.13A8.51,8.51,0,1,1,150,12.2c-1,2.2-2,4.08-2.93,5.8-2.91,5.5-4.23,8-4.23,15.74,0,3.82.94,5.32,2.66,8,2.24,3.54,5.33,8.4,5.33,17.19,0,10.11-2.32,14.66-4.78,19.5a56.2,56.2,0,0,0-3.66,8.47A8.52,8.52,0,0,1,134.35,92.76Z"/><path class="cls-1" d="M170.11,92.76a8.35,8.35,0,0,1-3.84-.93,8.55,8.55,0,0,1-3.74-11.47c0.92-1.82,1.78-3.42,2.58-4.9,3.17-5.88,4.48-8.32,4.48-16.49,0-3.82-.94-5.32-2.66-8-2.24-3.54-5.33-8.4-5.33-17.19,0-10.92,2.58-16.1,5.84-22.66,0.88-1.75,1.85-3.71,2.9-6a8.52,8.52,0,1,1,15.54,7c-1.16,2.58-2.23,4.73-3.19,6.66-2.86,5.76-4,8.13-4,15,0,3.82.94,5.32,2.66,8,2.24,3.54,5.33,8.4,5.33,17.19,0,12.49-2.89,17.84-6.55,24.62-0.73,1.34-1.53,2.81-2.37,4.48A8.53,8.53,0,0,1,170.11,92.76Z"/><path class="cls-1" d="M205.16,92.76a8.43,8.43,0,0,1-3.43-.73,8.53,8.53,0,0,1-4.37-11.25c1.46-3.34,2.75-5.85,3.85-8,2.56-5,3.42-6.65,3.42-13.81,0-3.82-.94-5.32-2.66-8-2.24-3.54-5.33-8.4-5.33-17.19,0-10,2.63-15.45,5.4-21.23,1-2,2.08-4.32,3.22-7.16a8.52,8.52,0,1,1,15.8,6.38c-1.3,3.25-2.55,5.85-3.66,8.18-2.48,5.14-3.71,7.73-3.71,13.83,0,3.82.94,5.32,2.66,8,2.24,3.54,5.33,8.4,5.33,17.19,0,10.77-1.92,15-5.31,21.62-1,1.89-2.12,4.12-3.42,7.06A8.5,8.5,0,0,1,205.16,92.76Z"/></svg>