<svg id="Calque_1" data-name="Calque 1" xmlns="http://www.w3.org/2000/svg" viewBox="0 0 350 350"><defs><style>.cls-1{fill:#6d6e71;}</style></defs><title>Icons_Hikster_2_colors</title><path class="cls-1" d="M207.78,350H142.13a19.12,19.12,0,0,1-18.89-16l-5.35-37.72A131,131,0,0,1,98.56,285L63.38,299.19A19,19,0,0,1,39.84,291L7,234.09a19,19,0,0,1,4.76-24.54l29.77-23.42c-0.36-3.95-.54-7.59-0.54-11s0.18-7.14.56-11.19l-29.86-23.5A19,19,0,0,1,7,115.91L39.81,59a19.09,19.09,0,0,1,23.42-8.25L98.56,65a132.63,132.63,0,0,1,19.34-11.3l5.32-37.46A19.19,19.19,0,0,1,142.13,0h65.65a19.39,19.39,0,0,1,18.95,15.76l5.39,38a138.71,138.71,0,0,1,19.27,11.3l35.23-14.25A19.09,19.09,0,0,1,310.18,59L343,115.91a19.09,19.09,0,0,1-4.74,24.52L308.4,163.91c0.32,3.43.56,7.25,0.56,11.18,0,3.37-.18,7-0.56,11l29.86,23.48a19.12,19.12,0,0,1,4.65,24.52L310.12,291a19.16,19.16,0,0,1-23.48,8.22L251.36,285A131,131,0,0,1,232,296.27l-5.27,37.43A19.25,19.25,0,0,1,207.78,350ZM144.5,328.13h60.95l5.77-40.91a10.92,10.92,0,0,1,6.64-8.57,109.86,109.86,0,0,0,25.2-14.72,11,11,0,0,1,10.82-1.52L292.39,278l30.4-52.72-32.67-25.7a10.92,10.92,0,0,1-4.08-10,118,118,0,0,0,1.05-14.51,121.69,121.69,0,0,0-1.05-14.7,10.92,10.92,0,0,1,4.1-9.93l32.75-25.71L292.48,72,254,87.61a11,11,0,0,1-10.71-1.43,117,117,0,0,0-25.32-14.84,10.87,10.87,0,0,1-6.6-8.54l-5.81-40.93h-61L138.68,62.8a10.87,10.87,0,0,1-6.6,8.54,111,111,0,0,0-25.23,14.75A11,11,0,0,1,96,87.61L57.54,72l-30.4,52.71,32.67,25.73a10.9,10.9,0,0,1,4.08,9.94,118.42,118.42,0,0,0-1.05,14.67,114.87,114.87,0,0,0,1.05,14.48,11,11,0,0,1-4.08,10L27.14,225.26,57.54,278,96,262.41a11,11,0,0,1,10.82,1.52,110.09,110.09,0,0,0,25.22,14.72,10.92,10.92,0,0,1,6.61,8.56ZM25.23,226.75l0,0A0,0,0,0,0,25.23,226.75Zm299.31-.14h0ZM324,223.15v0Zm-298.09,0,0,0A0,0,0,0,1,25.9,223.11Zm298.93-99.9,0,0Zm-299.72,0,0,0ZM175,243.41a68.4,68.4,0,1,1,68.36-68.33A68.43,68.43,0,0,1,175,243.41Zm0-114.93a46.53,46.53,0,1,0,46.49,46.61A46.61,46.61,0,0,0,175,128.48Z"/></svg>