<?xml version="1.0" encoding="utf-8"?>
<!-- Generator: Adobe Illustrator 19.2.1, SVG Export Plug-In . SVG Version: 6.00 Build 0)  -->
<svg version="1.1" id="Calque_1" xmlns="http://www.w3.org/2000/svg" xmlns:xlink="http://www.w3.org/1999/xlink" x="0px" y="0px"
	 viewBox="0 0 350 350" style="enable-background:new 0 0 350 350;" xml:space="preserve">
<style type="text/css">
	.st0{fill:#6D6E71;}
</style>
<title>Icons_Hikster_2_colors</title>
<path class="st0" d="M184.1,331.5c-23.9,0-43.3-19.3-43.3-43.2c0-23.9,19.3-43.3,43.2-43.3c23.9,0,43.3,19.3,43.3,43.2c0,0,0,0,0,0
	C227.3,312.2,208,331.5,184.1,331.5z M184.1,266c-12.3,0-22.3,9.9-22.3,22.2s9.9,22.3,22.2,22.3s22.3-9.9,22.3-22.2c0,0,0,0,0,0
	C206.4,276,196.4,266,184.1,266L184.1,266z"/>
<path class="st0" d="M98.6,234.9c-5.8,0-10.5-4.7-10.5-10.5c0-2.3,0.7-4.5,2.1-6.3c38.7-51.9,112-62.5,163.9-23.9
	c4.5,3.4,8.8,7.1,12.9,11.1c4.2,4,4.4,10.6,0.4,14.8c-4,4.2-10.6,4.4-14.8,0.4c-0.1-0.1-0.2-0.2-0.4-0.4
	c-37.5-37.6-98.4-37.7-136-0.1c-3.3,3.3-6.4,6.9-9.2,10.6C105,233.3,101.9,234.9,98.6,234.9z"/>
<path class="st0" d="M58.9,164.6c-5.8,0-10.5-4.7-10.5-10.5c0-2.9,1.2-5.7,3.3-7.7c70.4-65.9,178.5-70,253.7-9.6
	c4.5,3.6,5.3,10.2,1.6,14.8c-3.6,4.5-10.2,5.3-14.8,1.6l0,0c-67-53.8-163.4-50.2-226.2,8.6C64.1,163.6,61.6,164.7,58.9,164.6z"/>
<path class="st0" d="M10.5,111.8c-5.8,0-10.5-4.7-10.5-10.5c0-2.8,1.1-5.5,3.1-7.4c48.7-48.6,112.3-75.4,179.1-75.4
	c59.6,0,117.8,21.9,164.1,61.6c4.4,3.8,4.9,10.4,1.2,14.8c-3.8,4.4-10.4,4.9-14.8,1.2l0,0c-43.1-37-95.1-56.5-150.5-56.5
	c-61.2,0-119.5,24.6-164.3,69.3C15.9,110.7,13.3,111.8,10.5,111.8z"/>
</svg>
