<svg id="Calque_1" data-name="Calque 1" xmlns="http://www.w3.org/2000/svg" viewBox="0 0 350 350"><defs><style>.cls-1{fill:#6d6e71;}</style></defs><title>Icons_Hikster_2_colors</title><path class="cls-1" d="M182.32,283.91a31.58,31.58,0,1,1,31.53-31.58A31.59,31.59,0,0,1,182.32,283.91Zm0-51.08a19.5,19.5,0,1,0,19.47,19.5A19.5,19.5,0,0,0,182.32,232.83Z"/><path class="cls-1" d="M272.28,162.07H222.42a32,32,0,0,1,0-64h49.87A32,32,0,0,1,272.28,162.07Zm-49.87-52a19.94,19.94,0,0,0,0,39.88h49.87a19.94,19.94,0,0,0,0-39.88H222.42Z"/><path class="cls-1" d="M319.21,66.09H81.69c-17.06,0-30.06,13.8-34,27.07C43.92,103.58,10.64,195.37,9.64,211.8c-0.59,9.68,1.44,18.32,5.77,24.87H6a6,6,0,0,0-6,6v21.52a6,6,0,1,0,12.05,0V248.75H37.61l97.79-.26a6,6,0,0,0,5.85-4.66c4.39-18.64,21.63-32.17,41-32.17,19.72,0,37,13.62,41.18,32.39a6,6,0,0,0,5.88,4.73h0l66.77,0L307.46,263a6,6,0,1,0,9.42-7.54l-5.36-6.73h7.69A30.86,30.86,0,0,0,350,217.9v-121A30.86,30.86,0,0,0,319.21,66.09Zm-260,30.86c2.76-9.33,11.38-18.78,22.53-18.78H319.21a18.77,18.77,0,0,1,18.74,18.77v81.59H31C38.88,153.86,50.32,121.23,59.16,96.95Zm260,139.72-85.28,0c-7-21.77-28-37.12-51.66-37.12a54.64,54.64,0,0,0-51.42,36.85l-93.24.24a13.69,13.69,0,0,1-10.38-4.42c-4.09-4.35-6.06-11.35-5.54-19.72,0.2-3.3,2.29-11.28,5.52-21.92H337.95V217.9A18.78,18.78,0,0,1,319.21,236.67Z"/></svg>