<svg id="Calque_1" data-name="Calque 1" xmlns="http://www.w3.org/2000/svg" viewBox="0 0 350 350"><defs><style>.cls-1{fill:#6d6e71;}</style></defs><title>Icons_Hikster_2_colors</title><path class="cls-1" d="M299.85,102.83H49.44a9,9,0,0,1,0-18H299.85A9,9,0,1,1,299.85,102.83Z"/><path class="cls-1" d="M329.42,76.11A26.75,26.75,0,0,0,302.69,49.4H235.8l-24.5-40A19.75,19.75,0,0,0,194.56,0H156.62a20.44,20.44,0,0,0-17.29,9.42l-25.84,40H47.29a26.71,26.71,0,0,0-10,51.49v222.5a26.61,26.61,0,0,0,53.23,0V304.66H258.74v18.72a26.62,26.62,0,0,0,53.24,0V101.17A26.77,26.77,0,0,0,329.42,76.11Zm-175-57A2.55,2.55,0,0,1,156.62,18h37.94a1.65,1.65,0,0,1,1.41.78L214.73,49.4H134.88ZM47.29,67.38h255.4a8.74,8.74,0,1,1,0,17.47H47.29A8.74,8.74,0,0,1,47.29,67.38ZM294,266.94v13.77a6.05,6.05,0,0,1-6,6H245.48V191a70.84,70.84,0,0,0-141.68,0v95.65H61.25a6,6,0,0,1-6-6V102.83H294V266.94Zm-66.5,19.74H121.78V191a52.86,52.86,0,0,1,105.72,0v95.65ZM72.56,323.39a8.63,8.63,0,0,1-17.26,0V303.91a23.88,23.88,0,0,0,6,.75H72.56v18.72ZM285.37,332a8.64,8.64,0,0,1-8.64-8.63V304.66H288a23.89,23.89,0,0,0,6-.75v19.48A8.63,8.63,0,0,1,285.37,332Z"/></svg>