<svg id="Calque_1" data-name="Calque 1" xmlns="http://www.w3.org/2000/svg" viewBox="0 0 350 350"><defs><style>.cls-1{fill:#6d6e71;}</style></defs><title>Icons_Hikster_2_colors_V2</title><path class="cls-1" d="M339.47,349.55a10.48,10.48,0,0,1-7.45-3.1L197.5,211.94a10.51,10.51,0,0,1,14.91-14.81L346.93,331.64A10.5,10.5,0,0,1,339.47,349.55Z"/><path class="cls-1" d="M204.35,331h-0.06a10.51,10.51,0,0,1-10.47-10.56l0.61-115.92A10.52,10.52,0,0,1,204.93,194l114.75-.3h0a10.5,10.5,0,1,1,0,21L215.43,215l-0.55,105.5A10.52,10.52,0,0,1,204.35,331Z"/><path class="cls-1" d="M205,156.18a10.5,10.5,0,0,1-7.47-17.89L332,3.1a10.51,10.51,0,0,1,14.94,14.78L212.43,153.07A10.5,10.5,0,0,1,205,156.18Z"/><path class="cls-1" d="M319.71,156.47h0l-114.75-.29a10.52,10.52,0,0,1-10.5-10.44L193.82,29.82a10.51,10.51,0,0,1,10.47-10.56c6.37-.45,10.56,4.66,10.59,10.44l0.55,105.5,104.31,0.26A10.5,10.5,0,1,1,319.71,156.47Z"/><path class="cls-1" d="M145.36,156.18a10.54,10.54,0,0,1-7.45-3.1L3.07,18A10.51,10.51,0,0,1,18,3.23l134.83,135A10.5,10.5,0,0,1,145.36,156.18Z"/><path class="cls-1" d="M30.61,156.47a10.5,10.5,0,1,1,0-21l104.31-.26,0.55-105.5A10.52,10.52,0,0,1,146,19.26H146a10.51,10.51,0,0,1,10.47,10.56l-0.61,115.92a10.52,10.52,0,0,1-10.5,10.44l-114.75.29h0Z"/><path class="cls-1" d="M11,350A10.5,10.5,0,0,1,3.5,332.11l134.38-135a10.51,10.51,0,0,1,14.94,14.78l-134.38,135A10.5,10.5,0,0,1,11,350Z"/><path class="cls-1" d="M146,331a10.52,10.52,0,0,1-10.53-10.44L134.89,215l-104.31-.27a10.5,10.5,0,1,1,0-21h0L145.39,194a10.52,10.52,0,0,1,10.5,10.44l0.61,115.92A10.51,10.51,0,0,1,146,331H146Z"/></svg>