<svg id="Calque_1" data-name="Calque 1" xmlns="http://www.w3.org/2000/svg" viewBox="0 0 350 350"><defs><style>.cls-1{fill:#6d6e71;}</style></defs><title>Icons_Hikster_2_colors_V2</title><path class="cls-1" d="M331.67,349.41a16.81,16.81,0,0,1-11.93-5L5,29a17,17,0,0,1,0-24A16.82,16.82,0,0,1,28.84,5L343.6,320.38a17,17,0,0,1,0,24A16.77,16.77,0,0,1,331.67,349.41Z"/><path class="cls-1" d="M17.49,350A17,17,0,0,1,5.56,320.94L321.16,5.53a16.91,16.91,0,0,1,23.93.07,17.09,17.09,0,0,1-.07,24L29.42,345.06A16.92,16.92,0,0,1,17.49,350Z"/></svg>