<svg id="Calque_1" data-name="Calque 1" xmlns="http://www.w3.org/2000/svg" viewBox="0 0 350 350"><defs><style>.cls-1{fill:#6d6e71;}</style></defs><title>Icons_Hikster_2_colors</title><path class="cls-1" d="M267.43,75.53H82.57A14.79,14.79,0,0,0,67.79,90.29v42a14.79,14.79,0,0,0,14.78,14.77h83.95v118.5h-23a8.49,8.49,0,0,0,0,17h63.07a8.49,8.49,0,0,0,0-17h-23V147.08h83.95a14.79,14.79,0,0,0,14.77-14.77v-42A14.79,14.79,0,0,0,267.43,75.53Zm-2.21,54.57H84.76V92.5H265.22V130.1Z"/><path class="cls-1" d="M100.61,177.5H17V72.7a8.49,8.49,0,0,0-17,0V277.3a8.49,8.49,0,0,0,17,0V226H92.12v48.07a8.49,8.49,0,1,0,17,0V186A8.49,8.49,0,0,0,100.61,177.5ZM17,209V194.48H92.12V209H17Z"/><path class="cls-1" d="M341.51,64.21A8.49,8.49,0,0,0,333,72.7V177.5H249.39A8.49,8.49,0,0,0,240.9,186v88.07a8.49,8.49,0,0,0,17,0V226H333V277.3a8.49,8.49,0,1,0,17,0V72.7A8.49,8.49,0,0,0,341.51,64.21ZM257.88,209V194.48H333V209H257.88Z"/></svg>