<svg id="Calque_1" data-name="Calque 1" xmlns="http://www.w3.org/2000/svg" viewBox="0 0 350 350"><defs><style>.cls-1{fill:#6d6e71;}</style></defs><title>Icons_Hikster_2_colors</title><path class="cls-1" d="M267.23,350H82.77a4.76,4.76,0,0,1,0-9.52H267.23A4.76,4.76,0,0,1,267.23,350Z"/><path class="cls-1" d="M214.68,193.92l34.41,30.93a14.72,14.72,0,0,1,2.5,8.14v90H202.64V285.69a25.75,25.75,0,1,0-51.51,0V323H102.19V231.76a10.57,10.57,0,0,1,2.56-7l28.46-30.83h81.47m3.64-9.52H129L97.76,218.29a20.33,20.33,0,0,0-5.08,13.48V332.54h68V285.69a16.25,16.25,0,1,1,32.49,0v46.86h68V233a23.67,23.67,0,0,0-5.08-14.7L218.32,184.4h0Z"/><path class="cls-1" d="M134.53,298.16H118.15a4.76,4.76,0,0,1-4.76-4.76V259.45a13,13,0,1,1,25.94,0h0l0,33.95A4.77,4.77,0,0,1,134.53,298.16Zm-11.63-9.52h6.88l0-29.19a3.46,3.46,0,1,0-6.91,0v29.19Zm11.67-29.19h0Z"/><path class="cls-1" d="M235.16,298.16H218.77A4.76,4.76,0,0,1,214,293.4V259.45a13,13,0,1,1,25.94,0h0l0,33.95A4.77,4.77,0,0,1,235.16,298.16Zm-11.63-9.52h6.88l0-29.19a3.46,3.46,0,1,0-6.91,0v29.19Zm11.67-29.19h0Z"/><path class="cls-1" d="M217.36,178.63H131.41a4.76,4.76,0,0,1-4.7-5.49l6.94-44.75a4.75,4.75,0,0,1,8.93-1.43l7.67,15.1,0.25-17.81a4.75,4.75,0,0,1,4.75-4.69h40.88a4.76,4.76,0,0,1,4.76,4.76v14.62l5-11.19a4.75,4.75,0,0,1,9,1.19L222,173.11A4.75,4.75,0,0,1,217.36,178.63ZM137,169.11h74.81l-3.69-23-7.6,17a4.76,4.76,0,0,1-9.1-2V129.07H159.95l-0.45,32.4a4.75,4.75,0,0,1-9,2.09l-9.72-19.14Z"/><path class="cls-1" d="M187.23,115H163.8a4.77,4.77,0,0,1-4.68-5.63L170,50.86A4.76,4.76,0,0,1,174.57,47h0.07a4.76,4.76,0,0,1,4.65,3.76l12.59,58.51A4.76,4.76,0,0,1,187.23,115Zm-17.71-9.52h11.82L175,76Z"/><path class="cls-1" d="M185.78,10.23h-6.64V4.76a4.76,4.76,0,1,0-9.51,0v5.47H163a4.76,4.76,0,0,0,0,9.52h6.64v12.3a4.76,4.76,0,1,0,9.51,0V19.75h6.64A4.76,4.76,0,0,0,185.78,10.23Z"/></svg>