<svg id="Calque_1" data-name="Calque 1" xmlns="http://www.w3.org/2000/svg" viewBox="0 0 350 350"><defs><style>.cls-1{fill:#6d6e71;}</style></defs><title>Icons_Hikster_2_colors</title><path class="cls-1" d="M341.91,264.23c-13.83,0-20.22-5.25-28.31-11.88-8.87-7.29-18.93-15.56-38.52-15.56s-29.65,8.27-38.53,15.56a90.14,90.14,0,0,1-8.46,6.41V92.66a31.55,31.55,0,0,1,60.71-12A44.94,44.94,0,0,1,291.53,95c0.17,4.45,3.43,7.73,8.37,7.75a8.06,8.06,0,0,0,7.75-8.37c-0.44-11.7-3.71-19.4-4-20.09A47.68,47.68,0,0,0,212,92.66v23.61H108.75l-0.39,0V92.66a31.55,31.55,0,0,1,60.71-12A45.22,45.22,0,0,1,171.81,95a8.07,8.07,0,0,0,8,7.76h0.32a8.06,8.06,0,0,0,7.75-8.37c-0.46-11.72-3.72-19.4-4-20.09A47.68,47.68,0,0,0,92.22,92.66V260.15c-4.6,2.51-9.92,4.08-17.46,4.08C61,264.23,54.6,259,46.53,252.35c-8.86-7.29-18.91-15.56-38.48-15.56a8.07,8.07,0,0,0,0,16.14c13.78,0,20.16,5.25,28.23,11.88,8.86,7.29,18.91,15.56,38.48,15.56s29.62-8.27,38.49-15.56c8.07-6.65,14.45-11.88,28.23-11.88s20.19,5.25,28.27,11.88c8.88,7.29,18.93,15.56,38.51,15.56s29.65-8.27,38.53-15.56c8.08-6.64,14.47-11.88,28.29-11.88s20.21,5.25,28.29,11.88c8.88,7.29,18.95,15.56,38.54,15.56A8.07,8.07,0,0,0,341.91,264.23ZM108.36,173.91l0.39,0H212v24.79H108.75l-0.39,0V173.91Zm0.39-41.51H212v25.39H108.75l-0.39,0V132.39ZM180,252.35c-8.88-7.29-18.93-15.56-38.52-15.56-15.77,0-25.35,5.37-33.12,11.28V214.84l0.39,0H212v48.37a8.15,8.15,0,0,0,0,.85c-1.19.09-2.42,0.15-3.73,0.15C194.46,264.23,188.08,259,180,252.35Z"/><path class="cls-1" d="M341.91,346.68c-19.59,0-29.66-8.27-38.54-15.56-8.08-6.64-14.47-11.88-28.29-11.88s-20.21,5.25-28.29,11.88c-8.88,7.29-18.94,15.56-38.53,15.56s-29.63-8.27-38.51-15.56c-8.08-6.64-14.46-11.88-28.27-11.88s-20.16,5.24-28.23,11.88c-8.87,7.29-18.92,15.56-38.49,15.56s-29.62-8.27-38.48-15.56c-8.07-6.64-14.45-11.88-28.23-11.88a8.07,8.07,0,0,1,0-16.14c19.57,0,29.62,8.27,38.48,15.56,8.07,6.64,14.45,11.88,28.23,11.88s20.17-5.25,28.24-11.88c8.87-7.29,18.92-15.56,38.48-15.56s29.64,8.27,38.52,15.56c8.08,6.64,14.46,11.88,28.26,11.88s20.21-5.25,28.29-11.88c8.88-7.29,18.94-15.56,38.53-15.56s29.65,8.27,38.52,15.56c8.09,6.64,14.48,11.88,28.31,11.88A8.07,8.07,0,0,1,341.91,346.68Z"/><path class="cls-1" d="M37.37,52.19A24.43,24.43,0,1,1,61.8,27.75,24.46,24.46,0,0,1,37.37,52.19Zm0-32.72a8.29,8.29,0,1,0,8.29,8.29A8.29,8.29,0,0,0,37.37,19.46Z"/></svg>