<svg id="Calque_1" data-name="Calque 1" xmlns="http://www.w3.org/2000/svg" viewBox="0 0 350 350"><defs><style>.cls-1{fill:#6d6e71;}</style></defs><title>Icons_Hikster_2_colors</title><path class="cls-1" d="M183.38,283.07H87.52c-9.44,0-17.41-8.66-17.41-18.92,0-.19,0-0.37,0-0.55l-0.06-2.67c-1-23.42-1-67.73,10-103a5.78,5.78,0,0,1,.21-0.87C84,144,105,78.18,157.93,59.61a44.88,44.88,0,0,1,19.64-4.51,6.18,6.18,0,0,1,6.19,6.19V94.53c20.21,1.77,36.28,8.42,47.84,19.8l0.83,0.78,0.71,0.68a16.49,16.49,0,0,1,1.56,1.48l0.17,0.2A76.47,76.47,0,0,1,249.67,140H297a16.81,16.81,0,0,1,16.8,16.79V167a59.2,59.2,0,0,1-59.14,59.14l-26.62,1.32h0a25.94,25.94,0,0,0-18.21,7.84,25.08,25.08,0,0,0-7.67,17.73s0.11,11.36,0,13.51C201.89,272.14,195.9,283.07,183.38,283.07ZM82.5,264.67c0.25,3.07,2.66,6,5,6h95.86c5.26,0,6.47-5,6.48-5.08,0.08-1.74,0-12.49,0-12.5a37.4,37.4,0,0,1,11.3-26.55,38.19,38.19,0,0,1,26.62-11.46h0l26.61-1.32A46.89,46.89,0,0,0,301.46,167V156.76a4.43,4.43,0,0,0-4.42-4.42H245.5a6.19,6.19,0,0,1-6-4.68c-3.65-9-8.29-16.29-13.85-21.9-0.12-.12-0.24-0.25-0.35-0.38a14.5,14.5,0,0,1-1.15-1.07l-1-.91c-10.66-10.49-26-16.09-45.83-16.87a6.18,6.18,0,0,1-5.94-6.18V68.08a35.83,35.83,0,0,0-8.7,2.94c-47.49,16.71-67.32,78.68-70.24,88.71a6.47,6.47,0,0,1-.23,1c-10.72,33.55-10.72,76.82-9.76,99.63l0.08,3.54A6,6,0,0,1,82.5,264.67Z"/><circle class="cls-1" cx="205.57" cy="145.21" r="8.99"/><path class="cls-1" d="M205,2.62A175,175,0,0,0,31.93,275.68,173.81,173.81,0,0,0,145,347.35,177.13,177.13,0,0,0,175.39,350a175.08,175.08,0,0,0,172-145C363.92,109.91,300,19.14,205,2.62ZM147.17,335.16c-88.33-15.35-147.7-99.7-132.34-188A161.49,161.49,0,0,1,81.43,42q6.31-4.44,12.94-8.23l137,293.76A161.49,161.49,0,0,1,147.17,335.16Zm188-132.33a161.52,161.52,0,0,1-66.61,105.11,164.44,164.44,0,0,1-25.82,14.87L105.38,28.14l0-.08a160.75,160.75,0,0,1,69.33-15.69,164.42,164.42,0,0,1,28.2,2.45C291.19,30.17,350.56,114.51,335.2,202.83Z"/></svg>