<svg id="Calque_1" data-name="Calque 1" xmlns="http://www.w3.org/2000/svg" viewBox="0 0 350 350"><defs><style>.cls-1{fill:#6d6e71;}</style></defs><title>Icons_Hikster_2_colors</title><path class="cls-1" d="M331.83,9H18.17A18.2,18.2,0,0,0,0,27.17V144.79A18.2,18.2,0,0,0,18.17,163H32.41V267.28H22.67a9.76,9.76,0,1,0,0,19.51H63.95a9.76,9.76,0,1,0,0-19.51h-12V163H297.27V267.28h-8.59a9.76,9.76,0,0,0,0,19.51H330a9.76,9.76,0,1,0,0-19.51H316.78V163h15A18.2,18.2,0,0,0,350,144.79V27.17A18.2,18.2,0,0,0,331.83,9ZM330.49,75.8H316.78V61.62h13.71V75.8Zm-33.22,0H284.11V61.62h13.17V75.8Zm-131.75,0H152V61.62h13.5V75.8ZM185,61.62h13.52V75.8H185V61.62ZM132.51,75.8H119V61.62h13.52V75.8Zm-33,0H86V61.62H99.49V75.8Zm0,19.51v15H86v-15H99.49Zm19.51,0h13.52v15H119v-15Zm33,0h13.5v15H152v-15Zm33,0h13.52v15H185v-15Zm33,0h13.5v15h-13.5v-15Zm0-19.51V61.62h13.5V75.8h-13.5Zm33-14.18H264.6V75.8H251.08V61.62Zm33-19.51V28.51h13.17v13.6H284.11Zm-19.51,0H251.08V28.51H264.6v13.6Zm-33,0h-13.5V28.51h13.5v13.6Zm-33,0H185V28.51h13.52v13.6Zm-33,0H152V28.51h13.5v13.6Zm-33,0H119V28.51h13.52v13.6Zm-33,0H86V28.51H99.49v13.6Zm-33,0H52.86L53,28.51H66.46v13.6Zm0,19.51V75.8H52.58L52.7,61.62H66.46ZM33.07,75.8H19.51V61.62H33.19ZM19.51,95.31H32.9l-0.13,15H19.51v-15Zm32.9,0h14v15H52.28Zm14,34.55v13.6H52l0.11-13.6H66.46Zm19.51,0H99.49v13.6H86v-13.6Zm33,0h13.52v13.6H119v-13.6Zm33,0h13.5v13.6H152v-13.6Zm33,0h13.52v13.6H185v-13.6Zm33,0h13.5v13.6h-13.5v-13.6Zm33,0H264.6v13.6H251.08v-13.6Zm0-19.51v-15H264.6v15H251.08Zm33-15h13.17v15H284.11v-15Zm32.68,0h13.71v15H316.78v-15Zm13.71-53.2H316.78V28.51h13.71v13.6Zm-297-13.6-0.11,13.6H19.51V28.51h14Zm-14,101.34h13.1l-0.11,13.6h-13v-13.6Zm264.6,13.6v-13.6h13.17v13.6H284.11Zm32.68,0v-13.6h13.71v13.6H316.78Z"/><circle class="cls-1" cx="218.09" cy="313.89" r="27.11"/></svg>