<svg id="Calque_1" data-name="Calque 1" xmlns="http://www.w3.org/2000/svg" viewBox="0 0 350 350"><defs><style>.cls-1{fill:#6d6e71;}</style></defs><title>Icons_Hikster_2_colors</title><path class="cls-1" d="M179.55,270.43a8.19,8.19,0,0,1-7.26-11.94l11.42-22A8.19,8.19,0,0,1,198.25,244l-11.42,22A8.19,8.19,0,0,1,179.55,270.43Z"/><path class="cls-1" d="M324.62,48.44C290.93,21.7,236.26,34.1,202.78,76.07c-16,20-24.91,43.87-25.11,67.05a86.27,86.27,0,0,0,1.27,15.52,105.3,105.3,0,0,1-4,41.27,105.33,105.33,0,0,1-3.91-41.58c0-.27,0-0.53,0-0.8,4.17-26-3.78-56.23-23.91-81.47-33.48-42-88.15-54.37-121.84-27.63S-8.48,131.11,25,173.1c19.71,24.7,46.76,39.16,72.55,41.41l0.37,0.08c0.32,0.06,30.64,5.69,51.65,24.37L115.1,282.18a20.63,20.63,0,0,0,16.13,33.49,21.53,21.53,0,0,0,2.41-.14,20.55,20.55,0,0,0,13.85-7.64L175,273.39l27.53,34.49a20.51,20.51,0,0,0,13.85,7.65,21.48,21.48,0,0,0,2.39.14,20.64,20.64,0,0,0,16.14-33.49L200.44,239c19.47-17.29,47.15-23.46,51.15-24.28a88,88,0,0,0,13.55-2.14c22.61-5.4,43.87-19.41,59.86-39.46C358.48,131.11,358.31,75.19,324.62,48.44Zm-223.94,150a8,8,0,0,0-1.34-.11c-21.47-1.72-44.55-14.19-61.51-35.47C10,128,9,82.38,35.59,61.24,44.7,54,55.88,50.56,67.78,50.56c22.85,0,48.29,12.72,66.61,35.7,17.35,21.75,24.28,47.65,20.61,69.2a7.94,7.94,0,0,0-.22,1.17v0c-2.38,12.55-8.41,23.56-18.14,31.28C126.56,195.92,114,199.28,100.68,198.49Zm32.23,10.61a62.37,62.37,0,0,0,23.23-17.51,120.35,120.35,0,0,0,9.07,28.64,8.23,8.23,0,0,0-2.25,1.94l-3.19,4A114,114,0,0,0,132.91,209.1Zm1.74,88.61a4.37,4.37,0,0,1-6,.69,4.33,4.33,0,0,1-.68-6l42.5-53.29,6.46,5.68Zm87.43-5.34a4.22,4.22,0,0,1,.89,3.15,4.28,4.28,0,0,1-1.58,2.87,4.14,4.14,0,0,1-3.16.89,4.3,4.3,0,0,1-2.87-1.58l-29.88-37.45,5.49-6.89Zm-36.56-61.81-4.13-3.64a116.33,116.33,0,0,0,12.5-35.27A63.59,63.59,0,0,0,217,209.12C206.47,214,195,221,185.51,230.56Zm126.65-67.64c-13.72,17.21-31.78,29.18-50.85,33.74-18.36,4.37-35.36,1.27-48-8.72-9.55-7.58-15.79-18.53-18.18-31.58,0-.19-0.05-0.38-0.09-0.57a69.42,69.42,0,0,1-1-12.52c0.16-19.56,7.8-39.8,21.54-57,18.32-23,43.76-35.7,66.61-35.7,11.89,0,23.07,3.45,32.19,10.68C341,82.38,340,128,312.17,162.91Z"/></svg>