<svg id="Calque_1" data-name="Calque 1" xmlns="http://www.w3.org/2000/svg" viewBox="0 0 350 350"><defs><style>.cls-1{fill:#6d6e71;}</style></defs><title>Icons_Hikster_2_colors</title><path class="cls-1" d="M245.57,269.69H221c0-.35.05-0.7,0.05-1.05V239.87a17.46,17.46,0,0,0-15-17.26c2.13-10.14,5.86-26.89,10.4-42.81a138.16,138.16,0,0,1,7.65-20.86A110.92,110.92,0,0,0,230.22,142a11.15,11.15,0,0,0,.23-1.2,52.84,52.84,0,0,0,.77-8,56.54,56.54,0,0,0-113.08,0,51.85,51.85,0,0,0,.75,7.83A8.12,8.12,0,0,0,119,142a53.19,53.19,0,0,0,5.09,15.3,206.2,206.2,0,0,1,8.95,20.21c6.73,18.85,10.81,34.47,11.86,45.19a17.46,17.46,0,0,0-14.7,17.21v28.77c0,0.35,0,.7.05,1.05h-20a21.83,21.83,0,0,0-21.8,21.8v36.25a21.75,21.75,0,0,0,.68,5.4H64.63a8.2,8.2,0,1,0,0,16.4h41a8.22,8.22,0,0,0,1.77-.2,21.86,21.86,0,0,0,2.88.2H245.57a21.83,21.83,0,0,0,21.8-21.8V291.48A21.83,21.83,0,0,0,245.57,269.69ZM135.19,139.08s0,0,0,0q0-.34-0.07-0.68a36.91,36.91,0,0,1-.58-5.51,40.14,40.14,0,1,1,80.28,0,42.9,42.9,0,0,1-.45,5A95.88,95.88,0,0,1,209.23,152a154.57,154.57,0,0,0-8.55,23.29c-5.23,18.36-9.34,37.35-11.34,47.12h-28c-1-12.42-5.32-29.34-12.88-50.46a226.75,226.75,0,0,0-10.07-22.77A34.45,34.45,0,0,1,135.19,139.08Zm11.45,129.56V239.87a1.09,1.09,0,0,1,1.05-1.05h56a1.07,1.07,0,0,1,1.05,1.05v28.77a1.07,1.07,0,0,1-1.05,1.05h-56A1.09,1.09,0,0,1,146.64,268.64ZM251,327.74a5.4,5.4,0,0,1-5.4,5.4H110.26a5.47,5.47,0,0,1-5.4-5.4V291.48a5.47,5.47,0,0,1,5.4-5.4H245.57a5.4,5.4,0,0,1,5.4,5.4v36.25Z"/><path class="cls-1" d="M177.59,52.64a8.2,8.2,0,0,1-8.2-8.2V8.66a8.2,8.2,0,1,1,16.4,0V44.44A8.2,8.2,0,0,1,177.59,52.64Z"/><path class="cls-1" d="M90.5,133.6H54.72a8.2,8.2,0,1,1,0-16.4H90.5A8.2,8.2,0,1,1,90.5,133.6Z"/><path class="cls-1" d="M294.63,133.6H258.84a8.2,8.2,0,1,1,0-16.4h35.79A8.2,8.2,0,1,1,294.63,133.6Z"/><path class="cls-1" d="M113.46,76.23a8.19,8.19,0,0,1-5.4-2L81.14,50.61a8.2,8.2,0,1,1,10.8-12.33l26.91,23.58A8.2,8.2,0,0,1,113.46,76.23Z"/><path class="cls-1" d="M237.82,76.23a8.2,8.2,0,0,1-5.4-14.37l26.91-23.58a8.2,8.2,0,1,1,10.8,12.33L243.22,74.19A8.19,8.19,0,0,1,237.82,76.23Z"/></svg>