<svg id="Calque_1" data-name="Calque 1" xmlns="http://www.w3.org/2000/svg" viewBox="0 0 350 350"><defs><style>.cls-1{fill:#6d6e71;}</style></defs><title>Icons_Hikster_2_colors</title><path class="cls-1" d="M132.52,0a8.78,8.78,0,0,0-8.77,8.79V98.33h-7.43V8.79a8.77,8.77,0,1,0-17.54,0V98.33H91.3V8.79a8.77,8.77,0,1,0-17.54,0V98.33h-7.3V8.79a8.77,8.77,0,1,0-17.54,0v98.33c0,0.16,0,.32,0,0.48A46.31,46.31,0,0,0,73.33,147.9a31.46,31.46,0,0,0-10.68,23.64v147A31.51,31.51,0,0,0,94.1,350h2a31.51,31.51,0,0,0,31.44-31.51v-147a31.46,31.46,0,0,0-10.68-23.63,46.31,46.31,0,0,0,24.38-40.3c0-.16,0-0.32,0-0.48V8.79A8.78,8.78,0,0,0,132.52,0ZM110,318.49a13.93,13.93,0,0,1-13.91,13.93h-2a13.94,13.94,0,0,1-13.91-13.93v-147A13.94,13.94,0,0,1,94.1,157.61h2A13.93,13.93,0,0,1,110,171.54v147ZM95.11,135.8a28.68,28.68,0,0,1-27.26-19.88h54.51A28.68,28.68,0,0,1,95.11,135.8Z"/><path class="cls-1" d="M285,198.25c12.59-41.24,17.1-73.1,15.92-110.65-1.58-50.16-23.17-75.78-23.78-76.47a25,25,0,0,0-44.77,15.26V199.63a8.78,8.78,0,0,0-4,7.38V317.76c0,17.54,14.56,31.8,32.45,31.8s32.46-14.27,32.46-31.8V207A8.77,8.77,0,0,0,285,198.25ZM263.49,22.2c0.19,0.22,18.5,22.45,19.86,66,1.17,37-3.56,68.28-16.75,110.07H249.87V26.39C249.87,20,258.79,16.14,263.49,22.2Zm12.2,295.57c0,7.85-6.7,14.22-14.92,14.22s-14.91-6.37-14.91-14.22v-102h29.84v102Z"/></svg>