<svg id="Calque_1" data-name="Calque 1" xmlns="http://www.w3.org/2000/svg" viewBox="0 0 350 350"><defs><style>.cls-1{fill:#6d6e71;}</style></defs><title>Icons_Hikster_2_colors</title><path class="cls-1" d="M173.67,206.5a65.6,65.6,0,1,1,65.61-65.6A65.68,65.68,0,0,1,173.67,206.5Zm0-113.08a47.47,47.47,0,1,0,47.46,47.47A47.52,47.52,0,0,0,173.67,93.43Z"/><path class="cls-1" d="M176.76,18.14c67.45,0,122.33,55.07,122.33,122.76v0.7c-0.15,27.51-12,55.9-33.18,79.86L175,322.83,84.17,221.55c-21.29-24-33.1-52.44-33.25-80V140.9c0-67.69,54.88-122.75,122.33-122.76h3.51m0-18.14h-3.51C95.44,0,32.78,63.09,32.78,140.9c0,0.27,0,.53,0,0.8C33,175.76,48,208.07,70.59,233.57L175,350,279.41,233.57C302,208.07,317,175.76,317.22,141.7c0-.27,0-0.53,0-0.8C317.22,63.08,254.57,0,176.76,0h0Z"/></svg>