<svg id="Calque_1" data-name="Calque 1" xmlns="http://www.w3.org/2000/svg" viewBox="0 0 350 350"><defs><style>.cls-1{fill:#6d6e71;}</style></defs><title>Icons_Hikster_2_colors</title><path class="cls-1" d="M269.4,250.36a8.83,8.83,0,1,1-8.83,8.83,8.84,8.84,0,0,1,8.83-8.83m0-13.86a22.68,22.68,0,1,0,22.68,22.68A22.68,22.68,0,0,0,269.4,236.5h0Z"/><path class="cls-1" d="M79.73,250.36a8.83,8.83,0,1,1-8.83,8.83,8.84,8.84,0,0,1,8.83-8.83m0-13.86a22.68,22.68,0,1,0,22.68,22.68A22.68,22.68,0,0,0,79.73,236.5h0Z"/><path class="cls-1" d="M216.89,269.93H130.21a6.93,6.93,0,0,1,0-13.86h86.68A6.93,6.93,0,0,1,216.89,269.93Z"/><path class="cls-1" d="M215.8,47.82H131.28a6.93,6.93,0,0,1,0-13.86H215.8A6.93,6.93,0,0,1,215.8,47.82Z"/><path class="cls-1" d="M349.72,175.88c0-18.25-12.32-33.33-28.12-35.37V61a61.2,61.2,0,0,0-61-61H91A61.2,61.2,0,0,0,30,61v79.59C13.4,142,.28,157.32.28,176S13.4,210,30,211.37v42.35a60.91,60.91,0,0,0,20.74,45.72L51,325.25A24.77,24.77,0,0,0,75.74,350H99.48a24.84,24.84,0,0,0,24.75-25.07s-0.4-8.15-.51-10.19H225.47c0,0.1,0,.21,0,0.31l0.45,10A24.94,24.94,0,0,0,250.82,350h23a24.94,24.94,0,0,0,24.9-24.91v-22a6.93,6.93,0,0,0-.21-1.69,61,61,0,0,0,23.12-47.71V211.24C337.4,209.21,349.72,194.13,349.72,175.88ZM91,13.86H260.58A47.22,47.22,0,0,1,307.74,61v7.62a19,19,0,0,0-8.15-1.84H51.54a19.06,19.06,0,0,0-7.69,1.62V61A47.22,47.22,0,0,1,91,13.86ZM304.92,86V208.61a5.33,5.33,0,0,1-5.33,5.33H51.54a5.39,5.39,0,0,1-5.33-5.33V86a5.33,5.33,0,0,1,5.33-5.32H299.59A5.33,5.33,0,0,1,304.92,86ZM14.13,176c0-11,6.92-20,15.85-21.44v42.87C21.05,196,14.13,186.95,14.13,176Zm95.78,139.7,0.46,9.57a10.9,10.9,0,0,1-10.9,10.88H75.74a10.92,10.92,0,0,1-10.89-11l-0.17-16.45a60.46,60.46,0,0,0,26.33,6h18.93A7,7,0,0,0,109.92,315.69Zm174.93,9.4a11.06,11.06,0,0,1-11.05,11h-23a11.14,11.14,0,0,1-11.06-11.35l-0.45-10h21.26a60.44,60.44,0,0,0,24.26-5.07v15.42Zm-24.26-24.2H91a47.22,47.22,0,0,1-47.16-47.16V226.18a19,19,0,0,0,7.69,1.62H299.59a19,19,0,0,0,8.15-1.84v27.77A47.22,47.22,0,0,1,260.58,300.89Zm61-103.72V154.58c8.14,2.05,14.27,10.82,14.27,21.29S329.73,195.12,321.6,197.17Z"/></svg>