<svg id="Calque_1" data-name="Calque 1" xmlns="http://www.w3.org/2000/svg" viewBox="0 0 350 350"><defs><style>.cls-1{fill:#6d6e71;}</style></defs><title>Icons_Hikster_2_colors</title><path class="cls-1" d="M337.29,187.53H12.71a12.3,12.3,0,1,1,0-24.6H337.29A12.3,12.3,0,0,1,337.29,187.53Z"/><path class="cls-1" d="M297.72,281.38s-20.23-55.31-40.57-110.63c-10.18-27.67-20.38-55.32-28.09-76.07-2.65-7.12-4.85-13-6.72-18H283a12.3,12.3,0,0,0,0-24.6H69.51a12.3,12.3,0,0,0,0,24.6h59.85c-1.88,4.94-4.08,10.86-6.72,18-7.71,20.74-17.91,48.41-28.09,76.07C74.21,226.07,54,281.38,54,281.38a12.3,12.3,0,1,0,23.1,8.45c27.41-74.9,67.57-184.23,78.57-213.14h40.42c11,28.92,51.15,138.23,78.56,213.14A12.3,12.3,0,0,0,297.72,281.38Z"/></svg>