<?xml version="1.0" encoding="utf-8"?>
<!-- Generator: Adobe Illustrator 19.2.1, SVG Export Plug-In . SVG Version: 6.00 Build 0)  -->
<svg version="1.1" xmlns="http://www.w3.org/2000/svg" xmlns:xlink="http://www.w3.org/1999/xlink" x="0px" y="0px"
	 viewBox="0 0 120 120" style="enable-background:new 0 0 120 120;" xml:space="preserve">
<style type="text/css">
	.st0{fill:#FAFAFA;}
</style>
<g id="Calque_2">
</g>
<g id="Calque_1">
	<path id="Facebook_3_" class="st0" d="M60,0C26.9,0,0,26.9,0,60c0,33.1,26.9,60,60,60c33.1,0,60-26.9,60-60C120,26.9,93.1,0,60,0z
		 M72.9,60h-8.4c0,13.4,0,30,0,30H52c0,0,0-16.4,0-30h-5.9V49.4H52v-6.9C52,37.7,54.3,30,64.6,30l9.2,0v10.3c0,0-5.6,0-6.7,0
		c-1.1,0-2.6,0.5-2.6,2.9v6.2h9.5L72.9,60z"/>
</g>
</svg>
