<?xml version="1.0" encoding="utf-8"?>
<!-- Generator: Adobe Illustrator 19.2.1, SVG Export Plug-In . SVG Version: 6.00 Build 0)  -->
<svg version="1.1" xmlns="http://www.w3.org/2000/svg" xmlns:xlink="http://www.w3.org/1999/xlink" x="0px" y="0px"
	 viewBox="0 0 120 120" style="enable-background:new 0 0 120 120;" xml:space="preserve">
<style type="text/css">
	.st0{fill:#FAFAFA;}
</style>
<g id="Calque_2">
</g>
<g id="Calque_1">
	<g>
		<g>
			<path class="st0" d="M60,72c6.6,0,12-5.4,12-12c0-2.6-0.8-5-2.3-7c-2.2-3-5.7-5-9.7-5c-4,0-7.6,2-9.7,5c-1.4,2-2.3,4.4-2.3,7
				C48,66.6,53.4,72,60,72L60,72z M60,72"/>
		</g>
		<g>
			<path class="st0" d="M86.2,45.3V33.7h-1.5l-10.1,0l0,11.6L86.2,45.3z M86.2,45.3"/>
		</g>
		<g>
			<path class="st0" d="M60,0C26.9,0,0,26.9,0,60c0,33.1,26.9,60,60,60c33.1,0,60-26.9,60-60C120,26.9,93.1,0,60,0L60,0z M94.1,53
				v27.9c0,7.3-5.9,13.2-13.2,13.2H39.1c-7.3,0-13.2-5.9-13.2-13.2V39.1c0-7.3,5.9-13.2,13.2-13.2h41.9c7.3,0,13.2,5.9,13.2,13.2V53
				z M94.1,53"/>
		</g>
		<g>
			<path class="st0" d="M78.7,60c0,10.3-8.4,18.7-18.7,18.7c-10.3,0-18.7-8.4-18.7-18.7c0-2.5,0.5-4.8,1.4-7H32.5v27.9
				c0,3.6,2.9,6.5,6.5,6.5h41.9c3.6,0,6.5-2.9,6.5-6.5V53H77.3C78.2,55.2,78.7,57.5,78.7,60L78.7,60z M78.7,60"/>
		</g>
	</g>
</g>
</svg>
