<?xml version="1.0" encoding="utf-8"?>
<!-- Generator: Adobe Illustrator 19.2.1, SVG Export Plug-In . SVG Version: 6.00 Build 0)  -->
<svg version="1.1" xmlns="http://www.w3.org/2000/svg" xmlns:xlink="http://www.w3.org/1999/xlink" x="0px" y="0px"
	 viewBox="0 0 405 500" style="enable-background:new 0 0 405 500;" xml:space="preserve">
<style type="text/css">
	.st0{fill:#FFFFFF;}
	.st1{fill:#56DC4C;}
	.st2{fill:#6D6E72;}
	.st3{fill:none;stroke:#6D6E72;stroke-width:1.1339;stroke-linecap:round;stroke-linejoin:round;stroke-miterlimit:10;}
	.st4{fill:#575D60;}
</style>
<g id="Calque_1">
	<g>
		<g>
			<path class="st0" d="M204.9,6.8c-0.8,0-1.6,0-2.4,0c-0.8,0-1.6,0-2.4,0C93,6.8,6.8,93.9,6.8,201.2c0,0.4,0,0.7,0,1.1
				c0.3,47,21,91.6,52,126.8l143.7,160.7l143.7-160.7c31.1-35.2,51.8-79.8,52-126.8c0-0.4,0-0.7,0-1.1C398.2,93.9,312,6.8,204.9,6.8
				z"/>
			<path class="st1" d="M202.5,500L53.8,333.7C19.3,294.7,0.3,248.1,0,202.4l0-1.1C0,90.3,89.8,0,200.1,0l2.5,0l2.4,0
				C315.2,0,405,90.3,405,201.2l0,1.2c-0.3,45.6-19.3,92.3-53.7,131.2L202.5,500z M13.5,202.3c0.2,42.4,18.1,85.8,50.3,122.3
				l138.6,155l138.6-155c32.2-36.5,50.1-79.9,50.3-122.3l0-1.1c0-103.5-83.7-187.7-186.5-187.7l-2.3,0l-2.5,0
				C97.2,13.6,13.5,97.8,13.5,201.2l-6.8,1.1L13.5,202.3z"/>
		</g>
		<g>
			<g>
				<g>
					<g>
						<g>
							<path class="st2" d="M290.5,291.7c-1.4,0-2.8-0.5-3.9-1.6l-69.5-69.9c-2.1-2.1-2.1-5.6,0-7.7c2.1-2.1,5.6-2.1,7.7,0
								l69.5,69.9c2.1,2.1,2.1,5.6,0,7.7C293.2,291.1,291.8,291.7,290.5,291.7z"/>
						</g>
					</g>
					<g>
						<g>
							<path class="st2" d="M220.6,282C220.6,282,220.6,282,220.6,282c-3,0-5.5-2.5-5.4-5.5l0.3-60.2c0-3,2.4-5.4,5.4-5.4l59.3-0.2
								c0,0,0,0,0,0c3,0,5.4,2.4,5.4,5.4c0,3-2.4,5.5-5.4,5.5l-53.9,0.1l-0.3,54.8C226.1,279.6,223.6,282,220.6,282z"/>
						</g>
					</g>
				</g>
				<g>
					<g>
						<g>
							<path class="st2" d="M220.9,191.2c-1.4,0-2.8-0.5-3.8-1.6c-2.1-2.1-2.1-5.6,0-7.7l69.5-70.2c2.1-2.1,5.6-2.2,7.7,0
								c2.1,2.1,2.1,5.6,0,7.7l-69.5,70.2C223.7,190.6,222.3,191.2,220.9,191.2z"/>
						</g>
					</g>
					<g>
						<g>
							<path class="st2" d="M280.2,191.3C280.2,191.3,280.2,191.3,280.2,191.3l-59.3-0.2c-3,0-5.4-2.4-5.4-5.4l-0.3-60.2
								c0-3,2.4-5.5,5.4-5.5c0,0,0,0,0,0c3,0,5.4,2.4,5.4,5.4l0.3,54.8l53.9,0.1c3,0,5.4,2.5,5.4,5.5
								C285.7,188.9,283.2,191.3,280.2,191.3z"/>
						</g>
					</g>
				</g>
				<g>
					<g>
						<g>
							<path class="st2" d="M190.2,191.2c-1.4,0-2.8-0.5-3.9-1.6l-69.7-70.2c-2.1-2.1-2.1-5.6,0-7.7c2.1-2.1,5.6-2.1,7.7,0
								l69.7,70.2c2.1,2.1,2.1,5.6,0,7.7C192.9,190.7,191.5,191.2,190.2,191.2z"/>
						</g>
					</g>
					<g>
						<g>
							<path class="st2" d="M130.9,191.3c-3,0-5.4-2.4-5.4-5.4c0-3,2.4-5.5,5.4-5.5l53.9-0.1l0.3-54.8c0-3,2.5-5.4,5.4-5.4
								c0,0,0,0,0,0c3,0,5.4,2.5,5.4,5.5l-0.3,60.2c0,3-2.4,5.4-5.4,5.4L130.9,191.3C130.9,191.3,130.9,191.3,130.9,191.3z"/>
						</g>
					</g>
				</g>
				<g>
					<g>
						<g>
							<path class="st2" d="M120.7,291.9c-1.4,0-2.8-0.5-3.8-1.6c-2.1-2.1-2.1-5.6,0-7.7l69.4-70.1c2.1-2.1,5.6-2.1,7.7,0
								c2.1,2.1,2.1,5.6,0,7.7l-69.4,70.1C123.5,291.3,122.1,291.9,120.7,291.9z"/>
						</g>
					</g>
					<g>
						<g>
							<path class="st2" d="M190.5,282c-3,0-5.4-2.4-5.4-5.4l-0.3-54.8l-53.9-0.1c-3,0-5.4-2.5-5.4-5.5c0-3,2.4-5.4,5.4-5.4
								c0,0,0,0,0,0l59.3,0.2c3,0,5.4,2.4,5.4,5.4l0.3,60.2C195.9,279.5,193.5,282,190.5,282C190.5,282,190.5,282,190.5,282z"/>
						</g>
					</g>
				</g>
			</g>
			<g>
				<g>
					<path class="st1" d="M120.7,291.9c-1.4,0-2.8-0.5-3.8-1.6c-2.1-2.1-2.1-5.6,0-7.7l17.7-17.7c2.1-2.1,5.6-2.1,7.7,0
						c2.1,2.1,2.1,5.6,0,7.7l-17.7,17.7C123.5,291.4,122.1,291.9,120.7,291.9z"/>
				</g>
			</g>
			<g>
				<g>
					<path class="st1" d="M290.5,291.9c-1.4,0-2.8-0.5-3.8-1.6l-17.7-17.7c-2.1-2.1-2.1-5.6,0-7.7c2.1-2.1,5.6-2.1,7.7,0l17.7,17.7
						c2.1,2.1,2.1,5.6,0,7.7C293.2,291.4,291.8,291.9,290.5,291.9z"/>
				</g>
			</g>
			<g>
				<g>
					<path class="st1" d="M138.4,138.8c-1.4,0-2.8-0.5-3.8-1.6l-17.7-17.7c-2.1-2.1-2.1-5.6,0-7.7c2.1-2.1,5.6-2.1,7.7,0l17.7,17.7
						c2.1,2.1,2.1,5.6,0,7.7C141.2,138.2,139.8,138.8,138.4,138.8z"/>
				</g>
			</g>
			<g>
				<g>
					<path class="st1" d="M272.8,138.8c-1.4,0-2.8-0.5-3.8-1.6c-2.1-2.1-2.1-5.6,0-7.7l17.7-17.7c2.1-2.1,5.6-2.1,7.7,0
						c2.1,2.1,2.1,5.6,0,7.7l-17.7,17.7C275.6,138.2,274.2,138.8,272.8,138.8z"/>
				</g>
			</g>
		</g>
	</g>
</g>
<g id="Calque_2">
</g>
</svg>
