<svg id="Calque_1" data-name="Calque 1" xmlns="http://www.w3.org/2000/svg" viewBox="0 0 405 500"><defs><style>.cls-1{fill:#56dc4c;}.cls-2{fill:#6d6e72;}.cls-3{fill:#fff;}.cls-4{fill:#6d6e71;}</style></defs><title>Icones_Hikster_Juin(2)</title><polygon class="cls-1" points="94.78 169.79 311.18 174.42 201.54 99.45 94.78 169.79"/><path class="cls-2" d="M315.33,180.3H87.75a5.88,5.88,0,0,1-3.23-10.79l113.79-75a5.86,5.86,0,0,1,6.47,0l113.79,75A5.88,5.88,0,0,1,315.33,180.3Zm-208-11.76H295.72l-94.18-62Z"/><path class="cls-2" d="M123.08,294.3a5.88,5.88,0,0,1-5.88-5.88v-114a5.88,5.88,0,0,1,11.77,0v114A5.88,5.88,0,0,1,123.08,294.3Z"/><path class="cls-2" d="M279.19,294.3a5.88,5.88,0,0,1-5.88-5.88v-114a5.88,5.88,0,0,1,11.77,0v114A5.88,5.88,0,0,1,279.19,294.3Z"/><path class="cls-3" d="M204.67,6.77h-4.84C92.89,6.78,6.76,93.84,6.76,201.23c0,0.37,0,.74,0,1.1,0.26,47,20.94,91.6,52,126.8L202.25,489.83,345.77,329.13c31-35.19,51.71-79.79,52-126.8,0-.37,0-0.74,0-1.1C397.74,93.83,311.62,6.77,204.67,6.77Z"/><path class="cls-1" d="M202.25,500L53.7,333.67C19.32,294.68.26,248.06,0,202.37v-1.14C0,90.27,89.65,0,199.83,0l2.54,0,2.3,0C314.86,0,404.51,90.26,404.51,201.23v1.14c-0.25,45.68-19.31,92.3-53.67,131.26ZM199.83,13.56C97.1,13.57,13.53,97.76,13.53,201.23v1c0.24,42.44,18.09,85.88,50.27,122.38l138.45,155L340.73,324.6c32.16-36.46,50-79.9,50.25-122.3l6.77-1.07H391C391,97.75,307.4,13.56,204.67,13.56l-2.3,0Z"/><path class="cls-4" d="M117.47,296.92a10,10,0,0,1-9.47-13h0C146.67,161.7,253.6,117.37,285.46,106.7a9,9,0,0,1,9.32,2.21,9.12,9.12,0,0,1,2.2,9.35c-10.63,32-54.78,139.37-176.49,178.19A10,10,0,0,1,117.47,296.92ZM117,286.8a0.4,0.4,0,0,0,.12.46c117.91-37.34,160.56-141.1,170.83-172C257.68,126,154.35,168.87,117,286.8h0Z"/><path class="cls-4" d="M275.11,160.09a4.71,4.71,0,0,1-3.35-1.4l-25-25.06a4.75,4.75,0,1,1,6.7-6.73l25,25.06a4.76,4.76,0,0,1,0,6.73A4.71,4.71,0,0,1,275.11,160.09Z"/><path class="cls-4" d="M186,242c-6.79,0-12.86-2.15-17.31-6.63h0c-12-12.1-7.16-36,11.13-54.33s42.06-23.28,54.12-11.18,7.16,36-11.14,54.33C211.23,235.74,197.53,242,186,242Zm-10.61-13.35c8,8.05,26.67,2.92,40.7-11.18s19.15-32.82,11.14-40.87-26.66-2.93-40.71,11.18-19.14,32.82-11.13,40.87h0Z"/><path class="cls-4" d="M154.7,281a4.71,4.71,0,0,1-3.35-1.4l-25-25.06a4.75,4.75,0,0,1,6.7-6.73l25,25.06a4.76,4.76,0,0,1,0,6.73A4.71,4.71,0,0,1,154.7,281Z"/><path class="cls-4" d="M271.16,276.59a4.71,4.71,0,0,1-3.38-1.43L129.8,134a4.77,4.77,0,0,1,.07-6.73,4.72,4.72,0,0,1,6.7.07l138,141.18a4.77,4.77,0,0,1-.07,6.73A4.7,4.7,0,0,1,271.16,276.59Z"/><path class="cls-1" d="M123.88,146.84l-21.06-21.22,25-24.84,21.29,21.59c6.8,6.89,7.09,18.37.23,25.19S130.67,153.73,123.88,146.84Z"/><path class="cls-4" d="M137.29,157.11l-0.89,0a23.68,23.68,0,0,1-15.87-6.89L99.46,129a4.77,4.77,0,0,1,0-6.74l25-24.83A6.27,6.27,0,0,1,127.8,96a4.77,4.77,0,0,1,3.35,1.41L152.44,119a23,23,0,0,1,6.61,15.9,21.94,21.94,0,0,1-6.41,16A21.54,21.54,0,0,1,137.29,157.11Zm-27.76-31.48,17.7,17.85h0a14.12,14.12,0,0,0,9.49,4.09,12,12,0,0,0,9.23-3.41,12.44,12.44,0,0,0,3.61-9.12,13.69,13.69,0,0,0-3.87-9.33l-18-18.21Z"/><path class="cls-1" d="M281.11,256.3l21.06,21.22-25,24.84-21.29-21.59c-6.8-6.89-7.09-18.37-.23-25.19S274.31,249.42,281.11,256.3Z"/><path class="cls-4" d="M277.2,307.13h0a4.77,4.77,0,0,1-3.35-1.41l-21.29-21.59a23,23,0,0,1-6.61-15.9A21.52,21.52,0,0,1,268.59,246a23.72,23.72,0,0,1,15.87,6.9l21.06,21.23a4.77,4.77,0,0,1,0,6.74l-25,24.83A4.76,4.76,0,0,1,277.2,307.13Zm-9.49-51.58A12.17,12.17,0,0,0,259,259a12.47,12.47,0,0,0-3.61,9.12,13.69,13.69,0,0,0,3.87,9.33l18,18.21,18.22-18.12-17.7-17.85h0a14.12,14.12,0,0,0-9.49-4.09h-0.54Z"/></svg>