<?xml version="1.0" encoding="utf-8"?>
<!-- Generator: Adobe Illustrator 19.2.1, SVG Export Plug-In . SVG Version: 6.00 Build 0)  -->
<svg version="1.1" xmlns="http://www.w3.org/2000/svg" xmlns:xlink="http://www.w3.org/1999/xlink" x="0px" y="0px"
	 viewBox="0 0 405 500" style="enable-background:new 0 0 405 500;" xml:space="preserve">
<style type="text/css">
	.st0{fill:#FFFFFF;}
	.st1{fill:#56DC4C;}
	.st2{fill:#6D6E72;}
	.st3{fill:none;stroke:#6D6E72;stroke-width:1.1339;stroke-linecap:round;stroke-linejoin:round;stroke-miterlimit:10;}
	.st4{fill:#575D60;}
</style>
<g id="Calque_1">
	<g>
		<g>
			<path class="st0" d="M204.9,6.8c-0.8,0-1.6,0-2.4,0c-0.8,0-1.6,0-2.4,0C93,6.8,6.8,93.8,6.8,201.2c0,0.4,0,0.7,0,1.1
				c0.3,47,21,91.6,52,126.8l143.7,160.7l143.7-160.7c31.1-35.2,51.8-79.8,52-126.8c0-0.4,0-0.7,0-1.1C398.2,93.8,312,6.8,204.9,6.8
				z"/>
			<path class="st1" d="M202.5,500L53.8,333.7C19.3,294.7,0.3,248.1,0,202.4v-1.1C0,90.3,89.8,0,200.1,0l2.5,0l2.4,0
				C315.2,0,405,90.3,405,201.2l0,1.3c-0.3,45.6-19.3,92.2-53.7,131.1L202.5,500z M200.1,13.6C97.2,13.6,13.6,97.8,13.6,201.2v1.1
				c0.2,42.4,18.1,85.8,50.3,122.3l138.6,155l138.6-155c32.2-36.5,50.1-79.9,50.3-122.3l0-1.1c0-103.5-83.7-187.7-186.5-187.7
				l-2.4,0L200.1,13.6z"/>
		</g>
		<g>
			<g>
				<g>
					<path class="st1" d="M149.6,259.5c-1.9,4.2-6.8,6.1-11,4.3c-4.2-1.9-6.1-6.8-4.3-11.1c1.9-4.2,6.8-6.1,11-4.3
						C149.6,250.3,151.5,255.2,149.6,259.5z"/>
				</g>
			</g>
			<g>
				<g>
					<path class="st1" d="M270.1,259.5c-1.9,4.2-6.8,6.1-11,4.3c-4.2-1.9-6.1-6.8-4.3-11.1c1.9-4.2,6.8-6.1,11-4.3
						C270.1,250.3,272,255.2,270.1,259.5z"/>
				</g>
			</g>
			<g>
				<g>
					<polyline class="st1" points="116.3,139.7 118.4,228.3 289.4,228.3 289.4,137.2 116.3,139.7 					"/>
				</g>
			</g>
			<g>
				<g>
					<g>
						<path class="st2" d="M262.5,249.7c3.1,0,5.6,2.5,5.6,5.6c0,3.1-2.5,5.6-5.6,5.6s-5.6-2.5-5.6-5.6
							C256.9,252.2,259.4,249.7,262.5,249.7 M262.5,240.9c-8,0-14.4,6.5-14.4,14.5c0,8,6.5,14.5,14.4,14.5c8,0,14.4-6.5,14.4-14.5
							C276.9,247.3,270.4,240.9,262.5,240.9L262.5,240.9z"/>
					</g>
				</g>
			</g>
			<g>
				<g>
					<g>
						<path class="st2" d="M142,249.7c3.1,0,5.6,2.5,5.6,5.6c0,3.1-2.5,5.6-5.6,5.6c-3.1,0-5.6-2.5-5.6-5.6
							C136.4,252.2,138.9,249.7,142,249.7 M142,240.9c-8,0-14.4,6.5-14.4,14.5c0,8,6.5,14.5,14.4,14.5c8,0,14.4-6.5,14.4-14.5
							C156.4,247.3,149.9,240.9,142,240.9L142,240.9z"/>
					</g>
				</g>
			</g>
			<g>
				<g>
					<path class="st2" d="M229.1,262.1h-55.1c-2.4,0-4.4-2-4.4-4.4c0-2.4,2-4.4,4.4-4.4h55.1c2.4,0,4.4,2,4.4,4.4
						C233.5,260.2,231.5,262.1,229.1,262.1z"/>
				</g>
			</g>
			<g>
				<g>
					<g>
						<path class="st2" d="M256.9,99c16.5,0,30,13.5,30,30v122.8c0,16.6-13.4,30-30,30H149.1c-16.5,0-30-13.5-30-30V129.1
							c0-16.6,13.4-30,30-30H256.9 M256.9,90.2H149.1c-21.3,0-38.8,17.5-38.8,38.9v122.8c0,21.4,17.4,38.9,38.8,38.9h107.7
							c21.3,0,38.8-17.5,38.8-38.9V129.1C295.6,107.7,278.2,90.2,256.9,90.2L256.9,90.2z"/>
					</g>
				</g>
			</g>
			<g>
				<g>
					<path class="st2" d="M111.9,224.9c-11.3,0-20.4-10.1-20.4-22.6c0-12.5,9.2-22.6,20.4-22.6c2.4,0,4.4,2,4.4,4.4
						c0,2.4-2,4.4-4.4,4.4c-6.4,0-11.6,6.2-11.6,13.8s5.2,13.8,11.6,13.8c2.4,0,4.4,2,4.4,4.4C116.3,222.9,114.4,224.9,111.9,224.9z
						"/>
				</g>
			</g>
			<g>
				<g>
					<path class="st2" d="M293.3,224.9c-2.4,0-4.4-2-4.4-4.4c0-2.4,2-4.4,4.4-4.4c6.3,0,11.4-6.2,11.4-13.9s-5.1-13.9-11.4-13.9
						c-2.4,0-4.4-2-4.4-4.4c0-2.4,2-4.4,4.4-4.4c11.1,0,20.2,10.2,20.2,22.7C313.5,214.7,304.4,224.9,293.3,224.9z"/>
				</g>
			</g>
			<g>
				<g>
					<path class="st2" d="M228.4,120.7h-53.7c-2.4,0-4.4-2-4.4-4.4s2-4.4,4.4-4.4h53.7c2.4,0,4.4,2,4.4,4.4S230.8,120.7,228.4,120.7
						z"/>
				</g>
			</g>
			<g>
				<g>
					<path class="st2" d="M154.5,313.2h-15.1c-8.7,0-15.7-7.1-15.7-15.8l-0.2-17.2c0-2.4,1.9-4.4,4.4-4.5c0,0,0,0,0,0
						c2.4,0,4.4,1.9,4.4,4.4l0.2,17.3c0,3.9,3.1,7,6.9,7h15.1c3.8,0,6.9-3.1,6.9-6.9c0,0-0.3-6.3-0.3-6.4c0-2.4,2-4.4,4.4-4.4
						c2.4,0,4.3,1.9,4.4,4.3l0.3,6.3C170.3,306.1,163.2,313.2,154.5,313.2z M170,291L170,291L170,291z"/>
				</g>
			</g>
			<g>
				<g>
					<path class="st2" d="M265.2,313.2h-14.6c-8.7,0-15.8-7.1-15.8-15.9l-0.3-6.4c-0.1-2.4,1.8-4.5,4.2-4.6c2.5,0,4.5,1.8,4.6,4.2
						l0.3,6.6c0,4.1,3.2,7.2,7,7.2h14.6c3.9,0,7-3.2,7-7v-14c0-2.4,2-4.4,4.4-4.4c2.4,0,4.4,2,4.4,4.4v14
						C281.1,306,274,313.2,265.2,313.2z"/>
				</g>
			</g>
			<g>
				<g>
					<path class="st2" d="M281.6,235.3H124.1c-6.7,0-12.2-5.5-12.2-12.2V145c0-6.7,5.5-12.2,12.2-12.2h157.6
						c6.7,0,12.2,5.5,12.2,12.2v78.1C293.8,229.8,288.4,235.3,281.6,235.3z M124.1,141.6c-1.9,0-3.4,1.5-3.4,3.4v78.1
						c0,1.9,1.5,3.4,3.4,3.4h157.6c1.8,0,3.4-1.6,3.4-3.4V145c0-1.9-1.5-3.4-3.4-3.4H124.1z"/>
				</g>
			</g>
		</g>
	</g>
</g>
<g id="Calque_2">
</g>
</svg>
