<?xml version="1.0" encoding="utf-8"?>
<!-- Generator: Adobe Illustrator 19.2.1, SVG Export Plug-In . SVG Version: 6.00 Build 0)  -->
<svg version="1.1" xmlns="http://www.w3.org/2000/svg" xmlns:xlink="http://www.w3.org/1999/xlink" x="0px" y="0px"
	 viewBox="0 0 405 500" style="enable-background:new 0 0 405 500;" xml:space="preserve">
<style type="text/css">
	.st0{fill:#FFFFFF;}
	.st1{fill:#56DC4C;}
	.st2{fill:#6D6E72;}
	.st3{fill:none;stroke:#6D6E72;stroke-width:1.1339;stroke-linecap:round;stroke-linejoin:round;stroke-miterlimit:10;}
	.st4{fill:#575D60;}
</style>
<g id="Calque_1">
	<g>
		<g>
			<path class="st0" d="M204.9,6.8c-0.8,0-1.6,0-2.4,0c-0.8,0-1.6,0-2.4,0C93,6.8,6.8,93.9,6.8,201.2c0,0.4,0,0.7,0,1.1
				c0.3,47,21,91.6,52,126.8l143.7,160.7l143.7-160.7c31.1-35.2,51.8-79.8,52-126.8c0-0.4,0-0.7,0-1.1C398.2,93.9,312,6.8,204.9,6.8
				z"/>
			<path class="st1" d="M202.5,500L53.8,333.7C19.3,294.7,0.3,248.1,0,202.4l0-1.1C0,90.3,89.8,0,200.1,0l2.5,0l2.4,0
				C315.2,0,405,90.3,405,201.2l0,1.2c-0.3,45.6-19.3,92.3-53.7,131.2L202.5,500z M13.5,202.3c0.2,42.4,18.1,85.8,50.3,122.3
				l138.6,155l138.6-155c32.2-36.5,50.1-79.9,50.3-122.3l0-1.1c0-103.5-83.7-187.7-186.5-187.7l-2.3,0l-2.5,0
				C97.2,13.6,13.5,97.8,13.5,201.2L13.5,202.3z"/>
		</g>
		<g>
			<g>
				<g>
					<path class="st1" d="M163.1,278.5H152c-0.3,0-0.6-0.3-0.6-0.6v-47.7c0-0.3,0.3-0.6,0.6-0.6h11.1c0.3,0,0.6,0.3,0.6,0.6v47.7
						C163.7,278.2,163.4,278.5,163.1,278.5z"/>
				</g>
			</g>
			<g>
				<g>
					<path class="st1" d="M192.6,278.5h-11.1c-0.3,0-0.6-0.3-0.6-0.6v-47.7c0-0.3,0.3-0.6,0.6-0.6h11.1c0.3,0,0.6,0.3,0.6,0.6v47.7
						C193.3,278.2,193,278.5,192.6,278.5z"/>
				</g>
			</g>
			<g>
				<g>
					<path class="st1" d="M222.5,278.5h-11.1c-0.3,0-0.6-0.3-0.6-0.6v-47.7c0-0.3,0.3-0.6,0.6-0.6h11.1c0.3,0,0.6,0.3,0.6,0.6v47.7
						C223.1,278.2,222.8,278.5,222.5,278.5z"/>
				</g>
			</g>
			<g>
				<g>
					<path class="st1" d="M252.8,278.5h-11.1c-0.3,0-0.6-0.3-0.6-0.6v-47.7c0-0.3,0.3-0.6,0.6-0.6h11.1c0.3,0,0.6,0.3,0.6,0.6v47.7
						C253.5,278.2,253.2,278.5,252.8,278.5z"/>
				</g>
			</g>
			<g>
				<g>
					<path class="st1" d="M204.3,81.8c0.8,0,13.9,3,13.9,3l7.1,6.2l8.2,2.6l-1.4,17.4l-10.2-3.3l-10.2-4.8l-8.7-1.3L204.3,81.8z"/>
				</g>
			</g>
			<g>
				<g>
					<path class="st2" d="M233.5,114.4c0,0-0.1,0-0.1,0c-9.8-0.3-12.6-1.9-18-5.5l-1.9-1.3c-5.1-3.3-10-2.7-10.1-2.7
						c-1,0.1-2-0.2-2.7-0.8c-0.8-0.7-1.2-1.6-1.2-2.6V81.9c0-1.7,1.2-3.1,2.8-3.4c0.3-0.1,7.8-1.4,15.2,3.4c1.5,1,2.8,1.9,3.9,2.8
						c3.4,2.6,5.3,4,12.3,4.2c1.9,0.1,3.3,1.6,3.3,3.5v18.6c0,0.9-0.4,1.8-1,2.5C235.2,114,234.4,114.4,233.5,114.4z M206.3,98.1
						c2.8,0.3,6.8,1.1,10.8,3.7l2,1.3c3.7,2.5,5.5,3.7,10.9,4.1V95.5c-6.7-0.7-9.6-2.9-12.8-5.4c-1-0.8-2.1-1.6-3.5-2.5
						c-2.7-1.7-5.4-2.3-7.4-2.4V98.1z"/>
				</g>
			</g>
			<g>
				<g>
					<path class="st2" d="M157.2,230c2.1,0,4,2.4,4,5.1l-0.2,39.9h-7.7v-39.8C153.3,232.4,155.1,230,157.2,230 M157.2,223.1
						c-6,0-10.8,5.4-10.8,12.1V282h21.4l0.3-46.8C168.1,228.5,163.2,223.1,157.2,223.1L157.2,223.1z"/>
				</g>
			</g>
			<g>
				<g>
					<path class="st2" d="M187.1,230c2.1,0,4,2.4,4,5.1l-0.2,39.9h-7.7v-39.8C183.1,232.4,184.9,230,187.1,230 M187.1,223.1
						c-6,0-10.8,5.4-10.8,12.1V282h21.4l0.3-46.8C197.9,228.5,193.1,223.1,187.1,223.1L187.1,223.1z"/>
				</g>
			</g>
			<g>
				<g>
					<path class="st2" d="M216.9,230c2.1,0,4,2.4,4,5.1l-0.2,39.9H213v-39.8C213,232.4,214.8,230,216.9,230 M216.9,223.1
						c-6,0-10.8,5.4-10.8,12.1V282h21.4l0.3-46.8C227.8,228.5,222.9,223.1,216.9,223.1L216.9,223.1z"/>
				</g>
			</g>
			<g>
				<g>
					<path class="st2" d="M247.3,230c2.1,0,4,2.4,4,5.1l-0.2,39.9h-7.7v-39.8C243.3,232.4,245.1,230,247.3,230 M247.3,223.1
						c-6,0-10.8,5.4-10.8,12.1V282h21.4l0.3-46.8C258.1,228.5,253.3,223.1,247.3,223.1L247.3,223.1z"/>
				</g>
			</g>
			<g>
				<g>
					<path class="st2" d="M271.8,189.4H133.2c-1.9,0-3.4-1.5-3.4-3.5s1.5-3.5,3.4-3.5h138.7c1.9,0,3.4,1.5,3.4,3.5
						S273.7,189.4,271.8,189.4z"/>
				</g>
			</g>
			<g>
				<g>
					<path class="st2" d="M275.7,295.7H129.3c-1.9,0-3.4-1.5-3.4-3.5c0-1.9,1.5-3.5,3.4-3.5h146.4c1.9,0,3.4,1.5,3.4,3.5
						C279.2,294.2,277.6,295.7,275.7,295.7z"/>
				</g>
			</g>
			<g>
				<g>
					<path class="st2" d="M281.1,309.5H123.9c-1.9,0-3.4-1.5-3.4-3.5c0-1.9,1.5-3.5,3.4-3.5h157.1c1.9,0,3.4,1.5,3.4,3.5
						C284.5,307.9,283,309.5,281.1,309.5z"/>
				</g>
			</g>
			<g>
				<g>
					<path class="st2" d="M270.9,281.9H133.3c-1.9,0-3.4-1.5-3.4-3.5v-81c0-1.9,1.5-3.5,3.4-3.5h138.3c0.9,0,1.8,0.4,2.4,1
						s1,1.5,1,2.5l-0.7,81C274.3,280.4,272.8,281.9,270.9,281.9z M136.8,275h130.7l0.7-74.1H136.8V275z"/>
				</g>
			</g>
			<g>
				<g>
					<path class="st2" d="M274.5,177.9H130.5c-1.9,0-3.4-1.5-3.4-3.5v-12.2c0-1.9,1.5-3.5,3.4-3.5h11.7l58.1-49.1
						c1.3-1.1,3.1-1.1,4.4,0l58.1,48.5h11.7c1.9,0,3.4,1.5,3.4,3.5v12.8C277.9,176.3,276.4,177.9,274.5,177.9z M134,171h137v-5.9
						h-9.5c-0.8,0-1.6-0.3-2.2-0.8l-56.8-47.4l-56.8,48c-0.6,0.5-1.4,0.8-2.2,0.8H134V171z"/>
				</g>
			</g>
			<g>
				<g>
					<path class="st2" d="M202.5,115.8c-1.9,0-3.4-1.5-3.4-3.5V77.1c0-1.9,1.5-3.5,3.4-3.5s3.4,1.5,3.4,3.5v35.3
						C205.9,114.3,204.4,115.8,202.5,115.8z"/>
				</g>
			</g>
		</g>
	</g>
</g>
<g id="Calque_2">
</g>
</svg>
