<?xml version="1.0" encoding="UTF-8" standalone="no"?>
<!-- Generator: Adobe Illustrator 19.2.1, SVG Export Plug-In . SVG Version: 6.00 Build 0)  -->

<svg
   xmlns:dc="http://purl.org/dc/elements/1.1/"
   xmlns:cc="http://creativecommons.org/ns#"
   xmlns:rdf="http://www.w3.org/1999/02/22-rdf-syntax-ns#"
   xmlns:svg="http://www.w3.org/2000/svg"
   xmlns="http://www.w3.org/2000/svg"
   xmlns:sodipodi="http://sodipodi.sourceforge.net/DTD/sodipodi-0.dtd"
   xmlns:inkscape="http://www.inkscape.org/namespaces/inkscape"
   version="1.1"
   x="0px"
   y="0px"
   viewBox="0 0 405 500"
   style="enable-background:new 0 0 405 500;"
   xml:space="preserve"
   id="svg2"
   inkscape:version="0.48.5 r10040"
   width="100%"
   height="100%"
   sodipodi:docname="Icones_Hikster_105.svg"><metadata
     id="metadata40"><rdf:RDF><cc:Work
         rdf:about=""><dc:format>image/svg+xml</dc:format><dc:type
           rdf:resource="http://purl.org/dc/dcmitype/StillImage" /><dc:title></dc:title></cc:Work></rdf:RDF></metadata><defs
     id="defs38" /><sodipodi:namedview
     pagecolor="#ffffff"
     bordercolor="#666666"
     borderopacity="1"
     objecttolerance="10"
     gridtolerance="10"
     guidetolerance="10"
     inkscape:pageopacity="0"
     inkscape:pageshadow="2"
     inkscape:window-width="1920"
     inkscape:window-height="1057"
     id="namedview36"
     showgrid="false"
     inkscape:zoom="1.3350176"
     inkscape:cx="-5.6093164"
     inkscape:cy="246.10481"
     inkscape:window-x="3280"
     inkscape:window-y="0"
     inkscape:window-maximized="1"
     inkscape:current-layer="svg2" /><style
     type="text/css"
     id="style4">
	.st0{fill:#FFFFFF;}
	.st1{fill:#56DC4C;}
	.st2{fill:#6D6E72;}
	.st3{fill:none;stroke:#6D6E72;stroke-width:1.1339;stroke-linecap:round;stroke-linejoin:round;stroke-miterlimit:10;}
	.st4{fill:#575D60;}
</style><g
     id="g3843"><g
       id="g9"><path
         style="fill:#ffffff"
         inkscape:connector-curvature="0"
         id="path11"
         d="m 204.9,6.8 c -0.8,0 -1.6,0 -2.4,0 -0.8,0 -1.6,0 -2.4,0 C 93,6.8 6.8,93.8 6.8,201.2 c 0,0.4 0,0.7 0,1.1 0.3,47 21,91.6 52,126.8 L 202.5,489.8 346.2,329.1 c 31.1,-35.2 51.8,-79.8 52,-126.8 0,-0.4 0,-0.7 0,-1.1 C 398.2,93.8 312,6.8 204.9,6.8 z"
         class="st0" /><path
         style="fill:#56dc4c"
         inkscape:connector-curvature="0"
         id="path13"
         d="M 202.5,500 53.8,333.7 C 19.3,294.7 0.3,248.1 0,202.4 v -1.1 C 0,90.3 89.8,0 200.1,0 l 2.5,0 2.4,0 c 110.2,0 200,90.3 200,201.2 l 0,1.3 c -0.2,45.5 -19.3,92.2 -53.7,131.1 L 202.5,500 z M 200.1,13.6 C 97.2,13.6 13.6,97.8 13.6,201.2 v 1.1 c 0.2,42.4 18.1,85.8 50.3,122.3 l 138.6,155 138.6,-155 c 32.2,-36.5 50.1,-79.9 50.3,-122.3 l 0,-1.1 C 391.4,97.7 307.7,13.5 204.9,13.5 l -2.4,0 -2.4,0.1 z"
         class="st1" /></g><g
       transform="matrix(1.1910225,0,0,1.1910225,-34.215955,-8.1310399)"
       id="g3072"><g
         id="g27"><ellipse
           d="m 210.1,169.10001 c 0,7.1797 -5.77553,13 -12.9,13 -7.12448,0 -12.9,-5.8203 -12.9,-13 0,-7.17971 5.77552,-13 12.9,-13 7.12447,0 12.9,5.82029 12.9,13 z"
           style="fill:#56dc4c"
           sodipodi:ry="13"
           sodipodi:rx="12.9"
           sodipodi:cy="169.10001"
           sodipodi:cx="197.2"
           id="ellipse29"
           ry="13"
           rx="12.9"
           cy="169.10001"
           cx="197.2"
           class="st1" /></g><g
         id="g31"><path
           style="fill:#6d6e72"
           inkscape:connector-curvature="0"
           id="path33"
           d="m 268.6,126.3 c -4.3,0 -8.4,0.8 -12.3,2 L 242,94.6 h 11.5 0.1 c 1.6,0 2.4,0.9 2.4,2.7 0.1,2.4 2.2,4.3 4.5,4.2 2.4,-0.1 4.3,-2.1 4.2,-4.5 -0.2,-8.4 -6.2,-11.2 -11.3,-11.2 h -17.9 c -1.5,0 -2.8,0.7 -3.6,1.9 -0.8,1.2 -0.9,2.8 -0.4,4.1 l 5.7,13.5 h -62.4 l -5.1,-10.8 h 9.7 c 2.4,0 4.3,-2 4.3,-4.4 0,-2.4 -1.9,-4.4 -4.3,-4.4 h -32.8 c -2.4,0 -4.3,1.9 -4.3,4.4 0,2.5 1.9,4.4 4.3,4.4 H 160 l 7.2,15.2 -16.6,22.6 c -6.4,-3.8 -13.7,-6.1 -21.6,-6.1 -23.5,0 -42.6,19.2 -42.6,42.8 0,23.6 19.1,42.8 42.6,42.8 22,0 40,-16.9 42.2,-38.4 h 7.8 c 2,8.8 9.8,15.4 19.2,15.4 10.9,0 19.7,-8.9 19.7,-19.8 0,-4.2 -1.3,-8.1 -3.6,-11.3 l 28.2,-39.5 5.7,13.4 c -13.2,7.3 -22.3,21.2 -22.3,37.4 0,23.6 19.1,42.8 42.6,42.8 23.5,0 42.6,-19.2 42.6,-42.8 0.1,-23.5 -19,-42.7 -42.5,-42.7 z M 129,203.1 c -18.7,0 -33.9,-15.3 -33.9,-34 0,-18.7 15.2,-34 33.9,-34 6,0 11.5,1.7 16.4,4.4 l -12.5,17 c -0.3,-0.1 -0.6,-0.2 -0.9,-0.3 -3.4,-0.8 -7,-0.2 -10,1.6 -3,1.9 -5.1,4.8 -5.9,8.3 -0.8,3.5 -0.2,7 1.6,10.1 1.9,3 4.8,5.1 8.3,6 1,0.2 2,0.4 3,0.4 5.5,0 10.5,-3.6 12.4,-9 h 21.1 c -2.2,16.6 -16.3,29.5 -33.5,29.5 z m 4.4,-34 c 0,2.5 -2.1,4.6 -4.6,4.6 -2.5,0 -4.6,-2.1 -4.6,-4.6 0,-2.5 2.1,-4.6 4.6,-4.6 2.5,0 4.6,2.1 4.6,4.6 z m 8.1,-4.4 c -0.3,-0.9 -0.7,-1.8 -1.2,-2.7 -0.1,-0.2 -0.3,-0.3 -0.4,-0.5 l 12.5,-17 c 5.4,5.2 9,12.3 10.1,20.2 h -21 z m 37.5,0 h -7.8 c -1.1,-10.7 -6.1,-20.2 -13.6,-27.1 l 13.9,-18.8 16,33.8 c -4.3,2.7 -7.3,7.1 -8.5,12.1 z m 19.2,14.9 c -5.8,0 -10.5,-4.7 -10.5,-10.5 0,-5.8 4.7,-10.5 10.5,-10.5 5.8,0 10.5,4.7 10.5,10.5 0,5.8 -4.7,10.5 -10.5,10.5 z m 9.7,-27.6 c -2.9,-1.6 -6.1,-2.6 -9.7,-2.6 -0.9,0 -1.7,0.1 -2.5,0.3 l -16.8,-35.5 h 56 l -27,37.8 z m 60.7,51.1 c -18.7,0 -33.9,-15.3 -33.9,-34 0,-12.6 6.9,-23.4 17,-29.3 l 8.1,19.2 c -2.1,1.8 -3.7,4.2 -4.4,7.1 -0.8,3.5 -0.2,7 1.6,10.1 1.9,3 4.8,5.1 8.3,5.9 1,0.2 2,0.4 3.1,0.4 2.4,0 4.8,-0.7 7,-2 3,-1.9 5.1,-4.8 5.9,-8.3 0.8,-3.5 0.2,-7 -1.6,-10 -1.9,-3 -4.8,-5.1 -8.3,-6 -1.2,-0.3 -2.3,-0.3 -3.5,-0.3 l -8.2,-19.4 c 2.8,-0.8 5.8,-1.3 8.9,-1.3 18.7,0 33.9,15.3 33.9,34 0,18.7 -15.2,33.9 -33.9,33.9 z m -4.9,-34 c 0,-2.5 2.1,-4.6 4.6,-4.6 2.5,0 4.6,2.1 4.6,4.6 0,2.5 -2.1,4.6 -4.6,4.6 -2.5,0 -4.6,-2.1 -4.6,-4.6 z"
           class="st2" /></g></g><g
       id="Calque_2" /><path
       transform="translate(-20.224452,-17.228237)"
       d="m 181.27102,211.23976 a 41.572487,41.572487 0 1 1 -83.144975,0 41.572487,41.572487 0 1 1 83.144975,0 z"
       sodipodi:ry="41.572487"
       sodipodi:rx="41.572487"
       sodipodi:cy="211.23976"
       sodipodi:cx="139.69853"
       id="path3053"
       style="fill:none;fill-opacity:1;stroke:#6e6e6e;stroke-opacity:1;stroke-width:21;stroke-miterlimit:4;stroke-dasharray:none"
       sodipodi:type="arc" /><path
       transform="translate(144.94191,-17.602764)"
       d="m 181.27102,211.23976 a 41.572487,41.572487 0 1 1 -83.144975,0 41.572487,41.572487 0 1 1 83.144975,0 z"
       sodipodi:ry="41.572487"
       sodipodi:rx="41.572487"
       sodipodi:cy="211.23976"
       sodipodi:cx="139.69853"
       id="path3053-3"
       style="fill:none;stroke:#6e6e6e;stroke-width:21;stroke-miterlimit:4;stroke-opacity:1;stroke-dasharray:none"
       sodipodi:type="arc" /></g></svg>