<?xml version="1.0" encoding="utf-8"?>
<!-- Generator: Adobe Illustrator 19.2.1, SVG Export Plug-In . SVG Version: 6.00 Build 0)  -->
<svg version="1.1" xmlns="http://www.w3.org/2000/svg" xmlns:xlink="http://www.w3.org/1999/xlink" x="0px" y="0px"
	 viewBox="0 0 405 500" style="enable-background:new 0 0 405 500;" xml:space="preserve">
<style type="text/css">
	.st0{fill:#FFFFFF;}
	.st1{fill:#56DC4C;}
	.st2{fill:#6D6E72;}
	.st3{fill:none;stroke:#6D6E72;stroke-width:1.1339;stroke-linecap:round;stroke-linejoin:round;stroke-miterlimit:10;}
	.st4{fill:#575D60;}
</style>
<g id="Calque_1">
	<g>
		<g>
			<path class="st0" d="M204.9,6.8c-0.8,0-1.6,0-2.4,0c-0.8,0-1.6,0-2.4,0C93,6.8,6.8,93.8,6.8,201.2c0,0.4,0,0.7,0,1.1
				c0.3,47,21,91.6,52,126.8l143.7,160.7l143.7-160.7c31.1-35.2,51.8-79.8,52-126.8c0-0.4,0-0.7,0-1.1C398.2,93.8,312,6.8,204.9,6.8
				z"/>
			<path class="st1" d="M202.5,500L53.8,333.7C19.3,294.7,0.3,248.1,0,202.4v-1.1C0,90.3,89.8,0,200.1,0l2.5,0l2.4,0
				C315.2,0,405,90.3,405,201.2l0,1.1c-0.3,45.7-19.3,92.3-53.7,131.3L202.5,500z M200.1,13.6C97.2,13.6,13.6,97.8,13.6,201.2v1.1
				c0.2,42.4,18.1,85.8,50.3,122.3l138.6,155l138.6-155c32.2-36.5,50.1-79.9,50.3-122.3l0-1.1c0-103.5-83.7-187.7-186.5-187.7
				l-2.4,0L200.1,13.6z"/>
		</g>
		<g>
			<g>
				<g>
					<path class="st1" d="M167.7,311.6h-27.2c-0.8,0-1.5-0.7-1.5-1.5V193.1c0-0.8,0.7-1.5,1.5-1.5h27.2c0.8,0,1.5,0.7,1.5,1.5v117.1
						C169.2,311,168.5,311.6,167.7,311.6z"/>
				</g>
			</g>
			<g>
				<g>
					<polygon class="st1" points="244.4,226.5 271.3,226.5 274.5,297 263.2,311.1 248.7,307.2 					"/>
				</g>
			</g>
			<g>
				<g>
					<path class="st2" d="M154.1,192.4c-16.2,0-29.3-13.2-29.3-29.4c0-3.1,2.5-5.6,5.6-5.6h47.5c3.1,0,5.6,2.5,5.6,5.6
						C183.5,179.2,170.3,192.4,154.1,192.4z M136.8,168.6c2.4,7.3,9.2,12.7,17.3,12.7c8.1,0,15-5.3,17.3-12.7H136.8z"/>
				</g>
			</g>
			<g>
				<g>
					<path class="st2" d="M130.4,168.6c-3.1,0-5.6-2.5-5.6-5.6v-62.5c0-3.1,2.5-5.6,5.6-5.6c3.1,0,5.6,2.5,5.6,5.6V163
						C135.9,166.1,133.4,168.6,130.4,168.6z"/>
				</g>
			</g>
			<g>
				<g>
					<path class="st2" d="M146.1,168.6c-3.1,0-5.6-2.5-5.6-5.6v-62.5c0-3.1,2.5-5.6,5.6-5.6c3.1,0,5.6,2.5,5.6,5.6V163
						C151.7,166.1,149.2,168.6,146.1,168.6z"/>
				</g>
			</g>
			<g>
				<g>
					<path class="st2" d="M162,168.6c-3.1,0-5.6-2.5-5.6-5.6v-62.5c0-3.1,2.5-5.6,5.6-5.6c3.1,0,5.6,2.5,5.6,5.6V163
						C167.6,166.1,165.1,168.6,162,168.6z"/>
				</g>
			</g>
			<g>
				<g>
					<path class="st2" d="M177.9,168.6c-3.1,0-5.6-2.5-5.6-5.6v-62.5c0-3.1,2.5-5.6,5.6-5.6c3.1,0,5.6,2.5,5.6,5.6V163
						C183.5,166.1,181,168.6,177.9,168.6z"/>
				</g>
			</g>
			<g>
				<g>
					<path class="st2" d="M154.8,317.5h-1.3c-11,0-20-9-20-20V204c0-11,9-20,20-20h1.3c11,0,20,9,20,20v93.5
						C174.8,308.5,165.8,317.5,154.8,317.5z M153.5,195.1c-4.9,0-8.8,4-8.8,8.9v93.5c0,4.9,4,8.9,8.8,8.9h1.3c4.9,0,8.8-4,8.8-8.9
						V204c0-4.9-4-8.9-8.8-8.9H153.5z"/>
				</g>
			</g>
			<g>
				<g>
					<path class="st2" d="M259.4,317.2c-11.4,0-20.6-9.1-20.6-20.2v-70.4c0-3.1,2.5-5.6,5.6-5.6h30.1c3.1,0,5.6,2.5,5.6,5.6V297
						C280,308.1,270.8,317.2,259.4,317.2z M249.9,232.1V297c0,5,4.2,9.1,9.5,9.1c5.2,0,9.5-4.1,9.5-9.1v-64.8H249.9z"/>
				</g>
			</g>
			<g>
				<g>
					<path class="st2" d="M267.3,231.7c-0.6,0-1.2-0.1-1.7-0.3c-2.9-1-4.5-4.1-3.6-7c9.2-28.3,12.5-48.9,11.7-73.4
						c-0.9-27.7-12.5-41.8-12.6-42c-3-3.9-8.6-1.4-8.6,2.7v114.1c0,3.1-2.5,5.6-5.6,5.6c-3.1,0-5.6-2.5-5.6-5.6V111.6
						c0-8.8,7.1-15.9,15.9-15.9c5,0,9.6,2.3,12.6,6.2c0.4,0.4,14.1,16.7,15.1,48.6c0.8,25.9-2.6,47.6-12.3,77.3
						C271.9,230.2,269.7,231.7,267.3,231.7z"/>
				</g>
			</g>
		</g>
	</g>
</g>
<g id="Calque_2">
</g>
</svg>
