<?xml version="1.0" encoding="utf-8"?>
<!-- Generator: Adobe Illustrator 19.2.1, SVG Export Plug-In . SVG Version: 6.00 Build 0)  -->
<svg version="1.1" xmlns="http://www.w3.org/2000/svg" xmlns:xlink="http://www.w3.org/1999/xlink" x="0px" y="0px"
	 viewBox="0 0 405 500" style="enable-background:new 0 0 405 500;" xml:space="preserve">
<style type="text/css">
	.st0{fill:#FFFFFF;}
	.st1{fill:#56DC4C;}
	.st2{fill:#6D6E72;}
	.st3{fill:none;stroke:#6D6E72;stroke-width:1.1339;stroke-linecap:round;stroke-linejoin:round;stroke-miterlimit:10;}
	.st4{fill:#575D60;}
</style>
<g id="Calque_1">
	<g>
		<g>
			<path class="st0" d="M204.9,6.8c-0.8,0-1.6,0-2.4,0c-0.8,0-1.6,0-2.4,0C93,6.8,6.8,93.9,6.8,201.2c0,0.4,0,0.7,0,1.1
				c0.3,47,21,91.6,52,126.8l143.7,160.7l143.7-160.7c31.1-35.2,51.8-79.8,52-126.8c0-0.4,0-0.7,0-1.1C398.2,93.8,312,6.8,204.9,6.8
				z"/>
			<path class="st1" d="M202.5,500L53.8,333.7C19.3,294.7,0.3,248.1,0,202.4l0-1.1C0,90.3,89.8,0,200.1,0l2.5,0l2.4,0
				C315.2,0,405,90.3,405,201.2l0,1.1c-0.3,45.7-19.3,92.3-53.7,131.3L202.5,500z M200.1,13.6C97.2,13.6,13.5,97.8,13.5,201.2l0,1
				c0.2,42.4,18.1,85.9,50.3,122.4l138.6,155l138.6-155c32.2-36.5,50.1-79.9,50.3-122.3l0-1.1c0-103.5-83.7-187.7-186.5-187.7
				l-2.3,0L200.1,13.6z"/>
		</g>
		<g>
			<g>
				<g>
					<ellipse class="st1" cx="151.5" cy="273.2" rx="15.4" ry="15.4"/>
				</g>
			</g>
			<g>
				<g>
					<ellipse class="st1" cx="283.9" cy="273.2" rx="15.4" ry="15.4"/>
				</g>
			</g>
			<g>
				<g>
					<g>
						<path class="st2" d="M179.5,263.4c-2.4,0-4.7-1.6-5.5-4l-42.3-128.8h-25.9c-3.2,0-5.8-2.6-5.8-5.8s2.6-5.8,5.8-5.8h30.1
							c2.5,0,4.7,1.6,5.5,4L185,255.7c1,3.1-0.6,6.4-3.7,7.4C180.7,263.3,180.1,263.4,179.5,263.4z"/>
					</g>
				</g>
				<g>
					<g>
						<path class="st2" d="M270.5,229.1H168.6c-3.2,0-5.8-2.6-5.8-5.8c0-3.2,2.6-5.8,5.8-5.8h98l23.9-59.3H145.2
							c-3.2,0-5.8-2.6-5.8-5.8c0-3.2,2.6-5.8,5.8-5.8h153.9c1.9,0,3.7,1,4.8,2.6c1.1,1.6,1.3,3.7,0.6,5.5l-28.6,71
							C275,227.6,272.9,229.1,270.5,229.1z"/>
					</g>
				</g>
				<g>
					<g>
						<path class="st2" d="M283.9,294.6c-11.7,0-21.2-9.6-21.2-21.5s9.5-21.5,21.2-21.5c11.7,0,21.2,9.6,21.2,21.5
							S295.6,294.6,283.9,294.6z M283.9,263.4c-5.3,0-9.6,4.4-9.6,9.8s4.3,9.8,9.6,9.8c5.3,0,9.6-4.4,9.6-9.8
							S289.2,263.4,283.9,263.4z"/>
					</g>
				</g>
				<g>
					<g>
						<path class="st2" d="M151.5,294.6c-11.7,0-21.2-9.6-21.2-21.5s9.5-21.5,21.2-21.5s21.2,9.6,21.2,21.5S163.2,294.6,151.5,294.6
							z M151.5,263.4c-5.3,0-9.6,4.4-9.6,9.8s4.3,9.8,9.6,9.8s9.6-4.4,9.6-9.8S156.8,263.4,151.5,263.4z"/>
					</g>
				</g>
				<g>
					<g>
						<path class="st2" d="M283.9,263.4h-131c-3.2,0-5.8-2.6-5.8-5.8c0-3.2,2.6-5.8,5.8-5.8h131c3.2,0,5.8,2.6,5.8,5.8
							C289.7,260.7,287.1,263.4,283.9,263.4z"/>
					</g>
				</g>
			</g>
		</g>
	</g>
</g>
<g id="Calque_2">
</g>
</svg>
