<?xml version="1.0" encoding="utf-8"?>
<!-- Generator: Adobe Illustrator 19.2.1, SVG Export Plug-In . SVG Version: 6.00 Build 0)  -->
<svg version="1.1" xmlns="http://www.w3.org/2000/svg" xmlns:xlink="http://www.w3.org/1999/xlink" x="0px" y="0px"
	 viewBox="0 0 405 500" style="enable-background:new 0 0 405 500;" xml:space="preserve">
<style type="text/css">
	.st0{fill:#FFFFFF;}
	.st1{fill:#56DC4C;}
	.st2{fill:#6D6E72;}
	.st3{fill:none;stroke:#6D6E72;stroke-width:1.1339;stroke-linecap:round;stroke-linejoin:round;stroke-miterlimit:10;}
	.st4{fill:#575D60;}
</style>
<g id="Calque_1">
	<g>
		<g>
			<path class="st0" d="M204.9,6.8c-0.8,0-1.6,0-2.4,0c-0.8,0-1.6,0-2.4,0C93,6.8,6.8,93.9,6.8,201.2c0,0.4,0,0.7,0,1.1
				c0.3,47,21,91.6,52,126.8l143.7,160.7l143.7-160.7c31.1-35.2,51.8-79.8,52-126.8c0-0.4,0-0.7,0-1.1C398.2,93.8,312,6.8,204.9,6.8
				z"/>
			<path class="st1" d="M202.5,500L53.8,333.7C19.3,294.7,0.3,248.1,0,202.4v-1.1C0,90.3,89.8,0,200.1,0l2.5,0l2.3,0
				C315.2,0,405,90.3,405,201.2l0,1.2c-0.2,45.6-19.3,92.2-53.7,131.2L202.5,500z M200.1,13.6C97.2,13.6,13.5,97.8,13.5,201.2v1.1
				c0.2,42.3,18.1,85.8,50.3,122.3l138.6,155l138.6-155c32.2-36.5,50.1-79.9,50.3-122.3l0-1.1c0-103.5-83.7-187.7-186.5-187.7
				l-2.3,0L200.1,13.6z"/>
		</g>
		<g>
			<g>
				<g>
					<path class="st2" d="M203.4,99.1c-3.1,0-5.6-2.5-5.6-5.7v-17c0-3.1,2.5-5.7,5.6-5.7c3.1,0,5.6,2.5,5.6,5.7v17
						C209.1,96.6,206.6,99.1,203.4,99.1z"/>
				</g>
			</g>
			<g>
				<g>
					<ellipse class="st1" cx="203.4" cy="177.2" rx="6.3" ry="6.3"/>
				</g>
			</g>
			<g>
				<g>
					<ellipse class="st1" cx="203.4" cy="198.2" rx="6.3" ry="6.3"/>
				</g>
			</g>
			<g>
				<g>
					<ellipse class="st1" cx="203.4" cy="219.2" rx="6.3" ry="6.3"/>
				</g>
			</g>
			<g>
				<g>
					<ellipse class="st1" cx="203.4" cy="240.3" rx="6.3" ry="6.3"/>
				</g>
			</g>
			<g>
				<g>
					<ellipse class="st1" cx="203.4" cy="261.3" rx="6.3" ry="6.3"/>
				</g>
			</g>
			<g>
				<g>
					<ellipse class="st1" cx="203.4" cy="282.3" rx="6.3" ry="6.3"/>
				</g>
			</g>
			<g>
				<g>
					<ellipse class="st1" cx="203.4" cy="303.3" rx="6.3" ry="6.3"/>
				</g>
			</g>
			<g>
				<g>
					<ellipse class="st1" cx="203.4" cy="324.3" rx="6.3" ry="6.3"/>
				</g>
			</g>
			<g>
				<g>
					
						<ellipse transform="matrix(0.1119 -0.9937 0.9937 0.1119 -18.3944 333.87)" class="st1" cx="177.6" cy="177.2" rx="6.3" ry="6.3"/>
				</g>
			</g>
			<g>
				<g>
					
						<ellipse transform="matrix(0.1119 -0.9937 0.9937 0.1119 -41.2279 350.0979)" class="st1" cx="175.2" cy="198.1" rx="6.3" ry="6.3"/>
				</g>
			</g>
			<g>
				<g>
					
						<ellipse transform="matrix(0.1119 -0.9937 0.9937 0.1119 -64.0613 366.3258)" class="st1" cx="172.9" cy="219" rx="6.3" ry="6.3"/>
				</g>
			</g>
			<g>
				<g>
					
						<ellipse transform="matrix(0.1119 -0.9937 0.9937 0.1119 -86.8948 382.5537)" class="st1" cx="170.6" cy="239.9" rx="6.3" ry="6.3"/>
				</g>
			</g>
			<g>
				<g>
					
						<ellipse transform="matrix(0.1119 -0.9937 0.9937 0.1119 -109.7283 398.7816)" class="st1" cx="168.2" cy="260.8" rx="6.3" ry="6.3"/>
				</g>
			</g>
			<g>
				<g>
					
						<ellipse transform="matrix(0.1119 -0.9937 0.9937 0.1119 -132.5618 415.0095)" class="st1" cx="165.9" cy="281.7" rx="6.3" ry="6.3"/>
				</g>
			</g>
			<g>
				<g>
					
						<ellipse transform="matrix(0.1119 -0.9937 0.9937 0.1119 -155.3952 431.2374)" class="st1" cx="163.6" cy="302.6" rx="6.3" ry="6.3"/>
				</g>
			</g>
			<g>
				<g>
					<path class="st1" d="M157.6,178.5c-0.9,3.4-4.3,5.4-7.7,4.5c-3.3-0.9-5.3-4.4-4.4-7.7s4.3-5.4,7.7-4.5
						C156.5,171.7,158.5,175.2,157.6,178.5z"/>
				</g>
			</g>
			<g>
				<g>
					<path class="st1" d="M152.1,198.8c-0.9,3.4-4.3,5.4-7.7,4.5c-3.3-0.9-5.3-4.4-4.4-7.7s4.3-5.4,7.7-4.5
						C151.1,192,153,195.5,152.1,198.8z"/>
				</g>
			</g>
			<g>
				<g>
					<path class="st1" d="M146.7,219.1c-0.9,3.4-4.3,5.4-7.7,4.5c-3.3-0.9-5.3-4.4-4.4-7.7c0.9-3.4,4.3-5.4,7.7-4.5
						C145.6,212.3,147.6,215.8,146.7,219.1z"/>
				</g>
			</g>
			<g>
				<g>
					<path class="st1" d="M141.3,239.4c-0.9,3.4-4.3,5.4-7.7,4.5c-3.3-0.9-5.3-4.4-4.4-7.7s4.3-5.4,7.7-4.5
						C140.2,232.6,142.2,236.1,141.3,239.4z"/>
				</g>
			</g>
			<g>
				<g>
					<path class="st1" d="M135.9,259.7c-0.9,3.4-4.3,5.4-7.7,4.5c-3.3-0.9-5.3-4.4-4.4-7.7c0.9-3.4,4.3-5.4,7.7-4.5
						C134.8,252.9,136.8,256.4,135.9,259.7z"/>
				</g>
			</g>
			<g>
				<g>
					<path class="st1" d="M130.5,280.1c-0.9,3.4-4.3,5.4-7.7,4.5s-5.3-4.4-4.4-7.7c0.9-3.4,4.3-5.4,7.7-4.5S131.4,276.7,130.5,280.1
						z"/>
				</g>
			</g>
			<g>
				<g>
					<path class="st1" d="M247.4,178.5c0.9,3.4,4.3,5.4,7.7,4.5s5.3-4.4,4.4-7.7c-0.9-3.4-4.3-5.4-7.7-4.5
						C248.5,171.7,246.5,175.2,247.4,178.5z"/>
				</g>
			</g>
			<g>
				<g>
					<path class="st1" d="M252.9,198.8c0.9,3.4,4.3,5.4,7.7,4.5s5.3-4.4,4.4-7.7c-0.9-3.4-4.3-5.4-7.7-4.5
						C253.9,192,252,195.5,252.9,198.8z"/>
				</g>
			</g>
			<g>
				<g>
					<path class="st1" d="M258.3,219.1c0.9,3.4,4.3,5.4,7.7,4.5c3.3-0.9,5.3-4.4,4.4-7.7c-0.9-3.4-4.3-5.4-7.7-4.5
						S257.4,215.8,258.3,219.1z"/>
				</g>
			</g>
			<g>
				<g>
					<path class="st1" d="M263.7,239.4c0.9,3.4,4.3,5.4,7.7,4.5s5.3-4.4,4.4-7.7c-0.9-3.4-4.3-5.4-7.7-4.5
						C264.8,232.6,262.8,236.1,263.7,239.4z"/>
				</g>
			</g>
			<g>
				<g>
					<path class="st1" d="M269.1,259.7c0.9,3.4,4.3,5.4,7.7,4.5c3.3-0.9,5.3-4.4,4.4-7.7c-0.9-3.4-4.3-5.4-7.7-4.5
						S268.2,256.4,269.1,259.7z"/>
				</g>
			</g>
			<g>
				<g>
					<path class="st1" d="M274.5,280.1c0.9,3.4,4.3,5.4,7.7,4.5c3.3-0.9,5.3-4.4,4.4-7.7c-0.9-3.4-4.3-5.4-7.7-4.5
						C275.6,273.2,273.6,276.7,274.5,280.1z"/>
				</g>
			</g>
			<g>
				<g>
					
						<ellipse transform="matrix(0.9937 -0.1119 0.1119 0.9937 -18.3882 26.7305)" class="st1" cx="229" cy="177.2" rx="6.3" ry="6.3"/>
				</g>
			</g>
			<g>
				<g>
					
						<ellipse transform="matrix(0.9937 -0.1119 0.1119 0.9937 -20.7102 27.1231)" class="st1" cx="231.3" cy="198.1" rx="6.3" ry="6.3"/>
				</g>
			</g>
			<g>
				<g>
					
						<ellipse transform="matrix(0.9937 -0.1119 0.1119 0.9937 -23.0322 27.5158)" class="st1" cx="233.7" cy="219" rx="6.3" ry="6.3"/>
				</g>
			</g>
			<g>
				<g>
					
						<ellipse transform="matrix(0.9937 -0.1119 0.1119 0.9937 -25.3542 27.9085)" class="st1" cx="236" cy="239.9" rx="6.3" ry="6.3"/>
				</g>
			</g>
			<g>
				<g>
					
						<ellipse transform="matrix(0.9937 -0.1119 0.1119 0.9937 -27.6762 28.3011)" class="st1" cx="238.4" cy="260.8" rx="6.3" ry="6.3"/>
				</g>
			</g>
			<g>
				<g>
					
						<ellipse transform="matrix(0.9937 -0.1119 0.1119 0.9937 -29.9982 28.6938)" class="st1" cx="240.7" cy="281.7" rx="6.3" ry="6.3"/>
				</g>
			</g>
			<g>
				<g>
					
						<ellipse transform="matrix(0.9937 -0.1119 0.1119 0.9937 -32.3202 29.0865)" class="st1" cx="243" cy="302.6" rx="6.3" ry="6.3"/>
				</g>
			</g>
			<g>
				<g>
					<path class="st2" d="M267.3,163.2H139.6c-3.1,0-5.6-2.5-5.6-5.7c0-38.4,31.2-69.7,69.5-69.7s69.5,31.3,69.5,69.7
						C272.9,160.6,270.4,163.2,267.3,163.2z M145.5,151.8h115.9c-2.8-29.6-27.7-52.7-58-52.7S148.3,122.3,145.5,151.8z"/>
				</g>
			</g>
		</g>
	</g>
</g>
<g id="Calque_2">
</g>
</svg>
