<?xml version="1.0" encoding="utf-8"?>
<!-- Generator: Adobe Illustrator 19.2.1, SVG Export Plug-In . SVG Version: 6.00 Build 0)  -->
<svg version="1.1" xmlns="http://www.w3.org/2000/svg" xmlns:xlink="http://www.w3.org/1999/xlink" x="0px" y="0px"
	 viewBox="0 0 405 500" style="enable-background:new 0 0 405 500;" xml:space="preserve">
<style type="text/css">
	.st0{fill:#FFFFFF;}
	.st1{fill:#56DC4C;}
	.st2{fill:#6D6E72;}
	.st3{fill:none;stroke:#6D6E72;stroke-width:1.1339;stroke-linecap:round;stroke-linejoin:round;stroke-miterlimit:10;}
	.st4{fill:#575D60;}
</style>
<g id="Calque_1">
	<g>
		<g>
			<path class="st0" d="M204.9,6.8c-0.8,0-1.6,0-2.4,0c-0.8,0-1.6,0-2.4,0C93,6.8,6.8,93.9,6.8,201.2c0,0.4,0,0.7,0,1.1
				c0.3,47,21,91.6,52,126.8l143.7,160.7l143.7-160.7c31.1-35.2,51.8-79.8,52-126.8c0-0.4,0-0.7,0-1.1C398.2,93.9,312,6.8,204.9,6.8
				z"/>
			<path class="st1" d="M202.5,500L53.8,333.7C19.3,294.7,0.3,248.1,0,202.4l0-1.1C0,90.3,89.8,0,200.1,0l2.5,0l2.4,0
				C315.2,0,405,90.3,405,201.2v1.1c-0.3,45.7-19.3,92.3-53.7,131.3L202.5,500z M200.1,13.6C97.2,13.6,13.5,97.8,13.5,201.2l0,1
				c0.2,42.4,18.1,85.9,50.3,122.4l138.6,155l138.6-155c32.2-36.5,50.1-79.9,50.3-122.3v-1.1c0-103.5-83.7-187.7-186.5-187.7l-2.3,0
				L200.1,13.6z"/>
		</g>
		<g>
			<g>
				<path class="st1" d="M254.6,219.5c-4.2,0-7.9-3.1-8.5-7.4c-6.6-44.4-49.5-51.6-50-51.6c-4.7-0.7-8-5.2-7.2-9.9
					c0.7-4.7,5.2-8,9.9-7.3c19.3,3,57.7,20.7,64.5,66.2c0.7,4.7-2.6,9.2-7.3,9.9C255.5,219.5,255,219.5,254.6,219.5z"/>
			</g>
		</g>
		<g>
			<g>
				<path class="st1" d="M295.1,214.9c-3.8,0-7.2-2.5-8.3-6.3c-24-84.8-89.1-88.6-89.7-88.6c-4.8-0.2-8.5-4.2-8.3-9
					c0.2-4.8,4.1-8.3,9-8.3c3.2,0.1,78.3,4.4,105.6,101.2c1.3,4.6-1.4,9.4-6,10.7C296.6,214.8,295.8,214.9,295.1,214.9z"/>
			</g>
		</g>
		<g>
			<path class="st2" d="M277.8,259.8c-16.4-14.7-27.7-20.7-28.2-21c-9.6-4.9-30.5-9.8-41.3,6.9c-5.4,8.4-10.2,12.8-15.1,13.8
				c-4.4,0.9-9.6-0.7-15.9-5c-2.1-1.4-4.2-3.1-6.4-4.9l0.1-0.2c-7-6.2-16.5-15.5-22.4-24.3c-4.2-6.4-5.9-11.6-4.9-16
				c1-4.9,5.4-9.7,13.8-15.1c16.7-10.8,11.8-31.8,6.9-41.5c-0.2-0.5-6.2-11.8-20.9-28.2c-5.3-5.9-11.7-9.2-18.6-9.5
				c-11.7-0.7-20.9,7.6-21.4,8.1c-0.4,0.3-43,34-21.6,92.9c8,22,21.3,41.1,34.2,56l-0.1,0.1c4.3,5.2,9.1,10.2,14.3,15
				c0.3,0.3,0.6,0.6,0.9,0.9l0,0c15.9,14.4,35.3,26.2,55.4,33.6c11.8,4.3,22.6,6,32.3,6c38.5,0,59.9-27.2,59.9-27.2
				c0.9-1,9-10.1,8.5-21.9C287,271.5,283.7,265.1,277.8,259.8z M268.5,291.6c-0.3,0.4-27.7,35.2-77.2,17.2
				c-18.7-6.8-36.6-17.8-51.3-31.1c-21.2-20.7-37.3-44.2-45.3-66.3c-17.9-49.3,15.7-76.3,17.6-77.9c0,0,5.9-5.2,12-4.9
				c3.3,0.1,6.2,1.8,9.1,5c13.4,15.1,18.9,25.4,18.9,25.4c0.3,0.7,8.4,17-2.2,23.8c-7.3,4.7-17.4,12.3-19.7,23.8
				c-1.7,8.1,0.6,16.7,6.9,26.3c2,3.1,4.5,6.1,7,9.1l-0.1,0.1c9,10.6,17.3,18.4,25.5,23.9c9.5,6.4,18.1,8.6,26.2,6.9
				c11.4-2.4,19-12.4,23.7-19.8c6.8-10.6,23-2.5,23.6-2.2c0.1,0,10.4,5.6,25.4,19c3.2,2.8,4.8,5.8,5,9
				C274.1,285.3,268.9,291.1,268.5,291.6z"/>
		</g>
	</g>
</g>
<g id="Calque_2">
</g>
</svg>
