<?xml version="1.0" encoding="utf-8"?>
<!-- Generator: Adobe Illustrator 19.2.1, SVG Export Plug-In . SVG Version: 6.00 Build 0)  -->
<svg version="1.1" xmlns="http://www.w3.org/2000/svg" xmlns:xlink="http://www.w3.org/1999/xlink" x="0px" y="0px"
	 viewBox="0 0 405 500" style="enable-background:new 0 0 405 500;" xml:space="preserve">
<style type="text/css">
	.st0{fill:#FFFFFF;}
	.st1{fill:#56DC4C;}
	.st2{fill:#6D6E72;}
	.st3{fill:none;stroke:#6D6E72;stroke-width:1.1339;stroke-linecap:round;stroke-linejoin:round;stroke-miterlimit:10;}
	.st4{fill:#575D60;}
</style>
<g id="Calque_1">
	<g>
		<g>
			<path class="st0" d="M204.9,6.8c-0.8,0-1.6,0-2.4,0c-0.8,0-1.6,0-2.4,0C93,6.8,6.8,93.9,6.8,201.2c0,0.4,0,0.7,0,1.1
				c0.3,47,21,91.6,52,126.8l143.7,160.7l143.7-160.7c31.1-35.2,51.8-79.8,52-126.8c0-0.4,0-0.7,0-1.1C398.2,93.8,312,6.8,204.9,6.8
				z"/>
			<path class="st1" d="M202.5,500L53.8,333.7C19.3,294.7,0.3,248.1,0,202.4l0-1.1C0,90.3,89.8,0,200.1,0l2.5,0l2.3,0
				C315.2,0,405,90.3,405,201.2l0,1.1c-0.3,45.7-19.3,92.3-53.7,131.3L202.5,500z M200.1,13.6C97.2,13.6,13.5,97.8,13.5,201.2l0,1
				c0.2,42.4,18.1,85.9,50.3,122.4l138.6,155l138.6-155c32.2-36.5,50.1-79.9,50.3-122.3l0-1.1c0-103.5-83.7-187.7-186.5-187.7
				l-2.3,0L200.1,13.6z"/>
		</g>
		<g>
			<g>
				<g>
					<ellipse class="st1" cx="161.1" cy="188.4" rx="11.5" ry="11.6"/>
				</g>
			</g>
			<g>
				<g>
					<ellipse class="st1" cx="244.5" cy="188.4" rx="11.5" ry="11.6"/>
				</g>
			</g>
			<g>
				<g>
					<ellipse class="st1" cx="244.5" cy="251.8" rx="11.5" ry="11.6"/>
				</g>
			</g>
			<g>
				<g>
					<path class="st2" d="M306.5,189.2c-3.8,0-7.5-1-10.8-3.1l-93.9-57.9l-92.5,57.1c-4.7,2.9-10.3,3.8-15.8,2.5
						c-5.4-1.3-10-4.7-12.9-9.4c-6-9.9-2.9-22.8,6.9-28.8L192.2,85c0.7-0.4,1.1-0.6,1.5-0.7c0.8-0.3,1.6-0.6,2.4-0.8
						c0.5-0.1,1-0.3,1.5-0.4c0.8-0.2,1.5-0.3,2.3-0.3c1.3-0.1,2.5-0.1,3.8,0c0.7,0.1,1.5,0.2,2.3,0.3c0.6,0.1,1.1,0.3,1.6,0.4
						c0.7,0.2,1.5,0.5,2.3,0.8c0.4,0.2,0.9,0.4,1.3,0.6c0.6,0.3,1.1,0.5,1.5,0.8l104.7,64.6c9.8,6,12.9,19,6.9,28.8
						c-2.9,4.8-7.5,8.1-12.9,9.4C309.8,189,308.1,189.2,306.5,189.2z M201.8,114.2L301.9,176c2,1.3,4.4,1.6,6.8,1.1
						c2.4-0.6,4.4-2,5.6-4.1c2.6-4.3,1.3-9.9-3-12.6l-106-65.3c-0.3-0.1-0.6-0.2-1-0.3c-1-0.2-1.3-0.3-1.6-0.3l-2.2-5.9l0.5,5.9
						c-0.3,0-0.7,0.1-1,0.1c-1,0.3-1.3,0.4-1.7,0.5l-1.4,0.7L93.7,159.6c-4.3,2.6-5.6,8.3-3,12.6c1.2,2.1,3.2,3.5,5.6,4.1
						c2.3,0.6,4.8,0.2,6.8-1.1L201.8,114.2z"/>
				</g>
			</g>
			<g>
				<g>
					<path class="st2" d="M288.6,294.9H178.1c-3.3,0-5.9-2.7-5.9-5.9s2.6-5.9,5.9-5.9h110.6c3.3,0,5.9,2.7,5.9,5.9
						S291.9,294.9,288.6,294.9z"/>
				</g>
			</g>
			<g>
				<g>
					<path class="st2" d="M145,294.9h-29.5c-3.3,0-5.9-2.7-5.9-5.9s2.6-5.9,5.9-5.9H145c3.3,0,5.9,2.7,5.9,5.9
						S148.3,294.9,145,294.9z"/>
				</g>
			</g>
			<g>
				<g>
					<path class="st2" d="M178.1,292.7c-3.3,0-5.9-2.7-5.9-5.9v-33.2c0-6.2-4.8-11.2-10.6-11.2c-5.8,0-10.6,5-10.6,11.2v33.2
						c0,3.3-2.6,5.9-5.9,5.9c-3.3,0-5.9-2.7-5.9-5.9v-33.2c0-12.7,10.1-23.1,22.4-23.1c12.4,0,22.4,10.4,22.4,23.1v33.2
						C184,290.1,181.3,292.7,178.1,292.7z"/>
				</g>
			</g>
			<g>
				<g>
					<path class="st2" d="M161.1,210.5c-12.1,0-22-9.9-22-22.1c0-12.2,9.9-22.1,22-22.1c12.1,0,22,9.9,22,22.1
						C183.1,200.6,173.2,210.5,161.1,210.5z M161.1,178.2c-5.6,0-10.2,4.6-10.2,10.2c0,5.6,4.6,10.2,10.2,10.2
						c5.6,0,10.2-4.6,10.2-10.2C171.3,182.8,166.7,178.2,161.1,178.2z"/>
				</g>
			</g>
			<g>
				<g>
					<path class="st2" d="M244.5,210.5c-12.1,0-22-9.9-22-22.1c0-12.2,9.9-22.1,22-22.1s22,9.9,22,22.1
						C266.6,200.6,256.7,210.5,244.5,210.5z M244.5,178.2c-5.6,0-10.2,4.6-10.2,10.2c0,5.6,4.6,10.2,10.2,10.2s10.2-4.6,10.2-10.2
						C254.7,182.8,250.2,178.2,244.5,178.2z"/>
				</g>
			</g>
			<g>
				<g>
					<path class="st2" d="M244.7,273.9c-12.1,0-22-9.9-22-22.1c0-12.2,9.9-22.1,22-22.1s22,9.9,22,22.1
						C266.7,264,256.8,273.9,244.7,273.9z M244.7,241.6c-5.6,0-10.2,4.6-10.2,10.2c0,5.6,4.6,10.2,10.2,10.2s10.2-4.6,10.2-10.2
						C254.9,246.1,250.3,241.6,244.7,241.6z"/>
				</g>
			</g>
			<g>
				<g>
					<path class="st2" d="M115.5,292.7c-3.3,0-5.9-2.7-5.9-5.9V174c0-3.3,2.6-5.9,5.9-5.9c3.3,0,5.9,2.7,5.9,5.9v112.7
						C121.5,290.1,118.8,292.7,115.5,292.7z"/>
				</g>
			</g>
			<g>
				<g>
					<path class="st2" d="M288.6,291.1c-3.3,0-5.9-2.7-5.9-5.9V174.5c0-3.3,2.6-5.9,5.9-5.9c3.3,0,5.9,2.7,5.9,5.9v110.7
						C294.5,288.4,291.9,291.1,288.6,291.1z"/>
				</g>
			</g>
		</g>
	</g>
</g>
<g id="Calque_2">
</g>
</svg>
