<?xml version="1.0" encoding="utf-8"?>
<!-- Generator: Adobe Illustrator 19.2.1, SVG Export Plug-In . SVG Version: 6.00 Build 0)  -->
<svg version="1.1" xmlns="http://www.w3.org/2000/svg" xmlns:xlink="http://www.w3.org/1999/xlink" x="0px" y="0px"
	 viewBox="0 0 405 500" style="enable-background:new 0 0 405 500;" xml:space="preserve">
<style type="text/css">
	.st0{fill:#FFFFFF;}
	.st1{fill:#56DC4C;}
	.st2{fill:#6D6E72;}
	.st3{fill:none;stroke:#6D6E72;stroke-width:1.1339;stroke-linecap:round;stroke-linejoin:round;stroke-miterlimit:10;}
	.st4{fill:#575D60;}
</style>
<g id="Calque_1">
	<g>
		<g>
			<path class="st0" d="M204.9,6.8c-0.8,0-1.6,0-2.4,0c-0.8,0-1.6,0-2.4,0C93,6.8,6.8,93.9,6.8,201.2c0,0.4,0,0.7,0,1.1
				c0.3,47,21,91.6,52,126.8l143.7,160.7l143.7-160.7c31.1-35.2,51.8-79.8,52-126.8c0-0.4,0-0.7,0-1.1C398.2,93.8,312,6.8,204.9,6.8
				z"/>
			<path class="st1" d="M202.5,500L53.8,333.7C19.3,294.7,0.3,248.1,0,202.4v-1.1C0,90.3,89.8,0,200.1,0l2.5,0l2.3,0
				C315.2,0,405,90.3,405,201.2v1.1c-0.3,45.7-19.3,92.3-53.7,131.3L202.5,500z M200.1,13.6C97.2,13.6,13.6,97.8,13.6,201.2v1.1
				c0.2,42.3,18.1,85.8,50.3,122.3l138.6,155l138.7-155c32.2-36.5,50.1-79.9,50.3-122.3v-1.1c0-103.5-83.7-187.7-186.5-187.7l-2.3,0
				L200.1,13.6z"/>
		</g>
		<g>
			<g>
				<g>
					<path class="st2" d="M183.5,161.7c-3.3,0-5.9-2.7-5.9-5.9V90.7c0-3.3,2.7-5.9,5.9-5.9c3.3,0,5.9,2.7,5.9,5.9v65.1
						C189.5,159,186.8,161.7,183.5,161.7z"/>
				</g>
			</g>
			<g>
				<g>
					<path class="st2" d="M183.5,226.8c-3.3,0-5.9-2.7-5.9-5.9v-68.8c0-3.3,2.7-5.9,5.9-5.9c3.3,0,5.9,2.7,5.9,5.9v68.8
						C189.5,224.1,186.8,226.8,183.5,226.8z"/>
				</g>
			</g>
			<g>
				<g>
					<path class="st2" d="M216.5,137.6c-3.3,0-5.9-2.7-5.9-5.9V90.7c0-3.3,2.7-5.9,5.9-5.9c3.3,0,5.9,2.7,5.9,5.9v40.9
						C222.4,134.9,219.8,137.6,216.5,137.6z"/>
				</g>
			</g>
			<g>
				<g>
					<path class="st2" d="M216.5,194.2c-3.3,0-5.9-2.7-5.9-5.9v-62.6c0-3.3,2.7-5.9,5.9-5.9c3.3,0,5.9,2.7,5.9,5.9v62.6
						C222.4,191.6,219.8,194.2,216.5,194.2z"/>
				</g>
			</g>
			<g>
				<g>
					<path class="st2" d="M250,137.6c-3.3,0-5.9-2.7-5.9-5.9V90.7c0-3.3,2.7-5.9,5.9-5.9c3.3,0,5.9,2.7,5.9,5.9v40.9
						C255.9,134.9,253.3,137.6,250,137.6z"/>
				</g>
			</g>
			<g>
				<g>
					<path class="st2" d="M250,226.8c-3.3,0-5.9-2.7-5.9-5.9v-89.2c0-3.3,2.7-5.9,5.9-5.9c3.3,0,5.9,2.7,5.9,5.9v89.2
						C255.9,224.1,253.3,226.8,250,226.8z"/>
				</g>
			</g>
			<g>
				<g>
					<path class="st2" d="M216.5,226.8c-3.3,0-5.9-2.7-5.9-5.9v-43.4c0-3.3,2.7-5.9,5.9-5.9c3.3,0,5.9,2.7,5.9,5.9v43.4
						C222.4,224.1,219.8,226.8,216.5,226.8z"/>
				</g>
			</g>
			<g>
				<g>
					<path class="st2" d="M291.9,255.5c-7.1,0-10.3-2.9-14.8-6.9c-4.9-4.5-11.1-10-22.8-10c-11.7,0-17.9,5.6-22.8,10
						c-4.5,4-7.7,6.9-14.8,6.9c-7.1,0-10.3-2.9-14.8-6.9c-4.9-4.5-11.1-10-22.8-10c-11.7,0-17.9,5.6-22.8,10
						c-4.5,4-7.7,6.9-14.8,6.9c-7.1,0-10.3-2.9-14.8-6.9c-4.9-4.5-11.1-10-22.8-10c-3.3,0-6,2.7-6,6s2.7,6,6,6
						c7.1,0,10.3,2.9,14.8,6.9c4.9,4.5,11.1,10,22.8,10c11.7,0,17.9-5.6,22.8-10c4.5-4,7.7-6.9,14.8-6.9c7.1,0,10.3,2.9,14.8,6.9
						c4.9,4.5,11.1,10,22.8,10c11.7,0,17.9-5.6,22.8-10c4.5-4,7.7-6.9,14.8-6.9s10.3,2.9,14.8,6.9c4.9,4.5,11.1,10,22.8,10
						c3.3,0,6-2.7,6-6S295.2,255.5,291.9,255.5z"/>
				</g>
			</g>
			<g>
				<g>
					<path class="st1" d="M291.9,284.5c-7.1,0-10.3-2.9-14.8-6.9c-4.9-4.5-11.1-10-22.8-10c-11.7,0-17.9,5.6-22.8,10
						c-4.5,4-7.7,6.9-14.8,6.9c-7.1,0-10.3-2.9-14.8-6.9c-4.9-4.5-11.1-10-22.8-10c-11.7,0-17.9,5.6-22.8,10
						c-4.5,4-7.7,6.9-14.8,6.9c-7.1,0-10.3-2.9-14.8-6.9c-4.9-4.5-11.1-10-22.8-10c-3.3,0-6,2.7-6,6c0,3.3,2.7,6,6,6
						c7.1,0,10.3,2.9,14.8,6.9c4.9,4.5,11.1,10,22.8,10c11.7,0,17.9-5.6,22.8-10c4.5-4,7.7-6.9,14.8-6.9c7.1,0,10.3,2.9,14.8,6.9
						c4.9,4.5,11.1,10,22.8,10c11.7,0,17.9-5.6,22.8-10c4.5-4,7.7-6.9,14.8-6.9s10.3,2.9,14.8,6.9c4.9,4.5,11.1,10,22.8,10
						c3.3,0,6-2.7,6-6C297.9,287.1,295.2,284.5,291.9,284.5z"/>
				</g>
			</g>
			<g>
				<g>
					<path class="st2" d="M146.9,226.8c-3.3,0-5.9-2.7-5.9-5.9V90.7c0-3.3,2.7-5.9,5.9-5.9s5.9,2.7,5.9,5.9v130.2
						C152.8,224.1,150.2,226.8,146.9,226.8z"/>
				</g>
			</g>
		</g>
	</g>
</g>
<g id="Calque_2">
</g>
</svg>
