<svg id="Calque_1" data-name="Calque 1" xmlns="http://www.w3.org/2000/svg" viewBox="0 0 405 500"><defs><style>.cls-1{fill:#fff;}.cls-2{fill:#56dc4c;}.cls-3{fill:#6d6e71;}</style></defs><title>Icones_Hikster_Juin(2)</title><path class="cls-1" d="M205,6.77h-4.84C93.07,6.78,6.84,93.84,6.84,201.23c0,0.37,0,.74,0,1.1,0.26,47,21,91.6,52,126.8L202.55,489.83,346.23,329.13c31.07-35.19,51.77-79.79,52-126.8,0-.37,0-0.74,0-1.1C398.26,93.83,312,6.77,205,6.77Z"/><path class="cls-2" d="M202.55,500L53.83,333.67c-34.42-39-53.5-85.61-53.76-131.29v-1.14C0.06,90.27,89.81,0,200.13,0l2.55,0L205,0C315.28,0,405,90.26,405,201.23v1.1c-0.26,45.72-19.34,92.34-53.74,131.3ZM13.62,202.3c0.23,42.38,18.11,85.83,50.32,122.33l138.61,155L341.18,324.6c32.19-36.46,50.07-79.91,50.3-122.3v-1.07C391.48,97.75,307.82,13.56,205,13.56l-2.3,0-2.55,0C97.28,13.57,13.61,97.76,13.61,201.23v1.07Z"/><path class="cls-1" d="M165.68,156.41l-32.26,24.44A8.9,8.9,0,0,1,121,179h0a9,9,0,0,1,1.83-12.49l34.37-26.47"/><path class="cls-3" d="M128.14,188.15A14.46,14.46,0,0,1,126,188a14.3,14.3,0,0,1-9.47-5.67,14.53,14.53,0,0,1,3-20.24l34.31-26.42,6.72,8.79-34.37,26.46a3.47,3.47,0,0,0-.76,4.8,3.33,3.33,0,0,0,2.23,1.32,3.28,3.28,0,0,0,2.5-.62L162.35,152l6.64,8.83-32.26,24.44A14.25,14.25,0,0,1,128.14,188.15Z"/><ellipse class="cls-1" cx="202.96" cy="130.14" rx="49.48" ry="49.66"/><path class="cls-3" d="M203,185.34a55.19,55.19,0,1,1,55-55.19A55.16,55.16,0,0,1,203,185.34ZM203,86a44.12,44.12,0,1,0,44,44.12A44.09,44.09,0,0,0,203,86Z"/><ellipse class="cls-1" cx="202.96" cy="273" rx="49.48" ry="49.66"/><path class="cls-3" d="M203,328.19A55.19,55.19,0,1,1,258,273,55.16,55.16,0,0,1,203,328.19Zm0-99.31a44.12,44.12,0,1,0,44,44.12A44.09,44.09,0,0,0,203,228.88Z"/><rect class="cls-2" x="193.51" y="130.01" width="19.09" height="85.94" rx="0.94" ry="0.94" transform="translate(376.03 -30.07) rotate(90)"/><path class="cls-3" d="M236.81,188.06H169.3a14.78,14.78,0,0,1-14.73-14.78v-0.61A14.78,14.78,0,0,1,169.3,157.9h67.52a14.77,14.77,0,0,1,14.73,14.78C251.54,181.43,244.93,188.06,236.81,188.06ZM169.3,169a3.7,3.7,0,0,0-3.69,3.7v0.61a3.7,3.7,0,0,0,3.69,3.7h67.52a3.74,3.74,0,0,0,3.69-3.7c0-2.62-1.69-4.31-3.69-4.31H169.3Z"/><rect class="cls-2" x="193.51" y="149.83" width="19.09" height="85.94" rx="0.94" ry="0.94" transform="matrix(0, 1, -1, 0, 395.86, -10.25)"/><path class="cls-3" d="M236.81,207.89H169.3a14.78,14.78,0,0,1-14.73-14.78v-0.6a14.78,14.78,0,0,1,14.73-14.78h67.52a14.78,14.78,0,0,1,14.73,14.78C251.54,201.25,244.93,207.89,236.81,207.89ZM169.3,188.79a3.71,3.71,0,0,0-3.69,3.71v0.6a3.71,3.71,0,0,0,3.69,3.71h67.52a3.7,3.7,0,0,0,3.69-3.71c0-2.65-1.65-4.31-3.69-4.31H169.3Z"/><rect class="cls-2" x="193.51" y="168.92" width="19.09" height="85.94" rx="0.94" ry="0.94" transform="translate(414.95 8.84) rotate(90)"/><path class="cls-3" d="M236.81,227H169.3a14.78,14.78,0,0,1-14.73-14.78v-0.61a14.78,14.78,0,0,1,14.73-14.78h67.52a14.77,14.77,0,0,1,14.73,14.78C251.54,220.35,244.93,227,236.81,227ZM169.3,207.89a3.7,3.7,0,0,0-3.69,3.7v0.61a3.7,3.7,0,0,0,3.69,3.7h67.52a3.74,3.74,0,0,0,3.69-3.7c0-2.62-1.69-4.31-3.69-4.31H169.3Z"/><rect class="cls-2" x="193.51" y="187.47" width="19.09" height="85.94" rx="0.94" ry="0.94" transform="matrix(0, 1, -1, 0, 433.49, 27.38)"/><path class="cls-3" d="M236.81,245.52H169.3a14.78,14.78,0,0,1-14.73-14.78v-0.61a14.78,14.78,0,0,1,14.73-14.78h67.52a14.78,14.78,0,0,1,14.73,14.78C251.54,238.89,244.93,245.52,236.81,245.52ZM169.3,226.43a3.75,3.75,0,0,0-3.69,3.71v0.61a3.7,3.7,0,0,0,3.69,3.7h67.52a3.74,3.74,0,0,0,3.69-3.7c0-2.62-1.69-4.32-3.69-4.32H169.3Z"/><ellipse class="cls-1" cx="202.96" cy="130.14" rx="30.01" ry="30.11"/><path class="cls-3" d="M203,165.79a35.65,35.65,0,1,1,35.53-35.65A35.62,35.62,0,0,1,203,165.79Zm0-60.22a24.57,24.57,0,1,0,24.49,24.57A24.56,24.56,0,0,0,203,105.57Z"/><ellipse class="cls-1" cx="202.96" cy="273" rx="30.01" ry="30.11"/><path class="cls-3" d="M203,308.65A35.65,35.65,0,1,1,238.48,273,35.62,35.62,0,0,1,203,308.65Zm0-60.22A24.57,24.57,0,1,0,227.45,273,24.56,24.56,0,0,0,203,248.43Z"/></svg>