<?xml version="1.0" encoding="utf-8"?>
<!-- Generator: Adobe Illustrator 19.2.1, SVG Export Plug-In . SVG Version: 6.00 Build 0)  -->
<svg version="1.1" xmlns="http://www.w3.org/2000/svg" xmlns:xlink="http://www.w3.org/1999/xlink" x="0px" y="0px"
	 viewBox="0 0 405 500" style="enable-background:new 0 0 405 500;" xml:space="preserve">
<style type="text/css">
	.st0{fill:#FFFFFF;}
	.st1{fill:#56DC4C;}
	.st2{fill:#6D6E72;}
	.st3{fill:none;stroke:#6D6E72;stroke-width:1.1339;stroke-linecap:round;stroke-linejoin:round;stroke-miterlimit:10;}
	.st4{fill:#575D60;}
</style>
<g id="Calque_1">
	<g>
		<g>
			<path class="st0" d="M204.9,6.8c-0.8,0-1.6,0-2.4,0c-0.8,0-1.6,0-2.4,0C93,6.8,6.8,93.9,6.8,201.2c0,0.4,0,0.7,0,1.1
				c0.3,47,21,91.6,52,126.8l143.7,160.7l143.7-160.7c31.1-35.2,51.8-79.8,52-126.8c0-0.4,0-0.7,0-1.1C398.2,93.8,312,6.8,204.9,6.8
				z"/>
			<path class="st1" d="M202.5,500L53.8,333.7C19.3,294.7,0.3,248.1,0,202.4v-1.1C0,90.3,89.8,0,200.1,0l2.5,0l2.3,0
				C315.2,0,405,90.3,405,201.2v1.1c-0.3,45.7-19.3,92.3-53.7,131.3L202.5,500z M200.1,13.6C97.2,13.6,13.5,97.8,13.5,201.2v1.1
				c0.2,42.3,18.1,85.8,50.3,122.3l138.6,155l138.7-155c32.2-36.5,50.1-79.9,50.3-122.3v-1.1c0-103.5-83.7-187.7-186.5-187.7l-2.3,0
				L200.1,13.6z"/>
		</g>
		<g>
			<g>
				<g>
					<g>
						<path class="st1" d="M134.7,259.5H162v6.7h-19.4v8.8h17v6.7h-17v16.1h-7.9V259.5z"/>
					</g>
				</g>
				<g>
					<g>
						<path class="st1" d="M191.7,260.5c1.4,0.6,2.6,1.5,3.6,2.7c0.8,1,1.5,2.1,1.9,3.2c0.5,1.2,0.7,2.5,0.7,4
							c0,1.8-0.5,3.6-1.4,5.4c-0.9,1.8-2.4,3-4.5,3.7c1.8,0.7,3,1.7,3.8,3c0.7,1.3,1.1,3.3,1.1,6v2.6c0,1.8,0.1,2.9,0.2,3.6
							c0.2,1,0.7,1.7,1.5,2.2v1h-8.8c-0.2-0.9-0.4-1.5-0.5-2.1c-0.2-1.1-0.3-2.2-0.3-3.3l-0.1-3.6c0-2.4-0.5-4.1-1.3-4.9
							c-0.8-0.8-2.3-1.2-4.6-1.2h-7.8v15.1h-7.8v-38.4h18.3C188.3,259.5,190.3,259.9,191.7,260.5z M175.2,266.2v10.3h8.6
							c1.7,0,3-0.2,3.8-0.6c1.5-0.7,2.3-2.2,2.3-4.3c0-2.3-0.7-3.9-2.2-4.7c-0.8-0.5-2.1-0.7-3.7-0.7H175.2z"/>
					</g>
				</g>
				<g>
					<g>
						<path class="st1" d="M233.9,266.3h-20.3v8.2h18.6v6.7h-18.6v9.9h21.2v6.9h-29v-38.4h28.1V266.3z"/>
					</g>
				</g>
				<g>
					<g>
						<path class="st1" d="M269.4,266.3h-20.3v8.2h18.6v6.7h-18.6v9.9h21.2v6.9h-29v-38.4h28.1V266.3z"/>
					</g>
				</g>
			</g>
			<g>
				<g>
					<g>
						<ellipse class="st1" cx="207.1" cy="208.9" rx="13.4" ry="13.4"/>
					</g>
				</g>
				<g>
					<g>
						<g>
							<path class="st2" d="M207.1,230.8c-12.1,0-21.9-9.9-21.9-22c0-12.1,9.8-22,21.9-22c12.1,0,21.9,9.9,21.9,22
								C229,221,219.2,230.8,207.1,230.8z M207.1,197.6c-6.2,0-11.3,5.1-11.3,11.3c0,6.2,5.1,11.3,11.3,11.3s11.3-5.1,11.3-11.3
								C218.4,202.7,213.3,197.6,207.1,197.6z"/>
						</g>
					</g>
					<g>
						<g>
							<path class="st2" d="M163.8,181.8c-1.1,0-2.2-0.3-3.2-1.1c-2.4-1.8-2.8-5.1-1.1-7.5c11.2-15,28.9-23.9,47.6-23.9
								c15.9,0,30.8,6.2,42,17.4c2.1,2.1,2.1,5.5,0,7.5c-2.1,2.1-5.4,2.1-7.5,0c-9.2-9.2-21.4-14.3-34.5-14.3
								c-15.5,0-29.8,7.2-39.1,19.6C167,181,165.4,181.8,163.8,181.8z"/>
						</g>
					</g>
					<g>
						<g>
							<path class="st2" d="M143.7,146.1c-1.4,0-2.8-0.6-3.9-1.7c-2-2.2-1.9-5.5,0.2-7.5c18.3-17.1,42.1-26.5,67.1-26.5
								c22.3,0,44.1,7.7,61.5,21.7c2.3,1.8,2.7,5.2,0.8,7.5c-1.8,2.3-5.2,2.7-7.5,0.8c-15.7-12.6-34.6-19.3-54.8-19.3
								c-22.3,0-43.5,8.4-59.8,23.7C146.3,145.7,145,146.1,143.7,146.1z"/>
						</g>
					</g>
					<g>
						<g>
							<path class="st2" d="M119.2,119.3c-1.4,0-2.7-0.5-3.8-1.6c-2.1-2.1-2.1-5.5,0-7.5c24.7-24.7,56.9-38.3,90.7-38.3
								c30.2,0,59.7,11.1,83.2,31.3c2.2,1.9,2.5,5.3,0.6,7.5c-1.9,2.2-5.3,2.5-7.5,0.6c-21.8-18.8-48.2-28.7-76.2-28.7
								c-31,0-60.6,12.5-83.2,35.2C121.9,118.8,120.5,119.3,119.2,119.3z"/>
						</g>
					</g>
				</g>
			</g>
		</g>
	</g>
</g>
<g id="Calque_2">
</g>
</svg>
