<?xml version="1.0" encoding="utf-8"?>
<!-- Generator: Adobe Illustrator 19.2.1, SVG Export Plug-In . SVG Version: 6.00 Build 0)  -->
<svg version="1.1" xmlns="http://www.w3.org/2000/svg" xmlns:xlink="http://www.w3.org/1999/xlink" x="0px" y="0px"
	 viewBox="0 0 405 500" style="enable-background:new 0 0 405 500;" xml:space="preserve">
<style type="text/css">
	.st0{fill:#FFFFFF;}
	.st1{fill:#56DC4C;}
	.st2{fill:#6D6E72;}
	.st3{fill:none;stroke:#6D6E72;stroke-width:1.1339;stroke-linecap:round;stroke-linejoin:round;stroke-miterlimit:10;}
	.st4{fill:#575D60;}
</style>
<g id="Calque_1">
	<g>
		<g>
			<path class="st0" d="M204.9,6.8c-0.8,0-1.6,0-2.4,0c-0.8,0-1.6,0-2.4,0C93,6.8,6.8,93.9,6.8,201.2c0,0.4,0,0.7,0,1.1
				c0.3,47,21,91.6,52,126.8l143.7,160.7l143.7-160.7c31.1-35.2,51.8-79.8,52-126.8c0-0.4,0-0.7,0-1.1C398.2,93.8,312,6.8,204.9,6.8
				z"/>
			<path class="st1" d="M202.5,500L53.8,333.7C19.3,294.7,0.3,248.1,0,202.4v-1.1C0,90.3,89.8,0,200.1,0l2.5,0l2.4,0
				C315.2,0,405,90.3,405,201.2l0,1.1c-0.3,45.7-19.3,92.3-53.7,131.3L202.5,500z M200.1,13.6C97.2,13.6,13.6,97.8,13.6,201.2v1.1
				c0.2,42.3,18.1,85.8,50.3,122.3l138.6,155l138.6-155c32.2-36.5,50.1-79.9,50.3-122.3l6.8-1.1h-6.8
				c0-103.5-83.7-187.7-186.5-187.7l-2.4,0L200.1,13.6z"/>
		</g>
		<g>
			<g>
				<path class="st1" d="M118.9,174.4c1.8-3.9,21.7-9.8,21.7-9.8l20.7,9.8l-5.5,92.4L137.1,291l-16.8-24.2L118.9,174.4z"/>
			</g>
			<g>
				<path class="st1" d="M243.3,170.2c1.8-3.9,13.5-5.6,13.5-5.6l12.2,5.8l17.9,112l-33.7,8.6l-23.6-7.3L243.3,170.2z"/>
			</g>
			<g>
				<path class="st0" d="M140.2,142.7c10.5,0,19.1-8.6,19.1-19.2c0-10.6-8.6-19.2-19.1-19.2c-10.5,0-19.1,8.6-19.1,19.2
					C121.1,134.1,129.6,142.7,140.2,142.7z"/>
				<path class="st2" d="M140.2,149.5c-14.3,0-25.9-11.6-25.9-25.9c0-14.3,11.6-26,25.9-26c14.3,0,25.9,11.6,25.9,26
					C166,137.9,154.4,149.5,140.2,149.5z M140.2,111.2c-6.8,0-12.3,5.5-12.3,12.4c0,6.8,5.5,12.4,12.3,12.4
					c6.8,0,12.3-5.5,12.3-12.4C152.5,116.8,147,111.2,140.2,111.2z"/>
			</g>
			<g>
				<path class="st0" d="M256.3,142.7c10.5,0,19.1-8.6,19.1-19.2c0-10.6-8.6-19.2-19.1-19.2c-10.5,0-19.1,8.6-19.1,19.2
					C237.2,134.1,245.8,142.7,256.3,142.7z"/>
				<path class="st2" d="M256.3,149.5c-14.3,0-25.9-11.6-25.9-25.9c0-14.3,11.6-26,25.9-26c14.3,0,25.9,11.6,25.9,26
					C282.2,137.9,270.6,149.5,256.3,149.5z M256.3,111.2c-6.8,0-12.3,5.5-12.3,12.4c0,6.8,5.5,12.4,12.3,12.4
					c6.8,0,12.3-5.5,12.3-12.4C268.6,116.8,263.1,111.2,256.3,111.2z"/>
			</g>
			<g>
				<path class="st2" d="M140.7,168.5c8.1,0,15.3,4.8,18.5,12.3c1.1,2.5,1.6,5.2,1.6,8c0,0.1,0,8.2-0.7,15
					c-4,38-12.3,70.6-12.4,71.2c-0.6,2.6-2.8,4.6-5.8,5.2c-0.4,0.1-0.8,0.1-1.1,0.1c-0.3,0-0.7,0-1.2-0.1l0,0l-0.2,0
					c-2.5-0.5-4.5-2.2-5.2-4.8c-1.8-5.6-6.3-24.1-10.4-53.8c-3-22.1-2.9-32.5-2.9-32.8c0-1.4,0.1-2.7,0.4-4.2
					C122.9,175.2,131.2,168.5,140.7,168.5 M140.7,157.4c-15.1,0-27.6,10.7-30.4,25c-0.4,2-0.6,4.2-0.6,6.3c0,0-0.2,10.8,3,34.3
					c4.2,30.4,8.8,49.4,10.8,55.7c1.9,6.4,7.2,11,13.7,12.2c0,0,0.1,0,0.1,0c1.1,0.2,2.3,0.3,3.4,0.3c1.2,0,2.3-0.1,3.4-0.3
					c0.1,0,0.1,0,0.1,0c6.9-1.4,12.5-6.7,14.1-13.5c0,0,8.5-33.2,12.6-72.6c0.8-7.5,0.8-16.2,0.8-16.2c0-4.4-0.9-8.5-2.5-12.3
					C164.6,165.2,153.5,157.4,140.7,157.4L140.7,157.4z"/>
			</g>
			<g>
				<path class="st2" d="M257.9,168.4c4.1,0,7.6,2.9,8.4,6.9l4.7,32.8l11.8,72.2h-47l8.7-70.8l4.8-33.3c0.1-0.3,0.2-0.6,0.2-0.9
					C250.3,171.2,253.8,168.4,257.9,168.4 M257.9,157.3c-9.5,0-17.4,6.7-19.2,15.7h-0.1l-5,34.9l-9.9,80.9c-0.1,0.6,0.1,1.3,0.6,1.8
					c0.5,0.5,1.1,0.8,1.8,0.8h67c0.7,0,1.4-0.3,1.9-0.8c0.5-0.5,0.7-1.2,0.6-1.8l-13.5-82.5l-4.7-33.1h0
					C275.4,164.1,267.4,157.3,257.9,157.3L257.9,157.3z"/>
			</g>
			<g>
				<path class="st2" d="M197.2,298.1c-3.7,0-6.8-3-6.8-6.8V102.3c0-3.8,3-6.8,6.8-6.8s6.8,3,6.8,6.8v189.1
					C203.9,295.1,200.9,298.1,197.2,298.1z"/>
			</g>
		</g>
	</g>
</g>
<g id="Calque_2">
</g>
</svg>
