<?xml version="1.0" encoding="utf-8"?>
<!-- Generator: Adobe Illustrator 19.2.1, SVG Export Plug-In . SVG Version: 6.00 Build 0)  -->
<svg version="1.1" xmlns="http://www.w3.org/2000/svg" xmlns:xlink="http://www.w3.org/1999/xlink" x="0px" y="0px"
	 viewBox="0 0 405 500" style="enable-background:new 0 0 405 500;" xml:space="preserve">
<style type="text/css">
	.st0{fill:#FFFFFF;}
	.st1{fill:#56DC4C;}
	.st2{fill:#6D6E72;}
	.st3{fill:none;stroke:#6D6E72;stroke-width:1.1339;stroke-linecap:round;stroke-linejoin:round;stroke-miterlimit:10;}
	.st4{fill:#575D60;}
</style>
<g id="Calque_1">
	<g>
		<g>
			<path class="st0" d="M204.9,6.8c-0.8,0-1.6,0-2.4,0c-0.8,0-1.6,0-2.4,0C93,6.8,6.8,93.9,6.8,201.2c0,0.4,0,0.7,0,1.1
				c0.3,47,21,91.6,52,126.8l143.7,160.7l143.7-160.7c31.1-35.2,51.8-79.8,52-126.8c0-0.4,0-0.7,0-1.1C398.2,93.8,312,6.8,204.9,6.8
				z"/>
			<path class="st1" d="M202.5,500L53.8,333.7C19.3,294.7,0.3,248.1,0,202.4l0-1.1C0,90.3,89.8,0,200.1,0l2.5,0l2.3,0
				C315.2,0,405,90.3,405,201.2l0,1.1c-0.3,45.7-19.3,92.3-53.7,131.3L202.5,500z M200.1,13.6C97.2,13.6,13.5,97.8,13.5,201.2l0,1
				c0.2,42.4,18.1,85.9,50.3,122.4l138.6,155l138.6-155c32.2-36.5,50.1-79.9,50.3-122.3l0-1.1c0-103.5-83.7-187.7-186.5-187.7
				l-2.3,0L200.1,13.6z"/>
		</g>
		<g>
			<g>
				<g>
					<polygon class="st1" points="225.7,144.3 170.9,144.3 191.9,108 205.3,108 					"/>
				</g>
			</g>
			<g>
				<g>
					<path class="st2" d="M312,262.8h-76.9c-2.9,0-5.3-2.4-5.3-5.3s2.4-5.3,5.3-5.3H312c2.9,0,5.3,2.4,5.3,5.3
						S314.9,262.8,312,262.8z"/>
				</g>
			</g>
			<g>
				<g>
					<path class="st2" d="M162.4,262.8H85.6c-2.9,0-5.3-2.4-5.3-5.3s2.4-5.3,5.3-5.3h76.8c2.9,0,5.3,2.4,5.3,5.3
						S165.4,262.8,162.4,262.8z"/>
				</g>
			</g>
			<g>
				<g>
					<path class="st2" d="M295.1,260.7c-1.8,0-3.5-0.9-4.5-2.5L198.5,111l-90.6,146.6c-1.6,2.5-4.8,3.3-7.3,1.7
						c-2.5-1.5-3.3-4.8-1.7-7.3L194,98.1c1-1.6,2.7-2.5,4.5-2.5c0,0,0,0,0,0c1.8,0,3.5,0.9,4.5,2.5l96.6,154.4
						c1.6,2.5,0.8,5.8-1.7,7.3C297,260.4,296.1,260.7,295.1,260.7z"/>
				</g>
			</g>
			<g>
				<g>
					<path class="st2" d="M232.9,261.6c-1.7,0-3.5-0.9-4.5-2.5l-29.8-46.6l-29.8,46.3c-1.6,2.5-4.9,3.2-7.3,1.6
						c-2.5-1.6-3.2-4.9-1.6-7.4l34.3-53.3c1-1.5,2.7-2.4,4.5-2.4h0c1.8,0,3.5,0.9,4.5,2.5l34.2,53.6c1.6,2.5,0.9,5.8-1.6,7.4
						C234.9,261.3,233.9,261.6,232.9,261.6z"/>
				</g>
			</g>
			<g>
				<g>
					<path class="st2" d="M235.7,165.4c-1.8,0-3.5-0.9-4.5-2.5l-49.8-79.1c-1.6-2.5-0.8-5.8,1.7-7.3c2.5-1.6,5.8-0.8,7.3,1.7
						l49.8,79.1c1.6,2.5,0.8,5.8-1.7,7.3C237.7,165.1,236.7,165.4,235.7,165.4z"/>
				</g>
			</g>
			<g>
				<g>
					<path class="st2" d="M163.6,163.3c-1,0-1.9-0.3-2.8-0.8c-2.5-1.5-3.3-4.8-1.7-7.3l47.5-77.1c1.5-2.5,4.8-3.3,7.3-1.7
						c2.5,1.5,3.3,4.8,1.7,7.3l-47.5,77.1C167.1,162.4,165.3,163.3,163.6,163.3z"/>
				</g>
			</g>
		</g>
		<g>
			<rect x="159.7" y="158.2" class="st2" width="77.1" height="9.5"/>
		</g>
	</g>
</g>
<g id="Calque_2">
</g>
</svg>
