<?xml version="1.0" encoding="utf-8"?>
<!-- Generator: Adobe Illustrator 19.2.1, SVG Export Plug-In . SVG Version: 6.00 Build 0)  -->
<svg version="1.1" xmlns="http://www.w3.org/2000/svg" xmlns:xlink="http://www.w3.org/1999/xlink" x="0px" y="0px"
	 viewBox="0 0 405 500" style="enable-background:new 0 0 405 500;" xml:space="preserve">
<style type="text/css">
	.st0{fill:#FFFFFF;}
	.st1{fill:#56DC4C;}
	.st2{fill:#6D6E72;}
	.st3{fill:none;stroke:#6D6E72;stroke-width:1.1339;stroke-linecap:round;stroke-linejoin:round;stroke-miterlimit:10;}
	.st4{fill:#575D60;}
</style>
<g id="Calque_1">
	<g>
		<path class="st0" d="M204.9,6.8c-0.8,0-1.6,0-2.4,0c-0.8,0-1.6,0-2.4,0C93,6.8,6.8,93.8,6.8,201.2c0,0.4,0,0.7,0,1.1
			c0.3,47,21,91.6,52,126.8l143.7,160.7l143.7-160.7c31.1-35.2,51.8-79.8,52-126.8c0-0.4,0-0.7,0-1.1C398.2,93.8,312,6.8,204.9,6.8z
			"/>
		<path class="st1" d="M202.5,500L53.8,333.7C19.3,294.7,0.3,248.1,0,202.4l0-1.1C0,90.3,89.8,0,200.1,0l2.5,0l2.3,0
			C315.2,0,405,90.3,405,201.2l0,1.1c-0.3,45.7-19.3,92.3-53.7,131.3L202.5,500z M200.1,13.6C97.2,13.6,13.5,97.8,13.5,201.2l0,1
			c0.2,42.4,18.1,85.9,50.3,122.4l138.6,155l138.6-155c32.2-36.5,50.1-79.9,50.3-122.3l0-1.1c0-103.5-83.7-187.7-186.5-187.7l-2.3,0
			L200.1,13.6z"/>
	</g>
	<g>
		<g>
			<g>
				<path class="st2" d="M283.8,127.3H123.2c-5.1,0-9.3-4.2-9.3-9.3s4.1-9.3,9.3-9.3h160.6c5.1,0,9.3,4.2,9.3,9.3
					S288.9,127.3,283.8,127.3z"/>
			</g>
		</g>
		<g>
			<g>
				<path class="st1" d="M324.5,210.9H80.4c-5.1,0-9.3-4.2-9.3-9.3c0-5.1,4.1-9.3,9.3-9.3h244.1c5.1,0,9.3,4.2,9.3,9.3
					C333.8,206.7,329.7,210.9,324.5,210.9z"/>
			</g>
		</g>
		<g>
			<g>
				<path class="st2" d="M120.2,294.1c-1.1,0-2.1-0.2-3.2-0.6c-4.8-1.8-7.3-7.1-5.5-11.9c0,0,15.2-41.7,30.5-83.4
					c7.7-20.9,15.3-41.7,21.1-57.4c11.9-32.1,11.9-32.1,18.6-32.1c5.1,0,9.3,4.2,9.3,9.3c0,1.6-0.4,3-1.1,4.3
					c-3.2,7.7-38.1,102.8-61,165.7C127.5,291.8,123.9,294.1,120.2,294.1z"/>
			</g>
		</g>
		<g>
			<g>
				<path class="st2" d="M286.1,294.1c-3.8,0-7.3-2.3-8.7-6.1c-23-62.9-57.8-158.1-61-165.7c-0.7-1.3-1.1-2.7-1.1-4.3
					c0-5.1,4.1-9.3,9.3-9.3c6.6,0,6.6,0,18.5,32.1c5.8,15.7,13.5,36.5,21.1,57.4c15.3,41.7,30.5,83.4,30.5,83.4
					c1.8,4.8-0.7,10.1-5.5,11.9C288.2,293.9,287.2,294.1,286.1,294.1z"/>
			</g>
		</g>
	</g>
</g>
<g id="Calque_2">
</g>
</svg>
