<?xml version="1.0" encoding="UTF-8" standalone="no"?>
<!-- Generator: Adobe Illustrator 19.2.1, SVG Export Plug-In . SVG Version: 6.00 Build 0)  -->

<svg
   xmlns:dc="http://purl.org/dc/elements/1.1/"
   xmlns:cc="http://creativecommons.org/ns#"
   xmlns:rdf="http://www.w3.org/1999/02/22-rdf-syntax-ns#"
   xmlns:svg="http://www.w3.org/2000/svg"
   xmlns="http://www.w3.org/2000/svg"
   xmlns:sodipodi="http://sodipodi.sourceforge.net/DTD/sodipodi-0.dtd"
   xmlns:inkscape="http://www.inkscape.org/namespaces/inkscape"
   version="1.1"
   x="0px"
   y="0px"
   viewBox="0 0 405 500"
   style="enable-background:new 0 0 405 500;"
   xml:space="preserve"
   id="svg2"
   inkscape:version="0.91 r13725"
   sodipodi:docname="Icones_Hikster_Juin-25.svg"><metadata
     id="metadata30"><rdf:RDF><cc:Work
         rdf:about=""><dc:format>image/svg+xml</dc:format><dc:type
           rdf:resource="http://purl.org/dc/dcmitype/StillImage" /></cc:Work></rdf:RDF></metadata><defs
     id="defs28" /><sodipodi:namedview
     pagecolor="#ffffff"
     bordercolor="#666666"
     borderopacity="1"
     objecttolerance="10"
     gridtolerance="10"
     guidetolerance="10"
     inkscape:pageopacity="0"
     inkscape:pageshadow="2"
     inkscape:window-width="1920"
     inkscape:window-height="1017"
     id="namedview26"
     showgrid="false"
     inkscape:zoom="3.776"
     inkscape:cx="100.63047"
     inkscape:cy="250"
     inkscape:window-x="3192"
     inkscape:window-y="-8"
     inkscape:window-maximized="1"
     inkscape:current-layer="svg2" /><style
     type="text/css"
     id="style4">
	.st0{fill:#FFFFFF;}
	.st1{fill:#56DC4C;}
	.st2{fill:#6D6E72;}
	.st3{fill:none;stroke:#6D6E72;stroke-width:1.1339;stroke-linecap:round;stroke-linejoin:round;stroke-miterlimit:10;}
	.st4{fill:#575D60;}
</style><g
     id="Calque_1"><g
       id="g7"><g
         id="g9"><path
           class="st0"
           d="M204.9,6.8c-0.8,0-1.6,0-2.4,0c-0.8,0-1.6,0-2.4,0C93,6.8,6.8,93.9,6.8,201.2c0,0.4,0,0.7,0,1.1     c0.3,47,21,91.6,52,126.8l143.7,160.7l143.7-160.7c31.1-35.2,51.8-79.8,52-126.8c0-0.4,0-0.7,0-1.1C398.2,93.9,312,6.8,204.9,6.8     z"
           id="path11" /><path
           class="st1"
           d="M 202.5,500 53.8,333.7 C 19.3,294.7 0.3,248.1 0,202.4 l 0,-1.1 C 0,90.3 89.8,0 200.1,0 l 2.5,0 2.4,0 c 110.2,0 200,90.3 200,201.2 l 0,1.2 c -0.2,45.6 -19.3,92.3 -53.7,131.2 z M 13.5,202.3 c 0.2,42.4 18.1,85.8 50.3,122.3 l 138.6,155 138.6,-155 c 32.2,-36.5 50.1,-79.9 50.3,-122.3 l 0,-1.1 C 391.3,97.7 307.6,13.5 204.8,13.5 l -2.3,0 -2.5,0 C 97.2,13.6 13.5,98.9 13.5,202.3 c -8.1782356,1.34894 -8.5833075,0 0,0 z"
           id="path13"
           inkscape:connector-curvature="0"
           style="fill:#56dc4c"
           sodipodi:nodetypes="cccsscssccccccccsscccc" /></g><g
         id="g15"><path
           class="st1"
           d="M202.7,331c-71.1,0-129-58-129-129.4s57.9-129.4,129-129.4s129,58,129,129.4S273.9,331,202.7,331z      M202.7,85.8c-63.7,0-115.5,51.9-115.5,115.8s51.8,115.8,115.5,115.8c63.7,0,115.5-51.9,115.5-115.8S266.4,85.8,202.7,85.8z"
           id="path17" /></g><g
         id="g19"><g
           id="g21"><path
             class="st4"
             d="M175,280.7c-3.7,0-6.8-3-6.8-6.8V141.1c0-3.8,3-6.8,6.8-6.8h39.7c22,0,39.9,17.9,39.9,40      c0,22.1-17.9,40-39.9,40l-32.9-0.1v59.6C181.7,277.7,178.7,280.7,175,280.7z M181.7,200.7l32.9,0.1c14.5,0,26.3-11.9,26.3-26.4      s-11.8-26.4-26.4-26.4h-32.9V200.7z"
             id="path23" /></g></g></g></g><g
     id="Calque_2" /></svg>