<?xml version="1.0" encoding="utf-8"?>
<!-- Generator: Adobe Illustrator 19.2.1, SVG Export Plug-In . SVG Version: 6.00 Build 0)  -->
<svg version="1.1" xmlns="http://www.w3.org/2000/svg" xmlns:xlink="http://www.w3.org/1999/xlink" x="0px" y="0px"
	 viewBox="0 0 405 500" style="enable-background:new 0 0 405 500;" xml:space="preserve">
<style type="text/css">
	.st0{fill:#FFFFFF;}
	.st1{fill:#56DC4C;}
	.st2{fill:#6D6E72;}
	.st3{fill:none;stroke:#6D6E72;stroke-width:1.1339;stroke-linecap:round;stroke-linejoin:round;stroke-miterlimit:10;}
	.st4{fill:#575D60;}
</style>
<g id="Calque_1">
	<g>
		<g>
			<path class="st0" d="M204.9,6.8c-0.8,0-1.6,0-2.4,0c-0.8,0-1.6,0-2.4,0C93,6.8,6.8,93.9,6.8,201.2c0,0.4,0,0.7,0,1.1
				c0.3,47,21,91.6,52,126.8l143.7,160.7l143.7-160.7c31.1-35.2,51.8-79.8,52-126.8c0-0.4,0-0.7,0-1.1C398.2,93.8,312,6.8,204.9,6.8
				z"/>
			<path class="st1" d="M202.5,500L53.8,333.7C19.3,294.7,0.3,248.1,0,202.4v-1.1C0,90.3,89.8,0,200.1,0l2.5,0l2.3,0
				C315.2,0,405,90.3,405,201.2v1.1c-0.3,45.7-19.3,92.3-53.7,131.3L202.5,500z M200.1,13.6C97.2,13.6,13.5,97.8,13.5,201.2v1.1
				c0.2,42.3,18.1,85.8,50.3,122.3l138.6,155l138.6-155c32.2-36.5,50.1-79.9,50.3-122.3v-1.1c0-103.5-83.7-187.7-186.5-187.7l-2.3,0
				L200.1,13.6z"/>
		</g>
		<g>
			<g>
				<g>
					<path class="st2" d="M325,162.7c-1.3-5.4-4.6-9.9-9.2-12.8v0L212.5,86.4c-0.4-0.2-0.8-0.4-1.3-0.7c-0.5-0.2-1-0.5-1.4-0.7
						c-0.8-0.3-1.6-0.6-2.3-0.8c-0.5-0.1-1-0.3-1.6-0.4c-0.7-0.1-1.5-0.2-2.2-0.3c-1.2-0.1-2.5-0.1-3.7,0c-0.7,0.1-1.5,0.2-2.3,0.3
						c-0.5,0.1-1,0.2-1.4,0.4c-0.8,0.2-1.6,0.5-2.3,0.8c-0.5,0.2-1,0.4-1.6,0.7L89.3,149c-9.7,5.9-12.7,18.7-6.8,28.4
						c2.9,4.7,7.4,8,12.7,9.3c5.4,1.3,10.9,0.4,15.5-2.5l6.3-3.9c0-0.2-0.1-0.3,0-0.4c0.1-0.8,2.7-1.3,2.8-2.1l-0.3-5.3
						c-0.2-0.5-0.4-1.1-0.7-1.6c-2-3.1-4.6-2-7.3-1l-7,4.3c-2,1.2-4.4,1.6-6.7,1c-2.3-0.6-4.3-2-5.5-4c-2.6-4.2-1.2-9.7,2.9-12.2
						l101.7-62.5l1.4-0.6c0.3-0.1,0.6-0.2,1.6-0.5c0.3-0.1,0.7-0.1,1-0.1h1.6c0.3,0,0.7,0.1,1.6,0.3c0.3,0.1,0.7,0.2,1,0.3l104.4,64
						v0c2,1.2,3.4,3.2,4,5.5c0.6,2.3,0.2,4.7-1,6.7c-2.6,4.2-8,5.5-12.2,2.9l-8.6-5.4c-2.6-0.9-5.3-1.3-6.8,1.8
						c-0.2,0.4-0.3,0.8-0.4,1.3v7.1l9.7,5.2c3.3,2.1,7,3,10.7,3c6.9,0,13.7-3.5,17.6-9.8C325.4,173.6,326.3,168,325,162.7z"/>
				</g>
			</g>
			<g>
				<g>
					<path class="st2" d="M290.7,293.9H223c-3.2,0-5.9-2.6-5.9-5.9s2.6-5.9,5.9-5.9h67.7c3.2,0,5.9,2.6,5.9,5.9
						S293.9,293.9,290.7,293.9z"/>
				</g>
			</g>
			<g>
				<g>
					<path class="st2" d="M181.8,293.9h-67.4c-3.2,0-5.9-2.6-5.9-5.9s2.6-5.9,5.9-5.9h67.4c3.2,0,5.9,2.6,5.9,5.9
						S185,293.9,181.8,293.9z"/>
				</g>
			</g>
			<g>
				<g>
					<path class="st2" d="M223,293.5c-3.2,0-5.9-2.6-5.9-5.9v-34.1c0-8.6-6.6-15.6-14.8-15.6c-8.1,0-14.8,7-14.8,15.6v34.1
						c0,3.2-2.6,5.9-5.9,5.9s-5.9-2.6-5.9-5.9v-34.1c0-15.1,11.9-27.3,26.5-27.3c14.6,0,26.5,12.2,26.5,27.3v34.1
						C228.9,290.9,226.3,293.5,223,293.5z"/>
				</g>
			</g>
			<g>
				<g>
					<path class="st2" d="M114.3,290.1c-3.2,0-5.9-2.6-5.9-5.9V178.7c0-3.2,2.6-5.9,5.9-5.9c3.2,0,5.9,2.6,5.9,5.9v105.6
						C120.2,287.5,117.6,290.1,114.3,290.1z"/>
				</g>
			</g>
			<g>
				<g>
					<path class="st2" d="M290.7,289.7c-3.2,0-5.9-2.6-5.9-5.9V176.4c0-3.2,2.6-5.9,5.9-5.9c3.2,0,5.9,2.6,5.9,5.9v107.4
						C296.6,287.1,293.9,289.7,290.7,289.7z"/>
				</g>
			</g>
		</g>
	</g>
</g>
<g id="Calque_2">
</g>
</svg>
