<?xml version="1.0" encoding="utf-8"?>
<!-- Generator: Adobe Illustrator 19.2.1, SVG Export Plug-In . SVG Version: 6.00 Build 0)  -->
<svg version="1.1" xmlns="http://www.w3.org/2000/svg" xmlns:xlink="http://www.w3.org/1999/xlink" x="0px" y="0px"
	 viewBox="0 0 405 500" style="enable-background:new 0 0 405 500;" xml:space="preserve">
<style type="text/css">
	.st0{fill:#FFFFFF;}
	.st1{fill:#56DC4C;}
	.st2{fill:#6D6E72;}
	.st3{fill:none;stroke:#6D6E72;stroke-width:1.1339;stroke-linecap:round;stroke-linejoin:round;stroke-miterlimit:10;}
	.st4{fill:#575D60;}
</style>
<g id="Calque_1">
	<g>
		<g>
			<path class="st0" d="M204.9,6.8c-0.8,0-1.6,0-2.4,0c-0.8,0-1.6,0-2.4,0C93,6.8,6.8,93.9,6.8,201.2c0,0.4,0,0.7,0,1.1
				c0.3,47,21,91.6,52,126.8l143.7,160.7l143.7-160.7c31.1-35.2,51.8-79.8,52-126.8c0-0.4,0-0.7,0-1.1C398.2,93.8,312,6.8,204.9,6.8
				z"/>
			<path class="st1" d="M202.5,500L53.8,333.7C19.3,294.7,0.3,248.1,0,202.4v-1.1C0,90.3,89.8,0,200.1,0l2.5,0l2.3,0
				C315.2,0,405,90.3,405,201.2l0,1.2c-0.2,45.6-19.3,92.2-53.7,131.2L202.5,500z M200.1,13.6C97.2,13.6,13.5,97.8,13.5,201.2v1.1
				c0.2,42.3,18.1,85.8,50.3,122.3l138.6,155l138.7-155c32.2-36.5,50.1-79.9,50.3-122.3l0-1.1c0-103.5-83.7-187.7-186.5-187.7
				l-2.3,0L200.1,13.6z"/>
		</g>
		<g>
			<g>
				<g>
					<polygon class="st1" points="153.9,153.4 153.9,315.5 248.9,315.5 248.9,150 					"/>
				</g>
			</g>
			<g>
				<g>
					<path class="st2" d="M288.9,211.5h-37.5c-3.1,0-5.6-2.5-5.6-5.6c0-3.1,2.5-5.6,5.6-5.6h37.5c0.7,0,1.3-0.6,1.3-1.4v-80.1
						c0-0.7-0.6-1.4-1.3-1.4H116.1c-0.7,0-1.4,0.6-1.4,1.4v80.1c0,0.7,0.6,1.4,1.4,1.4h37.8c3.1,0,5.6,2.5,5.6,5.6
						c0,3.1-2.5,5.6-5.6,5.6h-37.8c-6.9,0-12.6-5.6-12.6-12.6v-80.1c0-6.9,5.6-12.6,12.6-12.6h172.8c6.9,0,12.6,5.6,12.6,12.6v80.1
						C301.5,205.8,295.8,211.5,288.9,211.5z"/>
				</g>
			</g>
			<g>
				<g>
					<path class="st2" d="M259.7,155.7H143.6c-3.1,0-5.6-2.5-5.6-5.6c0-3.1,2.5-5.6,5.6-5.6h116.1c3.1,0,5.6,2.5,5.6,5.6
						C265.3,153.2,262.8,155.7,259.7,155.7z"/>
				</g>
			</g>
			<g>
				<g>
					<path class="st2" d="M248.9,321.2h-94.9c-3.1,0-5.6-2.5-5.6-5.6V153.4c0-3.1,2.5-5.6,5.6-5.6s5.6,2.5,5.6,5.6v156.5h83.7V153.4
						c0-3.1,2.5-5.6,5.6-5.6s5.6,2.5,5.6,5.6v162.1C254.5,318.6,252,321.2,248.9,321.2z"/>
				</g>
			</g>
			<g>
				<g>
					<path class="st2" d="M201.7,293.4c-3.1,0-5.6-2.5-5.6-5.6v-16.3c0-3.1,2.5-5.6,5.6-5.6s5.6,2.5,5.6,5.6v16.3
						C207.3,290.9,204.8,293.4,201.7,293.4z"/>
				</g>
			</g>
			<g>
				<g>
					<path class="st2" d="M201.7,198.1c-3.1,0-5.6-2.5-5.6-5.6v-16.3c0-3.1,2.5-5.6,5.6-5.6s5.6,2.5,5.6,5.6v16.3
						C207.3,195.5,204.8,198.1,201.7,198.1z"/>
				</g>
			</g>
			<g>
				<g>
					<path class="st2" d="M210.7,239c-4.1,5.2-11.6,6-16.7,1.9c-5.1-4.1-6-11.6-1.9-16.8s11.6-6,16.7-1.9S214.8,233.9,210.7,239z"/>
				</g>
			</g>
		</g>
	</g>
</g>
<g id="Calque_2">
</g>
</svg>
