<svg id="Calque_1" data-name="Calque 1" xmlns="http://www.w3.org/2000/svg" viewBox="0 0 405 500"><defs><style>.cls-1{fill:#fff;}.cls-2{fill:#56dc4c;}.cls-3{fill:#6d6e71;}</style></defs><title>Icones_Hikster_Juin(2)</title><path class="cls-1" d="M204.82,6.79H200C93,6.8,6.77,93.85,6.77,201.24c0,0.37,0,.74,0,1.1,0.26,47,21,91.6,52,126.79L202.39,489.83,346,329.14c31.06-35.19,51.75-79.79,52-126.79,0-.37,0-0.74,0-1.1C398,93.85,311.84,6.79,204.82,6.79Z"/><path class="cls-2" d="M202.39,500L53.73,333.67C19.33,294.68.25,248.06,0,202.39v-1.14C0,90.28,89.7,0,200,0l2.54,0,2.3,0c110.27,0,200,90.28,200,201.24v1.19c-0.25,45.63-19.32,92.24-53.7,131.21ZM200,13.58c-102.8,0-186.43,84.19-186.43,187.66v1.1c0.24,42.34,18.1,85.79,50.31,122.29l138.55,155L341,324.6c32.18-36.47,50-79.91,50.27-122.29v-1.07c0-103.48-83.64-187.66-186.44-187.66l-2.3,0Z"/><polygon class="cls-2" points="221.21 121.9 180.68 121.9 196.25 95.01 206.14 95.01 221.21 121.9"/><path class="cls-3" d="M285.12,209.68h-57a3.95,3.95,0,0,1,0-7.9h57A3.95,3.95,0,0,1,285.12,209.68Z"/><path class="cls-3" d="M174.4,209.68H117.54a3.95,3.95,0,0,1,0-7.9H174.4A3.95,3.95,0,0,1,174.4,209.68Z"/><path class="cls-3" d="M272.61,208.08a3.94,3.94,0,0,1-3.34-1.85l-68.16-109L134,205.74a3.94,3.94,0,1,1-6.69-4.15L197.76,87.65a3.94,3.94,0,0,1,3.33-1.87h0a3.94,3.94,0,0,1,3.33,1.85L275.94,202A3.95,3.95,0,0,1,272.61,208.08Z"/><path class="cls-3" d="M226.56,208.77a3.92,3.92,0,0,1-3.32-1.82l-22-34.53-22,34.31a3.94,3.94,0,1,1-6.61-4.27L197.91,163a3.94,3.94,0,0,1,3.31-1.81h0a3.94,3.94,0,0,1,3.31,1.82l25.34,39.71a4,4,0,0,1-1.19,5.45A3.87,3.87,0,0,1,226.56,208.77Z"/><path class="cls-3" d="M228.66,137.48a3.93,3.93,0,0,1-3.33-1.84L188.44,77a3.94,3.94,0,1,1,6.66-4.21L232,131.43a4,4,0,0,1-1.23,5.44A3.89,3.89,0,0,1,228.66,137.48Z"/><path class="cls-3" d="M175.23,135.95a3.89,3.89,0,0,1-2.07-.59,4,4,0,0,1-1.27-5.43l35.19-57.08A3.94,3.94,0,1,1,213.77,77l-35.19,57.08A3.93,3.93,0,0,1,175.23,135.95Z"/><path class="cls-3" d="M203.94,320.16a211.3,211.3,0,0,1-91.63-21.53,7.05,7.05,0,0,1,0-12.6c21.32-10.69,97.12-42.3,177.61-.48a7.66,7.66,0,0,1,0,13.56h0A184.58,184.58,0,0,1,203.94,320.16Zm-86.58-27.83c22.35,10.9,93.41,38.86,168.65-.07C210.84,253.43,139.72,281.44,117.35,292.33Zm170.75,3.28h0Z"/><path class="cls-3" d="M142,308a3.94,3.94,0,0,1-3.94-3.95V279a3.94,3.94,0,1,1,7.87,0v25.06A3.94,3.94,0,0,1,142,308Z"/><path class="cls-3" d="M202.46,314.59c-18.63,0-33.23-9.73-33.23-22.16s14.6-22.16,33.23-22.16,33.23,9.73,33.23,22.16S221.09,314.59,202.46,314.59Zm0-36.42c-13.75,0-25.36,6.53-25.36,14.26s11.61,14.26,25.36,14.26,25.36-6.53,25.36-14.26S216.21,278.18,202.46,278.18Z"/><path class="cls-3" d="M173.17,296.07H142a3.95,3.95,0,0,1,0-7.9h31.2A3.95,3.95,0,0,1,173.17,296.07Z"/><path class="cls-3" d="M290,296.07H233.68a3.95,3.95,0,0,1,0-7.9H290A3.95,3.95,0,0,1,290,296.07Z"/><path class="cls-3" d="M268.33,243.24h0l-135.5-.64a3.95,3.95,0,0,1,0-7.9h0l135.5,0.64A3.95,3.95,0,0,1,268.33,243.24Z"/><path class="cls-2" d="M136.2,251l-20.52.06V226.84h20.81a12.35,12.35,0,0,1,12.37,12.07C148.86,245.58,142.84,251,136.2,251Z"/><path class="cls-3" d="M115.67,255a3.95,3.95,0,0,1-3.94-3.95V226.84a3.95,3.95,0,0,1,3.94-3.95h20.81a16.38,16.38,0,0,1,16.31,16c0,8.71-7.59,16.07-16.59,16.08l-20.53.05h0Zm3.94-24.26v16.35l16.58,0h0c4.65,0,8.73-3.82,8.73-8.18a8.4,8.4,0,0,0-8.44-8.12H119.61Z"/><path class="cls-2" d="M265.59,226.9l20.52-.06V251.1H265.3A12.35,12.35,0,0,1,252.93,239C252.93,232.36,258.95,226.9,265.59,226.9Z"/><path class="cls-3" d="M286.11,255H265.3A16.38,16.38,0,0,1,249,239c0-8.71,7.59-16.07,16.59-16.07l20.52-.06h0a3.95,3.95,0,0,1,3.94,3.95V251.1A3.94,3.94,0,0,1,286.11,255Zm-20.52-24.2c-4.65,0-8.73,3.82-8.73,8.17a8.39,8.39,0,0,0,8.43,8.12h16.88V230.8l-16.57,0h0Z"/></svg>