<?xml version="1.0" encoding="utf-8"?>
<!-- Generator: Adobe Illustrator 19.2.1, SVG Export Plug-In . SVG Version: 6.00 Build 0)  -->
<svg version="1.1" xmlns="http://www.w3.org/2000/svg" xmlns:xlink="http://www.w3.org/1999/xlink" x="0px" y="0px"
	 viewBox="0 0 405 500" style="enable-background:new 0 0 405 500;" xml:space="preserve">
<style type="text/css">
	.st0{fill:#FFFFFF;}
	.st1{fill:#56DC4C;}
	.st2{fill:#6D6E72;}
	.st3{fill:none;stroke:#6D6E72;stroke-width:1.1339;stroke-linecap:round;stroke-linejoin:round;stroke-miterlimit:10;}
	.st4{fill:#575D60;}
</style>
<g id="Calque_1">
</g>
<g id="Calque_2">
	<g>
		<g>
			<path class="st0" d="M204.9,6.8c-0.8,0-1.6,0-2.4,0c-0.8,0-1.6,0-2.4,0C93,6.8,6.8,93.9,6.8,201.2c0,0.4,0,0.7,0,1.1
				c0.3,47,21,91.6,52,126.8l143.7,160.7l143.7-160.7c31.1-35.2,51.8-79.8,52-126.8c0-0.4,0-0.7,0-1.1C398.2,93.9,312,6.8,204.9,6.8
				z"/>
			<path class="st1" d="M202.5,500L53.8,333.7C19.3,294.7,0.3,248.1,0,202.4v-1.1C0,90.3,89.8,0,200.1,0l2.5,0l2.4,0
				C315.2,0,405,90.3,405,201.2l0,1.2c-0.2,45.6-19.3,92.3-53.7,131.2L202.5,500z M200.1,13.6C97.2,13.6,13.5,97.8,13.5,201.2v1.1
				c0.2,42.4,18.1,85.8,50.3,122.3l138.6,155l138.7-155c32.2-36.5,50.1-79.9,50.3-122.3l0-1.1c0-103.5-83.7-187.7-186.5-187.7
				l-2.3,0L200.1,13.6z"/>
		</g>
		<g>
			<g>
				<g>
					<path class="st1" d="M218.1,124l-14.3-15.6l-26.1,4l-20.9,26.1c0,0,29.1-3.3,40,10.6c2.1,2.6,3.8,4.7,5.4,6.4
						c0.5,0.6,1,1.1,1.6,1.6c4.1,4,7.2,4.9,12.6,4.9c10.5,0,19-8.6,19-19.1C235.3,133,227.8,125,218.1,124z"/>
				</g>
			</g>
			<g>
				<g>
					<path class="st2" d="M210.3,279.4c-0.7,0-1.4,0-2.2-0.1c-4.5-0.5-11.2-2.7-17.1-10.7l-1.7-2.4c-10.7-14.6-14.4-19.6-30.6-19.9
						l-59.6,0.4c-12.5,0-22.6-10.1-22.6-22.6c0-4.5,1.2-8.7,3.5-12.2c0.8-1.5,3-5.5,96.4-101.8l1.6-1.7c10.3-10.4,28.6-9.8,38.1,1.1
						l12.7,13c27.1,27.6,77,78.5,95.6,97.3c2.7,3.4,3.9,7,3.9,10.6c0,9-7.3,16.4-16.4,16.4c-4.1,0-8-1.5-11-4.3
						c-6.6-6-14.4-12.9-14.4-12.9c-1.9-1.7-9-6.6-17.3,1.9c-12.6,13-41.3,40.5-41.6,40.8C226.8,273.2,219.8,279.4,210.3,279.4z
						 M158.9,233.6L158.9,233.6c22.6,0.4,29.4,9.7,40.7,25.1l1.7,2.4c2.5,3.5,5.2,5.3,8.1,5.6c5,0.6,9.8-3.5,9.8-3.6
						c0.1-0.1,28.6-27.5,41.1-40.3c12.9-13.3,27.9-8.8,34.8-2.5l0,0c0,0,7.8,6.9,14.4,13c2.2,2,6.2,0.2,6.2-2.8
						c0-0.9-0.3-1.7-0.7-2.3c-18.1-18.2-68-69.1-95.1-96.7l-13-13.2c-5.4-6.1-14.6-6.2-19.8-0.9l-1.6,1.6
						c-78.5,80.9-93,97.2-94.7,99.6c-1,1.6-1.5,3.5-1.5,5.5c0,5.5,4.4,9.9,9.9,9.9L158.9,233.6z"/>
				</g>
			</g>
		</g>
	</g>
</g>
</svg>
