<svg id="Calque_1" data-name="Calque 1" xmlns="http://www.w3.org/2000/svg" viewBox="0 0 405 500"><defs><style>.cls-1{fill:#fff;}.cls-2{fill:#56dc4c;}.cls-3{fill:#6d6e71;}</style></defs><title>Icones_Hikster_Juin(2)</title><path class="cls-1" d="M204.94,7.14h-4.84C93,7.14,6.76,94.13,6.76,201.45c0,0.37,0,.74,0,1.1,0.26,47,21,91.54,52,126.71L202.52,489.83,346.23,329.26c31.08-35.17,51.78-79.73,52-126.71,0-.37,0-0.74,0-1.1C398.27,94.13,312,7.14,204.94,7.14Z"/><path class="cls-2" d="M202.52,500L53.76,333.79C19.33,294.82.25,248.24,0,202.59v-1.14C0,90.57,89.76.35,200.1,0.35l2.54,0,2.31,0C315.28,0.35,405,90.56,405,201.45v1.1c-0.26,45.68-19.34,92.26-53.75,131.2ZM200.1,13.92C97.23,13.92,13.54,98,13.54,201.45v1.1c0.23,42.32,18.11,85.73,50.33,122.2L202.52,479.66,341.19,324.72c32.19-36.44,50.07-79.85,50.3-122.21v-1.07c0-103.4-83.69-187.53-186.55-187.53l-2.31,0Z"/><polygon class="cls-2" points="147.58 94.99 238.13 157.76 147.58 202.06 147.58 94.99"/><path class="cls-3" d="M147.58,299.84a5.51,5.51,0,0,1-5.5-5.52V202.19c0-.08,0-0.15,0-0.24V95a5.5,5.5,0,0,1,8.7-4.49l88,62.76a5.52,5.52,0,0,1-.72,9.42l-85,42.78v88.86A5.51,5.51,0,0,1,147.58,299.84Zm5.5-194.15v87.43l71.86-36.18Z"/><ellipse class="cls-1" cx="236.43" cy="268.42" rx="23.56" ry="23.6"/><path class="cls-3" d="M236.43,297.53a29.12,29.12,0,1,1,29.06-29.12A29.12,29.12,0,0,1,236.43,297.53Zm0-47.21a18.09,18.09,0,1,0,18.05,18.09A18.09,18.09,0,0,0,236.43,250.33Z"/><path class="cls-3" d="M283.68,300.32H128.27a5.52,5.52,0,0,1,0-11H283.68A5.52,5.52,0,0,1,283.68,300.32Z"/></svg>