<?xml version="1.0" encoding="utf-8"?>
<!-- Generator: Adobe Illustrator 19.2.1, SVG Export Plug-In . SVG Version: 6.00 Build 0)  -->
<svg version="1.1" xmlns="http://www.w3.org/2000/svg" xmlns:xlink="http://www.w3.org/1999/xlink" x="0px" y="0px"
	 viewBox="0 0 405 500" style="enable-background:new 0 0 405 500;" xml:space="preserve">
<style type="text/css">
	.st0{fill:#FFFFFF;}
	.st1{fill:#56DC4C;}
	.st2{fill:#6D6E72;}
	.st3{fill:none;stroke:#6D6E72;stroke-width:1.1339;stroke-linecap:round;stroke-linejoin:round;stroke-miterlimit:10;}
	.st4{fill:#575D60;}
</style>
<g id="Calque_1">
	<g>
		<g>
			<path class="st0" d="M204.9,6.8c-0.8,0-1.6,0-2.4,0c-0.8,0-1.6,0-2.4,0C93,6.8,6.8,93.9,6.8,201.2c0,0.4,0,0.7,0,1.1
				c0.3,47,21,91.6,52,126.8l143.7,160.7l143.7-160.7c31.1-35.2,51.8-79.8,52-126.8c0-0.4,0-0.7,0-1.1C398.2,93.8,312,6.8,204.9,6.8
				z"/>
			<path class="st1" d="M202.5,500L53.8,333.7C19.3,294.7,0.3,248.1,0,202.4l0-1.1C0,90.3,89.8,0,200.1,0l2.5,0l2.3,0
				C315.2,0,405,90.3,405,201.2v1.1c-0.3,45.7-19.3,92.3-53.7,131.3L202.5,500z M200.1,13.6C97.2,13.6,13.6,97.8,13.6,201.2l0,1.1
				c0.2,42.4,18.1,85.8,50.3,122.3l138.6,155l138.6-155c32.2-36.5,50.1-79.9,50.3-122.3v-1.1c0-103.5-83.7-187.7-186.5-187.7l-2.3,0
				L200.1,13.6z"/>
		</g>
		<g>
			<g>
				<g>
					<polygon class="st1" points="159.6,254 158.8,283.2 171.4,281.9 169,252.1 163.7,250.7 					"/>
				</g>
			</g>
			<g>
				<g>
					<polygon class="st1" points="236.5,255 237.8,283.2 246.4,283.2 247.5,256.3 244.7,251.2 					"/>
				</g>
			</g>
			<g>
				<g>
					<path class="st2" d="M273.4,326.7H131.6c-2,0-3.7-1.6-3.7-3.7s1.6-3.7,3.7-3.7h141.7c2,0,3.7,1.6,3.7,3.7
						S275.4,326.7,273.4,326.7z"/>
				</g>
			</g>
			<g>
				<g>
					<path class="st2" d="M233,206.6l26.4,23.8c1.1,1.5,1.9,4.1,1.9,6.3V306h-37.6v-28.7c0-10.9-8.9-19.8-19.8-19.8
						c-10.9,0-19.8,8.9-19.8,19.8V306h-37.6v-70.2c0-2.1,0.7-3.9,2-5.4l21.9-23.7H233 M235.8,199.3h-68.6l-24,26.1
						c-2.4,2.9-3.9,6.3-3.9,10.4v77.5h52.2v-36.1c0-6.9,5.6-12.5,12.5-12.5c6.9,0,12.5,5.6,12.5,12.5v36.1h52.2v-76.6
						c0-4.1-1.5-8.4-3.9-11.3L235.8,199.3L235.8,199.3z"/>
				</g>
			</g>
			<g>
				<g>
					<path class="st2" d="M171.4,286.8h-12.6c-2,0-3.7-1.6-3.7-3.7V257c0-5.5,4.5-10,10-10c5.5,0,10,4.5,10,10v0l0,26.1
						C175.1,285.2,173.4,286.8,171.4,286.8z M162.5,279.5h5.3l0-22.5c0-1.5-1.2-2.7-2.7-2.7c-1.5,0-2.7,1.2-2.7,2.7V279.5z
						 M171.4,257L171.4,257L171.4,257z"/>
				</g>
			</g>
			<g>
				<g>
					<path class="st2" d="M248.7,286.8h-12.6c-2,0-3.7-1.6-3.7-3.7V257c0-5.5,4.5-10,10-10s10,4.5,10,10v0l0,26.1
						C252.4,285.2,250.7,286.8,248.7,286.8z M239.8,279.5h5.3l0-22.5c0-1.5-1.2-2.7-2.6-2.7c-1.5,0-2.7,1.2-2.7,2.7V279.5z
						 M248.7,257L248.7,257L248.7,257z"/>
				</g>
			</g>
			<g>
				<g>
					<path class="st2" d="M235,194.9h-66c-1.1,0-2.1-0.5-2.8-1.3c-0.7-0.8-1-1.9-0.8-2.9l5.3-34.4c0.2-1.6,1.5-2.8,3-3.1
						c1.5-0.2,3.1,0.5,3.8,2l5.9,11.6l0.2-13.7c0-2,1.6-3.6,3.6-3.6h31.4c2,0,3.7,1.6,3.7,3.7v11.2l3.9-8.6c0.7-1.5,2.2-2.3,3.8-2.1
						c1.6,0.2,2.9,1.5,3.1,3l5.5,34c0.2,1.1-0.1,2.1-0.8,3C237.1,194.4,236.1,194.9,235,194.9z M173.3,187.5h57.5l-2.8-17.7l-5.8,13
						c-0.7,1.6-2.4,2.5-4.1,2.1c-1.7-0.4-2.9-1.9-2.9-3.6v-24.7h-24.2l-0.3,24.9c0,1.7-1.2,3.1-2.8,3.5c-1.6,0.4-3.3-0.4-4.1-1.9
						l-7.5-14.7L173.3,187.5z"/>
				</g>
			</g>
			<g>
				<g>
					<path class="st2" d="M211.9,145.9h-18c-1.1,0-2.1-0.5-2.8-1.3c-0.7-0.8-1-1.9-0.8-3l8.3-45c0.3-1.7,1.8-3,3.5-3c0,0,0,0,0.1,0
						c1.7,0,3.2,1.2,3.6,2.9l9.7,45c0.2,1.1,0,2.2-0.7,3.1C214,145.4,213,145.9,211.9,145.9z M198.3,138.6h9.1l-4.9-22.7
						L198.3,138.6z"/>
				</g>
			</g>
			<g>
				<g>
					<path class="st2" d="M202,85.7c-2,0-3.7-1.6-3.7-3.7v-21c0-2,1.6-3.7,3.7-3.7c2,0,3.7,1.6,3.7,3.7v21
						C205.7,84.1,204,85.7,202,85.7z"/>
				</g>
			</g>
			<g>
				<g>
					<path class="st2" d="M210.8,72.6h-17.5c-2,0-3.7-1.6-3.7-3.7s1.6-3.7,3.7-3.7h17.5c2,0,3.7,1.6,3.7,3.7S212.8,72.6,210.8,72.6z
						"/>
				</g>
			</g>
		</g>
	</g>
</g>
<g id="Calque_2">
</g>
</svg>
