<svg id="Calque_1" data-name="Calque 1" xmlns="http://www.w3.org/2000/svg" viewBox="0 0 405 500"><defs><style>.cls-1{fill:#fff;}.cls-2{fill:#56dc4c;}.cls-3{fill:#6d6e71;}</style></defs><title>Icones_Hikster_Juin(2)</title><path class="cls-1" d="M204.93,6.78h-4.84C93,6.79,6.77,93.9,6.77,201.37c0,0.37,0,.74,0,1.1,0.26,47,21,91.67,52,126.88l143.7,160.8,143.7-160.8c31.07-35.22,51.78-79.85,52-126.88,0-.37,0-0.74,0-1.1C398.24,93.9,312,6.78,204.93,6.78Z"/><path class="cls-2" d="M202.51,500.34L53.77,333.9C19.34,294.87.25,248.22,0,202.51v-1.14C0,90.33,89.76,0,200.09,0h4.84C315.26,0,405,90.33,405,201.37v1.1c-0.25,45.75-19.34,92.4-53.74,131.39ZM200.09,13.58C97.23,13.58,13.54,97.83,13.54,201.37v1.1c0.24,42.38,18.11,85.85,50.34,122.38L202.51,480,341.16,324.82c32.2-36.49,50.07-80,50.31-122.38v-1.06c0-103.55-83.68-187.79-186.54-187.79h-4.84Z"/><rect class="cls-1" x="197.76" y="251.17" width="7.39" height="43.63"/><path class="cls-2" d="M122,282h5V300h9.22v4.61H122V282Z"/><path class="cls-2" d="M137.72,293.32a12.84,12.84,0,0,1,.91-4.94,10.73,10.73,0,0,1,2.54-3.76,11.1,11.1,0,0,1,3.86-2.38,14.73,14.73,0,0,1,9.77,0,11.1,11.1,0,0,1,3.86,2.38,10.82,10.82,0,0,1,2.54,3.76,13.91,13.91,0,0,1,0,9.87,10.84,10.84,0,0,1-2.54,3.77,11.19,11.19,0,0,1-3.86,2.38,14.73,14.73,0,0,1-9.77,0,11.19,11.19,0,0,1-3.86-2.38,10.75,10.75,0,0,1-2.54-3.77A12.79,12.79,0,0,1,137.72,293.32Zm5.17,0a8.32,8.32,0,0,0,.49,2.93,6.65,6.65,0,0,0,1.42,2.31,6.49,6.49,0,0,0,2.22,1.52,7.89,7.89,0,0,0,5.78,0,6.38,6.38,0,0,0,2.22-1.52,6.65,6.65,0,0,0,1.42-2.31,8.87,8.87,0,0,0,0-5.84,6.65,6.65,0,0,0-1.42-2.32,6.47,6.47,0,0,0-2.22-1.52,8,8,0,0,0-5.78,0,6.58,6.58,0,0,0-2.22,1.52,6.65,6.65,0,0,0-1.42,2.32A8.39,8.39,0,0,0,142.89,293.32Z"/><path class="cls-2" d="M180.27,287.87a4.88,4.88,0,0,0-1.8-1.38A6,6,0,0,0,176,286a6.14,6.14,0,0,0-4.67,2.07,7.1,7.1,0,0,0-1.38,2.32,8.87,8.87,0,0,0,0,5.84,7.27,7.27,0,0,0,1.36,2.31,6.12,6.12,0,0,0,2,1.52,5.83,5.83,0,0,0,2.51.55,5.57,5.57,0,0,0,2.71-.64,5.32,5.32,0,0,0,1.94-1.79l4.15,3.11a8.7,8.7,0,0,1-3.64,3,11.24,11.24,0,0,1-4.53,1,13.94,13.94,0,0,1-4.88-.83,11.19,11.19,0,0,1-3.86-2.38,10.75,10.75,0,0,1-2.54-3.77,13.83,13.83,0,0,1,0-9.87,10.73,10.73,0,0,1,2.54-3.76,11.1,11.1,0,0,1,3.86-2.38,13.81,13.81,0,0,1,4.88-.83,11.72,11.72,0,0,1,2,.18,10.42,10.42,0,0,1,2,.56,9.39,9.39,0,0,1,1.93,1,7.85,7.85,0,0,1,1.66,1.57Z"/><path class="cls-2" d="M194.79,282h4.12l9.83,22.67h-5.62l-1.94-4.8h-8.78l-1.88,4.8H185Zm1.92,6.6-2.75,7h5.52Z"/><path class="cls-2" d="M212.44,286.39H206V282h17.88v4.42h-6.45v18.26h-5V286.39Z"/><path class="cls-2" d="M226.32,282h5v22.67h-5V282Z"/><path class="cls-2" d="M234.61,293.32a12.84,12.84,0,0,1,.91-4.94,10.73,10.73,0,0,1,2.54-3.76,11.1,11.1,0,0,1,3.86-2.38,14.73,14.73,0,0,1,9.77,0,11.1,11.1,0,0,1,3.86,2.38,10.82,10.82,0,0,1,2.54,3.76,13.91,13.91,0,0,1,0,9.87,10.84,10.84,0,0,1-2.54,3.77,11.19,11.19,0,0,1-3.86,2.38,14.73,14.73,0,0,1-9.77,0,11.19,11.19,0,0,1-3.86-2.38,10.75,10.75,0,0,1-2.54-3.77A12.79,12.79,0,0,1,234.61,293.32Zm5.17,0a8.32,8.32,0,0,0,.49,2.93,6.65,6.65,0,0,0,1.42,2.31,6.49,6.49,0,0,0,2.22,1.52,7.89,7.89,0,0,0,5.78,0,6.38,6.38,0,0,0,2.22-1.52,6.65,6.65,0,0,0,1.42-2.31,8.87,8.87,0,0,0,0-5.84,6.65,6.65,0,0,0-1.42-2.32,6.47,6.47,0,0,0-2.22-1.52,8,8,0,0,0-5.78,0,6.58,6.58,0,0,0-2.22,1.52,6.65,6.65,0,0,0-1.42,2.32A8.39,8.39,0,0,0,239.78,293.32Z"/><path class="cls-2" d="M262.38,282h6.77l9.61,15.76h0.06V282h5v22.67h-6.51l-9.86-16.14h-0.06v16.14h-5V282Z"/><path class="cls-3" d="M242.65,245.44h0l-74.2-.46a2.64,2.64,0,0,1,0-5.28h0l74.2,0.46A2.64,2.64,0,0,1,242.65,245.44Z"/><path class="cls-3" d="M144.79,253.86a2.64,2.64,0,0,1-1.86-.77,2.66,2.66,0,0,1-.77-1.87v-17.3a2.63,2.63,0,0,1,2.63-2.64h14.84a11.5,11.5,0,0,1,11.45,11.25,11.63,11.63,0,0,1-11.65,11.28l-14.64,0h0Zm2.63-17.3v12l12,0h0a6.38,6.38,0,0,0,6.4-6,6.17,6.17,0,0,0-6.19-6H147.42Z"/><path class="cls-3" d="M266.31,253.86H251.48A11.5,11.5,0,0,1,240,242.61a11.63,11.63,0,0,1,11.65-11.28l14.64,0h0a2.64,2.64,0,0,1,1.86.77,2.66,2.66,0,0,1,.77,1.87v17.3A2.63,2.63,0,0,1,266.31,253.86Zm-2.63-17.29-12,0h0a6.37,6.37,0,0,0-6.39,6,6.17,6.17,0,0,0,6.19,6h12.21v-12Z"/><path class="cls-3" d="M206.29,218.13a145.26,145.26,0,0,1-63-14.8,4.85,4.85,0,0,1,0-8.66c14.65-7.35,66.77-29.08,122.08-.33a5.26,5.26,0,0,1,0,9.32h0A126.88,126.88,0,0,1,206.29,218.13ZM146.78,199c15.37,7.48,64.2,26.72,115.93,0C211,172.25,162.16,191.51,146.78,199Zm117.37,2.26h0Z"/><path class="cls-3" d="M163.7,209.77a2.71,2.71,0,0,1-2.7-2.71V189.83a2.7,2.7,0,1,1,5.41,0v17.23A2.71,2.71,0,0,1,163.7,209.77Z"/><path class="cls-3" d="M205.28,214.3c-12.8,0-22.84-6.69-22.84-15.23s10-15.23,22.84-15.23,22.84,6.69,22.84,15.23S218.08,214.3,205.28,214.3Zm0-25c-9.45,0-17.43,4.49-17.43,9.8s8,9.8,17.43,9.8,17.43-4.49,17.43-9.8S214.72,189.27,205.28,189.27Z"/><path class="cls-3" d="M185.14,201.57H163.7a2.71,2.71,0,0,1,0-5.43h21.44A2.71,2.71,0,0,1,185.14,201.57Z"/><path class="cls-3" d="M265.46,201.57H226.73a2.71,2.71,0,0,1,0-5.43h38.72A2.71,2.71,0,0,1,265.46,201.57Z"/><path class="cls-1" d="M226.62,119.39L214.27,103a4.55,4.55,0,0,1,.93-6.33h0a4.51,4.51,0,0,1,6.31.93l13.37,17.49"/><path class="cls-3" d="M210.59,100.3a7.39,7.39,0,0,1,.08-1.09,7.3,7.3,0,0,1,13.09-3.31l13.35,17.45-4.44,3.42L219.29,99.29a1.74,1.74,0,0,0-2.42-.39,1.69,1.69,0,0,0-.67,1.13,1.67,1.67,0,0,0,.31,1.28l12.34,16.4-4.46,3.38L212,104.67A7.3,7.3,0,0,1,210.59,100.3Z"/><ellipse class="cls-1" cx="239.89" cy="138.36" rx="25.09" ry="25.18"/><path class="cls-3" d="M212,138.36a27.89,27.89,0,1,1,27.89,28A28,28,0,0,1,212,138.36Zm50.18,0a22.29,22.29,0,1,0-22.29,22.37A22.36,22.36,0,0,0,262.18,138.36Z"/><ellipse class="cls-1" cx="167.72" cy="138.36" rx="25.09" ry="25.18"/><path class="cls-3" d="M139.83,138.36a27.89,27.89,0,1,1,27.89,28A28,28,0,0,1,139.83,138.36Zm50.18,0a22.29,22.29,0,1,0-22.29,22.37A22.36,22.36,0,0,0,190,138.36Z"/><rect class="cls-1" x="213.43" y="116.55" width="9.65" height="43.72" rx="0.34" ry="0.34" transform="translate(436.5 276.82) rotate(180)"/><path class="cls-3" d="M210.63,155.59V121.23a7.49,7.49,0,0,1,7.47-7.49h0.31a7.49,7.49,0,0,1,7.47,7.49v34.35A7.62,7.62,0,0,1,210.63,155.59Zm9.64-34.35a1.9,1.9,0,0,0-1.87-1.88H218.1a1.9,1.9,0,0,0-1.87,1.88v34.35a1.9,1.9,0,0,0,1.87,1.88,2,2,0,0,0,2.18-1.88V121.23Z"/><rect class="cls-1" x="203.41" y="116.55" width="9.65" height="43.72" rx="0.34" ry="0.34" transform="translate(416.47 276.82) rotate(180)"/><path class="cls-3" d="M200.61,155.59V121.23a7.49,7.49,0,0,1,7.47-7.49h0.3a7.49,7.49,0,0,1,7.47,7.49v34.35A7.62,7.62,0,0,1,200.61,155.59Zm9.65-34.35a1.88,1.88,0,0,0-1.87-1.88h-0.3a1.88,1.88,0,0,0-1.87,1.88v34.35a1.9,1.9,0,0,0,1.87,1.88,2,2,0,0,0,2.18-1.88V121.23Z"/><rect class="cls-1" x="193.77" y="116.55" width="9.65" height="43.72" rx="0.34" ry="0.34" transform="translate(397.18 276.82) rotate(-180)"/><path class="cls-3" d="M191,155.59V121.23a7.49,7.49,0,0,1,7.47-7.49h0.31a7.49,7.49,0,0,1,7.47,7.49v34.35A7.62,7.62,0,0,1,191,155.59Zm9.64-34.35a1.9,1.9,0,0,0-1.87-1.88h-0.31a1.9,1.9,0,0,0-1.87,1.88v34.35a1.9,1.9,0,0,0,1.87,1.88,2,2,0,0,0,2.18-1.88V121.23Z"/><rect class="cls-1" x="184.4" y="116.55" width="9.65" height="43.72" rx="0.34" ry="0.34" transform="translate(378.44 276.82) rotate(180)"/><path class="cls-3" d="M181.6,155.59V121.23a7.49,7.49,0,0,1,7.47-7.49h0.31a7.49,7.49,0,0,1,7.47,7.49v34.35A7.62,7.62,0,0,1,181.6,155.59Zm9.65-34.35a1.9,1.9,0,0,0-1.87-1.88h-0.31a1.9,1.9,0,0,0-1.87,1.88v34.35a1.9,1.9,0,0,0,1.87,1.88,2,2,0,0,0,2.18-1.88V121.23Z"/><ellipse class="cls-1" cx="239.89" cy="138.36" rx="15.21" ry="15.27"/><path class="cls-3" d="M221.88,138.36a18,18,0,1,1,18,18.08A18.06,18.06,0,0,1,221.88,138.36Zm30.43,0a12.42,12.42,0,1,0-12.42,12.46A12.45,12.45,0,0,0,252.31,138.36Z"/><ellipse class="cls-1" cx="167.72" cy="138.36" rx="15.21" ry="15.27"/><path class="cls-3" d="M149.7,138.36a18,18,0,1,1,18,18.08A18.06,18.06,0,0,1,149.7,138.36Zm30.43,0a12.42,12.42,0,1,0-12.42,12.46A12.45,12.45,0,0,0,180.13,138.36Z"/></svg>