<?xml version="1.0" encoding="utf-8"?>
<!-- Generator: Adobe Illustrator 19.2.1, SVG Export Plug-In . SVG Version: 6.00 Build 0)  -->
<svg version="1.1" xmlns="http://www.w3.org/2000/svg" xmlns:xlink="http://www.w3.org/1999/xlink" x="0px" y="0px"
	 viewBox="0 0 405 500" style="enable-background:new 0 0 405 500;" xml:space="preserve">
<style type="text/css">
	.st0{fill:#FFFFFF;}
	.st1{fill:#56DC4C;}
	.st2{fill:#6D6E72;}
	.st3{fill:none;stroke:#6D6E72;stroke-width:1.1339;stroke-linecap:round;stroke-linejoin:round;stroke-miterlimit:10;}
	.st4{fill:#575D60;}
</style>
<g id="Calque_1">
	<g>
		<g>
			<path class="st0" d="M204.9,6.8c-0.8,0-1.6,0-2.4,0c-0.8,0-1.6,0-2.4,0C93,6.8,6.8,93.9,6.8,201.2c0,0.4,0,0.7,0,1.1
				c0.3,47,21,91.6,52,126.8l143.7,160.7l143.7-160.7c31.1-35.2,51.8-79.8,52-126.8c0-0.4,0-0.7,0-1.1C398.2,93.8,312,6.8,204.9,6.8
				z"/>
			<path class="st1" d="M202.5,500L53.8,333.7C19.3,294.7,0.3,248.1,0,202.4v-1.1C0,90.3,89.8,0,200.1,0l2.5,0l2.3,0
				C315.2,0,405,90.3,405,201.2v1.1c-0.3,45.7-19.3,92.3-53.7,131.3L202.5,500z M200.1,13.6C97.2,13.6,13.5,97.8,13.5,201.2v1.1
				c0.2,42.3,18.1,85.8,50.3,122.3l138.6,155l138.7-155c32.2-36.5,50.1-79.9,50.3-122.3v-1.1c0-103.5-83.7-187.7-186.5-187.7l-2.3,0
				L200.1,13.6z"/>
		</g>
		<g>
			<g>
				<g>
					<path class="st2" d="M202.5,88.5c62.4,0,113.2,50.9,113.2,113.5s-50.8,113.5-113.2,113.5c-62.4,0-113.2-50.9-113.2-113.5
						S140.1,88.5,202.5,88.5 M202.5,74.5c-70.2,0-127.1,57.1-127.1,127.5s56.9,127.5,127.1,127.5c70.2,0,127.1-57.1,127.1-127.5
						S272.7,74.5,202.5,74.5L202.5,74.5z"/>
				</g>
			</g>
			<g>
				<g>
					<path class="st1" d="M201.9,147.3L201.9,147.3C201.9,147.3,201.9,147.3,201.9,147.3 M201.9,133.4c-7.7,0-14,6.3-14,14.1
						c0,7.8,6.3,14.1,14,14.1c7.7,0,14-6.3,14-14.1C215.9,139.7,209.6,133.4,201.9,133.4L201.9,133.4z"/>
				</g>
				<g>
					<path class="st1" d="M202,178.1c-0.1,0-0.1,0-0.2,0h-21c-2.8,0-5.1,2.3-5.1,5.1c0,2.8,2.3,5.1,5.1,5.1h9.8
						c0,0.4-0.1,0.8-0.1,1.2v64.6c0,0.4,0.1,0.9,0.1,1.3h-9.8c-2.8,0-5.1,2.3-5.1,5.1c0,2.8,2.3,5.1,5.1,5.1h43.2
						c2.8,0,5.1-2.3,5.1-5.1c0-2.8-2.3-5.1-5.1-5.1h-10.7c0-0.4,0.1-0.9,0.1-1.3v-64.6c0-1.2-0.1-5.3-0.1-6.5c0-2.8-1.7-5-4.5-5
						h-6.7C202.2,178.2,202.1,178.1,202,178.1L202,178.1z"/>
				</g>
			</g>
		</g>
	</g>
</g>
<g id="Calque_2">
</g>
</svg>
