<?xml version="1.0" encoding="utf-8"?>
<!-- Generator: Adobe Illustrator 19.2.1, SVG Export Plug-In . SVG Version: 6.00 Build 0)  -->
<svg version="1.1" xmlns="http://www.w3.org/2000/svg" xmlns:xlink="http://www.w3.org/1999/xlink" x="0px" y="0px"
	 viewBox="0 0 405 500" style="enable-background:new 0 0 405 500;" xml:space="preserve">
<style type="text/css">
	.st0{fill:#FFFFFF;}
	.st1{fill:#56DC4C;}
	.st2{fill:#6D6E72;}
	.st3{fill:none;stroke:#6D6E72;stroke-width:1.1339;stroke-linecap:round;stroke-linejoin:round;stroke-miterlimit:10;}
	.st4{fill:#575D60;}
</style>
<g id="Calque_1">
	<g>
		<g>
			<path class="st0" d="M204.9,6.8c-0.8,0-1.6,0-2.4,0c-0.8,0-1.6,0-2.4,0C93,6.8,6.8,93.9,6.8,201.2c0,0.4,0,0.7,0,1.1
				c0.3,47,21,91.6,52,126.8l143.7,160.7l143.7-160.7c31.1-35.2,51.8-79.8,52-126.8c0-0.4,0-0.7,0-1.1C398.2,93.8,312,6.8,204.9,6.8
				z"/>
			<path class="st1" d="M202.5,500L53.8,333.7C19.3,294.7,0.3,248.1,0,202.4l0-1.1C0,90.3,89.8,0,200.1,0l2.5,0l2.3,0
				C315.2,0,405,90.3,405,201.2l0,1.1c-0.3,45.7-19.3,92.3-53.7,131.3L202.5,500z M200.1,13.6C97.2,13.6,13.5,97.8,13.5,201.2l0,1
				c0.2,42.4,18.1,85.9,50.3,122.4l138.6,155l138.6-155c32.2-36.5,50.1-79.9,50.3-122.3l0-1.1c0-103.5-83.7-187.7-186.5-187.7
				l-2.3,0L200.1,13.6z"/>
		</g>
		<g>
			<g>
				<g>
					<ellipse class="st1" cx="202.4" cy="187.7" rx="15.3" ry="15.3"/>
				</g>
			</g>
			<g>
				<g>
					<path class="st2" d="M305,188.1c-3.7,0-7.4-1-10.7-3l-92.4-56.8l-91.1,56c-4.7,2.9-10.2,3.8-15.5,2.5
						c-5.4-1.3-9.9-4.6-12.7-9.3c-5.9-9.7-2.9-22.4,6.8-28.4l103.1-63.2c0.6-0.3,1.1-0.5,1.6-0.7c0.7-0.3,1.5-0.6,2.3-0.8
						c0.5-0.1,0.9-0.3,1.4-0.4c0.8-0.2,1.6-0.3,2.3-0.3c1.2-0.1,2.5-0.1,3.7,0c0.7,0.1,1.5,0.2,2.2,0.3c0.6,0.1,1.1,0.3,1.6,0.4
						c0.7,0.2,1.5,0.5,2.3,0.8c0.5,0.2,1,0.4,1.4,0.7c0.5,0.2,0.9,0.4,1.3,0.7l103.2,63.4v0c4.7,2.9,7.9,7.4,9.2,12.8
						c1.3,5.4,0.4,10.9-2.4,15.6C318.7,184.6,311.9,188.1,305,188.1z M201.8,114.5l98.5,60.6c4.2,2.6,9.6,1.2,12.2-2.9
						c1.2-2,1.6-4.4,1-6.7c-0.6-2.3-2-4.3-4-5.5v0l-104.4-64c-0.3-0.1-0.6-0.2-1-0.3c-1-0.2-1.3-0.3-1.6-0.3H201
						c-0.3,0-0.7,0.1-1,0.1c-0.9,0.3-1.3,0.4-1.6,0.5l-1.4,0.6L95.4,159c-4.2,2.6-5.5,8-2.9,12.2c1.2,2,3.2,3.4,5.5,4
						c2.3,0.6,4.7,0.2,6.7-1L201.8,114.5z"/>
				</g>
			</g>
			<g>
				<g>
					<path class="st2" d="M290.7,293.9H223c-3.2,0-5.9-2.6-5.9-5.9c0-3.2,2.6-5.9,5.9-5.9h67.7c3.2,0,5.9,2.6,5.9,5.9
						C296.6,291.3,293.9,293.9,290.7,293.9z"/>
				</g>
			</g>
			<g>
				<g>
					<path class="st2" d="M181.8,293.9h-67.4c-3.2,0-5.9-2.6-5.9-5.9c0-3.2,2.6-5.9,5.9-5.9h67.4c3.2,0,5.9,2.6,5.9,5.9
						C187.6,291.3,185,293.9,181.8,293.9z"/>
				</g>
			</g>
			<g>
				<g>
					<path class="st2" d="M223,293.5c-3.2,0-5.9-2.6-5.9-5.9v-34.1c0-8.6-6.6-15.6-14.8-15.6c-8.1,0-14.8,7-14.8,15.6v34.1
						c0,3.2-2.6,5.9-5.9,5.9s-5.9-2.6-5.9-5.9v-34.1c0-15.1,11.9-27.3,26.5-27.3c14.6,0,26.5,12.2,26.5,27.3v34.1
						C228.9,290.9,226.3,293.5,223,293.5z"/>
				</g>
			</g>
			<g>
				<g>
					<path class="st2" d="M202.4,212.6c-13.7,0-24.8-11.1-24.8-24.8s11.1-24.8,24.8-24.8s24.8,11.1,24.8,24.8
						S216.1,212.6,202.4,212.6z M202.4,174.6c-7.2,0-13.1,5.9-13.1,13.1s5.9,13.1,13.1,13.1s13.1-5.9,13.1-13.1
						S209.6,174.6,202.4,174.6z"/>
				</g>
			</g>
			<g>
				<g>
					<path class="st2" d="M114.3,290.1c-3.2,0-5.9-2.6-5.9-5.9V178.7c0-3.2,2.6-5.9,5.9-5.9c3.2,0,5.9,2.6,5.9,5.9v105.6
						C120.2,287.5,117.6,290.1,114.3,290.1z"/>
				</g>
			</g>
			<g>
				<g>
					<path class="st2" d="M290.7,289.7c-3.2,0-5.9-2.6-5.9-5.9V176.4c0-3.2,2.6-5.9,5.9-5.9c3.2,0,5.9,2.6,5.9,5.9v107.4
						C296.6,287.1,293.9,289.7,290.7,289.7z"/>
				</g>
			</g>
		</g>
	</g>
</g>
<g id="Calque_2">
</g>
</svg>
