<?xml version="1.0" encoding="utf-8"?>
<!-- Generator: Adobe Illustrator 19.2.1, SVG Export Plug-In . SVG Version: 6.00 Build 0)  -->
<svg version="1.1" xmlns="http://www.w3.org/2000/svg" xmlns:xlink="http://www.w3.org/1999/xlink" x="0px" y="0px"
	 viewBox="0 0 405 500" style="enable-background:new 0 0 405 500;" xml:space="preserve">
<style type="text/css">
	.st0{fill:#FFFFFF;}
	.st1{fill:#56DC4C;}
	.st2{fill:#6D6E72;}
	.st3{fill:none;stroke:#6D6E72;stroke-width:1.1339;stroke-linecap:round;stroke-linejoin:round;stroke-miterlimit:10;}
	.st4{fill:#575D60;}
</style>
<g id="Calque_1">
	<g>
		<g>
			<path class="st0" d="M204.9,6.8c-0.8,0-1.6,0-2.4,0c-0.8,0-1.6,0-2.4,0C93,6.8,6.8,93.9,6.8,201.2c0,0.4,0,0.7,0,1.1
				c0.3,47,21,91.6,52,126.8l143.7,160.7l143.7-160.7c31.1-35.2,51.8-79.8,52-126.8c0-0.4,0-0.7,0-1.1C398.2,93.8,312,6.8,204.9,6.8
				z"/>
			<path class="st1" d="M202.5,500L53.8,333.7C19.3,294.7,0.3,248.1,0,202.4l0-1.1C0,90.3,89.8,0,200.1,0l2.5,0l2.3,0
				C315.2,0,405,90.3,405,201.2l0,1.1c-0.3,45.7-19.3,92.3-53.7,131.3L202.5,500z M200.1,13.6C97.2,13.6,13.5,97.8,13.5,201.2l0,1
				c0.2,42.4,18.1,85.9,50.3,122.4l138.6,155l138.6-155c32.2-36.5,50.1-79.9,50.3-122.3l6.8-1.1h-6.8
				c0-103.5-83.7-187.7-186.5-187.7l-2.3,0L200.1,13.6z"/>
		</g>
		<g>
			<g>
				<g>
					<ellipse class="st1" cx="208.7" cy="294.4" rx="18" ry="18"/>
				</g>
			</g>
			<g>
				<g>
					<g>
						<path class="st2" d="M208.7,324c-16.3,0-29.5-13.3-29.5-29.6c0-16.3,13.2-29.6,29.5-29.6c16.3,0,29.5,13.3,29.5,29.6
							C238.2,310.7,225,324,208.7,324z M208.7,279.2c-8.4,0-15.2,6.8-15.2,15.2s6.8,15.2,15.2,15.2s15.2-6.8,15.2-15.2
							S217.1,279.2,208.7,279.2z"/>
					</g>
				</g>
				<g>
					<g>
						<path class="st2" d="M150.4,257.9c-1.5,0-3-0.5-4.3-1.4c-3.2-2.4-3.8-6.9-1.4-10c15.3-20.5,38.6-32.2,64-32.2
							c21.3,0,41.4,8.3,56.5,23.5c2.8,2.8,2.8,7.3,0,10.1c-2.8,2.8-7.3,2.8-10.1,0c-12.4-12.4-28.9-19.3-46.4-19.3
							c-20.9,0-40,9.6-52.6,26.4C154.7,256.9,152.6,257.9,150.4,257.9z"/>
					</g>
				</g>
				<g>
					<g>
						<path class="st2" d="M123.3,209.9c-1.9,0-3.8-0.8-5.2-2.3c-2.7-2.9-2.5-7.4,0.3-10.1c24.6-23,56.6-35.7,90.3-35.7
							c30,0,59.4,10.4,82.7,29.2c3.1,2.5,3.6,7,1.1,10.1c-2.5,3.1-7,3.6-10.1,1.1c-21.1-17-46.6-26-73.8-26
							c-30,0-58.6,11.3-80.5,31.8C126.9,209.3,125.1,209.9,123.3,209.9z"/>
					</g>
				</g>
				<g>
					<g>
						<path class="st2" d="M90.3,173.8c-1.8,0-3.7-0.7-5.1-2.1c-2.8-2.8-2.8-7.4,0-10.2c33.2-33.2,76.6-51.5,122.1-51.5
							c40.6,0,80.4,14.9,111.9,42.1c3,2.6,3.4,7.1,0.8,10.1c-2.6,3-7.1,3.4-10.1,0.8c-29.4-25.3-64.9-38.6-102.6-38.6
							c-41.7,0-81.5,16.8-112,47.3C94,173.1,92.2,173.8,90.3,173.8z"/>
					</g>
				</g>
			</g>
		</g>
	</g>
</g>
<g id="Calque_2">
</g>
</svg>
