<svg id="Calque_1" data-name="Calque 1" xmlns="http://www.w3.org/2000/svg" viewBox="0 0 405 500"><defs><style>.cls-1{fill:#fff;}.cls-2{fill:#56dc4c;}.cls-3{fill:#6d6e71;}</style></defs><title>Icones_Hikster_Juin(2)</title><path class="cls-1" d="M204.94,6.78H200.1C93,6.78,6.79,93.84,6.79,201.23c0,0.37,0,.74,0,1.1,0.26,47,21,91.6,52,126.8L202.52,489.82,346.21,329.13c31.07-35.19,51.77-79.79,52-126.8,0-.37,0-0.74,0-1.1C398.25,93.84,312,6.78,204.94,6.78Z"/><path class="cls-2" d="M202.52,500L53.79,333.67C19.36,294.67.27,248.06,0,202.37v-1.14C0,90.27,89.77,0,200.1,0h4.84C315.27,0,405,90.27,405,201.23v1.19c-0.25,45.63-19.33,92.25-53.73,131.21ZM200.1,13.57C97.24,13.57,13.57,97.76,13.57,201.23v1.1c0.24,42.35,18.11,85.8,50.34,122.3l138.62,155L341.17,324.6c32.19-36.47,50.07-79.91,50.3-122.3v-1.06c0-103.48-83.68-187.67-186.54-187.67H200.1Z"/><polygon class="cls-2" points="201.47 117.52 118.09 169.77 114.59 275.19 123.35 288.37 282.79 285.73 291.55 276.95 289.5 173.43 201.47 117.52"/><path class="cls-3" d="M303.6,184.56a19.31,19.31,0,0,1-10.33-3l-91.8-57.84-90.45,57a19.32,19.32,0,0,1-14.94,2.46A19.69,19.69,0,0,1,83.69,174a20.54,20.54,0,0,1,6.52-27.74L192.27,82.09c0.69-.36,1.14-0.59,1.6-0.77a16.67,16.67,0,0,1,2.19-.77c0.45-.13.9-0.25,1.35-0.35a20.21,20.21,0,0,1,2.25-.33c0.56-.06,1.13-0.09,1.73-0.1,0.76,0,1.33,0,1.91.1a20,20,0,0,1,2.12.31c0.56,0.12,1,.24,1.46.37a18.6,18.6,0,0,1,2.3.82c0.34,0.14.74,0.34,1.13,0.55a15.87,15.87,0,0,1,1.56.8l102.19,64.4h0a20.54,20.54,0,0,1,6.52,27.75A19.77,19.77,0,0,1,303.6,184.56ZM201.47,111.31l97.37,61.35a8.92,8.92,0,0,0,6.92,1.13,9.29,9.29,0,0,0,5.83-4.32A10.07,10.07,0,0,0,308.5,156h0L205.61,91.3a9.86,9.86,0,0,0-1.6-.64l-0.75-.2a9.55,9.55,0,0,0-1-.14l-0.91,0-0.72,0a10.26,10.26,0,0,0-1.07.15l-0.66.18a8.67,8.67,0,0,0-1,.34l-1.39.68L95.78,155.16a10,10,0,0,0-3.1,13.46A9.32,9.32,0,0,0,98.52,173a9.06,9.06,0,0,0,6.93-1.14Z"/><path class="cls-3" d="M289.51,292H174.2a5.26,5.26,0,0,1,0-10.52H289.51A5.26,5.26,0,0,1,289.51,292Z"/><path class="cls-3" d="M181.61,292H114.8a5.26,5.26,0,0,1,0-10.52h66.81A5.26,5.26,0,0,1,181.61,292Z"/><path class="cls-3" d="M114.8,288.21a5.25,5.25,0,0,1-5.24-5.26V175.73a5.24,5.24,0,1,1,10.49,0V282.95A5.25,5.25,0,0,1,114.8,288.21Z"/><path class="cls-3" d="M289.51,287.77a5.25,5.25,0,0,1-5.24-5.26V173.44a5.24,5.24,0,1,1,10.49,0V282.51A5.25,5.25,0,0,1,289.51,287.77Z"/><path class="cls-1" d="M201.09,260.3a50.37,50.37,0,1,1,50.22-50.37A50.35,50.35,0,0,1,201.09,260.3Zm0-90.22a39.85,39.85,0,1,0,39.74,39.85A39.83,39.83,0,0,0,201.09,170.08Z"/><path class="cls-1" d="M201.09,233.12a23.2,23.2,0,1,1,23.13-23.2A23.19,23.19,0,0,1,201.09,233.12Zm0-35.88a12.68,12.68,0,1,0,12.64,12.68A12.67,12.67,0,0,0,201.09,197.25Z"/><rect class="cls-1" x="197.77" y="251" width="7.39" height="43.6"/></svg>