<?xml version="1.0" encoding="utf-8"?>
<!-- Generator: Adobe Illustrator 19.2.1, SVG Export Plug-In . SVG Version: 6.00 Build 0)  -->
<svg version="1.1" xmlns="http://www.w3.org/2000/svg" xmlns:xlink="http://www.w3.org/1999/xlink" x="0px" y="0px"
	 viewBox="0 0 405 500" style="enable-background:new 0 0 405 500;" xml:space="preserve">
<style type="text/css">
	.st0{fill:#FFFFFF;}
	.st1{fill:#56DC4C;}
	.st2{fill:#6D6E72;}
	.st3{fill:none;stroke:#6D6E72;stroke-width:1.1339;stroke-linecap:round;stroke-linejoin:round;stroke-miterlimit:10;}
	.st4{fill:#575D60;}
</style>
<g id="Calque_1">
	<g>
		<g>
			<path class="st0" d="M204.9,6.8c-0.8,0-1.6,0-2.4,0c-0.8,0-1.6,0-2.4,0C93,6.8,6.8,93.9,6.8,201.2c0,0.4,0,0.7,0,1.1
				c0.3,47,21,91.6,52,126.8l143.7,160.7l143.7-160.7c31.1-35.2,51.8-79.8,52-126.8c0-0.4,0-0.7,0-1.1C398.2,93.9,312,6.8,204.9,6.8
				z"/>
			<path class="st1" d="M202.5,500L53.8,333.7C19.3,294.7,0.3,248.1,0,202.4v-1.1C0,90.3,89.8,0,200.1,0l2.5,0l2.4,0
				C315.2,0,405,90.3,405,201.2v1.1c-0.3,45.7-19.3,92.3-53.7,131.3L202.5,500z M200.1,13.6C97.2,13.6,13.6,97.8,13.6,201.2v1.1
				c0.2,42.3,18.1,85.8,50.3,122.3l138.6,155l138.7-155c32.2-36.5,50.1-79.9,50.3-122.3v-1.1c0-103.5-83.7-187.7-186.5-187.7l-2.4,0
				L200.1,13.6z"/>
		</g>
		<g>
			<g>
				<path class="st2" d="M288.1,271.7H119c-9.4,0-17.1-7.7-17.1-17.2v-120c0-9.5,7.7-17.2,17.1-17.2h169.1c9.4,0,17.1,7.7,17.1,17.2
					v120C305.3,264,297.6,271.7,288.1,271.7z M119,128.7c-3.2,0-5.8,2.6-5.8,5.8v120c0,3.2,2.6,5.8,5.8,5.8h169.1
					c3.2,0,5.8-2.6,5.8-5.8v-120c0-3.2-2.6-5.8-5.8-5.8H119z"/>
			</g>
		</g>
		<g>
			<g>
				<g>
					<path class="st2" d="M204,310.9c-3.1,0-5.7-2.5-5.7-5.7v-38.1c0-3.1,2.5-5.7,5.7-5.7s5.7,2.5,5.7,5.7v38.1
						C209.6,308.4,207.1,310.9,204,310.9z"/>
				</g>
			</g>
		</g>
		<g>
			<g>
				<path class="st1" d="M278.1,202.3h-45c-3.1,0-5.7-2.5-5.7-5.7V152c0-3.1,2.5-5.7,5.7-5.7h45c3.1,0,5.7,2.5,5.7,5.7v44.6
					C283.8,199.8,281.3,202.3,278.1,202.3z M238.8,190.9h33.7v-33.2h-33.7V190.9z"/>
			</g>
		</g>
		<g>
			<g>
				<path class="st1" d="M138.4,250.4h-15.2c-0.5,0-0.9-0.4-0.9-0.9v-15c0-0.5,0.4-0.9,0.9-0.9h15.2c0.5,0,0.9,0.4,0.9,0.9v15
					C139.3,250.1,138.9,250.4,138.4,250.4z"/>
			</g>
		</g>
		<g>
			<g>
				<path class="st2" d="M211.4,158.5h-84.6c-3.1,0-5.7-2.5-5.7-5.7s2.5-5.7,5.7-5.7h84.6c3.1,0,5.7,2.5,5.7,5.7
					S214.5,158.5,211.4,158.5z"/>
			</g>
		</g>
		<g>
			<g>
				<path class="st2" d="M211.4,179.6h-84.6c-3.1,0-5.7-2.5-5.7-5.7s2.5-5.7,5.7-5.7h84.6c3.1,0,5.7,2.5,5.7,5.7
					S214.5,179.6,211.4,179.6z"/>
			</g>
		</g>
		<g>
			<g>
				<path class="st2" d="M211.4,201.6h-84.6c-3.1,0-5.7-2.5-5.7-5.7s2.5-5.7,5.7-5.7h84.6c3.1,0,5.7,2.5,5.7,5.7
					S214.5,201.6,211.4,201.6z"/>
			</g>
		</g>
		<g>
			<g>
				<path class="st2" d="M279.7,223.7H126.8c-3.1,0-5.7-2.5-5.7-5.7c0-3.1,2.5-5.7,5.7-5.7h152.9c3.1,0,5.7,2.5,5.7,5.7
					C285.4,221.2,282.8,223.7,279.7,223.7z"/>
			</g>
		</g>
	</g>
</g>
<g id="Calque_2">
</g>
</svg>
