<?xml version="1.0" encoding="utf-8"?>
<!-- Generator: Adobe Illustrator 19.2.1, SVG Export Plug-In . SVG Version: 6.00 Build 0)  -->
<svg version="1.1" xmlns="http://www.w3.org/2000/svg" xmlns:xlink="http://www.w3.org/1999/xlink" x="0px" y="0px"
	 viewBox="0 0 405 500" style="enable-background:new 0 0 405 500;" xml:space="preserve">
<style type="text/css">
	.st0{fill:#FFFFFF;}
	.st1{fill:#56DC4C;}
	.st2{fill:#6D6E72;}
	.st3{fill:none;stroke:#6D6E72;stroke-width:1.1339;stroke-linecap:round;stroke-linejoin:round;stroke-miterlimit:10;}
	.st4{fill:#575D60;}
</style>
<g id="Calque_1">
	<g>
		<g>
			<path class="st0" d="M204.9,6.8c-0.8,0-1.6,0-2.4,0c-0.8,0-1.6,0-2.4,0C93,6.8,6.8,93.8,6.8,201.2c0,0.4,0,0.7,0,1.1
				c0.3,47,21,91.6,52,126.8l143.7,160.7l143.7-160.7c31.1-35.2,51.8-79.8,52-126.8c0-0.4,0-0.7,0-1.1C398.2,93.8,312,6.8,204.9,6.8
				z"/>
			<path class="st1" d="M202.5,500L53.8,333.7C19.3,294.7,0.3,248.1,0,202.4l0-1.1C0,90.3,89.8,0,200.1,0l2.5,0l2.3,0
				C315.2,0,405,90.3,405,201.2l0,1.1c-0.3,45.7-19.3,92.3-53.7,131.3L202.5,500z M200.1,13.6C97.2,13.6,13.5,97.8,13.5,201.2l0,1
				c0.2,42.4,18.1,85.9,50.3,122.4l138.6,155l138.6-155c32.2-36.5,50.1-79.9,50.3-122.3l0-1.1c0-103.5-83.7-187.7-186.5-187.7
				l-2.3,0L200.1,13.6z"/>
		</g>
		<g>
			<g>
				<g>
					<g>
						<path class="st2" d="M265.5,169.7c-14.8,0-26.8-11.9-26.8-26.5c0-14.6,12-26.5,26.8-26.5s26.8,11.9,26.8,26.5
							C292.3,157.8,280.3,169.7,265.5,169.7z M265.5,126.4c-9.5,0-17.2,7.6-17.2,16.9s7.7,16.9,17.2,16.9c9.5,0,17.2-7.6,17.2-16.9
							S275,126.4,265.5,126.4z"/>
					</g>
				</g>
				<g>
					<g>
						<path class="st1" d="M138.2,203c3.1,2.1,7.5,5,12.7,5c8,0,11.6-3,16.6-7.1c5.7-4.7,12.8-10.5,26.3-10.5s20.6,5.8,26.3,10.5
							c5,4.1,9,7.1,16.9,7.1c7.7,0,14.3-6.1,14.3-13.7c0-3.9-2.1-7.8-4.5-10.9l-39-49.2l39.7-31.7c1.2-0.9,7.1-8.5-0.8-15.8
							c-5.4-5.1-12.6-0.6-13.1-0.2l-50.7,41.6c-1.8,1.6-3.1,2.8-3.3,4.8c-0.3,2.7,0.6,4.5,1.9,6.2l13.8,18.7L138.2,203z"/>
					</g>
					<g>
						<path class="st2" d="M236.9,212.8c-9.3,0-14.3-3.5-20-8.1c-5.4-4.4-11.5-9.4-23.2-9.4s-17.8,5-23.2,9.4
							c-5.1,4.2-9.9,8.2-19.6,8.2c-6.6,0-11.8-3.4-15.2-5.7c-1.3-0.8-2.2-2.3-2.2-3.9c-0.1-1.5,0.5-3.1,1.7-4l53.5-42.3l-11.1-15
							c-1.4-1.8-3.4-5-2.8-9.7c0.4-3.7,2.7-5.8,4.7-7.7l51-41.8c2.2-1.8,11.8-6.6,19.4,0.4c4.8,4.4,5.6,9.1,5.5,12.2
							c-0.2,5.2-3.2,9.4-5,10.8l-36,28.7l36,45.5c3.7,4.8,5.5,9.4,5.5,13.9C256,204.5,247.4,212.8,236.9,212.8z M193.7,185.6
							c15.1,0,23.3,6.7,29.3,11.6c4.7,3.8,7.6,6,13.9,6c5.2,0,9.5-4.1,9.5-8.9c0-2.2-1.2-5-3.5-7.9l-39-49.2
							c-1.6-2.1-1.3-5.1,0.8-6.7l39.8-31.7c0.2-0.2,1.5-2,1.4-4c0-1.5-0.8-3-2.5-4.5c-2.8-2.6-7,0.1-7.1,0.1l-50.5,41.4
							c-0.5,0.5-1.4,1.3-1.6,1.6c-0.1,1.1,0.1,1.6,0.9,2.7l13.9,18.8c1.5,2.1,1.1,5-0.9,6.6l-51.6,40.7c1.3,0.5,2.7,0.9,4.2,0.9
							c6.3,0,8.8-2.1,13.5-6C170.4,192.3,178.6,185.6,193.7,185.6z"/>
					</g>
				</g>
			</g>
			<g>
				<g>
					<g>
						<path class="st2" d="M242,242.1c-13.9,0-21.1-5.7-27.4-10.7c-5.9-4.6-10.9-8.6-21.5-8.6c-10.6,0-15.6,4-21.5,8.6
							c-6.3,5-13.5,10.7-27.4,10.7c-13.9,0-21.1-5.7-27.4-10.7c-3.3-2.6-6.4-5-10.3-6.6c-2.4-1-3.6-3.8-2.6-6.2
							c1-2.5,3.8-3.6,6.2-2.6c5.2,2.1,8.9,5.1,12.6,7.9c5.9,4.6,10.9,8.6,21.5,8.6c10.6,0,15.6-4,21.5-8.6
							c6.3-5,13.5-10.7,27.4-10.7c13.9,0,21.1,5.7,27.4,10.7c5.9,4.6,10.9,8.6,21.5,8.6s15.7-4,21.5-8.6c6.3-5,13.5-10.7,27.4-10.7
							c2.6,0,4.8,2.1,4.8,4.8s-2.1,4.8-4.8,4.8c-10.6,0-15.7,4-21.5,8.6C263.1,236.5,255.9,242.1,242,242.1z"/>
					</g>
				</g>
				<g>
					<g>
						<path class="st2" d="M242,272.7c-13.9,0-21.1-5.7-27.4-10.7c-5.9-4.6-10.9-8.6-21.5-8.6c-10.6,0-15.6,4-21.5,8.6
							c-6.3,5-13.5,10.7-27.4,10.7c-13.9,0-21.1-5.7-27.4-10.7c-3.3-2.6-6.3-5-10.2-6.6c-2.4-1-3.6-3.8-2.6-6.3
							c1-2.5,3.8-3.6,6.2-2.6c5.1,2.1,8.9,5.1,12.5,7.9c5.9,4.6,10.9,8.6,21.5,8.6c10.6,0,15.6-4,21.5-8.6
							c6.3-5,13.5-10.7,27.4-10.7c13.9,0,21.1,5.7,27.4,10.7c5.9,4.6,10.9,8.6,21.5,8.6s15.7-4,21.5-8.6c6.3-5,13.5-10.7,27.4-10.7
							c2.6,0,4.8,2.1,4.8,4.8c0,2.6-2.1,4.8-4.8,4.8c-10.6,0-15.7,4-21.5,8.6C263.1,267,255.9,272.7,242,272.7z"/>
					</g>
				</g>
				<g>
					<g>
						<path class="st2" d="M242,303.2c-13.9,0-21.1-5.7-27.4-10.7c-5.9-4.6-10.9-8.6-21.5-8.6c-10.6,0-15.6,4-21.5,8.6
							c-6.3,5-13.5,10.7-27.4,10.7c-13.9,0-21.1-5.7-27.4-10.7c-3.3-2.6-6.3-5-10.2-6.6c-2.4-1-3.6-3.8-2.6-6.3
							c1-2.5,3.8-3.6,6.2-2.6c5.1,2.1,8.9,5.1,12.5,7.9c5.9,4.6,10.9,8.6,21.5,8.6c10.6,0,15.6-4,21.5-8.6
							c6.3-5,13.5-10.7,27.4-10.7c13.9,0,21.1,5.7,27.4,10.7c5.9,4.6,10.9,8.6,21.5,8.6s15.7-4,21.5-8.6c6.3-5,13.5-10.7,27.4-10.7
							c2.6,0,4.8,2.1,4.8,4.8s-2.1,4.8-4.8,4.8c-10.6,0-15.7,4-21.5,8.6C263.1,297.5,255.9,303.2,242,303.2z"/>
					</g>
				</g>
			</g>
		</g>
	</g>
</g>
<g id="Calque_2">
</g>
</svg>
