<?xml version="1.0" encoding="utf-8"?>
<!-- Generator: Adobe Illustrator 19.2.1, SVG Export Plug-In . SVG Version: 6.00 Build 0)  -->
<svg version="1.1" xmlns="http://www.w3.org/2000/svg" xmlns:xlink="http://www.w3.org/1999/xlink" x="0px" y="0px"
	 viewBox="0 0 405 500" style="enable-background:new 0 0 405 500;" xml:space="preserve">
<style type="text/css">
	.st0{fill:#FFFFFF;}
	.st1{fill:#56DC4C;}
	.st2{fill:#6D6E72;}
	.st3{fill:none;stroke:#6D6E72;stroke-width:1.1339;stroke-linecap:round;stroke-linejoin:round;stroke-miterlimit:10;}
	.st4{fill:#575D60;}
</style>
<g id="Calque_1">
	<g>
		<g>
			<path class="st0" d="M204.9,6.8c-0.8,0-1.6,0-2.4,0c-0.8,0-1.6,0-2.4,0C93,6.8,6.8,93.9,6.8,201.2c0,0.4,0,0.7,0,1.1
				c0.3,47,21,91.6,52,126.8l143.7,160.7l143.7-160.7c31.1-35.2,51.8-79.8,52-126.8c0-0.4,0-0.7,0-1.1C398.2,93.9,312,6.8,204.9,6.8
				z"/>
			<path class="st1" d="M202.5,500L53.8,333.7C19.3,294.7,0.3,248.1,0,202.4v-1.1C0,90.3,89.8,0,200.1,0l2.5,0l2.4,0
				C315.2,0,405,90.3,405,201.2l0,1.2c-0.2,45.6-19.3,92.3-53.7,131.2L202.5,500z M200.1,13.6C97.2,13.6,13.5,97.8,13.5,201.2v1.1
				c0.2,42.4,18.1,85.8,50.3,122.3l138.6,155l138.7-155c32.2-36.5,50.1-79.9,50.3-122.3l0-1.1c0-103.5-83.7-187.7-186.5-187.7
				l-2.3,0L200.1,13.6z"/>
		</g>
		<g>
			<g>
				<g>
					<path class="st2" d="M202.4,291.7c-2.5,0-4.5-2-4.5-4.5v-20.2c0-2.5,2-4.5,4.5-4.5c2.5,0,4.5,2,4.5,4.5v20.2
						C206.9,289.7,204.8,291.7,202.4,291.7z"/>
				</g>
			</g>
			<g>
				<g>
					<path class="st2" d="M137.8,206.2h-19.9c-2.5,0-4.5-2-4.5-4.5c0-2.5,2-4.5,4.5-4.5h19.9c2.5,0,4.5,2,4.5,4.5
						C142.3,204.2,140.3,206.2,137.8,206.2z"/>
				</g>
			</g>
			<g>
				<g>
					<path class="st2" d="M287.4,206.2h-19.6c-2.5,0-4.5-2-4.5-4.5c0-2.5,2-4.5,4.5-4.5h19.6c2.5,0,4.5,2,4.5,4.5
						C291.9,204.2,289.9,206.2,287.4,206.2z"/>
				</g>
			</g>
			<g>
				<g>
					<path class="st2" d="M202.4,141.5c-2.5,0-4.5-2-4.5-4.5v-19.5c0-2.5,2-4.5,4.5-4.5c2.5,0,4.5,2,4.5,4.5V137
						C206.9,139.5,204.8,141.5,202.4,141.5z"/>
				</g>
			</g>
			<g>
				<g>
					<path class="st2" d="M138.5,270.6c-1.2,0-2.3-0.5-3.2-1.3c-1.4-1.4-1.7-3.5-0.8-5.2l43.1-85.5c0.4-0.9,1.1-1.6,2-2l84.9-42.9
						c1.7-0.9,3.8-0.5,5.2,0.8c1.4,1.4,1.7,3.5,0.9,5.2l-42.5,85.8c-0.4,0.9-1.1,1.6-2,2l-85.6,42.6
						C139.9,270.4,139.2,270.6,138.5,270.6z M185,183.9L148.6,256l72.1-35.9l35.8-72.4L185,183.9z"/>
				</g>
			</g>
			<g>
				<g>
					<path class="st1" d="M202.7,201.9L202.7,201.9C202.7,201.9,202.7,201.9,202.7,201.9 M202.7,192.9c-5,0-9,4.1-9,9.1s4,9.1,9,9.1
						c5,0,9-4.1,9-9.1S207.7,192.9,202.7,192.9L202.7,192.9z"/>
				</g>
			</g>
			<g>
				<g>
					<path class="st1" d="M202.4,82.6c65.7,0,119.2,53.6,119.2,119.6s-53.5,119.6-119.2,119.6c-65.7,0-119.2-53.6-119.2-119.6
						S136.7,82.6,202.4,82.6 M202.4,73.6c-70.8,0-128.2,57.6-128.2,128.6s57.4,128.6,128.2,128.6c70.8,0,128.2-57.6,128.2-128.6
						S273.2,73.6,202.4,73.6L202.4,73.6z"/>
				</g>
			</g>
		</g>
	</g>
</g>
<g id="Calque_2">
</g>
</svg>
