<?xml version="1.0" encoding="UTF-8" standalone="no"?>
<!-- Generator: Adobe Illustrator 19.2.1, SVG Export Plug-In . SVG Version: 6.00 Build 0)  -->

<svg
   xmlns:dc="http://purl.org/dc/elements/1.1/"
   xmlns:cc="http://creativecommons.org/ns#"
   xmlns:rdf="http://www.w3.org/1999/02/22-rdf-syntax-ns#"
   xmlns:svg="http://www.w3.org/2000/svg"
   xmlns="http://www.w3.org/2000/svg"
   xmlns:sodipodi="http://sodipodi.sourceforge.net/DTD/sodipodi-0.dtd"
   xmlns:inkscape="http://www.inkscape.org/namespaces/inkscape"
   version="1.1"
   x="0px"
   y="0px"
   viewBox="0 0 405 500"
   style="enable-background:new 0 0 405 500;"
   xml:space="preserve"
   id="svg2"
   inkscape:version="0.91 r13725"
   sodipodi:docname="Icones_Hikster_39.svg"><metadata
     id="metadata44"><rdf:RDF><cc:Work
         rdf:about=""><dc:format>image/svg+xml</dc:format><dc:type
           rdf:resource="http://purl.org/dc/dcmitype/StillImage" /><dc:title /></cc:Work></rdf:RDF></metadata><defs
     id="defs42" /><sodipodi:namedview
     pagecolor="#ffffff"
     bordercolor="#666666"
     borderopacity="1"
     objecttolerance="10"
     gridtolerance="10"
     guidetolerance="10"
     inkscape:pageopacity="0"
     inkscape:pageshadow="2"
     inkscape:window-width="1920"
     inkscape:window-height="1017"
     id="namedview40"
     showgrid="false"
     inkscape:zoom="0.70710678"
     inkscape:cx="-114.23729"
     inkscape:cy="250"
     inkscape:window-x="3192"
     inkscape:window-y="-8"
     inkscape:window-maximized="1"
     inkscape:current-layer="svg2" /><style
     type="text/css"
     id="style4">
	.st0{fill:#FFFFFF;}
	.st1{fill:#56DC4C;}
	.st2{fill:#6D6E72;}
	.st3{fill:none;stroke:#6D6E72;stroke-width:1.1339;stroke-linecap:round;stroke-linejoin:round;stroke-miterlimit:10;}
	.st4{fill:#575D60;}
</style><g
     id="Calque_2" /><g
     id="g4735"><g
       id="g7"><path
         class="st0"
         d="m 204.9,6.8 c -0.8,0 -1.6,0 -2.4,0 -0.8,0 -1.6,0 -2.4,0 C 93,6.8 6.8,93.8 6.8,201.2 c 0,0.4 0,0.7 0,1.1 0.3,47 21,91.6 52,126.8 L 202.5,489.8 346.2,329.1 c 31.1,-35.2 51.8,-79.8 52,-126.8 0,-0.4 0,-0.7 0,-1.1 C 398.2,93.8 312,6.8 204.9,6.8 Z"
         id="path9"
         inkscape:connector-curvature="0"
         style="fill:#ffffff" /><path
         class="st1"
         d="M 202.5,500 53.8,333.7 C 19.3,294.7 0.3,248.1 0,202.4 l 0,-1.1 C 0,90.3 89.8,0 200.1,0 l 2.5,0 2.3,0 C 315.2,0 405,90.3 405,201.2 l 0,1.2 c -0.2,45.6 -19.3,92.2 -53.7,131.2 L 202.5,500 Z M 200.1,13.6 C 97.2,13.6 13.5,97.8 13.5,201.2 l 0,1.1 c 0.2,42.3 18.1,85.8 50.3,122.3 l 138.6,155 138.7,-155 c 32.2,-36.5 50.1,-79.9 50.3,-122.3 l 0,-1.1 C 391.4,97.7 307.7,13.5 204.9,13.5 l -2.3,0 -2.5,0.1 z"
         id="path11"
         inkscape:connector-curvature="0"
         style="fill:#56dc4c" /></g><g
       id="g4731"><path
         d="m 149.39445,242.8856 c -0.99631,34.3727 15.4428,49.8155 51.80812,50.81181 38.85608,0.49816 56.29151,-16.93727 54.29889,-50.31365 -2.98893,-28.89299 -30.88561,-36.36531 -52.80443,-39.35424 -23.91144,-8.46864 -49.31734,-12.45388 -49.31734,-47.32473 0,-23.91144 15.94096,-39.35424 49.31734,-38.85609 29.8893,0 48.32103,12.45388 47.82288,41.84502"
         style="fill:none;fill-opacity:1;stroke:#6d6e72;stroke-width:25;stroke-opacity:1;stroke-miterlimit:4;stroke-dasharray:none"
         id="path4139"
         inkscape:connector-curvature="0" /><path
         d="m 201.70072,83.933575 0,250.132845"
         style="fill:none;fill-opacity:1;stroke:#6d6e72;stroke-width:18;stroke-opacity:1;stroke-miterlimit:4;stroke-dasharray:none"
         id="path4141"
         inkscape:connector-curvature="0" /></g></g></svg>