<?xml version="1.0" encoding="utf-8"?>
<!-- Generator: Adobe Illustrator 19.2.1, SVG Export Plug-In . SVG Version: 6.00 Build 0)  -->
<svg version="1.1" xmlns="http://www.w3.org/2000/svg" xmlns:xlink="http://www.w3.org/1999/xlink" x="0px" y="0px"
	 viewBox="0 0 405 500" style="enable-background:new 0 0 405 500;" xml:space="preserve">
<style type="text/css">
	.st0{fill:#FFFFFF;}
	.st1{fill:#56DC4C;}
	.st2{fill:#6D6E72;}
	.st3{fill:none;stroke:#6D6E72;stroke-width:1.1339;stroke-linecap:round;stroke-linejoin:round;stroke-miterlimit:10;}
	.st4{fill:#575D60;}
</style>
<g id="Calque_1">
	<g>
		<path class="st0" d="M204.9,6.8c-0.8,0-1.6,0-2.4,0c-0.8,0-1.6,0-2.4,0C93,6.8,6.8,93.9,6.8,201.2c0,0.4,0,0.7,0,1.1
			c0.3,47,21,91.6,52,126.8l143.7,160.7l143.7-160.7c31.1-35.2,51.8-79.8,52-126.8c0-0.4,0-0.7,0-1.1C398.2,93.8,312,6.8,204.9,6.8z
			"/>
		<path class="st1" d="M202.5,500L53.8,333.7C19.3,294.7,0.3,248.1,0,202.4v-1.1C0,90.3,89.8,0,200.1,0l2.5,0l2.3,0
			C315.2,0,405,90.3,405,201.2v1.1c-0.3,45.7-19.3,92.3-53.7,131.3L202.5,500z M200.1,13.6C97.2,13.6,13.5,97.8,13.5,201.2v1.1
			c0.2,42.3,18.1,85.8,50.3,122.3l138.6,155l138.6-155c32.2-36.5,50.1-79.9,50.3-122.3v-1.1c0-103.5-83.7-187.7-186.5-187.7l-2.3,0
			L200.1,13.6z"/>
	</g>
	<g>
		<g>
			<ellipse class="st1" cx="202.5" cy="209.6" rx="43.5" ry="43.7"/>
		</g>
	</g>
	<g>
		<g>
			<path class="st2" d="M281.5,291.4h-158c-15.7,0-28.5-12.8-28.5-28.6V156.3c0-15.8,12.8-28.6,28.5-28.6h158
				c15.7,0,28.5,12.8,28.5,28.6v106.5C310,278.6,297.2,291.4,281.5,291.4z M123.5,140.1c-8.9,0-16.2,7.3-16.2,16.2v106.5
				c0,8.9,7.2,16.2,16.2,16.2h158c8.9,0,16.2-7.3,16.2-16.2V156.3c0-8.9-7.2-16.2-16.2-16.2H123.5z"/>
		</g>
	</g>
	<g>
		<g>
			<path class="st2" d="M148,137.8c-3.4,0-6.2-2.8-6.2-6.2V99.8c0-10.9,8.8-19.7,19.7-19.7h82.1c10.9,0,19.7,8.9,19.7,19.7v31.4
				c0,3.4-2.8,6.2-6.2,6.2s-6.2-2.8-6.2-6.2V99.8c0-4.1-3.3-7.3-7.3-7.3h-82.1c-4,0-7.3,3.3-7.3,7.3v31.8
				C154.1,135,151.4,137.8,148,137.8z"/>
		</g>
	</g>
	<g>
		<g>
			<path class="st2" d="M202.5,259.4c-27.4,0-49.7-22.4-49.7-49.9s22.3-49.9,49.7-49.9s49.7,22.4,49.7,49.9S229.9,259.4,202.5,259.4
				z M202.5,172.1c-20.6,0-37.4,16.8-37.4,37.5c0,20.7,16.8,37.5,37.4,37.5s37.4-16.8,37.4-37.5
				C239.9,188.9,223.1,172.1,202.5,172.1z"/>
		</g>
	</g>
	<g>
		<g>
			<path class="st2" d="M202.5,231.7c-3.4,0-6.2-2.8-6.2-6.2v-33.3c0-3.4,2.8-6.2,6.2-6.2s6.2,2.8,6.2,6.2v33.3
				C208.7,228.9,205.9,231.7,202.5,231.7z"/>
		</g>
	</g>
	<g>
		<g>
			<path class="st2" d="M219.1,215h-33.2c-3.4,0-6.2-2.8-6.2-6.2s2.8-6.2,6.2-6.2h33.2c3.4,0,6.2,2.8,6.2,6.2S222.5,215,219.1,215z"
				/>
		</g>
	</g>
</g>
<g id="Calque_2">
</g>
</svg>
