<?xml version="1.0" encoding="UTF-8" standalone="no"?>
<!-- Generator: Adobe Illustrator 19.2.1, SVG Export Plug-In . SVG Version: 6.00 Build 0)  -->

<svg
   xmlns:dc="http://purl.org/dc/elements/1.1/"
   xmlns:cc="http://creativecommons.org/ns#"
   xmlns:rdf="http://www.w3.org/1999/02/22-rdf-syntax-ns#"
   xmlns:svg="http://www.w3.org/2000/svg"
   xmlns="http://www.w3.org/2000/svg"
   xmlns:sodipodi="http://sodipodi.sourceforge.net/DTD/sodipodi-0.dtd"
   xmlns:inkscape="http://www.inkscape.org/namespaces/inkscape"
   version="1.1"
   x="0px"
   y="0px"
   viewBox="0 0 405 500"
   style="enable-background:new 0 0 405 500;"
   xml:space="preserve"
   id="svg2"
   inkscape:version="0.48.5 r10040"
   sodipodi:docname="Icones_Hikster_108.svg"
   width="100%"
   height="100%"><metadata
     id="metadata44"><rdf:RDF><cc:Work
         rdf:about=""><dc:format>image/svg+xml</dc:format><dc:type
           rdf:resource="http://purl.org/dc/dcmitype/StillImage" /><dc:title></dc:title></cc:Work></rdf:RDF></metadata><defs
     id="defs42" /><sodipodi:namedview
     pagecolor="#ffffff"
     bordercolor="#666666"
     borderopacity="1"
     objecttolerance="10"
     gridtolerance="10"
     guidetolerance="10"
     inkscape:pageopacity="0"
     inkscape:pageshadow="2"
     inkscape:window-width="1920"
     inkscape:window-height="1057"
     id="namedview40"
     showgrid="false"
     inkscape:zoom="0.472"
     inkscape:cx="-114.23729"
     inkscape:cy="250"
     inkscape:window-x="3280"
     inkscape:window-y="0"
     inkscape:window-maximized="1"
     inkscape:current-layer="svg2" /><style
     type="text/css"
     id="style4">
	.st0{fill:#FFFFFF;}
	.st1{fill:#56DC4C;}
	.st2{fill:#6D6E72;}
	.st3{fill:none;stroke:#6D6E72;stroke-width:1.1339;stroke-linecap:round;stroke-linejoin:round;stroke-miterlimit:10;}
	.st4{fill:#575D60;}
</style><g
     id="g7"
     transform="translate(8.2750133,0)"><path
       style="fill:#ffffff"
       inkscape:connector-curvature="0"
       id="path9"
       d="m 204.9,6.8 c -0.8,0 -1.6,0 -2.4,0 -0.8,0 -1.6,0 -2.4,0 C 93,6.8 6.8,93.8 6.8,201.2 c 0,0.4 0,0.7 0,1.1 0.3,47 21,91.6 52,126.8 L 202.5,489.8 346.2,329.1 c 31.1,-35.2 51.8,-79.8 52,-126.8 0,-0.4 0,-0.7 0,-1.1 C 398.2,93.8 312,6.8 204.9,6.8 Z"
       class="st0" /><path
       style="fill:#56dc4c"
       inkscape:connector-curvature="0"
       id="path11"
       d="M 202.5,500 53.8,333.7 C 19.3,294.7 0.3,248.1 0,202.4 l 0,-1.1 C 0,90.3 89.8,0 200.1,0 l 2.5,0 2.3,0 C 315.2,0 405,90.3 405,201.2 l 0,1.2 c -0.2,45.6 -19.3,92.2 -53.7,131.2 L 202.5,500 Z M 200.1,13.6 C 97.2,13.6 13.5,97.8 13.5,201.2 l 0,1.1 c 0.2,42.3 18.1,85.8 50.3,122.3 l 138.6,155 138.7,-155 c 32.2,-36.5 50.1,-79.9 50.3,-122.3 l 0,-1.1 C 391.4,97.7 307.7,13.5 204.9,13.5 l -2.3,0 -2.5,0.1 z"
       class="st1" /></g><g
     id="Calque_2" /><g
     transform="matrix(0.58657089,0,0,0.58657089,-3.1629256,-8.917454)"
     id="g4724"
     style="fill:#8e8e8e;fill-opacity:1"><title
       id="title4726">Layer 1</title><path
       style="fill:#8e8e8e;fill-opacity:1"
       inkscape:connector-curvature="0"
       id="path4882"
       d="m 252.51199,282.60599 c -10.03799,-9.89798 -10.03799,-26.04398 0,-35.94199 9.82801,-9.96899 26.04401,-9.96899 35.87201,0 l 50.89499,50.754 0,-71.81399 c 0,-14.04001 11.37201,-25.55301 25.482,-25.55301 13.97003,0 25.55304,11.513 25.55304,25.55301 l 0,71.81399 50.68396,-50.754 c 10.03802,-9.96899 26.044,-9.96899 36.08203,0 9.96899,9.89801 9.96899,26.04401 0,35.94199 l -50.75403,50.754 L 498.211,333.5 c 13.96899,0 25.34198,11.37299 25.34198,25.48303 0,13.96997 -11.37299,25.482 -25.34198,25.482 l -71.88501,0 50.75403,50.75494 c 9.96899,9.96802 9.96899,26.04401 0,36.08203 -10.03803,9.82801 -26.04401,9.82801 -36.08203,0 l -50.61402,-50.75402 -0.0699,71.67401 c 0,14.17999 -11.58301,25.552 -25.55304,25.552 -14.10999,0 -25.482,-11.37201 -25.482,-25.552 l 0,-71.81397 L 288.384,471.302 c -9.828,9.82801 -26.044,9.82801 -35.87201,0 -10.03799,-10.03802 -10.03799,-26.11401 0,-36.08203 l 50.68402,-50.75494 -71.81402,0 c -13.97,0 -25.482,-11.51203 -25.482,-25.482 0,-14.11004 11.512,-25.48303 25.482,-25.48303 l 71.81402,0 -50.68402,-50.89401 z" /></g></svg>