<?xml version="1.0" encoding="utf-8"?>
<!-- Generator: Adobe Illustrator 19.2.1, SVG Export Plug-In . SVG Version: 6.00 Build 0)  -->
<svg version="1.1" xmlns="http://www.w3.org/2000/svg" xmlns:xlink="http://www.w3.org/1999/xlink" x="0px" y="0px"
	 viewBox="0 0 405 500" style="enable-background:new 0 0 405 500;" xml:space="preserve">
<style type="text/css">
	.st0{fill:#FFFFFF;}
	.st1{fill:#56DC4C;}
	.st2{fill:#6D6E72;}
	.st3{fill:none;stroke:#6D6E72;stroke-width:1.1339;stroke-linecap:round;stroke-linejoin:round;stroke-miterlimit:10;}
	.st4{fill:#575D60;}
</style>
<g id="Calque_1">
	<g>
		<g>
			<path class="st0" d="M204.9,6.8c-0.8,0-1.6,0-2.4,0c-0.8,0-1.6,0-2.4,0C93,6.8,6.8,93.9,6.8,201.2c0,0.4,0,0.7,0,1.1
				c0.3,47,21,91.6,52,126.8l143.7,160.7l143.7-160.7c31.1-35.2,51.8-79.8,52-126.8c0-0.4,0-0.7,0-1.1C398.2,93.8,312,6.8,204.9,6.8
				z"/>
			<path class="st1" d="M202.5,500L53.8,333.7C19.3,294.7,0.3,248.1,0,202.4l0-1.1C0,90.3,89.8,0,200.1,0l2.5,0l2.3,0
				C315.2,0,405,90.3,405,201.2l0,1.1c-0.3,45.7-19.3,92.3-53.7,131.3L202.5,500z M200.1,13.6C97.2,13.6,13.5,97.8,13.5,201.2l0,1
				c0.2,42.4,18.1,85.9,50.3,122.4l138.6,155l138.6-155c32.2-36.5,50.1-79.9,50.3-122.3l6.8-1.1h-6.8
				c0-103.5-83.7-187.7-186.5-187.7l-2.3,0L200.1,13.6z"/>
		</g>
		<g>
			<g>
				<g>
					<polygon class="st1" points="186.9,158.5 192.7,144.4 212,139.3 229.3,143.5 237.9,156.8 					"/>
				</g>
			</g>
			<g>
				<g>
					<g>
						<path class="st2" d="M283.2,270.8L283.2,270.8L283.2,270.8 M275,285.3c0.7,1.5,1.2,2.7,1.5,3.7c0.3,0.7,0.4,1.2,0.4,1.4
							c0,1.1-0.9,1.9-1.9,1.9c-1.1,0-1.9-0.9-2-1.7c0-0.1,0.1-1.3,1-3.1c0.1-0.2,0.2-0.3,0.2-0.5C274.5,286.5,274.7,286,275,285.3
							 M275,264.5c-0.4,0-0.8,0.2-1,0.5c-5.1,8.2-8.1,13.9-9.7,17.7c-2.1,4.2-2,7.5-2,7.6c0,7,5.7,12.7,12.7,12.7
							c7,0,12.7-5.7,12.7-12.7c0-0.1,0.1-2-1.1-5.2c-1.4-3.7-4.2-9.9-10.6-20C275.8,264.7,275.4,264.5,275,264.5L275,264.5z"/>
					</g>
				</g>
			</g>
			<g>
				<g>
					<path class="st2" d="M102.6,270C89,270,78,258.9,78,245.2v-47.8c0-13.6,11.1-24.7,24.7-24.7c13.6,0,24.7,11.1,24.7,24.7v47.8
						C127.3,258.9,116.2,270,102.6,270z M102.6,183.5c-7.7,0-13.9,6.2-13.9,13.9v47.8c0,7.7,6.2,13.9,13.9,13.9
						c7.7,0,13.9-6.3,13.9-13.9v-47.8C116.5,189.8,110.3,183.5,102.6,183.5z"/>
				</g>
			</g>
			<g>
				<g>
					<path class="st2" d="M185.1,163.1c-0.3,0-0.6,0-0.9-0.1c-2.9-0.5-4.9-3.3-4.4-6.2c2.2-13.3,13.5-22.9,26.9-22.9h9.7
						c12.9,0,24.1,9.2,26.7,21.9c0.6,2.9-1.3,5.8-4.2,6.4c-2.9,0.6-5.8-1.3-6.4-4.2c-1.6-7.7-8.4-13.2-16.2-13.2h-9.7
						c-8,0-15,6-16.3,13.9C190,161.2,187.7,163.1,185.1,163.1z"/>
				</g>
			</g>
			<g>
				<g>
					<path class="st2" d="M223.7,143.6c-3,0-5.4-2.4-5.4-5.4v-11.3h-12.6v10.6c0,3-2.4,5.4-5.4,5.4c-3,0-5.4-2.4-5.4-5.4v-13.3
						c0-4.5,3.6-8.1,8.1-8.1H221c4.5,0,8.1,3.6,8.1,8.1v14C229.1,141.2,226.7,143.6,223.7,143.6z"/>
				</g>
			</g>
			<g>
				<g>
					<path class="st2" d="M216.8,126.9h-10c-3.7,0-6.7-3-6.7-6.7v-18.3c0-3,2.4-5.4,5.4-5.4c3,0,5.4,2.4,5.4,5.4v14.2h1.8v-14.4
						c0-3,2.4-5.4,5.4-5.4c3,0,5.4,2.4,5.4,5.4v18.6C223.4,123.9,220.4,126.9,216.8,126.9z"/>
				</g>
			</g>
			<g>
				<g>
					<path class="st2" d="M212,108.6c-9.7,0-17.5-7.9-17.5-17.6s7.9-17.6,17.5-17.6c9.7,0,17.5,7.9,17.5,17.6S221.7,108.6,212,108.6
						z M212,84.3c-3.7,0-6.8,3.1-6.8,6.8c0,3.8,3,6.8,6.8,6.8c3.7,0,6.8-3.1,6.8-6.8C218.8,87.3,215.8,84.3,212,84.3z"/>
				</g>
			</g>
			<g>
				<g>
					<path class="st2" d="M177.4,108.6c-10.2,0-16.5-5.8-16.5-15.2c0-4.1,1.6-7.9,4.5-10.5c3.2-2.9,7.7-4.3,12.4-3.9l23.2,3
						c3,0.4,5,3.1,4.6,6c-0.4,3-3.1,5.1-6,4.7l-23-3c-1.5-0.1-3,0.3-4,1.2c-0.7,0.6-1,1.5-1,2.6c0,1.9,0,4.2,5.3,4.4l25-4.1
						c3-0.5,5.7,1.5,6.2,4.4c0.5,2.9-1.5,5.7-4.4,6.2l-25.4,4.2C178,108.6,177.7,108.6,177.4,108.6z"/>
				</g>
			</g>
			<g>
				<g>
					<path class="st2" d="M247,108.6c-0.3,0-0.6,0-0.9-0.1l-25.4-4.2c-2.9-0.5-4.9-3.3-4.4-6.2c0.5-2.9,3.3-4.9,6.2-4.4l25,4.1
						c5.3-0.1,5.3-2.5,5.3-4.4c0-1.1-0.3-1.9-1-2.6c-1-0.9-2.5-1.3-4.2-1.1l-22.8,3c-2.9,0.4-5.6-1.7-6-4.7c-0.4-3,1.7-5.7,4.6-6
						l23-3c4.9-0.5,9.4,1,12.6,3.9c2.9,2.7,4.5,6.4,4.5,10.5C263.5,102.8,257.2,108.6,247,108.6z"/>
				</g>
			</g>
			<g>
				<g>
					<g>
						<path class="st2" d="M297.4,270.6C297.3,270.6,297.3,270.6,297.4,270.6l-45.6-0.3c-5.4,0-10.1-3.7-11.6-9
							c-1.8-6.9-8.7-12.1-16-12.1l-97.2-0.8l0,1.3c0,3-2.4,5.4-5.4,5.4c0,0,0,0,0,0c-3,0-5.4-2.5-5.3-5.4l0.1-6.4c0-0.1,0-0.2,0-0.2
							l0.3-44.8c0-0.1,0-0.1,0-0.2l0,0c0,0,0,0,0,0v0c0,0,0,0,0,0c0,0,0,0,0,0v0c0,0,0,0,0,0l0,0c0.1-2.7,2.2-4.9,4.9-5.1h0l0,0
							c0.2,0,0.3,0,0.5,0l0,0l42,0.3c0,0,0,0,0,0c2.1,0,4.4-1.1,6.2-2.9c1.9-1.8,3-4.1,3-6.1l0.1-17.5c0.1-7.4,6.1-13.4,13.4-13.4
							c0,0,0.1,0,0.1,0l50.4,0.4c3.6,0,6.9,1.5,9.5,4c2.5,2.6,3.9,6,3.9,9.6l-0.1,18.7c0,4.6,0.8,9,12,11.8
							c28.9,9.2,44.5,28.2,48,58.4c0.4,3.7-0.8,7.4-3.3,10.2C304.7,269,301.1,270.6,297.4,270.6z M127.1,237.5l97.2,0.8
							c12.1,0.1,23.2,8.5,26.3,20.1c0.2,0.6,0.7,1,1.2,1l45.5,0.3c0.7,0.1,1.4-0.3,1.9-0.8c0.3-0.3,0.7-0.9,0.6-1.8
							c-3-26.2-15.4-41.4-40.3-49.2c-13.3-3.4-19.9-10.7-19.8-22.3l0.1-18.7c0-1-0.5-1.6-0.8-1.9c-0.3-0.3-0.9-0.8-1.9-0.8
							l-50.4-0.4c-1.5-0.1-2.7,1.2-2.7,2.7l-0.1,17.5c0,4.9-2.3,10-6.3,13.8c-3.9,3.8-8.9,6-13.7,6c0,0-0.1,0-0.1,0l-36.6-0.3
							L127.1,237.5z"/>
					</g>
				</g>
			</g>
		</g>
	</g>
</g>
<g id="Calque_2">
</g>
</svg>
