<svg id="Calque_1" data-name="Calque 1" xmlns="http://www.w3.org/2000/svg" viewBox="0 0 405 500"><defs><style>.cls-1{fill:#6d6e72;}.cls-2{fill:#56dc4c;}.cls-3{fill:#fff;}.cls-4{fill:#6d6e71;}</style></defs><title>Icones_Hikster_Juin(2)</title><path class="cls-1" d="M283.75,127.27H123.16a9.28,9.28,0,0,1,0-18.56H283.75A9.28,9.28,0,0,1,283.75,127.27Z"/><path class="cls-2" d="M324.55,210.86H80.45a9.28,9.28,0,0,1,0-18.56h244.1A9.28,9.28,0,0,1,324.55,210.86Z"/><path class="cls-1" d="M120.17,294.11a9.27,9.27,0,0,1-8.69-12.46S126.7,239.93,142,198.2c7.66-20.87,15.33-41.73,21.13-57.37,11.9-32.12,11.9-32.12,18.56-32.12a9.29,9.29,0,0,1,8.2,13.59c-3.21,7.69-38.06,102.81-61,165.71A9.26,9.26,0,0,1,120.17,294.11Z"/><path class="cls-1" d="M286.1,294.11a9.26,9.26,0,0,1-8.69-6.09c-23-62.93-57.81-158.07-61-165.72a9.28,9.28,0,0,1,8.2-13.58c6.65,0,6.65,0,18.55,32.12,5.8,15.65,13.47,36.51,21.13,57.37,15.3,41.72,30.51,83.44,30.51,83.44A9.27,9.27,0,0,1,286.1,294.11Z"/><path class="cls-3" d="M204.93,6.77h-4.84C93,6.78,6.77,93.84,6.77,201.23c0,0.37,0,.74,0,1.1,0.26,47,21,91.6,52,126.8L202.51,489.83,346.2,329.13c31.07-35.19,51.77-79.79,52-126.8,0-.37,0-0.74,0-1.1C398.24,93.83,312,6.77,204.93,6.77Z"/><path class="cls-2" d="M202.51,500L53.77,333.67C19.34,294.68.26,248.06,0,202.37v-1.14C0,90.27,89.76,0,200.08,0l2.54,0,2.31,0C315.25,0,405,90.26,405,201.23v1.19c-0.25,45.64-19.34,92.26-53.73,131.21Zm-189-297.7c0.24,42.39,18.11,85.83,50.34,122.33l138.62,155L341.15,324.6c32.2-36.46,50.07-79.9,50.31-122.3v-1.07c0-103.48-83.68-187.67-186.54-187.67l-2.31,0-2.54,0C97.22,13.57,13.54,97.76,13.54,201.23v1.07Z"/><line class="cls-3" x1="282.28" y1="121.39" x2="282.54" y2="106.75"/><path class="cls-4" d="M282.28,126.53h-0.09a5.14,5.14,0,0,1-5-5.23l0.26-14.65a5.15,5.15,0,0,1,5.14-5h0.09a5.14,5.14,0,0,1,5,5.23l-0.26,14.65A5.15,5.15,0,0,1,282.28,126.53Z"/><path class="cls-2" d="M177.13,80.92a16.32,16.32,0,1,0,16.33,16.32,16.35,16.35,0,0,0-16.33-16.32"/><path class="cls-4" d="M177.14,118.69A21.46,21.46,0,1,1,198.6,97.24,21.49,21.49,0,0,1,177.14,118.69Zm0-32.64a11.18,11.18,0,1,0,11.19,11.19A11.2,11.2,0,0,0,177.14,86.06Z"/><path class="cls-3" d="M318,151l-17.85-25.79c-6.82-8.71-20.21-7-27.56.85-0.48.51-42.38,51-42.38,51-3.21-.26-7.07-0.39-9.64-0.39l-81.39-1.79c-16.39.5-25.28,12.39-24.78,28.77,0.18,5.92,0,9.25,1.29,17.7v74.29h12.85l19-61.41,89,0.39v61h12.85l15.07-80.68A88.42,88.42,0,0,0,268.33,204c1.42-3.58,11.25-30.34,15.13-41l12,8.42c7.71,6.17,18.12,4.82,23.05-2.22C321.24,165.31,323.8,159.87,318,151Z"/><path class="cls-4" d="M249.38,300.74H236.53a5.14,5.14,0,0,1-5.14-5.14V239.7l-80-.35-17.88,57.77a5.14,5.14,0,0,1-4.91,3.62H115.71a5.14,5.14,0,0,1-5.14-5.14v-73.9a100.53,100.53,0,0,1-1.21-14.88l-0.07-3c-0.62-20.13,11.06-33.5,29.76-34.07l81.66,1.8a57.54,57.54,0,0,1,7.24.21c26.77-32.22,40.52-48.76,40.9-49.15a26,26,0,0,1,20-8.27A20.37,20.37,0,0,1,304.21,122l18,26,0.08,0.12c7.43,11.38,3.78,19.12.4,23.95a19.55,19.55,0,0,1-13.39,8.14,22.64,22.64,0,0,1-17.08-4.84L286,171.06c-4.5,12.33-11.66,31.78-12.88,34.85a89,89,0,0,1-3.72,10.52l-15,80.12A5.14,5.14,0,0,1,249.38,300.74Zm-7.72-10.27h3.45L259.41,214a5,5,0,0,1,.34-1.11,85.37,85.37,0,0,0,3.65-10.27c1.5-3.87,11.11-30,15.23-41.33a5.12,5.12,0,0,1,3.28-3.15,5.05,5.05,0,0,1,4.5.69l12,8.42a12.31,12.31,0,0,0,9.45,2.89,9.38,9.38,0,0,0,6.45-3.86c2.12-3,3.55-6.06-.56-12.4l-17.81-25.73a10,10,0,0,0-7.58-3.58,15.66,15.66,0,0,0-12,5c-0.95,1.1-30.77,37-42.17,50.72a5,5,0,0,1-4.35,1.83c-3.08-.24-6.77-0.36-9.23-0.36L139.08,180c-12.57.4-20,9.18-19.53,23.49l0.08,3.14a91.14,91.14,0,0,0,1.15,13.94,4.66,4.66,0,0,1,.06.77v69.15h3.92l17.89-57.78a5.13,5.13,0,0,1,4.91-3.62h0l89,0.4a5.14,5.14,0,0,1,5.12,5.14v55.87Z"/><path class="cls-2" d="M220.25,141.94h-24l-10.09-13.2a5,5,0,0,0-3.95-1.94l-12.64,0a6.84,6.84,0,0,0-6.8,6.4l-2.49,39.28L188,199l-0.83,32.78s-2,17.22,10.34,17.22,11.83-19.62,12-26.24c0.29-12.43.41-39.88,0.41-39.88l-19.22-22.73h29s10.75,0,10.47-10.47C230,142.77,220.25,141.94,220.25,141.94Z"/><path class="cls-4" d="M197.52,254.11a14.14,14.14,0,0,1-10.9-4.66c-5.75-6.45-4.69-17.1-4.55-18.29l0.74-30-26.05-24.87a5.12,5.12,0,0,1-1.58-4l2.48-39.28a12,12,0,0,1,11.91-11.22l12.65,0a10.2,10.2,0,0,1,8,4l8.54,11.19h21.44l0.43,0c6.9,0.59,14.42,4.8,14.63,12.69a14.64,14.64,0,0,1-4,11c-4.49,4.61-10.92,4.74-11.65,4.74H201.76l12.07,14.28a5.13,5.13,0,0,1,1.22,3.33s-0.12,27.52-.42,40l0,1.33C214.49,232.36,214.15,254.11,197.52,254.11Zm-31.93-83.65,26,24.79a5.12,5.12,0,0,1,1.59,3.84l-0.83,32.78c-0.28,2.79-.13,8.38,2,10.76a3.87,3.87,0,0,0,3.21,1.2c5.84,0,6.69-11.31,6.82-19.82l0-1.41c0.24-10.43.36-31.48,0.4-37.89l-18-21.29a5.14,5.14,0,0,1,3.92-8.45h29a7,7,0,0,0,4.31-1.66c0.27-.28,1.09-1.15,1-3.54,0-1.61-3.6-2.53-5.07-2.71h-23.7a5.14,5.14,0,0,1-4.08-2l-10.08-13.2-12.5.12a1.7,1.7,0,0,0-1.69,1.59Z"/><line class="cls-3" x1="230.17" y1="149.65" x2="280.23" y2="172.78"/><path class="cls-4" d="M280.23,177.92a5.16,5.16,0,0,1-2.15-.47L228,154.32a5.14,5.14,0,1,1,4.3-9.33l50.05,23.13A5.14,5.14,0,0,1,280.23,177.92Z"/><line class="cls-3" x1="308.57" y1="175.1" x2="281" y2="122.1"/><rect class="cls-4" x="289.64" y="118.73" width="10.28" height="59.74" transform="translate(-35.31 152.81) rotate(-27.48)"/></svg>