<?xml version="1.0" encoding="utf-8"?>
<!-- Generator: Adobe Illustrator 19.2.1, SVG Export Plug-In . SVG Version: 6.00 Build 0)  -->
<svg version="1.1" xmlns="http://www.w3.org/2000/svg" xmlns:xlink="http://www.w3.org/1999/xlink" x="0px" y="0px"
	 viewBox="0 0 405 500" style="enable-background:new 0 0 405 500;" xml:space="preserve">
<style type="text/css">
	.st0{fill:#FFFFFF;}
	.st1{fill:#56DC4C;}
	.st2{fill:#6D6E72;}
	.st3{fill:none;stroke:#6D6E72;stroke-width:1.1339;stroke-linecap:round;stroke-linejoin:round;stroke-miterlimit:10;}
	.st4{fill:#575D60;}
</style>
<g id="Calque_1">
	<g>
		<g>
			<path class="st0" d="M204.9,6.8c-0.8,0-1.6,0-2.4,0c-0.8,0-1.6,0-2.4,0C93,6.8,6.8,93.9,6.8,201.2c0,0.4,0,0.7,0,1.1
				c0.3,47,21,91.6,52,126.8l143.7,160.7l143.7-160.7c31.1-35.2,51.8-79.8,52-126.8c0-0.4,0-0.7,0-1.1C398.2,93.9,312,6.8,204.9,6.8
				z"/>
			<path class="st1" d="M202.5,500L53.8,333.7C19.3,294.7,0.3,248.1,0,202.4v-1.1C0,90.3,89.8,0,200.1,0l2.4,0l2.4,0
				C315.2,0,405,90.3,405,201.2v1.1c-0.3,45.7-19.3,92.3-53.7,131.3L202.5,500z M200.1,13.6C97.2,13.6,13.5,97.8,13.5,201.2v1.1
				c0.2,42.4,18.1,85.8,50.3,122.3l138.6,155l138.6-155c32.2-36.5,50.1-79.9,50.3-122.3v-1.1c0-103.5-83.7-187.7-186.5-187.7l-2.3,0
				L200.1,13.6z"/>
		</g>
		<g>
			<g>
				<g>
					<ellipse class="st1" cx="162.3" cy="150.5" rx="7.8" ry="7.8"/>
				</g>
			</g>
			<g>
				<g>
					<ellipse class="st1" cx="202.5" cy="150.5" rx="7.8" ry="7.8"/>
				</g>
			</g>
			<g>
				<g>
					<ellipse class="st1" cx="242.3" cy="150.5" rx="7.8" ry="7.8"/>
				</g>
			</g>
			<g>
				<g>
					<ellipse class="st1" cx="162.3" cy="187" rx="7.8" ry="7.8"/>
				</g>
			</g>
			<g>
				<g>
					<ellipse class="st1" cx="202.5" cy="187" rx="7.8" ry="7.8"/>
				</g>
			</g>
			<g>
				<g>
					<ellipse class="st1" cx="242.3" cy="187" rx="7.8" ry="7.8"/>
				</g>
			</g>
			<g>
				<g>
					<ellipse class="st1" cx="162.3" cy="224" rx="7.8" ry="7.8"/>
				</g>
			</g>
			<g>
				<g>
					<ellipse class="st1" cx="202.5" cy="224" rx="7.8" ry="7.8"/>
				</g>
			</g>
			<g>
				<g>
					<ellipse class="st1" cx="242.3" cy="224" rx="7.8" ry="7.8"/>
				</g>
			</g>
			<g>
				<g>
					<path class="st2" d="M274.2,258H135.8c-2.7,0-4.9-2.2-4.9-4.9s2.2-4.9,4.9-4.9h138.3c2.7,0,4.9,2.2,4.9,4.9
						S276.9,258,274.2,258z"/>
				</g>
			</g>
			<g>
				<g>
					<path class="st2" d="M202.3,203c-8.8,0-16-7.2-16-16c0-8.8,7.2-16,16-16c8.8,0,16,7.2,16,16C218.3,195.8,211.1,203,202.3,203z
						 M202.3,180.8c-3.4,0-6.2,2.8-6.2,6.2c0,3.4,2.8,6.2,6.2,6.2c3.4,0,6.2-2.8,6.2-6.2C208.5,183.6,205.7,180.8,202.3,180.8z"/>
				</g>
			</g>
			<g>
				<g>
					<path class="st2" d="M162.3,203c-8.8,0-16-7.2-16-16c0-8.8,7.2-16,16-16s16,7.2,16,16C178.3,195.8,171.1,203,162.3,203z
						 M162.3,180.8c-3.4,0-6.2,2.8-6.2,6.2c0,3.4,2.8,6.2,6.2,6.2s6.2-2.8,6.2-6.2C168.5,183.6,165.7,180.8,162.3,180.8z"/>
				</g>
			</g>
			<g>
				<g>
					<path class="st2" d="M242.3,203c-8.8,0-16-7.2-16-16c0-8.8,7.2-16,16-16c8.8,0,16,7.2,16,16C258.3,195.8,251.1,203,242.3,203z
						 M242.3,180.8c-3.4,0-6.2,2.8-6.2,6.2c0,3.4,2.8,6.2,6.2,6.2c3.4,0,6.2-2.8,6.2-6.2C248.5,183.6,245.7,180.8,242.3,180.8z"/>
				</g>
			</g>
			<g>
				<g>
					<path class="st2" d="M202.3,239.5c-8.8,0-16-7.2-16-16c0-8.8,7.2-16,16-16c8.8,0,16,7.2,16,16
						C218.3,232.3,211.1,239.5,202.3,239.5z M202.3,217.3c-3.4,0-6.2,2.8-6.2,6.2c0,3.4,2.8,6.2,6.2,6.2c3.4,0,6.2-2.8,6.2-6.2
						C208.5,220.1,205.7,217.3,202.3,217.3z"/>
				</g>
			</g>
			<g>
				<g>
					<path class="st2" d="M162.3,239.5c-8.8,0-16-7.2-16-16c0-8.8,7.2-16,16-16s16,7.2,16,16C178.3,232.3,171.1,239.5,162.3,239.5z
						 M162.3,217.3c-3.4,0-6.2,2.8-6.2,6.2c0,3.4,2.8,6.2,6.2,6.2s6.2-2.8,6.2-6.2C168.5,220.1,165.7,217.3,162.3,217.3z"/>
				</g>
			</g>
			<g>
				<g>
					<path class="st2" d="M242.3,239.5c-8.8,0-16-7.2-16-16c0-8.8,7.2-16,16-16c8.8,0,16,7.2,16,16
						C258.3,232.3,251.1,239.5,242.3,239.5z M242.3,217.3c-3.4,0-6.2,2.8-6.2,6.2c0,3.4,2.8,6.2,6.2,6.2c3.4,0,6.2-2.8,6.2-6.2
						C248.5,220.1,245.7,217.3,242.3,217.3z"/>
				</g>
			</g>
			<g>
				<g>
					<path class="st2" d="M202.3,166.6c-8.8,0-16-7.2-16-16c0-8.8,7.2-16,16-16c8.8,0,16,7.2,16,16
						C218.3,159.4,211.1,166.6,202.3,166.6z M202.3,144.4c-3.4,0-6.2,2.8-6.2,6.2c0,3.4,2.8,6.2,6.2,6.2c3.4,0,6.2-2.8,6.2-6.2
						C208.5,147.1,205.7,144.4,202.3,144.4z"/>
				</g>
			</g>
			<g>
				<g>
					<path class="st2" d="M162.3,166.6c-8.8,0-16-7.2-16-16c0-8.8,7.2-16,16-16s16,7.2,16,16C178.3,159.4,171.1,166.6,162.3,166.6z
						 M162.3,144.4c-3.4,0-6.2,2.8-6.2,6.2c0,3.4,2.8,6.2,6.2,6.2s6.2-2.8,6.2-6.2C168.5,147.1,165.7,144.4,162.3,144.4z"/>
				</g>
			</g>
			<g>
				<g>
					<path class="st2" d="M242.3,166.6c-8.8,0-16-7.2-16-16c0-8.8,7.2-16,16-16c8.8,0,16,7.2,16,16
						C258.3,159.4,251.1,166.6,242.3,166.6z M242.3,144.4c-3.4,0-6.2,2.8-6.2,6.2c0,3.4,2.8,6.2,6.2,6.2c3.4,0,6.2-2.8,6.2-6.2
						C248.5,147.1,245.7,144.4,242.3,144.4z"/>
				</g>
			</g>
			<g>
				<g>
					<path class="st2" d="M274.8,309.1h-58.7c-2.7,0-4.9-2.2-4.9-4.9v-20c0-4.9-4-8.9-8.9-8.9c-4.9,0-8.9,4-8.9,8.9v20
						c0,2.7-2.2,4.9-4.9,4.9h-58.4c-2.7,0-4.9-2.2-4.9-4.9V100.2c0-7.3,6-13.2,13.3-13.2h127.9c7.3,0,13.3,5.9,13.3,13.2v204.1
						C279.8,306.9,277.6,309.1,274.8,309.1z M221,299.3h48.9V100.2c0-1.8-1.6-3.3-3.5-3.3H138.6c-1.9,0-3.5,1.5-3.5,3.3v199.1h48.6
						v-15c0-10.3,8.4-18.7,18.7-18.7c10.3,0,18.7,8.4,18.7,18.7V299.3z"/>
				</g>
			</g>
			<g>
				<g>
					<path class="st2" d="M269,124.8H135.6c-2.7,0-4.9-2.2-4.9-4.9c0-2.7,2.2-4.9,4.9-4.9H269c2.7,0,4.9,2.2,4.9,4.9
						C273.9,122.6,271.7,124.8,269,124.8z"/>
				</g>
			</g>
		</g>
	</g>
</g>
<g id="Calque_2">
</g>
</svg>
