<?xml version="1.0" encoding="utf-8"?>
<!-- Generator: Adobe Illustrator 19.2.1, SVG Export Plug-In . SVG Version: 6.00 Build 0)  -->
<svg version="1.1" xmlns="http://www.w3.org/2000/svg" xmlns:xlink="http://www.w3.org/1999/xlink" x="0px" y="0px"
	 viewBox="0 0 405 500" style="enable-background:new 0 0 405 500;" xml:space="preserve">
<style type="text/css">
	.st0{fill:#FFFFFF;}
	.st1{fill:#56DC4C;}
	.st2{fill:#6D6E72;}
	.st3{fill:none;stroke:#6D6E72;stroke-width:1.1339;stroke-linecap:round;stroke-linejoin:round;stroke-miterlimit:10;}
	.st4{fill:#575D60;}
</style>
<g id="Calque_1">
	<g>
		<g>
			<path class="st0" d="M204.9,6.8c-0.8,0-1.6,0-2.4,0c-0.8,0-1.6,0-2.4,0C93,6.8,6.8,93.8,6.8,201.2c0,0.4,0,0.7,0,1.1
				c0.3,47,21,91.6,52,126.8l143.7,160.7l143.7-160.7c31.1-35.2,51.8-79.8,52-126.8c0-0.4,0-0.7,0-1.1C398.2,93.8,312,6.8,204.9,6.8
				z"/>
			<path class="st1" d="M202.5,500L53.8,333.7C19.3,294.7,0.3,248.1,0,202.4v-1.1C0,90.3,89.7,0,200.1,0l2.5,0l2.3,0
				C315.2,0,405,90.3,405,201.2l0,1.1c-0.3,45.7-19.3,92.3-53.7,131.3L202.5,500z M200.1,13.6C97.2,13.6,13.5,97.8,13.5,201.2v1.1
				c0.2,42.4,18.1,85.8,50.3,122.3l138.6,155l138.7-155c32.2-36.5,50.1-79.9,50.3-122.3l0,0l0-1.1c0-103.5-83.7-187.7-186.5-187.7
				l-2.3,0L200.1,13.6z"/>
		</g>
		<g>
			<g>
				<g>
					<g>
						<ellipse class="st1" cx="200.2" cy="201.3" rx="23.8" ry="23.9"/>
					</g>
				</g>
			</g>
			<g>
				<g>
					<path class="st2" d="M200.2,234.4c-18.2,0-33-14.9-33-33.1c0-18.3,14.8-33.1,33-33.1s33,14.9,33,33.1
						C233.2,219.5,218.4,234.4,200.2,234.4z M200.2,179.1c-12.2,0-22.2,10-22.2,22.2s9.9,22.2,22.2,22.2s22.2-10,22.2-22.2
						S212.4,179.1,200.2,179.1z"/>
				</g>
			</g>
			<g>
				<g>
					<path class="st0" d="M319.1,192.3l-66.2-55.4c-14.3-11.8-32.7-18.9-52.7-18.9c-12.9,0-25.1,2.9-36,8.2
						c-5.9,2.9-11.3,6.8-16.4,11l-66.4,55.1c-2.7,2.1-4.4,5.3-4.4,8.9c0,4,2.4,6.9,5.2,9.5l65.6,54.5c5.1,4.2,10.5,8.1,16.4,11
						c10.9,5.3,23.1,8.2,36,8.2c21,0,40.2-7.8,54.9-20.8l64.8-54.3c2.2-2.1,3.5-5,3.5-8.2C323.4,197.6,321.7,194.4,319.1,192.3z
						 M200.2,260.6c-32.7,0-59.1-26.5-59.1-59.3c0-32.7,26.5-59.3,59.1-59.3s59.1,26.5,59.1,59.3C259.3,234,232.8,260.6,200.2,260.6
						z"/>
				</g>
				<g>
					<path class="st2" d="M200.2,290c-13.4,0-26.3-2.9-38.4-8.7c-5.6-2.7-11.2-6.4-17.6-11.7L78.7,215c-3.2-2.9-7.2-7.3-7.2-13.7
						c0-5.2,2.4-10,6.5-13.2l66.3-55c6.3-5.3,11.9-9,17.5-11.7c12-5.8,24.9-8.8,38.4-8.8c20.4,0,40.4,7.1,56.1,20.1l66.2,55.4
						c4.1,3.2,6.4,8,6.4,13.2c0,4.6-1.9,9.1-5.3,12.2L258.5,268C242.5,282.1,221.7,290,200.2,290z M200.2,123.5
						c-11.8,0-23.1,2.6-33.6,7.7c-4.8,2.3-9.7,5.6-15.3,10.3l-66.4,55.1c-1.6,1.2-2.4,2.9-2.4,4.7c0,1.7,1,3.3,3.4,5.5l65.4,54.3
						c5.7,4.7,10.5,8,15.3,10.3c10.5,5.1,21.9,7.7,33.6,7.7c18.9,0,37.1-6.9,51.3-19.4l64.9-54.4c0.9-0.9,1.6-2.4,1.6-4
						c0-1.8-0.8-3.5-2.2-4.6l-0.2-0.1l-66.2-55.4C235.6,129.7,218.1,123.5,200.2,123.5z M200.2,266c-35.6,0-64.6-29-64.6-64.7
						s29-64.7,64.6-64.7s64.6,29,64.6,64.7S235.8,266,200.2,266z M200.2,147.4c-29.6,0-53.7,24.1-53.7,53.8
						c0,29.7,24.1,53.8,53.7,53.8s53.7-24.1,53.7-53.8C253.9,171.6,229.8,147.4,200.2,147.4z"/>
				</g>
			</g>
		</g>
	</g>
</g>
<g id="Calque_2">
</g>
</svg>
