<?xml version="1.0" encoding="utf-8"?>
<!-- Generator: Adobe Illustrator 19.2.1, SVG Export Plug-In . SVG Version: 6.00 Build 0)  -->
<svg version="1.1" xmlns="http://www.w3.org/2000/svg" xmlns:xlink="http://www.w3.org/1999/xlink" x="0px" y="0px"
	 viewBox="0 0 405 500" style="enable-background:new 0 0 405 500;" xml:space="preserve">
<style type="text/css">
	.st0{fill:#FFFFFF;}
	.st1{fill:#56DC4C;}
	.st2{fill:#6D6E72;}
	.st3{fill:none;stroke:#6D6E72;stroke-width:1.1339;stroke-linecap:round;stroke-linejoin:round;stroke-miterlimit:10;}
	.st4{fill:#575D60;}
</style>
<g id="Calque_1">
	<g>
		<g>
			<path class="st0" d="M204.9,6.8c-0.8,0-1.6,0-2.4,0c-0.8,0-1.6,0-2.4,0C93,6.8,6.8,93.8,6.8,201.2c0,0.4,0,0.7,0,1.1
				c0.3,47,21,91.6,52,126.8l143.7,160.7l143.7-160.7c31.1-35.2,51.8-79.8,52-126.8c0-0.4,0-0.7,0-1.1C398.2,93.8,312,6.8,204.9,6.8
				z"/>
			<path class="st1" d="M202.5,500L53.8,333.7C19.3,294.7,0.3,248.1,0,202.4v-1.1C0,90.3,89.8,0,200.1,0l2.5,0l2.4,0
				C315.2,0,405,90.3,405,201.2l0,1.3c-0.2,45.5-19.3,92.2-53.7,131.1L202.5,500z M200.1,13.6C97.2,13.6,13.6,97.8,13.6,201.2v1.1
				c0.2,42.4,18.1,85.8,50.3,122.3l138.6,155l138.6-155c32.2-36.5,50.1-79.9,50.3-122.3l0-1.1c0-103.5-83.7-187.7-186.5-187.7
				l-2.4,0L200.1,13.6z"/>
		</g>
		<g>
			<g>
				<g>
					<path class="st1" d="M248.9,271.9l10.8-12.8l27,0.1c-0.8-4-5.7-10.9-8.5-13.7c-14.6-14.6-38.1-14.5-52.6,0.1
						c-2.6,2.6-4.6,5.4-6.3,8.5l-60.3,0.1c-0.5-0.5-0.8-1.1-1.3-1.6c-10.8-10.8-28.2-10.8-39,0c-10.7,10.8-10.7,28.3,0,39.1
						c10.8,10.8,28.2,10.8,39,0c0.5-0.5,0.9-1.1,1.3-1.6l60.3-0.1c1.7,3,3.8,5.9,6.3,8.5c14.6,14.6,38.1,14.5,52.6-0.1
						c1.7-1.7,7.1-8,8.4-10l-29.7-0.5L248.9,271.9z M144,277.7c-3.1,3.1-8.2,3.1-11.3,0c-3.1-3.1-3.1-8.2,0-11.4
						c3.1-3.1,8.2-3.1,11.3,0S147.1,274.6,144,277.7z"/>
				</g>
				<g>
					<path class="st2" d="M252,314.4c-10.8,0-21.7-4.1-29.9-12.4c-2.1-2.1-4-4.4-5.6-7l-55,0.1c0,0-0.1,0.1-0.1,0.1
						c-6.2,6.2-14.4,9.6-23.1,9.6c0,0,0,0,0,0c-8.7,0-16.9-3.4-23.1-9.6c-12.8-12.8-12.8-33.5-0.1-46.3c12.7-12.8,33.5-12.8,46.2,0
						c0,0,0.1,0.1,0.1,0.1l54.9-0.1c1.6-2.5,3.5-4.9,5.6-7c16.5-16.6,43.4-16.6,59.9-0.1c2.8,2.8,8.8,10.8,9.9,16.4
						c0.3,1.5-0.1,3.1-1.1,4.3c-1,1.2-2.4,1.9-4,1.9h0l-24.6-0.1l-7.1,8.3l5.2,10.1l26.6,0.5c1.9,0,3.6,1.1,4.5,2.8
						c0.9,1.7,0.8,3.7-0.3,5.2c-1.6,2.4-7.3,9-9.1,10.7C273.7,310.2,262.9,314.4,252,314.4z M219.4,284.8c1.9,0,3.6,1,4.5,2.7
						c1.5,2.7,3.3,5.2,5.5,7.3c12.5,12.5,32.9,12.5,45.4,0c0.3-0.3,0.8-0.8,1.3-1.4l-19-0.3c-1.9,0-3.6-1.1-4.5-2.8l-8.2-15.8
						c-1-1.9-0.7-4.1,0.6-5.7l10.8-12.8c1-1.1,2.4-1.8,3.9-1.8h0l18.8,0c-1.3-1.9-2.7-3.8-3.9-4.9c-12.5-12.5-32.9-12.5-45.4,0
						c-2.1,2.1-3.9,4.6-5.4,7.3c-0.9,1.7-2.6,2.7-4.5,2.7l-60.3,0.1c0,0,0,0,0,0c-1.5,0-2.9-0.7-3.9-1.8c-0.1-0.1-0.6-0.8-0.7-0.9
						c-9.1-9.2-23.3-9.2-32.1-0.4c-8.7,8.8-8.7,23,0,31.8c4.2,4.2,9.9,6.6,15.8,6.6c0,0,0,0,0,0c6,0,11.6-2.3,15.8-6.6
						c0.1-0.1,1-1.2,1-1.3c1-1.1,2.4-1.8,3.9-1.8L219.4,284.8C219.4,284.8,219.4,284.8,219.4,284.8z M138.3,282.6
						c-2.7,0-5.4-1-7.4-3.1c-4.1-4.1-4.1-10.8,0-14.9c2-2,4.6-3.1,7.4-3.1c0,0,0,0,0,0c2.8,0,5.4,1.1,7.4,3.1
						c4.1,4.1,4.1,10.8,0,14.9l0,0C143.7,281.5,141,282.6,138.3,282.6z M138.3,269.2L138.3,269.2c-0.8,0-1.5,0.3-2,0.8
						c-1.1,1.1-1.1,3,0,4.1c1.1,1.1,3,1.1,4.1,0c1.1-1.1,1.1-3,0-4.1C139.8,269.5,139.1,269.2,138.3,269.2z"/>
				</g>
			</g>
			<g>
				<ellipse class="st1" cx="197.2" cy="169.1" rx="12.9" ry="13"/>
			</g>
			<g>
				<path class="st2" d="M268.6,126.3c-4.3,0-8.4,0.8-12.3,2L242,94.6h11.5h0.1c1.6,0,2.4,0.9,2.4,2.7c0.1,2.4,2.2,4.3,4.5,4.2
					c2.4-0.1,4.3-2.1,4.2-4.5c-0.2-8.4-6.2-11.2-11.3-11.2h-17.9c-1.5,0-2.8,0.7-3.6,1.9c-0.8,1.2-0.9,2.8-0.4,4.1l5.7,13.5h-62.4
					l-5.1-10.8h9.7c2.4,0,4.3-2,4.3-4.4s-1.9-4.4-4.3-4.4h-32.8c-2.4,0-4.3,1.9-4.3,4.4s1.9,4.4,4.3,4.4H160l7.2,15.2l-16.6,22.6
					c-6.4-3.8-13.7-6.1-21.6-6.1c-23.5,0-42.6,19.2-42.6,42.8c0,23.6,19.1,42.8,42.6,42.8c22,0,40-16.9,42.2-38.4h7.8
					c2,8.8,9.8,15.4,19.2,15.4c10.9,0,19.7-8.9,19.7-19.8c0-4.2-1.3-8.1-3.6-11.3l28.2-39.5l5.7,13.4c-13.2,7.3-22.3,21.2-22.3,37.4
					c0,23.6,19.1,42.8,42.6,42.8s42.6-19.2,42.6-42.8C311.2,145.5,292.1,126.3,268.6,126.3z M129,203.1c-18.7,0-33.9-15.3-33.9-34
					s15.2-34,33.9-34c6,0,11.5,1.7,16.4,4.4l-12.5,17c-0.3-0.1-0.6-0.2-0.9-0.3c-3.4-0.8-7-0.2-10,1.6c-3,1.9-5.1,4.8-5.9,8.3
					c-0.8,3.5-0.2,7,1.6,10.1c1.9,3,4.8,5.1,8.3,6c1,0.2,2,0.4,3,0.4c5.5,0,10.5-3.6,12.4-9h21.1C160.3,190.2,146.2,203.1,129,203.1
					z M133.4,169.1c0,2.5-2.1,4.6-4.6,4.6c-2.5,0-4.6-2.1-4.6-4.6c0-2.5,2.1-4.6,4.6-4.6C131.3,164.5,133.4,166.6,133.4,169.1z
					 M141.5,164.7c-0.3-0.9-0.7-1.8-1.2-2.7c-0.1-0.2-0.3-0.3-0.4-0.5l12.5-17c5.4,5.2,9,12.3,10.1,20.2H141.5z M179,164.7h-7.8
					c-1.1-10.7-6.1-20.2-13.6-27.1l13.9-18.8l16,33.8C183.2,155.3,180.2,159.7,179,164.7z M198.2,179.6c-5.8,0-10.5-4.7-10.5-10.5
					s4.7-10.5,10.5-10.5s10.5,4.7,10.5,10.5S204,179.6,198.2,179.6z M207.9,152c-2.9-1.6-6.1-2.6-9.7-2.6c-0.9,0-1.7,0.1-2.5,0.3
					l-16.8-35.5h56L207.9,152z M268.6,203.1c-18.7,0-33.9-15.3-33.9-34c0-12.6,6.9-23.4,17-29.3l8.1,19.2c-2.1,1.8-3.7,4.2-4.4,7.1
					c-0.8,3.5-0.2,7,1.6,10.1c1.9,3,4.8,5.1,8.3,5.9c1,0.2,2,0.4,3.1,0.4c2.4,0,4.8-0.7,7-2c3-1.9,5.1-4.8,5.9-8.3
					c0.8-3.5,0.2-7-1.6-10c-1.9-3-4.8-5.1-8.3-6c-1.2-0.3-2.3-0.3-3.5-0.3l-8.2-19.4c2.8-0.8,5.8-1.3,8.9-1.3
					c18.7,0,33.9,15.3,33.9,34S287.3,203.1,268.6,203.1z M263.7,169.1c0-2.5,2.1-4.6,4.6-4.6c2.5,0,4.6,2.1,4.6,4.6
					c0,2.5-2.1,4.6-4.6,4.6C265.8,173.7,263.7,171.6,263.7,169.1z"/>
			</g>
		</g>
	</g>
</g>
<g id="Calque_2">
</g>
</svg>
