<?xml version="1.0" encoding="utf-8"?>
<!-- Generator: Adobe Illustrator 19.2.1, SVG Export Plug-In . SVG Version: 6.00 Build 0)  -->
<svg version="1.1" xmlns="http://www.w3.org/2000/svg" xmlns:xlink="http://www.w3.org/1999/xlink" x="0px" y="0px"
	 viewBox="0 0 405 500" style="enable-background:new 0 0 405 500;" xml:space="preserve">
<style type="text/css">
	.st0{fill:#FFFFFF;}
	.st1{fill:#56DC4C;}
	.st2{fill:#6D6E72;}
	.st3{fill:none;stroke:#6D6E72;stroke-width:1.1339;stroke-linecap:round;stroke-linejoin:round;stroke-miterlimit:10;}
	.st4{fill:#575D60;}
</style>
<g id="Calque_1">
	<g>
		<path class="st0" d="M204.9,6.8c-0.8,0-1.6,0-2.4,0c-0.8,0-1.6,0-2.4,0C93,6.8,6.8,93.8,6.8,201.2c0,0.4,0,0.7,0,1.1
			c0.3,47,21,91.6,52,126.8l143.7,160.7l143.7-160.7c31.1-35.2,51.8-79.8,52-126.8c0-0.4,0-0.7,0-1.1C398.2,93.8,312,6.8,204.9,6.8z
			"/>
		<path class="st1" d="M202.5,500L53.8,333.7C19.3,294.7,0.3,248.1,0,202.4v-1.1C0,90.3,89.8,0,200.1,0l2.5,0l2.3,0
			C315.2,0,405,90.3,405,201.2l0,1.2c-0.2,45.6-19.3,92.2-53.7,131.2L202.5,500z M200.1,13.6C97.2,13.6,13.5,97.8,13.5,201.2v1.1
			c0.2,42.3,18.1,85.8,50.3,122.3l138.6,155l138.7-155c32.2-36.5,50.1-79.9,50.3-122.3l0-1.1c0-103.5-83.7-187.7-186.5-187.7l-2.3,0
			L200.1,13.6z"/>
	</g>
	<g>
		<g>
			<g>
				<polygon class="st1" points="94.8,169.8 311.2,174.4 201.5,99.5 				"/>
			</g>
		</g>
		<g>
			<g>
				<path class="st2" d="M315.3,180.3H87.7c-2.6,0-4.9-1.7-5.6-4.2c-0.7-2.5,0.2-5.2,2.4-6.6l113.8-75c2-1.3,4.5-1.3,6.5,0l113.8,75
					c2.2,1.4,3.1,4.1,2.4,6.6C320.2,178.6,317.9,180.3,315.3,180.3z M107.4,168.5h188.4l-94.2-62L107.4,168.5z"/>
			</g>
		</g>
		<g>
			<g>
				<path class="st2" d="M123.1,294.3c-3.3,0-5.9-2.6-5.9-5.9v-114c0-3.3,2.6-5.9,5.9-5.9s5.9,2.6,5.9,5.9v114
					C129,291.7,126.3,294.3,123.1,294.3z"/>
			</g>
		</g>
		<g>
			<g>
				<path class="st2" d="M279.2,294.3c-3.3,0-5.9-2.6-5.9-5.9v-114c0-3.3,2.6-5.9,5.9-5.9s5.9,2.6,5.9,5.9v114
					C285.1,291.7,282.4,294.3,279.2,294.3z"/>
			</g>
		</g>
	</g>
</g>
<g id="Calque_2">
</g>
</svg>
