<?xml version="1.0" encoding="UTF-8" standalone="no"?>
<!-- Generator: Adobe Illustrator 16.0.0, SVG Export Plug-In . SVG Version: 6.00 Build 0)  -->

<svg
   xmlns:dc="http://purl.org/dc/elements/1.1/"
   xmlns:cc="http://creativecommons.org/ns#"
   xmlns:rdf="http://www.w3.org/1999/02/22-rdf-syntax-ns#"
   xmlns:svg="http://www.w3.org/2000/svg"
   xmlns="http://www.w3.org/2000/svg"
   xmlns:sodipodi="http://sodipodi.sourceforge.net/DTD/sodipodi-0.dtd"
   xmlns:inkscape="http://www.inkscape.org/namespaces/inkscape"
   version="1.1"
   id="Layer_1"
   x="0px"
   y="0px"
   width="512px"
   height="512px"
   viewBox="0 0 512 512"
   enable-background="new 0 0 512 512"
   xml:space="preserve"
   inkscape:version="0.91 r13725"
   sodipodi:docname="incomplete_marker.svg"><metadata
     id="metadata4155"><rdf:RDF><cc:Work
         rdf:about=""><dc:format>image/svg+xml</dc:format><dc:type
           rdf:resource="http://purl.org/dc/dcmitype/StillImage" /><dc:title></dc:title></cc:Work></rdf:RDF></metadata><defs
     id="defs4153" /><sodipodi:namedview
     pagecolor="#ffffff"
     bordercolor="#666666"
     borderopacity="1"
     objecttolerance="10"
     gridtolerance="10"
     guidetolerance="10"
     inkscape:pageopacity="0"
     inkscape:pageshadow="2"
     inkscape:window-width="690"
     inkscape:window-height="647"
     id="namedview4151"
     showgrid="false"
     inkscape:zoom="0.4609375"
     inkscape:cx="256"
     inkscape:cy="256"
     inkscape:window-x="4247"
     inkscape:window-y="73"
     inkscape:window-maximized="0"
     inkscape:current-layer="Layer_1" /><path
     style="stroke:#4e822c;stroke-opacity:1;stroke-width:10;stroke-miterlimit:4;stroke-dasharray:none;fill:#5e9d35;fill-opacity:1"
     d="M 256 0 C 167.641 0 96 71.625 96 160 C 96 184.75 101.62488 208.219 111.67188 229.125 C 112.23387 230.313 256 512 256 512 L 398.59375 232.625 C 409.71875 210.844 416 186.156 416 160 C 416 71.625 344.375 0 256 0 z M 256 88 A 60.745766 60.745766 0 0 1 316.74609 148.74609 A 60.745766 60.745766 0 0 1 256 209.49219 A 60.745766 60.745766 0 0 1 195.25391 148.74609 A 60.745766 60.745766 0 0 1 256 88 z "
     id="path4149" /></svg>