<svg id="Calque_1" data-name="Calque 1" xmlns="http://www.w3.org/2000/svg" viewBox="0 0 350 350"><defs><style>.cls-1{fill:#8ddc59;}.cls-2{fill:#6d6e71;}</style></defs><title>Icons_Hikster_2_colors</title><polygon class="cls-1" points="214.65 160.89 133.8 160.89 164.86 107.42 184.58 107.42 214.65 160.89"/><circle class="cls-1" cx="29.19" cy="43.36" r="20.34"/><path class="cls-2" d="M29.19,30.28A13.08,13.08,0,1,1,16.11,43.36,13.09,13.09,0,0,1,29.19,30.28m0-15.69A28.77,28.77,0,1,0,58,43.36,28.77,28.77,0,0,0,29.19,14.58h0Z"/><path class="cls-2" d="M342.15,319.73H323.53L237,181.82a7.82,7.82,0,0,0-.89-2L184,97.21l15.83-25.6a7.85,7.85,0,0,0-13.34-8.26l-11.81,19.1L162.57,63.29a7.85,7.85,0,0,0-13.28,8.38l16,25.31L27.37,319.33c-0.08.13-.15,0.27-0.22,0.4H7.85a7.84,7.84,0,1,0,0,15.69H121.26a7.83,7.83,0,0,0,6.15-3,7.82,7.82,0,0,0,3.37-2.9l44-68.22,44,68.65a7.8,7.8,0,0,0,4.42,3.29,7.82,7.82,0,0,0,5.39,2.15H342.15A7.84,7.84,0,1,0,342.15,319.73ZM181.38,242.57a7.83,7.83,0,0,0-6.6-3.61h0a7.84,7.84,0,0,0-6.6,3.6l-49.74,77.17H45.59l82.28-132.67a7.78,7.78,0,0,0,1.74-2l45.16-73L305,319.73H230.79Z"/></svg>