<svg id="Calque_1" data-name="Calque 1" xmlns="http://www.w3.org/2000/svg" viewBox="0 0 350 350"><defs><style>.cls-1{fill:#6d6e71;}.cls-2{fill:#8ddc59;}</style></defs><title>Icons_Hikster_2_colors_V2</title><path class="cls-1" d="M175,19.19c85.91,0,155.81,69.9,155.81,155.81S260.92,330.81,175,330.81,19.19,260.91,19.19,175,89.08,19.19,175,19.19M175,0A175,175,0,1,0,350,175,175,175,0,0,0,175,0h0Z"/><path class="cls-2" d="M174.18,99.93h0m0-19.19A19.31,19.31,0,1,0,193.48,100a19.31,19.31,0,0,0-19.31-19.31h0Z"/><path class="cls-2" d="M174.38,142.22l-0.24,0h-28.9a7,7,0,0,0,0,14.1h13.51a15.48,15.48,0,0,0-.17,1.67v88.71a15.37,15.37,0,0,0,.18,1.78H145.24a7,7,0,0,0,0,14.1h59.51a7,7,0,1,0,0-14.1H190a15.37,15.37,0,0,0,.18-1.78V158c0-1.6-.08-7.32-0.08-8.9,0-3.88-2.34-6.87-6.21-6.87h-9.26l-0.24,0h0Z"/></svg>