<?xml version="1.0" encoding="utf-8"?>
<!-- Generator: Adobe Illustrator 19.2.1, SVG Export Plug-In . SVG Version: 6.00 Build 0)  -->
<svg version="1.1" xmlns="http://www.w3.org/2000/svg" xmlns:xlink="http://www.w3.org/1999/xlink" x="0px" y="0px"
	 viewBox="0 0 120 120" style="enable-background:new 0 0 120 120;" xml:space="preserve">
<style type="text/css">
	.st0{fill:#9299A0;}
</style>
<g id="Calque_2">
</g>
<g id="Calque_1">
	<path id="Pintesrest_3_" class="st0" d="M60,0C26.9,0,0,26.9,0,60c0,33.1,26.9,60,60,60s60-26.9,60-60C120,26.9,93.1,0,60,0z
		 M66.2,73.4c-3.7,0-7.2-2-8.4-4.3c0,0-2,7.9-2.4,9.5c-1.5,5.4-5.9,10.8-6.2,11.3c-0.2,0.3-0.8,0.2-0.8-0.2
		c-0.1-0.7-1.2-7.5,0.1-13.1c0.7-2.8,4.4-18.8,4.4-18.8s-1.1-2.2-1.1-5.4c0-5.1,3-8.9,6.7-8.9c3.1,0,4.6,2.4,4.6,5.2
		c0,3.1-2,7.9-3,12.2c-0.9,3.7,1.8,6.6,5.4,6.6c6.5,0,10.9-8.4,10.9-18.3c0-7.6-5.1-13.2-14.3-13.2c-10.5,0-17,7.8-17,16.5
		c0,3,0.9,5.1,2.3,6.8c0.6,0.8,0.7,1.1,0.5,1.9c-0.2,0.6-0.5,2.2-0.7,2.8c-0.2,0.9-0.9,1.2-1.7,0.9c-4.8-2-7.1-7.2-7.1-13.2
		C38.3,41.7,46.6,30,63,30c13.2,0,21.8,9.5,21.8,19.7C84.8,63.3,77.3,73.4,66.2,73.4z"/>
</g>
</svg>
