<?xml version="1.0" encoding="utf-8"?>
<!-- Generator: Adobe Illustrator 19.2.1, SVG Export Plug-In . SVG Version: 6.00 Build 0)  -->
<svg version="1.1" xmlns="http://www.w3.org/2000/svg" xmlns:xlink="http://www.w3.org/1999/xlink" x="0px" y="0px"
	 viewBox="0 0 120 120" style="enable-background:new 0 0 120 120;" xml:space="preserve">
<style type="text/css">
	.st0{fill:#9299A0;}
</style>
<g id="Calque_2">
</g>
<g id="Calque_1">
	<path id="Twitter_3_" class="st0" d="M60,0C26.9,0,0,26.9,0,60c0,33.1,26.9,60,60,60c33.1,0,60-26.9,60-60C120,26.9,93.1,0,60,0z
		 M83.9,47.8c0,0.5,0,1.1,0,1.6c0,16.3-12.4,35-35,35c-7,0-13.4-2-18.9-5.5c1,0.1,1.9,0.2,2.9,0.2c5.8,0,11.1-2,15.3-5.3
		c-5.4-0.1-9.9-3.7-11.5-8.5c0.8,0.1,1.5,0.2,2.3,0.2c1.1,0,2.2-0.2,3.2-0.4c-5.6-1.1-9.9-6.1-9.9-12.1c0-0.1,0-0.1,0-0.2
		c1.7,0.9,3.6,1.5,5.6,1.5c-3.3-2.2-5.5-6-5.5-10.2c0-2.3,0.6-4.4,1.7-6.2c6.1,7.4,15.1,12.3,25.4,12.9c-0.2-0.9-0.3-1.8-0.3-2.8
		c0-6.8,5.5-12.3,12.3-12.3c3.5,0,6.7,1.5,9,3.9c2.8-0.5,5.4-1.6,7.8-3c-0.9,2.9-2.9,5.3-5.4,6.8c2.5-0.3,4.9-1,7.1-1.9
		C88.4,43.9,86.3,46,83.9,47.8z"/>
</g>
</svg>
