<?xml version="1.0" encoding="utf-8"?>
<!-- Generator: Adobe Illustrator 19.2.1, SVG Export Plug-In . SVG Version: 6.00 Build 0)  -->
<svg version="1.1" id="Calque_1" xmlns="http://www.w3.org/2000/svg" xmlns:xlink="http://www.w3.org/1999/xlink" x="0px" y="0px"
	 viewBox="0 0 120 120" style="enable-background:new 0 0 120 120;" xml:space="preserve">
<style type="text/css">
	.st0{fill:#FAFAFA;}
	.st1{fill:#FAFAFA;stroke:#231F20;stroke-width:0.1417;stroke-miterlimit:10;}
</style>
<g>
	<g>
		<path class="st0" d="M60,5c0.2,0,0.4,0.2,0.5,0.5l11.6,37.4c0.6,2.1,2.6,3.5,4.7,3.5h37.6c0.2,0,0.4,0.2,0.5,0.5
			c0.1,0.4,0,0.9-0.3,1.1L84.3,71.1c-1.7,1.3-2.4,3.4-1.7,5.4l11.6,37.4c0.1,0.4,0,0.9-0.3,1.1c-0.1,0.1-0.2,0.1-0.3,0.1
			c-0.1,0-0.2,0-0.3-0.1L63,91.8c-0.9-0.7-1.9-1-3-1c-1.1,0-2.1,0.3-3,1l-30.4,23.1c-0.1,0.1-0.2,0.1-0.3,0.1c-0.1,0-0.2,0-0.3-0.1
			c-0.3-0.2-0.4-0.7-0.3-1.1l11.6-37.4c0.6-2-0.1-4.2-1.7-5.4L5.3,48C5,47.7,4.9,47.3,5,46.9c0.1-0.3,0.3-0.5,0.5-0.5h37.6
			c2.2,0,4.1-1.4,4.7-3.5L59.5,5.5C59.6,5.2,59.8,5,60,5 M60,0c-2.4,0-4.5,1.6-5.3,4L43.1,41.4H5.6c-2.4,0-4.5,1.6-5.3,4
			c-0.7,2.4,0.1,5,2,6.5L32.7,75l-11.6,37.4c-0.7,2.4,0.1,5,2,6.5c1,0.7,2.1,1.1,3.3,1.1c1.1,0,2.3-0.4,3.3-1.1L60,95.8l30.4,23.1
			c1,0.7,2.1,1.1,3.3,1.1c1.2,0,2.3-0.4,3.3-1.1c2-1.5,2.8-4.1,2-6.5L87.3,75l30.4-23.1c2-1.5,2.8-4.1,2-6.5c-0.7-2.4-2.9-4-5.3-4
			H76.9L65.3,4C64.5,1.6,62.4,0,60,0L60,0z"/>
	</g>
</g>
</svg>
