<svg id="Calque_1" data-name="Calque 1" xmlns="http://www.w3.org/2000/svg" viewBox="0 0 350 350"><defs><style>.cls-1{fill:#fff;}</style></defs><title>Icons_Hikster_2_colors</title><path class="cls-1" d="M132.52,0.5a8.78,8.78,0,0,0-8.77,8.79V98.83h-7.43V9.29a8.77,8.77,0,1,0-17.54,0V98.83H91.3V9.29a8.77,8.77,0,1,0-17.54,0V98.83h-7.3V9.29a8.77,8.77,0,1,0-17.54,0v98.33c0,0.16,0,.32,0,0.48A46.31,46.31,0,0,0,73.33,148.4,31.46,31.46,0,0,0,62.65,172V319A31.51,31.51,0,0,0,94.1,350.5h2A31.51,31.51,0,0,0,127.56,319V172a31.46,31.46,0,0,0-10.68-23.63,46.31,46.31,0,0,0,24.38-40.3c0-.16,0-0.32,0-0.48V9.29A8.78,8.78,0,0,0,132.52.5ZM110,319a13.93,13.93,0,0,1-13.91,13.93h-2A13.94,13.94,0,0,1,80.19,319V172A13.94,13.94,0,0,1,94.1,158.11h2A13.93,13.93,0,0,1,110,172V319ZM95.11,136.3a28.68,28.68,0,0,1-27.26-19.88h54.51A28.68,28.68,0,0,1,95.11,136.3Z"/><path class="cls-1" d="M285,198.75c12.59-41.24,17.1-73.1,15.92-110.65-1.58-50.16-23.17-75.78-23.78-76.47a25,25,0,0,0-44.77,15.26V200.13a8.78,8.78,0,0,0-4,7.38V318.26c0,17.54,14.56,31.8,32.45,31.8s32.46-14.27,32.46-31.8V207.52A8.77,8.77,0,0,0,285,198.75ZM263.49,22.7c0.19,0.22,18.5,22.45,19.86,66,1.17,37-3.56,68.28-16.75,110.07H249.87V26.89C249.87,20.46,258.79,16.64,263.49,22.7Zm12.2,295.57c0,7.85-6.7,14.22-14.92,14.22s-14.91-6.37-14.91-14.22v-102h29.84v102Z"/></svg>