<svg id="Calque_1" data-name="Calque 1" xmlns="http://www.w3.org/2000/svg" viewBox="0 0 350 350"><defs><style>.cls-1{fill:#fff;}</style></defs><title>Icons_Hikster_2_colors_V2</title><path class="cls-1" d="M316.29,50H33.71A33.85,33.85,0,0,0,0,84V266A33.85,33.85,0,0,0,33.71,300H316.29A33.85,33.85,0,0,0,350,266V84A33.85,33.85,0,0,0,316.29,50ZM33.71,64.74H316.29A19.19,19.19,0,0,1,335.4,84v20.47H14.6V84A19.19,19.19,0,0,1,33.71,64.74ZM316.29,285.26H33.71A19.19,19.19,0,0,1,14.6,266V119.15H335.4V266A19.19,19.19,0,0,1,316.29,285.26Z"/><ellipse class="cls-1" cx="309.74" cy="85.68" rx="5.76" ry="5.8"/><ellipse class="cls-1" cx="275.63" cy="85.68" rx="5.76" ry="5.8"/><ellipse class="cls-1" cx="237.83" cy="85.68" rx="5.76" ry="5.8"/></svg>