<svg id="Calque_1" data-name="Calque 1" xmlns="http://www.w3.org/2000/svg" viewBox="0 0 350 350"><defs><style>.cls-1{fill:#fff;}</style></defs><title>Icons_Hikster_2_colors</title><circle class="cls-1" cx="122.85" cy="72.91" r="5.66"/><circle class="cls-1" cx="92.02" cy="96.19" r="5.66"/><circle class="cls-1" cx="128.52" cy="101.85" r="5.66"/><path class="cls-1" d="M313.46,328.32H36.54a36.13,36.13,0,0,1,0-72.27H313.46A36.13,36.13,0,0,1,313.46,328.32ZM36.54,273.57a18.61,18.61,0,1,0,0,37.22H313.46a18.61,18.61,0,1,0,0-37.22H36.54Z"/><path class="cls-1" d="M347.8,142.39a8.85,8.85,0,0,0-.06-1c0-.09,0-0.18,0-0.27,0-.24-0.08-0.49-0.13-0.72l-0.07-.27q-0.1-.37-0.23-0.73s0-.09,0-0.13L345,133.4l-0.12-.31A182.19,182.19,0,0,0,176.8,21.68C101.54,21.68,33,68.94,6.24,139.29a8.77,8.77,0,0,0-.53,3.8c0,0.25,0,.5,0,0.76a41.47,41.47,0,0,0,73,27,41.42,41.42,0,0,0,64-1.22,41.43,41.43,0,0,0,65.26-.3,41.43,41.43,0,0,0,66.25-1,41.47,41.47,0,0,0,33.5,17c22.09,0,40.06-19.25,40.08-42.91C347.8,142.43,347.8,142.41,347.8,142.39ZM176.8,39.21a164.68,164.68,0,0,1,149.14,94.44H27.67C54.7,76.67,113.09,39.21,176.8,39.21ZM47.18,167.84a24,24,0,0,1-22.85-16.67h45c0.07,0.41.15,0.82,0.23,1.23A24,24,0,0,1,47.18,167.84Zm63,0A24,24,0,0,1,87.79,152.4c0.09-.41.16-0.82,0.23-1.23h45A24,24,0,0,1,110.2,167.84Zm65,0a24,24,0,0,1-22.84-16.67h45.69A24,24,0,0,1,175.22,167.84Zm65.49,0a24,24,0,0,1-22.84-16.67h45.69A24,24,0,0,1,240.72,167.84Zm67,0a24,24,0,0,1-22.85-16.67h44C325.73,160.89,317.43,167.84,307.72,167.84Z"/><path class="cls-1" d="M326.15,242.75H23.85a23.87,23.87,0,0,1,0-47.73H326.15A23.87,23.87,0,0,1,326.15,242.75ZM23.85,212.54a6.34,6.34,0,1,0,0,12.68H326.15a6.34,6.34,0,1,0,0-12.68H23.85Z"/></svg>