<svg id="Calque_1" data-name="Calque 1" xmlns="http://www.w3.org/2000/svg" viewBox="0 0 350 350"><defs><style>.cls-1{fill:#fff;}</style></defs><title>Icons_Hikster_2_colors</title><path class="cls-1" d="M231,202.31H91.41a6.19,6.19,0,0,1,0-12.38H231A6.19,6.19,0,0,1,231,202.31Z"/><path class="cls-1" d="M254.4,202.31a6.37,6.37,0,0,1-4.37-1.83,6.14,6.14,0,0,1-1.31-2,5.8,5.8,0,0,1-.52-2.36,6.23,6.23,0,0,1,1.83-4.37,5.55,5.55,0,0,1,2-1.3,6.32,6.32,0,0,1,6.81,1.3,6.15,6.15,0,0,1,1.75,4.37,7.25,7.25,0,0,1-.43,2.36,7.91,7.91,0,0,1-1.31,2,6.79,6.79,0,0,1-2.1,1.4A6.61,6.61,0,0,1,254.4,202.31Z"/><path class="cls-1" d="M253.67,160.82a6.19,6.19,0,0,1-6.19-6.19A16.48,16.48,0,0,0,231,138.17l-39.24.38a28.84,28.84,0,1,1-.06-57.69,6.19,6.19,0,1,1,0,12.38,16.46,16.46,0,0,0,0,32.92l39.24-.38a28.88,28.88,0,0,1,28.9,28.84A6.19,6.19,0,0,1,253.67,160.82Z"/><path class="cls-1" d="M175.37,350A177.39,177.39,0,0,1,145,347.37,175,175,0,0,1,74.3,31.93,174.95,174.95,0,0,1,347.37,205h0A175.05,175.05,0,0,1,175.37,350ZM174.66,12.37A162.7,162.7,0,0,0,14.82,147.16c-15.36,88.32,44,172.68,132.32,188a162.59,162.59,0,0,0,188-132.33h0a162.57,162.57,0,0,0-132.32-188A164.38,164.38,0,0,0,174.66,12.37Z"/></svg>