<svg id="Calque_1" data-name="Calque 1" xmlns="http://www.w3.org/2000/svg" viewBox="0 0 350 350"><defs><style>.cls-1{fill:#fcfcfd;}.cls-2{fill:#014087;}.cls-3{fill:#003f87;}.cls-4{fill:#af1f2e;}.cls-5{fill:#fefefe;}.cls-6{fill:#fdfefe;}.cls-7{fill:#fcfdfe;}.cls-8{fill:#fefdfd;}.cls-9{fill:#be4955;}.cls-10{fill:#b02231;}.cls-11{fill:#b02130;}.cls-12{fill:#b12432;}</style></defs><title>Icons_Hikster_2_colors_V2</title><path class="cls-1" d="M308.08,216l0-2c0,0.11.09,0.13,0.18,0.07V216h-0.21Z"/><path class="cls-2" d="M308.29,214.07c-0.09.06-.15,0-0.18-0.07a1.43,1.43,0,0,1,.18-1.31v1.38Z"/><path class="cls-1" d="M171,99.1H43.66c-0.41,0-.83,0-1.24,0a0.57,0.57,0,0,0-.7.72c0,0.23,0,.46,0,0.69q0,52.55,0,105.11a128.85,128.85,0,0,0,1.38,19.07,119.38,119.38,0,0,0,8.44,29.68,135.55,135.55,0,0,0,27,40.09,190.57,190.57,0,0,0,37.21,29.92,250.38,250.38,0,0,0,53.81,25.36,4.27,4.27,0,0,0,2.9,0,248.08,248.08,0,0,0,61.06-30.1,179.9,179.9,0,0,0,33.87-29.44,132.59,132.59,0,0,0,24.11-38.38,123.19,123.19,0,0,0,8.8-46.63q0-52.14,0-104.28c0-1.82,0-1.82-1.82-1.82H171Zm0-7.64H298.57c1.93,0,1.7.23,1.7-1.66q0-44,0-88c0-2,.26-1.75-1.75-1.75H43.42c-1.88,0-1.7-.27-1.7,1.67q0,44,0,88c0,2-.25,1.74,1.75,1.74H171Z"/><path class="cls-3" d="M171,99.1H298.45c1.82,0,1.82,0,1.82,1.82q0,52.14,0,104.28a123.19,123.19,0,0,1-8.8,46.63,132.59,132.59,0,0,1-24.11,38.38,179.9,179.9,0,0,1-33.87,29.44,248.08,248.08,0,0,1-61.06,30.1,4.27,4.27,0,0,1-2.9,0,250.38,250.38,0,0,1-53.81-25.36A190.57,190.57,0,0,1,78.5,294.46a135.55,135.55,0,0,1-27-40.09,119.38,119.38,0,0,1-8.44-29.68,128.85,128.85,0,0,1-1.38-19.07q0-52.55,0-105.11c0-.23,0-0.46,0-0.69a0.57,0.57,0,0,1,.7-0.72c0.41,0,.82,0,1.24,0H171Zm73,88.68c-0.06-3-.08-5.83-0.27-8.63a112.36,112.36,0,0,0-4.23-23.93,55.08,55.08,0,0,0-9.32-18.87,33,33,0,0,0-19.73-12.58,49.52,49.52,0,0,0-19-.05,34.37,34.37,0,0,0-20.92,11.95,46.09,46.09,0,0,0-6.1,10.1c-4.78,10.13-7.11,20.88-8,32a114,114,0,0,0,.2,20.35,109.1,109.1,0,0,0,4.56,22.19,60,60,0,0,0,7.91,16.42,32.54,32.54,0,0,0,20.9,13.81,51.53,51.53,0,0,0,17.63.49,33.4,33.4,0,0,0,21.73-12,53.16,53.16,0,0,0,9.27-17.22A106.9,106.9,0,0,0,244,187.79Zm-114.79-.5q0-30.44,0-60.88c0-1.43.11-1.34-1.34-1.34-4.45,0-8.89,0-13.34,0a2,2,0,0,0-1.71.85A17.41,17.41,0,0,1,99,132.85c-1,0-1,0-1,1.09q0,6.82,0,13.64c0,1,0,1.06,1.07,1.06,2.8,0,5.59,0,8.39,0,1.82,0,1.82,0,1.82,1.81q0,48.48,0,97c0,0.41,0,.83,0,1.24a0.54,0.54,0,0,0,.63.68c0.32,0,.64,0,1,0h16.77c1.91,0,1.65.21,1.65-1.71Q129.22,217.45,129.22,187.29Zm23.65,125.27c-0.14-.44-0.29-0.86-0.39-1.3a4.24,4.24,0,0,1,1.93-4.74,5,5,0,0,1,5.8,1.11,8,8,0,0,1,1.87,4.5c0.07,0.63-.17.82-0.76,0.8-1.15,0-2.29,0-3.44,0s-1,0-1,1q0,1.65,0,3.31c0,1,0,1,1,1h8.66a1.77,1.77,0,0,1,1.25.2A6.26,6.26,0,0,1,165,323.2a14.32,14.32,0,0,1-1.54.89,0.47,0.47,0,0,0-.25.76,5,5,0,0,0,3.48,2.67,1.37,1.37,0,0,1,1.35,1.34,8.53,8.53,0,0,0,2.18,4.08c0.79,0.87.79,0.86,1.55,0a9,9,0,0,0,2.31-4.47,0.94,0.94,0,0,1,.93-0.93,5.26,5.26,0,0,0,4-3.21c-2.64-1.25-4.6-2.95-4.8-6a3.22,3.22,0,0,1,1.46-.15h8.39c1,0,1,0,1-1,0-1.15,0-2.3,0-3.44,0-.64-0.15-0.91-0.84-0.88-1.1,0-2.2,0-3.3,0s-1.25-.11-1-1.27a8.81,8.81,0,0,1,1.36-3.43,4.84,4.84,0,0,1,5.55-2,3.54,3.54,0,0,1,2.63,2.88,5.34,5.34,0,0,1-.09,2.59,0.84,0.84,0,0,0-.08.93,13.07,13.07,0,0,0,4.69-1.76,7.5,7.5,0,0,0,3.38-4.37,8.47,8.47,0,0,0-2.28-8.74c-2.61-2.55-5.73-3.59-9.32-2.3a12.91,12.91,0,0,0-7.23,6.79,22.9,22.9,0,0,0-2.24,8.74c-0.14,1.95-.11,1.95-2.09,1.9-1,0-1,0-1-1.11a30.44,30.44,0,0,1,1.63-10c1.18-3.43,2.55-6.78,4-10.11a15.81,15.81,0,0,0,.35-11.67,28.11,28.11,0,0,0-6.9-10.8,4.54,4.54,0,0,0-1.21-1.13c-0.73.68-1.43,1.27-2.06,1.93a26.65,26.65,0,0,0-6.27,10.39,15.62,15.62,0,0,0,.43,11.16c1.2,2.78,2.28,5.6,3.4,8.42a32.56,32.56,0,0,1,2.28,10.72c0.1,2.36,0,2.44-2.37,2.21a0.59,0.59,0,0,1-.65-0.66c0-.82-0.12-1.65-0.22-2.47a21,21,0,0,0-3.07-9.18,12.23,12.23,0,0,0-6.53-5.22c-3.51-1.14-6.54-.09-9.07,2.38a8.44,8.44,0,0,0-2.3,8.61C145.46,309.79,149,312.39,152.86,312.56Z"/><path class="cls-4" d="M171,91.46H43.47c-2,0-1.75.3-1.75-1.74q0-44,0-88c0-1.94-.19-1.67,1.7-1.67h255.1c2,0,1.75-.25,1.75,1.75q0,44,0,88c0,1.89.23,1.66-1.7,1.66H171ZM196.09,44a38.5,38.5,0,0,0-3.87,1L182,47.35c1.68-6,3.3-11.69,4.89-17.43a0.85,0.85,0,0,1,1-.8,5.73,5.73,0,0,0,.69,0h47.44c0.23,0,.46,0,0.69,0a0.76,0.76,0,0,1,1,.69,6.56,6.56,0,0,0,.22.79q4.8,16.29,9.59,32.59A2.92,2.92,0,0,0,249,65.07c3.84,2.25,7.63,4.56,11.43,6.87a3.52,3.52,0,0,0,1.93.56c5,0,9.9,0,14.85,0H278a0.49,0.49,0,0,0,.53-0.5c0-.32,0-0.64.06-1q0.59-7.41,1.18-14.82,0.65-8.1,1.32-16.19c0.32-3.93.66-7.87,1-11.8,0.15-1.78.26-3.56,0.39-5.3a3.06,3.06,0,0,0-1.59-.18c-2.89,0-5.78,0-8.66,0-1,0-1,0-1.06-1.08q0-2.34,0-4.68c0-1.09,0-1.11,1.16-1.07l9.2,0.38c1,0,1,0,1-.94,0.1-2,.09-1.64-1.55-1.64-10.36,0-20.72-.08-31.08,0-14.71.06-29.43,0.1-44.14,0.26s-29.24.46-43.86,0.71q-6.26.11-12.51,0.33-14.5.49-29,1c-4.4.16-8.79,0.34-13.18,0.6-8.83.52-17.66,1-26.47,1.79-6.25.54-12.5,1.17-18.71,2.07-1.84.27-1.55-.06-1.59,1.82,0,1.14,0,1.13,1.14,1l14.26-1c1.65-.11,3.29-0.19,4.94-0.31a0.63,0.63,0,0,1,.81.75c0,1.19,0,2.39,0,3.58a0.81,0.81,0,0,1-.89,1c-2.56.2-5.11,0.46-7.66,0.71q-5.68.54-11.31,1.47c-1.23.2-1.24,0.23-1.24,1.32q0,18,0,36.09c0,1.13,0,1.14,1.13,1.15q6.05,0,12.1,0a11.54,11.54,0,0,0,1.78-.16c2.53-.41,5.06-0.84,7.59-1.25L106.18,63c1.38-.22,1.38-0.24,1.77-1.62L108,61.1l7.21-26.26c0.38-1.37.38-1.38,1.84-1.46l8.24-.43,18.94-1c1.24-.07,1.25,0,1.53,1.14L149.6,48.8c0.42,1.74.85,3.47,1.26,5.21,0.22,0.92.2,0.92-.75,1.19l-0.4.11L107.83,65.56,59.54,77.38a3.42,3.42,0,0,0-1.29.52H90.09A6,6,0,0,0,92,77.54L132.38,64.6l18.7-6c0.38-.12.82-0.4,0.95,0.29,0.09,0.47.37,1-.42,1.2a7.39,7.39,0,0,0-.78.27l-48,16.78a2.37,2.37,0,0,0-1.47.76c8.91,0,17.71,0,26.51,0a3.9,3.9,0,0,0,1.7-.45L147.66,69l5.1-2.38c1-.46,1-0.45,1.26.56s0.48,1.77.64,2.67a1,1,0,0,0,1.19.94c3.44,0,6.88,0,10.31,0a2.74,2.74,0,0,0,1.64-.55c2.91-2,5.83-4,8.77-5.94a2.58,2.58,0,0,0,1.12-1.63c0.68-2.57,1.45-5.12,2.13-7.69a2.29,2.29,0,0,1,1.41-1.67c5.12-2.34,10.22-4.75,15.33-7.13,2.95-1.37,5.9-2.72,8.85-4.08a1.67,1.67,0,0,0,1.29-.71,1,1,0,0,0-1.21.16l-6.69,1.93A3,3,0,0,0,196.09,44Zm58.8,33.92,0.11-.27L212.08,42.39c-0.42-.35-0.87-0.67-1.3-1l-0.13,0-0.09,0a0.66,0.66,0,0,0-.2.65c0.47,2.63.53,5.29,0.77,7.94,0.79,8.91,1.5,17.83,2.25,26.74,0.1,1.17.09,1.17,1.28,1.18h40.24ZM210,41.76l-42.16,36a2.35,2.35,0,0,0,.46.16h40c1,0,1,0,1-1.14q0.43-16.79.86-33.59A2.61,2.61,0,0,0,210,41.76Z"/><path class="cls-5" d="M244,187.79a106.9,106.9,0,0,1-5.32,34A53.16,53.16,0,0,1,229.42,239a33.4,33.4,0,0,1-21.73,12,51.53,51.53,0,0,1-17.63-.49,32.54,32.54,0,0,1-20.9-13.81,60,60,0,0,1-7.91-16.42,109.1,109.1,0,0,1-4.56-22.19,114,114,0,0,1-.2-20.35c0.84-11.11,3.17-21.86,8-32a46.09,46.09,0,0,1,6.1-10.1,34.37,34.37,0,0,1,20.92-11.95,49.52,49.52,0,0,1,19,.05,33,33,0,0,1,19.73,12.58,55.08,55.08,0,0,1,9.32,18.87,112.36,112.36,0,0,1,4.23,23.93C243.92,182,243.95,184.75,244,187.79Zm-67.91-.84a96.71,96.71,0,0,0,2.68,23.27,38.41,38.41,0,0,0,6,13.5A17.68,17.68,0,0,0,195.54,231a25.38,25.38,0,0,0,6.15.44,16.53,16.53,0,0,0,13-6.62,32.88,32.88,0,0,0,4.76-8.8,83,83,0,0,0,4.85-25.44,89.8,89.8,0,0,0-1.84-23,50.51,50.51,0,0,0-5-14.22,20.69,20.69,0,0,0-5.92-7c-4.15-3-8.87-3.78-13.84-3.45a15.85,15.85,0,0,0-11,5.26,23.81,23.81,0,0,0-3.6,5.19,57.31,57.31,0,0,0-4.38,11.26C176.72,172.07,176.22,179.67,176.09,186.95Z"/><path class="cls-6" d="M129.22,187.29q0,30.16,0,60.32c0,1.91.25,1.7-1.65,1.71H110.79c-0.32,0-.64,0-1,0a0.54,0.54,0,0,1-.63-0.68c0-.41,0-0.83,0-1.24q0-48.48,0-97c0-1.81,0-1.81-1.82-1.81-2.8,0-5.59,0-8.39,0-1.05,0-1.07,0-1.07-1.06q0-6.82,0-13.64c0-1.06,0-1.08,1-1.09a17.41,17.41,0,0,0,13.88-6.94,2,2,0,0,1,1.71-.85c4.44,0,8.89,0,13.34,0,1.45,0,1.34-.09,1.34,1.34Q129.22,156.85,129.22,187.29Z"/><path class="cls-7" d="M152.86,312.56c-3.83-.18-7.4-2.77-8.28-6.16a8.44,8.44,0,0,1,2.3-8.61c2.53-2.47,5.56-3.52,9.07-2.38a12.23,12.23,0,0,1,6.53,5.22,21,21,0,0,1,3.07,9.18c0.1,0.82.17,1.64,0.22,2.47a0.59,0.59,0,0,0,.65.66c2.37,0.22,2.47.14,2.37-2.21A32.56,32.56,0,0,0,166.51,300c-1.11-2.81-2.2-5.64-3.4-8.42a15.62,15.62,0,0,1-.43-11.16A26.65,26.65,0,0,1,169,270c0.63-.67,1.33-1.26,2.06-1.93a4.54,4.54,0,0,1,1.21,1.13,28.11,28.11,0,0,1,6.9,10.8,15.81,15.81,0,0,1-.35,11.67c-1.43,3.32-2.81,6.68-4,10.11a30.44,30.44,0,0,0-1.63,10c0,1.08,0,1.08,1,1.11,2,0.05,2,0,2.09-1.9a22.9,22.9,0,0,1,2.24-8.74,12.91,12.91,0,0,1,7.23-6.79c3.6-1.29,6.72-.25,9.32,2.3a8.47,8.47,0,0,1,2.28,8.74,7.5,7.5,0,0,1-3.38,4.37,13.07,13.07,0,0,1-4.69,1.76,0.84,0.84,0,0,1,.08-0.93,5.34,5.34,0,0,0,.09-2.59,3.54,3.54,0,0,0-2.63-2.88,4.84,4.84,0,0,0-5.55,2,8.81,8.81,0,0,0-1.36,3.43c-0.22,1.17-.13,1.26,1,1.27s2.2,0,3.3,0c0.69,0,.86.25,0.84,0.88,0,1.15,0,2.3,0,3.44,0,0.94,0,1-1,1h-8.39a3.22,3.22,0,0,0-1.46.15c0.19,3.07,2.16,4.77,4.8,6a5.26,5.26,0,0,1-4,3.21,0.94,0.94,0,0,0-.93.93,9,9,0,0,1-2.31,4.47c-0.76.82-.76,0.83-1.55,0a8.53,8.53,0,0,1-2.18-4.08,1.37,1.37,0,0,0-1.35-1.34,5,5,0,0,1-3.48-2.67,0.47,0.47,0,0,1,.25-0.76,14.32,14.32,0,0,0,1.54-.89,6.26,6.26,0,0,0,2.78-4.79,1.77,1.77,0,0,0-1.25-.2h-8.66c-1,0-1,0-1-1s0-2.2,0-3.31c0-.94,0-1,1-1s2.29,0,3.44,0c0.59,0,.83-0.17.76-0.8a8,8,0,0,0-1.87-4.5,5,5,0,0,0-5.8-1.11,4.24,4.24,0,0,0-1.93,4.74C152.57,311.7,152.73,312.12,152.86,312.56Z"/><path class="cls-8" d="M198.82,43.51l6.69-1.93-0.09.55c-3,1.36-5.91,2.71-8.85,4.08-5.11,2.38-10.2,4.79-15.33,7.13A2.29,2.29,0,0,0,179.84,55c-0.68,2.57-1.45,5.12-2.13,7.69a2.58,2.58,0,0,1-1.12,1.63c-2.94,2-5.86,3.94-8.77,5.94a2.74,2.74,0,0,1-1.64.55c-3.44,0-6.88,0-10.31,0a1,1,0,0,1-1.19-.94c-0.16-.9-0.42-1.79-0.64-2.67s-0.26-1-1.26-.56L147.66,69l-18.06,8.43a3.9,3.9,0,0,1-1.7.45c-8.8,0-17.6,0-26.51,0a2.37,2.37,0,0,1,1.47-.76l48-16.78a7.39,7.39,0,0,1,.78-0.27c0.79-.18.51-0.73,0.42-1.2-0.13-.68-0.56-0.41-0.95-0.29l-18.7,6L92,77.54a6,6,0,0,1-1.87.37H58.26a3.42,3.42,0,0,1,1.29-.52l48.29-11.83,41.89-10.24,0.26-.08c1.09-.3,1.1-0.31.88-1.22-0.41-1.74-.84-3.48-1.26-5.21L145.79,33c-0.29-1.18-.29-1.2-1.53-1.14l-18.94,1-8.24.43c-1.46.08-1.46,0.09-1.84,1.46L108,61.1l-0.08.26c-0.39,1.37-.38,1.39-1.77,1.62L83.13,66.68c-2.53.41-5.06,0.85-7.59,1.25a11.54,11.54,0,0,1-1.78.16q-6.05,0-12.1,0c-1.11,0-1.13,0-1.13-1.15q0-18,0-36.09c0-1.09,0-1.12,1.24-1.32q5.63-.93,11.31-1.47c2.55-.24,5.11-0.51,7.66-0.71a0.81,0.81,0,0,0,.89-1c0-1.19,0-2.39,0-3.58A0.63,0.63,0,0,0,80.82,22c-1.65.12-3.29,0.19-4.94,0.31l-14.26,1c-1.14.08-1.16,0.1-1.14-1,0-1.88-.25-1.55,1.59-1.82,6.21-.9,12.45-1.53,18.71-2.07,8.81-.76,17.64-1.27,26.47-1.79,4.39-.26,8.79-0.44,13.18-0.6q14.5-.54,29-1,6.25-.21,12.51-0.33c14.62-.26,29.24-0.55,43.86-0.71s29.43-.21,44.14-0.26c10.36,0,20.72,0,31.08,0,1.64,0,1.64-.35,1.55,1.64,0,1-.07,1-1,0.94l-9.2-.38c-1.15,0-1.16,0-1.16,1.07q0,2.34,0,4.68c0,1.06,0,1.08,1.06,1.08,2.89,0,5.78,0,8.66,0a3.06,3.06,0,0,1,1.59.18c-0.13,1.74-.25,3.52-0.39,5.3-0.32,3.93-.66,7.87-1,11.8q-0.67,8.1-1.32,16.19-0.6,7.41-1.18,14.82c0,0.32,0,.64-0.06,1a0.49,0.49,0,0,1-.53.5h-0.82c-5,0-9.9,0-14.85,0a3.52,3.52,0,0,1-1.93-.56c-3.8-2.31-7.6-4.62-11.43-6.87a2.92,2.92,0,0,1-1.43-1.87q-4.78-16.3-9.59-32.59a6.56,6.56,0,0,1-.22-0.79,0.76,0.76,0,0,0-1-.69c-0.23,0-.46,0-0.69,0H188.61a5.73,5.73,0,0,1-.69,0,0.85,0.85,0,0,0-1,.8c-1.59,5.74-3.21,11.47-4.89,17.43L192.22,45v0.39c-0.34.12-.69,0.25-1,0.36-2.91.93-5.82,1.86-8.73,2.8-0.45.15-1.19,0.24-.93,0.9,0.18,0.46.74,0,1.08-.12q7.37-2.55,14.73-5.15A4.48,4.48,0,0,0,198.82,43.51Zm52.39-20.63V22.75h17.72a0.51,0.51,0,0,0,.62-0.54q0-3,0-5.92a0.51,0.51,0,0,0-.61-0.56h-0.69q-16.82-.41-33.64-0.24h-1.1a0.51,0.51,0,0,0-.62.55q0,3.16,0,6.33a0.44,0.44,0,0,0,.48.52h17.85Zm-37-7.08V16c-2.38,0-4.76,0-7.14,0-3.07.05-6.13,0.17-9.19,0.26-0.45,0-1-.08-0.95.65,0,1.93,0,3.85,0,5.78a0.55,0.55,0,0,0,.68.63h0.82c6.45-.2,12.9-0.17,19.36-0.23,4.12,0,8.24-.1,12.36-0.16,1.1,0,1.11,0,1.12-1.14,0-1.74,0-3.48,0-5.23,0-1,0-1-1-1Zm-36.33,7.79,16.36-.25c1.08,0,1.1,0,1.1-1q0-2.48,0-5c0-1,0-1-1-1-3.62.12-7.24,0.23-10.85,0.36l-23.76.91-0.82.05a0.54,0.54,0,0,0-.59.6q0,2.55,0,5.1a0.49,0.49,0,0,0,.59.55h1Zm-38.81.91,15.32-.38c0.55,0,1.1-.06,1.65-0.07a0.62,0.62,0,0,0,.69-0.78c0-1.51,0-3,0-4.54,0-.79-0.33-0.92-1-0.87-1.32.09-2.65,0.16-4,.22l-25.52,1.22c-1.46.07-2.92,0.18-4.39,0.24a0.69,0.69,0,0,0-.84.78q0,2,0,4a0.63,0.63,0,0,0,.82.75c0.36,0,.73,0,1.1,0ZM85.65,27v0c0.55,0,1.1-.05,1.65-0.09,7.4-.56,14.82-0.91,22.23-1.27,3-.15,6-0.24,8.93-0.36,0.51,0,1,0,1-.74,0-1.38,0-2.76,0-4.13a0.54,0.54,0,0,0-.67-0.63c-1,.05-2,0.08-3,0.14L93.3,21.21c-3.06.18-6.13,0.39-9.19,0.55a0.75,0.75,0,0,0-.89.89c0,1.24,0,2.48,0,3.72,0,0.55.11,0.88,0.79,0.75A15,15,0,0,1,85.65,27ZM175,30.7h-12.9c0.24,1.49,5.09,15.6,5.73,16.59Zm-21.45.46h-1c-1.21,0-1.23,0-1,1.25,0,0.09.06,0.17,0.08,0.26l2.6,11.51c0.65,2.86,1.31,5.71,1.93,8.57,0.15,0.67.35,0.95,1.1,0.71,1-.31,1.95-0.49,2.92-0.73,1.38-.35,1.39-0.35,1-1.68Q158.59,42,156,33C155.34,30.88,155.9,31.2,153.53,31.16ZM157.72,58l2.18-.74,2.32-.82c0.49-.18.38-0.54,0.28-0.91s-0.39-.43-0.74-0.32l-4.17,1.33c-0.5.16-.43,0.51-0.33,0.88S157.29,58,157.72,58Z"/><path class="cls-8" d="M254.89,77.9H214.65c-1.18,0-1.18,0-1.28-1.18-0.74-8.91-1.46-17.83-2.25-26.74-0.23-2.65-.3-5.31-0.77-7.94a0.71,0.71,0,0,1,.16-0.64l0.13,0,0.13,0c0.44,0.33.88,0.65,1.3,1L255,77.63Z"/><path class="cls-8" d="M210,41.76a2.61,2.61,0,0,1,.16,1.41q-0.42,16.79-.86,33.59c0,1.11,0,1.14-1,1.14h-40a2.35,2.35,0,0,1-.46-0.16Z"/><path class="cls-9" d="M198.82,43.51a4.48,4.48,0,0,1-1.49.63q-7.36,2.58-14.73,5.15c-0.35.12-.91,0.58-1.08,0.12-0.26-.66.49-0.75,0.93-0.9,2.91-.95,5.82-1.87,8.73-2.8,0.35-.11.69-0.24,1-0.36A18.32,18.32,0,0,0,196.09,44,3,3,0,0,1,198.82,43.51Z"/><path class="cls-1" d="M196.09,44a18.32,18.32,0,0,1-3.87,1.36V45.08A20.52,20.52,0,0,1,196.09,44Z"/><path class="cls-9" d="M205.43,42.13l0.09-.55a1,1,0,0,1,1.21-.16A1.67,1.67,0,0,1,205.43,42.13Z"/><path class="cls-2" d="M176.09,186.95c0.13-7.28.63-14.87,2.65-22.28a57.31,57.31,0,0,1,4.38-11.26,23.81,23.81,0,0,1,3.6-5.19,15.85,15.85,0,0,1,11-5.26c5-.33,9.69.46,13.84,3.45a20.69,20.69,0,0,1,5.92,7,50.51,50.51,0,0,1,5,14.22,89.8,89.8,0,0,1,1.84,23A83,83,0,0,1,219.47,216a32.88,32.88,0,0,1-4.76,8.8,16.53,16.53,0,0,1-13,6.62,25.38,25.38,0,0,1-6.15-.44,17.68,17.68,0,0,1-10.78-7.31,38.41,38.41,0,0,1-6-13.5A96.71,96.71,0,0,1,176.09,186.95Z"/><path class="cls-10" d="M251.21,22.88H233.36a0.44,0.44,0,0,1-.48-0.52q0-3.16,0-6.33a0.51,0.51,0,0,1,.62-0.55h1.1q16.82-.17,33.64.24h0.69a0.51,0.51,0,0,1,.61.56q0,3,0,5.92a0.51,0.51,0,0,1-.62.54H251.21v0.13Z"/><path class="cls-11" d="M214.21,15.8l16.06-.27c1,0,1,0,1,1,0,1.74,0,3.48,0,5.23,0,1.12,0,1.13-1.12,1.14C226,23,221.91,23,217.8,23.07c-6.45.06-12.91,0-19.36,0.23h-0.82a0.55,0.55,0,0,1-.68-0.63c0-1.93,0-3.85,0-5.78,0-.73.5-0.64,0.95-0.65,3.06-.09,6.13-0.21,9.19-0.26,2.38,0,4.76,0,7.14,0V15.8Z"/><path class="cls-11" d="M177.89,23.59l-18,.36h-1a0.49,0.49,0,0,1-.59-0.55q0-2.55,0-5.1a0.54,0.54,0,0,1,.59-0.6l0.82-.05,23.76-.91c3.62-.14,7.24-0.25,10.85-0.36,1,0,1,0,1,1q0,2.48,0,5c0,1,0,1-1.1,1Z"/><path class="cls-10" d="M139.08,24.51L123,25.06c-0.37,0-.73,0-1.1,0a0.63,0.63,0,0,1-.82-0.75q0-2,0-4a0.69,0.69,0,0,1,.84-0.78c1.46-.06,2.92-0.17,4.39-0.24l25.52-1.22c1.33-.06,2.65-0.13,4-0.22,0.66,0,1,.08,1,0.87-0.06,1.51,0,3,0,4.54a0.62,0.62,0,0,1-.69.78c-0.55,0-1.1.05-1.65,0.07Z"/><path class="cls-10" d="M85.65,27a15,15,0,0,0-1.64.16c-0.67.13-.79-0.2-0.79-0.75,0-1.24,0-2.48,0-3.72a0.75,0.75,0,0,1,.89-0.89c3.07-.16,6.13-0.37,9.19-0.55l22.51-1.31c1-.06,2-0.08,3-0.14a0.54,0.54,0,0,1,.67.63c0,1.38,0,2.76,0,4.13,0,0.78-.53.72-1,0.74-3,.12-6,0.21-8.93.36-7.41.36-14.83,0.71-22.23,1.27-0.55,0-1.1.06-1.65,0.09v0Z"/><path class="cls-12" d="M175,30.7L167.79,47.3c-0.63-1-5.49-15.11-5.73-16.59H175Z"/><path class="cls-12" d="M153.53,31.16c2.37,0,1.81-.28,2.44,1.84q2.65,9,5.25,18.06c0.38,1.33.38,1.33-1,1.68-1,.24-2,0.42-2.92.73-0.75.24-1,0-1.1-.71-0.62-2.86-1.28-5.71-1.93-8.57l-2.6-11.51c0-.09-0.06-0.17-0.08-0.26-0.26-1.2-.23-1.23,1-1.25h1Z"/><path class="cls-12" d="M157.72,58c-0.44,0-.4-0.32-0.46-0.57s-0.16-.72.33-0.88l4.17-1.33c0.35-.11.63-0.12,0.74,0.32s0.21,0.73-.28.91l-2.32.82Z"/></svg>