<svg id="Calque_1" data-name="Calque 1" xmlns="http://www.w3.org/2000/svg" viewBox="0 0 350 350"><defs><style>.cls-1{fill:#fff;}</style></defs><title>Icons_Hikster_2_colors</title><path class="cls-1" d="M271.34,108.05a31.13,31.13,0,0,0-22.61,9.71,31.15,31.15,0,0,0-45.2,0,31.15,31.15,0,0,0-45.2,0,31.15,31.15,0,0,0-45.2,0,31.18,31.18,0,0,0-53.52,17.38,12.72,12.72,0,0,0-12.14,12.67v10.41a12.73,12.73,0,0,0,11.87,12.66V294.56a31.19,31.19,0,0,0,22.61,29.91v17a8.59,8.59,0,0,0,17.18,0v-17a31.23,31.23,0,0,0,14-8.5,31.15,31.15,0,0,0,45.2,0,31.15,31.15,0,0,0,45.2,0,31.15,31.15,0,0,0,45.2,0,31.24,31.24,0,0,0,14,8.5v17a8.59,8.59,0,0,0,17.18,0v-17a31.19,31.19,0,0,0,22.59-29.91V139.19A31.2,31.2,0,0,0,271.34,108.05ZM90.53,308.54a14,14,0,0,1-14-14V139.19a14,14,0,0,1,28,0V294.56A14,14,0,0,1,90.53,308.54Zm45.2,0a14,14,0,0,1-14-14V139.19a14,14,0,0,1,28,0V294.56A14,14,0,0,1,135.74,308.54Zm45.2,0a14,14,0,0,1-14-14V139.19a14,14,0,0,1,28,0V294.56A14,14,0,0,1,180.94,308.54Zm45.2,0a14,14,0,0,1-14-14V139.19a14,14,0,0,1,28,0V294.56A14,14,0,0,1,226.14,308.54Zm59.21-14a14,14,0,0,1-28,0V139.19a14,14,0,0,1,28,0V294.56Z"/><path class="cls-1" d="M99.18,94.65a8.56,8.56,0,0,1-6.29-14.39c2.72-3,9.81-12.29,9.81-20,0-2.94-.9-4-3.74-7.07-3.34-3.57-8.38-8.94-8.38-18.78,0-12,4.24-17.76,9.59-25,1.21-1.65,2.56-3.48,4-5.62a8.57,8.57,0,0,1,14.15,9.68c-1.57,2.31-3,4.29-4.34,6.07C109.2,26,107.75,28,107.75,34.39c0,2.94.9,4,3.74,7.07,3.34,3.57,8.38,8.94,8.38,18.78,0,15.86-13,30.13-14.43,31.71A8.58,8.58,0,0,1,99.18,94.65Z"/><path class="cls-1" d="M169.64,94.67a8.57,8.57,0,0,1-6.94-13.6c1-1.33,2-2.64,3.09-4,4.13-5.17,7.39-9.26,7.39-16.85,0-2.94-.9-4-3.74-7.07-3.34-3.57-8.38-8.94-8.38-18.78,0-13.34,4.6-19.15,9.94-25.89,1.17-1.48,2.45-3.09,3.82-5A8.58,8.58,0,0,1,188.7,13.61c-1.53,2.09-2.95,3.88-4.24,5.51C179.8,25,178.24,27,178.24,34.39c0,2.94.9,4,3.74,7.07,3.34,3.57,8.38,8.94,8.38,18.78,0,13.6-6.45,21.65-11.16,27.53-0.9,1.12-1.77,2.23-2.59,3.35A8.59,8.59,0,0,1,169.64,94.67Z"/><path class="cls-1" d="M238.71,94.67a8.57,8.57,0,0,1-6.8-13.79c1-1.29,2-2.5,3-3.7,4.6-5.65,7.38-9.07,7.38-16.94,0-2.94-.9-4-3.74-7.07-3.34-3.57-8.38-8.94-8.38-18.78,0-13.19,4.85-19.35,10-25.88,1.17-1.49,2.41-3.07,3.71-4.9a8.58,8.58,0,0,1,14,9.92c-1.48,2.07-2.89,3.87-4.21,5.56-4.47,5.68-6.32,8-6.32,15.3,0,2.94.9,4,3.74,7.07,3.34,3.57,8.38,8.94,8.38,18.78,0,14-6,21.29-11.24,27.74l-2.65,3.33A8.6,8.6,0,0,1,238.71,94.67Z"/></svg>