<svg id="Calque_1" data-name="Calque 1" xmlns="http://www.w3.org/2000/svg" viewBox="0 0 350 350"><defs><style>.cls-1{fill:#fff;}</style></defs><title>Icons_Hikster_2_colors</title><path class="cls-1" d="M278.19,171.72H71.82a5.12,5.12,0,1,1,0-10.25H278.19A5.12,5.12,0,1,1,278.19,171.72Z"/><path class="cls-1" d="M284,329.58H66a5.12,5.12,0,1,1,0-10.25H284A5.12,5.12,0,1,1,284,329.58Z"/><path class="cls-1" d="M291.94,350H58.06a5.12,5.12,0,1,1,0-10.25H291.94A5.12,5.12,0,1,1,291.94,350Z"/><path class="cls-1" d="M281.55,180.2a5.12,5.12,0,0,0-3.64-1.52H72.09A5.12,5.12,0,0,0,67,183.81V304a5.12,5.12,0,0,0,5.13,5.12H276.82a5.12,5.12,0,0,0,5.13-5.07L283,183.85A5.15,5.15,0,0,0,281.55,180.2ZM113.17,298.86H101.74v-59.1c0-4.16,2.7-7.67,5.89-7.67s5.9,3.51,5.9,7.61Zm44.41,0H146.15v-59.1c0-4.16,2.7-7.67,5.89-7.67s5.9,3.51,5.9,7.61Zm44.41,0H190.56v-59.1c0-4.16,2.7-7.67,5.89-7.67s5.9,3.51,5.9,7.61Zm45.18,0H235.74v-59.1c0-4.16,2.7-7.67,5.89-7.67s5.9,3.51,5.9,7.61Zm24.57,0H257.42l0.36-59.1c0-9.9-7.23-17.92-16.14-17.92s-16.14,8-16.14,17.92v59.1H212.24l0.36-59.1c0-9.9-7.23-17.92-16.14-17.92s-16.14,8-16.14,17.92v59.1H167.83l0.36-59.1c0-9.9-7.23-17.92-16.14-17.92s-16.14,8-16.14,17.92v59.1H123.42l0.36-59.1c0-9.9-7.23-17.92-16.14-17.92s-16.14,8-16.14,17.92v59.1H77.22V188.93H272.74Z"/><path class="cls-1" d="M282.09,125.47H264.68L180.13,55.05V46.52a25.46,25.46,0,0,1,11.1,3.91l2.87,1.88c8,5.32,12.2,7.69,26.85,8.14h0.16a5.14,5.14,0,0,0,5.13-5.12V27.67a5.13,5.13,0,0,0-5-5.12C210.9,22.23,208.1,20.13,203,16.3c-1.69-1.28-3.53-2.65-5.79-4.11a33.65,33.65,0,0,0-17.09-5.28V5.12a5.13,5.13,0,0,0-10.25,0V55.07L85.31,126.35H67.91a5.12,5.12,0,0,0-5.13,5.12v18.1a5.12,5.12,0,0,0,5.13,5.12H282.09a5.13,5.13,0,0,0,5.13-5.12v-19A5.13,5.13,0,0,0,282.09,125.47ZM180.7,17.2a23.37,23.37,0,0,1,11,3.6c2,1.31,3.68,2.55,5.19,3.69,4.88,3.67,9.18,6.9,19.12,8V49.92c-8-.7-10.63-2.45-16.22-6.15l-3-2a35.72,35.72,0,0,0-16.1-5.53V17.2ZM277,144.44H73v-7.85H87.18a5.13,5.13,0,0,0,3.3-1.2L175,64.13l84.52,70.4a5.14,5.14,0,0,0,3.28,1.19H277v8.72Z"/></svg>