<svg id="Calque_1" data-name="Calque 1" xmlns="http://www.w3.org/2000/svg" viewBox="0 0 350 350"><defs><style>.cls-1{fill:#fff;}</style></defs><title>Icons_Hikster_2_colors</title><path class="cls-1" d="M156.56,145.33a4.92,4.92,0,0,0,6-6.84c-3.18-6.47-2.92-15.32.68-23.12a34.35,34.35,0,0,1,5.8-8.64c1,6.57,5.13,11.81,8.82,16.51l1,1.24c4.21,5.39,5.64,10.64,4.51,16.53a4.93,4.93,0,0,0,4.83,5.85,5.39,5.39,0,0,0,.88-0.08c12.63-2.32,23.3-16.13,28.21-28.66C248.76,44.17,162,.92,161.14.5a4.92,4.92,0,0,0-6.55,6.63c0.6,1.18,14.25,29.29-6.28,50-23.63,23.86-20.1,46.9-20,47.39C129.61,123.68,141,140.07,156.56,145.33ZM155.3,64.07c15.93-16.08,15.21-35.83,12.37-48.5,20.83,13.37,62.28,47.67,40.49,98.82-3,7.63-8.54,15.8-14.73,20a30.73,30.73,0,0,0-6.84-16l-1-1.27c-3.5-4.44-6.79-8.63-6.93-13.06a9.13,9.13,0,0,1,2.83-6.8,4.92,4.92,0,0,0-3.35-8.53,4.85,4.85,0,0,0-2.29.57c-9.75,5.12-17.41,12.91-21.56,21.92a40.28,40.28,0,0,0-3.75,19.3c-6.94-6.18-11.7-16.09-12.46-27.13C138,102.65,135.4,84.17,155.3,64.07Z"/><path class="cls-1" d="M272.67,143.61H228.75a7,7,0,0,0-7,7v27.76l-25,47.59H193.9v-47H208a0.71,0.71,0,0,0,.71-0.71V164.55a0.71,0.71,0,0,0-.71-0.71H142.73a0.71,0.71,0,0,0-.71.71v13.68a0.71,0.71,0,0,0,.71.71h14.11v47h-3.58l-25-47.59V150.59a7,7,0,0,0-7-7H77.33a7,7,0,0,0,0,14h36.94v22.5a7,7,0,0,0,.81,3.25l27.8,52.84A7,7,0,0,0,149,239.9h7.79v26.65A78.82,78.82,0,0,0,96.71,343a7,7,0,0,0,7,7H247.06a7,7,0,0,0,7-7,78.82,78.82,0,0,0-60.14-76.48V239.9H201a7,7,0,0,0,6.17-3.73l27.8-52.84a7,7,0,0,0,.81-3.25v-22.5h36.94A7,7,0,0,0,272.67,143.61ZM170.79,178.94H180v47h-9.17v-47ZM239.72,336H111A64.72,64.72,0,0,1,239.72,336ZM180,264.46c-1.52-.09-3-0.14-4.58-0.14s-3.07.06-4.58,0.14V239.9H180v24.56Z"/></svg>