<svg id="Calque_1" data-name="Calque 1" xmlns="http://www.w3.org/2000/svg" viewBox="0 0 350 350"><defs><style>.cls-1{fill:#fff;}</style></defs><title>Icons_Hikster_2_colors_V2</title><path class="cls-1" d="M340,219.12h-0.06a10.6,10.6,0,0,0-10.59,10.53l-0.43,84.46L210.63,195.62a10.6,10.6,0,1,0-15,15L313.89,329.07l-83,.22a10.59,10.59,0,0,0,0,21.19h0l108.49-.29,0.28,0c0.25,0,.49,0,0.74,0l0.56-.08,0.46-.07,0.61-.15,0.39-.1,0.57-.2,0.41-.15,0.49-.23,0.46-.22,0.37-.22c0.18-.1.36-0.21,0.53-0.32l0.21-.15a9.89,9.89,0,0,0,2.61-2.63l0.07-.09c0.14-.2.26-0.41,0.38-0.62l0.17-.28c0.09-.17.17-0.34,0.25-0.51s0.14-.29.21-0.44,0.1-.26.15-0.4,0.15-.4.21-0.6,0-.19.07-0.28,0.13-.49.18-0.73c0-.06,0-0.12,0-0.18,0-.28.09-0.56,0.12-0.84,0,0,0,0,0-.07,0-.3,0-0.6.05-0.91l0.57-109.88A10.59,10.59,0,0,0,340,219.12Z"/><path class="cls-1" d="M349.9,10.4s0,0,0-.07c0-.28-0.07-0.56-0.12-0.84,0-.06,0-0.12,0-0.18,0-.25-0.11-0.49-0.18-0.73s0-.19-0.07-0.28-0.14-.4-0.21-0.6-0.09-.26-0.15-0.4S349,7,348.93,6.85s-0.16-.34-0.25-0.51l-0.17-.28c-0.12-.21-0.24-0.42-0.38-0.62l-0.07-.09a10.6,10.6,0,0,0-1.22-1.48,10.68,10.68,0,0,0-1.38-1.14l-0.21-.16c-0.17-.11-0.35-0.22-0.53-0.32L344.34,2l-0.43-.21-0.52-.24L343,1.45c-0.22-.08-0.43-0.16-0.65-0.23l-0.25-.06C341.9,1.09,341.64,1,341.38,1l-0.17,0c-0.28,0-.56-0.09-0.85-0.12h-0.09c-0.29,0-.59,0-0.89,0L230.9,0.48h0a10.59,10.59,0,0,0,0,21.19l83,0.22L195.63,140.38a10.6,10.6,0,0,0,15,15L328.9,36.84l0.43,84.45a10.6,10.6,0,0,0,10.59,10.53H340a10.59,10.59,0,0,0,10.53-10.65L350,11.31C349.95,11,349.93,10.7,349.9,10.4Z"/><path class="cls-1" d="M37.17,21.89l83-.22a10.59,10.59,0,0,0,0-21.19h0L11.67,0.77c-0.27,0-.54,0-0.81,0H10.68c-0.24,0-.47.06-0.71,0.1L9.64,1,9,1.12l-0.43.11-0.46.16-0.53.2-0.32.15C7.1,1.83,6.88,1.93,6.67,2l-0.17.1A10.21,10.21,0,0,0,3,5.34l-0.07.09c-0.14.2-.26,0.41-0.38,0.62l-0.17.28c-0.09.17-.17,0.34-0.25,0.51S2,7.14,1.92,7.3s-0.1.26-.15,0.4-0.15.4-.21,0.6,0,0.19-.07.28-0.13.49-.18,0.73c0,0.06,0,.12,0,0.18,0,0.28-.09.56-0.12,0.84,0,0,0,0,0,.07,0,0.3,0,.6-0.05.91L0.52,121.17a10.59,10.59,0,0,0,10.53,10.65h0.06A10.6,10.6,0,0,0,21.7,121.29l0.45-84.45L140.42,155.35a10.6,10.6,0,0,0,15-15Z"/><path class="cls-1" d="M140.42,195.62L22.15,314.12,21.7,229.66a10.6,10.6,0,0,0-10.59-10.53H11.05A10.59,10.59,0,0,0,.52,229.77L1.1,339.65c0,0.31,0,.61.05,0.91,0,0,0,0,0,.07,0,0.28.07,0.56,0.12,0.84,0,0.06,0,.12,0,0.18,0,0.25.11,0.49,0.18,0.73s0,0.19.07,0.28,0.14,0.4.21,0.6,0.09,0.26.15,0.4,0.14,0.3.21,0.44,0.16,0.34.25,0.51l0.17,0.28c0.12,0.21.24,0.42,0.38,0.62L3,345.62a9.89,9.89,0,0,0,2.61,2.63l0.21,0.15c0.17,0.12.35,0.22,0.53,0.32l0.37,0.22,0.46,0.22,0.49,0.23,0.41,0.15,0.57,0.2L9,349.83,9.63,350l0.46,0.07,0.56,0.08c0.25,0,.49,0,0.74,0l0.28,0,108.49,0.29h0a10.59,10.59,0,0,0,0-21.19l-83-.22L155.42,210.59A10.6,10.6,0,0,0,140.42,195.62Z"/></svg>