<svg id="Calque_1" data-name="Calque 1" xmlns="http://www.w3.org/2000/svg" viewBox="0 0 350 350"><defs><style>.cls-1{fill:#fff;}</style></defs><title>Icons_Hikster_2_colors</title><path class="cls-1" d="M226.64,135.82a48,48,0,1,1,48-48A48.08,48.08,0,0,1,226.64,135.82Zm0-78.11a30.08,30.08,0,1,0,30.09,30.08A30.12,30.12,0,0,0,226.64,57.71Z"/><path class="cls-1" d="M315.26,87.79A88.58,88.58,0,0,0,276.2,14.31C257.86,1.92,233.58-2.4,209.51,2.44L92.55,26H92.5L41.94,36.15a9,9,0,0,0-7.16,9.71l11.07,106.9a9,9,0,0,0,8.11,8l129.48,11.76V286.19c0,16.93,7.21,26.09,13.26,30.79a35.14,35.14,0,0,0,7.41,4.38L200,339.52a9,9,0,0,0,6.75,10.74,8.6,8.6,0,0,0,2,.23,9,9,0,0,0,8.74-7l4.2-18.36c1,0,1.94.07,2.88,0.07a71.88,71.88,0,0,0,16.77-2,9,9,0,0,0,6.35-6.06l57.63-187.73a9,9,0,0,0,.31-1.49A88.1,88.1,0,0,0,315.26,87.79ZM213,20c19.39-3.88,38.73-.56,53.12,9.16A70.7,70.7,0,0,1,227,158.47L115.21,148.31,104.12,41.93ZM53.48,52.12l33-6.64L97,146.66l-34.05-3.09ZM232.11,306.76a52.9,52.9,0,0,1-13.34.13,9,9,0,0,0-2-.71,8.7,8.7,0,0,0-2.59-.23,19.09,19.09,0,0,1-6.49-3.14c-4.26-3.3-6.33-8.74-6.33-16.61v-112l24.45,2.22c0.27,0,.54,0,0.81,0a88.1,88.1,0,0,0,50.3-15.7Z"/></svg>