<svg id="Calque_1" data-name="Calque 1" xmlns="http://www.w3.org/2000/svg" viewBox="0 0 350 350"><defs><style>.cls-1{fill:#fff;}</style></defs><title>Icons_Hikster_2_colors</title><path class="cls-1" d="M173,140.09a21.34,21.34,0,1,1,21.39-21.35A21.39,21.39,0,0,1,173,140.09Zm0-28.17a6.83,6.83,0,1,0,6.85,6.83A6.85,6.85,0,0,0,173,111.92Z"/><path class="cls-1" d="M136.12,98.52a7.26,7.26,0,0,1-5.82-11.6,53.4,53.4,0,0,1,80.41-5.77A7.26,7.26,0,0,1,200.42,91.4a38.84,38.84,0,0,0-58.48,4.21A7.28,7.28,0,0,1,136.12,98.52Z"/><path class="cls-1" d="M119,68.34a7.25,7.25,0,0,1-5-12.55,86.55,86.55,0,0,1,113-4.28A7.26,7.26,0,1,1,218,62.82a72,72,0,0,0-94,3.56A7.26,7.26,0,0,1,119,68.34Z"/><path class="cls-1" d="M98.09,45.62A7.26,7.26,0,0,1,93,33.23C114.49,11.8,142.62,0,172.17,0a112,112,0,0,1,72.61,27.13,7.26,7.26,0,1,1-9.46,11c-18.1-15.46-39.94-23.64-63.15-23.64-25.67,0-50.16,10.29-68.94,29A7.27,7.27,0,0,1,98.09,45.62Z"/><path class="cls-1" d="M271.74,350H78.26a16.79,16.79,0,0,1-16.78-16.75V169.41a16.79,16.79,0,0,1,16.78-16.75H271.74a16.79,16.79,0,0,1,16.78,16.75V333.25A16.79,16.79,0,0,1,271.74,350ZM78.26,167.17A2.27,2.27,0,0,0,76,169.41V333.25a2.27,2.27,0,0,0,2.24,2.24H271.74a2.27,2.27,0,0,0,2.24-2.24V169.41a2.27,2.27,0,0,0-2.24-2.24H78.26Z"/><path class="cls-1" d="M208.33,319.93H141.54a7.26,7.26,0,0,1-7.27-7.26V300.79h-6.41a7.26,7.26,0,0,1-7.27-7.26v-6.19H101.93a7.26,7.26,0,0,1-7.27-7.26V193.87a7.26,7.26,0,0,1,7.27-7.26h146a7.26,7.26,0,0,1,7.27,7.26v86.23a7.26,7.26,0,0,1-7.27,7.26H229.28v6.19a7.26,7.26,0,0,1-7.27,7.26H215.6v11.88A7.26,7.26,0,0,1,208.33,319.93Zm-59.52-14.51h52.25V293.54a7.26,7.26,0,0,1,7.27-7.26h6.41v-6.19a7.26,7.26,0,0,1,7.27-7.26h18.66V201.12H109.2v71.71h18.66a7.26,7.26,0,0,1,7.27,7.26v6.19h6.41a7.26,7.26,0,0,1,7.27,7.26v11.88Z"/></svg>