<svg id="Calque_1" data-name="Calque 1" xmlns="http://www.w3.org/2000/svg" viewBox="0 0 350 350"><defs><style>.cls-1{fill:#fff;}</style></defs><title>Icons_Hikster_2_colors</title><path class="cls-1" d="M304.35,176.35H45.65a7.09,7.09,0,1,0,0,14.18h258.7A7.09,7.09,0,1,0,304.35,176.35Z"/><path class="cls-1" d="M317.93,72.09H32.07A32.09,32.09,0,0,0,0,104.13v85a32.08,32.08,0,0,0,32.07,32H99.93c-0.08,1-.13,2-0.13,3.14,0,8.61,4.25,13.15,7.35,16.47,2.62,2.79,3.53,3.91,3.53,6.78,0,7.16-6.48,15.72-9,18.41a7.09,7.09,0,0,0,10.38,9.67c1.31-1.41,12.79-14.08,12.79-28.08,0-8.61-4.25-13.15-7.35-16.47-2.62-2.79-3.53-3.91-3.53-6.78a23.23,23.23,0,0,1,.19-3.14h49c-0.07,1-.12,2-0.12,3.14,0,8.61,4.25,13.15,7.35,16.47,2.62,2.79,3.53,3.91,3.53,6.78,0,7-3,10.77-6.77,15.51-1,1.19-1.89,2.37-2.76,3.57a7.09,7.09,0,0,0,11.5,8.3c0.74-1,1.55-2,2.36-3,4.17-5.22,9.87-12.36,9.87-24.35,0-8.61-4.25-13.15-7.35-16.47-2.62-2.79-3.53-3.91-3.53-6.78a30,30,0,0,1,.15-3.14h47.82c-0.07,1-.12,2-0.12,3.14,0,8.61,4.25,13.15,7.35,16.47,2.62,2.79,3.53,3.91,3.53,6.78,0,7.29-2.55,10.41-6.77,15.6-0.87,1.07-1.76,2.17-2.65,3.32a7.1,7.1,0,0,0,11.27,8.63c0.81-1.05,1.61-2.05,2.4-3,4.66-5.72,9.94-12.22,9.94-24.54,0-8.61-4.25-13.15-7.35-16.47-2.62-2.79-3.53-3.91-3.53-6.78a26.63,26.63,0,0,1,.17-3.14h78.44a32.08,32.08,0,0,0,32.07-32v-85A32.09,32.09,0,0,0,317.93,72.09ZM45.46,86.27H304.54V112a20.05,20.05,0,0,1-20,20H65.5a20.05,20.05,0,0,1-20-20V86.27Zm290.35,102.9A17.88,17.88,0,0,1,317.93,207H247.59c0.43-.57.87-1.16,1.31-1.79a7.1,7.1,0,0,0-11.58-8.2c-1.17,1.65-2.3,3.1-3.36,4.43-1.43,1.82-2.83,3.6-4.08,5.56H185.53c0.42-.55.84-1.12,1.28-1.72A7.09,7.09,0,0,0,175.34,197c-1.24,1.7-2.4,3.16-3.45,4.49-1.47,1.86-2.88,3.64-4.12,5.57H122.31c0.43-.6.86-1.23,1.32-1.89a7.09,7.09,0,1,0-11.71-8c-1.33,1.93-2.54,3.59-3.64,5.09-1.21,1.65-2.36,3.22-3.39,4.81H32.07a17.88,17.88,0,0,1-17.88-17.85v-85A17.87,17.87,0,0,1,31.27,86.31V112A34.26,34.26,0,0,0,65.5,146.25h219A34.26,34.26,0,0,0,318.73,112V86.31a17.87,17.87,0,0,1,17.08,17.81v85Z"/></svg>