<svg id="Calque_1" data-name="Calque 1" xmlns="http://www.w3.org/2000/svg" viewBox="0 0 350 350"><defs><style>.cls-1{fill:#fff;}</style></defs><title>Icons_Hikster_2_colors</title><path class="cls-1" d="M299.85,155.89a12,12,0,0,0-16.57-3.36l-96.82,64.16V12a12,12,0,0,0-23.92,0V216.61l-95.87-64A11.95,11.95,0,0,0,53.4,172.43l114.17,76.26,0.18,0.13a11.92,11.92,0,0,0,1.14.69l0.23,0.11,0.25,0.12,0.13,0.06,0.64,0.27,0.32,0.12h0l0.61,0.21,0.4,0.11,0.26,0.07,0.24,0.06,0.36,0.07,0.65,0.1,0.14,0,0.28,0c0.36,0,.72.05,1.07,0.05h0c0.36,0,.72,0,1.08-0.06l0.27,0H176l0.77-.12,0.23,0,0.35-.08,0.06,0,0.6-.16,0.28-.1L179,250l0.37-.15,0.6-.29,0.06,0,0.08,0,0.22-.12q0.39-.22.77-0.47l0.19-.12,115.25-76.37A12,12,0,0,0,299.85,155.89Z"/><path class="cls-1" d="M290,350H63.05a12,12,0,0,1,0-23.92H290A12,12,0,0,1,290,350Z"/></svg>