<svg id="Calque_1" data-name="Calque 1" xmlns="http://www.w3.org/2000/svg" viewBox="0 0 350 350"><defs><style>.cls-1{fill:#fff;}</style></defs><title>Icons_Hikster_2_colors_V2</title><path class="cls-1" d="M346.09,5.6a16.91,16.91,0,0,0-23.93-.07l-146.08,146L29.84,5A16.82,16.82,0,0,0,5.93,5,17,17,0,0,0,6,29L152.11,175.47,6.56,320.94A17,17,0,0,0,18.49,350a16.92,16.92,0,0,0,11.93-4.94L176.08,199.49l144.66,145a16.82,16.82,0,0,0,23.91,0,17,17,0,0,0,0-24L200,175.53,346,29.64A17.09,17.09,0,0,0,346.09,5.6Z"/></svg>