<svg id="Calque_1" data-name="Calque 1" xmlns="http://www.w3.org/2000/svg" viewBox="0 0 350 350"><defs><style>.cls-1{fill:#fff;}</style></defs><title>Icons_Hikster_2_colors</title><path class="cls-1" d="M214.35,27.45a38.62,38.62,0,0,1,3-7.54c1.11-2.33,2.36-4.93,3.66-8.18a8.52,8.52,0,1,0-15.8-6.38c-1.14,2.84-2.24,5.11-3.22,7.16a57.57,57.57,0,0,0-4,9.82A104.17,104.17,0,0,0,182,20l0.64-1.29c1-1.93,2-4.08,3.19-6.66a8.52,8.52,0,1,0-15.54-7c-1,2.34-2,4.3-2.9,6a62.8,62.8,0,0,0-4,9.32,103.81,103.81,0,0,0-19.32,4,44.2,44.2,0,0,1,3-6.42c0.9-1.72,1.9-3.6,2.93-5.8a8.51,8.51,0,1,0-15.38-7.32c-0.93,1.94-1.81,3.6-2.62,5.13-3.17,6-5.92,11.23-6.18,22a105.26,105.26,0,0,0-55.69,92.83V341.46A8.53,8.53,0,0,0,78.69,350H271.31a8.53,8.53,0,0,0,8.52-8.54V124.88A105.29,105.29,0,0,0,214.35,27.45ZM130.12,49.26c0.36,0.59.71,1.15,1,1.67,1.73,2.72,2.66,4.21,2.66,8,0,6-.92,7.8-2.91,11.75a74.81,74.81,0,0,0-4.64,10.77,8.56,8.56,0,0,0,5.35,10.83,8.51,8.51,0,0,0,10.8-5.37,56.22,56.22,0,0,1,3.66-8.47c2.45-4.84,4.78-9.39,4.78-19.5a28.88,28.88,0,0,0-5.23-17,86.83,86.83,0,0,1,16.21-4.08,29.37,29.37,0,0,0,5.08,13.09c1.73,2.72,2.66,4.21,2.66,8,0,8.17-1.31,10.6-4.48,16.49-0.8,1.47-1.67,3.07-2.58,4.9a8.55,8.55,0,0,0,3.74,11.47,8.35,8.35,0,0,0,3.84.93,8.52,8.52,0,0,0,7.61-4.68c0.84-1.67,1.64-3.14,2.37-4.48,3.66-6.78,6.55-12.13,6.55-24.62,0-8.79-3.09-13.65-5.33-17.19A15,15,0,0,1,179,36.94a87.18,87.18,0,0,1,18.21,2.77A30.08,30.08,0,0,0,202,50.93c1.73,2.72,2.66,4.21,2.66,8,0,7.16-.86,8.83-3.42,13.81-1.1,2.15-2.39,4.66-3.85,8A8.53,8.53,0,0,0,201.74,92,8.48,8.48,0,0,0,213,87.65c1.29-2.94,2.44-5.17,3.42-7.06,3.38-6.59,5.3-10.85,5.3-21.62a29.68,29.68,0,0,0-1.44-9.49,88.15,88.15,0,0,1,42.14,66.86H87.62A88.16,88.16,0,0,1,130.12,49.26ZM262.79,332.91H87.21V133.42H262.79V332.91Z"/><path class="cls-1" d="M124.09,246.88H225.93a26.78,26.78,0,0,0,26.7-26.77V179.52a26.78,26.78,0,0,0-26.7-26.77H124.09a26.78,26.78,0,0,0-26.71,26.77V220.1A26.78,26.78,0,0,0,124.09,246.88Zm-9.67-67.35a9.68,9.68,0,0,1,9.67-9.69H225.93a9.68,9.68,0,0,1,9.66,9.69V220.1a9.68,9.68,0,0,1-9.66,9.69H124.09a9.68,9.68,0,0,1-9.67-9.69V179.52Z"/><path class="cls-1" d="M128.05,222.5a8.53,8.53,0,0,0,8.52-8.54V189a8.52,8.52,0,1,0-17,0v25A8.53,8.53,0,0,0,128.05,222.5Z"/><path class="cls-1" d="M241.4,280.41H108.6a8.54,8.54,0,0,0,0,17.09H241.4A8.54,8.54,0,0,0,241.4,280.41Z"/></svg>