<svg id="Calque_1" data-name="Calque 1" xmlns="http://www.w3.org/2000/svg" viewBox="0 0 350 350"><defs><style>.cls-1{fill:#fff;}</style></defs><title>Icons_Hikster_2_colors</title><path class="cls-1" d="M175,271.75a10.82,10.82,0,0,1-10.84-10.81V209.16a10.84,10.84,0,0,1,21.68,0v51.78A10.82,10.82,0,0,1,175,271.75Z"/><path class="cls-1" d="M275.49,120.6h-13V86.66C262.48,38.6,223.24-.5,175-0.5S87.52,38.6,87.52,86.66V120.6h-13a20.18,20.18,0,0,0-20.19,20.12V329.39A20.17,20.17,0,0,0,74.52,349.5h201a20.17,20.17,0,0,0,20.18-20.11V140.72A20.18,20.18,0,0,0,275.49,120.6ZM109.2,86.66a65.8,65.8,0,0,1,131.6,0V120.6H109.2V86.66ZM274,327.89H76V142.21H274V327.89Z"/></svg>