<svg id="Calque_1" data-name="Calque 1" xmlns="http://www.w3.org/2000/svg" viewBox="0 0 350 350"><defs><style>.cls-1{fill:#fff;}</style></defs><title>Icons_Hikster_2_colors</title><path class="cls-1" d="M7.47,209.86l2.09-2c2,2.3,4.22,4.61,6.06,6.47l-1.83,1.77Z"/><path class="cls-1" d="M78.51,273.14A9.83,9.83,0,0,1,71,269.08L26,222.94l7.44-7.25L78.8,262.2a4.48,4.48,0,0,0,.35-0.31l71.56-64.32,6.94,7.73L86.56,269.13h0a13.64,13.64,0,0,1-5.34,3.52A7.72,7.72,0,0,1,78.51,273.14Z"/><path class="cls-1" d="M349.92,132.52c-0.57-3.11-.77-4.16-53.85-22.71A124.29,124.29,0,0,0,255.81,103l-38.44,2.41a21.62,21.62,0,0,0-13.6-4.64v0a12.58,12.58,0,0,0-10.16-5.21l-13-.15c-1.6,0-2.55-.37-5.77-4.38l-9-9.9c-2.2-3.17-7.28-5.48-13-3.7L91.26,100.33c-11,4.13-17,11.75-17,21.45,0,0.58,0,1.15.1,2.08l0.6,3.83a2.42,2.42,0,0,1-1.3,1.93L3.49,191.15a5.21,5.21,0,0,0-.36,7.46l4.07,4.33L0,209.78l13.83,13.67,2.63-2.71,3.93-3.79L26,222.87a5.2,5.2,0,0,0,7.33.24l16.54-15.39c0.87,1.73,1.88,3.72,3.06,6,4.72,9.3,10.57,20.81,11.47,22.6a15.21,15.21,0,0,0,13.52,8.21c4.12,0,8.42-1.63,12.83-4.89,4.71-3.47,11-9.77,17.19-15.86,4.47-4.44,9.09-9,12.62-12,0.65-.55,12.41-10.72,15.65-21.62L150.43,205a5.19,5.19,0,0,0,7.15.33s16.5-14.3,23-19.75c6.65-5.58,8.11-10.32,8.42-12.45l7.57-27.81a12.58,12.58,0,0,0,10.2-7.38l0,0.64A18.85,18.85,0,0,0,219,132.86c5.85-.59,29.78-3,37.89-3.4a67.73,67.73,0,0,1,13.23.94,101.11,101.11,0,0,1,18.52,4.83l50.64,18a5.22,5.22,0,0,0,4.19-.31,5.19,5.19,0,0,0,2.58-3.31l3.77-14.92A5.2,5.2,0,0,0,349.92,132.52ZM76.73,234a5.2,5.2,0,0,1-3.09-2.35c-0.9-1.79-6.76-13.32-11.49-22.63l-4.42-8.69,37.06-34.5a5.1,5.1,0,0,0,.56-0.61,10.71,10.71,0,0,1,8.5-4.16c2.4,0,4.41,1,6.9,3l5.66,7.21a26.14,26.14,0,0,0-5.08.68c-10.42,2.53-18.19,11.37-20.24,22.89L83,232.36C81,233.56,78.72,234.52,76.73,234Zm37-30.17c-3.83,3.27-8.38,7.79-13.2,12.57-1.49,1.48-3,3-4.48,4.43l5.19-24c1.36-7.59,6.15-13.27,12.5-14.81,4.79-1.17,10.83.34,12.66,2l0.16,0.2C127.28,188.33,121.43,197.34,113.77,203.88ZM195.29,135a8.93,8.93,0,0,0-8.88,8.09l-7.68,28.47s-0.53,2.45-4.84,6.07c-4.57,3.84-14.09,12-19.37,16.62l-34.09-35.56c-0.09-.1-0.18-0.18-0.28-0.27-0.63-.57-1.28-1.13-1.94-1.69l-0.69-.87-0.19.15c-3.67-2.93-7.87-5.32-13.48-5.32a21,21,0,0,0-16.42,7.81L48.34,194.9c-1.32.69-2.15,1.23-2.39,2.23L30,212l-15.6-16.58L80,137.8A12.53,12.53,0,0,0,85.29,127l-0.61-4.2,0-1c0-1.94,0-7.86,10.25-11.72l61.3-22.76a1.29,1.29,0,0,1,1.51.32L167,97.81c3.25,4.06,7,8,13.62,8l13,0.15a2.4,2.4,0,0,1,2.28,2.64l1.75,24.09A2.33,2.33,0,0,1,195.29,135ZM207.64,128l-1.2-16.52c4.38,1,7.52,4.24,7.52,8.26A8.59,8.59,0,0,1,207.64,128Zm129.76,13.6-45.26-16.12a111.43,111.43,0,0,0-20.42-5.32,75.59,75.59,0,0,0-15.37-1c-6.58.34-22.56,1.87-32.14,2.81a18.8,18.8,0,0,0,.14-2.19,18.13,18.13,0,0,0-.53-4.3l32.45-2a115.05,115.05,0,0,1,36.37,6.24c18.79,6.57,37.8,13.84,46,17Z"/></svg>