<svg id="Calque_1" data-name="Calque 1" xmlns="http://www.w3.org/2000/svg" viewBox="0 0 350 350"><defs><style>.cls-1{fill:#fff;}</style></defs><title>Icons_Hikster_2_colors</title><path class="cls-1" d="M316,0H34a20.52,20.52,0,0,0-20.5,20.49V150.95A20.52,20.52,0,0,0,34,171.43H86.56V340.86A9.14,9.14,0,0,0,95.71,350h155a9.14,9.14,0,0,0,9.15-9.14V171.43H316a20.52,20.52,0,0,0,20.49-20.49V20.49A20.52,20.52,0,0,0,316,0ZM104.86,331.72V80.62H241.54V331.72H104.86ZM318.23,150.95a2.22,2.22,0,0,1-2.19,2.21H259.83V80.62h8.62a9.14,9.14,0,1,0,0-18.28H78.84a9.14,9.14,0,1,0,0,18.28h7.72v72.53H34a2.23,2.23,0,0,1-2.21-2.21V20.49A2.23,2.23,0,0,1,34,18.28H316a2.22,2.22,0,0,1,2.19,2.21V150.95Z"/><path class="cls-1" d="M173.65,304.8a9.14,9.14,0,0,1-9.15-9.14V269a9.15,9.15,0,0,1,18.3,0v26.61A9.14,9.14,0,0,1,173.65,304.8Z"/><path class="cls-1" d="M173.65,149.63a9.14,9.14,0,0,1-9.15-9.14V113.88a9.15,9.15,0,0,1,18.3,0v26.61A9.14,9.14,0,0,1,173.65,149.63Z"/><circle class="cls-1" cx="173.2" cy="204.17" r="19.44" transform="translate(-94.41 212.27) rotate(-51.43)"/></svg>