<svg id="Calque_1" data-name="Calque 1" xmlns="http://www.w3.org/2000/svg" viewBox="0 0 350 350"><defs><style>.cls-1{fill:#fff;}</style></defs><title>Icons_Hikster_2_colors</title><path class="cls-1" d="M349.86,66.05a8.89,8.89,0,0,0-4-7.43,9,9,0,0,0-8.42-.75L257.95,92.08l-79.46-34.6-0.16-.06c-0.26-.11-0.51-0.2-0.78-0.28L177.22,57c-0.23-.06-0.47-0.12-0.71-0.16l-0.43-.06-0.62-.06H174.4l-0.61.06-0.45.07c-0.22,0-.44.09-0.66,0.15l-0.39.11c-0.24.07-.47,0.16-0.7,0.26l-0.22.08L91.89,92.09,12.41,58A8.9,8.9,0,0,0,0,66.24v182.4a8.92,8.92,0,0,0,5.38,8.19l83,35.72a9.31,9.31,0,0,0,.92.33l0.29,0.07q0.42,0.11.85,0.19l0.35,0.05a7.88,7.88,0,0,0,2.27,0l0.3,0a8.94,8.94,0,0,0,1-.22l0.15,0a9,9,0,0,0,1-.35L175,258l79.49,33.3c0.25,0.1.5,0.19,0.75,0.27l0.35,0.1a8.86,8.86,0,0,0,.87.19l0.34,0.05a7.78,7.78,0,0,0,2.26,0l0.35-.05q0.43-.07.85-0.19l0.43-.13c0.23-.08.46-0.16,0.69-0.25l83.15-34.77a8.89,8.89,0,0,0,5.47-8.23Zm-332,13.69L83,107.67V270.82l-65.2-28.06v-163Zm83,27.88L166,79.24v163.2l-65.2,28.33V107.62Zm83-28.39L249,107.62v162l-65.2-27.31V79.24Zm83,190.43v-162L332,79.59l0.13,162.76Z"/></svg>