<svg id="Calque_1" data-name="Calque 1" xmlns="http://www.w3.org/2000/svg" viewBox="0 0 350 350"><defs><style>.cls-1{fill:#fff;}</style></defs><title>Icons_Hikster_2_colors</title><path class="cls-1" d="M184.13,331.55a43.27,43.27,0,1,1,43.22-43.27A43.3,43.3,0,0,1,184.13,331.55Zm0-65.53a22.26,22.26,0,1,0,22.24,22.26A22.28,22.28,0,0,0,184.13,266Z"/><path class="cls-1" d="M98.63,234.86a10.5,10.5,0,0,1-8.39-16.79A117.12,117.12,0,0,1,267,205.32a10.5,10.5,0,1,1-14.84,14.85A96.15,96.15,0,0,0,107,230.64,10.47,10.47,0,0,1,98.63,234.86Z"/><path class="cls-1" d="M58.91,164.65a10.5,10.5,0,0,1-7.17-18.17,193.77,193.77,0,0,1,253.69-9.62,10.5,10.5,0,0,1-13.15,16.39,172.78,172.78,0,0,0-226.22,8.58A10.44,10.44,0,0,1,58.91,164.65Z"/><path class="cls-1" d="M10.49,111.81A10.5,10.5,0,0,1,3.08,93.88c48.7-48.64,112.31-75.43,179.11-75.43C241.74,18.45,300,40.32,346.33,80a10.5,10.5,0,0,1-13.65,16c-43.12-37-95.15-56.52-150.49-56.52C121,39.46,62.65,64.07,17.9,108.75A10.44,10.44,0,0,1,10.49,111.81Z"/></svg>