<svg id="Calque_1" data-name="Calque 1" xmlns="http://www.w3.org/2000/svg" viewBox="0 0 350 350"><defs><style>.cls-1{fill:#fff;}</style></defs><title>Icons_Hikster_2_colors</title><path class="cls-1" d="M247.33,125.86h-88.9a30.71,30.71,0,0,0,0,61.42h88.9A30.71,30.71,0,0,0,247.33,125.86Zm0,44.33h-88.9a13.62,13.62,0,1,1,0-27.24h88.9A13.62,13.62,0,1,1,247.33,170.18Z"/><circle class="cls-1" cx="258.41" cy="208.28" r="6.01"/><path class="cls-1" d="M324.77,233.81a8.56,8.56,0,0,0-1.35-1.85c-9.39-13.16-16.67-28.27-13.32-40.2,8.59-30.57,38.06-73,38.35-73.45a8.54,8.54,0,0,0-3.35-12.61A253.27,253.27,0,0,0,316.26,94.2l1.9-5a8.54,8.54,0,0,0-16-6.07l-2.36,6.23a281.06,281.06,0,0,0-70.78-9C102.75,80.33,0,163.11,0,264.85a8.54,8.54,0,0,0,8.54,8.54H341.46a8.54,8.54,0,0,0,5.66-14.94A171.07,171.07,0,0,1,324.77,233.81ZM229,97.42c34.89,0,69.14,6.78,99.69,19.67-9.49,14.62-28.07,45.14-35.07,70.06-3.91,13.94.54,28.82,7.84,42.15H21.9C42.6,154,127.6,97.42,229,97.42ZM17.36,256.3c0.21-3.36.57-6.7,1-10a8.57,8.57,0,0,0,1.16.09H312.78c2.76,3.6,5.56,6.94,8.21,9.92H17.36Z"/></svg>