<svg id="Calque_1" data-name="Calque 1" xmlns="http://www.w3.org/2000/svg" viewBox="0 0 350 350"><defs><style>.cls-1{fill:#fff;}</style></defs><title>Icons_Hikster_2_colors</title><ellipse class="cls-1" cx="176.11" cy="143.19" rx="8.5" ry="8.48"/><ellipse class="cls-1" cx="176.11" cy="171.51" rx="8.5" ry="8.48"/><ellipse class="cls-1" cx="176.11" cy="199.83" rx="8.5" ry="8.48"/><ellipse class="cls-1" cx="176.11" cy="228.14" rx="8.5" ry="8.48"/><ellipse class="cls-1" cx="176.11" cy="256.46" rx="8.5" ry="8.48"/><ellipse class="cls-1" cx="176.27" cy="284.89" rx="8.5" ry="8.48"/><ellipse class="cls-1" cx="176.47" cy="313.2" rx="8.5" ry="8.48"/><ellipse class="cls-1" cx="176.47" cy="341.52" rx="8.5" ry="8.48"/><path class="cls-1" d="M149.53,144.16a8.34,8.34,0,0,1-9.23,7.48,8.48,8.48,0,1,1,1.9-16.85A8.36,8.36,0,0,1,149.53,144.16Z"/><ellipse class="cls-1" cx="137.92" cy="171.36" rx="8.48" ry="8.5" transform="translate(-47.72 289.35) rotate(-83.61)"/><ellipse class="cls-1" cx="134.75" cy="199.5" rx="8.48" ry="8.5" transform="translate(-78.5 311.22) rotate(-83.61)"/><ellipse class="cls-1" cx="131.58" cy="227.64" rx="8.48" ry="8.5" transform="translate(-109.28 333.08) rotate(-83.61)"/><ellipse class="cls-1" cx="128.42" cy="255.78" rx="8.48" ry="8.5" transform="translate(-140.06 354.94) rotate(-83.61)"/><ellipse class="cls-1" cx="125.42" cy="284.03" rx="8.48" ry="8.5" transform="translate(-170.8 377.07) rotate(-83.61)"/><ellipse class="cls-1" cx="122.44" cy="312.17" rx="8.48" ry="8.5" transform="translate(-201.41 399.12) rotate(-83.61)"/><path class="cls-1" d="M114,145a8.5,8.5,0,1,1-6-10.39A8.5,8.5,0,0,1,114,145Z"/><path class="cls-1" d="M106.63,172.33a8.5,8.5,0,1,1-6-10.39A8.5,8.5,0,0,1,106.63,172.33Z"/><path class="cls-1" d="M99.28,199.69a8.5,8.5,0,1,1-6-10.39A8.5,8.5,0,0,1,99.28,199.69Z"/><path class="cls-1" d="M91.94,227a8.5,8.5,0,1,1-6-10.39A8.5,8.5,0,0,1,91.94,227Z"/><path class="cls-1" d="M84.76,254.39a8.5,8.5,0,1,1-6-10.39A8.5,8.5,0,0,1,84.76,254.39Z"/><path class="cls-1" d="M77.42,281.86a8.5,8.5,0,1,1-6-10.39A8.5,8.5,0,0,1,77.42,281.86Z"/><path class="cls-1" d="M235.7,145a8.5,8.5,0,1,0,6-10.39A8.5,8.5,0,0,0,235.7,145Z"/><path class="cls-1" d="M243,172.33a8.5,8.5,0,1,0,6-10.39A8.5,8.5,0,0,0,243,172.33Z"/><path class="cls-1" d="M250.39,199.8a8.5,8.5,0,1,0,6-10.39A8.34,8.34,0,0,0,250.39,199.8Z"/><path class="cls-1" d="M257.73,227a8.5,8.5,0,1,0,6-10.39A8.5,8.5,0,0,0,257.73,227Z"/><path class="cls-1" d="M265.07,254.5a8.5,8.5,0,1,0,6-10.39A8.5,8.5,0,0,0,265.07,254.5Z"/><path class="cls-1" d="M272.58,281.86a8.5,8.5,0,1,0,6-10.39A8.5,8.5,0,0,0,272.58,281.86Z"/><ellipse class="cls-1" cx="210.74" cy="143.22" rx="8.5" ry="8.48" transform="translate(-14.63 24.34) rotate(-6.39)"/><ellipse class="cls-1" cx="213.9" cy="171.36" rx="8.5" ry="8.48" transform="translate(-17.74 24.86) rotate(-6.39)"/><ellipse class="cls-1" cx="217.07" cy="199.5" rx="8.5" ry="8.48" transform="translate(-20.85 25.39) rotate(-6.39)"/><ellipse class="cls-1" cx="220.24" cy="227.64" rx="8.5" ry="8.48" transform="translate(-23.96 25.92) rotate(-6.39)"/><ellipse class="cls-1" cx="223.4" cy="255.78" rx="8.5" ry="8.48" transform="translate(-27.07 26.45) rotate(-6.39)"/><ellipse class="cls-1" cx="226.74" cy="284.03" rx="8.5" ry="8.48" transform="translate(-30.19 26.99) rotate(-6.39)"/><ellipse class="cls-1" cx="230.1" cy="312.17" rx="8.5" ry="8.48" transform="translate(-33.3 27.54) rotate(-6.39)"/><path class="cls-1" d="M183.91,23.06V7.51a7.63,7.63,0,0,0-15.27,0V23.06c-48.35,3.89-86.5,44.38-86.5,93.59a7.62,7.62,0,0,0,7.63,7.62h173a7.62,7.62,0,0,0,7.63-7.62C270.41,67.44,232.26,27,183.91,23.06ZM97.77,109a78.89,78.89,0,0,1,157,0h-157Z"/></svg>