<svg id="Calque_1" data-name="Calque 1" xmlns="http://www.w3.org/2000/svg" viewBox="0 0 350 350"><defs><style>.cls-1{fill:#fff;}</style></defs><title>Icons_Hikster_2_colors</title><path class="cls-1" d="M315.83,141.16s0-.1,0-0.15q0-.39,0-0.78c0-.09,0-0.19,0-0.28,0-.3-0.08-0.6-0.14-0.9,0-.11-0.05-0.22-0.08-0.33s-0.09-.38-0.15-0.57-0.09-.28-0.13-0.42-0.11-.32-0.17-0.48-0.1-.27-0.16-0.4-0.23-.51-0.36-0.76l-0.2-.34c-0.09-.15-0.18-0.31-0.28-0.46l-0.25-.36-0.29-.39-0.28-.36-0.29-.32c-0.13-.14-0.25-0.28-0.38-0.41L182.7,3.75c-0.14-.14-0.28-0.27-0.43-0.4L182,3.09l-0.38-.3-0.38-.28-0.35-.24-0.55-.33-0.23-.13c-0.28-.15-0.57-0.29-0.87-0.42l-0.11,0q-0.44-.18-0.89-0.32l-0.05,0a10.65,10.65,0,0,0-3.65-.48H64.39A30.23,30.23,0,0,0,34.17,30.7V251.62c0,0.81,0,1.6.1,2.4a10.84,10.84,0,0,0-.1,1.42v64.88A30.23,30.23,0,0,0,64.39,350.5H285.62a30.23,30.23,0,0,0,30.21-30.18V251.62h0V141.16Zm-130-103.85L279,130.38H185.79V37.31Zm-130-6.61a8.64,8.64,0,0,1,8.65-8.63h99.83V141.16A10.78,10.78,0,0,0,175,151.94H294.26v99.68a8.75,8.75,0,0,1-8.64,8.63H64.39a8.75,8.75,0,0,1-8.65-8.63V30.7ZM294.26,320.32a8.63,8.63,0,0,1-8.64,8.63H64.39a8.64,8.64,0,0,1-8.65-8.63v-5a30.15,30.15,0,0,0,8.65,1.26H285.62a30.13,30.13,0,0,0,8.64-1.26v5Zm0-34v0.12a8.63,8.63,0,0,1-8.64,8.63H64.39a8.64,8.64,0,0,1-8.65-8.63v-5.85a30.16,30.16,0,0,0,8.65,1.26H285.62a30.13,30.13,0,0,0,8.64-1.26v5.73Z"/></svg>