<svg id="Calque_1" data-name="Calque 1" xmlns="http://www.w3.org/2000/svg" viewBox="0 0 350 350"><defs><style>.cls-1{fill:#fff;}</style></defs><title>Icons_Hikster_2_colors</title><path class="cls-1" d="M113.79,133.3V18.91a9.43,9.43,0,0,0-9.43-9.44H9.43A9.43,9.43,0,0,0,0,18.91V133.3A57,57,0,0,0,47.46,189.4V321.65h-38a9.44,9.44,0,0,0,0,18.88h94.92a9.44,9.44,0,0,0,0-18.88h-38V189.4A57,57,0,0,0,113.79,133.3Zm-94.92,0V28.35h76V133.3A38,38,0,0,1,18.87,133.3Z"/><path class="cls-1" d="M349.18,292.56a9.45,9.45,0,0,0-8.61-5.59H314.84a108.3,108.3,0,0,0,28.89-73.81,9.43,9.43,0,0,0-9.43-9.44H135.83a9.43,9.43,0,0,0-9.43,9.44A108.51,108.51,0,0,0,155.3,287H129.55a9.44,9.44,0,0,0-7,15.73c19.64,21.95,50.9,34,52.22,34.48a9.21,9.21,0,0,0,3.35.62H292a9.21,9.21,0,0,0,3.35-.62c1.32-.49,32.58-12.54,52.22-34.48A9.44,9.44,0,0,0,349.18,292.56Zm-203.42-70H324.36A89.55,89.55,0,0,1,286.22,287H183.91A89.77,89.77,0,0,1,145.75,222.6Zm144.44,96.33H179.91a154.68,154.68,0,0,1-24.58-13.08H314.75A156.47,156.47,0,0,1,290.19,318.93Z"/></svg>