<svg id="Calque_1" data-name="Calque 1" xmlns="http://www.w3.org/2000/svg" viewBox="0 0 350 350"><defs><style>.cls-1{fill:#fff;}</style></defs><title>Icons_Hikster_2_colors</title><path class="cls-1" d="M65.7,90.12A43.2,43.2,0,1,1,108.9,46.93,43.24,43.24,0,0,1,65.7,90.12Zm0-67A23.81,23.81,0,1,0,89.49,46.93,23.84,23.84,0,0,0,65.7,23.11Z"/><path class="cls-1" d="M269.38,90.12a43.2,43.2,0,1,1,43.19-43.19A43.24,43.24,0,0,1,269.38,90.12Zm0-67a23.81,23.81,0,1,0,23.79,23.82A23.84,23.84,0,0,0,269.38,23.11Z"/><path class="cls-1" d="M66.54,125.45A35.54,35.54,0,0,1,101.78,161c0,0.14.05,14.29-1.3,26.15A972.36,972.36,0,0,1,78.74,311.55c-1.06,4.46-5,8.1-10.24,9.17a11.81,11.81,0,0,1-2,.19,12.59,12.59,0,0,1-2.11-.22h0L64,320.61a11.65,11.65,0,0,1-9.19-8.32c-3.17-9.83-11.07-42.14-18.25-94.09-5.34-38.62-5.15-56.84-5.15-57.33a35.84,35.84,0,0,1,.76-7.28,35.14,35.14,0,0,1,34.37-28.14m0-19.4A54.83,54.83,0,0,0,12,160.86s-0.35,18.84,5.33,60c7.34,53.14,15.45,86.4,19,97.39a30.92,30.92,0,0,0,24,21.4l0.21,0a32.38,32.38,0,0,0,6,.61,32,32,0,0,0,6-.61l0.26-.07A31.81,31.81,0,0,0,97.61,316a981.88,981.88,0,0,0,22.17-126.9,281.85,281.85,0,0,0,1.4-28.27A54.94,54.94,0,0,0,66.54,106h0Z"/><path class="cls-1" d="M272.14,125.26a15.07,15.07,0,0,1,14.75,12.08l8.24,57.35,20.72,126.22H233.41l15.25-123.75,8.34-58.3q0.24-.79.41-1.62a15.1,15.1,0,0,1,14.74-12m0-19.4a34.47,34.47,0,0,0-33.74,27.44h-0.21l-8.74,61.1L212,335.92a3.72,3.72,0,0,0,1.06,3.07,4.47,4.47,0,0,0,3.2,1.32H333.71a4.44,4.44,0,0,0,3.25-1.38,3.7,3.7,0,0,0,1-3.15L314.27,191.54l-8.32-57.94h0a34.45,34.45,0,0,0-33.78-27.74h0Z"/><path class="cls-1" d="M165.64,350a9.7,9.7,0,0,1-9.7-9.7V9.7a9.7,9.7,0,0,1,19.41,0V340.3A9.7,9.7,0,0,1,165.64,350Z"/></svg>