<svg id="Calque_1" data-name="Calque 1" xmlns="http://www.w3.org/2000/svg" viewBox="0 0 350 350"><defs><style>.cls-1{fill:#fff;}</style></defs><title>Icons_Hikster_2_colors_V2</title><path class="cls-1" d="M175,18.55c86.26,0,156.45,70.18,156.45,156.45S261.26,331.45,175,331.45,18.55,261.26,18.55,175,88.74,18.55,175,18.55M175,0A175,175,0,1,0,350,175,175,175,0,0,0,175,0h0Z"/><path class="cls-1" d="M144.36,233.38a9.29,9.29,0,0,1-9.27-9.28V125.9a9.27,9.27,0,0,1,13.91-8L234,167A9.27,9.27,0,0,1,234,183l-85,49.1A9.27,9.27,0,0,1,144.36,233.38ZM153.64,142V208l57.21-33Z"/></svg>