<svg id="Calque_1" data-name="Calque 1" xmlns="http://www.w3.org/2000/svg" viewBox="0 0 350 350"><defs><style>.cls-1{fill:#fff;}</style></defs><title>Icons_Hikster_2_colors_V2</title><path class="cls-1" d="M175.52,0.48a175,175,0,1,0,175,175A175,175,0,0,0,175.52.48Zm0,330.93c-86,0-155.93-69.95-155.93-155.92S89.54,19.56,175.52,19.56,331.44,89.5,331.44,175.48,261.5,331.41,175.52,331.41Z"/><path class="cls-1" d="M175.52,83.62a91.86,91.86,0,1,0,91.85,91.87A92,92,0,0,0,175.52,83.62Zm0,164.63a72.78,72.78,0,1,1,72.78-72.77A72.86,72.86,0,0,1,175.52,248.25Z"/><path class="cls-1" d="M215.4,166H185v-30.6a9.53,9.53,0,1,0-19.07,0V166H135.14a9.54,9.54,0,0,0,0,19.08h30.78v30.6a9.53,9.53,0,1,0,19.07,0v-30.6H215.4A9.54,9.54,0,0,0,215.4,166Z"/></svg>