<svg id="Calque_1" data-name="Calque 1" xmlns="http://www.w3.org/2000/svg" viewBox="0 0 350 350"><defs><style>.cls-1{fill:#fff;}</style></defs><title>Icons_Hikster_2_colors_V2</title><path class="cls-1" d="M175,18.9c86.07,0,156.1,70,156.1,156.1s-70,156.1-156.1,156.1S18.9,261.07,18.9,175,88.93,18.9,175,18.9M175,0A175,175,0,1,0,350,175,175,175,0,0,0,175,0h0Z"/><path class="cls-1" d="M234,165.18h-48.7V116.49a9.45,9.45,0,1,0-18.9,0v48.69h-48.7a9.45,9.45,0,0,0,0,18.91h48.7v48.69a9.45,9.45,0,1,0,18.9,0V184.09H234A9.45,9.45,0,0,0,234,165.18Z"/></svg>