<svg id="Calque_1" data-name="Calque 1" xmlns="http://www.w3.org/2000/svg" viewBox="0 0 350 350"><defs><style>.cls-1{fill:#fff;}</style></defs><title>Icons_Hikster_2_colors</title><path class="cls-1" d="M175,272.25a10.8,10.8,0,0,1-10.8-10.81V209.66a10.8,10.8,0,1,1,21.6,0v51.78A10.8,10.8,0,0,1,175,272.25Z"/><path class="cls-1" d="M275.11,120.6H109.44V86.66A65.5,65.5,0,0,1,229.32,50.11,10.8,10.8,0,0,0,247.21,38,87.09,87.09,0,0,0,87.85,86.66V120.6h-13a20.14,20.14,0,0,0-20.12,20.12V329.39A20.13,20.13,0,0,0,74.89,349.5H275.11a20.13,20.13,0,0,0,20.12-20.11V140.72A20.14,20.14,0,0,0,275.11,120.6Zm-1.48,207.29H76.37V142.21H273.63V327.89Z"/></svg>