<svg id="Calque_1" data-name="Calque 1" xmlns="http://www.w3.org/2000/svg" viewBox="0 0 350 350"><defs><style>.cls-1{fill:#fff;}</style></defs><title>Icons_Hikster_2_colors</title><path class="cls-1" d="M125.6,189.67a7.43,7.43,0,0,1-7.43-7.44V52.53a7.43,7.43,0,1,1,14.86,0V182.24A7.43,7.43,0,0,1,125.6,189.67Z"/><path class="cls-1" d="M252.45,7C251.48,6.77,228.22.5,175,.5S98.52,6.77,97.55,7a7.42,7.42,0,0,0-5.45,7.16V326.27a7.43,7.43,0,0,0,7.43,7.44h5.82a17.34,17.34,0,0,0,34.66,0h67.27a17.34,17.34,0,0,0,34.66,0h8.53a7.43,7.43,0,0,0,7.43-7.44V14.19A7.42,7.42,0,0,0,252.45,7ZM107,20.21c9.43-1.74,31.34-4.83,68-4.83s58.61,3.09,68,4.83V199.47H107V20.21ZM243,318.84H107V214.34H243v104.5Z"/><path class="cls-1" d="M227,240.68H123a7.44,7.44,0,0,1,0-14.87H227A7.44,7.44,0,0,1,227,240.68Z"/></svg>