<svg id="Calque_1" data-name="Calque 1" xmlns="http://www.w3.org/2000/svg" viewBox="0 0 350 350"><defs><style>.cls-1{fill:#fff;}</style></defs><title>Icons_Hikster_2_colors</title><path class="cls-1" d="M69.66,290.61h42.41v10.45H82v13.67h26.34v10.33H82V350H69.66V290.61Z"/><path class="cls-1" d="M158.24,292.06a14.69,14.69,0,0,1,5.58,4.15,18.56,18.56,0,0,1,3,5,16.59,16.59,0,0,1,1.1,6.25,17.86,17.86,0,0,1-2.14,8.33,12,12,0,0,1-7.06,5.79,11.06,11.06,0,0,1,5.83,4.7q1.72,3,1.72,9.3v4a29.2,29.2,0,0,0,.33,5.53,5,5,0,0,0,2.29,3.39V350H155.15c-0.38-1.32-.65-2.38-0.81-3.19a29.27,29.27,0,0,1-.52-5.13l-0.08-5.53c-0.06-3.79-.71-6.32-2-7.59s-3.62-1.89-7.08-1.89H132.56V350H120.42V290.53h28.44A25.76,25.76,0,0,1,158.24,292.06Zm-25.68,8.79v16h13.37a14.29,14.29,0,0,0,6-1c2.34-1.13,3.53-3.36,3.53-6.7q0-5.4-3.41-7.26a12.31,12.31,0,0,0-5.75-1.05H132.56Z"/><path class="cls-1" d="M223.78,301.06H192.31v12.63H221.2V324H192.31v15.29h32.91V350H180.17V290.53h43.61v10.53Z"/><path class="cls-1" d="M278.89,301.06H247.42v12.63H276.3V324H247.42v15.29h32.93V350H235.27V290.53h43.61v10.53Z"/><path class="cls-1" d="M182.18,246.16a34,34,0,1,1,34-34A34.06,34.06,0,0,1,182.18,246.16Zm0-51.52a17.5,17.5,0,1,0,17.5,17.5A17.52,17.52,0,0,0,182.18,194.63Z"/><path class="cls-1" d="M114.89,170.14a8.26,8.26,0,0,1-6.61-13.2,92.24,92.24,0,0,1,139.12-10,8.26,8.26,0,0,1-11.68,11.68,75.72,75.72,0,0,0-114.22,8.23A8.24,8.24,0,0,1,114.89,170.14Z"/><path class="cls-1" d="M83.63,114.94A8.26,8.26,0,0,1,78,100.65a152.61,152.61,0,0,1,199.66-7.56A8.26,8.26,0,1,1,267.31,106a136.08,136.08,0,0,0-178,6.74A8.22,8.22,0,0,1,83.63,114.94Z"/><path class="cls-1" d="M45.53,73.4A8.26,8.26,0,0,1,39.7,59.3C78,21.06,128.09,0,180.65,0c46.88,0,92.76,17.19,129.19,48.42A8.26,8.26,0,0,1,299.1,61c-33.93-29.07-74.88-44.44-118.44-44.44C132.49,16.51,86.58,35.86,51.36,71A8.22,8.22,0,0,1,45.53,73.4Z"/></svg>