<svg id="Calque_1" data-name="Calque 1" xmlns="http://www.w3.org/2000/svg" viewBox="0 0 350 350"><defs><style>.cls-1{fill:#fff;}</style></defs><title>Icons_Hikster_2_colors_V2</title><path class="cls-1" d="M337.4,202.82l0,0-0.09-.07-0.12-.09h0l-133.3-95.85v-62a10.11,10.11,0,0,0-3.76-7.85,10.24,10.24,0,0,0-8.48-2l-24.34,5.25a10.08,10.08,0,0,0-7.92,8.9c-0.81,8.49-1.83,17.92-2.75,25.39L93.84,31.79C74.26,18.56,42.18,33.9,19.15,67.63c-22.86,33.5-25.56,68.72-6.41,82.21l0.32,0.24L258.12,318.17l0.12,0.09a27.66,27.66,0,0,0,15.82,4.68c6.92,0,14.55-2.17,22.49-6.52,12.52-6.85,24.87-18.61,34.77-33.12C353.69,250.49,356.27,216,337.4,202.82ZM35.86,79C53.56,53.05,75.33,43.6,82.45,48.47l0.13,0.09c7,5.09,6.08,28.59-11.51,54.36-17.7,25.94-39.36,35.44-46.6,30.52h0C17.3,128.48,18.19,104.87,35.86,79Zm251,219.74c-7.31,4-13.92,5.11-17.2,2.85l-0.11-.07L48.66,150a78.77,78.77,0,0,0,15.64-9.93l67.33,46.45a10.1,10.1,0,1,0,11.5-16.6L79,125.73a132.83,132.83,0,0,0,8.76-11.46A128.47,128.47,0,0,0,98.3,95.78l22.08,14.51A10.09,10.09,0,1,0,131.5,93.44L105.11,76.1A72.86,72.86,0,0,0,106.77,65L158,99.88a10.4,10.4,0,0,0,1.49.83l0.12,0.05q0.39,0.17.79,0.31l0.06,0a10,10,0,0,0,3.22.54l0.44,0,0.28,0c0.26,0,.51,0,0.76-0.08l0.25,0a10.15,10.15,0,0,0,2.45-.75l0.25-.11c0.22-.11.44-0.23,0.65-0.35l0.33-.19,0.56-.38,0.17-.11c3.65-2.77,5.15-3.91,8.84-41.25l4.9-1.06v54.68c0,0.16,0,.31,0,0.47s0,0.19,0,.28c0,0.25,0,.5.09,0.74l0,0.2c0,0.26.1,0.52,0.17,0.78l0,0.16q0.11,0.39.24,0.76l0.06,0.17q0.14,0.36.3,0.71l0.1,0.21q0.16,0.32.34,0.62l0.16,0.26q0.17,0.28.37,0.54l0.21,0.28c0.13,0.17.26,0.33,0.4,0.48l0.24,0.26c0.15,0.16.31,0.31,0.48,0.47l0.23,0.21c0.19,0.16.38,0.32,0.59,0.47l0.13,0.1,0.25,0.18h0l137.49,98.86,0.06,0,0.15,0.12c6.5,4.42,6,25-8.38,48.35l-40.73-29.45a10.1,10.1,0,1,0-11.86,16.35l40.41,29.22A74.75,74.75,0,0,1,286.82,298.73Z"/></svg>