<svg id="Calque_1" data-name="Calque 1" xmlns="http://www.w3.org/2000/svg" viewBox="0 0 350 350"><defs><style>.cls-1{fill:#fff;}</style></defs><title>Icons_Hikster_2_colors</title><circle class="cls-1" cx="205.57" cy="145.71" r="8.99"/><path class="cls-1" d="M205,3.12A175,175,0,0,0,31.93,276.18,173.81,173.81,0,0,0,145,347.85a177.13,177.13,0,0,0,30.35,2.63,175.08,175.08,0,0,0,172-145C363.92,110.41,300,19.64,205,3.12ZM147.17,335.66C58.84,320.31-.53,236,14.82,147.64A161.49,161.49,0,0,1,81.43,42.54q6.31-4.44,12.94-8.23l24.4,52.33C94,113.22,82.9,148.43,80.31,157.6a5.79,5.79,0,0,0-.21.87c-11,35.22-11,79.53-10,103l0.06,2.67c0,0.18,0,.37,0,0.55,0,10.26,8,18.92,17.41,18.92h95.86c12.52,0,18.51-10.93,18.81-16.5,0-.31,0-0.82,0-1.45l29.12,62.44A161.49,161.49,0,0,1,147.17,335.66ZM177.32,107c19.84,0.78,35.18,6.38,45.83,16.87l1,0.91a14.5,14.5,0,0,0,1.15,1.07c0.11,0.13.23,0.26,0.35,0.38,5.56,5.61,10.2,12.92,13.85,21.9a6.19,6.19,0,0,0,6,4.68H297a4.43,4.43,0,0,1,4.42,4.42v10.26a46.89,46.89,0,0,1-47.06,46.77l-26.61,1.32h0a38.19,38.19,0,0,0-26.62,11.46c-0.75.75-1.46,1.53-2.14,2.32L133.73,89.45a83.42,83.42,0,0,1,28.94-17.93,35.83,35.83,0,0,1,8.7-2.94v32.26A6.18,6.18,0,0,0,177.32,107Zm14.2,135.64a36.16,36.16,0,0,0-1.7,11s0.12,10.76,0,12.5c0,0.05-1.22,5.08-6.48,5.08H87.52c-2.36,0-4.77-3-5-6a6,6,0,0,0,0-.73l-0.08-3.54c-1-22.81-1-66.08,9.76-99.63a6.47,6.47,0,0,0,.23-1c2-6.75,11.59-37,32.13-61.16ZM335.2,203.33a161.52,161.52,0,0,1-66.61,105.11,164.44,164.44,0,0,1-25.82,14.87l-37.75-81a27.13,27.13,0,0,1,4.84-6.53A25.94,25.94,0,0,1,228.08,228l26.62-1.32a59.2,59.2,0,0,0,59.14-59.14V157.26A16.81,16.81,0,0,0,297,140.47H249.67A76.47,76.47,0,0,0,234.86,118l-0.17-.2a16.48,16.48,0,0,0-1.56-1.48l-0.71-.68-0.83-.78C220,103.45,204,96.8,183.75,95V61.79a6.18,6.18,0,0,0-6.19-6.19,44.88,44.88,0,0,0-19.64,4.51,93,93,0,0,0-29.74,17.46L105.38,28.64l0-.08a160.75,160.75,0,0,1,69.33-15.69,164.42,164.42,0,0,1,28.2,2.45C291.19,30.67,350.56,115,335.2,203.33Z"/></svg>