<svg id="Calque_1" data-name="Calque 1" xmlns="http://www.w3.org/2000/svg" viewBox="0 0 350 350"><defs><style>.cls-1{fill:#fff;}</style></defs><title>Icons_Hikster_2_colors</title><path class="cls-1" d="M330.74,282.21c-11.76,0-17.11-4.81-24.51-11.48-8.2-7.38-18.41-16.57-37.81-16.57s-29.61,9.19-37.81,16.57c-7.39,6.66-12.74,11.48-24.51,11.48s-17.1-4.81-24.49-11.48c-8.2-7.38-18.4-16.57-37.78-16.57s-29.59,9.19-37.8,16.57c-7.39,6.66-12.74,11.48-24.5,11.48S64.44,277.4,57,270.74c-8.2-7.38-18.4-16.57-37.78-16.57a9.94,9.94,0,0,0,0,19.87c11.75,0,17.09,4.81,24.49,11.47,8.2,7.39,18.41,16.58,37.79,16.58s29.59-9.19,37.8-16.57c7.39-6.66,12.74-11.48,24.5-11.48s17.09,4.81,24.49,11.47c8.2,7.39,18.41,16.58,37.79,16.58s29.6-9.19,37.8-16.57c7.4-6.66,12.74-11.48,24.51-11.48s17.11,4.81,24.51,11.48c8.2,7.38,18.41,16.57,37.8,16.57A9.94,9.94,0,0,0,330.74,282.21Z"/><path class="cls-1" d="M330.74,330.13c-11.76,0-17.11-4.81-24.51-11.48-8.2-7.38-18.41-16.57-37.81-16.57s-29.61,9.19-37.81,16.57c-7.39,6.66-12.74,11.48-24.51,11.48s-17.1-4.81-24.49-11.48c-8.2-7.38-18.4-16.57-37.78-16.57s-29.59,9.19-37.8,16.57c-7.39,6.66-12.74,11.48-24.5,11.48S64.44,325.32,57,318.65c-8.2-7.38-18.4-16.57-37.78-16.57a9.94,9.94,0,1,0,0,19.87c11.75,0,17.09,4.81,24.49,11.47C51.94,340.81,62.15,350,81.54,350s29.59-9.19,37.8-16.57c7.39-6.66,12.74-11.48,24.5-11.48s17.09,4.81,24.49,11.47c8.2,7.39,18.41,16.58,37.79,16.58s29.6-9.19,37.8-16.57c7.4-6.66,12.74-11.48,24.51-11.48s17.11,4.81,24.51,11.48c8.2,7.38,18.41,16.57,37.8,16.57A9.94,9.94,0,0,0,330.74,330.13Z"/><path class="cls-1" d="M151.11,0a9.83,9.83,0,0,0-9.84,9.83V117.4a9.84,9.84,0,0,0,19.68,0V9.83A9.83,9.83,0,0,0,151.11,0Z"/><path class="cls-1" d="M151.11,148.57a9.83,9.83,0,0,0-9.84,9.83V225a9.84,9.84,0,0,0,19.68,0V158.4A9.83,9.83,0,0,0,151.11,148.57Z"/><path class="cls-1" d="M205.76,0a9.83,9.83,0,0,0-9.84,9.83V77.5a9.84,9.84,0,0,0,19.68,0V9.83A9.83,9.83,0,0,0,205.76,0Z"/><path class="cls-1" d="M205.76,110.18a9.83,9.83,0,0,0-9.84,9.83V225a9.84,9.84,0,0,0,19.68,0V120A9.83,9.83,0,0,0,205.76,110.18Z"/><path class="cls-1" d="M261.28,0a9.83,9.83,0,0,0-9.84,9.83V225a9.84,9.84,0,0,0,19.68,0V9.83A9.83,9.83,0,0,0,261.28,0Z"/><path class="cls-1" d="M90.38,0a9.83,9.83,0,0,0-9.84,9.83V225a9.84,9.84,0,0,0,19.68,0V9.83A9.83,9.83,0,0,0,90.38,0Z"/></svg>