<svg id="Calque_1" data-name="Calque 1" xmlns="http://www.w3.org/2000/svg" viewBox="0 0 350 350"><defs><style>.cls-1{fill:#fff;}</style></defs><title>Icons_Hikster_2_colors</title><path class="cls-1" d="M193.46,89A44.5,44.5,0,1,1,238,44.51,44.55,44.55,0,0,1,193.46,89Zm0-71a26.49,26.49,0,1,0,26.49,26.51A26.54,26.54,0,0,0,193.46,18Z"/><path class="cls-1" d="M227.61,350a38.52,38.52,0,0,1-36.77-26.41l-15.09-45.87-15.08,45.87A38.84,38.84,0,0,1,112,348.14,38.17,38.17,0,0,1,89.43,329a37.52,37.52,0,0,1-2.28-29.06L136.9,123.86C144,104.21,157.07,95,177.1,95a41.8,41.8,0,0,1,11.5,1.61c1,0.25,7.37,2.12,16.12,8.27L287,165.31a35.58,35.58,0,0,1,14.73,28.13c0.12,8.89-1.18,18.38-11.44,27.64-9.7,8.77-28,12.49-45.29-.09l-15.19-11.19,34.42,89.73A37.87,37.87,0,0,1,262.09,329,38.83,38.83,0,0,1,227.61,350ZM175.76,239.9a9,9,0,0,1,8.56,6.19L208,318c3.41,10.4,15.34,16.47,26,13a20.38,20.38,0,0,0,12.1-10.21,19.73,19.73,0,0,0,1.21-15.23L202,187.52A9,9,0,0,1,215.73,177l39.91,29.4c10.48,7.64,19.38,4.18,22.58,1.25,5.24-4.73,5.57-8.44,5.5-14a17.7,17.7,0,0,0-7.43-13.9l-82.09-60.33c-6.15-4.32-10.34-5.52-10.38-5.53a24.38,24.38,0,0,0-6.73-1c-10.28,0-18.14,2.79-23.06,16.42L104.36,305.2a19.9,19.9,0,0,0,1.1,15.59A20.31,20.31,0,0,0,117.53,331c10.63,3.42,22.62-2.62,26-13L167.2,246.1A9,9,0,0,1,175.76,239.9Z"/><path class="cls-1" d="M91.77,165a33.94,33.94,0,0,1-32.6-43.46l9.36-32.07A33.74,33.74,0,0,1,84.8,69.2,34.24,34.24,0,0,1,100.57,65a2.4,2.4,0,0,0,.53,0,34.16,34.16,0,0,1,9.52,1.36,34,34,0,0,1,23.09,42.1l-9.36,32.08A33.82,33.82,0,0,1,92.3,165H91.77Zm9.11-82A16.06,16.06,0,0,0,85.81,94.48l-9.36,32.07a16,16,0,0,0,10.83,19.77,16,16,0,0,0,19.77-10.84l9.36-32.07a16,16,0,0,0-10.84-19.77A18.54,18.54,0,0,0,100.88,83Z"/></svg>