<svg id="Calque_1" data-name="Calque 1" xmlns="http://www.w3.org/2000/svg" viewBox="0 0 350 350"><defs><style>.cls-1{fill:#fff;}</style></defs><title>Icons_Hikster_2_colors</title><path class="cls-1" d="M173.35,155.41A49.36,49.36,0,1,0,124,106,49.42,49.42,0,0,0,173.35,155.41Zm0-80A30.62,30.62,0,1,1,142.73,106,30.65,30.65,0,0,1,173.35,75.43Z"/><path class="cls-1" d="M69.9,114.73A45.86,45.86,0,1,0,24,68.87,45.91,45.91,0,0,0,69.9,114.73Zm0-73A27.11,27.11,0,1,1,42.79,68.87,27.15,27.15,0,0,1,69.9,41.75Z"/><path class="cls-1" d="M275.85,114.73A45.86,45.86,0,1,0,230,68.87,45.91,45.91,0,0,0,275.85,114.73Zm0-73a27.11,27.11,0,1,1-27.11,27.11A27.15,27.15,0,0,1,275.85,41.75Z"/><path class="cls-1" d="M283.48,126.95q-2.49-.16-5-0.17c-32.52,0-59.18,24.69-70,49.92a83.58,83.58,0,0,0-69.16-2.64c-12.5-27.33-41.29-47.28-69.4-47.28-1.76,0-3.51.06-5.22,0.18C28.4,129.53,0,161,0,198.51v27.58a9.37,9.37,0,0,0,18.75,0V198.51c0-27.76,20.76-51,47.27-52.85q1.92-.14,3.88-0.14c23.49,0,44.66,18.61,52.9,37.6a83.77,83.77,0,0,0-35.64,68.53v65.17a9.37,9.37,0,1,0,18.75,0V251.66a65.08,65.08,0,0,1,130.17,0v66a9.37,9.37,0,0,0,18.75,0v-66a83.69,83.69,0,0,0-30.34-64.5c7.44-20.74,29.23-41.63,54-41.63,1.27,0,2.51,0,3.75.13,27.49,1.86,49,25.84,49,54.59v25.84a9.37,9.37,0,0,0,18.75,0V200.25C350,161.67,320.79,129.47,283.48,126.95Z"/></svg>