<svg id="Calque_1" data-name="Calque 1" xmlns="http://www.w3.org/2000/svg" viewBox="0 0 350 350"><defs><style>.cls-1{fill:#fff;}</style></defs><title>Icons_Hikster_2_colors</title><path class="cls-1" d="M175,152.76A22.24,22.24,0,1,1,152.83,175,22.23,22.23,0,0,1,175,152.76m0-20.44A42.68,42.68,0,1,0,217.55,175,42.61,42.61,0,0,0,175,132.32h0Z"/><path class="cls-1" d="M42.55,152.76A22.24,22.24,0,1,1,20.38,175a22.23,22.23,0,0,1,22.17-22.24m0-20.44A42.68,42.68,0,1,0,85.1,175a42.61,42.61,0,0,0-42.55-42.68h0Z"/><path class="cls-1" d="M307.45,152.76A22.24,22.24,0,1,1,285.28,175a22.23,22.23,0,0,1,22.17-22.24m0-20.44A42.68,42.68,0,1,0,350,175a42.61,42.61,0,0,0-42.55-42.68h0Z"/></svg>