<svg id="Calque_1" data-name="Calque 1" xmlns="http://www.w3.org/2000/svg" viewBox="0 0 350 350"><defs><style>.cls-1{fill:#6d6e71;}.cls-2{fill:#fff;}</style></defs><title>Icons_Hikster_2_colors</title><path class="cls-1" d="M275.63,317.63H76.25a8,8,0,0,1,0-16H275.63A8,8,0,0,1,275.63,317.63Z"/><rect class="cls-2" x="151.89" y="82.41" width="48.63" height="21.82" rx="0.97" ry="0.97"/><path class="cls-2" d="M294.5,167.58H284V120.25a55.47,55.47,0,0,0-49-81.5H215.43a41.42,41.42,0,0,0-82.67,0H117.48a55.47,55.47,0,0,0-50.27,79v49.18H56.79a24.54,24.54,0,0,0-24.51,24.52v81.41A32.25,32.25,0,0,0,64.5,305.06h3.11c0.17,1.39.39,2.76,0.67,4.11,0,0.15,0,.3,0,0.46a8,8,0,0,0,1.24,4.27,51.35,51.35,0,0,0,49,36.1H238.23a45.83,45.83,0,0,0,45.17-38.49,8,8,0,0,0,.21-1.56q0.26-2.09.33-4.23h1.17a32.25,32.25,0,0,0,32.21-32.21v-83.1A22.86,22.86,0,0,0,294.5,167.58Zm0,16a6.84,6.84,0,0,1,6.84,6.84v10.21H284v-17H294.5ZM144.33,301.64V250.69a26.38,26.38,0,0,0,0-50.28V149.75H207v50.49a26.38,26.38,0,0,0,0,50.28v51.12H144.33Zm-61,0c-0.08-1-.13-1.91-0.13-2.89V137.85a55.2,55.2,0,0,0,34.27,11.9h10.86v50.66a26.38,26.38,0,0,0,0,50.28v50.95h-45Zm53-65.7a10.39,10.39,0,0,1-2.3-20.52,8,8,0,0,0,4.61,0A10.39,10.39,0,0,1,136.33,235.94Zm78.61-.18a10.39,10.39,0,0,1-2.6-20.44,7.89,7.89,0,0,0,5.2,0A10.38,10.38,0,0,1,214.95,235.77Zm8,14.75a26.38,26.38,0,0,0,0-50.28V149.75h12a55.18,55.18,0,0,0,33-10.92V301.64h-45V250.52ZM174.1,16a25.47,25.47,0,0,1,25.3,22.77H148.8A25.47,25.47,0,0,1,174.1,16ZM117.48,54.75H235a39.51,39.51,0,0,1,0,79H117.48A39.54,39.54,0,0,1,82.7,113a8,8,0,0,0-.87-1.7A39.5,39.5,0,0,1,117.48,54.75ZM56.79,182.91H67.21v17.71H48.28v-9.19A8.53,8.53,0,0,1,56.79,182.91Zm-8.51,89.94V216.61H67.21v72.46H64.5A16.24,16.24,0,0,1,48.28,272.85Zm190,61.16H118.46a35.25,35.25,0,0,1-29.75-16.38H264.8A29.78,29.78,0,0,1,238.23,334Zm46.88-44.27H284V216.61h17.36v56.9A16.24,16.24,0,0,1,285.11,289.73Z"/></svg>