<svg id="Calque_1" data-name="Calque 1" xmlns="http://www.w3.org/2000/svg" viewBox="0 0 350 350"><defs><style>.cls-1{fill:#fff;}</style></defs><title>Icons_Hikster_2_colors</title><path class="cls-1" d="M303.82,81H274.06V35.72a32.05,32.05,0,0,0-32-32H108.42a32.05,32.05,0,0,0-32,32V81H46.62A46.41,46.41,0,0,0,.23,127.3V299.95a46.41,46.41,0,0,0,46.39,46.33h257.2a46.42,46.42,0,0,0,46.41-46.33V127.3A46.42,46.42,0,0,0,303.82,81ZM96.49,35.72a12,12,0,0,1,11.94-11.93H242A12,12,0,0,1,254,35.72V81H96.49V35.72ZM330.12,299.95a26.31,26.31,0,0,1-26.3,26.26H46.62a26.3,26.3,0,0,1-26.28-26.26V127.3A26.3,26.3,0,0,1,46.62,101h257.2a26.31,26.31,0,0,1,26.3,26.26V299.95Z"/><path class="cls-1" d="M175.23,132.79a80.83,80.83,0,1,0,80.94,80.83A81,81,0,0,0,175.23,132.79Zm0,141.6a60.77,60.77,0,1,1,60.84-60.77A60.88,60.88,0,0,1,175.23,274.39Z"/><path class="cls-1" d="M202.29,202.35h-17v-17a10.05,10.05,0,0,0-20.11,0v17h-17a10,10,0,1,0,0,20.07h17v17a10.05,10.05,0,0,0,20.11,0v-17h17A10,10,0,1,0,202.29,202.35Z"/></svg>