<svg id="Calque_1" data-name="Calque 1" xmlns="http://www.w3.org/2000/svg" viewBox="0 0 350 350"><defs><style>.cls-1{fill:#fff;}</style></defs><title>Icons_Hikster_2_colors</title><path class="cls-1" d="M337.29,162.93h-83c-9.2-25-18.23-49.46-25.21-68.25-2.65-7.12-4.85-13-6.72-18H283a12.3,12.3,0,0,0,0-24.6H69.51a12.3,12.3,0,0,0,0,24.6h59.85c-1.88,4.94-4.08,10.86-6.72,18-7,18.78-16,43.25-25.21,68.25H12.71a12.3,12.3,0,1,0,0,24.6H88.38C70.31,236.73,54,281.38,54,281.38a12.3,12.3,0,1,0,23.1,8.45c11.32-30.93,24.81-67.72,37.52-102.3H237.1c12.71,34.58,26.2,71.37,37.51,102.3a12.3,12.3,0,0,0,23.1-8.45s-16.33-44.66-34.41-93.85h74A12.3,12.3,0,1,0,337.29,162.93Zm-213.64,0c14.35-39,26.64-72.15,32-86.23h40.42c5.36,14.09,17.64,47.26,32,86.23H123.65Z"/></svg>