<svg id="Calque_1" data-name="Calque 1" xmlns="http://www.w3.org/2000/svg" viewBox="0 0 350 350"><defs><style>.cls-1{fill:#fff;}</style></defs><title>Icons_Hikster_2_colors</title><path class="cls-1" d="M317.88,118.68a31.91,31.91,0,0,0-15.39,3.94v-5.49A32.22,32.22,0,0,0,292,93.41l-0.11-.09a32.08,32.08,0,0,0-53.63,23.8v31.8H111.74V114a29.06,29.06,0,0,0-29-29H76.53a29.06,29.06,0,0,0-29,29v7.39a28.84,28.84,0,0,0-12.29-2.74H29a29.06,29.06,0,0,0-29,29v56.36a29.06,29.06,0,0,0,29,29h6.19a28.84,28.84,0,0,0,12.29-2.74v5.38a29.06,29.06,0,0,0,29,29h6.19a29.06,29.06,0,0,0,29-29V205.25H238.26v27.39a32.15,32.15,0,0,0,32.11,32.13,31.78,31.78,0,0,0,19.42-6.58l0.13-.08a32,32,0,0,0,12.57-25.47v-3.47A32.11,32.11,0,0,0,350,201V150.81A32.16,32.16,0,0,0,317.88,118.68ZM35.21,216.36H29a12.3,12.3,0,0,1-12.29-12.29V147.71A12.3,12.3,0,0,1,29,135.42h6.19a12.3,12.3,0,0,1,12.29,12.29v56.36A12.3,12.3,0,0,1,35.21,216.36ZM95,235.74A12.31,12.31,0,0,1,82.72,248H76.53a12.31,12.31,0,0,1-12.29-12.29V114a12.31,12.31,0,0,1,12.29-12.29h6.19A12.31,12.31,0,0,1,95,114v121.7Zm16.73-47.23V165.66H238.26v22.85H111.74ZM255,232.64V117.12a15.36,15.36,0,0,1,25.69-11.38l0,0a15.43,15.43,0,0,1,5.06,11.36V232.64a15.32,15.32,0,0,1-6.06,12.21l-0.05,0a15.22,15.22,0,0,1-9.28,3.14A15.4,15.4,0,0,1,255,232.64ZM333.27,201a15.39,15.39,0,1,1-30.78,0V150.81a15.39,15.39,0,1,1,30.78,0V201Z"/></svg>