<svg id="Calque_1" data-name="Calque 1" xmlns="http://www.w3.org/2000/svg" viewBox="0 0 350 350"><defs><style>.cls-1{fill:#fff;}</style></defs><title>Icons_Hikster_2_colors</title><path class="cls-1" d="M138.23,72.86a36.43,36.43,0,1,0-36.44-36.44A36.47,36.47,0,0,0,138.23,72.86Zm0-54.23a17.8,17.8,0,1,1-17.8,17.79A17.81,17.81,0,0,1,138.23,18.64Z"/><path class="cls-1" d="M315.26,281H274.64L248.54,215.1a9.32,9.32,0,0,0-8.66-5.89H147.55V100a9.32,9.32,0,0,0-18.64,0v26.48a9.44,9.44,0,0,0-5.36-.91c-55.93,7.21-98.12,55.25-98.12,111.74a112.67,112.67,0,0,0,222.25,26.18l12,30.24a9.32,9.32,0,0,0,8.66,5.89h46.95A9.32,9.32,0,0,0,315.26,281Zm-83.14-43.68a94,94,0,1,1-106.18-93.26,9.31,9.31,0,0,0,3-.92v75.36a9.32,9.32,0,0,0,9.32,9.32h95.32l1.19,3A9.28,9.28,0,0,0,232.11,237.34Z"/></svg>