<svg id="Calque_1" data-name="Calque 1" xmlns="http://www.w3.org/2000/svg" viewBox="0 0 350 350"><defs><style>.cls-1{fill:#fff;}</style></defs><title>Icons_Hikster_2_colors</title><path class="cls-1" d="M163,338.73H25.58c-13.53,0-25-12.41-25-27.09a7.27,7.27,0,0,1,0-.73L0.57,307C-0.84,273.47-.81,210,15,159.59a8.13,8.13,0,0,1,.3-1.24c5.28-18.7,35.41-113,111.27-139.61a64.37,64.37,0,0,1,28.15-6.47,8.86,8.86,0,0,1,8.87,8.86V68.75c29,2.53,52,12.05,68.57,28.36l1.12,1c0.12,0.11,1,1,1.11,1.07a21.94,21.94,0,0,1,2.22,2.13l0.2,0.23A109.58,109.58,0,0,1,258,133.81h67.89a24.09,24.09,0,0,1,24.08,24v14.69a84.82,84.82,0,0,1-84.78,84.68l-38.15,1.9h0A37.21,37.21,0,0,0,201,270.36a35.91,35.91,0,0,0-11,25.39s0.15,16.28,0,19.35C189.55,323.07,181,338.73,163,338.73ZM18.39,312.33c0.34,4.41,3.8,8.68,7.19,8.68H163c7.55,0,9.27-7.19,9.29-7.27,0.11-2.49-.06-17.89-0.06-17.91a53.51,53.51,0,0,1,16.2-38c10.46-10.43,24.36-16.41,38.16-16.41h0.06l38.13-1.9c37.41,0,67.48-30,67.48-67V157.86a6.35,6.35,0,0,0-6.34-6.33H252a8.89,8.89,0,0,1-8.61-6.7c-5.13-12.68-11.82-23.27-19.87-31.37-0.17-.18-0.34-0.36-0.5-0.55a21.06,21.06,0,0,1-1.67-1.56L220,110.07c-15.27-15-37.26-23-65.7-24.16a8.86,8.86,0,0,1-8.52-8.85V30.86a51.5,51.5,0,0,0-12.47,4.21C65.23,59,36.83,147.71,32.63,162.1a8.67,8.67,0,0,1-.34,1.5c-15.37,48-15.36,110-14,142.66l0.11,5.07A9.19,9.19,0,0,1,18.39,312.33Z"/><ellipse class="cls-1" cx="194.81" cy="141.31" rx="12.89" ry="12.88"/></svg>