<svg id="Calque_1" data-name="Calque 1" xmlns="http://www.w3.org/2000/svg" viewBox="0 0 350 350"><defs><style>.cls-1{fill:#fff;}</style></defs><title>Icons_Hikster_2_colors</title><path class="cls-1" d="M205,2.59C110-13.89,19.16,50,2.62,145A175,175,0,0,0,145,347.37,177,177,0,0,0,175.39,350a175.06,175.06,0,0,0,172-145C363.92,109.89,300,19.11,205,2.59ZM147.16,335.17c-88.33-15.35-147.7-99.71-132.34-188A162.34,162.34,0,0,1,94.4,33.86L231.33,327.58A161.35,161.35,0,0,1,147.16,335.17Zm188-132.35a161.51,161.51,0,0,1-66.61,105.12,164.61,164.61,0,0,1-25.81,14.87L105.38,28.12a161.75,161.75,0,0,1,97.48-13.33C291.18,30.14,350.55,114.5,335.19,202.83Z"/><path class="cls-1" d="M261.31,143.37a52,52,0,0,0-15.17,2.49L228.5,104.17h14.25c2,0,3,1.13,3,3.34a5.5,5.5,0,0,0,5.51,5.24,5.37,5.37,0,0,0,5.24-5.51c-0.26-10.31-7.64-13.82-13.94-13.82H220.39a5.38,5.38,0,0,0-5,7.47l7,16.66H145.29L139,104.26h12a5.38,5.38,0,0,0,0-10.75H110.44a5.38,5.38,0,0,0,0,10.75h16.64L136,123l-20.58,27.86a52.18,52.18,0,0,0-26.71-7.52,52.74,52.74,0,1,0,52.19,58.11h9.67a24.36,24.36,0,1,0,43.74-19.28l34.92-48.71,7,16.52A52.32,52.32,0,1,0,261.31,143.37ZM88.71,238.1a42,42,0,1,1,0-84A41.45,41.45,0,0,1,109,159.58L93.55,180.5c-0.37-.11-0.71-0.29-1.09-0.37a16.42,16.42,0,1,0-7.51,32,16,16,0,0,0,3.76.44,16.32,16.32,0,0,0,15.29-11h26.15A41.91,41.91,0,0,1,88.71,238.1Zm5.4-42a5.67,5.67,0,1,1-5.67-5.67A5.68,5.68,0,0,1,94.11,196.11Zm10.08-5.38a16.5,16.5,0,0,0-1.53-3.27c-0.13-.21-0.31-0.38-0.45-0.59l15.5-21a41.77,41.77,0,0,1,12.44,24.85h-26Zm46.38,0H140.9a52.35,52.35,0,0,0-16.82-33.47L141.23,134,161,175.71A24.39,24.39,0,0,0,150.57,190.73Zm23.75,18.36a13,13,0,1,1,13-13A13,13,0,0,1,174.31,209.1Zm12-34.12a24.08,24.08,0,0,0-11.95-3.26,24.42,24.42,0,0,0-3.14.31L150.4,128.31h69.31Zm75,63.12a41.85,41.85,0,0,1-20.91-78.18l10,23.69a16.38,16.38,0,0,0,6.82,28.48,16,16,0,0,0,3.79.45,16.43,16.43,0,0,0,3.72-32.41,15.85,15.85,0,0,0-4.28-.38l-10.15-24a41.37,41.37,0,0,1,11-1.64A42,42,0,0,1,261.31,238.1Zm-6-42a5.67,5.67,0,1,1,5.67,5.67A5.67,5.67,0,0,1,255.32,196.11Z"/></svg>