<svg id="Calque_1" data-name="Calque 1" xmlns="http://www.w3.org/2000/svg" viewBox="0 0 350 350"><defs><style>.cls-1{fill:#fff;}</style></defs><title>Icons_Hikster_2_colors</title><ellipse class="cls-1" cx="100.73" cy="70.26" rx="12.3" ry="12.31"/><ellipse class="cls-1" cx="150.4" cy="70.26" rx="12.3" ry="12.31"/><ellipse class="cls-1" cx="194" cy="69.76" rx="12.3" ry="12.31"/><ellipse class="cls-1" cx="243.67" cy="69.76" rx="12.3" ry="12.31"/><path class="cls-1" d="M278.45,10.53H254.14a8.7,8.7,0,0,0-8.4-11H199.6a8.7,8.7,0,0,0-8.4,11H158.8a8.7,8.7,0,0,0-8.4-11H104.26a8.7,8.7,0,0,0-8.4,11H71.56A29.69,29.69,0,0,0,41.91,40.18V319.85A29.69,29.69,0,0,0,71.56,349.5H278.45a29.68,29.68,0,0,0,29.64-29.65V40.18A29.68,29.68,0,0,0,278.45,10.53Zm12.2,309.32a12.22,12.22,0,0,1-12.2,12.21H71.56a12.22,12.22,0,0,1-12.21-12.21V127.72H290.65V319.85Zm0-209.57H59.35V40.18A12.22,12.22,0,0,1,71.56,28H278.45a12.22,12.22,0,0,1,12.2,12.21v70.09Z"/><path class="cls-1" d="M76.75,200h6.81v84.91a24.42,24.42,0,0,0,24.39,24.4h136.2a24.42,24.42,0,0,0,24.38-24.4V200H275a8.72,8.72,0,0,0,0-17.45h-6.52v-8.6a24.42,24.42,0,0,0-24.38-24.4H107.95a24.42,24.42,0,0,0-24.39,24.4v8.6H76.75A8.72,8.72,0,0,0,76.75,200Zm174.34,84.91a7,7,0,0,1-6.94,7H107.95a7,7,0,0,1-7-7V200H251.08v84.91ZM101,173.91a7,7,0,0,1,7-7h136.2a7,7,0,0,1,6.94,7v8.6H101v-8.6Z"/></svg>