<svg id="Calque_1" data-name="Calque 1" xmlns="http://www.w3.org/2000/svg" viewBox="0 0 350 350"><defs><style>.cls-1{fill:#fff;}</style></defs><title>Icons_Hikster_2_colors_V2</title><path class="cls-1" d="M230.77,215.45l89.49-.24a10.5,10.5,0,1,0,0-21h0l-114.61.3a10.55,10.55,0,0,0-2.23.22l-0.07,0c-0.31.07-.62,0.14-0.92,0.24l-0.12,0c-0.28.09-.57,0.19-0.84,0.31l-0.12.06c-0.27.12-.53,0.24-0.79,0.38l-0.16.09c-0.24.13-.47,0.27-0.7,0.43l-0.33.25c-0.16.11-.31,0.22-0.47,0.35a10.58,10.58,0,0,0-2.11,2.33l0,0.07c-0.17.27-.34,0.54-0.49,0.82l0,0.08c-0.15.28-.28,0.56-0.4,0.86v0a10.4,10.4,0,0,0-.77,3.88l-0.61,115.92a10.51,10.51,0,0,0,10.47,10.56h0.06A10.52,10.52,0,0,0,215.4,321l0.47-90.72L332.54,346.94a10.51,10.51,0,0,0,14.91-14.81Z"/><path class="cls-1" d="M332.52,3.59L215.87,120.82,215.4,30.18c0-5.79-4.22-10.89-10.59-10.44A10.51,10.51,0,0,0,194.34,30.3l0.61,115.92a10.43,10.43,0,0,0,.43,2.87l0,0.11c0.08,0.26.17,0.51,0.27,0.76l0.08,0.21c0.09,0.23.2,0.45,0.31,0.66l0.13,0.27c0.12,0.22.25,0.43,0.38,0.64l0.15,0.24a10.59,10.59,0,0,0,2.1,2.3c0.14,0.12.29,0.22,0.43,0.32l0.37,0.27c0.2,0.13.4,0.25,0.61,0.37l0.26,0.15c0.21,0.11.43,0.21,0.64,0.31l0.28,0.13c0.2,0.09.41,0.16,0.62,0.23l0.35,0.12,0.59,0.15,0.42,0.1,0.59,0.09,0.43,0.06c0.26,0,.51,0,0.77,0h0.25l114.75,0.29h0a10.5,10.5,0,1,0,0-21l-89.57-.22L347.46,18.37A10.51,10.51,0,0,0,332.52,3.59Z"/><path class="cls-1" d="M146.54,19.74h-0.06A10.52,10.52,0,0,0,136,30.18l-0.47,90.7L18.5,3.72A10.51,10.51,0,1,0,3.59,18.53l117,117.2-89.51.22a10.5,10.5,0,1,0,0,21h0l114.75-.29h0.28c0.24,0,.49,0,0.73,0l0.58-.08,0.42-.07c0.23,0,.45-0.11.68-0.17l0.3-.08c0.24-.07.48-0.16,0.72-0.25l0.24-.09c0.25-.1.5-0.22,0.75-0.35l0.18-.09c0.27-.14.54-0.3,0.8-0.47l0.08-.05a10.59,10.59,0,0,0,3-3l0.06-.1c0.17-.26.33-0.52,0.47-0.79l0.06-.12c0.14-.27.27-0.54,0.38-0.81l0-.08c0.12-.29.22-0.58,0.31-0.89v0a10.42,10.42,0,0,0,.44-2.93L157,30.3A10.51,10.51,0,0,0,146.54,19.74Z"/><path class="cls-1" d="M155.63,201.08l0-.05c-0.12-.29-0.25-0.57-0.4-0.85l0-.09q-0.23-.43-0.5-0.84l0,0a10.59,10.59,0,0,0-2.15-2.35l0,0q-0.38-.31-0.79-0.58l-0.09-.06c-0.26-.17-0.53-0.33-0.81-0.47h0a10.47,10.47,0,0,0-4.82-1.19l-114.75-.3h0a10.5,10.5,0,1,0,0,21l89.56,0.24L4,332.59A10.51,10.51,0,0,0,19,347.37l116.52-117L136,321a10.52,10.52,0,0,0,10.53,10.44h0.06A10.51,10.51,0,0,0,157,320.87L156.4,205A10.4,10.4,0,0,0,155.63,201.08Z"/></svg>