<svg id="Calque_1" data-name="Calque 1" xmlns="http://www.w3.org/2000/svg" viewBox="0 0 350 350"><defs><style>.cls-1{fill:#fff;}</style></defs><title>Icons_Hikster_2_colors</title><path class="cls-1" d="M175,350a12.63,12.63,0,0,1-6.36-1.72c-4.52-2.64-111.25-65.77-151.09-168.42C-23.78,73.33,19,34.64,33,21.94,44.58,11.48,66.48.3,93.2,0.3c22.33,0,53.54,8,81.79,43.59C203.27,8,234.35,0,256.56,0,283.22,0,305.25,11.33,317,21.94c14,12.72,56.77,51.4,15.45,157.91C292.6,282.51,185.89,345.64,181.37,348.28A12.63,12.63,0,0,1,175,350ZM93.2,25.52c-18.33,0-34.93,7.59-43.25,15.11C37.93,51.51,6,80.38,41.09,170.75,72.44,251.53,151.93,307.58,175,322.52c23.06-15,102.63-71.16,133.91-151.76C344,80.4,312.08,51.51,300.07,40.63c-8.48-7.68-25.23-15.41-43.51-15.41-26.81,0-51.33,16.31-70.9,47.2A12.65,12.65,0,0,1,175,78.3h0a12.59,12.59,0,0,1-10.63-5.85C144.84,41.75,120.24,25.52,93.2,25.52Z"/></svg>