<svg id="Calque_1" data-name="Calque 1" xmlns="http://www.w3.org/2000/svg" viewBox="0 0 350 350"><defs><style>.cls-1{fill:#fff;}</style></defs><title>Icons_Hikster_2_colors</title><path class="cls-1" d="M174.74,182.81A25.24,25.24,0,1,1,200,157.58,25.27,25.27,0,0,1,174.74,182.81Zm0-35a9.74,9.74,0,1,0,9.73,9.74A9.74,9.74,0,0,0,174.74,147.84Z"/><path class="cls-1" d="M111.55,182.81a25.24,25.24,0,1,1,25.23-25.23A25.27,25.27,0,0,1,111.55,182.81Zm0-35a9.74,9.74,0,1,0,9.72,9.74A9.74,9.74,0,0,0,111.55,147.84Z"/><path class="cls-1" d="M237.95,182.81a25.24,25.24,0,1,1,25.24-25.23A25.27,25.27,0,0,1,237.95,182.81Zm0-35a9.74,9.74,0,1,0,9.73,9.74A9.74,9.74,0,0,0,237.95,147.84Z"/><path class="cls-1" d="M174.74,240.27A25.24,25.24,0,1,1,200,215,25.27,25.27,0,0,1,174.74,240.27Zm0-35a9.74,9.74,0,1,0,9.73,9.74A9.74,9.74,0,0,0,174.74,205.29Z"/><path class="cls-1" d="M111.55,240.27A25.24,25.24,0,1,1,136.79,215,25.27,25.27,0,0,1,111.55,240.27Zm0-35a9.74,9.74,0,1,0,9.72,9.74A9.74,9.74,0,0,0,111.55,205.29Z"/><path class="cls-1" d="M237.95,240.27A25.24,25.24,0,1,1,263.19,215,25.27,25.27,0,0,1,237.95,240.27Zm0-35a9.74,9.74,0,1,0,9.73,9.74A9.74,9.74,0,0,0,237.95,205.29Z"/><path class="cls-1" d="M174.74,125.35A25.24,25.24,0,1,1,200,100.12,25.27,25.27,0,0,1,174.74,125.35Zm0-35a9.74,9.74,0,1,0,9.73,9.74A9.74,9.74,0,0,0,174.74,90.38Z"/><path class="cls-1" d="M111.55,125.35a25.24,25.24,0,1,1,25.23-25.23A25.27,25.27,0,0,1,111.55,125.35Zm0-35a9.74,9.74,0,1,0,9.72,9.74A9.74,9.74,0,0,0,111.55,90.38Z"/><path class="cls-1" d="M237.95,125.35a25.24,25.24,0,1,1,25.24-25.23A25.27,25.27,0,0,1,237.95,125.35Zm0-35a9.74,9.74,0,1,0,9.73,9.74A9.74,9.74,0,0,0,237.95,90.38Z"/><path class="cls-1" d="M276,0H74a20.91,20.91,0,0,0-21,20.74V342.25A7.75,7.75,0,0,0,60.7,350H153a7.75,7.75,0,0,0,7.76-7.75V310.79a14,14,0,1,1,28,0v31.46a7.75,7.75,0,0,0,7.76,7.75h92.8a7.75,7.75,0,0,0,7.76-7.75V20.74A20.91,20.91,0,0,0,276,0ZM68.45,59.51a7.82,7.82,0,0,0,.9.06H280a7.8,7.8,0,0,0,1.53-.15V253.89H69.65a7.79,7.79,0,0,0-1.2.1V59.51ZM74,15.5H276a5.45,5.45,0,0,1,5.51,5.24V44.22a7.8,7.8,0,0,0-1.53-.15H69.35a7.82,7.82,0,0,0-.9.06V20.74A5.39,5.39,0,0,1,74,15.5Zm130.28,319V310.79a29.51,29.51,0,0,0-59,0V334.5H68.45V269.29a7.79,7.79,0,0,0,1.2.1h211.9v65.1H204.26Z"/></svg>