<svg id="Calque_1" data-name="Calque 1" xmlns="http://www.w3.org/2000/svg" viewBox="0 0 350 350"><defs><style>.cls-1{fill:#fff;}</style></defs><title>Icons_Hikster_2_colors</title><path class="cls-1" d="M323,269.13a49.77,49.77,0,0,0,13.54-34c0-25.44-19-46.69-43.18-49.28-0.22,0-21.07-4.59-39.94-14.47-14.1-9.43-22.43-1.21-23.32-.25A9.62,9.62,0,0,0,228.2,174l-6.65,15.43a9.79,9.79,0,0,0-.52,1.51,7.17,7.17,0,1,1-12.48-6.34,10,10,0,0,0,1.14-1.71c10.24-19.64,10.24-22,10.24-24.3,0-9.9-17-20.7-20.87-23-6.25-4.89-11.62-5-15.06-4.12a14.75,14.75,0,0,0-9.11,6.84l-12.42,15.48c-4.2,4-12.16.7-12.16-5.15A7,7,0,0,1,152,144l0,0L173.5,121a19.72,19.72,0,0,0,8.5-16.16c0-11.6-10.84-19.41-21-19.41a10,10,0,0,0-1.56.12c-11.85,1.89-21.9,3.4-24.84,3.84A7.19,7.19,0,0,1,128,82.24c0-3.95,3.21-7.15,8.13-7.21l11.19-1.08A23.94,23.94,0,0,0,170.73,50c0-.17,0-0.33,0-0.49s0-.2,0-0.3,0-.47-0.08-0.7,0-.18,0-0.26c0-.25-0.1-0.49-0.16-0.73l-0.05-.21c-0.07-.26-0.16-0.51-0.25-0.76L170,46.41c-0.1-.25-0.21-0.49-0.32-0.73l-0.06-.14-0.09-.17,0-.08-7-13.57C149.29,11.56,127.32,0,102.3,0,63,0,32.47,30.17,28,73.36c0,0.22,0,.45,0,0.69-0.3,2.81-3.18,23-22.39,144-2.63,16.53.89,32.6,9.95,45.26,8.35,11.65,21.4,19.63,38,23.41v43.43H14.63a9.95,9.95,0,1,0,0,19.89H301.82a43.54,43.54,0,0,0,43.51-43.48C345.33,290.93,336.48,276.83,323,269.13ZM192.38,147.62l-0.16.38Zm19,182.49H73.4V288.49c6.27-.53,12.16-2.13,19.32-4.11,6.81-1.88,15.28-4.22,27.23-6.49,16.65-3.15,31.15.47,51.18,5.51,11.66,2.92,24.66,6.18,40.27,8.6v38.12Zm11.08-56.63-0.15,0c-18.3-2.3-33.21-6-46.36-9.35-20.81-5.23-38.79-9.75-59.76-5.75-12.74,2.44-21.65,4.89-28.8,6.88-10.21,2.81-15.35,4.25-22.68,3.27-15.42-2-26.56-7.67-33.11-16.81-5.89-8.25-8.26-19.38-6.47-30.56,18.38-115.77,22-139.68,22.5-145.72h0.07c3.41-32.69,25.86-55.52,54.56-55.52,18.48,0,34,8.08,43.08,21.8l5.09,10a4,4,0,0,1-3.55,2.36c-0.23,0-.47,0-0.71,0l-0.58,0-10.42,1a27,27,0,1,0,0,54.1,10.35,10.35,0,0,0,1.45-.11s10.81-1.59,24.35-3.74a9.52,9.52,0,0,0-1.16,1.05l-22.61,24.17a9.94,9.94,0,0,0-1,1.21,27,27,0,0,0,40.55,35.67,10,10,0,0,0,.76-0.88l11.27-14a73.93,73.93,0,0,1,9.88,7.53c-1.56,3.41-4,8.37-6.28,12.73a27.06,27.06,0,1,0,47.63,23.75l3.47-8.05a195,195,0,0,0,46.63,16.85,29.71,29.71,0,0,1,26.45,29.67c0,9.56-4.65,18.6-11.35,23.52-0.4.21-38.67,20.36-82.71,14.86h-0.1Zm79.34,56.63H231.3v-36c2.31,0.11,4.61.18,6.88,0.18a175.52,175.52,0,0,0,58.16-10.45,9.43,9.43,0,0,0,1.65-.16,19.42,19.42,0,0,1,7.17-.3c11.56,2.32,20.28,12.25,20.28,23.1A23.62,23.62,0,0,1,301.82,330.11Z"/></svg>