<svg id="Calque_1" data-name="Calque 1" xmlns="http://www.w3.org/2000/svg" viewBox="0 0 350 350"><defs><style>.cls-1{fill:#6d6e71;}</style></defs><title>Icons_Hikster_2_colors</title><path class="cls-1" d="M82.75,350a25.11,25.11,0,0,1-15.32-5.21,26.81,26.81,0,0,1-9.19-29.28l29.63-95.45L10.43,161.2a26.86,26.86,0,0,1-9.21-29.3,25.75,25.75,0,0,1,24.52-18.4H121L150.48,18.4a25.53,25.53,0,0,1,49,0L229,113.49h95.22a25.72,25.72,0,0,1,24.51,18.4,26.85,26.85,0,0,1-9.19,29.28l-77.46,58.87,29.63,95.47a26.81,26.81,0,0,1-9.21,29.28,26.11,26.11,0,0,1-30.62,0L175,286.32,98.07,344.81A25.17,25.17,0,0,1,82.75,350Zm-57-215.5a4.78,4.78,0,0,0-4.46,3.63,5.79,5.79,0,0,0,1.87,6.35l83.29,63.3a10.51,10.51,0,0,1,3.67,11.47L78.3,321.73a5.79,5.79,0,0,0,1.85,6.35,4.2,4.2,0,0,0,5.2,0l83.3-63.33a10.57,10.57,0,0,1,12.72,0l83.3,63.32a3.82,3.82,0,0,0,5.2,0,5.84,5.84,0,0,0,1.85-6.34L239.89,219.26a10.5,10.5,0,0,1,3.68-11.47l83.3-63.32a5.8,5.8,0,0,0,1.85-6.35,4.78,4.78,0,0,0-4.45-3.62h-103a10.5,10.5,0,0,1-10-7.39L179.46,24.63a4.66,4.66,0,0,0-8.92,0L138.73,127.11a10.5,10.5,0,0,1-10,7.39h-103Z"/></svg>