<svg id="Calque_1" data-name="Calque 1" xmlns="http://www.w3.org/2000/svg" viewBox="0 0 350 350"><defs><style>.cls-1{fill:#8ddc59;}.cls-2{fill:#6d6e71;}</style></defs><title>Icons_Hikster_2_colors</title><ellipse class="cls-1" cx="282.25" cy="67.57" rx="55.43" ry="55.29"/><path class="cls-2" d="M19.4,282.52a48.26,48.26,0,1,1,48.26,48.13A48.25,48.25,0,0,1,19.4,282.52m-19.4,0A67.66,67.66,0,1,0,67.66,215,67.57,67.57,0,0,0,0,282.52H0Z"/><path class="cls-2" d="M233.91,67.57a48.35,48.35,0,1,1,48.35,48.22,48.34,48.34,0,0,1-48.35-48.22m-19.4,0A67.75,67.75,0,1,0,282.25,0a67.66,67.66,0,0,0-67.75,67.57h0Z"/><path class="cls-2" d="M206.8,138.23a9.73,9.73,0,0,0-1.13-.66l-0.16-.08a9.67,9.67,0,0,0-1.15-.46l-0.08,0a9.67,9.67,0,0,0-1.27-.31l-0.25,0a9.84,9.84,0,0,0-1.09-.1l-0.2,0-43.72-.61a9.7,9.7,0,0,0-9.84,9.55c-0.44,5,4.22,9.73,9.57,9.81L178,155.57l-41.4,40.74a9.69,9.69,0,1,0,13.63,13.79l41.53-40.88,0.15,21.52a9.7,9.7,0,0,0,19.41-.07V190.6L211,146.16c0-.1,0-0.19,0-0.29s0-.42,0-0.62,0-.3-0.06-0.45,0-.31-0.07-0.47-0.09-.39-0.14-0.59,0-.2-0.08-0.29c-0.08-.27-0.18-0.53-0.28-0.79v0h0a9.62,9.62,0,0,0-.62-1.25l-0.06-.1a9.71,9.71,0,0,0-.72-1l-0.06-.08a9.77,9.77,0,0,0-.89-0.94l-0.16-.14a9.72,9.72,0,0,0-.95-0.75Z"/></svg>