<svg id="Calque_1" data-name="Calque 1" xmlns="http://www.w3.org/2000/svg" viewBox="0 0 350 350"><defs><style>.cls-1{fill:#6d6e71;}.cls-2{fill:#8ddc59;}</style></defs><title>Icons_Hikster_2_colors</title><path class="cls-1" d="M316.4,53.78H271.24V37.89a9.64,9.64,0,1,0-19.27,0V53.78H101.36V37.89a9.64,9.64,0,1,0-19.27,0V53.78H32.6A33.19,33.19,0,0,0-.5,87V288.58a33.18,33.18,0,0,0,33.1,33.19H316.4a33.18,33.18,0,0,0,33.1-33.19V87A33.19,33.19,0,0,0,316.4,53.78Zm13.83,234.8a13.86,13.86,0,0,1-13.83,13.87H32.6a13.86,13.86,0,0,1-13.83-13.87V87A13.87,13.87,0,0,1,32.6,73.1H82.09V89a9.64,9.64,0,1,0,19.27,0V73.1H252V89a9.64,9.64,0,1,0,19.27,0V73.1H316.4A13.87,13.87,0,0,1,330.23,87V288.58Z"/><rect class="cls-2" x="76.94" y="129.89" width="28.47" height="28.55" rx="0.38" ry="0.38"/><rect class="cls-2" x="133.88" y="129.89" width="28.47" height="28.55" rx="0.38" ry="0.38"/><rect class="cls-2" x="190.83" y="129.89" width="28.47" height="28.55" rx="0.38" ry="0.38"/><rect class="cls-2" x="247.78" y="129.89" width="28.47" height="28.55" rx="0.38" ry="0.38"/><rect class="cls-2" x="76.94" y="181.22" width="28.47" height="28.55" rx="0.38" ry="0.38"/><rect class="cls-2" x="133.88" y="181.22" width="28.47" height="28.55" rx="0.38" ry="0.38"/><rect class="cls-2" x="190.83" y="181.22" width="28.47" height="28.55" rx="0.38" ry="0.38"/><rect class="cls-2" x="247.78" y="181.22" width="28.47" height="28.55" rx="0.38" ry="0.38"/><rect class="cls-2" x="76.94" y="229.74" width="28.47" height="28.55" rx="0.38" ry="0.38"/><rect class="cls-2" x="133.88" y="229.74" width="28.47" height="28.55" rx="0.38" ry="0.38"/><rect class="cls-2" x="190.83" y="229.74" width="28.47" height="28.55" rx="0.38" ry="0.38"/><rect class="cls-2" x="247.78" y="229.74" width="28.47" height="28.55" rx="0.38" ry="0.38"/></svg>