<?xml version="1.0" encoding="utf-8"?>
<!-- Generator: Adobe Illustrator 19.2.1, SVG Export Plug-In . SVG Version: 6.00 Build 0)  -->
<svg version="1.1" id="Calque_1" xmlns="http://www.w3.org/2000/svg" xmlns:xlink="http://www.w3.org/1999/xlink" x="0px" y="0px"
	 viewBox="0 0 350 350" style="enable-background:new 0 0 350 350;" xml:space="preserve">
<style type="text/css">
	.st0{fill:#8DDC59;}
	.st1{fill:#6D6E71;}
</style>
<title>Icons_Hikster_2_colors</title>
<path class="st0" d="M28.5,135.8c3.2-6.8,38.1-17.2,38.1-17.2l36.3,17.2l-9.7,161.6l-32.9,42.2l-29.4-42.2L28.5,135.8z"/>
<path class="st0" d="M246.6,128.4c3.2-6.8,23.6-9.8,23.6-9.8l21.3,10.1L323,324.5l-59,15.1l-41.3-12.8L246.6,128.4z"/>
<path class="st1" d="M65.7,90.1c-23.9,0-43.2-19.3-43.2-43.2c0-23.9,19.3-43.2,43.2-43.2c23.9,0,43.2,19.3,43.2,43.2c0,0,0,0,0,0
	C108.9,70.8,89.5,90.1,65.7,90.1z M65.7,23.1c-13.1,0-23.8,10.6-23.8,23.8c0,13.1,10.6,23.8,23.8,23.8c13.1,0,23.8-10.6,23.8-23.8
	c0,0,0,0,0,0C89.5,33.8,78.8,23.1,65.7,23.1L65.7,23.1z"/>
<path class="st1" d="M269.4,90.1c-23.9,0-43.2-19.3-43.2-43.2c0-23.9,19.3-43.2,43.2-43.2c23.9,0,43.2,19.3,43.2,43.2c0,0,0,0,0,0
	C312.5,70.8,293.2,90.1,269.4,90.1z M269.4,23.1c-13.1,0-23.8,10.6-23.8,23.8c0,13.1,10.6,23.8,23.8,23.8s23.8-10.6,23.8-23.8
	c0,0,0,0,0,0C293.2,33.8,282.5,23.1,269.4,23.1L269.4,23.1z"/>
<path class="st1" d="M66.5,125.4c19.5,0.2,35.2,16,35.2,35.6c0,0.1,0.1,14.3-1.3,26.1c-4.5,41.9-11.8,83.4-21.7,124.4
	c-1.1,4.5-5,8.1-10.2,9.2c-0.7,0.1-1.3,0.2-2,0.2c-0.7,0-1.4-0.1-2.1-0.2l0,0l-0.4-0.1c-4.4-0.8-8-4-9.2-8.3
	c-3.2-9.8-11.1-42.1-18.2-94.1c-5.3-38.6-5.1-56.8-5.1-57.3c0-2.4,0.3-4.9,0.8-7.3C35.5,137.2,49.9,125.5,66.5,125.4 M66.5,106
	C36.4,106.2,12,130.7,12,160.9c0,0-0.4,18.8,5.3,60c7.3,53.1,15.4,86.4,19,97.4c3.4,11.1,12.6,19.3,24,21.4h0.2c2,0.4,4,0.6,6,0.6
	c2,0,4-0.2,6-0.6l0.3-0.1C85,337.2,94.6,328,97.6,316c10.2-41.8,17.6-84.2,22.2-126.9c0.9-9.4,1.4-18.8,1.4-28.3
	C121.1,130.6,96.7,106.2,66.5,106L66.5,106L66.5,106z"/>
<path class="st1" d="M272.1,125.3c7.2,0,13.3,5.1,14.8,12.1l8.2,57.4l20.7,126.2h-82.4l15.2-123.8l8.3-58.3c0.2-0.5,0.3-1.1,0.4-1.6
	C258.9,130.3,265,125.3,272.1,125.3 M272.1,105.8c-16.3,0-30.4,11.5-33.7,27.4h-0.2l-8.7,61.1L212,335.9c-0.1,1.1,0.3,2.3,1.1,3.1
	c0.8,0.9,2,1.3,3.2,1.3h117.4c1.2,0,2.4-0.5,3.2-1.4c0.8-0.8,1.2-2,1-3.1l-23.7-144.2l-8.3-57.9l0,0
	C302.7,117.5,288.6,105.9,272.1,105.8L272.1,105.8L272.1,105.8z"/>
<path class="st1" d="M165.6,350c-5.4,0-9.7-4.3-9.7-9.7l0,0V9.7c0-5.4,4.3-9.7,9.7-9.7s9.7,4.3,9.7,9.7v330.6
	C175.4,345.7,171,350,165.6,350C165.6,350,165.6,350,165.6,350z"/>
</svg>
