<svg id="Calque_1" data-name="Calque 1" xmlns="http://www.w3.org/2000/svg" viewBox="0 0 350 350"><defs><style>.cls-1{fill:#8ddc59;}.cls-2{fill:#6d6e71;}</style></defs><title>Icons_Hikster_2_colors</title><rect class="cls-1" x="103.38" y="157.4" width="143.25" height="39.59"/><path class="cls-2" d="M317.88,118.79a31.91,31.91,0,0,0-15.39,3.94v-5.49A32.22,32.22,0,0,0,292,93.52l-0.11-.09a32.08,32.08,0,0,0-53.63,23.8V149H111.74V114.15a29.06,29.06,0,0,0-29-29H76.53a29.06,29.06,0,0,0-29,29v7.39a28.84,28.84,0,0,0-12.29-2.74H29a29.06,29.06,0,0,0-29,29v56.36a29.06,29.06,0,0,0,29,29h6.19a28.84,28.84,0,0,0,12.29-2.74v5.38a29.06,29.06,0,0,0,29,29h6.19a29.06,29.06,0,0,0,29-29V205.36H238.26v27.39a32.15,32.15,0,0,0,32.11,32.13,31.78,31.78,0,0,0,19.42-6.58l0.13-.08a32,32,0,0,0,12.57-25.47v-3.47A32.11,32.11,0,0,0,350,201.08V150.92A32.16,32.16,0,0,0,317.88,118.79ZM35.21,216.47H29a12.3,12.3,0,0,1-12.29-12.29V147.82A12.3,12.3,0,0,1,29,135.53h6.19a12.3,12.3,0,0,1,12.29,12.29v56.36A12.3,12.3,0,0,1,35.21,216.47ZM95,235.85a12.31,12.31,0,0,1-12.29,12.29H76.53a12.31,12.31,0,0,1-12.29-12.29V114.15a12.31,12.31,0,0,1,12.29-12.29h6.19A12.31,12.31,0,0,1,95,114.15v121.7Zm16.73-47.23V165.77H238.26v22.85H111.74ZM255,232.75V117.24a15.36,15.36,0,0,1,25.69-11.38l0,0a15.43,15.43,0,0,1,5.06,11.36V232.75A15.32,15.32,0,0,1,279.71,245l-0.05,0a15.22,15.22,0,0,1-9.28,3.14A15.4,15.4,0,0,1,255,232.75Zm78.28-31.67a15.39,15.39,0,1,1-30.78,0V150.92a15.39,15.39,0,1,1,30.78,0v50.16Z"/></svg>