<svg id="Calque_1" data-name="Calque 1" xmlns="http://www.w3.org/2000/svg" viewBox="0 0 350 350"><defs><style>.cls-1{fill:#8ddc59;}.cls-2{fill:#6d6e71;}</style></defs><title>Icons_Hikster_2_colors</title><path class="cls-1" d="M120.28,154.75c-3,0-70.64,42.23-70.64,42.23L16.29,239.23v38.63l12.39,44.32,25.77,10.19,230.36,1.82,34.45-15.89,18.2-36.23-2-37.61-34.63-47.3-66.28-42.43-47.28,24.62-37.43-4.92Z"/><path class="cls-2" d="M336.07,218.7c-18.67-30.77-75.82-63.14-86.18-68.85a93.41,93.41,0,0,0,16.7-53.51c0-51.27-40.9-92.82-91.36-92.82S83.87,45.08,83.87,96.35a93.41,93.41,0,0,0,16.88,53.77c-11.86,6.44-68.48,38.27-86.87,68.57-9.5,15.65-19.07,40.94-10.63,72.95,1.35,5.19,14.54,50.66,61.41,53.73,17.19,0.75,64.78,1.12,111.88,1.12,47.33,0,94.15-.38,109-1.14,46.62-3,59.81-48.52,61.26-54.08C355.15,259.67,345.57,234.35,336.07,218.7ZM175.23,25.86c38.06,0,69,31.62,69,70.49s-31,70.49-69,70.49-69-31.62-69-70.49S137.17,25.86,175.23,25.86ZM325.1,286c-0.94,3.57-10,35-40.85,37-28.22,1.45-185.55,1.43-218.37,0-31-2-40.08-33.49-41.14-37.51-5.08-19.3-2.31-37.91,8.24-55.28C47,207.11,95.7,178,113.27,168.74a11.15,11.15,0,0,0,2.56-1.87A90.27,90.27,0,0,0,235,166.56a11.11,11.11,0,0,0,2.8,2.14C255,178,302.9,207.08,317,230.29,327.54,247.68,330.31,266.27,325.1,286Z"/></svg>