<?xml version="1.0" encoding="utf-8"?>
<!-- Generator: Adobe Illustrator 19.2.1, SVG Export Plug-In . SVG Version: 6.00 Build 0)  -->
<svg version="1.1" id="Calque_1" xmlns="http://www.w3.org/2000/svg" xmlns:xlink="http://www.w3.org/1999/xlink" x="0px" y="0px"
	 viewBox="0 0 350 350" style="enable-background:new 0 0 350 350;" xml:space="preserve">
<style type="text/css">
	.st0{fill:#8DDC59;}
	.st1{fill:#6D6E71;}
</style>
<title>Icons_Hikster_2_colors</title>
<ellipse class="st0" cx="173" cy="118.8" rx="11.4" ry="11.3"/>
<path class="st0" d="M106.2,193.9l-4.2,86.2h25.9v13.4h13.7v19.1c0,0,66.8,4,66.8,0v-19.1H222v-13.4h21l5-86.2H106.2z"/>
<path class="st1" d="M173,140.1c-11.8,0-21.3-9.6-21.3-21.4c0-11.8,9.6-21.3,21.4-21.3c11.8,0,21.3,9.6,21.3,21.3
	C194.4,130.5,184.8,140.1,173,140.1z M173,111.9c-3.8,0-6.8,3.1-6.8,6.8s3.1,6.8,6.8,6.8c3.8,0,6.8-3.1,6.8-6.8
	C179.8,115,176.8,111.9,173,111.9z"/>
<path class="st1" d="M136.1,98.5c-4,0-7.3-3.3-7.3-7.3c0-1.6,0.5-3.1,1.4-4.3c17.7-23.6,51.2-28.4,74.8-10.7c2,1.5,3.9,3.1,5.6,4.9
	c2.8,2.8,2.8,7.4,0,10.3c-2.8,2.8-7.4,2.8-10.3,0l0,0c-15.2-15.1-39.8-15.1-54.9,0.1c-1.3,1.3-2.5,2.7-3.6,4.1
	C140.6,97.4,138.4,98.5,136.1,98.5z"/>
<path class="st1" d="M119,68.3c-4,0-7.3-3.2-7.3-7.2c0-2,0.8-4,2.3-5.4c31.4-29.2,79.5-31.1,113-4.3c3.4,2.2,4.3,6.7,2.1,10
	c-2.2,3.4-6.7,4.3-10,2.1c-0.4-0.3-0.8-0.5-1.1-0.9c-27.9-22.3-67.9-20.8-94,3.6C122.6,67.6,120.9,68.3,119,68.3z"/>
<path class="st1" d="M98.1,45.6c-4,0-7.2-3.3-7.2-7.3c0-1.9,0.8-3.7,2.1-5.1C114.5,11.8,142.6,0,172.2,0
	c26.7,0.1,52.4,9.7,72.6,27.1c3.1,2.5,3.7,7.1,1.2,10.2c-2.5,3.1-7.1,3.7-10.2,1.2c-0.2-0.1-0.3-0.2-0.4-0.4
	c-18.1-15.5-39.9-23.6-63.2-23.6c-25.7,0-50.2,10.3-68.9,29C101.9,44.9,100,45.6,98.1,45.6z"/>
<path class="st1" d="M271.7,350H78.3c-9.3,0-16.8-7.5-16.8-16.8V169.4c0-9.3,7.5-16.7,16.8-16.8h193.5c9.3,0,16.8,7.5,16.8,16.8
	v163.8C288.5,342.5,281,350,271.7,350z M78.3,167.2c-1.2,0-2.2,1-2.3,2.2v163.8c0,1.2,1,2.2,2.2,2.2h193.5c1.2,0,2.2-1,2.2-2.2
	V169.4c0-1.2-1-2.2-2.2-2.2H78.3z"/>
<path class="st1" d="M208.3,319.9h-66.8c-4,0-7.3-3.2-7.3-7.2c0,0,0,0,0,0v-11.9h-6.4c-4,0-7.3-3.2-7.3-7.2c0,0,0,0,0,0v-6.2h-18.7
	c-4,0-7.3-3.2-7.3-7.2c0,0,0,0,0,0v-86.2c0-4,3.3-7.3,7.3-7.3c0,0,0,0,0,0h146c4,0,7.3,3.2,7.3,7.2c0,0,0,0,0,0v86.2
	c0,4-3.3,7.3-7.3,7.3c0,0,0,0,0,0h-18.6v6.2c0,4-3.3,7.3-7.3,7.3c0,0,0,0,0,0h-6.4v11.9C215.6,316.7,212.3,319.9,208.3,319.9z
	 M148.8,305.4h52.2v-11.9c0-4,3.3-7.3,7.3-7.3c0,0,0,0,0,0h6.4v-6.2c0-4,3.3-7.3,7.3-7.3c0,0,0,0,0,0h18.7v-71.7H109.2v71.7h18.7
	c4,0,7.3,3.2,7.3,7.2c0,0,0,0,0,0v6.2h6.4c4,0,7.3,3.2,7.3,7.2c0,0,0,0,0,0L148.8,305.4L148.8,305.4z"/>
</svg>
