<svg id="Calque_1" data-name="Calque 1" xmlns="http://www.w3.org/2000/svg" viewBox="0 0 350 350"><defs><style>.cls-1{fill:#6d6e71;}</style></defs><title>Icons_Hikster_2_colors</title><path class="cls-1" d="M309.92,331.26H40.08A40.13,40.13,0,0,1,0,291.16V151.64a39.91,39.91,0,0,1,11.75-28.32,10.16,10.16,0,0,1,1.39-1.14L159.7,22.75c5.14-4.16,19-8.29,34.74,5.34,11,9.56,104.78,69.61,140,91.94a11.09,11.09,0,0,1,.95.7A40,40,0,0,1,350,151.64V291.16A40.13,40.13,0,0,1,309.92,331.26Zm-285.4-194a21.07,21.07,0,0,0-5.67,14.41V291.16a21.26,21.26,0,0,0,21.23,21.25H309.92a21.26,21.26,0,0,0,21.23-21.25V151.64a21.21,21.21,0,0,0-7.36-16C308.36,125.81,196,54.41,182.11,42.34c-7.23-6.27-11.22-4.45-11.23-4.43Z"/><path class="cls-1" d="M108.64,276.15a9.37,9.37,0,0,1-6.24-2.37,51.78,51.78,0,0,0-6.3-4.37c-7.85-5-19.72-12.48-19.72-27,0-13.15,10.22-19.62,17-23.89,6.15-3.89,8.19-5.58,8.19-8s-2-4-8.18-7.92c-6.76-4.27-17-10.72-17-23.86,0-14.5,11.22-21.58,19.41-26.75a56.14,56.14,0,0,0,6.61-4.57,9.43,9.43,0,0,1,12.28,14.3,76.78,76.78,0,0,1-8.84,6.21c-7.22,4.55-10.61,7.1-10.61,10.8,0,2.35,2,4,8.18,7.92,6.76,4.27,17,10.72,17,23.86s-10.22,19.62-17,23.89c-6.15,3.89-8.19,5.58-8.19,8,0,3.89,4.13,6.79,10.94,11.11a68.23,68.23,0,0,1,8.71,6.18A9.43,9.43,0,0,1,108.64,276.15Z"/><path class="cls-1" d="M180.34,276.11a9.42,9.42,0,0,1-6.27-2.38,48,48,0,0,0-6.13-4.25c-7.89-5-19.84-12.56-19.84-27.11,0-13.15,10.2-19.61,17-23.88,6.14-3.89,8.18-5.59,8.18-8s-2-4-8.18-7.92c-6.75-4.27-17-10.72-17-23.86,0-14.52,11.8-22,19.6-26.88a53.46,53.46,0,0,0,6.37-4.39,9.42,9.42,0,1,1,12.36,14.23,71.07,71.07,0,0,1-8.69,6.11c-6.73,4.24-10.8,7.1-10.8,10.93,0,2.35,2,4,8.18,7.92,6.75,4.27,17,10.72,17,23.86s-10.2,19.61-17,23.88c-6.14,3.89-8.18,5.59-8.18,8,0,3.88,4.38,6.94,11.06,11.17a68.24,68.24,0,0,1,8.59,6.1A9.43,9.43,0,0,1,180.34,276.11Z"/><path class="cls-1" d="M253.93,276.11a9.42,9.42,0,0,1-6.18-2.31,54.62,54.62,0,0,0-6.6-4.57c-8.22-5.2-19.46-12.33-19.46-26.86,0-13.15,10.2-19.61,17-23.88,6.14-3.89,8.18-5.59,8.18-8s-2-4-8.18-7.92c-6.75-4.27-17-10.72-17-23.86,0-14.53,11-21.88,19.07-27.25a48.33,48.33,0,0,0,7.59-5.75,9.42,9.42,0,1,1,13.66,13,61.7,61.7,0,0,1-10.8,8.44c-7.26,4.84-10.67,7.56-10.67,11.56,0,2.35,2,4,8.18,7.92,6.75,4.27,17,10.72,17,23.86s-10.2,19.61-17,23.88c-6.14,3.89-8.18,5.59-8.18,8,0,3.74,3.41,6.32,10.68,10.93a74.71,74.71,0,0,1,8.88,6.27A9.43,9.43,0,0,1,253.93,276.11Z"/></svg>