<svg id="Calque_1" data-name="Calque 1" xmlns="http://www.w3.org/2000/svg" viewBox="0 0 350 350"><defs><style>.cls-1{fill:#8ddc59;}.cls-2{fill:#6d6e71;}</style></defs><title>Icons_Hikster_2_colors</title><polygon class="cls-1" points="7.78 203.83 26.36 170.25 330.92 170.25 341.9 199.47 7.78 203.83"/><rect class="cls-1" x="65.46" y="108.83" width="103.47" height="60.03" rx="2.73" ry="2.73"/><rect class="cls-1" x="173.18" y="108.83" width="103.47" height="60.03" rx="2.73" ry="2.73"/><path class="cls-2" d="M323.55,165.24V95.6A21.38,21.38,0,0,0,302.2,74.25H39.92A21.38,21.38,0,0,0,18.57,95.6v73.26c0,0.15,0,.3,0,0.45A41.37,41.37,0,0,0,0,203.83v64.12a7.8,7.8,0,0,0,7.8,7.8H342.22a7.8,7.8,0,0,0,7.8-7.8V203.83A41.44,41.44,0,0,0,323.55,165.24ZM333.95,199H16.05a25.81,25.81,0,0,1,25.32-20.91H308.63A25.81,25.81,0,0,1,333.95,199ZM163.26,148.59a13.74,13.74,0,0,1-13.73,13.73H84.86a13.74,13.74,0,0,1-13.73-13.73V130.35a13.74,13.74,0,0,1,13.73-13.73h64.66a13.74,13.74,0,0,1,13.73,13.73v18.24Zm15.6-18.24a13.74,13.74,0,0,1,13.73-13.73h64.65A13.74,13.74,0,0,1,271,130.35v18.24a13.74,13.74,0,0,1-13.73,13.73H192.59a13.74,13.74,0,0,1-13.73-13.73V130.35ZM34.17,95.6a5.75,5.75,0,0,1,5.75-5.75H302.2a5.75,5.75,0,0,1,5.75,5.75v66.85H283.08a29.14,29.14,0,0,0,3.49-13.86V130.35A29.37,29.37,0,0,0,257.24,101H192.59a29.25,29.25,0,0,0-21.53,9.44A29.25,29.25,0,0,0,149.53,101H84.86a29.37,29.37,0,0,0-29.33,29.33v18.24A29.14,29.14,0,0,0,59,162.45H41.37a41.43,41.43,0,0,0-7.2.64V95.6ZM15.58,260.15V214.56H334.42v45.59H15.58Z"/></svg>