<svg id="Calque_1" data-name="Calque 1" xmlns="http://www.w3.org/2000/svg" viewBox="0 0 350 350"><defs><style>.cls-1{fill:#8ddc59;}.cls-2{fill:#6d6e71;}</style></defs><title>Icons_Hikster_2_colors</title><path class="cls-1" d="M306.17,104.76a8.32,8.32,0,0,1-3-.56,8.54,8.54,0,0,1-5-11l4-10.56a8.54,8.54,0,0,1,16,6.07l-4,10.56A8.56,8.56,0,0,1,306.17,104.76Z"/><path class="cls-2" d="M158.43,186.77a30.71,30.71,0,0,1,0-61.42,8.55,8.55,0,0,1,0,17.09,13.62,13.62,0,1,0,0,27.24A8.55,8.55,0,0,1,158.43,186.77Z"/><path class="cls-2" d="M247.33,186.77a8.55,8.55,0,0,1,0-17.09,13.62,13.62,0,1,0,0-27.24,8.55,8.55,0,0,1,0-17.09A30.71,30.71,0,0,1,247.33,186.77Z"/><path class="cls-2" d="M247.33,142.45h-88.9a8.55,8.55,0,0,1,0-17.09h88.9A8.55,8.55,0,0,1,247.33,142.45Z"/><path class="cls-2" d="M247.33,186.77h-88.9a8.55,8.55,0,0,1,0-17.09h88.9A8.55,8.55,0,0,1,247.33,186.77Z"/><circle class="cls-1" cx="258.41" cy="207.78" r="6.01"/><rect class="cls-1" x="10.46" y="243.65" width="315.87" height="20.71"/><path class="cls-2" d="M324.77,233.31a8.56,8.56,0,0,0-1.35-1.85c-9.39-13.16-16.67-28.27-13.32-40.2,8.59-30.57,38.06-73,38.35-73.45a8.54,8.54,0,0,0-3.35-12.61c-35-16.6-75.18-25.38-116.07-25.38C102.75,79.83,0,162.61,0,264.35a8.54,8.54,0,0,0,8.54,8.54H341.46A8.54,8.54,0,0,0,347.12,258,171.07,171.07,0,0,1,324.77,233.31ZM229,96.92c34.89,0,69.14,6.78,99.69,19.67-9.49,14.62-28.07,45.14-35.07,70.06-3.91,13.94.54,28.82,7.84,42.15H21.9C42.6,153.49,127.6,96.92,229,96.92ZM17.36,255.8c0.21-3.36.57-6.7,1-10a8.57,8.57,0,0,0,1.16.09H312.78c2.76,3.6,5.56,6.94,8.21,9.92H17.36Z"/></svg>