<svg id="Calque_1" data-name="Calque 1" xmlns="http://www.w3.org/2000/svg" viewBox="0 0 350 350"><defs><style>.cls-1{fill:#8ddc59;}.cls-2{fill:#6d6e71;}</style></defs><title>Icons_Hikster_2_colors</title><ellipse class="cls-1" cx="175" cy="203.7" rx="36.49" ry="36.59"/><ellipse class="cls-1" cx="300.06" cy="134.74" rx="7.35" ry="7.36"/><path class="cls-2" d="M175,250.45a44.52,44.52,0,1,1,44.4-44.52A44.51,44.51,0,0,1,175,250.45Zm0-73.17a28.65,28.65,0,1,0,28.57,28.65A28.65,28.65,0,0,0,175,177.28Z"/><path class="cls-2" d="M175,140.37a65.56,65.56,0,1,1-65.39,65.56A65.55,65.55,0,0,1,175,140.37m0-15.87a81.43,81.43,0,1,0,81.22,81.43A81.33,81.33,0,0,0,175,124.49h0Z"/><path class="cls-2" d="M290.47,84h-26L247.2,46.56c-2.15-7.17-10.77-19.43-30.18-19.74s-60.82-.32-80.34,0-28,12.57-30.18,19.75L90.75,80.66,88.93,84H59.53A59.78,59.78,0,0,0,0,143.66V263.74a59.78,59.78,0,0,0,59.53,59.68H290.47A59.78,59.78,0,0,0,350,263.74V143.66A59.78,59.78,0,0,0,290.47,84ZM121.13,52.64l0.52-1.49c0-.08,2.12-8.25,15.28-8.46,19.41-.31,60.45-0.31,79.84,0,12.52,0.2,15.08,7.77,15.28,8.46L247.1,84H106.32Zm213,211.11a43.8,43.8,0,0,1-43.7,43.81H59.53a43.8,43.8,0,0,1-43.7-43.81V143.66a43.8,43.8,0,0,1,43.7-43.81H290.47a43.8,43.8,0,0,1,43.7,43.81V263.74Z"/></svg>