<svg id="Calque_1" data-name="Calque 1" xmlns="http://www.w3.org/2000/svg" viewBox="0 0 350 350"><defs><style>.cls-1{fill:#8ddc59;}.cls-2{fill:#6d6e71;}.cls-3{fill:none;}</style></defs><title>Icons_Hikster_2_colors</title><circle class="cls-1" cx="175" cy="175" r="32.42"/><path class="cls-2" d="M175,219.93A44.93,44.93,0,1,1,219.91,175,45,45,0,0,1,175,219.93Zm0-75.07A30.14,30.14,0,1,0,205.11,175,30.17,30.17,0,0,0,175,144.86Z"/><path class="cls-3" d="M336.68,162.89L246.61,87.7A113,113,0,0,0,126,73.21a111.41,111.41,0,0,0-22.36,14.92L13.32,162.89A15.31,15.31,0,0,0,7.4,175c0,5.42,3.21,9.39,7.07,12.92l89.18,73.93A111,111,0,0,0,126,276.79a113,113,0,0,0,123.59-17l88.18-73.59A15.34,15.34,0,0,0,336.68,162.89ZM175,255.4A80.41,80.41,0,1,1,255.38,175,80.4,80.4,0,0,1,175,255.4Z"/><path class="cls-2" d="M175,87.2a87.8,87.8,0,1,0,87.8,87.8A87.9,87.9,0,0,0,175,87.2ZM175,248a73,73,0,1,1,73-73A73.09,73.09,0,0,1,175,248Z"/><path class="cls-2" d="M341.32,157.13L251.31,82A120.51,120.51,0,0,0,175,54.68,119.18,119.18,0,0,0,122.8,66.55c-7.62,3.67-15.2,8.72-23.86,15.88L8.77,157.05A22.62,22.62,0,0,0,0,175c0,8.71,5.4,14.66,9.74,18.61l89.19,73.93c8.65,7.17,16.23,12.23,23.88,15.91a120.43,120.43,0,0,0,131.54-18l88.51-73.88A22.83,22.83,0,0,0,350,175,22.57,22.57,0,0,0,341.32,157.13ZM333,180.49l-88.33,73.72a105.64,105.64,0,0,1-115.48,15.92c-6.53-3.15-13.16-7.59-20.86-14l-88.92-73.7c-3.31-3-4.66-5.18-4.66-7.46A8,8,0,0,1,18,168.59l90.33-74.76c7.72-6.38,14.34-10.81,20.85-14A104.52,104.52,0,0,1,175,69.47a105.66,105.66,0,0,1,66.9,23.91l90.06,75.19,0.2,0.17a7.86,7.86,0,0,1,3.07,6.26A7.76,7.76,0,0,1,333,180.49Z"/></svg>