<svg id="Calque_1" data-name="Calque 1" xmlns="http://www.w3.org/2000/svg" viewBox="0 0 350 350"><defs><style>.cls-1{fill:#8ddc59;}.cls-2{fill:#6d6e71;}</style></defs><title>Icons_Hikster_2_colors</title><path class="cls-1" d="M188.17,146.86a4.93,4.93,0,0,1-4.83-5.85c1.13-5.88-.3-11.13-4.51-16.53l-1-1.24c-3.69-4.69-7.82-9.94-8.82-16.51a34.35,34.35,0,0,0-5.8,8.64c-3.6,7.8-3.86,16.65-.68,23.12a4.92,4.92,0,0,1-6,6.84c-15.59-5.27-27-21.66-28.25-40.79-0.11-.49-3.63-23.53,20-47.39,20.53-20.73,6.88-48.84,6.28-50A4.92,4.92,0,0,1,161.14.5c0.88,0.42,87.62,43.67,56.12,117.63-4.91,12.53-15.57,26.34-28.21,28.66A5.4,5.4,0,0,1,188.17,146.86Zm-10-58.09a4.92,4.92,0,0,1,3.35,8.53,9.13,9.13,0,0,0-2.83,6.8c0.13,4.43,3.43,8.62,6.93,13.06l1,1.27a30.73,30.73,0,0,1,6.84,16c6.19-4.21,11.74-12.38,14.73-20,21.79-51.15-19.66-85.45-40.49-98.82,2.84,12.67,3.56,32.42-12.37,48.5-19.9,20.09-17.34,38.58-17.22,39.36,0.76,11,5.52,20.95,12.46,27.13a40.27,40.27,0,0,1,3.75-19.3c4.15-9,11.81-16.79,21.56-21.92A4.85,4.85,0,0,1,178.14,88.77Z"/><path class="cls-2" d="M272.67,143.61H228.75a7,7,0,0,0-7,7v27.76l-25,47.59H193.9v-47H208a0.71,0.71,0,0,0,.71-0.71V164.55a0.71,0.71,0,0,0-.71-0.71H142.73a0.71,0.71,0,0,0-.71.71v13.68a0.71,0.71,0,0,0,.71.71h14.11v47h-5.36a7,7,0,0,0,0,14h5.36v26.65A78.82,78.82,0,0,0,96.71,343a7,7,0,0,0,7,7H247.06a7,7,0,0,0,7-7,78.82,78.82,0,0,0-60.14-76.48V239.9H201a7,7,0,0,0,6.17-3.73l27.8-52.84a7,7,0,0,0,.81-3.25v-22.5h36.94A7,7,0,0,0,272.67,143.61ZM170.79,178.94H180v47h-9.17v-47ZM239.72,336H111A64.72,64.72,0,0,1,239.72,336ZM180,264.46c-1.52-.09-3-0.14-4.58-0.14s-3.07.06-4.58,0.14V239.9H180v24.56Z"/><path class="cls-2" d="M198.52,239.9H149a7,7,0,0,1-6.17-3.73l-27.8-52.84a7,7,0,0,1-.81-3.25v-22.5H77.33a7,7,0,0,1,0-14h43.92a7,7,0,0,1,7,7v27.76l25,47.59h45.27A7,7,0,0,1,198.52,239.9Z"/></svg>