<svg id="Calque_1" data-name="Calque 1" xmlns="http://www.w3.org/2000/svg" viewBox="0 0 350 350"><defs><style>.cls-1{fill:#8ddc59;}.cls-2{fill:#6d6e71;}</style></defs><title>Icons_Hikster_2_colors</title><path class="cls-1" d="M38.59,92.17s19.84-22.3,60.29-29.71,79.89-8.51,98.17-19.87S248.21,14,248.21,14l63.2,115.4s-43.93,32.4-65.2,38.1-108,18.86-128.17,34.7L97.88,218.05Z"/><path class="cls-2" d="M145.38,350a10.13,10.13,0,0,1-9.44-6.45l-34.56-88.49-72-158.7a10.15,10.15,0,0,1,1.72-11C55.38,58.55,94,52.22,134.84,45.52S217.93,31.89,244.67,3.23a10.14,10.14,0,0,1,16.49,2.4l59.33,119.3a10.13,10.13,0,0,1-1.61,11.35c-32.76,35.76-81,45.15-123.5,53.45-34.47,6.73-67.12,13.1-86.9,32l11.57,25.5,34.77,89A10.14,10.14,0,0,1,145.38,350ZM50.73,94.4l49,108c23.72-19.3,56.9-25.76,91.76-32.56,39.11-7.64,79.47-15.51,107.62-42.35l-50-100.63c-30.66,25.48-71.42,32.17-111,38.65C103.63,71.17,70.9,76.54,50.73,94.4Z"/></svg>