<svg id="Calque_1" data-name="Calque 1" xmlns="http://www.w3.org/2000/svg" viewBox="0 0 350 350"><defs><style>.cls-1{fill:#8ddc59;}.cls-2{fill:#6d6e71;}</style></defs><title>Icons_Hikster_2_colors</title><circle class="cls-1" cx="117.02" cy="174.44" r="16.17"/><circle class="cls-1" cx="233.89" cy="174.44" r="16.17"/><circle class="cls-1" cx="233.89" cy="262.98" r="16.17"/><path class="cls-2" d="M117,205.29a30.84,30.84,0,1,1,30.84-30.84A30.87,30.87,0,0,1,117,205.29Zm0-45.13a14.28,14.28,0,1,0,14.28,14.28A14.3,14.3,0,0,0,117,160.16Z"/><path class="cls-2" d="M233.89,205.29a30.84,30.84,0,1,1,30.84-30.84A30.87,30.87,0,0,1,233.89,205.29Zm0-45.13a14.28,14.28,0,1,0,14.28,14.28A14.3,14.3,0,0,0,233.89,160.16Z"/><path class="cls-2" d="M234.13,293.82A30.84,30.84,0,1,1,265,263,30.87,30.87,0,0,1,234.13,293.82Zm0-45.13A14.28,14.28,0,1,0,248.41,263,14.3,14.3,0,0,0,234.13,248.7Z"/><path class="cls-2" d="M336.08,121.29L189.31,30.93a17.12,17.12,0,0,0-2.08-1c-0.65-.33-1.3-0.66-1.88-0.89A28.18,28.18,0,0,0,182,27.82c-0.68-.19-1.36-0.37-2.12-0.54a29.28,29.28,0,0,0-3.18-.45,28.88,28.88,0,0,0-5.26,0,30,30,0,0,0-3.25.47c-0.7.15-1.39,0.33-2.11,0.54A27.88,27.88,0,0,0,162.82,29c-0.63.26-1.24,0.56-2.21,1L13.92,120.1a29.4,29.4,0,0,0-9.63,40.27,29.22,29.22,0,0,0,40.19,9.68l0.42-.26V311.88a8.33,8.33,0,0,0,.15,1.56,8.27,8.27,0,0,0,8.13,9.84h41.3a8.27,8.27,0,0,0,8.12-9.86,8.32,8.32,0,0,0,.15-1.54V265.51c0-8.66,6.67-15.7,14.86-15.7s14.86,7,14.86,15.7v46.37a8.32,8.32,0,0,0,.15,1.58,8.26,8.26,0,0,0,8.13,9.82H295.64a8.27,8.27,0,0,0,7.82-11,8.26,8.26,0,0,0,.46-2.71V170.25l1.6,1a28.87,28.87,0,0,0,15.18,4.32,29.5,29.5,0,0,0,6.88-.82,29,29,0,0,0,18.12-13.18A29.4,29.4,0,0,0,336.08,121.29Zm-218.46,112c-17.33,0-31.42,14.47-31.42,32.26v41.22H61.45V159.6L174,90.3l113.33,69.76V306.73H149V265.51C149,247.71,134.94,233.24,117.61,233.24Zm214-80.31a12.64,12.64,0,0,1-17.36,4.2L174,70.85,35.79,155.95a12.64,12.64,0,0,1-17.36-4.2,12.8,12.8,0,0,1,4.18-17.54l144.65-89,1.93-.92a17.73,17.73,0,0,1,2.32-.72,13.63,13.63,0,0,1,1.38-.19l1.08-.06,1.23,0.07a13.28,13.28,0,0,1,2.27.43,11.79,11.79,0,0,1,1.42.48l148.51,91.15A12.8,12.8,0,0,1,331.57,152.93Z"/></svg>