<svg id="Calque_1" data-name="Calque 1" xmlns="http://www.w3.org/2000/svg" viewBox="0 0 350 350"><defs><style>.cls-1{fill:#8ddc59;}.cls-2{fill:#6d6e71;}</style></defs><title>Icons_Hikster_2_colors</title><path class="cls-1" d="M133.85,34L77.1,26.5s-5.43,298.37,0,297,51.7,0,51.7,0Z"/><path class="cls-2" d="M251.83,23.13L161.81,1c-9.49-2.3-18.58-.45-25.61,5.09a31.86,31.86,0,0,0-8.33,10.14H87.73A21,21,0,0,0,66.8,37.13V312.83a21,21,0,0,0,20.93,20.92H128a33,33,0,0,0,7.55,9.43A28.27,28.27,0,0,0,154.18,350a31.52,31.52,0,0,0,5.23-.44L251.07,331c19.84-2.67,32.13-15.54,32.13-33.68V56.65C283.2,39.25,271.25,26.68,251.83,23.13ZM87.39,312.83l0.34-276h35.82V313.12Zm175.22-15.51c0,7.62-4.89,12.1-14.54,13.32a6.65,6.65,0,0,0-.74.13l-91.61,18.56a8.08,8.08,0,0,1-6.82-1.82c-2.89-2.47-4.76-7-4.76-11.56V34c0-4.76,1.93-9.5,4.81-11.77a7.7,7.7,0,0,1,5-1.65,12.69,12.69,0,0,1,3,.4l90.56,22.28c10,1.83,15.09,6.34,15.09,13.4V297.32Z"/><ellipse class="cls-2" cx="163.38" cy="176.07" rx="10.44" ry="12.51"/></svg>