<svg id="Calque_1" data-name="Calque 1" xmlns="http://www.w3.org/2000/svg" viewBox="0 0 350 350"><defs><style>.cls-1{fill:#6d6e71;}.cls-2{fill:#8ddc59;}</style></defs><title>Icons_Hikster_2_colors</title><path class="cls-1" d="M106.49,304h-0.18a15.51,15.51,0,0,1-11-4.76l-91-94.7A15.5,15.5,0,1,1,26.67,183l80.06,83.32L323.57,50.53a15.5,15.5,0,1,1,21.86,22l-228,227A15.47,15.47,0,0,1,106.49,304Z"/><path class="cls-2" d="M251.22,159.82a15.5,15.5,0,0,1-10.93-26.48l83.29-82.81a15.5,15.5,0,1,1,21.86,22L262.15,155.3A15.48,15.48,0,0,1,251.22,159.82Z"/></svg>