<svg id="Calque_1" data-name="Calque 1" xmlns="http://www.w3.org/2000/svg" viewBox="0 0 350 350"><defs><style>.cls-1{fill:#8ddc59;}.cls-2{fill:#6d6e71;}</style></defs><title>Icons_Hikster_2_colors</title><rect class="cls-1" x="172.06" y="225.82" width="115.52" height="68.82"/><path class="cls-2" d="M328.87,92.27h-50.4a75,75,0,0,0-19.75-17.22c-9-5.4-19.87-8.14-32.24-8.14h-0.29l-103.67.34c-11.85-.41-21.83,1.71-31.43,6.66A40.28,40.28,0,0,0,72.86,92.27H70.18c-19.08,0-35.84-9.34-35.85-9.34-1.09-.66-10.89-6.3-20.61-3C9.85,81.28,4.6,84.54,1.52,92.51-4,106.76,6.69,117.13,12.68,120.38c21.62,13.48,44.57,14.16,48.85,14.16h4.33L64.41,275.23a8.22,8.22,0,0,0,8.21,8.3h0.09l90.9-1-0.14,13.3a8.22,8.22,0,0,0,8.21,8.31h0.09l115.9-1.27a8.22,8.22,0,0,0,8.12-8.13l1.52-146.66a92.08,92.08,0,0,0-.86-13.53h32.41A21.13,21.13,0,0,0,328.87,92.27ZM180.54,234H280l-0.18,17.61H180.36Zm45.7-150.68c9.41,0,17.54,1.92,24,5.81,18.85,11.26,30.86,34.32,30.61,58.74l-0.72,69.7H180.71L181.29,162C181,133.5,177.85,102.11,161,83.57ZM98.6,88.52c7.12-3.67,14.25-5.14,23.46-4.83h0c9.56,0.35,17.92,2.54,24.66,8.59H93A26.47,26.47,0,0,1,98.6,88.52ZM62,118.12c-0.21.06-21.43,0.31-41-11.89-1-.55-5.81-3.59-4.18-7.81,0.63-1.64,1.37-2.63,2.18-2.91,1.73-.66,5.1.5,7,1.58,0.83,0.48,20.6,11.61,44.17,11.61h87.24a79.71,79.71,0,0,1,2.94,9.4H62ZM80.93,267l1.36-132.46h81A254.63,254.63,0,0,1,164.86,162l-1.08,104.1ZM180,287.6l0.2-19.51h99.45l-0.19,18.43ZM328.87,118.1H292.59a86.24,86.24,0,0,0-3.81-9.4h40.08A4.7,4.7,0,1,1,328.87,118.1Z"/></svg>