<svg id="Calque_1" data-name="Calque 1" xmlns="http://www.w3.org/2000/svg" viewBox="0 0 350 350"><defs><style>.cls-1{fill:#8ddc59;}.cls-2{fill:#6d6e71;}</style></defs><title>Icons_Hikster_2_colors</title><circle class="cls-1" cx="172.68" cy="188.77" r="50.21"/><circle class="cls-1" cx="270.12" cy="37.19" r="4.41"/><path class="cls-2" d="M286,0H64A21.61,21.61,0,0,0,42.45,21.59V328.42A21.61,21.61,0,0,0,64,350H286a21.61,21.61,0,0,0,21.58-21.58V21.59A21.61,21.61,0,0,0,286,0Zm3.87,21.59V56.66H151.4V17.71H286A3.92,3.92,0,0,1,289.83,21.59ZM64,17.71h69.66V56.66H60.17V21.59A3.92,3.92,0,0,1,64,17.71ZM286,332.29H64a3.92,3.92,0,0,1-3.87-3.87V74.37H289.83V328.42A3.92,3.92,0,0,1,286,332.29Z"/><path class="cls-2" d="M172.69,253.7a64.93,64.93,0,1,1,64.93-64.93A65,65,0,0,1,172.69,253.7Zm0-112.16a47.22,47.22,0,1,0,47.22,47.23A47.28,47.28,0,0,0,172.69,141.54Z"/><path class="cls-2" d="M172.69,288a99.23,99.23,0,1,1,99.23-99.23A99.35,99.35,0,0,1,172.69,288Zm0-180.75a81.52,81.52,0,1,0,81.52,81.52A81.61,81.61,0,0,0,172.69,107.25Z"/></svg>