<svg id="Calque_1" data-name="Calque 1" xmlns="http://www.w3.org/2000/svg" viewBox="0 0 350 350"><defs><style>.cls-1{fill:#6d6e71;}</style></defs><title>Icons_Hikster_2_colors</title><path class="cls-1" d="M175,23.72c83.42,0,151.28,67.87,151.28,151.28S258.42,326.28,175,326.28,23.72,258.42,23.72,175,91.58,23.72,175,23.72M175,0A175,175,0,1,0,350,175,175,175,0,0,0,175,0h0Z"/><path class="cls-1" d="M260,243.27L191.67,174.9l67.61-68.2A11.86,11.86,0,1,0,242.44,90L174.9,158.13,106.73,90A11.86,11.86,0,1,0,90,106.73L158.21,175,90.73,243a11.86,11.86,0,1,0,16.83,16.7l67.41-68,68.3,68.3A11.86,11.86,0,1,0,260,243.27Z"/></svg>