<svg id="Calque_1" data-name="Calque 1" xmlns="http://www.w3.org/2000/svg" viewBox="0 0 350 350"><defs><style>.cls-1{fill:#8ddc59;}.cls-2{fill:#6d6e71;}</style></defs><title>Icons_Hikster_2_colors</title><polygon class="cls-1" points="206 186.15 186.49 210.28 312.14 340.51 340.52 335.76 340.52 306.05 206 186.15"/><ellipse class="cls-1" cx="113.43" cy="113.58" rx="36.02" ry="36.06"/><path class="cls-2" d="M113.43,56.17A57.41,57.41,0,1,1,56.1,113.58a57.44,57.44,0,0,1,57.33-57.41m0-19a76.39,76.39,0,1,0,76.29,76.39A76.34,76.34,0,0,0,113.43,37.2h0Z"/><path class="cls-2" d="M340.18,292.59L234.35,186.49a33.88,33.88,0,0,0-26.88-9.36,113.4,113.4,0,1,0-30.35,30.46,33.6,33.6,0,0,0,9.71,26.48l105.84,106.1a33.45,33.45,0,0,0,46.29,1,9.46,9.46,0,0,0,1.21-1A33.73,33.73,0,0,0,340.18,292.59ZM19,113.58a94.48,94.48,0,1,1,94.48,94.61A94.65,94.65,0,0,1,19,113.58ZM327.47,326a10.06,10.06,0,0,0-.84.75,14.89,14.89,0,0,1-20.57,0L200.22,220.65a14.71,14.71,0,0,1,0-20.75,14.73,14.73,0,0,1,20.72,0L326.78,306A14.72,14.72,0,0,1,327.47,326Z"/></svg>