<svg id="Calque_1" data-name="Calque 1" xmlns="http://www.w3.org/2000/svg" viewBox="0 0 350 350"><defs><style>.cls-1{fill:#6d6e71;}</style></defs><title>Icons_Hikster_2_colors</title><path class="cls-1" d="M175,23.94c83.29,0,151.05,67.76,151.05,151.06S258.29,326.06,175,326.06,23.95,258.29,23.95,175,91.71,23.94,175,23.94M175,0A175,175,0,1,0,350,175,175,175,0,0,0,175,0h0Z"/><path class="cls-1" d="M123.65,268.17h-0.13a12,12,0,0,1-8.5-3.68L57.74,204.86A12,12,0,0,1,75,188.26l48.85,50.85,134.91-134.3a12,12,0,1,1,16.89,17L132.1,264.67A11.94,11.94,0,0,1,123.65,268.17Z"/></svg>