<svg id="Calque_1" data-name="Calque 1" xmlns="http://www.w3.org/2000/svg" viewBox="0 0 350 350"><defs><style>.cls-1{fill:#8ddc59;}.cls-2{fill:#6d6e71;}</style></defs><title>Icons_Hikster_2_colors</title><rect class="cls-1" x="99.53" y="206.4" width="150.94" height="119.38"/><path class="cls-2" d="M125.6,189.17a7.43,7.43,0,0,1-7.43-7.44V52A7.43,7.43,0,1,1,133,52V181.74A7.43,7.43,0,0,1,125.6,189.17Z"/><path class="cls-2" d="M252.45,6.53C251.48,6.27,228.22,0,175,0S98.52,6.27,97.55,6.53a7.42,7.42,0,0,0-5.45,7.16V325.77a7.43,7.43,0,0,0,7.43,7.44h5.82a17.34,17.34,0,0,0,34.66,0h67.27a17.34,17.34,0,0,0,34.66,0h8.53a7.43,7.43,0,0,0,7.43-7.44V13.69A7.42,7.42,0,0,0,252.45,6.53ZM107,19.71c9.43-1.74,31.34-4.83,68-4.83s58.61,3.09,68,4.83V199H107V19.71ZM243,318.34H107V213.84H243v104.5Z"/><path class="cls-2" d="M227,240.18H123a7.44,7.44,0,0,1,0-14.87H227A7.44,7.44,0,0,1,227,240.18Z"/></svg>