<svg id="Calque_1" data-name="Calque 1" xmlns="http://www.w3.org/2000/svg" viewBox="0 0 350 350"><defs><style>.cls-1{fill:#6d6e71;}.cls-2{fill:#8ddc59;}</style></defs><title>Icons_Hikster_2_colors</title><path class="cls-1" d="M341.93,243.4c-13.82,0-20.21-5.23-28.3-11.88C304.76,224.23,294.7,216,275.11,216s-29.65,8.26-38.52,15.55a90.27,90.27,0,0,1-8.48,6.42V71.84a31.55,31.55,0,0,1,60.71-12,44.71,44.71,0,0,1,2.75,14.37,8.06,8.06,0,0,0,8.06,7.76h0.31a8.06,8.06,0,0,0,7.75-8.37c-0.44-11.71-3.72-19.41-4-20.08A47.69,47.69,0,0,0,212,71.84v23.6H108.77l-0.4,0V71.84a31.56,31.56,0,0,1,60.72-12.06,44.92,44.92,0,0,1,2.73,14.38,8.06,8.06,0,0,0,8.06,7.76h0.31a8.06,8.06,0,0,0,7.75-8.37c-0.44-11.7-3.71-19.4-4-20.08A47.69,47.69,0,0,0,92.23,71.84V239.32c-4.6,2.5-9.91,4.08-17.45,4.08-13.78,0-20.16-5.23-28.23-11.87C37.68,224.24,27.64,216,8.07,216a8.07,8.07,0,1,0,0,16.14c13.78,0,20.16,5.24,28.23,11.87,8.87,7.29,18.91,15.56,38.48,15.56s29.61-8.27,38.48-15.55c8.07-6.65,14.45-11.88,28.24-11.88s20.18,5.24,28.26,11.88c8.87,7.28,18.93,15.55,38.51,15.55s29.66-8.27,38.53-15.55c8.09-6.65,14.48-11.88,28.3-11.88s20.21,5.24,28.3,11.88c8.87,7.29,18.93,15.55,38.52,15.55A8.07,8.07,0,1,0,341.93,243.4ZM108.37,153.08l0.4,0H212v24.79H108.77l-0.4,0V153.08Zm0.4-41.5H212V137H108.77l-0.4,0V111.56ZM180,231.52C171.14,224.24,161.08,216,141.5,216c-15.78,0-25.36,5.37-33.13,11.28V194l0.4,0H212V242.4a8.15,8.15,0,0,0,0,.85c-1.19.09-2.42,0.15-3.73,0.15C194.47,243.4,188.09,238.16,180,231.52Z"/><path class="cls-2" d="M341.93,325.84c-19.6,0-29.65-8.26-38.52-15.55-8.09-6.65-14.48-11.88-28.3-11.88s-20.21,5.23-28.3,11.88c-8.87,7.28-18.94,15.55-38.53,15.55s-29.64-8.27-38.51-15.55c-8.08-6.65-14.46-11.88-28.26-11.88s-20.17,5.23-28.24,11.88c-8.87,7.28-18.92,15.55-38.48,15.55s-29.61-8.27-38.48-15.56c-8.07-6.64-14.45-11.87-28.23-11.87a8.07,8.07,0,1,1,0-16.14c19.57,0,29.61,8.27,38.48,15.56C54.62,304.46,61,309.7,74.78,309.7s20.16-5.23,28.23-11.87c8.87-7.29,18.92-15.56,38.49-15.56s29.64,8.27,38.51,15.55c8.08,6.65,14.46,11.88,28.26,11.88s20.22-5.25,28.31-11.88c8.87-7.29,18.93-15.55,38.52-15.55s29.65,8.26,38.52,15.55c8.09,6.65,14.48,11.88,28.3,11.88A8.07,8.07,0,0,1,341.93,325.84Z"/></svg>