<svg id="Calque_1" data-name="Calque 1" xmlns="http://www.w3.org/2000/svg" viewBox="0 0 350 350"><defs><style>.cls-1{fill:#08a05d;}.cls-2{fill:#f8fcfa;}.cls-3{fill:#029e59;}.cls-4{fill:#019d58;}.cls-5{fill:#09a05d;}.cls-6{fill:#f8fbfa;}.cls-7{fill:#f9fcfa;}.cls-8{fill:#f7fbf9;}.cls-9{fill:#fcfdfc;}.cls-10{fill:#e6f5ee;}.cls-11{fill:#fdfdfd;}.cls-12{fill:#017ac2;}.cls-13{fill:#f8fbfb;}.cls-14{fill:#f6fafb;}</style></defs><title>Icons_Hikster_2_colors_V2</title><g id="U8K1GV"><path class="cls-1" d="M175,0H45c-2.64,0-2.64,0-2.64,2.64q0,116.13,0,232.25a43.15,43.15,0,0,0,3.56,17.49c5,11.47,12.54,21.17,21,30.18,19.08,20.33,41.2,36.73,65.37,50.39,12.43,7,25.3,13.1,39.17,16.76a6.88,6.88,0,0,0,3.85-.06c6.24-1.82,12.35-4,18.39-6.39,25.39-10,49.56-22.31,71.32-39,12.17-9.35,23.1-19.95,31.38-33.05a71,71,0,0,0,11.37-38.88q-0.2-114.94,0-229.88c0-2.07-.57-2.46-2.51-2.46Q240.07,0.09,175,0Z"/><path class="cls-2" d="M175,0q65.1,0,130.2,0c1.94,0,2.51.39,2.51,2.46q-0.09,114.94,0,229.88a71,71,0,0,1-11.37,38.88c-8.27,13.11-19.2,23.7-31.38,33.05-21.76,16.71-45.93,29-71.32,39-6,2.38-12.15,4.58-18.39,6.39a6.88,6.88,0,0,1-3.85.06C157.52,346.1,144.66,340,132.22,333c-24.17-13.66-46.29-30.06-65.37-50.39-8.45-9-16-18.72-21-30.18a43.15,43.15,0,0,1-3.56-17.49q0.05-116.13,0-232.25C42.33,0,42.33,0,45,0H175Zm-34.88,96.1q43.82,0,87.64,0c1.59,0,2.09-.33,2.09-2q-0.08-41.57,0-83.14c0-1.79-.5-2.14-2.18-2.14q-87.54.07-175.08,0c-1.58,0-2.1.33-2.1,2q0.08,41.57,0,83.14c0,1.82.52,2.14,2.19,2.13Q96.37,96.11,140.09,96.15ZM296.85,52.92c0-13.86,0-27.71,0-41.57,0-1.59-.46-1.95-2-1.94q-26.88.08-53.76,0c-1.6,0-2.09.34-2.09,2q0.08,41.47,0,82.94c0,1.59.46,1.94,2,1.94q26.88-.08,53.76,0c1.86,0,2.1-.61,2.09-2.24C296.82,80.37,296.85,66.64,296.85,52.92ZM175.43,106.33q-61.06,0-122.13,0c-1.9,0-2.37.47-2.37,2.39q0.09,62.27,0,124.55a38.91,38.91,0,0,0,2.94,15c5.11,12.58,13.36,22.94,22.76,32.46,15.94,16.12,34.22,29.13,53.74,40.45,11.15,6.46,22.58,12.33,34.85,16.43a24.39,24.39,0,0,0,15.06.36c13.85-4.06,27-9.89,39.76-16.5,19-9.85,37-21.35,52.58-36.26,9-8.56,16.76-18,22-29.42a52.41,52.41,0,0,0,5-22.35c-0.15-41.58-.09-83.16,0-124.74,0-2-.53-2.34-2.39-2.34Q236.3,106.37,175.43,106.33Z"/><path class="cls-3" d="M140.09,96.15q-43.72,0-87.44,0c-1.67,0-2.2-.32-2.19-2.13q0.1-41.57,0-83.14c0-1.7.52-2,2.1-2q87.54,0.06,175.08,0c1.69,0,2.19.35,2.18,2.14q-0.1,41.57,0,83.14c0,1.7-.5,2-2.09,2Q183.91,96.11,140.09,96.15ZM123.7,32.57c4.16-2.45,5.51-5.86,4.21-10.69a6.18,6.18,0,0,0-6.43-5c-3.15,0-6.3.07-9.44,0-1.5-.05-2,0.32-2,1.93,0.09,8.18,0,16.35,0,24.53,0,4.62,0,4.57,4.66,4.54,1.18,0,1.59-.28,1.55-1.53-0.09-2.9-.11-5.81,0-8.7,0-.86-0.89-2.24.73-2.61a4.09,4.09,0,0,1,4.58,1.89,7,7,0,0,1,.51,2.9c0,1.71,0,3.43,0,5.14,0.12,2.78.24,2.88,2.92,2.88,0.85,0,1.71,0,2.56,0s1-.27.92-1.14a62.46,62.46,0,0,1-.47-7.89C128.11,35.18,127.05,33.75,123.7,32.57Zm24.94,42c5.18-2.13,5.2-6.92,4.35-10.65a5.91,5.91,0,0,0-6.17-5c-3.28-.09-6.57.05-9.85-0.09-1.58-.07-1.8.54-1.79,1.92,0.06,8.18,0,16.37,0,24.55,0,4.63,0,4.57,4.65,4.56,1.4,0,1.6-.54,1.58-1.74-0.07-3.23,0-6.47,0-9.7,0-.52-0.26-1.16.66-1.39a3.87,3.87,0,0,1,5,3.35c0.21,1.89.12,3.82,0.17,5.73,0.1,3.71.11,3.71,3.71,3.71,0.53,0,1.05,0,1.58,0,0.91,0.08,1.33-.18,1.15-1.21a59.81,59.81,0,0,1-.44-8.29C153.15,77.05,152,75.58,148.64,74.55Zm4.2-42.28c0-1.91,0-3.83,0-5.74A17.72,17.72,0,0,0,152.5,24c-0.73-4.21-3-6.73-6.62-7.39a15.46,15.46,0,0,0-4.7-.18c-4.63.57-7.22,2.83-7.89,7.43a58,58,0,0,0,0,17c0.64,4.29,3.13,6.67,7.15,7.34,7.19,1.19,11.18-1.73,12.25-9A43.48,43.48,0,0,0,152.84,32.27Zm11.47-3.53h-0.06q0-3.66,0-7.32c0-4.93,0-4.89-5-4.58a1,1,0,0,0-1.19,1.3c0,7.19,0,14.37.08,21.56a8.05,8.05,0,0,0,4,7.27c7.5,4.38,15.77-.28,15.83-8.94,0-5.6,0-11.21,0-16.81,0-4.39,0-4.33-4.44-4.37-1.37,0-1.76.35-1.75,1.74,0.08,6.39,0,12.79,0,19.18a10.13,10.13,0,0,1-.47,3.51,3.24,3.24,0,0,1-3.11,2.3c-2.3.11-3.79-1.24-3.89-4C164.21,36,164.31,32.37,164.31,28.74ZM94.22,47.82H95c2.6,0,2.61,0,2-2.46q-3-11.88-6.06-23.75c-1.21-4.74-1.22-4.74-6.18-4.74a10,10,0,0,1-1.38,0c-1.33-.19-2,0.24-2.26,1.69-0.41,2.2-1.11,4.34-1.68,6.5-1.84,7-3.63,14-5.54,21-0.4,1.48-.07,1.78,1.37,1.77,4.27,0,4.42.05,5.27-4.26,0.44-2.23,1.41-2.9,3.54-2.63,1.74,0.22,3.92-.47,5.18.36s1.08,3.23,1.48,5c0.26,1.11.65,1.79,1.93,1.57A9.36,9.36,0,0,1,94.22,47.82Zm6.37,32.57h-0.38c-1.14-5.68-2.27-11.36-3.44-17-1-4.65-1-4.6-5.78-4.55-1.24,0-1.54.22-1.22,1.54,1.93,8,3.73,16,5.63,24,0.42,1.77.19,4.2,1.53,5.12s3.42,0.15,5.18.32c1.42,0.14,1.9-.44,2.22-1.75,2-8.25,4.06-16.49,6.12-24.73,1.22-4.87,1.23-4.84-3.83-4.53A1.28,1.28,0,0,0,105.21,60c-0.46,2.32-1,4.63-1.55,6.94Zm103.26-48c0,4.62,0,9.24,0,13.86,0,1.19.3,1.6,1.54,1.58,3.94-.07,7.88,0,11.82,0,3.1,0,3,0,3.07-3.18,0-1.29-.35-1.73-1.66-1.67-2.36.1-4.73,0-7.09,0-1.06,0-1.54-.21-1.49-1.4,0.09-2.11.08-4.22,0-6.33,0-1.08.36-1.36,1.36-1.31,1.51,0.07,3,0,4.53,0,3.33,0,3.28,0,3.24-3.38,0-1.12-.32-1.49-1.44-1.45-2.16.08-4.33,0-6.5,0-0.79,0-1.22-.14-1.19-1.07,0.06-1.78.05-3.56,0-5.34a0.92,0.92,0,0,1,1.14-1.12c1.84,0,3.68,0,5.51,0,3.25,0,3.18,0,3.23-3.21,0-1.33-.4-1.65-1.66-1.63-4.27.07-8.54,0.09-12.8,0-1.37,0-1.63.48-1.62,1.71C203.89,23.17,203.86,27.79,203.86,32.41ZM114.73,74.23c0,4.62.06,9.23,0,13.85,0,1.43.43,1.76,1.77,1.73,3.74-.09,7.48,0,11.22,0,3.47,0,3.42,0,3.31-3.53a1.11,1.11,0,0,0-1.38-1.32c-1.84.06-3.67,0-5.51,0-3.17,0-3.19,0-3.16-3.25,0-1.84-.61-4.29.32-5.34,1.08-1.23,3.58-.34,5.45-0.38,3.38-.07,3.33,0,3.29-3.38,0-1.15-.38-1.46-1.47-1.42-2.1.07-4.2,0-6.3,0-1.06,0-1.36-.34-1.31-1.36a40.92,40.92,0,0,0,0-4.75c-0.09-1.3.45-1.54,1.59-1.5,2.23,0.08,4.46,0,6.69,0,1.17,0,1.73-.27,1.58-1.53a7.31,7.31,0,0,1,0-1.78c0.15-1.24-.38-1.57-1.56-1.55-4.33.06-8.66,0.07-13,0-1.25,0-1.53.41-1.51,1.58C114.76,65,114.73,69.62,114.73,74.23Zm64.13,0c0,4.68,0,9.37,0,14.05,0,1.22.36,1.57,1.56,1.55,3.87-.07,7.74,0,11.62,0,3.18,0,3.12,0,3.13-3.28,0-1.19-.27-1.62-1.52-1.57-2.36.1-4.73,0-7.09,0-1.15,0-1.67-.25-1.61-1.53,0.09-2,.09-4,0-5.93-0.05-1.19.29-1.64,1.53-1.58,2.1,0.09,4.2,0,6.3,0,0.48,0,1.18.18,1.19-.62,0-1.3.26-2.76-.22-3.86-0.32-.73-1.81-0.15-2.77-0.26h-0.2c-1.88-.14-4.39.84-5.47-0.38S185,67,184.94,65.07v-0.2c-0.11-.95.3-1.28,1.24-1.25,2.1,0.05,4.21-.13,6.3.06s2.61-.56,2.29-2.41a2.58,2.58,0,0,1,0-.79c0.18-1.26-.27-1.71-1.6-1.68-4.26.08-8.53,0.07-12.8,0-1.2,0-1.57.32-1.55,1.55C178.9,65,178.86,69.59,178.86,74.21ZM187.73,35q0,4.35,0,8.7c0,4.16,0,4.07,4,4.19,1.7,0.05,2.21-.34,2.18-2.14-0.12-7.32,0-14.64-.08-22,0-1.38.35-1.88,1.74-1.75s2.62,0,3.93,0a0.93,0.93,0,0,0,1.14-1.14c0-1,0-2,0-3a0.85,0.85,0,0,0-1-1.08c-5.9,0-11.81,0-17.71,0-0.44,0-1-.07-1,0.6,0,1.44-.49,3,0.23,4.25,0.49,0.82,2,.21,3,0.3a11.5,11.5,0,0,0,2.16,0c1.16-.13,1.43.38,1.41,1.47C187.7,27.32,187.73,31.14,187.73,35Zm-25,42q0,4.35,0,8.7c0,4.14,0,4.06,4,4.17,1.6,0,2.11-.35,2.09-2-0.1-6.86,0-13.71,0-20.57,0-3.17,0-3.17,3.23-3.17,3.78,0,3.74,0,3.6-3.84a1.12,1.12,0,0,0-1.37-1.34q-8.56.06-17.12,0c-0.91,0-1.35.24-1.25,1.22a7.75,7.75,0,0,1,0,1.78c-0.23,1.65.24,2.48,2.09,2.21,1.09-.16,2.23,0,3.34,0s1.44,0.35,1.42,1.46C162.69,69.3,162.73,73.12,162.73,76.95ZM57.46,32.28c0,4.42.12,8.85-.05,13.26-0.08,2,.58,2.41,2.41,2.32,3.08-.16,6.17,0,9.26,0,3.65,0,3.57,0,3.6-3.63,0-1.4-.52-1.63-1.72-1.58-1.84.08-3.68-.08-5.51,0.05-1.52.11-2-.33-2-1.94,0.1-6.47,0-12.94,0-19.4,0-4.55,0-4.5-4.54-4.46-1.24,0-1.54.38-1.52,1.57C57.5,23,57.46,27.66,57.46,32.28ZM203.85,63.85l-0.36.05c-0.3-1.34-.65-2.67-0.89-4s-1.36-.87-2.16-1-1,.47-1,1.22c0,2.24,0,4.48,0,6.72,0,0.65.07,1.16,0.92,1.16s1-.47,1-1.14c0-1.12,0-2.25,0-3.37a10.47,10.47,0,0,1,1.19,3.37,1.07,1.07,0,0,0,1,1.16,1.17,1.17,0,0,0,1.29-1.15,17.11,17.11,0,0,1,1.3-4.39c0,1.59,0,2.77,0,4,0,0.64-.34,1.54.88,1.58s1-.81,1-1.5c0-2,0-4,0-5.93,0-.71.35-1.71-1-1.68-1,0-2.11-.27-2.28,1.36A27.74,27.74,0,0,1,203.85,63.85Zm5.52-.42c0,1.12,0,2.23,0,3.35A1,1,0,0,0,210,68c3.08,0.9,5.15-.62,5.18-3.89,0-.66,0-1.31,0-2-0.14-2.75-1-3.29-4.36-3.26-2.62,0-1.11,1.94-1.46,3A5.25,5.25,0,0,0,209.36,63.43Z"/><path class="cls-4" d="M296.85,52.92c0,13.72,0,27.45,0,41.17,0,1.62-.23,2.24-2.09,2.24q-26.88-.13-53.76,0c-1.51,0-2-.35-2-1.94q0.08-41.47,0-82.94c0-1.68.49-2,2.09-2q26.88,0.09,53.76,0c1.52,0,2,.35,2,1.94C296.82,25.2,296.85,39.06,296.85,52.92Zm-21.93-1.74c1.94-.89,3.56-1.79,4.51-3.48a11.28,11.28,0,0,0-.33-12.19c-2.79-4.37-7.29-4.56-11.79-3.81-4.2.7-6.63,3.5-7.58,7.61s-0.73,4.28,3.4,4.17c1,0,1.39-.23,1.4-1.3a9.35,9.35,0,0,1,.85-3.84,5.26,5.26,0,0,1,5.32-3,4.6,4.6,0,0,1,4.52,3.46c1.55,5-.17,11.6-7,10.67a1,1,0,0,0-1.34.46c-0.8,1.81.18,3.47,2.12,3.47,3.06,0,5.91.63,7.16,3.79A10.67,10.67,0,0,1,275,67.91a4.67,4.67,0,0,1-3,1.73c-4.06.79-7.39-1.53-7.89-5.92-0.22-1.95-1-2.25-2.6-2.07a5,5,0,0,1-1.18,0c-1.36-.17-1.83.24-1.64,1.75,0.82,6.53,4.6,10.06,11.28,10.36,6.22,0.28,10.65-3.11,11.8-9C283.19,57.53,281.2,53.46,274.92,51.17Z"/><path class="cls-5" d="M175.43,106.33q60.87,0,121.74,0c1.85,0,2.39.38,2.39,2.34-0.06,41.58-.13,83.16,0,124.74a52.41,52.41,0,0,1-5,22.35c-5.21,11.39-13,20.85-22,29.42C257,300.05,239.06,311.54,220,321.4c-12.78,6.62-25.9,12.45-39.76,16.5a24.39,24.39,0,0,1-15.06-.36c-12.27-4.1-23.7-10-34.85-16.43-19.52-11.32-37.81-24.33-53.74-40.45-9.4-9.51-17.65-19.88-22.76-32.46a38.91,38.91,0,0,1-2.94-15q0.17-62.27,0-124.55c0-1.91.47-2.39,2.37-2.39Q114.37,106.37,175.43,106.33Zm-0.12,3.93q-59,0-118,0c-2,0-2.48.46-2.48,2.48,0.07,39.73.14,79.46,0,119.19a41.54,41.54,0,0,0,4.44,18.81c5.48,11.23,13.39,20.63,22.24,29.27,16.22,15.82,34.63,28.64,54.3,39.69,9.86,5.54,19.94,10.57,30.7,14.17a21,21,0,0,0,13.11.18,216.88,216.88,0,0,0,35.47-14.52c19-9.54,36.9-20.69,52.62-35.14,9.56-8.79,17.94-18.54,23.41-30.51a47.56,47.56,0,0,0,4.52-20.25q-0.21-60.49,0-121c0-1.87-.38-2.39-2.32-2.39Q234.3,110.3,175.31,110.25Z"/><path class="cls-6" d="M123.7,32.57c3.35,1.18,4.41,2.61,4.41,6.23a62.46,62.46,0,0,0,.47,7.89c0.11,0.87,0,1.2-.92,1.14s-1.7,0-2.56,0c-2.68,0-2.81-.09-2.92-2.88-0.07-1.71,0-3.43,0-5.14a7,7,0,0,0-.51-2.9A4.09,4.09,0,0,0,117.05,35c-1.63.38-.69,1.75-0.73,2.61-0.13,2.9-.11,5.8,0,8.7,0,1.25-.37,1.52-1.55,1.53-4.66,0-4.66.07-4.66-4.54,0-8.18,0-16.35,0-24.53,0-1.61.49-2,2-1.93,3.14,0.11,6.3,0,9.44,0a6.18,6.18,0,0,1,6.43,5C129.21,26.71,127.87,30.12,123.7,32.57Zm-7.43-6.83c0,1.11,0,2.23,0,3.34a0.93,0.93,0,0,0,.36,1c1.36,0.75,4.21-.28,4.85-1.82a6.75,6.75,0,0,0,.36-4c-0.44-2.16-1.54-2.8-4.48-2.55-2.08.17-.73,1.79-1.07,2.69A4,4,0,0,0,116.27,25.74Z"/><path class="cls-6" d="M148.64,74.55c3.31,1,4.51,2.5,4.62,5.74a59.81,59.81,0,0,0,.44,8.29c0.18,1-.24,1.29-1.15,1.21-0.52,0-1,0-1.58,0-3.6,0-3.6,0-3.71-3.71-0.05-1.91,0-3.84-.17-5.73a3.87,3.87,0,0,0-5-3.35c-0.92.23-.65,0.87-0.66,1.39,0,3.23-.06,6.47,0,9.7,0,1.2-.18,1.74-1.58,1.74-4.65,0-4.65.08-4.65-4.56,0-8.18,0-16.37,0-24.55,0-1.39.21-2,1.79-1.92,3.28,0.14,6.57,0,9.85.09a5.91,5.91,0,0,1,6.17,5C153.84,67.63,153.82,72.42,148.64,74.55Zm-5.43-10.89c-1.53-.39-1.92.38-1.82,1.9,0.12,1.77,0,3.55,0,5.32,0,0.48-.2,1.19.61,1.19,1.4,0,3,.49,4-0.9a6,6,0,0,0,.64-5.82C146.17,63.74,144.78,63.55,143.21,63.66Z"/><path class="cls-7" d="M152.84,32.27a43.48,43.48,0,0,1-.15,6.91c-1.08,7.23-5.06,10.15-12.25,9-4-.67-6.51-3.05-7.15-7.34a58,58,0,0,1,0-17c0.67-4.6,3.26-6.86,7.89-7.43a15.46,15.46,0,0,1,4.7.18c3.66,0.67,5.89,3.19,6.62,7.39a17.72,17.72,0,0,1,.33,2.55C152.88,28.45,152.84,30.36,152.84,32.27Zm-13.78-.08a43.17,43.17,0,0,0,.47,8.08c0.48,2.27,1.49,3.29,3.27,3.32s3-.94,3.35-3.19a55.09,55.09,0,0,0,0-16.16C145.84,22,144.57,21,142.83,21s-2.81,1.12-3.29,3.33A40.43,40.43,0,0,0,139.06,32.19Z"/><path class="cls-8" d="M164.31,28.74c0,3.63-.1,7.25,0,10.87,0.1,2.72,1.59,4.08,3.89,4a3.24,3.24,0,0,0,3.11-2.3,10.13,10.13,0,0,0,.47-3.51c0-6.39,0-12.79,0-19.18,0-1.4.38-1.76,1.75-1.74,4.44,0,4.44,0,4.44,4.37,0,5.6,0,11.21,0,16.81-0.05,8.66-8.32,13.32-15.83,8.94a8.05,8.05,0,0,1-4-7.27c-0.11-7.18,0-14.37-.08-21.56a1,1,0,0,1,1.19-1.3c5-.32,5-0.35,5,4.58q0,3.66,0,7.32h0.06Z"/><path class="cls-6" d="M94.22,47.82a9.37,9.37,0,0,0-1.57,0c-1.28.22-1.67-.46-1.93-1.57-0.4-1.72-.19-4.1-1.48-5S85.8,41.18,84.06,41c-2.13-.27-3.1.4-3.54,2.63-0.85,4.31-1,4.23-5.27,4.26-1.44,0-1.78-.29-1.37-1.77,1.91-7,3.7-14,5.54-21,0.57-2.17,1.27-4.31,1.68-6.5,0.27-1.45.94-1.87,2.26-1.69a10,10,0,0,0,1.38,0c5,0,5,0,6.18,4.74Q94,33.48,97,45.36c0.63,2.46.61,2.46-2,2.46H94.22ZM85,23.94c-0.6,2.85-1.17,5.55-1.73,8.24-0.85,4.09-.85,4,3.29,4,1.52,0,1.57-.62,1.3-1.77-0.67-2.88-1.28-5.78-1.95-8.67A2.09,2.09,0,0,0,85,23.94Z"/><path class="cls-7" d="M100.59,80.39L103.66,67c0.53-2.31,1.09-4.62,1.55-6.94a1.28,1.28,0,0,1,1.42-1.22c5.05-.31,5-0.34,3.83,4.53-2.06,8.24-4.13,16.48-6.12,24.73-0.32,1.31-.8,1.89-2.22,1.75-1.75-.17-4,0.52-5.18-0.32s-1.11-3.35-1.53-5.12c-1.9-8-3.7-16-5.63-24-0.32-1.32,0-1.53,1.22-1.54,4.79-.06,4.82-0.1,5.78,4.55,1.17,5.67,2.29,11.36,3.44,17h0.38Z"/><path class="cls-6" d="M203.86,32.41c0-4.62,0-9.24,0-13.86,0-1.23.24-1.74,1.62-1.71,4.27,0.09,8.54.08,12.8,0,1.26,0,1.68.3,1.66,1.63-0.05,3.2,0,3.21-3.23,3.21-1.84,0-3.68,0-5.51,0A0.92,0.92,0,0,0,210,22.79c0.05,1.78.06,3.56,0,5.34,0,0.93.4,1.08,1.19,1.07,2.17,0,4.34,0,6.5,0,1.13,0,1.43.33,1.44,1.45,0,3.38.09,3.38-3.24,3.38-1.51,0-3,.05-4.53,0-1,0-1.4.23-1.36,1.31,0.08,2.11.09,4.23,0,6.33-0.05,1.19.43,1.43,1.49,1.4,2.36-.07,4.73.05,7.09,0,1.31-.06,1.67.38,1.66,1.67,0,3.18,0,3.18-3.07,3.18-3.94,0-7.88,0-11.82,0-1.23,0-1.55-.39-1.54-1.58C203.89,41.65,203.86,37,203.86,32.41Z"/><path class="cls-2" d="M114.73,74.23c0-4.62,0-9.23,0-13.85,0-1.18.27-1.61,1.51-1.58,4.33,0.07,8.66.06,13,0,1.18,0,1.71.31,1.56,1.55a7.31,7.31,0,0,0,0,1.78c0.16,1.26-.41,1.57-1.58,1.53-2.23-.08-4.46,0-6.69,0-1.14,0-1.69.19-1.59,1.5a40.92,40.92,0,0,1,0,4.75c0,1,.25,1.39,1.31,1.36,2.1-.08,4.2,0,6.3,0,1.09,0,1.46.27,1.47,1.42,0,3.36.1,3.31-3.29,3.38-1.88,0-4.37-.85-5.45.38-0.93,1.06-.31,3.51-0.32,5.34,0,3.25,0,3.25,3.16,3.25,1.84,0,3.68,0,5.51,0A1.11,1.11,0,0,1,131,86.26c0.11,3.53.16,3.53-3.31,3.53-3.74,0-7.48-.06-11.22,0-1.35,0-1.8-.3-1.77-1.73C114.79,83.47,114.73,78.85,114.73,74.23Z"/><path class="cls-9" d="M178.86,74.21c0-4.62,0-9.24,0-13.85,0-1.23.35-1.57,1.55-1.55,4.26,0.07,8.53.08,12.8,0,1.33,0,1.78.43,1.6,1.68a2.58,2.58,0,0,0,0,.79c0.32,1.85-.31,2.59-2.29,2.41s-4.2,0-6.3-.06c-0.94,0-1.35.31-1.24,1.25v0.2c0.1,2-.8,4.46.34,5.74s3.59,0.24,5.47.38h0.2c1,0.11,2.46-.46,2.77.26,0.49,1.11.24,2.56,0.22,3.86,0,0.81-.71.62-1.19,0.62-2.1,0-4.2.08-6.3,0-1.24-.06-1.58.4-1.53,1.58,0.08,2,.09,4,0,5.93-0.06,1.28.46,1.56,1.61,1.53,2.36-.07,4.73.05,7.09,0,1.25-.05,1.53.38,1.52,1.57,0,3.28,0,3.28-3.13,3.28-3.87,0-7.74,0-11.62,0-1.2,0-1.57-.32-1.56-1.55C178.9,83.57,178.86,78.89,178.86,74.21Z"/><path class="cls-8" d="M187.73,35c0-3.82,0-7.65,0-11.47,0-1.08-.26-1.59-1.41-1.47a11.5,11.5,0,0,1-2.16,0c-1-.08-2.49.53-3-0.3-0.72-1.2-.24-2.81-0.23-4.25,0-.67.58-0.6,1-0.6,5.9,0,11.81,0,17.71,0a0.85,0.85,0,0,1,1,1.08c0,1,0,2,0,3a0.93,0.93,0,0,1-1.14,1.14c-1.31,0-2.63.08-3.93,0s-1.75.37-1.74,1.75c0.07,7.32,0,14.64.08,22,0,1.8-.48,2.19-2.18,2.14-4-.12-4,0-4-4.19Q187.73,39.32,187.73,35Z"/><path class="cls-9" d="M162.73,76.95c0-3.82,0-7.65,0-11.47,0-1.1-.28-1.55-1.42-1.46s-2.25-.11-3.34,0c-1.85.27-2.32-.56-2.09-2.21a7.75,7.75,0,0,0,0-1.78c-0.09-1,.35-1.22,1.25-1.22q8.56,0,17.12,0a1.12,1.12,0,0,1,1.37,1.34C175.78,64,175.82,64,172,64c-3.23,0-3.23,0-3.23,3.17,0,6.86-.06,13.72,0,20.57,0,1.68-.49,2.08-2.09,2-4-.11-4,0-4-4.17Q162.73,81.3,162.73,76.95Z"/><path class="cls-9" d="M57.46,32.28c0-4.62,0-9.24,0-13.86,0-1.19.29-1.56,1.52-1.57,4.54,0,4.54-.09,4.54,4.46,0,6.47.06,12.94,0,19.4,0,1.61.47,2,2,1.94,1.83-.13,3.68,0,5.51-0.05,1.19-.05,1.73.19,1.72,1.58,0,3.63,0,3.63-3.6,3.63-3.09,0-6.18-.11-9.26,0-1.84.09-2.49-.32-2.41-2.32C57.58,41.12,57.46,36.7,57.46,32.28Z"/><path class="cls-10" d="M203.85,63.85a27.74,27.74,0,0,0,.85-3.6c0.17-1.62,1.26-1.34,2.28-1.36,1.34,0,1,1,1,1.68,0,2,0,4,0,5.93,0,0.69.2,1.53-1,1.5s-0.85-.93-0.88-1.58c0-1.18,0-2.37,0-4a17.11,17.11,0,0,0-1.3,4.39A1.17,1.17,0,0,1,203.51,68a1.07,1.07,0,0,1-1-1.16,10.47,10.47,0,0,0-1.19-3.37c0,1.12,0,2.25,0,3.37,0,0.67-.12,1.14-1,1.14s-0.93-.5-0.92-1.16c0-2.24,0-4.48,0-6.72,0-.75.1-1.35,1-1.22s1.91-.49,2.16,1,0.59,2.68.89,4Z"/><path class="cls-10" d="M209.36,63.43a5.27,5.27,0,0,1,0-1.57c0.34-1-1.16-3,1.46-3,3.4,0,4.22.51,4.36,3.26,0,0.66,0,1.31,0,2,0,3.27-2.1,4.79-5.18,3.89a1,1,0,0,1-.67-1.22C209.35,65.66,209.36,64.54,209.36,63.43Zm4-.44c0-.18,0-0.83-0.12-1.48a1.13,1.13,0,0,0-1.35-1.09c-0.78.07-.58,0.74-0.6,1.23a8,8,0,0,0,0,2.16c0.22,0.89-.85,2.48.7,2.58,1.79,0.12,1.1-1.68,1.34-2.71C213.34,63.66,213.34,63.53,213.34,63Z"/><path class="cls-8" d="M274.92,51.17c6.28,2.28,8.27,6.36,6.86,13.56-1.16,5.92-5.59,9.31-11.8,9-6.68-.3-10.46-3.83-11.28-10.36-0.19-1.5.28-1.91,1.64-1.75a5,5,0,0,0,1.18,0c1.57-.18,2.38.12,2.6,2.07,0.5,4.39,3.83,6.71,7.89,5.92a4.67,4.67,0,0,0,3-1.73,10.67,10.67,0,0,0,1.13-10.71C274.9,54,272,53.4,269,53.4c-1.93,0-2.92-1.66-2.12-3.47a1,1,0,0,1,1.34-.46c6.85,0.92,8.56-5.69,7-10.67a4.6,4.6,0,0,0-4.52-3.46,5.26,5.26,0,0,0-5.32,3,9.35,9.35,0,0,0-.85,3.84c0,1.08-.43,1.28-1.4,1.3-4.13.11-4.34-.09-3.4-4.17s3.38-6.9,7.58-7.61c4.5-.75,9-0.56,11.79,3.81a11.28,11.28,0,0,1,.33,12.19C278.48,49.39,276.86,50.28,274.92,51.17Z"/><path class="cls-11" d="M175.31,110.25q59,0,118,0c1.94,0,2.32.52,2.32,2.39q-0.09,60.49,0,121a47.56,47.56,0,0,1-4.52,20.25c-5.47,12-13.85,21.72-23.41,30.51C252,298.77,234,309.93,215.08,319.47A216.88,216.88,0,0,1,179.6,334a21,21,0,0,1-13.11-.18c-10.76-3.59-20.85-8.63-30.7-14.17-19.67-11-38.09-23.87-54.3-39.69-8.85-8.63-16.75-18-22.24-29.27a41.54,41.54,0,0,1-4.44-18.81c0.18-39.73.11-79.46,0-119.19,0-2,.51-2.48,2.48-2.48Q116.32,110.3,175.31,110.25Zm-59.83,32.24c-0.85-.06-1.7-0.1-2.55-0.19q-12.53-1.33-25.11-2.13c-0.5,0-1.16-.3-1.48.16s0.12,1.14.45,1.6c1.72,2.33,3.4,4.7,5.23,6.94a549.37,549.37,0,0,1,86.87,150c2.22,5.74,4.33,11.52,6.6,17.55L189,310q33.6-61.9,67.21-123.8c0.54-1,.7-1.57-0.4-2.37a141.77,141.77,0,0,0-34.44-18,3.38,3.38,0,0,1,.77-2q9.7-17.44,19.42-34.88c0.66-1.18,1.29-2.38,2.06-3.79h-1.47q-67.08,0-134.16,0c-1.74,0-1.87.38-1.06,1.82C109.83,132.07,112.64,137.29,115.48,142.49Z"/><path class="cls-3" d="M116.27,25.74a4.07,4.07,0,0,1,0-1.37c0.34-.9-1-2.52,1.07-2.69,2.94-.24,4,0.39,4.48,2.55a6.75,6.75,0,0,1-.36,4c-0.65,1.54-3.49,2.57-4.85,1.82a0.93,0.93,0,0,1-.36-1C116.26,28,116.27,26.86,116.27,25.74Z"/><path class="cls-3" d="M143.21,63.66c1.56-.1,3,0.08,3.49,1.69a6,6,0,0,1-.64,5.82c-1,1.39-2.62.89-4,.9-0.81,0-.61-0.71-0.61-1.19,0-1.77.08-3.56,0-5.32C141.29,64,141.68,63.27,143.21,63.66Z"/><path class="cls-3" d="M139.06,32.19a40.38,40.38,0,0,1,.48-7.88C140,22.09,141.12,21,142.83,21s3,1.06,3.33,3.27a55.09,55.09,0,0,1,0,16.16c-0.34,2.25-1.53,3.22-3.35,3.19s-2.8-1.05-3.27-3.32A43.12,43.12,0,0,1,139.06,32.19Z"/><path class="cls-5" d="M85,23.94a2.09,2.09,0,0,1,.92,1.81c0.67,2.88,1.28,5.78,1.95,8.67,0.27,1.15.22,1.77-1.3,1.77-4.14,0-4.14.09-3.29-4C83.82,29.48,84.39,26.79,85,23.94Z"/><path class="cls-5" d="M213.34,63c0,0.54,0,.61,0,0.61-0.25,1.1.44,2.89-1.35,2.77-1.55-.1-0.48-1.69-0.7-2.58a8,8,0,0,1,0-2.16c0-.49-0.18-1.15.6-1.23a1.13,1.13,0,0,1,1.35,1.09C213.29,62.15,213.32,62.81,213.34,63Z"/><path class="cls-12" d="M115.48,142.49c-2.84-5.2-5.64-10.42-8.54-15.58-0.81-1.44-.67-1.82,1.06-1.82q67.08,0.05,134.16,0h1.47c-0.76,1.41-1.4,2.6-2.06,3.79q-9.71,17.44-19.42,34.88a3.38,3.38,0,0,0-.77,2,2.45,2.45,0,0,0-1.18,1.5c-4.13,7.4-8.34,14.75-12.38,22.2-2.82,5.19-6,10.2-8.48,15.56-6.65.82-12.49-3.15-13.23-9.16-0.63-5.09.7-9.51,4.82-12.88s8.13-6.17,13.49-6.9a5.07,5.07,0,0,0-5.94-2,32.82,32.82,0,0,0-8.8,5.52c-6.56,5.59-8.51,12.7-6.89,21a15.59,15.59,0,0,0,4.9,8.81c2,1.82,4.6,2.45,7.07,3.31-0.34.71-.64,1.44-1,2.13-4,7.11-8,14.18-11.9,21.33a7.33,7.33,0,0,1-6.36,4.23c-3.33.21-6.12-.72-7.82-3.79-3.76-6.78-7.46-13.59-11.18-20.38A16.82,16.82,0,0,0,162.8,215c1.24-.44,2.45-1.27,2.22-2.63-0.18-1,.42-1.3.78-1.91,1.35-2.29,1.74-4.94,2.55-7.44a1.07,1.07,0,0,0-.3-0.45c-5.77,6.37-10.16,7.61-16.7,4.76l-0.44-.3v0c0.17-1.48-.94-2.42-1.56-3.53-2.28-4.15-4.37-8.4-7-12.36,0.23-2.83,1-5.67,3-7.52,3.54-3.18,6.59-7.21,11.8-8.15-0.85-1.31-1.71-1.07-2.73-.49-5.61,3.2-10.58,7-13.48,13.07a4.72,4.72,0,0,1-.63-0.74q-8.21-14.87-16.42-29.74C121.18,152.56,118.31,147.53,115.48,142.49Zm62,36.8a3.24,3.24,0,0,0-.27,2.28c-0.17-1.39,1.51-.86,1.7-1.86a7.7,7.7,0,0,0,1.12-3.33,6.31,6.31,0,0,1,1.71-3.34c1.22-1.26,3-2.16,3.37-4.24s0.95-4,1.34-6a9,9,0,0,0-3.81-9.53c-3-2.27-6.23-1.4-9.29.13a60.88,60.88,0,0,0-10,6.69c-1.44,1.12-3.16,2-4,3.68a1.52,1.52,0,0,0-.2,1.67c0.49,0.63,1.25.16,1.61-.08,2.05-1.4,4.55-1.73,6.68-3a16.73,16.73,0,0,1,6.68-2.21c3.53-.36,5.59,1.44,5.64,5a27.4,27.4,0,0,1-.22,3.15C179.12,172.1,178.16,175.67,177.46,179.29Zm1.17-41.61a15.6,15.6,0,0,0-8.85,3.78c-2.61,2.26-5.38,4.32-8,6.54a97,97,0,0,0-17.38,19.3,4.45,4.45,0,0,0-.82,1.78,1.24,1.24,0,0,0,.42,1.42,1.12,1.12,0,0,0,1.55-.45c0.9-1.29,1.75-2.63,2.62-3.95,1.59-2.44,3.21-4.91,5.73-6.44,7.77-4.7,14.76-10.71,23.37-14,1.92-.74,2.67-2.49,3.07-4.31,0.14-.63-0.82-1.7.82-1.06a0.32,0.32,0,0,0,.51-0.32,4.75,4.75,0,0,0-.07-0.76C180.14,139.52,179.62,137.73,178.63,137.68Zm-25.7,11.58a5.47,5.47,0,0,0,3.45-1.69c2.17-2,3.06-4.86,4.62-7.27,0.39-.6-0.68-2.42-1.27-2.4-5.81.22-7.84,1.8-9.63,7.5C149.27,148.1,150.13,149.28,152.94,149.26Z"/><path class="cls-4" d="M115.48,142.49c2.84,5,5.7,10.07,8.51,15.13q8.23,14.86,16.42,29.74a4.69,4.69,0,0,0,.64.74,26.9,26.9,0,0,0-1.09,16.65,12.6,12.6,0,0,0,5.78,8.14,22,22,0,0,0,10.75,3.3c3.72,6.8,7.42,13.61,11.18,20.38,1.7,3.07,4.49,4,7.82,3.79a7.33,7.33,0,0,0,6.36-4.23c3.91-7.14,7.94-14.22,11.9-21.33,0.38-.69.68-1.42,1-2.13,2.13,0.23,4.32,1.35,6.36.48s4.49-1.3,6.57-2.42c3.17-1.7,5.21-4.14,5.44-7.87a29.25,29.25,0,0,0,0-5.55c-0.44.41-.4,1.21-1.22,1a38.6,38.6,0,0,0-1.42-10.5A22.88,22.88,0,0,0,210,193c-0.36,6.28-5,11.54-10.7,12,2.51-5.36,5.66-10.37,8.48-15.56,4-7.45,8.24-14.81,12.38-22.2a2.45,2.45,0,0,1,1.18-1.5,141.75,141.75,0,0,1,34.43,18c1.1,0.8.94,1.37,0.4,2.37Q222.58,248.07,189,310l-3.51,6.44c-2.26-6-4.38-11.81-6.6-17.55A549.37,549.37,0,0,0,92,148.87c-1.83-2.24-3.51-4.61-5.23-6.94-0.34-.45-0.85-1-0.45-1.6s1-.19,1.48-0.16q12.58,0.81,25.11,2.13C113.77,142.39,114.63,142.43,115.48,142.49Z"/><path class="cls-13" d="M199.34,205c5.67-.47,10.34-5.72,10.7-12a22.88,22.88,0,0,1,.43-5.18,38.6,38.6,0,0,1,1.42,10.5c0.82,0.2.78-.59,1.22-1a29.25,29.25,0,0,1,0,5.55c-0.23,3.73-2.27,6.17-5.44,7.87-2.08,1.12-4.41,1.51-6.57,2.42s-4.23-.26-6.36-0.48c-2.47-.86-5.05-1.49-7.07-3.31a15.59,15.59,0,0,1-4.9-8.81c-1.62-8.29.33-15.4,6.89-21a32.82,32.82,0,0,1,8.8-5.52,5.07,5.07,0,0,1,5.94,2c-5.37.72-9.51,3.64-13.49,6.9s-5.45,7.79-4.82,12.88C186.85,201.87,192.69,205.85,199.34,205Z"/><path class="cls-14" d="M156.48,216.19a22,22,0,0,1-10.75-3.3,12.6,12.6,0,0,1-5.78-8.14A26.9,26.9,0,0,1,141,188.1c2.89-6,7.87-9.87,13.48-13.07,1-.58,1.89-0.82,2.73.49-5.21.94-8.26,5-11.8,8.15-2.05,1.84-2.82,4.68-3,7.52-0.21,1.69-.5,3.44.25,5,1.11,2.37,2.36,4.67,3.64,6.95a7.51,7.51,0,0,0,4.64,3.92v0a0.34,0.34,0,0,0,.44.3c6.54,2.85,10.92,1.61,16.7-4.76a1.07,1.07,0,0,1,.3.45c-0.81,2.49-1.2,5.15-2.55,7.44-0.36.61-1,.86-0.78,1.91,0.23,1.36-1,2.19-2.22,2.63A16.82,16.82,0,0,1,156.48,216.19Z"/><path class="cls-13" d="M177.46,179.29c0.7-3.62,1.66-7.19,2-10.87a27.4,27.4,0,0,0,.22-3.15c0-3.61-2.11-5.41-5.64-5a16.73,16.73,0,0,0-6.68,2.21c-2.13,1.24-4.63,1.56-6.68,3-0.35.24-1.12,0.71-1.61,0.08a1.52,1.52,0,0,1,.2-1.67c0.88-1.72,2.61-2.56,4-3.68a60.88,60.88,0,0,1,10-6.69c3.06-1.53,6.25-2.4,9.29-.13a9,9,0,0,1,3.81,9.53c-0.39,2-1,4-1.34,6s-2.14,3-3.37,4.24a6.31,6.31,0,0,0-1.71,3.34,7.7,7.7,0,0,1-1.12,3.33A2.22,2.22,0,0,0,177.46,179.29Z"/><path class="cls-14" d="M178.63,137.68c1,0,1.5,1.84,3,1.51a4.75,4.75,0,0,1,.07.76,0.32,0.32,0,0,1-.51.32c-1.64-.64-0.68.43-0.82,1.06-0.4,1.82-1.15,3.57-3.07,4.31-8.6,3.31-15.6,9.32-23.37,14-2.53,1.53-4.14,4-5.73,6.44-0.86,1.32-1.71,2.65-2.62,3.95a1.12,1.12,0,0,1-1.55.45,1.24,1.24,0,0,1-.42-1.42,4.45,4.45,0,0,1,.82-1.78A97,97,0,0,1,161.77,148c2.64-2.22,5.4-4.28,8-6.54A15.6,15.6,0,0,1,178.63,137.68Z"/><path class="cls-13" d="M152.94,149.26c-2.81,0-3.67-1.16-2.82-3.86,1.78-5.7,3.81-7.28,9.63-7.5,0.6,0,1.66,1.79,1.27,2.4-1.56,2.41-2.46,5.26-4.62,7.27A5.47,5.47,0,0,1,152.94,149.26Z"/><path class="cls-1" d="M150.93,207.08a7.51,7.51,0,0,1-4.64-3.92c-1.29-2.27-2.53-4.58-3.64-6.95-0.74-1.59-.46-3.33-0.25-5,2.61,4,4.7,8.21,7,12.36C150,204.67,151.1,205.6,150.93,207.08Z"/><path class="cls-10" d="M177.46,179.29a2.22,2.22,0,0,1,1.43.42c-0.2,1-1.87.46-1.7,1.86A3.24,3.24,0,0,1,177.46,179.29Z"/><path class="cls-1" d="M151.36,207.37a0.34,0.34,0,0,1-.44-0.3Z"/></g></svg>