<svg id="Calque_1" data-name="Calque 1" xmlns="http://www.w3.org/2000/svg" viewBox="0 0 350 350"><defs><style>.cls-1{fill:#8ddc59;}.cls-2{fill:#6d6e71;}</style></defs><title>Icons_Hikster_2_colors</title><path class="cls-1" d="M20.5,219.88S32.6,280.6,86,313.64s65.78,21.57,65.78,21.57l-39.38-74.08Z"/><path class="cls-1" d="M330.67,219.88s-12.1,60.72-65.49,93.77-65.78,21.57-65.78,21.57l39.38-74.08Z"/><circle class="cls-1" cx="173.69" cy="124.77" r="40.33"/><path class="cls-2" d="M173.69,175.74a51,51,0,1,1,51-51A51,51,0,0,1,173.69,175.74Zm0-80.66a29.69,29.69,0,1,0,29.68,29.68A29.72,29.72,0,0,0,173.69,95.09Z"/><path class="cls-2" d="M174.18,249h-0.76c-23.62-.32-43.87-16.32-50.71-38.31a55.86,55.86,0,0,1-10.17.94c-30.15,0-54.69-24.2-54.69-53.95A53.44,53.44,0,0,1,69.4,124.52,53.31,53.31,0,0,1,57.84,91.37c0-29.76,24.54-54,54.69-54a55.7,55.7,0,0,1,10.15.94,53.75,53.75,0,0,1,103,0c19.53-4.15,40.5,2.67,53.36,18.55,16,19.72,15.41,48,.13,67.5a53.73,53.73,0,0,1-53.49,86.19A53.83,53.83,0,0,1,174.18,249ZM131,186.41a10.64,10.64,0,0,1,10.61,10c1,17.35,15.15,31.1,32.15,31.32h0.45c17.46,0,31.75-13.86,32.63-31.73a10.63,10.63,0,0,1,15.33-9c16.28,8.06,35.51,2.07,43.9-13.52a33,33,0,0,0-8.37-40.8,10.64,10.64,0,0,1-.06-16.34c13.85-11.63,16.06-32.28,4.94-46C253,58.53,236,55,222.19,62a10.63,10.63,0,0,1-15.38-9c-0.86-17.79-15.21-31.71-32.63-31.71-17.24,0-31.57,13.77-32.63,31.37a10.62,10.62,0,0,1-15,9,33.59,33.59,0,0,0-14-3c-18.43,0-33.42,14.67-33.42,32.69a32.26,32.26,0,0,0,11.87,25,10.62,10.62,0,0,1,0,16.39,32.36,32.36,0,0,0-11.87,25c0,18,15,32.67,33.42,32.67a33.94,33.94,0,0,0,14-3A10.68,10.68,0,0,1,131,186.41Z"/><path class="cls-2" d="M32,232.05c74,15.78,99.53,63.28,108.32,93.14C66.83,310.71,41,262.6,32,232.05M5.85,206.72S10,338.86,166.13,350c0,0-2.84-129.17-160.28-143.28h0Z"/><path class="cls-2" d="M318,232.05c-9.05,30.55-34.86,78.65-108.3,93.14,8.8-29.91,34.33-77.37,108.3-93.14m26.11-25.34C186.72,220.83,183.87,350,183.87,350,340,338.86,344.15,206.72,344.15,206.72h0Z"/></svg>