<svg id="Calque_1" data-name="Calque 1" xmlns="http://www.w3.org/2000/svg" viewBox="0 0 350 350"><defs><style>.cls-1{fill:#6d6e71;}.cls-2{fill:#8ddc59;}</style></defs><title>Icons_Hikster_2_colors</title><path class="cls-1" d="M175,21.76c84.5,0,153.24,68.74,153.24,153.24S259.5,328.24,175,328.24,21.76,259.5,21.76,175,90.5,21.76,175,21.76M175,0A175,175,0,1,0,350,175,175,175,0,0,0,175,0h0Z"/><path class="cls-2" d="M263,186.77H174.5a10.88,10.88,0,0,1-10.88-10.89V66.23a10.88,10.88,0,1,1,21.76,0V165H263A10.89,10.89,0,0,1,263,186.77Z"/></svg>