<svg id="Calque_1" data-name="Calque 1" xmlns="http://www.w3.org/2000/svg" viewBox="0 0 350 350"><defs><style>.cls-1{fill:#8ddc59;}.cls-2{fill:#6d6e71;}</style></defs><title>Icons_Hikster_2_colors</title><path class="cls-1" d="M138.09,350A112.79,112.79,0,0,1,25.43,237.34c0-56.49,42.19-104.53,98.12-111.74a9.32,9.32,0,1,1,2.39,18.48,94,94,0,1,0,106.18,93.26,9.32,9.32,0,0,1,18.64,0A112.79,112.79,0,0,1,138.09,350Z"/><path class="cls-2" d="M138.23,72.86a36.43,36.43,0,1,1,36.42-36.44A36.49,36.49,0,0,1,138.23,72.86Zm0-54.23A17.8,17.8,0,1,0,156,36.42,17.82,17.82,0,0,0,138.23,18.64Z"/><path class="cls-2" d="M315.26,299.65H268.31a9.32,9.32,0,0,1-8.66-5.89l-26.09-65.92H138.23a9.32,9.32,0,0,1-9.32-9.32V100a9.32,9.32,0,0,1,18.64,0V209.2h92.33a9.32,9.32,0,0,1,8.66,5.89L274.64,281h40.62A9.32,9.32,0,0,1,315.26,299.65Z"/></svg>