<svg id="Calque_1" data-name="Calque 1" xmlns="http://www.w3.org/2000/svg" viewBox="0 0 350 350"><defs><style>.cls-1{fill:#6d6e71;}.cls-2{fill:#8ddc59;}</style></defs><title>Icons_Hikster_2_colors_V2</title><path class="cls-1" d="M175,19.07C261,19.07,330.93,89,330.93,175S261,330.93,175,330.93,19.07,261,19.07,175,89,19.07,175,19.07M175,0A175,175,0,1,0,350,175,175,175,0,0,0,175,0h0Z"/><path class="cls-1" d="M175,266.85A91.86,91.86,0,1,1,266.85,175,92,92,0,0,1,175,266.85Zm0-164.63A72.78,72.78,0,1,0,247.79,175,72.86,72.86,0,0,0,175,102.22Z"/><path class="cls-2" d="M174.93,224.72a9.54,9.54,0,0,1-9.53-9.54V134.9a9.53,9.53,0,1,1,19.07,0v80.27A9.54,9.54,0,0,1,174.93,224.72Z"/><path class="cls-2" d="M214.88,184.58H134.62a9.54,9.54,0,0,1,0-19.08h80.27A9.54,9.54,0,0,1,214.88,184.58Z"/></svg>