<svg id="Calque_1" data-name="Calque 1" xmlns="http://www.w3.org/2000/svg" viewBox="0 0 350 350"><defs><style>.cls-1{fill:#6d6e71;}</style></defs><title>Icons_Hikster_2_colors</title><path class="cls-1" d="M175,272.25a10.8,10.8,0,0,1-10.8-10.81V209.66a10.8,10.8,0,1,1,21.6,0v51.78A10.8,10.8,0,0,1,175,272.25Z"/><path class="cls-1" d="M275.11,121.1H109.44V87.16A65.5,65.5,0,0,1,229.32,50.61a10.8,10.8,0,0,0,17.89-12.12A87.09,87.09,0,0,0,87.85,87.16V121.1h-13a20.14,20.14,0,0,0-20.12,20.12V329.89A20.13,20.13,0,0,0,74.89,350H275.11a20.13,20.13,0,0,0,20.12-20.11V141.22A20.14,20.14,0,0,0,275.11,121.1Zm-1.48,207.29H76.37V142.71H273.63V328.39Z"/></svg>