<?xml version="1.0" encoding="utf-8"?>
<!-- Generator: Adobe Illustrator 19.2.1, SVG Export Plug-In . SVG Version: 6.00 Build 0)  -->
<svg version="1.1" id="Calque_1" xmlns="http://www.w3.org/2000/svg" xmlns:xlink="http://www.w3.org/1999/xlink" x="0px" y="0px"
	 viewBox="0 0 350 350" style="enable-background:new 0 0 350 350;" xml:space="preserve">
<style type="text/css">
	.st0{fill:#6D6E71;}
	.st1{fill:#8DDC59;}
</style>
<title>Icons_Hikster_2_colors</title>
<path class="st0" d="M193.5,89C168.9,89,149,69,149,44.5C149,19.9,169,0,193.5,0C218.1,0,238,19.9,238,44.5
	C238,69.1,218,89,193.5,89z M193.5,18C178.8,18,167,29.9,167,44.5c0,14.6,11.9,26.5,26.5,26.5c14.6,0,26.5-11.8,26.5-26.5
	C219.9,29.9,208.1,18,193.5,18z"/>
<path class="st0" d="M227.6,350c-16.7,0.1-31.5-10.6-36.8-26.4l-15.1-45.9l-15.1,45.9c-6.8,20.1-28.5,31-48.7,24.6
	c-9.8-3.1-17.9-10-22.6-19.1c-4.6-9-5.5-19.5-2.3-29.1l49.7-176.1C144,104.2,157.1,95,177.1,95c3.9,0,7.8,0.5,11.5,1.6
	c1,0.2,7.4,2.1,16.1,8.3l82.3,60.4c9.1,6.5,14.5,17,14.7,28.1c0.1,8.9-1.2,18.4-11.4,27.6c-9.7,8.8-28,12.5-45.3-0.1l-15.2-11.2
	l34.4,89.7c3.3,9.7,2.5,20.3-2.1,29.5C255.4,341.9,242.1,350,227.6,350z M175.8,239.9c3.9,0,7.3,2.5,8.6,6.2L208,318
	c3.4,10.4,15.3,16.5,26,13c5.2-1.6,9.6-5.3,12.1-10.2c2.4-4.7,2.9-10.2,1.2-15.2l-45.3-118c-1.8-4.6,0.5-9.8,5.1-11.7
	c2.9-1.1,6.1-0.7,8.6,1.1l39.9,29.4c10.5,7.6,19.4,4.2,22.6,1.2c5.2-4.7,5.6-8.4,5.5-14c-0.2-5.5-2.9-10.7-7.4-13.9l-82.1-60.3
	c-6.1-4.3-10.3-5.5-10.4-5.5c-2.2-0.6-4.5-1-6.7-1c-10.3,0-18.1,2.8-23.1,16.4l-49.7,175.9c-1.8,5.1-1.4,10.8,1.1,15.6
	c2.5,4.9,6.8,8.6,12.1,10.2c10.6,3.4,22.6-2.6,26-13l23.7-71.9C168.4,242.4,171.9,239.9,175.8,239.9z"/>
<path class="st1" d="M100.7,74c-10.9,0.2-20.5,7.5-23.6,18l-9.4,32c-3.8,13.2,3.8,27.1,17,30.9l0,0c13.2,3.8,27.1-3.8,30.9-17
	l9.4-32.1c3.8-13.3-3.9-27.1-17.2-30.9C105.6,74.3,103.2,74,100.7,74"/>
<path class="st0" d="M91.8,165c-18.7,0-34-15.2-34-33.9c0-3.2,0.5-6.4,1.4-9.5l9.4-32.1c2.5-8.7,8.4-16,16.3-20.3
	c4.8-2.7,10.3-4.1,15.8-4.2c0.2,0,0.4,0,0.5,0c3.2,0,6.4,0.5,9.5,1.4c18,5.3,28.3,24.1,23.1,42.1l-9.4,32.1
	c-4.1,14.3-17.1,24.3-32,24.5H91.8z M100.9,83c-7,0.1-13.1,4.8-15.1,11.5l-9.4,32.1c-2.4,8.4,2.4,17.3,10.8,19.8
	c8.4,2.4,17.3-2.4,19.8-10.8l9.4-32.1c2.4-8.4-2.4-17.3-10.8-19.8C104,83.2,102.5,83,100.9,83z"/>
</svg>
