<svg id="Calque_1" data-name="Calque 1" xmlns="http://www.w3.org/2000/svg" viewBox="0 0 350 350"><defs><style>.cls-1{fill:#6d6e71;}.cls-2{fill:#8ddc59;}</style></defs><title>Icons_Hikster_2_colors</title><path class="cls-1" d="M278.33,141.15c-23.16,0-42-18.56-42-41.39s18.85-41.38,42-41.38,42,18.56,42,41.38S301.49,141.15,278.33,141.15Zm0-67.78c-14.9,0-27,11.84-27,26.39s12.12,26.4,27,26.4,27-11.84,27-26.4S293.23,73.37,278.33,73.37Z"/><path class="cls-2" d="M78.58,193.19c4.88,3.21,11.75,7.84,20,7.84,12.48,0,18.14-4.62,26-11,9-7.33,20.1-16.45,41.21-16.45S198,182.67,206.94,190c7.82,6.41,14.08,11,26.56,11,12,0,22.42-9.58,22.42-21.41,0-6.16-3.31-12.23-7-17l-61.21-77L250.06,36c1.85-1.46,11.07-13.3-1.19-24.69-8.55-7.94-19.76-1-20.55-.37L148.71,76c-2.78,2.57-4.83,4.43-5.14,7.52-0.52,4.26.88,7.06,3,9.77l21.67,29.23Z"/><path class="cls-1" d="M233.5,208.53c-14.61,0-22.51-5.51-31.31-12.73-8.45-6.92-18-14.75-36.45-14.75s-28,7.84-36.46,14.75c-8,6.55-15.53,12.73-30.72,12.73-10.35,0-18.48-5.36-23.86-8.91a7.78,7.78,0,0,1-3.49-6,7.57,7.57,0,0,1,2.73-6.28l83.94-66.16L140.54,97.76a19.67,19.67,0,0,1-4.41-15.14c0.56-5.71,4.19-9.07,7.4-12L223.58,5.14C227,2.4,242-5.27,254,5.82c7.48,6.95,8.83,14.23,8.63,19.1-0.32,8.05-5,14.67-7.89,17L198.23,86.81l56.54,71.14c5.75,7.43,8.64,14.7,8.64,21.68C263.41,195.57,250,208.53,233.5,208.53Zm-67.76-42.48c23.78,0,36.59,10.48,45.94,18.15,7.28,6,11.88,9.34,21.81,9.34,8.09,0,14.93-6.37,14.93-13.91,0-3.48-1.93-7.89-5.45-12.42L181.83,90.27A7.5,7.5,0,0,1,183,79.74L245.4,30.14a10.87,10.87,0,0,0,2.24-6.26c-0.06-2.4-1.32-4.71-3.86-7.08-4.42-4.1-11,.19-11.09.24L153.45,81.81A18.29,18.29,0,0,0,151,84.38c-0.17,1.58,0,2.44,1.47,4.3l21.78,29.38a7.5,7.5,0,0,1-1.38,10.35L92,192.17a18.14,18.14,0,0,0,6.58,1.36c9.83,0,13.88-3.32,21.22-9.33C129.15,176.54,142,166.05,165.74,166.05Z"/><path class="cls-1" d="M241.51,254.5c-21.8,0-33.08-8.86-43-16.68-9.22-7.23-17.18-13.48-33.8-13.48s-24.55,6.24-33.76,13.48c-10,7.82-21.23,16.68-43,16.68s-33-8.86-43-16.68c-5.12-4-10-7.83-16.09-10.34a7.49,7.49,0,0,1,5.67-13.88c8.07,3.29,14,7.94,19.69,12.43,9.19,7.23,17.14,13.47,33.72,13.47s24.56-6.25,33.76-13.48c10-7.82,21.23-16.68,43-16.68s33.09,8.86,43.05,16.68c9.21,7.23,17.17,13.48,33.78,13.48s24.58-6.25,33.8-13.48c10-7.82,21.24-16.68,43-16.68a7.49,7.49,0,1,1,0,15c-16.61,0-24.57,6.25-33.78,13.48C274.6,245.64,263.31,254.5,241.51,254.5Z"/><path class="cls-1" d="M241.51,302.25c-21.8,0-33.08-8.86-43-16.68-9.21-7.24-17.17-13.49-33.79-13.49s-24.55,6.25-33.76,13.48c-10,7.82-21.23,16.68-43,16.68s-33-8.86-43-16.68c-5.11-4-9.93-7.81-16-10.31a7.49,7.49,0,0,1,5.69-13.86c8,3.29,13.91,7.92,19.6,12.39,9.19,7.23,17.14,13.48,33.73,13.48s24.56-6.25,33.76-13.48c10-7.82,21.23-16.68,43-16.68s33.09,8.86,43.05,16.68c9.21,7.23,17.17,13.48,33.78,13.48s24.58-6.25,33.79-13.49c10-7.82,21.25-16.68,43-16.68a7.49,7.49,0,0,1,0,15c-16.61,0-24.57,6.25-33.78,13.48C274.6,293.39,263.31,302.25,241.51,302.25Z"/><path class="cls-1" d="M241.51,350c-21.8,0-33.08-8.86-43-16.68-9.22-7.23-17.18-13.48-33.8-13.48s-24.55,6.24-33.76,13.48c-10,7.82-21.23,16.68-43,16.68s-33-8.86-43-16.68c-5.11-4-9.93-7.8-16-10.31a7.49,7.49,0,0,1,5.69-13.86c8,3.29,13.91,7.91,19.6,12.39C63.37,328.77,71.31,335,87.9,335s24.56-6.25,33.76-13.48c10-7.82,21.23-16.68,43-16.68s33.09,8.86,43.05,16.68c9.21,7.23,17.17,13.48,33.78,13.48s24.58-6.25,33.8-13.48c10-7.82,21.24-16.68,43-16.68a7.49,7.49,0,0,1,0,15c-16.61,0-24.57,6.25-33.78,13.48C274.6,341.14,263.31,350,241.51,350Z"/></svg>