<svg id="Calque_1" data-name="Calque 1" xmlns="http://www.w3.org/2000/svg" viewBox="0 0 350 350"><defs><style>.cls-1{fill:#8ddc59;}.cls-2{fill:#fff;}.cls-3{fill:#6d6e71;}</style></defs><title>Icons_Hikster_2_colors</title><path class="cls-1" d="M6.91,199.23c3.23,0.93,22.84,20.08,22.84,20.08l74.09-63.4,21.09,15,27.22,32.33L182,176.48l9.55-32.53L200,138.5v-37l-25.16-2.91L154.63,82.35,82.45,112.6l-7.6,20.21Z"/><path class="cls-1" d="M92.7,236.6l-10.15-2.2,8.54-39.54c2.05-11.52,9.82-20.37,20.24-22.89,8.49-2,20.32.38,24.44,7.28l-8.92,5.32c-1.11-1.87-7.84-3.78-13.07-2.51-6.35,1.54-11.14,7.21-12.5,14.81Z"/><path class="cls-2" d="M203.77,106c8.72,0,15.39,6.16,15.39,13.75a13.75,13.75,0,0,1-12.74,13.71"/><path class="cls-3" d="M206.81,138.61L206,128.25a8.58,8.58,0,0,0,7.92-8.53c0-4.8-4.48-8.56-10.2-8.56V100.77c11.54,0,20.58,8.32,20.58,18.95A19,19,0,0,1,206.81,138.61Z"/><path class="cls-2" d="M7.47,209.86l2.09-2c2,2.3,4.22,4.61,6.06,6.47l-1.83,1.77Z"/><path class="cls-3" d="M10.3,200a0.82,0.82,0,0,0-.37.27,0.75,0.75,0,0,0,.21-0.08c0.15-.14.19-0.19,0.16-0.19h0Zm-0.16.19L0,209.78l13.83,13.67,2.63-2.71,6.62-6.39s-9.54-8.93-12.95-14.19h0Zm13.1,14.07a0.62,0.62,0,0,0-.15.12,0.3,0.3,0,0,0-.09.16,0.94,0.94,0,0,0,.24-0.28h0Z"/><path class="cls-3" d="M341,153.57a5.24,5.24,0,0,1-1.74-.3l-50.64-18a101.12,101.12,0,0,0-18.52-4.83,67.73,67.73,0,0,0-13.23-.94c-9.22.48-38.89,3.5-39.2,3.53l-1-10.33c1.22-.13,30.23-3.07,39.7-3.57a75.58,75.58,0,0,1,15.37,1,111.43,111.43,0,0,1,20.42,5.32l45.26,16.12,1.25-4.94c-8.21-3.18-27.22-10.45-46-17a115.05,115.05,0,0,0-36.37-6.24l-39.84,2.5-0.65-10.37,40-2.51a124.29,124.29,0,0,1,40.25,6.81c53.08,18.54,53.28,19.59,53.85,22.71a5.2,5.2,0,0,1-.08,2.22l-3.77,14.92A5.19,5.19,0,0,1,341,153.57Z"/><path class="cls-3" d="M77.88,244.57a15.21,15.21,0,0,1-13.52-8.21c-0.9-1.78-6.74-13.29-11.47-22.6-3-5.85-4.92-9.66-6-12.25l-0.19.1,0.19-.1c-2-4.85-1-5.38,2-6.92l4.61-2.36,2.39,4.61-3.71,1.92L56,196.91l6.17,12.15c4.73,9.31,10.59,20.84,11.49,22.63A5.2,5.2,0,0,0,76.73,234c2.56,0.6,5.66-1.14,7.82-2.72,4.1-3,10.16-9,16-14.87,4.82-4.78,9.37-9.3,13.2-12.57,7.65-6.54,13.51-15.55,12.83-19.56-3-3.88-17.26-22-17.26-22l8.18-6.41c18.3,23.32,18.3,23.32,18.61,24.11,5.24,13.77-14.76,31.05-15.61,31.78-3.53,3-8.15,7.61-12.62,12-6.14,6.09-12.48,12.39-17.19,15.86C86.29,242.94,82,244.57,77.88,244.57Z"/><path class="cls-3" d="M78.51,273.14A9.83,9.83,0,0,1,71,269.08L26,222.94l7.44-7.25L78.8,262.2a4.48,4.48,0,0,0,.35-0.31l71.56-64.32,6.94,7.73L86.56,269.13h0a13.64,13.64,0,0,1-5.34,3.52A7.72,7.72,0,0,1,78.51,273.14Z"/><path class="cls-3" d="M29.75,224.5A5.19,5.19,0,0,1,26,222.87L3.13,198.62a5.21,5.21,0,0,1,.36-7.46l70.17-61.53a2.42,2.42,0,0,0,1.3-1.93l-0.6-3.83c-0.08-.93-0.1-1.5-0.1-2.08,0-9.71,6-17.33,17-21.45l61.57-22.85c5.72-1.79,10.8.53,13,3.7l9,9.9c3.21,4,4.17,4.38,5.77,4.38l13,0.15a12.66,12.66,0,0,1,12.6,12.66L208,132.35a12.79,12.79,0,0,1-11.4,13L189,173.16c-0.31,2.13-1.77,6.87-8.42,12.45-6.48,5.45-23,19.75-23,19.75a5.19,5.19,0,0,1-7.15-.33l-37.37-39c-3.67-3.28-6.12-4.95-9.22-4.95a10.71,10.71,0,0,0-8.5,4.16,5.09,5.09,0,0,1-.56.61l-61.5,57.24A5.19,5.19,0,0,1,29.75,224.5ZM14.39,195.41L30,212l57.43-53.46a21,21,0,0,1,16.42-7.81c7.09,0,11.94,3.82,16.3,7.73,0.1,0.09.19,0.17,0.28,0.27l34.09,35.56c5.28-4.57,14.8-12.77,19.37-16.62,4.31-3.62,4.84-6,4.84-6.07l7.68-28.47a8.93,8.93,0,0,1,8.88-8.09,2.33,2.33,0,0,0,2.3-2.3l-1.75-24.09a2.4,2.4,0,0,0-2.28-2.64l-13-.15c-6.63,0-10.36-4-13.62-8L157.7,87.62a1.29,1.29,0,0,0-1.51-.32l-61.3,22.76c-10.25,3.86-10.25,9.78-10.25,11.72l0,1,0.61,4.2A12.53,12.53,0,0,1,80,137.8Z"/></svg>