<svg id="Calque_1" data-name="Calque 1" xmlns="http://www.w3.org/2000/svg" viewBox="0 0 350 350"><defs><style>.cls-1{fill:#8ddc59;}.cls-2{fill:#6d6e71;}</style></defs><title>Icons_Hikster_2_colors</title><rect class="cls-1" x="8.75" y="208.97" width="329.44" height="38.34" rx="0.63" ry="0.63"/><path class="cls-2" d="M327.89,44.26H22.11A22.13,22.13,0,0,0,0,66.37V234a22.13,22.13,0,0,0,22.11,22.11H141.84L83.18,289.37a8.75,8.75,0,1,0,8.65,15.22L175,257.38l83.18,47.22a8.75,8.75,0,0,0,8.65-15.22l-58.67-33.31H327.89A22.13,22.13,0,0,0,350,234V66.37A22.13,22.13,0,0,0,327.89,44.26ZM332.5,234a4.66,4.66,0,0,1-4.61,4.6H22.11A4.66,4.66,0,0,1,17.5,234V217.73h315V234Zm0-33.74H17.5V66.37a4.66,4.66,0,0,1,4.61-4.6H327.89a4.66,4.66,0,0,1,4.61,4.6V200.21Z"/></svg>