<svg id="Calque_1" data-name="Calque 1" xmlns="http://www.w3.org/2000/svg" viewBox="0 0 350 350"><defs><style>.cls-1{fill:#8ddc59;}.cls-2{fill:#6d6e71;}</style></defs><title>Icons_Hikster_2_colors</title><ellipse class="cls-1" cx="176.27" cy="143.31" rx="8.5" ry="8.48"/><ellipse class="cls-1" cx="176.27" cy="171.62" rx="8.5" ry="8.48"/><ellipse class="cls-1" cx="176.27" cy="199.94" rx="8.5" ry="8.48"/><ellipse class="cls-1" cx="176.27" cy="228.25" rx="8.5" ry="8.48"/><ellipse class="cls-1" cx="176.27" cy="256.57" rx="8.5" ry="8.48"/><ellipse class="cls-1" cx="176.27" cy="284.89" rx="8.5" ry="8.48"/><ellipse class="cls-1" cx="176.27" cy="313.2" rx="8.5" ry="8.48"/><ellipse class="cls-1" cx="176.27" cy="341.52" rx="8.5" ry="8.48"/><ellipse class="cls-1" cx="141.25" cy="143.33" rx="8.48" ry="8.5" transform="translate(-16.91 267.76) rotate(-83.61)"/><ellipse class="cls-1" cx="138.08" cy="171.47" rx="8.48" ry="8.5" transform="matrix(0.11, -0.99, 0.99, 0.11, -47.69, 289.62)"/><ellipse class="cls-1" cx="134.92" cy="199.61" rx="8.48" ry="8.5" transform="translate(-78.47 311.48) rotate(-83.61)"/><ellipse class="cls-1" cx="131.75" cy="227.75" rx="8.48" ry="8.5" transform="translate(-109.25 333.34) rotate(-83.61)"/><ellipse class="cls-1" cx="128.58" cy="255.89" rx="8.48" ry="8.5" transform="translate(-140.02 355.2) rotate(-83.61)"/><ellipse class="cls-1" cx="125.42" cy="284.03" rx="8.48" ry="8.5" transform="translate(-170.8 377.07) rotate(-83.61)"/><ellipse class="cls-1" cx="122.25" cy="312.17" rx="8.48" ry="8.5" transform="translate(-201.58 398.93) rotate(-83.61)"/><path class="cls-1" d="M114.14,145.09a8.5,8.5,0,1,1-6-10.39A8.5,8.5,0,0,1,114.14,145.09Z"/><path class="cls-1" d="M106.79,172.45a8.5,8.5,0,1,1-6-10.39A8.5,8.5,0,0,1,106.79,172.45Z"/><path class="cls-1" d="M99.45,199.8a8.5,8.5,0,1,1-6-10.39A8.5,8.5,0,0,1,99.45,199.8Z"/><path class="cls-1" d="M92.1,227.15a8.5,8.5,0,1,1-6-10.39A8.5,8.5,0,0,1,92.1,227.15Z"/><path class="cls-1" d="M84.76,254.5a8.5,8.5,0,1,1-6-10.39A8.5,8.5,0,0,1,84.76,254.5Z"/><path class="cls-1" d="M77.42,281.86a8.5,8.5,0,1,1-6-10.39A8.5,8.5,0,0,1,77.42,281.86Z"/><path class="cls-1" d="M235.86,145.09a8.5,8.5,0,1,0,6-10.39A8.5,8.5,0,0,0,235.86,145.09Z"/><path class="cls-1" d="M243.21,172.45a8.5,8.5,0,1,0,6-10.39A8.5,8.5,0,0,0,243.21,172.45Z"/><path class="cls-1" d="M250.55,199.8a8.5,8.5,0,1,0,6-10.39A8.5,8.5,0,0,0,250.55,199.8Z"/><path class="cls-1" d="M257.9,227.15a8.5,8.5,0,1,0,6-10.39A8.5,8.5,0,0,0,257.9,227.15Z"/><path class="cls-1" d="M265.24,254.5a8.5,8.5,0,1,0,6-10.39A8.5,8.5,0,0,0,265.24,254.5Z"/><path class="cls-1" d="M272.58,281.86a8.5,8.5,0,1,0,6-10.39A8.5,8.5,0,0,0,272.58,281.86Z"/><ellipse class="cls-1" cx="210.9" cy="143.33" rx="8.5" ry="8.48" transform="translate(-14.64 24.36) rotate(-6.39)"/><ellipse class="cls-1" cx="214.07" cy="171.47" rx="8.5" ry="8.48" transform="translate(-17.75 24.88) rotate(-6.39)"/><ellipse class="cls-1" cx="217.24" cy="199.61" rx="8.5" ry="8.48" transform="translate(-20.86 25.41) rotate(-6.39)"/><ellipse class="cls-1" cx="220.4" cy="227.75" rx="8.5" ry="8.48" transform="translate(-23.97 25.94) rotate(-6.39)"/><ellipse class="cls-1" cx="223.57" cy="255.89" rx="8.5" ry="8.48" transform="translate(-27.08 26.46) rotate(-6.39)"/><ellipse class="cls-1" cx="226.74" cy="284.03" rx="8.5" ry="8.48" transform="translate(-30.19 26.99) rotate(-6.39)"/><ellipse class="cls-1" cx="229.91" cy="312.17" rx="8.5" ry="8.48" transform="matrix(0.99, -0.11, 0.11, 0.99, -33.31, 27.52)"/><path class="cls-2" d="M183.91,23.18V7.62a7.63,7.63,0,0,0-15.27,0V23.18c-48.35,3.89-86.5,44.38-86.5,93.59a7.62,7.62,0,0,0,7.63,7.62h173a7.62,7.62,0,0,0,7.63-7.62C270.41,67.56,232.26,27.07,183.91,23.18Zm-86.13,86a78.89,78.89,0,0,1,157,0h-157Z"/></svg>