<svg id="Calque_1" data-name="Calque 1" xmlns="http://www.w3.org/2000/svg" viewBox="0 0 350 350"><defs><style>.cls-1{fill:#6d6e71;}</style></defs><title>Icons_Hikster_2_colors</title><path class="cls-1" d="M165,350a25.12,25.12,0,0,1-15.32-5.21,26.84,26.84,0,0,1-9.19-29.28l29.62-95.44L92.7,161.2a26.84,26.84,0,0,1-9.19-29.31A25.7,25.7,0,0,1,108,113.49H203.2L232.71,18.4A25.75,25.75,0,0,1,257.22,0a10.5,10.5,0,0,1,0,21,4.79,4.79,0,0,0-4.46,3.63L221,127.11a10.49,10.49,0,0,1-10,7.39H108a4.77,4.77,0,0,0-4.45,3.62,5.8,5.8,0,0,0,1.86,6.37l83.27,63.32a10.51,10.51,0,0,1,3.67,11.47l-31.8,102.45a5.78,5.78,0,0,0,1.85,6.35,4.15,4.15,0,0,0,5.19,0l83.27-63.33a10.51,10.51,0,0,1,12.72,16.73l-83.26,63.32A25.14,25.14,0,0,1,165,350Z"/></svg>