<svg id="Calque_1" data-name="Calque 1" xmlns="http://www.w3.org/2000/svg" viewBox="0 0 350 350"><defs><style>.cls-1{fill:#8ddc59;}.cls-2{fill:#6d6e71;}</style></defs><title>Icons_Hikster_2_colors</title><path class="cls-1" d="M316.81,163.92l-34.73-20.62h-46s-50.36,39.84-51.23,41.23v28.05L190,255l70.31,79.73L308.81,297l23.63-56,3.47-40.53Zm-49.47,76.63c-13.24,3.48-28.17-6.49-26.53-20.8a21.16,21.16,0,0,1,2.87-8.45c0.52-6.48,4.82-12.59,13.21-12.56a36.84,36.84,0,0,1,4.33.27,30.74,30.74,0,0,1,4.94-.85c6.55-.53,12,5.08,13.32,11.18a20.33,20.33,0,0,1,2.84,6.59C284.72,226.43,277.8,237.8,267.34,240.55Z"/><path class="cls-2" d="M260.35,204.18a15.58,15.58,0,1,1-15.62,15.58,15.62,15.62,0,0,1,15.62-15.58m0-19.64a35.22,35.22,0,1,0,35.31,35.22,35.26,35.26,0,0,0-35.31-35.22h0Z"/><path class="cls-2" d="M262.28,151.63c37.51,0,68,30.56,68,68.51-0.08,15.12-6.71,30.85-18.58,44.22l-50.55,56.22-50.46-56.13c-12-13.46-18.58-29.2-18.66-44.7a68.16,68.16,0,0,1,68-68.12h2.19m0-19.64h-2.19a87.65,87.65,0,0,0-87.72,87.76c0,0.17,0,.33,0,0.5,0.12,21.21,9.51,41.34,23.61,57.23L261.18,350l65.21-72.52c14.1-15.88,23.49-36,23.61-57.23,0-.17,0-0.33,0-0.5A87.65,87.65,0,0,0,262.28,132h0Z"/><path class="cls-2" d="M299.84,40.1L205,0.75a9.87,9.87,0,0,0-7.62,0l-91.59,38.8L13.63,1.28A9.84,9.84,0,0,0,0,10.35v243a9.8,9.8,0,0,0,5.35,8.73l97,49.72a9.78,9.78,0,0,0,4.5,1.1,9.89,9.89,0,0,0,4.64-1.16l60.87-32.44A9.83,9.83,0,1,0,163.08,262l-48.82,26-1-230.29,76.89-32.57V130.25a9.84,9.84,0,0,0,19.69,0V24l76.28,31.64-1,64.1a9.84,9.84,0,0,0,9.69,10H295a9.84,9.84,0,0,0,9.84-9.68l1.06-70.76A9.82,9.82,0,0,0,299.84,40.1Zm-280.15-15,73.88,30.7,1,230L19.69,247.38V25.08Z"/></svg>