<svg id="Calque_1" data-name="Calque 1" xmlns="http://www.w3.org/2000/svg" viewBox="0 0 350 350"><defs><style>.cls-1{fill:#6d6e71;}</style></defs><title>Icons_Hikster_2_colors</title><path class="cls-1" d="M175,272.25a10.82,10.82,0,0,1-10.84-10.81V209.66a10.84,10.84,0,0,1,21.68,0v51.78A10.82,10.82,0,0,1,175,272.25Z"/><path class="cls-1" d="M275.49,121.1h-13V87.16C262.48,39.1,223.24,0,175,0S87.52,39.1,87.52,87.16V121.1h-13a20.18,20.18,0,0,0-20.19,20.12V329.89A20.17,20.17,0,0,0,74.52,350h201a20.17,20.17,0,0,0,20.18-20.11V141.22A20.18,20.18,0,0,0,275.49,121.1ZM109.2,87.16a65.8,65.8,0,0,1,131.6,0V121.1H109.2V87.16ZM274,328.39H76V142.71H274V328.39Z"/></svg>