<svg id="Calque_1" data-name="Calque 1" xmlns="http://www.w3.org/2000/svg" viewBox="0 0 350 350"><defs><style>.cls-1{fill:#8ddc59;}.cls-2{fill:#6d6e71;}</style></defs><title>Icons_Hikster_2_colors</title><circle class="cls-1" cx="87.93" cy="287.87" r="26.28"/><circle class="cls-1" cx="313.79" cy="287.87" r="26.28"/><path class="cls-2" d="M313.79,251.34H142.93l-12.68-38.45H291a9.94,9.94,0,0,0,9.21-6.21L348.93,85.92a9.94,9.94,0,0,0-9.21-13.66H83.86L70.71,32.42a9.93,9.93,0,0,0-9.43-6.83H9.93a9.93,9.93,0,0,0,0,19.87H54.1L122,251.34H90.28c-0.27,0-.53,0-0.79,0-0.52,0-1,0-1.57,0a36.49,36.49,0,1,0,32.21,19.87H134.9c0.29,0,.57,0,0.86,0s0.57,0,.86,0h145A36.14,36.14,0,1,0,313.79,251.34ZM325,92.14L284.28,193H123.69L90.41,92.14H325ZM87.92,304.54a16.67,16.67,0,1,1,16.35-16.67A16.53,16.53,0,0,1,87.92,304.54Zm225.87,0a16.67,16.67,0,1,1,16.35-16.67A16.53,16.53,0,0,1,313.79,304.54Z"/></svg>