<?xml version="1.0" encoding="utf-8"?>
<!-- Generator: Adobe Illustrator 19.2.1, SVG Export Plug-In . SVG Version: 6.00 Build 0)  -->
<svg version="1.1" id="Calque_1" xmlns="http://www.w3.org/2000/svg" xmlns:xlink="http://www.w3.org/1999/xlink" x="0px" y="0px"
	 viewBox="0 0 350 350" style="enable-background:new 0 0 350 350;" xml:space="preserve">
<style type="text/css">
	.st0{fill:#8DDC59;}
	.st1{fill:#6D6E71;}
</style>
<title>Icons_Hikster_2_colors</title>
<path class="st0" d="M69.7,290.6h42.4v10.5H82v13.7h26.3v10.3H82V350H69.7V290.6z"/>
<path class="st0" d="M158.2,292.1c2.2,0.9,4.1,2.3,5.6,4.1c1.3,1.5,2.3,3.2,3,5c0.8,2,1.1,4.1,1.1,6.2c0,2.9-0.8,5.8-2.1,8.3
	c-1.5,2.8-4,4.9-7.1,5.8c2.4,0.8,4.5,2.5,5.8,4.7c1.1,2,1.7,5.1,1.7,9.3v4c-0.1,1.8,0,3.7,0.3,5.5c0.2,1.4,1.1,2.6,2.3,3.4v1.5
	h-13.7c-0.4-1.3-0.6-2.4-0.8-3.2c-0.3-1.7-0.5-3.4-0.5-5.1l-0.1-5.5c-0.1-3.8-0.7-6.3-2-7.6s-3.6-1.9-7.1-1.9h-12.1V350h-12.1v-59.5
	h28.4C152.1,290.5,155.2,291,158.2,292.1z M132.6,300.9v16h13.4c2,0.1,4.1-0.2,6-1c2.3-1.1,3.5-3.4,3.5-6.7c0-3.6-1.1-6-3.4-7.3
	c-1.8-0.8-3.8-1.2-5.8-1L132.6,300.9L132.6,300.9z"/>
<path class="st0" d="M223.8,301.1h-31.5v12.6h28.9V324h-28.9v15.3h32.9V350h-45.1v-59.5h43.6V301.1z"/>
<path class="st0" d="M278.9,301.1h-31.5v12.6h28.9V324h-28.9v15.3h32.9V350h-45.1v-59.5h43.6L278.9,301.1L278.9,301.1z"/>
<circle class="st0" cx="182.2" cy="212.1" r="20.7"/>
<path class="st1" d="M182.2,246.2c-18.8,0-34-15.2-34-34s15.2-34,34-34s34,15.2,34,34l0,0C216.1,230.9,200.9,246.1,182.2,246.2z
	 M182.2,194.6c-9.7,0-17.5,7.8-17.5,17.5s7.8,17.5,17.5,17.5s17.5-7.8,17.5-17.5C199.7,202.5,191.8,194.6,182.2,194.6L182.2,194.6z"
	/>
<path class="st1" d="M114.9,170.1c-4.6,0-8.3-3.7-8.3-8.3c0-1.8,0.6-3.5,1.6-4.9c30.5-40.8,88.3-49.2,129.1-18.7
	c3.5,2.6,6.9,5.5,10,8.7c3.2,3.3,3.1,8.5-0.2,11.7c-3.2,3.1-8.3,3.1-11.5,0c-29.6-29.6-77.5-29.6-107.1,0c-2.6,2.6-5,5.3-7.1,8.2
	C119.9,168.9,117.5,170.1,114.9,170.1z"/>
<path class="st1" d="M83.6,114.9c-4.6,0-8.3-3.7-8.2-8.3c0-2.3,1-4.5,2.6-6c55.4-51.8,140.5-55,199.7-7.6c3.6,2.9,4.1,8.1,1.3,11.6
	c-2.9,3.6-8.1,4.1-11.6,1.3c-52.8-42.3-128.6-39.4-178,6.7C87.8,114.2,85.7,115,83.6,114.9z"/>
<path class="st1" d="M45.5,73.4c-4.6,0-8.3-3.7-8.2-8.3c0-2.2,0.9-4.3,2.4-5.8C78,21.1,128.1,0,180.6,0c46.9,0,92.8,17.2,129.2,48.4
	c3.5,3,3.9,8.2,0.9,11.7s-8.2,3.9-11.7,0.9l0,0c-33.9-29.1-74.9-44.4-118.4-44.4C132.5,16.5,86.6,35.9,51.4,71
	C49.8,72.5,47.7,73.4,45.5,73.4z"/>
</svg>
