<svg id="Calque_1" data-name="Calque 1" xmlns="http://www.w3.org/2000/svg" viewBox="0 0 350 350"><defs><style>.cls-1{fill:#8ddc59;}.cls-2{fill:#6d6e71;}</style></defs><title>Icons_Hikster_2_colors</title><circle class="cls-1" cx="60.24" cy="204.49" r="18.93"/><circle class="cls-1" cx="290.77" cy="204.49" r="18.93"/><polygon class="cls-1" points="68.34 139.05 282.46 138.87 269.08 74.06 232.65 65.2 88.54 69.78 68.34 104.41 68.34 139.05"/><path class="cls-2" d="M60.23,234.32a29.83,29.83,0,1,1,29.84-29.83A29.87,29.87,0,0,1,60.23,234.32Zm0-43.38a13.55,13.55,0,1,0,13.55,13.55A13.56,13.56,0,0,0,60.23,190.94Z"/><path class="cls-2" d="M290.77,234.32a29.83,29.83,0,1,1,29.83-29.83A29.87,29.87,0,0,1,290.77,234.32Zm0-43.38a13.55,13.55,0,1,0,13.53,13.55A13.56,13.56,0,0,0,290.77,190.94Z"/><path class="cls-2" d="M232.65,214.25H117.72a8.14,8.14,0,1,1,0-16.28H232.65A8.14,8.14,0,1,1,232.65,214.25Z"/><path class="cls-2" d="M350,128A29,29,0,0,0,321.07,99a16.23,16.23,0,0,0-2.51.22l-2.34-14.14c-3.78-33.89-26.82-55.78-58.7-55.78H92.06C60.39,30.17,36.89,52.62,33.58,85L31.76,99.17a16.26,16.26,0,0,0-2-.13A28.92,28.92,0,0,0,20,155.17a75.46,75.46,0,0,0,4.25,106.57c0,0.36,0,.72,0,1.08v28A29.87,29.87,0,0,0,54,320.66H73a29.87,29.87,0,0,0,29.83-29.84v-8.88h145.5v8.88a29.87,29.87,0,0,0,29.84,29.84h19A29.87,29.87,0,0,0,327,290.83l0-31a75.48,75.48,0,0,0,2.62-104.23A28.88,28.88,0,0,0,350,128Zm-16.29,0a12.64,12.64,0,0,1-8.42,11.92l-4.06-24.55A12.64,12.64,0,0,1,333.71,128ZM92.27,45.62H257.53c23.38,0,39.66,15.83,42.57,41.73l4.7,28.42c0,0.53,0,1.05.11,1.58l2.69,21.47a75,75,0,0,0-17.87-6.36l-6-40.25c-2.06-18.57-16.35-30.57-36.38-30.57H102.38C81.23,61.63,67.28,73.48,66,92.1l-5,40a75,75,0,0,0-17.62,5.8L46,117.35a16.28,16.28,0,0,0,.12-1.84l3.67-28.66C52.25,62.42,69,46.24,92.27,45.62ZM273,130.7H77.6l4.62-37c0.72-10.45,7.5-15.75,20.16-15.75H247.32c11.69,0,19.06,5.87,20.23,16.4ZM29.69,115.33L26.78,138a8.16,8.16,0,0,0,0,1.74l-0.06.47A12.64,12.64,0,0,1,29.69,115.33Zm56.86,175.5A13.56,13.56,0,0,1,73,304.38H54a13.56,13.56,0,0,1-13.55-13.55V273.26a75.15,75.15,0,0,0,35.14,8.69H86.55v8.88Zm224.17,0a13.56,13.56,0,0,1-13.55,13.55h-19a13.56,13.56,0,0,1-13.55-13.55v-8.88h8.92a75.15,75.15,0,0,0,37.13-9.78Zm-37.15-25.17H75.63a59.34,59.34,0,0,1,0-118.68H273.57A59.34,59.34,0,0,1,273.57,265.66Z"/></svg>