<svg id="Calque_1" data-name="Calque 1" xmlns="http://www.w3.org/2000/svg" viewBox="0 0 350 350"><defs><style>.cls-1{fill:#8ddc59;}.cls-2{fill:#6d6e71;}</style></defs><title>Icons_Hikster_2_colors</title><ellipse class="cls-1" cx="263.13" cy="266.41" rx="79.27" ry="79.3"/><path class="cls-2" d="M263.13,193.45a69.66,69.66,0,1,1-69.63,69.66,69.73,69.73,0,0,1,69.63-69.66m0-17.24A86.9,86.9,0,1,0,350,263.1a86.89,86.89,0,0,0-86.87-86.9h0Z"/><path class="cls-2" d="M247.35,296.78h-0.11a8.66,8.66,0,0,1-6.11-2.65L224.41,276.7a8.62,8.62,0,0,1,12.43-12l10.67,11.12,37.67-37.33a8.62,8.62,0,0,1,12.13,12.26l-43.89,43.48A8.65,8.65,0,0,1,247.35,296.78Z"/><path class="cls-2" d="M188.41,197.84a8.6,8.6,0,0,1-6.19-2.63l-25.11-26a8.62,8.62,0,0,1,12.39-12l25.11,26A8.63,8.63,0,0,1,188.41,197.84Z"/><path class="cls-2" d="M88,17.24A70.76,70.76,0,1,1,17.24,88,70.82,70.82,0,0,1,88,17.24M88,0a88,88,0,1,0,88,88A88,88,0,0,0,88,0h0Z"/><path class="cls-2" d="M100.6,89.69l21-21a8.62,8.62,0,0,0-12.19-12.19L88,77.89l-21.29-20A8.62,8.62,0,1,0,54.93,70.5L75.83,90.09,55.57,110.36a8.62,8.62,0,1,0,12.19,12.19l20.65-20.66L108,120.24a8.62,8.62,0,1,0,11.79-12.57Z"/></svg>