<svg id="Calque_1" data-name="Calque 1" xmlns="http://www.w3.org/2000/svg" viewBox="0 0 350 350"><defs><style>.cls-1{fill:#8ddc59;}.cls-2{fill:#6d6e71;}</style></defs><title>Icons_Hikster_2_colors</title><rect class="cls-1" x="90.07" y="112.93" width="165.53" height="154.13" rx="1.29" ry="1.29"/><path class="cls-2" d="M298.52,74.33h-247a8.84,8.84,0,0,1,0-17.67h247A8.84,8.84,0,0,1,298.52,74.33Z"/><path class="cls-2" d="M255.6,312.17H93.25a8.84,8.84,0,0,1,0-17.67H255.6A8.84,8.84,0,0,1,255.6,312.17Z"/><path class="cls-2" d="M241,275.89H104.71A23.5,23.5,0,0,1,81.25,252.4v-127a23.5,23.5,0,0,1,23.45-23.49H241a23.5,23.5,0,0,1,23.45,23.49v127A23.5,23.5,0,0,1,241,275.89ZM104.71,119.54a5.81,5.81,0,0,0-5.81,5.82v127a5.81,5.81,0,0,0,5.81,5.82H241a5.89,5.89,0,0,0,5.81-5.82v-127a5.81,5.81,0,0,0-5.81-5.82H104.71Z"/><path class="cls-2" d="M232.08,204.31a8.83,8.83,0,0,1-8.82-8.84v-17a8.82,8.82,0,1,1,17.65,0v17A8.83,8.83,0,0,1,232.08,204.31Z"/><path class="cls-2" d="M298.52,0h-247a8.83,8.83,0,0,0-8.82,8.84V328.47A21.55,21.55,0,0,0,64.15,350H285.85a21.55,21.55,0,0,0,21.5-21.53V8.84A8.83,8.83,0,0,0,298.52,0ZM289.7,21.53V56.66H151.42v-39H285.85A3.9,3.9,0,0,1,289.7,21.53ZM133.78,17.67v39H60.3V21.53a3.9,3.9,0,0,1,3.85-3.86h69.62ZM285.85,332.33H64.15a3.9,3.9,0,0,1-3.85-3.86V74.33H289.7V328.47A3.9,3.9,0,0,1,285.85,332.33Z"/></svg>