<svg id="Calque_1" data-name="Calque 1" xmlns="http://www.w3.org/2000/svg" viewBox="0 0 350 350"><defs><style>.cls-1{fill:#8ddc59;}.cls-2{fill:#6d6e71;}</style></defs><title>Icons_Hikster_2_colors</title><rect class="cls-1" x="26.52" y="99.27" width="144.15" height="97.27"/><path class="cls-2" d="M182.9,100.87L145.08,36.23a9.67,9.67,0,0,0-8.36-4.8h-3.93V9.68A9.67,9.67,0,0,0,123.12,0H64A9.67,9.67,0,0,0,54.3,9.68V31.43H50.84a9.69,9.69,0,0,0-8.55,5.15L10.45,96.52a20,20,0,0,0-5,13.16V329.92A20.11,20.11,0,0,0,25.58,350H164.14a20.11,20.11,0,0,0,20.08-20.08V109.67a20.1,20.1,0,0,0-.14-2.29A9.64,9.64,0,0,0,182.9,100.87Zm-157.32,8.3,0.14-.22,139.15,0.72v77.19H25.32ZM73.66,19.36h39.78V31.43H73.66V19.36Zm-17,31.43h74.5L153.88,89.6H36ZM164.14,330.64l-139.29-.72,0.41-123.71H164.87V329.92A0.75,0.75,0,0,1,164.14,330.64Z"/><path class="cls-2" d="M344.48,339.74L333,151.09a16.42,16.42,0,0,0-4.67-11.47A21.33,21.33,0,0,0,333.3,126v-3.33a21.46,21.46,0,0,0-11.22-18.84,36.51,36.51,0,1,0-53.32,0,21.45,21.45,0,0,0-11.14,18.79V126a21.33,21.33,0,0,0,5,13.77,15.46,15.46,0,0,0-4.46,10.72L254,215H208.26a9.68,9.68,0,0,0,0,19.36h64.93a7.82,7.82,0,0,1,4.92,13.92H207a10.64,10.64,0,0,0,1.28,21.1h64.93a27.15,27.15,0,0,0,7-.92H281l-0.84,62.16H207A9.68,9.68,0,0,0,207,350h73.21a20.21,20.21,0,0,0,20.19-20.18V268.48a20.06,20.06,0,0,0-4-12.06,27.17,27.17,0,0,0-23-41.41l4-61h36.49l11.31,186.94a9.68,9.68,0,0,0,9.66,9.09l0.59,0A9.67,9.67,0,0,0,344.48,339.74ZM313.94,122.64V126a2.11,2.11,0,0,1-2.09,2.08H279.07A2.11,2.11,0,0,1,277,126v-3.33a2.11,2.11,0,0,1,2.09-2.08h32.79A2.11,2.11,0,0,1,313.94,122.64ZM295.4,61.81a17.13,17.13,0,1,1-17.15,17.13A17.16,17.16,0,0,1,295.4,61.81Z"/></svg>