<svg id="Calque_1" data-name="Calque 1" xmlns="http://www.w3.org/2000/svg" viewBox="0 0 350 350"><defs><style>.cls-1{fill:#8ddc59;}.cls-2{fill:#6d6e71;}</style></defs><title>Icons_Hikster_2_colors</title><polygon class="cls-1" points="212.82 290.66 192.38 336.04 151.54 336.04 139.63 290.66 212.82 290.66"/><path class="cls-2" d="M315,277.35H298.2V152.9A123.69,123.69,0,0,0,185.54,29.79L185.39,11A10.85,10.85,0,0,0,174.55.23h-0.08a10.85,10.85,0,0,0-10.76,11l0.14,18.62A123.69,123.69,0,0,0,51.36,152.9V277.35H35a10.86,10.86,0,0,0,0,21.72H61.61c0.2,0,.39,0,0.59,0s0.4,0,.59,0h66.08c-0.05.92-.09,1.85-0.09,2.78a48.29,48.29,0,1,0,96.57,0c0-.93,0-1.86-0.09-2.78h61.49c0.2,0,.39,0,0.59,0s0.4,0,.59,0H315A10.86,10.86,0,0,0,315,277.35ZM73,152.9a101.74,101.74,0,1,1,203.47,0V277.35H143.94a10.68,10.68,0,0,0-3.42,0H73V152.9Zm130.64,149a26.61,26.61,0,1,1-53.21,0,27,27,0,0,1,.15-2.78h52.9A27,27,0,0,1,203.68,301.86Z"/></svg>