<?xml version="1.0" encoding="UTF-8" standalone="no"?>
<!-- Generator: Adobe Illustrator 19.2.1, SVG Export Plug-In . SVG Version: 6.00 Build 0)  -->

<svg
   xmlns:dc="http://purl.org/dc/elements/1.1/"
   xmlns:cc="http://creativecommons.org/ns#"
   xmlns:rdf="http://www.w3.org/1999/02/22-rdf-syntax-ns#"
   xmlns:svg="http://www.w3.org/2000/svg"
   xmlns="http://www.w3.org/2000/svg"
   xmlns:sodipodi="http://sodipodi.sourceforge.net/DTD/sodipodi-0.dtd"
   xmlns:inkscape="http://www.inkscape.org/namespaces/inkscape"
   version="1.1"
   x="0px"
   y="0px"
   viewBox="0 0 120 120"
   style="enable-background:new 0 0 120 120;"
   xml:space="preserve"
   id="svg2"
   inkscape:version="0.91 r13725"
   sodipodi:docname="Icons_SVG_Default.svg"><metadata
     id="metadata37"><rdf:RDF><cc:Work
         rdf:about=""><dc:format>image/svg+xml</dc:format><dc:type
           rdf:resource="http://purl.org/dc/dcmitype/StillImage" /><dc:title></dc:title></cc:Work></rdf:RDF></metadata><defs
     id="defs35" /><sodipodi:namedview
     pagecolor="#ffffff"
     bordercolor="#666666"
     borderopacity="1"
     objecttolerance="10"
     gridtolerance="10"
     guidetolerance="10"
     inkscape:pageopacity="0"
     inkscape:pageshadow="2"
     inkscape:window-width="1280"
     inkscape:window-height="657"
     id="namedview33"
     showgrid="false"
     inkscape:zoom="3.9333333"
     inkscape:cx="21.991525"
     inkscape:cy="60"
     inkscape:window-x="-8"
     inkscape:window-y="-8"
     inkscape:window-maximized="1"
     inkscape:current-layer="svg2" /><style
     type="text/css"
     id="style4">
	.st0{fill:#9881FD;}
	.st1{fill:#B3B3B3;}
	.st2{fill:#FFFFFF;}
	.st3{fill:#BB81FD;}
	.st4{fill:#FF7566;}
	.st5{fill:#FF9E66;}
	.st6{fill:#FFD161;}
	.st7{fill:#FF364E;}
	.st8{fill:#678AFC;}
	.st9{fill:#7CACFC;}
	.st10{fill:#6ED1F9;}
	.st11{fill:#5EC4D1;}
	.st12{fill:#70D9C0;}
	.st13{fill:#95DC79;}
</style><g
     id="Parking" /><g
     id="Information" /><g
     id="Restaurant" /><g
     id="Bus" /><g
     id="Voiture" /><g
     id="Hotel" /><g
     id="Chalet_x5F_moderne" /><g
     id="Chalet_x5F_rustique" /><g
     id="Tente" /><g
     id="Camping" /><g
     id="g19"><path
       class="st7"
       d="m 60,0 c 27,-0.3 48.8,21.4 48.8,48.3 0,0.1 0,0.2 0,0.3 -0.1,11.7 -5.2,22.8 -13,31.5 L 60,120 24.2,80.1 c -7.7,-8.7 -12.9,-19.8 -13,-31.5 0,-0.1 0,-0.2 0,-0.3 C 11.2,21.4 33,-0.3 60,0 Z"
       id="path21"
       inkscape:connector-curvature="0"
       style="fill:#ff364e" /></g><g
     id="g23"
     inkscape:export-xdpi="90"
     inkscape:export-ydpi="90"><g
       id="g25"><path
         class="st13"
         d="M 24.3,79.9 C 16,70.6 11.4,59.4 11.4,48.5 l 0,-0.3 c 0,-26.5 21.5,-48.1 48,-48.1 l 0.6,0 0.6,0 c 26.4,0 48,21.6 48,48.1 l 0,0.3 c -0.1,10.9 -4.6,22 -12.9,31.4 L 60,119.7 24.3,79.9 Z"
         id="path27"
         inkscape:connector-curvature="0"
         style="fill:#95dc79" /><path
         class="st1"
         d="m 59.4,0 0,0.4 c 0.2,0 0.4,0 0.6,0 0.2,0 0.4,0 0.6,0 26.3,0 47.7,21.5 47.7,47.9 l 0,0.3 c -0.1,10.8 -4.6,21.9 -12.9,31.2 L 60,119.4 24.5,79.8 C 16.3,70.5 11.7,59.4 11.6,48.6 l 0,-0.3 C 11.6,21.9 33,0.4 59.3,0.4 L 59.4,0 m 1.2,0 C 60.4,0 60.2,0 60,0 59.8,0 59.6,0 59.4,0 32.7,0 11.2,21.6 11.2,48.3 c 0,0.1 0,0.2 0,0.3 0.1,11.7 5.2,22.8 13,31.5 L 60,120 95.8,80.1 c 7.7,-8.7 12.9,-19.8 13,-31.5 0,-0.1 0,-0.2 0,-0.3 C 108.8,21.6 87.3,0 60.6,0 l 0,0 z"
         id="path29"
         inkscape:connector-curvature="0"
         style="fill:#b3b3b3" /></g></g></svg>