<?xml version="1.0" encoding="utf-8"?>
<!-- Generator: Adobe Illustrator 19.2.1, SVG Export Plug-In . SVG Version: 6.00 Build 0)  -->
<svg version="1.1" xmlns="http://www.w3.org/2000/svg" xmlns:xlink="http://www.w3.org/1999/xlink" x="0px" y="0px"
	 viewBox="0 0 120 120" style="enable-background:new 0 0 120 120;" xml:space="preserve">
<style type="text/css">
	.st0{fill:#9881FD;}
	.st1{fill:#B3B3B3;}
	.st2{fill:#FFFFFF;}
	.st3{fill:#BB81FD;}
	.st4{fill:#FF7566;}
	.st5{fill:#FF9E66;}
	.st6{fill:#FFD161;}
	.st7{fill:#FF364E;}
	.st8{fill:#678AFC;}
	.st9{fill:#7CACFC;}
	.st10{fill:#6ED1F9;}
	.st11{fill:#5EC4D1;}
	.st12{fill:#70D9C0;}
	.st13{fill:#95DC79;}
</style>
<g id="Parking">
	<g>
		<g>
			<path class="st0" d="M24.3,79.9c-8.3-9.3-12.9-20.5-12.9-31.4l0-0.3c0-26.5,21.5-48.1,48-48.1l0.6,0l0.6,0
				c26.4,0,48,21.6,48,48.1l0,0.3c-0.1,10.9-4.6,22-12.9,31.4L60,119.7L24.3,79.9z"/>
			<path class="st1" d="M59.4,0v0.4c0.2,0,0.4,0,0.6,0c0.2,0,0.4,0,0.6,0c26.3,0,47.7,21.5,47.7,47.9l0,0.3
				c-0.1,10.8-4.6,21.9-12.9,31.2L60,119.4L24.5,79.8c-8.2-9.3-12.8-20.4-12.9-31.2l0-0.3c0-26.4,21.4-47.9,47.7-47.9L59.4,0
				 M60.6,0c-0.2,0-0.4,0-0.6,0c-0.2,0-0.4,0-0.6,0C32.7,0,11.2,21.6,11.2,48.3c0,0.1,0,0.2,0,0.3c0.1,11.7,5.2,22.8,13,31.5L60,120
				l35.8-39.9c7.7-8.7,12.9-19.8,13-31.5c0-0.1,0-0.2,0-0.3C108.8,21.6,87.3,0,60.6,0L60.6,0z"/>
		</g>
	</g>
	<path class="st2" d="M51,28.1c0.1,0,0.1,0,0.2,0h12.1c8.4,0,15.3,6.5,15.3,14.5s-6.9,14.5-15.3,14.5h-8V70c0,2.4-2,4.3-4.3,4.3
		c-2.4,0-4.3-2-4.3-4.3V32.5c0-2.2,1.6-3.9,3.6-4.3v-0.1h0.5C50.9,28.1,51,28.1,51,28.1 M55.4,48.5h8c3.7,0,6.7-2.6,6.7-5.9
		c0-3.2-3-5.9-6.7-5.9h-8V48.5"/>
</g>
<g id="Information">
</g>
<g id="Restaurant">
</g>
<g id="Bus">
</g>
<g id="Voiture">
</g>
<g id="Hotel">
</g>
<g id="Chalet_x5F_moderne">
</g>
<g id="Chalet_x5F_rustique">
</g>
<g id="Tente">
</g>
<g id="Camping">
</g>
<g id="Lean-to">
</g>
</svg>
