<?xml version="1.0" encoding="utf-8"?>
<!-- Generator: Adobe Illustrator 19.2.1, SVG Export Plug-In . SVG Version: 6.00 Build 0)  -->
<svg version="1.1" xmlns="http://www.w3.org/2000/svg" xmlns:xlink="http://www.w3.org/1999/xlink" x="0px" y="0px"
	 viewBox="0 0 120 120" style="enable-background:new 0 0 120 120;" xml:space="preserve">
<style type="text/css">
	.st0{fill:#9881FD;}
	.st1{fill:#B3B3B3;}
	.st2{fill:#FFFFFF;}
	.st3{fill:#BB81FD;}
	.st4{fill:#FF7566;}
	.st5{fill:#FF9E66;}
	.st6{fill:#FFD161;}
	.st7{fill:#FF364E;}
	.st8{fill:#678AFC;}
	.st9{fill:#7CACFC;}
	.st10{fill:#6ED1F9;}
	.st11{fill:#5EC4D1;}
	.st12{fill:#70D9C0;}
	.st13{fill:#95DC79;}
</style>
<g id="Parking">
</g>
<g id="Information">
</g>
<g id="Restaurant">
</g>
<g id="Bus">
</g>
<g id="Voiture">
</g>
<g id="Hotel">
</g>
<g id="Chalet_x5F_moderne">
</g>
<g id="Chalet_x5F_rustique">
	<g>
		<g>
			<g>
				<path class="st10" d="M24.3,79.9c-8.3-9.3-12.9-20.5-12.9-31.4l0-0.3c0-26.5,21.5-48.1,48-48.1l0.6,0l0.6,0
					c26.4,0,48,21.6,48,48.1l0,0.3c-0.1,10.9-4.6,22-12.9,31.4L60,119.7L24.3,79.9z"/>
				<path class="st1" d="M59.4,0v0.4c0.2,0,0.4,0,0.6,0c0.2,0,0.4,0,0.6,0c26.3,0,47.7,21.5,47.7,47.9l0,0.3
					c-0.1,10.8-4.6,21.9-12.9,31.2L60,119.4L24.5,79.8c-8.2-9.3-12.8-20.4-12.9-31.2l0-0.3c0-26.4,21.4-47.9,47.7-47.9L59.4,0
					 M60.6,0c-0.2,0-0.4,0-0.6,0c-0.2,0-0.4,0-0.6,0C32.7,0,11.2,21.6,11.2,48.3c0,0.1,0,0.2,0,0.3c0.1,11.7,5.2,22.8,13,31.5
					L60,120l35.8-39.9c7.7-8.7,12.9-19.8,13-31.5c0-0.1,0-0.2,0-0.3C108.8,21.6,87.3,0,60.6,0L60.6,0z"/>
			</g>
		</g>
		<path class="st2" d="M84.3,65.2h-5.8v-22l1.7,1.1c0.5,0.3,1.1,0.5,1.6,0.5c1.1,0,2.1-0.5,2.7-1.5h0c0.9-1.5,0.4-3.4-1-4.3
			L61.5,25.4c-0.1,0-0.1-0.1-0.2-0.1c-0.1,0-0.1-0.1-0.2-0.1c-0.1,0-0.2-0.1-0.4-0.1c-0.1,0-0.2,0-0.2-0.1c-0.1,0-0.2,0-0.3,0
			c-0.1,0-0.2,0-0.3,0c-0.1,0-0.2,0-0.3,0c-0.1,0-0.2,0-0.3,0c-0.1,0-0.2,0-0.2,0.1c-0.1,0-0.2,0.1-0.4,0.1c-0.1,0-0.1,0.1-0.2,0.1
			c-0.1,0-0.1,0.1-0.2,0.1L36.6,38.7c-1.5,0.9-1.9,2.8-1,4.3c0.6,1,1.6,1.5,2.7,1.5c0.6,0,1.1-0.1,1.6-0.5l1.7-1.1v22.2h-5.9
			c-0.4,0-0.7,0.3-0.7,0.7s0.3,0.7,0.7,0.7h48.5c0.4,0,0.7-0.3,0.7-0.7S84.6,65.2,84.3,65.2z M39.2,42.9c-0.3,0.2-0.6,0.3-0.9,0.3
			c-0.6,0-1.2-0.3-1.5-0.8c-0.2-0.4-0.3-0.9-0.2-1.3c0.1-0.5,0.4-0.9,0.8-1.1l21.6-13.2c0.1,0,0.1,0,0.2-0.1c0,0,0.1,0,0.1-0.1
			c0.1,0,0.1,0,0.2-0.1c0,0,0.1,0,0.1,0c0.1,0,0.1,0,0.2,0c0.1,0,0.1,0,0.2,0c0.1,0,0.1,0,0.2,0c0.1,0,0.1,0,0.2,0c0,0,0.1,0,0.1,0
			c0.1,0,0.1,0,0.2,0.1c0,0,0.1,0,0.1,0.1c0,0,0.1,0,0.2,0.1L82.8,40c0.4,0.2,0.7,0.6,0.8,1.1c0.1,0.5,0,0.9-0.2,1.3
			c-0.3,0.5-0.9,0.8-1.5,0.8c-0.3,0-0.6-0.1-0.9-0.3L60.6,30.6c-0.2-0.1-0.5-0.2-0.7-0.2s-0.5,0.1-0.7,0.2L39.2,42.9z M63.7,45.7
			c0,2-1.6,3.7-3.7,3.7c-2,0-3.7-1.6-3.7-3.7c0-2,1.6-3.7,3.7-3.7C62,42.1,63.7,43.7,63.7,45.7z M63.5,65.2h-7v-6.2
			c0-2,1.6-3.6,3.5-3.6c1.9,0,3.5,1.6,3.5,3.6V65.2z"/>
	</g>
</g>
<g id="Tente">
</g>
<g id="Camping">
</g>
<g id="Lean-to">
</g>
</svg>
