<?xml version="1.0" encoding="utf-8"?>
<!-- Generator: Adobe Illustrator 19.2.1, SVG Export Plug-In . SVG Version: 6.00 Build 0)  -->
<svg version="1.1" xmlns="http://www.w3.org/2000/svg" xmlns:xlink="http://www.w3.org/1999/xlink" x="0px" y="0px"
	 viewBox="0 0 120 120" style="enable-background:new 0 0 120 120;" xml:space="preserve">
<style type="text/css">
	.st0{fill:#9881FD;}
	.st1{fill:#B3B3B3;}
	.st2{fill:#FFFFFF;}
	.st3{fill:#BB81FD;}
	.st4{fill:#FF7566;}
	.st5{fill:#FF9E66;}
	.st6{fill:#FFD161;}
	.st7{fill:#FF364E;}
	.st8{fill:#678AFC;}
	.st9{fill:#7CACFC;}
	.st10{fill:#6ED1F9;}
	.st11{fill:#5EC4D1;}
	.st12{fill:#70D9C0;}
	.st13{fill:#95DC79;}
</style>
<g id="Parking">
</g>
<g id="Information">
</g>
<g id="Restaurant">
</g>
<g id="Bus">
</g>
<g id="Voiture">
</g>
<g id="Hotel">
	<g>
		<path class="st7" d="M60,0c27-0.3,48.8,21.4,48.8,48.3c0,0.1,0,0.2,0,0.3c-0.1,11.7-5.2,22.8-13,31.5L60,120L24.2,80.1
			c-7.7-8.7-12.9-19.8-13-31.5c0-0.1,0-0.2,0-0.3C11.2,21.4,33-0.3,60,0z"/>
	</g>
	<g>
		<g>
			<path class="st8" d="M24.3,79.9c-8.3-9.3-12.9-20.5-12.9-31.4l0-0.3c0-26.5,21.5-48.1,48-48.1l0.6,0l0.6,0
				c26.4,0,48,21.6,48,48.1l0,0.3c-0.1,10.9-4.6,22-12.9,31.4L60,119.7L24.3,79.9z"/>
			<path class="st1" d="M59.4,0v0.4c0.2,0,0.4,0,0.6,0c0.2,0,0.4,0,0.6,0c26.3,0,47.7,21.5,47.7,47.9l0,0.3
				c-0.1,10.8-4.6,21.9-12.9,31.2L60,119.4L24.5,79.8c-8.2-9.3-12.8-20.4-12.9-31.2l0-0.3c0-26.4,21.4-47.9,47.7-47.9L59.4,0
				 M60.6,0c-0.2,0-0.4,0-0.6,0c-0.2,0-0.4,0-0.6,0C32.7,0,11.2,21.6,11.2,48.3c0,0.1,0,0.2,0,0.3c0.1,11.7,5.2,22.8,13,31.5L60,120
				l35.8-39.9c7.7-8.7,12.9-19.8,13-31.5c0-0.1,0-0.2,0-0.3C108.8,21.6,87.3,0,60.6,0L60.6,0z"/>
		</g>
	</g>
	<g>
		<path class="st2" d="M84.1,69.6h-8.3v-41c0-2.1-1.7-3.8-3.8-3.8H48.1c-2.1,0-3.8,1.7-3.8,3.8v41h-8.4c-0.4,0-0.7,0.3-0.7,0.7
			s0.3,0.7,0.7,0.7h48.2c0.4,0,0.7-0.3,0.7-0.7S84.5,69.6,84.1,69.6z M51.4,55.4c-1.3,0-2.3-1-2.3-2.3s1-2.3,2.3-2.3
			c1.3,0,2.3,1,2.3,2.3S52.6,55.4,51.4,55.4z M51.4,47.5c-1.3,0-2.3-1-2.3-2.3c0-1.3,1-2.3,2.3-2.3c1.3,0,2.3,1,2.3,2.3
			C53.7,46.5,52.6,47.5,51.4,47.5z M51.4,39.8c-1.3,0-2.3-1-2.3-2.3c0-1.3,1-2.3,2.3-2.3c1.3,0,2.3,1,2.3,2.3
			C53.7,38.8,52.6,39.8,51.4,39.8z M62.5,69.6h-5.2v-4.8c0-1.5,1.2-2.7,2.6-2.7c1.4,0,2.6,1.2,2.6,2.7V69.6z M60,42.9
			c1.3,0,2.3,1,2.3,2.3c0,1.3-1,2.3-2.3,2.3c-1.3,0-2.3-1-2.3-2.3C57.7,44,58.7,42.9,60,42.9z M57.7,37.5c0-1.3,1-2.3,2.3-2.3
			c1.3,0,2.3,1,2.3,2.3c0,1.3-1,2.3-2.3,2.3C58.7,39.8,57.7,38.8,57.7,37.5z M60,50.8c1.3,0,2.3,1,2.3,2.3s-1,2.3-2.3,2.3
			c-1.3,0-2.3-1-2.3-2.3S58.7,50.8,60,50.8z M68.6,55.4c-1.3,0-2.3-1-2.3-2.3s1-2.3,2.3-2.3s2.3,1,2.3,2.3S69.9,55.4,68.6,55.4z
			 M68.6,47.5c-1.3,0-2.3-1-2.3-2.3c0-1.3,1-2.3,2.3-2.3s2.3,1,2.3,2.3C70.9,46.5,69.9,47.5,68.6,47.5z M68.6,39.8
			c-1.3,0-2.3-1-2.3-2.3c0-1.3,1-2.3,2.3-2.3s2.3,1,2.3,2.3C70.9,38.8,69.9,39.8,68.6,39.8z M70.7,30.4H48.9c-0.4,0-0.7-0.3-0.7-0.7
			s0.3-0.7,0.7-0.7h21.8c0.4,0,0.7,0.3,0.7,0.7S71.1,30.4,70.7,30.4z"/>
	</g>
</g>
<g id="Chalet_x5F_moderne">
</g>
<g id="Chalet_x5F_rustique">
</g>
<g id="Tente">
</g>
<g id="Camping">
</g>
<g id="Lean-to">
</g>
</svg>
