<?xml version="1.0" encoding="utf-8"?>
<!-- Generator: Adobe Illustrator 19.2.1, SVG Export Plug-In . SVG Version: 6.00 Build 0)  -->
<svg version="1.1" xmlns="http://www.w3.org/2000/svg" xmlns:xlink="http://www.w3.org/1999/xlink" x="0px" y="0px"
	 viewBox="0 0 120 120" style="enable-background:new 0 0 120 120;" xml:space="preserve">
<style type="text/css">
	.st0{fill:#9881FD;}
	.st1{fill:#B3B3B3;}
	.st2{fill:#FFFFFF;}
	.st3{fill:#BB81FD;}
	.st4{fill:#FF7566;}
	.st5{fill:#FF9E66;}
	.st6{fill:#FFD161;}
	.st7{fill:#FF364E;}
	.st8{fill:#678AFC;}
	.st9{fill:#7CACFC;}
	.st10{fill:#6ED1F9;}
	.st11{fill:#5EC4D1;}
	.st12{fill:#70D9C0;}
	.st13{fill:#95DC79;}
</style>
<g id="Parking">
</g>
<g id="Information">
</g>
<g id="Restaurant">
	<g>
		<g>
			<path class="st4" d="M24.3,79.9c-8.3-9.3-12.9-20.5-12.9-31.4l0-0.3c0-26.5,21.5-48.1,48-48.1l0.6,0l0.6,0
				c26.4,0,48,21.6,48,48.1l0,0.3c-0.1,10.9-4.6,22-12.9,31.4L60,119.7L24.3,79.9z"/>
			<path class="st1" d="M59.4,0v0.4c0.2,0,0.4,0,0.6,0c0.2,0,0.4,0,0.6,0c26.3,0,47.7,21.5,47.7,47.9l0,0.3
				c-0.1,10.8-4.6,21.9-12.9,31.2L60,119.4L24.5,79.8c-8.2-9.3-12.8-20.4-12.9-31.2l0-0.3c0-26.4,21.4-47.9,47.7-47.9L59.4,0
				 M60.6,0c-0.2,0-0.4,0-0.6,0c-0.2,0-0.4,0-0.6,0C32.7,0,11.2,21.6,11.2,48.3c0,0.1,0,0.2,0,0.3c0.1,11.7,5.2,22.8,13,31.5L60,120
				l35.8-39.9c7.7-8.7,12.9-19.8,13-31.5c0-0.1,0-0.2,0-0.3C108.8,21.6,87.3,0,60.6,0L60.6,0z"/>
		</g>
	</g>
	<g>
		<path class="st2" d="M55.5,27.8c-0.3,0-0.6,0.3-0.6,0.6v12.7h-2.1V28.4c0-0.3-0.3-0.6-0.6-0.6s-0.6,0.3-0.6,0.6v12.7h-2.1V28.4
			c0-0.3-0.3-0.6-0.6-0.6s-0.6,0.3-0.6,0.6v12.7h-2.1V28.4c0-0.3-0.3-0.6-0.6-0.6c-0.3,0-0.6,0.3-0.6,0.6v13.4c0,0,0,0,0,0
			c0,2.5,1.7,4.7,3.9,5.4c-1.2,0.6-2.1,1.9-2.1,3.4v19.8c0,2.1,1.7,3.8,3.8,3.8c2.1,0,3.8-1.7,3.8-3.8V50.6c0-1.5-0.9-2.8-2.1-3.4
			c2.3-0.7,3.9-2.9,3.9-5.4c0,0,0,0,0,0V28.4C56.2,28.1,55.9,27.8,55.5,27.8z M53,57.6v12.6c0,1.4-1.1,2.5-2.5,2.5
			c-1.4,0-2.5-1.1-2.5-2.5V57.6c0-1.4,1.1-2.5,2.5-2.5C51.9,55.1,53,56.2,53,57.6z M50.5,46.2c-2.2,0-4-1.6-4.4-3.8h8.7
			C54.5,44.6,52.7,46.2,50.5,46.2z"/>
		<path class="st2" d="M73.5,54.6h-0.7c1.8-5.8,2.5-10.2,2.3-15.4c-0.2-6.5-3-10.1-3.1-10.2c-0.5-0.7-1.4-1.1-2.2-1.1
			c-1.6,0-2.8,1.3-2.8,2.8v23.9c-0.3,0-0.5,0.3-0.5,0.6v15.2c0,2.1,1.7,3.7,3.8,3.7s3.8-1.7,3.8-3.7V55.2
			C74.1,54.9,73.8,54.6,73.5,54.6z M68.3,30.7c0-0.9,0.7-1.5,1.5-1.5c0.5,0,0.9,0.2,1.2,0.6c0,0,2.6,3.4,2.8,9.5
			c0.2,5.1-0.5,9.5-2.4,15.3h-3.2V30.7z M72.8,70c0,1.4-1.1,2.5-2.5,2.5s-2.5-1.1-2.5-2.5v-3.4c0-1.4,1.1-2.5,2.5-2.5
			s2.5,1.1,2.5,2.5V70z"/>
	</g>
</g>
<g id="Bus">
</g>
<g id="Voiture">
</g>
<g id="Hotel">
</g>
<g id="Chalet_x5F_moderne">
</g>
<g id="Chalet_x5F_rustique">
</g>
<g id="Tente">
</g>
<g id="Camping">
</g>
<g id="Lean-to">
</g>
</svg>
